<svg xmlns="http://www.w3.org/2000/svg" xmlns:xlink="http://www.w3.org/1999/xlink" version="1.1" id="Layer_1" x="0px" y="0px" style="enable-background:new 0 0 3324.03 2506.42;" xml:space="preserve" viewBox="-0.01 0.01 3324.03 2506.41">
<style type="text/css">
	.st0{fill:#F2A5A5;}
	.st1{fill:#6B184E;}
	.st2{fill:#F9C9CA;}
	.st3{fill:none;stroke:#6B184E;stroke-width:34.8343;stroke-linecap:round;stroke-linejoin:round;stroke-miterlimit:10;}
	.st4{fill:#ED9558;}
	.st5{opacity:0.35;}
	.st6{fill:#FFFFFF;}
	.st7{fill:#DB8042;}
	.st8{clip-path:url(#SVGID_00000017510868538397523990000011892828728298538169_);}
	.st9{fill:#FF6982;}
	.st10{fill:#EF3C62;}
	.st11{fill:#8E8FB3;}
	.st12{fill:#6C709E;}
	.st13{fill:#000072;}
	.st14{fill:#D3D4E2;}
	.st15{fill:#F27E80;}
	.st16{opacity:0.5;}
	.st17{fill:#686868;}
	.st18{fill:#E8E8E8;}
	.st19{opacity:0.3;}
	.st20{fill:#FF5C64;}
	.st21{opacity:0.7;}
	.st22{fill:#39D5FF;}
	.st23{fill:#3BB4FF;}
	.st24{fill:#FF0068;}
	.st25{fill:#5AC4FF;}
	.st26{fill:#3B98ED;}
	.st27{fill:#FAA327;}
	.st28{fill:#EF7F25;}
	.st29{fill:#F9D3B7;}
	.st30{fill:#FFF3E9;}
	.st31{fill:#C3CEE2;}
	.st32{fill:#512717;}
	.st33{fill:#E8C797;}
	.st34{fill:#F9A528;}
	.st35{fill:#FF8080;}
	.st36{fill:#F26666;}
	.st37{fill:#390075;}
	.st38{fill:#4D1C54;}
	.st39{fill:#FEF26B;}
	.st40{fill:#FFC55F;}
	.st41{fill:#FD6CCB;}
	.st42{fill:#F948C3;}
	.st43{opacity:0.6;}
	.st44{fill:#E8D7FF;}
	.st45{fill:#FDC1E5;}
	.st46{fill:#F792D3;}
	.st47{fill:#FFCCD9;}
	.st48{fill:#FFC5F4;}
	.st49{fill:#FFEBF6;}
	.st50{fill:#E89ABD;}
	.st51{fill:#F7B0DE;}
	.st52{fill:#EFA500;}
	.st53{fill:#FDD800;}
	.st54{fill:#FFB3E8;}
	.st55{fill:#FF3BC3;}
	.st56{opacity:0.2;}
	.st57{fill:#371A45;}
	.st58{fill:#D8D8D8;}
	.st59{fill:none;stroke:#371A45;stroke-width:40.1633;stroke-linecap:round;stroke-miterlimit:10;}
	.st60{fill:#22A7F0;}
	.st61{fill:#2580EF;}
	.st62{fill:#AFAFB2;}
	.st63{fill:#7F7F7F;}
	.st64{fill:none;stroke:#371A45;stroke-width:40.1633;stroke-linecap:round;stroke-linejoin:round;stroke-miterlimit:10;}
	.st65{fill:#111A28;}
	.st66{fill:#A9DEFF;}
	.st67{fill:#70ABF2;}
	.st68{fill:#5F2D87;}
	.st69{opacity:0.45;}
	.st70{fill:#FFCF48;}
	.st71{fill:#FFA04A;}
	.st72{fill:#FFB845;}
	.st73{fill:#FFF8EB;}
	.st74{fill:none;stroke:#371A45;stroke-width:39.9721;stroke-linecap:round;stroke-linejoin:round;stroke-miterlimit:10;}
	.st75{fill:none;stroke:#371A45;stroke-width:38.7871;stroke-linecap:round;stroke-miterlimit:10;}
	.st76{fill:none;stroke:#371A45;stroke-width:38.7871;stroke-linecap:round;stroke-linejoin:round;stroke-miterlimit:10;}
	.st77{fill:none;stroke:#FFFFFF;stroke-width:36.0017;stroke-linecap:round;stroke-miterlimit:10;}
	.st78{fill:#1C7AEA;}
	.st79{fill:#EA3498;}
	.st80{fill:#FF66DF;}
	.st81{fill:#F246B9;}
	.st82{fill:#FFD62C;}
	.st83{fill:#FFBE2E;}
	.st84{fill:#FFED80;}
	.st85{fill:#57FF9B;}
	.st86{fill:#6C8FFF;}
	.st87{fill:#FF99FF;}
	.st88{fill:#220F2D;}
	.st89{fill:#4D1F6D;}
	.st90{fill:#2B1147;}
	.st91{fill:#070B11;}
	.st92{fill:#FFD731;}
	.st93{fill:#FF9D33;}
	.st94{fill:#FFB200;}
	.st95{fill:#FF9100;}
	.st96{fill:none;stroke:#293856;stroke-width:32.3961;stroke-linecap:round;stroke-miterlimit:10;}
	.st97{fill:#D66B09;}
	.st98{fill:#FFD766;}
	.st99{fill:#FFAA39;}
	.st100{fill:#FFCF6E;}
	.st101{fill:#FFEC90;}
	.st102{opacity:0.41;}
	.st103{fill:#FFD243;}
	.st104{fill:#FCAC38;}
	.st105{fill:#FF8A3B;}
	.st106{fill:#29B8FF;}
	.st107{fill:#2C96FF;}
	.st108{fill:#2366F9;}
	.st109{fill:#2276FC;}
	.st110{fill:none;}
	.st111{fill:#DDDDDD;}
	.st112{fill:#3A3A3A;}
	.st113{fill:#BABABA;}
	.st114{fill:#969595;}
	.st115{fill:#F95050;}
	.st116{fill:#D63C3C;}
	.st117{opacity:0.5;fill:url(#SVGID_00000080191241274978316810000012548375744530555806_);}
	.st118{opacity:0.5;fill:url(#SVGID_00000043419224901070158530000013599996457334758071_);}
	.st119{opacity:0.5;fill:url(#SVGID_00000160888050114562772330000003660291458939568308_);}
	.st120{opacity:0.5;fill:url(#SVGID_00000129884798690539729580000008410790244375024792_);}
	.st121{fill:#9E9E9E;}
	.st122{fill:#36DD4A;}
	.st123{fill:#FCCA81;}
</style>
<g>
	<g>
		<g>
			<g>
				<path class="st25" d="M1802.03,2219.91l-662.34,132.85l-159.09-40.91l-89.71-23.04c-30.92-1.8-54.53-28.3-52.74-59.18      l71.92-35.09l47.66-23.26L1802.03,2219.91z"/>
			</g>
			<g>
				<path class="st6" d="M1448.5,2242.9l-467.9,68.95l-89.71-23.04c-30.92-1.8-54.53-28.3-52.74-59.18l71.92-35.09L1448.5,2242.9z"/>
			</g>
			<g>
				<path class="st13" d="M1139.69,2370.88c-1.52,0-3.03-0.19-4.51-0.57l-247.22-63.54c-39.9-3.31-70.21-37.98-67.91-78.18      c0.38-6.55,4.26-12.38,10.15-15.25L949.8,2155c2.79-1.37,5.88-2,8.99-1.81l844.29,48.63c9.11,0.53,16.41,7.73,17.05,16.83      c0.64,9.1-5.58,17.25-14.52,19.04l-662.35,132.83C1142.08,2370.76,1140.88,2370.88,1139.69,2370.88z M856.99,2240.61      c3.42,16.35,17.48,29.09,34.94,30.09c1.17,0.07,2.33,0.25,3.47,0.54l244.79,62.92l519.87-104.26l-698.63-40.23L856.99,2240.61z"/>
			</g>
			<g>
				<path class="st25" d="M1179.94,2394.63l-787.45-37.86c-46.3-2.23-82.23-41.21-80.68-87.54l0,0l844.29,48.63l84.27,68.87      L1179.94,2394.63z"/>
			</g>
			<g>
				<path class="st26" d="M1240.35,2386.71l-60.4,7.93l-787.44-37.89c-46.3-2.19-82.26-41.17-80.68-87.52l1.01,0.04      c13.54,25.62,39.9,43.63,70.92,45.12l787.44,37.89l23.3-3.07L1240.35,2386.71z"/>
			</g>
			<g>
				<path class="st13" d="M1179.94,2412.75c-0.29,0-0.58-0.01-0.87-0.02l-787.45-37.86c-55.87-2.69-99.81-50.36-97.93-106.26      c0.17-4.88,2.29-9.49,5.9-12.78s8.41-4.98,13.26-4.71l844.29,48.63c3.81,0.22,7.47,1.64,10.42,4.06l84.28,68.87      c5.61,4.58,7.95,12.05,5.97,19s-7.91,12.07-15.08,13.01l-60.43,7.91C1181.51,2412.7,1180.73,2412.75,1179.94,2412.75z       M331.98,2288.54c7.12,27.58,31.64,48.68,61.38,50.11l785.83,37.79l17.19-2.25l-47.21-38.58L331.98,2288.54z"/>
			</g>
			<g>
				<path class="st27" d="M3064.03,1868.48c-343.72,158.22-640.92-38.68-640.92-38.68l27.16-94.13l1.4-4.82      c113.84,15.86,203.81,6.31,271.44-17.61c51.29-18.13,89.75-44.55,116.03-74.38c0.04-0.04,0.04-0.04,0.09-0.09      c32.98-37.36,46.87-80.12,43.06-118.79c-6.57-66.58-52.65-99.08-84.01-100.48c-62.77-2.76-64.48,80.12-117.96,82.17      c-21.64,0.79-47.48-25.84-65.66-66.45c-10.34-23.08-18.18-50.72-21.38-80.42c-8.94-82.87,18.57-181.74,130.18-241.83      c230.18-124.01,446.92,10.34,537.81,203.99C3349.98,1505.83,3319.01,1751.17,3064.03,1868.48z"/>
			</g>
			<g>
				<path class="st28" d="M2839.24,1638.78c32.98-37.36,46.87-80.12,43.06-118.79c-6.57-66.58-52.65-99.08-84.01-100.48      c-62.77-2.76-64.48,80.12-117.96,82.17c-21.64,0.79-47.48-25.84-65.66-66.45c24.84,21.64,61.76,41.09,90.45,2.19      c40.21-54.4,41.48-110.78,112.35-116.82C2900.96,1313.45,2985.93,1487,2839.24,1638.78z"/>
			</g>
			<g>
				<path class="st28" d="M3064.03,1868.48c-343.72,158.22-640.92-38.68-640.92-38.68l27.16-94.13l1.4-4.82      c113.84,15.86,203.81,6.31,271.44-17.61c47.26,37.23,133.07,73.19,283.97,56.77c231.15-25.23,298.38-283.71,254.19-453.05      C3349.98,1505.83,3319.01,1751.17,3064.03,1868.48z"/>
			</g>
			<g>
				<path class="st29" d="M3306.26,1512.36c0,95.71-33.07,190.72-109.77,266.45c-3.46,3.46-7.05,6.83-10.69,10.21      c-32.98,30.27-73.33,57.16-121.77,79.46c-343.72,158.22-640.92-38.68-640.92-38.68l27.16-94.13      c83.97,68.64,325.8,113.71,498.65,38.24c18.22-0.39,37.58-1.66,58.17-3.9c231.15-25.23,298.38-283.67,254.19-453.01      c1.84,3.81,3.59,7.67,5.26,11.52c0.83,1.93,1.66,3.9,2.5,5.83c1.71,3.9,3.29,7.84,4.82,11.78c0.74,1.97,1.53,3.94,2.28,5.91      c1.36,3.64,2.67,7.27,3.99,10.91c0.26,0.66,0.48,1.36,0.7,2.02c1.27,3.68,2.45,7.36,3.63,11.04c0.66,2.02,1.27,4.03,1.88,6.04      c0.66,2.02,1.27,4.07,1.84,6.09c0.57,2.02,1.14,4.03,1.71,6.09c0.57,2.01,1.09,4.07,1.66,6.09c1.62,6.13,3.11,12.31,4.42,18.48      c1.31,6.13,2.54,12.31,3.64,18.48c0.44,2.45,0.88,4.95,1.23,7.4c0.53,3.33,1.05,6.66,1.49,10.03c0.35,2.5,0.7,5.04,0.96,7.58      c0.35,2.85,0.66,5.69,0.92,8.54c0.26,2.5,0.48,4.99,0.66,7.49c0.18,2.01,0.31,4.07,0.44,6.09c0.17,2.06,0.31,4.07,0.39,6.09      c0.04,1.05,0.13,2.1,0.13,3.11c0.13,2.8,0.22,5.61,0.31,8.41C3306.22,1505.44,3306.26,1508.9,3306.26,1512.36z"/>
			</g>
			<g>
				<path class="st30" d="M2616.5,1397.2c0,0,0.04-0.13,0.09-0.39C2616.68,1397.07,2616.68,1397.2,2616.5,1397.2z"/>
			</g>
			<g>
				<path class="st6" d="M3064.03,1868.49c-343.7,158.21-640.94-38.7-640.94-38.7l27.19-94.12      c110.5,90.32,494.35,139.83,634.73-72.45c147.29-222.64,25.93-519.03-227.35-512.42c-201.92,5.26-258.44,197.21-261.39,207.77      c-0.2-0.6-1.2-1.85-3-3.76c-8.91-82.91,18.57-181.74,130.22-241.87C3178.08,868.08,3580.41,1630.88,3064.03,1868.49z"/>
			</g>
			<g>
				<path class="st31" d="M3306.26,1512.36c0,95.71-33.07,190.72-109.77,266.45c-3.46,3.46-7.05,6.83-10.69,10.21      c-32.98,30.27-73.33,57.16-121.77,79.46c-343.72,158.22-640.92-38.68-640.92-38.68l27.16-94.13      c83.97,68.64,325.8,113.71,498.65,38.24c18.22-0.39,37.58-1.66,58.17-3.9c231.15-25.23,298.38-283.67,254.19-453.01      c1.84,3.81,3.59,7.67,5.26,11.52c0.83,1.93,1.66,3.9,2.5,5.83c1.71,3.9,3.29,7.84,4.82,11.78c0.74,1.97,1.53,3.94,2.28,5.91      c1.4,3.64,2.72,7.27,3.99,10.91c0.26,0.66,0.48,1.36,0.7,2.02c1.27,3.68,2.45,7.36,3.63,11.04c0.66,2.02,1.27,4.03,1.88,6.04      c0.66,2.02,1.27,4.07,1.84,6.09c0.57,2.02,1.14,4.03,1.71,6.09c0.57,2.01,1.09,4.07,1.66,6.09c1.62,6.13,3.11,12.31,4.42,18.48      c1.36,6.13,2.58,12.31,3.64,18.48c0.44,2.45,0.88,4.95,1.23,7.4c0.57,3.33,1.05,6.66,1.49,10.03c0.35,2.5,0.7,5.04,0.96,7.58      c0.35,2.85,0.66,5.69,0.92,8.54c0.26,2.5,0.48,4.99,0.66,7.49c0.18,2.06,0.35,4.07,0.44,6.09c0.17,2.06,0.31,4.07,0.39,6.09      c0.04,1.05,0.13,2.1,0.13,3.11c0.13,2.8,0.22,5.61,0.31,8.41C3306.22,1505.44,3306.26,1508.9,3306.26,1512.36z"/>
			</g>
			<g>
				<path class="st13" d="M2785.41,1947.54c-67.2,0-126.85-9.73-175.06-21.84c-118.86-29.84-193.93-79.01-197.07-81.09      c-8.17-5.42-10.41-16.43-5-24.6c5.42-8.17,16.44-10.4,24.6-5c1.31,0.86,74.53,48.46,187.4,76.58      c103.95,25.89,264,40.11,436.32-39.2c139.1-64.02,221.1-174.9,230.91-312.21c10.91-152.73-71.75-317.78-201.02-401.37      c-109.49-70.8-235.43-74.42-354.62-10.22c-150.13,80.88-124.71,223.08-113.34,264.74c15.55,56.98,46.06,91.11,61.1,90.58      c15.83-0.61,25.25-12.6,39.33-32.12c16.67-23.12,37.37-51.88,80.1-50.01c37.3,1.64,93.27,38.85,100.9,116.49      c5.01,51.04-17.18,104.38-60.91,146.36c-46.93,45.06-159.99,115.9-389.82,83.8c-9.71-1.35-16.48-10.32-15.13-20.03      c1.35-9.71,10.38-16.49,20.03-15.13c214.99,29.99,318.04-33.65,360.34-74.25c35.82-34.4,54.11-77.15,50.16-117.29      c-5.49-55.87-43.3-83.45-67.12-84.49c-22.38-1.02-33.51,12.77-49.75,35.31c-14.62,20.28-32.83,45.53-66.76,46.84      c-37.92,1.39-77.56-46.54-96.71-116.71c-27.02-99-6.85-231.21,130.76-305.34c131.11-70.63,269.87-66.49,390.73,11.66      c141.87,91.73,229.14,266.03,217.15,433.71c-10.77,150.82-100.08,272.25-251.48,341.93      C2969.27,1931.67,2871.19,1947.54,2785.41,1947.54z"/>
			</g>
			<g>
				<path class="st28" d="M1589.68,1873.03c-29.52,151.6-128.25,207.06-201.32,227.25c-47.35,13.1-83.93,11.34-83.93,11.34      s-3.72,137.58-125.93,136.88c-103.77-0.57-140.96-82.13-140.78-207.14c0.18-122.12,92.6-156.29,135.18-165.53      c12.75-2.8,21.03-3.33,21.03-3.33c25.84-12.44,61.5-300.84,61.5-300.84L1589.68,1873.03z"/>
			</g>
			<g>
				<path class="st6" d="M1388.36,2100.28c-47.35,13.1-83.93,11.34-83.93,11.34s-3.72,137.58-125.93,136.88      c-72.14-0.39-112.14-39.95-129.74-106.09c-7.67-28.95-11.08-62.99-11.04-101.05c0.18-122.12,92.6-156.29,135.18-165.53      c42.14-4.64,94.7-1.14,137.45,31.1c13.05,9.9,25.23,22.43,35.87,38.28C1377.28,1991.39,1387.44,2048.29,1388.36,2100.28z"/>
			</g>
			<g>
				<path class="st31" d="M1388.36,2100.28c-47.35,13.1-83.93,11.34-83.93,11.34s-3.72,137.58-125.93,136.88      c-72.14-0.39-112.14-39.95-129.74-106.09c21.46,14.37,61.5,29.04,119.14,0.92c63.6-31.01,23.04-190.76,142.45-236.4      c13.05,9.9,25.23,22.43,35.87,38.28C1377.28,1991.39,1387.44,2048.29,1388.36,2100.28z"/>
			</g>
			<g>
				<path class="st13" d="M1179.44,2266.64c-0.34,0-0.68,0-1.02,0c-105.59-0.6-159.03-76.4-158.82-225.29      c0.21-151.86,131.22-181,165.19-185.99c14.12-27.39,37.83-166.1,52.63-285.91c1.23-9.94,10.26-16.99,20.21-15.77      c9.94,1.23,17,10.28,15.77,20.21c-0.09,0.72-9.09,73.32-21.15,146.49c-25.81,156.63-39.49,163.19-50.48,168.47      c-2.09,1-4.35,1.6-6.66,1.75c-5.63,0.4-139.07,11.44-139.26,150.81c-0.23,168.77,69.96,188.69,122.77,188.98      c0.26,0,0.52,0,0.78,0c101.98,0,106.76-114.41,106.91-119.3c0.15-4.85,2.25-9.46,5.82-12.76c3.57-3.29,8.33-4.98,13.16-4.81      c8.99,0.39,221.64,7,266.59-223.94c1.91-9.83,11.43-16.26,21.25-14.33c9.83,1.91,16.25,11.43,14.33,21.25      c-26.62,136.76-107.9,198.45-171.4,226.12c-47.33,20.62-91.42,25.74-114.91,26.9      C1313.94,2184.92,1278.27,2266.64,1179.44,2266.64z"/>
			</g>
			<g>
				<path class="st13" d="M1213.15,2162.05c5.38,14.74,17.3,33.88,34.87,31.84c5.88-0.17,11.69-3.49,17.28-5.4      c9.48-3.41,19.94,1.51,23.35,10.99c3.41,9.48-1.51,19.94-10.99,23.35c-5.64,1.51-11.16,2.57-17.02,3.17      c-15.12,1.43-31.41-2.85-42.78-13.37c-10.71-9.99-16.28-21.49-19.99-34.62c-1.92-7.6-6.33-20.81,5.32-22.73      C1207.83,2154.68,1211.97,2157.72,1213.15,2162.05L1213.15,2162.05z"/>
			</g>
			<g>
				<path class="st32" d="M1118.61,2143.91c5.54,33.99,21.12,77.86,58.6,85.71c23.43,5.36,16.71,39.64-7.05,35.71      c-7.5-2.05-14.58-5.67-21.11-9.76c-36.45-24.23-48-69.76-48.55-110.92C1100.67,2133.19,1117.5,2132.54,1118.61,2143.91      L1118.61,2143.91z"/>
			</g>
			<g>
				<path class="st28" d="M1904.81,2196.97c14.16,71,51.68,205.95,193.09,232.79c97.05,18.42,210.42-33.11,263.98-133.95      c0,0,94.75,152.62,218.46,57.83c133.07-101.96-62.64-324.14-140.11-354.92c-59.34-23.58-116.98-1.16-116.98-1.16      s0.05-220.88-169.37-362.53L1904.81,2196.97z"/>
			</g>
			<g>
				<path class="st13" d="M1913.7,2195.2c20.63,71.87,51.76,147.34,116.99,188.69c109.12,68.62,255.88,11.78,315.18-96.58      c0,0,3.26-5.74,3.26-5.74c4.15-7.3,13.43-9.85,20.73-5.7c4.01,2.28,6.6,6.18,7.42,10.38c1.69,2.65,4.17,6.17,6.45,9.23      c32.54,43.89,87,85.39,143.84,66.36c113.79-41.38,87.65-143.6,32.14-225.25c-31.95-45.73-71.09-90.47-119.91-118.17      c-32.1-15.32-71.21-15.47-105.24-5.52c-1.66,0.5-3.77,1.2-4.75,1.57c-11.56,4.63-24.8-4.53-24.7-16.9      c-4.34-98.48-36.88-197.32-95.44-276.94c-19.59-26.57-42.49-50.54-67.62-71.84c-17.65-15.58,4.45-42.79,23.45-27.66      c54.81,45.9,97.9,104.84,127.08,169.93c28.81,65.14,46.36,135.24,48.79,206.51c0,0-24.7-16.9-24.7-16.9      c9.48-3.5,18.28-5.55,27.99-7.43c74.44-13.12,124.39,10.72,176.81,62.05c83.14,79.15,188.44,242.96,67.41,334.58      c-80.11,61.14-166.51,30.68-225.74-41.95c-6.13-7.49-11.24-14.12-16.66-22.54l31.41-1.06      c-91.91,180.86-356.94,208.93-449.57,13.39c-17.78-37.33-27.96-78.41-32.4-118.96      C1894.96,2187.67,1910.49,2184.76,1913.7,2195.2L1913.7,2195.2z"/>
			</g>
			<g>
				<path class="st27" d="M2507.61,2024.68c-1.45,2.8-2.8,5.52-4.12,8.19c-5.43,10.95-10.69,21.73-15.9,32.19      c-39.33,78.84-77.05,143.37-168.03,179.07c-285.9,112.14-997.56,79.59-1060.64-573.81l446.44-215.29      c18.7,4.82,38.02,8.1,57.86,10.21c129.17,13.58,280.47-24.05,429.18-27.81c135.74-3.42,269.34,21.42,381.83,139.38      C2678.79,1735.62,2563.41,1914.6,2507.61,2024.68z"/>
			</g>
			<g>
				<path class="st28" d="M2487.59,2065.06c-39.33,78.84-77.05,143.37-168.03,179.07c-285.9,112.14-997.56,79.59-1060.64-573.81      l446.44-215.29c18.7,4.82,38.02,8.1,57.86,10.21c129.17,13.58,280.47-24.05,429.18-27.81      c-22.47,71.35-106.18,217.87-417.18,282.96c-82.52,17.26-117.22,117.17-61.02,180.03c32.63,36.49,90.32,69.65,177.14,105.65      c67.32,90.67,259.97,115.95,309.29,103.81c144.37-35.52,242.71-192.91,242.71-192.91L2487.59,2065.06z"/>
			</g>
			<g>
				<path class="st30" d="M2491.49,2506.2c0.61,0.13,0.79,0.22,0.48,0.22C2491.8,2506.42,2491.62,2506.33,2491.49,2506.2z"/>
			</g>
			<g>
				<path class="st31" d="M2507.61,2024.68c-1.45,2.8-2.8,5.52-4.12,8.19c-46.12,93.34-80.86,170.83-183.93,211.26      c-285.9,112.14-997.56,79.59-1060.64-573.81l446.44-215.29c18.7,4.82,38.02,8.1,57.86,10.21      c-31.32,99.65-72.89,227.99-72.89,227.99s-108.28,194.79,126.9,374.16C2010.54,2214.78,2327.89,2106.72,2507.61,2024.68z"/>
			</g>
			<g>
				<path class="st13" d="M2019.56,2312.49c-158.69,0-331.41-35.81-471.74-121.92c-84.52-51.87-153.12-119.07-203.9-199.73      c-56.64-89.97-91.3-197.22-103.04-318.78c-0.96-9.97,6.34-18.83,16.3-19.79c9.91-0.91,18.82,6.34,19.79,16.3      c21.33,220.95,118.83,386.18,289.8,491.1c232.61,142.74,558.05,141.37,746.15,67.59c92.44-36.25,126.15-104.69,168.83-191.33      l5.47-11.11c6.68-13.52,14.37-28.08,22.51-43.49c57.87-109.58,137.06-259.52,50.24-393.23      c-156.36-162.82-355.05-139.48-547.24-116.9c-112.06,13.17-217.89,25.61-311.92,1.39c-9.7-2.5-15.53-12.38-13.04-22.08      c2.5-9.7,12.39-15.53,22.08-13.04c87.49,22.53,190.05,10.48,298.65-2.29c192.1-22.57,409.82-48.16,578.84,129.08      c0.75,0.79,1.43,1.64,2.02,2.54c100.03,151.96,11.2,320.16-47.58,431.46c-8.02,15.19-15.6,29.54-22.06,42.62l-5.46,11.06      c-44.32,89.98-82.59,167.68-188.11,209.07C2243.43,2293.46,2135.21,2312.49,2019.56,2312.49z"/>
			</g>
			<g>
				<path class="st27" d="M2865.39,2359.55c-122.12,75.43-189.01-53.92-198.82-74.81c-0.53-1.09-0.88-1.88-1.09-2.37v-0.04      c-0.13-0.26-0.18-0.39-0.18-0.39c-64.78,78.14-186.91,116.78-281.96,90.1c-117.65-33.03-160.19-130.88-179.11-239.56      c-1.31-7.49-2.5-15.02-3.59-22.6l373.59-533.08c126.2,145.29,100.57,404.56,100.57,404.56s0.88-0.18,2.54-0.44      c11.96-2.02,64.52-8.54,112.75,20.24C2861.67,2043.91,2996.8,2278.38,2865.39,2359.55z"/>
			</g>
			<g>
				<path class="st28" d="M2723.91,2160.25c-0.92,3.2-17.43,58.52-58.43,122.08c-0.13-0.26-0.18-0.39-0.18-0.39      c-64.78,78.14-186.91,116.78-281.96,90.1c-117.65-33.03-160.19-130.88-179.11-239.56c36.66,55.76,110.73,145.64,222.12,176.04      C2613.87,2359.77,2720.97,2165.59,2723.91,2160.25z"/>
			</g>
			<g>
				<path class="st6" d="M2865.39,2359.55c-122.12,75.43-189.01-53.92-198.82-74.81c12.7-19.14,33.82-54.27,48.18-95.53      c9.68-27.64,16.29-58.08,15.37-88.35c-3.11-99.08-66.71-84.63-66.71-84.63l13.93-35.3c11.96-2.02,64.52-8.54,112.75,20.24      c24.84,14.85,57.34,52.78,83.71,99.39C2923.38,2188.19,2951.2,2306.55,2865.39,2359.55z"/>
			</g>
			<g>
				<path class="st31" d="M2865.39,2359.55c-122.12,75.43-189.01-53.92-198.82-74.81c12.7-19.14,33.82-54.27,48.18-95.53      c1.01,41.09,13.67,98.34,72.32,118.31c95.31,32.46,133.55-77.31,86.73-206.97C2923.38,2188.19,2951.2,2306.55,2865.39,2359.55z"/>
			</g>
			<g>
				<path class="st13" d="M2209.59,2108.58c17.95,76.56,39.96,154.6,100.75,205.44c99.9,82.03,259.26,48.3,341.01-43.66      c0,0,30.65,4.51,30.65,4.51c1.19,2.7,3.01,6.4,4.72,9.61c35.7,66.79,95.24,105.66,166.64,61.13      c97.74-58.42,28.84-209.16-23.47-279.34c-13.65-17.98-28.59-35.63-46.78-48.07c-29.06-18.33-65.8-24.21-99.82-19.89      c-1.64,0.22-3.76,0.56-4.72,0.76c-11.73,2.6-23.07-7.61-21.83-19.51c6.72-102.44-3.23-209.94-43.37-305.08      c-13.55-31.24-30.94-60.6-52.84-85.82c-15.09-18.06,10.88-41.63,27.38-23.77c72.97,85.45,98.27,199.57,105.55,308.73      c2.11,36.81,2.36,72.41-0.65,109.5l-21.83-19.51c18.24-3.39,36.27-3.59,54.61-1.82c35.9,3.56,72.97,17.74,98.96,43.48      c37.28,36.41,64.55,80.61,85.68,127.71c48.06,107.52,44.96,229.92-88.75,264.69c-77.9,19.27-143.21-42.36-172.88-108.65      c-0.09-0.06,30.65,4.49,30.64,4.48c-18.27,23.07-40.83,42.18-65.21,57.83c-97.7,62.72-236.52,69.8-327.4-9.28      c-66.49-57.12-89.63-147.15-95-230.88C2191.24,2100.04,2206.95,2097.89,2209.59,2108.58L2209.59,2108.58z"/>
			</g>
			<g>
				<g>
					<path class="st33" d="M2723.94,2160.12c0,0-18.17,67.64-58.62,121.81L2723.94,2160.12z"/>
				</g>
				<g>
					<path class="st13" d="M2732.69,2162.47c-7.74,34.51-19.28,67.45-35.04,99.11c-5.22,10.65-11.35,20.96-17.81,31.19       c-5.36,8.49-16.59,11.03-25.08,5.67c-8.49-5.36-11.03-16.59-5.67-25.08c7.1-9.14,14.72-17.89,21.18-27.81       c18.36-27.04,33.59-57.14,44.91-87.78C2718.79,2146.99,2735,2151.35,2732.69,2162.47L2732.69,2162.47z"/>
				</g>
			</g>
			<g>
				<g>
					<path class="st34" d="M1300.47,1898.36c4.14,0-45.11-26.74-112.29-25.26L1300.47,1898.36z"/>
				</g>
				<g>
					<path class="st13" d="M1300.47,1889.3c-7.2-0.29-11.66,9.06-6.9,14.53c0.2,0.27,0.47,0.57,0.71,0.79       c0.39,0.35,0.08,0.15,0.16,0.23l-1.09-0.49c-15.8-6.6-32.95-10.16-49.89-12.44c-18.39-2.35-36.88-2.58-54.9-0.7       c-23.93,1.78-27.65-32.95-3.77-36.18c21.92,0.32,43.63,4.47,64.29,10.28c18.69,5.57,36.99,12.46,53.6,22.85       c1.46,1.04,3.18,2.11,4.48,3.56c4.08,4.06,3.19,11.9-2.2,14.53C1291.02,1912.71,1285.33,1890.42,1300.47,1889.3L1300.47,1889.3       z"/>
				</g>
			</g>
			<g>
				<g>
					<path class="st33" d="M2652.05,2051.13c0,0,15.55-40.93,22.74-69.79L2652.05,2051.13z"/>
				</g>
				<g>
					<path class="st13" d="M2643.58,2047.91c5.43-23.2,10.77-47.56,13.62-70.95c4.58-26.92,43.75-17.19,35.18,8.76       c-9.28,24.05-20.21,45.98-31.86,68.63C2655.53,2063.85,2640.97,2058.22,2643.58,2047.91L2643.58,2047.91z"/>
				</g>
			</g>
			<g>
				<path class="st25" d="M1778.74,2296.09l-553.45,93.17c-37.2,6.26-70.81-23.14-69.55-60.84l0.35-10.57l643.88-97.69      c16.26-2.49,30.72,10.54,29.95,26.97v0C1829.95,2271.55,1807.21,2290.94,1778.74,2296.09z"/>
			</g>
			<g>
				<path class="st26" d="M1829.94,2247.15c0,12.18-5.69,23.13-14.94,31.71c-9.24,8.5-22.03,14.63-36.27,17.21l-553.45,93.17      c-37.19,6.26-70.79-23.13-69.56-60.84l0.35-10.56l19.93-3.02c11.69,20.76,35.39,33.73,61.06,29.83l554.89-83.93      c14.28-2.32,27.2-8.24,36.58-16.65c0.44-0.39,0.88-0.79,1.27-1.18C1829.94,2244.26,1829.98,2245.71,1829.94,2247.15z"/>
			</g>
			<g>
				<path class="st13" d="M1215.28,2408.23c-18.69,0-36.8-6.72-51.13-19.26c-17.65-15.43-27.31-37.72-26.53-61.16l0.35-10.56      c0.29-8.73,6.77-16.02,15.4-17.32l643.88-97.69c13.12-2,26.33,1.94,36.22,10.85c9.77,8.79,15.07,21.33,14.58,34.45      c-0.2,32.12-27.3,59.39-66.08,66.4c-0.07,0.01-0.15,0.02-0.22,0.03l-553.45,93.17      C1223.96,2407.87,1219.61,2408.23,1215.28,2408.23z M1173.95,2333.48c0.79,10.85,5.78,20.94,14.08,28.2      c9.42,8.24,21.91,11.78,34.26,9.7l553.33-93.15c20.98-3.83,36.19-16.89,36.17-31.08c0-0.29,0-0.58,0.02-0.87      c0.16-3.26-1.57-5.32-2.61-6.25s-3.3-2.43-6.49-1.94L1173.95,2333.48z"/>
			</g>
			<g>
				<path class="st27" d="M1891.35,2003.65c0,0-0.31,4.56-1.36,12.31c-7.27,53.53-49.98,260.49-272.23,195.45      c-33.42-9.77-70.92-25.71-112.97-49.28c-41.31,24.05-75.47,126.94-193.04,84.41c-37.14-13.45-64.04-53.18-71.62-104.95      c-4.21-28.65-2.45-60.93,6.7-94.53c15.42-56.37,45.2-101.93,88.74-132.77c71.22-50.42,179.24-61.45,320.99-15.81      c0,0,21.03-22.95,37.14-73.5L1891.35,2003.65z"/>
			</g>
			<g>
				<path class="st28" d="M1889.99,2015.96c-7.27,53.53-49.98,260.49-272.23,195.45c-33.42-9.77-70.92-25.71-112.97-49.28      c-41.31,24.05-75.47,126.94-193.04,84.41c-37.14-13.45-64.04-53.18-71.62-104.95c27.9,36.4,72.27,75.78,128.56,63.91      c97.99-20.63,132.28-135.83,190.72-117.26c23.92,7.58,30.53,54.75,145.03,71.14      C1800.59,2173.08,1868.83,2077.06,1889.99,2015.96z"/>
			</g>
			<g>
				<path class="st29" d="M1617.76,2211.41c-33.42-9.77-70.92-25.71-112.97-49.28c-41.31,24.05-75.47,126.94-193.04,84.41      c-2.37-0.83-4.64-1.8-6.92-2.89c-0.96-0.44-1.88-0.88-2.8-1.36c-0.31-0.13-0.61-0.31-0.88-0.44c-0.83-0.44-1.62-0.88-2.45-1.36      c-0.35-0.18-0.66-0.35-1.01-0.57c-0.88-0.53-1.71-1.05-2.54-1.58c-4.29-2.67-8.41-5.78-12.26-9.24      c-0.92-0.79-1.8-1.62-2.67-2.45c-0.92-0.88-1.84-1.75-2.72-2.67c-3.64-3.72-7.1-7.84-10.29-12.22c-0.7-0.96-1.4-1.93-2.06-2.89      c-2.67-3.85-5.13-7.93-7.45-12.22c-1.36-2.58-2.72-5.26-3.94-7.97c-0.66-1.45-1.31-2.89-1.93-4.38      c-0.92-2.1-1.75-4.21-2.54-6.35c-1.71-4.64-3.29-9.46-4.6-14.41c-0.48-1.8-0.96-3.59-1.36-5.39c-0.92-3.64-1.66-7.36-2.32-11.13      c-0.31-1.8-0.61-3.59-0.88-5.43c27.9,36.4,72.27,75.78,128.56,63.91c97.99-20.63,132.28-135.83,190.72-117.26      c0.92,0.31,1.84,0.66,2.72,1.09C1570.76,2132.17,1582.19,2175.14,1617.76,2211.41z"/>
			</g>
			<g>
				<path class="st6" d="M1617.76,2211.41c-33.42-9.77-70.92-25.71-112.97-49.28c-41.31,24.05-75.47,126.94-193.04,84.41      c-57.69-20.85-90.67-105.17-64.92-199.48c15.42-56.37,45.2-101.93,88.74-132.77c45.25-15.2,104.38-20.5,157.25,21.16      C1583.02,2006.45,1534.97,2126.91,1617.76,2211.41z"/>
			</g>
			<g>
				<path class="st31" d="M1617.76,2211.41c-33.42-9.77-70.92-25.71-112.97-49.28c-41.31,24.05-75.47,126.94-193.04,84.41      c-2.37-0.83-4.64-1.8-6.92-2.89c-0.96-0.44-1.88-0.88-2.8-1.36c-0.31-0.13-0.61-0.31-0.88-0.44c-0.83-0.44-1.62-0.88-2.45-1.36      c-0.35-0.18-0.66-0.35-1.01-0.57c-0.88-0.53-1.71-1.05-2.54-1.58c-4.29-2.67-8.41-5.78-12.26-9.24      c-0.92-0.79-1.8-1.62-2.67-2.45c-0.92-0.88-1.84-1.75-2.72-2.67c-3.64-3.72-7.1-7.84-10.29-12.22c-0.7-0.96-1.4-1.93-2.06-2.89      c-2.67-3.85-5.13-7.93-7.45-12.22c-1.36-2.58-2.72-5.26-3.94-7.97c-0.66-1.45-1.31-2.89-1.93-4.38      c-0.92-2.1-1.75-4.21-2.54-6.35c-1.71-4.64-3.24-9.46-4.6-14.41c-0.48-1.8-0.96-3.59-1.36-5.39c-0.88-3.64-1.66-7.36-2.32-11.13      c-0.31-1.8-0.61-3.59-0.88-5.43c27.9,36.4,72.27,75.78,128.56,63.91c97.99-20.63,132.28-135.83,190.72-117.26      c0.92,0.31,1.84,0.66,2.72,1.09C1570.76,2132.17,1582.19,2175.14,1617.76,2211.41z"/>
			</g>
			<g>
				<path class="st13" d="M1900.4,2004.28c1.16,70.13-22.89,141.88-74.68,191.07c-73.61,70.39-185.15,53.58-269.47,13.97      c-20.8-9.37-40.92-19.85-60.31-31.37l17.98-0.15c-5.44,3.22-11.87,9.34-18.13,16.18c-20.99,23.17-39.87,47.77-69.17,64.39      c-40.08,23.63-90.62,19.65-131.68,0.64c-82.51-44.75-87.68-157.7-59.51-236.16c65.17-187.8,263.83-196.37,426.68-141.63      c0,0-18.91,5-18.91,5c0.05,0.09,0.72-0.56,1.16-0.96l1.51-1.47c12.26-12.73,21.93-27.87,30.36-43.49      c3.16-5.88,6.06-11.94,8.87-18.08c2.02-4.68,7.52-6.81,12.16-4.67c3.96,1.81,5.99,6.1,5.11,10.19      c-1.49,6.97-3.12,13.96-5.07,20.91c-5.54,19.58-12.81,38.93-23.52,56.46l-1.68,2.6c-4.08,7.3-13.49,10.7-21.09,8.02      c-36.94-11.72-74.63-20.85-112.62-25.18c-73.51-8.69-153.89,1.86-209.81,52.63c-64.29,58.19-96.12,171.4-52.26,249.45      c11.3,18.74,26.07,32.38,46.24,38.4c28.07,9.83,60.08,11.33,86.17-4.19c23.2-12.9,41.67-36.8,60.43-57.45      c9.34-8.81,27.7-32.86,44.53-23.09c71.54,36.41,155.85,74.12,236.53,49.79c81.14-27.16,112.79-115.94,132.12-193.04      C1884.21,1992.45,1899.95,1993.45,1900.4,2004.28L1900.4,2004.28z"/>
			</g>
			<g>
				<g>
					<path class="st27" d="M1664.93,488.12l-332.59,66.71l-450.12,90.23c-65.7-134.39-52.43-491.25,56.81-596.81       c32.98-31.84,74.68-40.78,125.63-13.8C1192.87,102.4,1364.93,371.13,1664.93,488.12z"/>
				</g>
				<g class="st16">
					<path class="st6" d="M1664.93,488.12l-59.75,12c-271.36-125.14-432.03-369.43-553.4-433.73       c-50.94-26.98-92.64-18.05-125.63,13.8c-17.21,16.64-32.06,39.6-44.63,66.89c14.8-41.48,33.9-76,57.51-98.82       c32.98-31.84,74.68-40.78,125.63-13.8C1192.87,102.4,1364.93,371.13,1664.93,488.12z"/>
				</g>
				<g>
					<path class="st28" d="M1332.34,554.83l-450.12,90.23c-65.7-134.39-52.43-491.25,56.81-596.81c20.06-3.37,42.88,2.72,66.14,28.3       C1064.7,141.95,1177.89,452.6,1332.34,554.83z"/>
				</g>
				<g>
					<path class="st13" d="M882.22,663.52c-6.83,0-13.38-3.8-16.58-10.34c-33.46-68.46-48.41-190.53-39-318.57       c10.21-139.01,46.47-248.17,99.5-299.48c41.46-40.13,92.33-46,147.14-16.95c48.94,25.93,102.91,78.68,165.41,139.77       c109.36,106.88,245.45,239.9,432.95,313.03c9.49,3.7,14.17,14.39,10.48,23.87c-3.7,9.48-14.39,14.17-23.88,10.48       c-194.5-75.86-333.57-211.79-445.33-321.01c-60.45-59.09-112.66-110.11-156.89-133.56c-40.45-21.43-74.54-17.87-104.23,10.86       c-45.92,44.44-78.95,147.5-88.36,275.69c-8.82,120.07,5.06,237.7,35.35,299.68c4.47,9.15,0.68,20.19-8.47,24.66       C887.7,662.92,884.94,663.52,882.22,663.52z"/>
				</g>
				<g>
					<path class="st6" d="M1203.44,321.78L895.77,564.71c0-5.04-7.45-80.16-4.38-163.6c1.31-36.66,4.69-74.9,11.61-109.51       c17.7-88.39,43.23-146.7,64.08-170.57c5.91-6.75,11.43-10.73,16.29-11.87C1021.79,100.14,1075.89,190.59,1203.44,321.78z"/>
				</g>
				<g>
					<path class="st31" d="M1203.44,321.78L895.77,564.71c0-5.04-7.45-80.16-4.38-163.6c14.32-3.99,31.93-11.91,49.98-27.33       c26.28-22.38,75.78-75.73,79.63-133.73c2.06-30.71-23.83-79.76-53.92-119.01c5.91-6.75,11.43-10.73,16.29-11.87       C1021.79,100.14,1075.89,190.59,1203.44,321.78z"/>
				</g>
				<g>
					<path class="st13" d="M895.78,583.16c-2.73,0-5.48-0.61-8.03-1.85c-6.29-3.05-10.31-9.38-10.4-16.36       c-0.04-1.06-0.23-3.44-0.49-6.97c-8.28-111.03-5.57-201.87,8.06-270c16.9-84.52,51.73-186.77,94.26-196.76       c35.82-8.44,67.03,27.38,129.18,98.69c28.61,32.83,64.22,73.69,108.29,119.02c3.64,3.74,5.52,8.85,5.18,14.06       c-0.34,5.21-2.88,10.03-6.97,13.26L907.21,579.19C903.9,581.81,899.85,583.16,895.78,583.16z M914.22,564.72h0.05H914.22z        M989.23,126.94c-0.57,0-1.11,0.06-1.62,0.18c-9.32,3.73-43.05,50.68-66.54,168.09c-8.31,41.55-16.28,114.97-9.23,233.34       l264.21-208.64c-38.27-40.13-69.69-76.18-95.48-105.78C1041.52,169.34,1004.57,126.94,989.23,126.94z"/>
				</g>
				<g>
					<path class="st13" d="M1087.62,431.68c-3.12,0-6.26-0.79-9.1-2.4c-48.4-27.47-75.43-52.89-82.63-77.7       c-7.45-25.74-0.11-42.04,7.35-51.18c9.62-11.78,24.07-17.61,38.54-20.26c-5.2-9.74-8.9-21.11-7.68-33.02       c0.92-9.03,5.12-22.06,19.94-32.84c18-13.12,43.31-12.45,75.21,1.96c2.39,1.08,4.52,2.65,6.25,4.61       c18.41,20.9,46.85,52.76,81.17,88.09c3.64,3.74,5.52,8.85,5.18,14.06c-0.35,5.21-2.88,10.02-6.97,13.26l-115.82,91.46       C1095.73,430.34,1091.69,431.68,1087.62,431.68z M1064.59,315.04c-17.66,0-29,4.06-32.78,8.68c-2.73,3.35-2.9,9.27-0.49,17.59       c1.42,4.9,9.53,22.24,54.77,49.65l89.98-71.05c-26.97-28.3-49.55-53.53-65.51-71.61c-16.21-6.79-29.06-8.39-34.79-4.22       c-4.62,3.36-4.86,5.75-4.97,6.77c-0.47,4.65,2.24,13.8,17.86,30.94c3.17,3.48,10.59,11.62,5.66,22.79       c-2.95,6.68-9.62,11.02-16.92,11.02c-0.28,0-1.09-0.02-2.38-0.12C1071.32,315.18,1067.85,315.04,1064.59,315.04z"/>
				</g>
				<g>
					<path class="st27" d="M2156.27,812.09l-166.27-146.87L1622.44,340.6C1783.16,113.3,2032.22,8.57,2115.05,43.22       c11.56,4.82,22.43,15.07,32.24,30.57C2203.18,161.75,2226.35,418.65,2156.27,812.09z"/>
				</g>
				<g class="st16">
					<path class="st6" d="M2175.36,142.56c-5.74-15.59-12-28.73-18.79-39.38c-9.81-15.51-20.67-25.76-32.24-30.57       c-81.25-33.99-322.43,66.14-483.23,284.45l-18.66-16.47C1783.16,113.3,2032.22,8.57,2115.05,43.22       c11.56,4.82,22.43,15.07,32.24,30.57C2157.97,90.61,2167.48,113.61,2175.36,142.56z"/>
				</g>
				<g>
					<path class="st28" d="M2156.27,812.09l-166.27-146.87c-21.81-73.9-43.1-185.24-17.65-290.19       c38.33-157.86,86.6-323.88,174.95-301.23C2203.18,161.75,2226.35,418.65,2156.27,812.09z"/>
				</g>
				<g>
					<path class="st13" d="M2156.29,830.51c-1.07,0-2.16-0.1-3.25-0.29c-10.02-1.78-16.7-11.36-14.92-21.38       c83.26-467.28,31.21-722.95-30.19-748.62c-71.75-30-314.02,69.82-470.42,291c-5.88,8.31-17.39,10.28-25.7,4.41       c-8.32-5.88-10.29-17.39-4.41-25.7C1771.69,97.59,2028.9-12.8,2122.15,26.2c47.86,20,80.42,104.68,91.68,238.44       c8.6,102.04,8.74,280.4-39.42,550.67C2172.83,824.24,2165.05,830.51,2156.29,830.51z"/>
				</g>
				<g>
					<g>
						<path class="st27" d="M644.33,1238.24c2.45,15.87,5.96,31.48,10.53,46.77c57.86,196.25,283.32,341.29,655.98,395.61        l226.19,14.02c369.78-0.34,668.94-86.73,747.03-336.01c14.46-46.18,24.56-101.44,28.7-162.35        c16.01-230-51.33-540.28-277.53-743.42c-239.45-215.05-583.45-200.6-658.27-198.04c-450.37,15.27-563.59,329.92-660.32,706.08        c-0.01,0.12-9.4,11.67-21.59,32.29c-5.11,8.62-10.69,18.89-16.27,30.55C654.8,1073.75,630.61,1149.94,644.33,1238.24z"/>
					</g>
				</g>
				<g>
					<g>
						<path class="st6" d="M644.33,1238.24c34.12,219.85,264.84,383.82,666.51,442.38l226.19,14.02        c369.78-0.34,668.94-86.73,747.03-336.01c14.46-46.18,24.56-101.44,28.7-162.35c-52.4-31.54-137.52-69.03-271.35-85.2        c-256.68-31.01-299.59,104.31-412.44,78.99c-110.54-24.8-125.61-156.92-320.31-146.98c-124.98,6.38-156.14,89.93-206.22,97.77        c-128.83,20.17-208.19-155.63-407.39-147.67C668.13,1038.92,627.39,1129.32,644.33,1238.24z"/>
					</g>
				</g>
				<g>
					<g>
						<path class="st31" d="M2312.77,1196.28c-4.16,60.89-14.28,116.16-28.73,162.33c-78.1,249.28-377.23,335.7-747.01,336.01        l-226.2-14.02c-332.51-48.49-547.84-169.17-631.46-334c111.92,125.63,313.5,217,596.37,258.26l235.79,14.59        c385.55-0.35,697.43-90.41,778.85-350.29c7.23-23.04,13.4-48.27,18.31-75.34C2310.1,1194.66,2311.46,1195.49,2312.77,1196.28z        "/>
					</g>
				</g>
				<g>
					<path class="st35" d="M1425.68,1229.05c-39.07,52.87,1.09,187.08-82.31,206.84c-50.11,11.87-88.92-23.78-102.02-75.95       c-4.29-16.82-5.87-35.35-4.25-54.58c1.53-19.01,6.13-38.72,14.32-58.04L1425.68,1229.05z"/>
				</g>
				<g>
					<path class="st36" d="M1425.68,1229.05c-39.07,52.87,1.09,187.08-82.31,206.84c-50.11,11.87-88.92-23.78-102.02-75.95       c14.72,20.24,49.19,58.3,92.25,44.46c49.15-15.77,40.12-72.89,40.12-72.89s-49.28-4.64-58.43-36.09c0,0-45.42,20.24-78.19,9.94       c1.53-19.01,6.13-38.72,14.32-58.04L1425.68,1229.05z"/>
				</g>
				<g>
					<path class="st13" d="M1350.97,1219.33c0,0-34.14,42.54-32.21,142.87c0,0-26.01-73.46-7.79-125.17       C1330.27,1182.29,1350.97,1219.33,1350.97,1219.33z"/>
				</g>
				<g>
					<path class="st13" d="M1324.64,1453.99c-27.03,0-52.11-11.89-71.01-34.25c-36.8-43.54-43.55-115.31-16.81-178.59       c3.41-8.07,12.72-11.84,20.79-8.44c8.07,3.41,11.85,12.72,8.43,20.79c-21.86,51.72-17,111.67,11.82,145.76       c11.52,13.62,31.6,28.34,61.87,21.19c36.89-8.74,42.93-45.42,48.5-104.8c3.31-35.26,6.72-71.72,24.69-96.04       c5.2-7.04,15.13-8.54,22.18-3.34c7.05,5.21,8.54,15.14,3.33,22.19c-12.72,17.23-15.72,49.22-18.62,80.16       c-5.19,55.35-11.07,118.09-72.77,132.71C1339.49,1453.11,1331.99,1453.99,1324.64,1453.99z"/>
				</g>
				<g>
					<path class="st6" d="M1181.26,1202.6c0,0-16.55,42.71,21.38,65c47.21,27.75,96.48-12.87,108.34-30.57       c2.76-4.12,10.92-3.5,12.29,1.26c7.49,25.93,41.17,79.16,104.49,63.71c24.88-6.07,50.17-32.56,41.92-63.05l-108.5-153.72       L1181.26,1202.6z"/>
				</g>
				<g>
					<path class="st31" d="M1467.33,1269.2c-7.3,16.47-23.56,28.9-39.59,32.79c-63.28,15.45-96.98-37.74-104.48-63.73       c-1.37-4.75-9.5-5.36-12.3-1.21c-11.82,17.71-61.11,58.3-108.29,30.57c-17.21-10.07-23.21-24.36-24.63-36.97       c58.45,19.49,113.78-12.92,120.68-50.86c1.21-6.65,60.05-23.94,59.01-17.26c-10.17,65.24,22.94,127.87,109.36,106.75       C1467.15,1269.27,1467.27,1269.2,1467.33,1269.2z"/>
				</g>
				<g>
					<path class="st13" d="M1478.42,1236.58c14.5,34.32-12.86,73.21-46.91,82.48c-31.53,9.48-64.08,2.51-88.76-19.31       c-17.12-15.43-29.88-34-37.05-56.09c0.12,1.4,2.68,5.49,4.54,6.68c5.51,4.45,12.6,2.26,16.04-2.85c0,0-1.35,1.89-1.35,1.89       c-24.72,32.4-67.29,54.12-108.27,43.34c-35.08-9.84-59.54-41.12-49.65-78.43c2.24-7.92,6.42-24.16,18-18.77       c3.97,2.03,5.35,6.31,4.7,10.36c-3.82,31.36,13.82,51.67,45.31,52.44c20.98,0.08,45.94-13.95,59.84-30.73       c0.36-0.48,1.17-1.45,1.51-1.95c3.45-4.81,9.92-8.37,14.92-9.23c13.59-2.88,27.35,5.17,30.47,19.34       c4.42,13.38,13.82,26.84,24.74,35.91c16.7,13.47,38.51,17.01,59.1,12.96c19.57-4.37,37.26-22.56,35.29-43.97       C1460.33,1230.56,1474.56,1227.4,1478.42,1236.58L1478.42,1236.58z"/>
				</g>
				<g>
					<path class="st13" d="M1221.88,1084.95c-3.29,33.03,30.62,65.88,57.17,86.25c18.38,14.1,43.23,16.58,64.03,6.38       c30.05-14.73,69.78-40.24,73.07-73.27C1421.5,1050.67,1227.23,1031.3,1221.88,1084.95z"/>
				</g>
				<g class="st5">
					<path class="st6" d="M1269.11,1077.93c-0.61,6.11,12.47,12.87,22.62,17.16c7.03,2.97,16.22,3.89,23.69,2.36       c10.79-2.2,24.95-6.24,25.56-12.35C1341.98,1075.17,1270.1,1068,1269.11,1077.93z"/>
				</g>
				<g>
					<path class="st13" d="M1307.69,1247.57c-3.25-5.46-18.75-36.89-4.28-119.62c1.72-9.86,11.11-16.45,20.98-14.74       c9.86,1.73,16.46,11.12,14.73,20.98c-12.25,70.01-0.1,95.12,0.02,95.36l-0.31-0.55L1307.69,1247.57z"/>
				</g>
				<g>
					<path class="st35" d="M644.33,1238.24c2.45,15.87,5.96,31.48,10.53,46.77c21.91,7.51,45.86,12.73,71.16,15.11       c116.12,10.9,216.15-42.53,223.36-119.28c7.2-76.75-81.14-147.86-197.26-158.76c-25.48-2.39-50.23-1.68-73.34,1.66       C654.8,1073.75,630.61,1149.94,644.33,1238.24z"/>
				</g>
				<g>
					
						<ellipse transform="matrix(0.0935 -0.9956 0.9956 0.0935 494.2389 3088.5698)" class="st35" cx="1943.15" cy="1272.88" rx="139.61" ry="211.25"/>
				</g>
				<g>
					<g>
						<path class="st13" d="M2152.59,571.47c140.61,181.67,197.88,420.64,176.82,647.8c-4.84,21.96-6.09,44.67-10.12,66.96        c-10.73,71.93-36.45,144.58-82.93,201.98c-154.63,191.95-468.5,228.03-699.33,213.91c-8.74-1.03-9.78-13.7-0.02-14.97        c70.41-5.12,140.43-10.5,209.79-19.6c448.11-57.18,599.41-249.54,536.44-697.91c-20.93-137.13-68.19-270.84-144.53-388.26        c-2.57-3.96-1.45-9.24,2.5-11.81C2144.95,567.15,2149.89,568.04,2152.59,571.47L2152.59,571.47z"/>
					</g>
					<g>
						<path class="st13" d="M1309.58,1689.06c-191.81-17.85-389.48-73.74-539.23-199.92c-164.73-139.72-197.87-358.4-71.56-535.89        c0,0,1.47-1.96,1.47-1.96l0.74-0.98l0.37-0.49c0.69-0.89-1.29,1.48-2.24,3.87c-0.99,2.34-1.43,4.97-1.36,7.25l0.54-4.52        c111.24-476.52,298.21-771.67,835.88-713.06c58.3,5.92,116.09,16.75,172.38,32.95c10.75,3.69,7.51,19.5-4.34,17.6        c-56.26-11.13-113.18-18.52-170.38-21.83c-42.86-2.43-85.76-2.54-128.62-0.46c-70.25,2.48-143.01,8.45-209.73,28.92        c-291.83,82.82-395,398.81-458.57,664.85c0,0,0.54-4.52,0.54-4.52c-0.04,2.43-0.59,5.21-1.7,7.7        c-1.85,3.96-2.59,4.11-3.5,5.52c-52.64,72.51-80.52,165.65-68.37,254.89c17.01,140.46,126.23,248.36,246.83,312.19        c125.37,67.34,264.09,101.5,403.3,131.01c4.62,0.97,7.58,5.5,6.61,10.12C1317.77,1686.56,1313.82,1689.41,1309.58,1689.06        L1309.58,1689.06z"/>
					</g>
				</g>
				<g>
					<g>
						
							<ellipse transform="matrix(0.0363 -0.9993 0.9993 0.0363 17.5397 2018.6141)" class="st13" cx="1055.38" cy="1000.21" rx="135.73" ry="117.24"/>
					</g>
					<g>
						<g>
							
								<ellipse transform="matrix(0.3029 -0.953 0.953 0.3029 -247.4232 1753.8062)" class="st6" cx="1075.14" cy="1046.03" rx="54.17" ry="43.59"/>
						</g>
					</g>
					<g class="st5">
						<g>
							
								<ellipse transform="matrix(0.4719 -0.8817 0.8817 0.4719 -302.4263 1397.7561)" class="st6" cx="1015.49" cy="951.31" rx="42.16" ry="29.17"/>
						</g>
					</g>
				</g>
				<g>
					<g>
						
							<ellipse transform="matrix(0.3617 -0.9323 0.9323 0.3617 92.671 2241.5798)" class="st13" cx="1683.33" cy="1053.11" rx="141.97" ry="122.63"/>
					</g>
					<g>
						<g>
							
								<ellipse transform="matrix(0.0985 -0.9951 0.9951 0.0985 399.718 2619.1577)" class="st6" cx="1645.4" cy="1088.97" rx="56.67" ry="45.6"/>
						</g>
					</g>
					<g class="st5">
						<g>
							
								<ellipse transform="matrix(0.9964 -0.0849 0.0849 0.9964 -80.5641 151.6449)" class="st6" cx="1741.87" cy="1022.62" rx="30.51" ry="44.1"/>
						</g>
					</g>
				</g>
				<g>
					<path class="st6" d="M1697.65,812.49c8.28-29.96-81.77-137.91-143-117.71c-61.23,20.21-57.39,86.51-23.08,108.44       C1581.39,835.07,1689.37,842.44,1697.65,812.49z"/>
				</g>
				<g>
					<path class="st6" d="M1032,776.39c-3.16-30.92,94.7-121.39,147.53-90.8s39.61,95.15,5.14,110.72       C1134.61,818.93,1035.15,807.31,1032,776.39z"/>
				</g>
				<g>
					<path class="st6" d="M2119.4,482.67c-4.38,18.66-9.9,35.79-16.73,50.68c-151.73-153.35-259.31-125.63-254.58-211.57       c5.17-93.04,154.62-211.57,247-211.57c5.74,0,11.65,10.6,17.17,28.69C2132.24,205.05,2145.9,371.06,2119.4,482.67z"/>
				</g>
				<g>
					<path class="st31" d="M2119.4,482.67c-4.38,18.66-9.9,35.79-16.73,50.68c-151.73-153.35-259.31-125.63-254.58-211.57       c5.17-93.04,154.62-211.57,247-211.57c5.74,0,11.65,10.6,17.17,28.69c-45.42,14.06-119.14,48.71-128.12,126.68       C1972.36,368.17,2068.68,400.19,2119.4,482.67z"/>
				</g>
				<g>
					<path class="st13" d="M2102.68,551.49c-4.8,0-9.45-1.91-12.89-5.38c-71.09-71.85-131.92-102.66-176.34-125.16       c-50.25-25.45-86.57-43.85-83.45-100.17c5.87-106.04,165.42-228.71,265.07-228.71c6.28,0,15.4,2.54,23.16,14.64       c30,46.72,57.75,309.99,0.92,434.19c-2.48,5.42-7.46,9.27-13.32,10.31C2104.79,551.4,2103.73,551.49,2102.68,551.49z        M2089.22,128.51c-81.77,5.04-218.48,112.32-223.02,194.27c-1.72,31.19,13.92,40.64,63.63,65.83       c42.46,21.51,99.21,50.25,165.82,112.62C2135.16,378.98,2108.91,163.46,2089.22,128.51z"/>
				</g>
				<g>
					<path class="st31" d="M1973.19,369.22c-1.71,25.36-42.31,16.21-39.69,41.57c-55.63-28.43-88.04-40.96-85.42-89.01       c1.14-20.41,9.24-42.05,22.12-63.43c23.04-9.72,49.8-14.98,71.84-2.85c24.97,13.8,19.32,32.11,10.03,43.1       c-13.71,16.29-40.96,23.83-40.96,23.83S1975.25,338.34,1973.19,369.22z"/>
				</g>
				<g>
					<path class="st13" d="M1991.83,370.47c-0.79,10.27-5.8,20.22-13.97,26.58c-9.29,7.61-20.58,9.7-27.14,13.78       c-0.12,0.06,0.3-0.16,0.19-0.4c0.38-0.24,0.49-0.8,0.57-1.14c0.26-0.18,0.13-0.74,0.13-0.74c0.09,0.12,0.06,0.22-0.08,0.37       l-16.47,16.53c-2.65,2.66-6.66,3.15-9.81,1.48c-22.81-12.03-47.88-22.51-68.69-40.07c-25.33-20.03-31.4-56.83-23.55-86.63       c4.43-18.85,12.4-35.72,21.68-51.23c2.05-3.45,5.04-5.81,8.48-7.35c22.05-11.38,51.91-17.89,77.47-8.43       c37.8,13.17,52.14,53.07,20.71,80.73c-14.39,11.73-29.98,16.65-47.8,17.22c0,0-0.23-17.54-0.23-17.54       C1944.42,318.42,1992.44,330.7,1991.83,370.47L1991.83,370.47z M1954.55,367.97c0.14-2,0.07-3.7-1.44-6.25       c-5.35-8.85-16.95-16.3-26.64-21.77c-5.61-3.15-11.75-6.23-17.52-8.71c-5.84-2.36-7.4-10.4-2.94-14.79       c10.35-9.64,24.19-17.5,31.07-27c3.05-4.4,5.27-8.12,3.76-10.5c-1.53-1.69-4.51-4.36-7.1-5.52       c-17.78-9.34-36.7-4.32-56.48,1.63c0,0,8.48-7.35,8.48-7.35c-13.69,23.52-26.04,52.14-16,78.2       c5.26,11.52,17.05,19.06,28.47,25.98c13.48,7.78,28.52,15.06,43.54,22.76l-26.28,18.01c-2.6-21.55,13.41-34.38,30.02-40.09       c5.08-2.07,8.26-3.58,9.3-4.75c-0.2-0.02-0.04,0.18-0.18,0.22c-0.2,0-0.08,0.33-0.12,0.24       C1954.4,368.15,1954.41,368.07,1954.55,367.97L1954.55,367.97z"/>
				</g>
			</g>
			<g>
				<path class="st25" d="M1156.08,2300.81l-304.25-29.7l-498.52-48.66c-19.45-1.05-37.85-7.49-53.31-18.13      s-28.08-25.49-36.01-43.32L19.22,1609.73c6.22-51.42,49.85-89.71,101.05-89.71c1.84,0,3.72,0.04,5.56,0.13l708.24,37.63      c63.43,3.37,118.79,44.2,140.74,103.81l120.81,328.17l83.71,227.38C1190.37,2247.11,1181.04,2280.83,1156.08,2300.81z"/>
			</g>
			<g class="st16">
				<path class="st6" d="M1182.27,2258.28c-0.7-3.42-1.71-6.83-2.93-10.21l-83.71-227.38l-120.81-328.17      c-21.95-59.62-77.31-100.44-140.74-103.81l-708.24-37.63c-1.84-0.09-3.72-0.13-5.56-0.13c-44.15,0-82.66,28.43-96.41,69.25      l-4.64-10.47c6.22-51.42,49.85-89.71,101.05-89.71c1.84,0,3.72,0.04,5.56,0.13l708.24,37.63      c63.43,3.37,118.79,44.2,140.74,103.81l120.81,328.17l83.71,227.38C1184.29,2230.64,1185.16,2244.87,1182.27,2258.28z"/>
			</g>
			<g>
				<path class="st26" d="M1156.08,2300.81l-304.25-29.7c74.46-110.95,183.75-285.24,183.75-285.24s53.35,69.69,60.05,3.9      l83.71,227.38C1190.37,2247.11,1181.04,2280.83,1156.08,2300.81z"/>
			</g>
			<g>
				<path class="st13" d="M1156.09,2318.95c-0.59,0-1.17-0.03-1.76-0.09l-802.39-78.32c-45.83-2.59-85.85-30.21-104.53-72.17      L2.66,1617.1c-1.33-2.99-1.82-6.28-1.43-9.53c7.54-62.53,62.92-108.83,125.59-105.54l708.23,37.64      c70.76,3.76,132.29,49.16,156.77,115.65l204.53,555.55c13.75,37.36,2.13,79.18-28.92,104.09      C1164.2,2317.55,1160.2,2318.95,1156.09,2318.95z M37.94,1607.19l242.61,546.44c13.16,29.56,41.41,49,73.74,50.72      c0.27,0.01,0.53,0.03,0.8,0.06L1149.9,2282c14.95-15.36,19.98-38.09,12.43-58.6L957.8,1667.85      c-19.47-52.88-68.4-88.98-124.67-91.97l-708.23-37.64C82.59,1535.91,45.3,1565.95,37.94,1607.19z"/>
			</g>
			<g>
				<path class="st25" d="M1156.34,2313.82l-844.52-44.9c-19.49-1.01-37.89-7.49-53.35-18.13s-28.08-25.49-36.01-43.32l-15.9-44.02      l-183.58-508.2c-16.08-44.46,18.44-90.89,65.62-88.39l700.49,37.23c65.57,3.46,122.74,45.64,145.43,107.27l104.82,284.67      L1156.34,2313.82z"/>
			</g>
			<g>
				<path class="st26" d="M1156.34,2313.82l-844.52-44.9c-19.49-1.01-37.89-7.49-53.35-18.13s-28.08-25.49-36.01-43.32l-15.9-44.02      c54.49,25.45,181.47,66.54,414.07,50.77c288.48-19.54,391.73-168.16,418.71-218.18L1156.34,2313.82z"/>
			</g>
			<g>
				<path class="st13" d="M789.59,1595.02c77.79-1.38,144.3,52.75,167.24,126.26c25.03,64.78,49.51,129.77,73.48,194.95      c35.15,97.5,107.42,293.97,143.03,391.34c4.61,11.85-5.28,25.31-17.98,24.37c-222.32-12.86-620.39-32.22-838.62-44.57      c-47.31-0.28-93.05-29.78-111.32-73.72c-57.25-159.83-143.02-392.06-200.24-551.17c-20.87-56.63,24.03-117.77,84.64-113.8      c71.49,4.62,143.15,10.26,214.11,20.55c10.91,1.82,9.81,17.56-0.96,18.1c-58.45,2.25-116.69,1.25-175.04-0.7      c-7.77-0.12-34.82-1.54-42.77-1.48c-30.81-0.86-55.2,32.54-44.7,61.59c26.18,73,93.26,259.88,120.04,335.29      c0,0,79.03,219.31,79.03,219.31c3.47,8.41,18.22,28.98,31.29,35.85c14.26,9.34,30.85,13.69,47.85,13.99      c0,0,119.8,6.37,119.8,6.37c152.92,8.18,560.95,29.78,718.82,38.2l-17.97,24.37c-52.71-142.79-128.92-346.28-180.43-488.56      c-11.72-32.68-23.6-65.31-34.91-98.15c-10.1-32.55-23.6-58.79-48.7-80.85c-23.59-21.15-54.01-35.06-86.65-39.39      C777.42,1611.54,778.58,1595.33,789.59,1595.02L789.59,1595.02z"/>
			</g>
			<g>
				<path class="st13" d="M1709.41,1941.96c-18.9-11.58-40.18-19.82-61.09-27.34c-25.22-10.4-7.16-46.44,16.28-32.43      c17.61,12.06,34.96,24.79,50.49,39.58c5.33,5.07,13.92,12.41,6.22,19.91C1717.85,1944.81,1712.92,1944.57,1709.41,1941.96      L1709.41,1941.96z"/>
			</g>
			<g>
				<path class="st13" d="M1550.12,2107.65c-22.55,26.66-44.86,57.44-57.95,89.38c-10.69,23.72-45.04,6.56-32.41-16.25      c21.19-34.08,47.98-60.6,77.82-86.23C1546.24,2087.46,1557.57,2099.37,1550.12,2107.65L1550.12,2107.65z"/>
			</g>
			<g>
				<ellipse class="st13" cx="1240.35" cy="2345.29" rx="10.89" ry="15.16"/>
			</g>
			<g>
				<path class="st13" d="M1318.9,2326.1v9.67c0,3.69,3.3,6.49,6.94,5.89l42.16-6.93c2.89-0.47,5.01-2.97,5.01-5.89v-8.67      c0-3.63-3.21-6.42-6.8-5.92l-42.16,5.92C1321.1,2320.6,1318.9,2323.12,1318.9,2326.1z"/>
			</g>
			<g>
				<path class="st13" d="M1646.93,2276.7L1646.93,2276.7c-0.16,5.6,4.76,10,10.31,9.2l25.08-3.59c4.35-0.62,7.62-4.29,7.75-8.68      l0.03-1.04c0.05-1.69-1.41-3.04-3.1-2.85l-37.6,4.27C1648.02,2274.17,1646.97,2275.32,1646.93,2276.7z"/>
			</g>
			<g class="st16">
				<path class="st6" d="M114.5,1619.7c95.29-14.75,497.2-5.53,587.16,20.19S34.7,1632.06,114.5,1619.7z"/>
			</g>
			<g>
				<g>
					<path class="st6" d="M563.62,1970.48c6.56,38.99-28.42,0.48-63.49,1.07s-56.93,40.06-63.49,1.07       c-6.56-38.99,16.55-71.08,51.61-71.67S557.06,1931.49,563.62,1970.48z"/>
				</g>
				<g>
					<g>
						<g>
							
								<ellipse transform="matrix(0.8564 -0.5163 0.5163 0.8564 -892.3691 547.2164)" class="st6" cx="537.69" cy="1878.05" rx="22.64" ry="27.45"/>
						</g>
						<g>
							<g>
								
									<ellipse transform="matrix(0.8564 -0.5163 0.5163 0.8564 -908.9972 491.0893)" class="st6" cx="428.46" cy="1879.88" rx="22.64" ry="27.45"/>
							</g>
						</g>
					</g>
					<g>
						
							<ellipse transform="matrix(0.8564 -0.5163 0.5163 0.8564 -889.6944 514.008)" class="st6" cx="479.32" cy="1856.63" rx="22.64" ry="27.45"/>
					</g>
				</g>
			</g>
			<g>
				<path class="st13" d="M1379.84,2180.16c-3.65,16.97,1.86,41.61,19.49,47.1c4.14,1.06,8.19,0.23,12.73-1.76      c9.24-4.05,20,0.16,24.05,9.39c4.05,9.23-0.16,20-9.39,24.05c-24.32,9.02-53.09-3.64-63.17-26.99      c-8.69-18.39-8.24-39.14-0.97-57.34c1.88-4.65,7.18-6.9,11.83-5.02C1378.65,2171.3,1380.87,2175.86,1379.84,2180.16      L1379.84,2180.16z"/>
			</g>
			<g>
				<path class="st13" d="M1299.96,2165.21c-4.3,24.17,0.84,57.53,25.77,67.16c22.61,8.52,11.27,41.74-11.85,34.6      c-30.44-13.9-41.74-50.35-37.78-80.99c1.05-9.02,3.14-17.83,6.59-26.31c1.89-4.65,7.19-6.88,11.84-4.99      C1298.77,2156.4,1300.97,2160.93,1299.96,2165.21L1299.96,2165.21z"/>
			</g>
			<g>
				<path class="st13" d="M2859.02,2271.27c7.52,9.96,26.08,16.33,36.45,8.43c2.47-2.03,4.05-4.7,5.39-8.23      c3.6-9.47,14.19-14.23,23.66-10.63c11.03,4.01,15.34,18.03,8.58,27.57c-10.22,16.96-33.21,27.1-52.17,21.72      c-16.93-4.3-31.05-14.61-38.15-30.82C2838.69,2268.89,2853.22,2261.85,2859.02,2271.27L2859.02,2271.27z"/>
			</g>
			<g>
				<path class="st13" d="M2773.95,2332.78c9.9,15.42,32.43,25.48,50.71,24.11c6.05-0.44,11.62-2.06,16.66-4.57      c9.02-4.48,19.97-0.81,24.46,8.22c5.3,10.31-0.86,23.31-12.12,25.88c-38.25,10.39-82.25-10.16-96.77-47.5      C2753.63,2327.72,2769.18,2322.26,2773.95,2332.78L2773.95,2332.78z"/>
			</g>
			<g class="st16">
				<path class="st6" d="M2353.65,1500.45c40.9-1.1,231.34,76.56,249.05,239.62c8.22,75.68-71.9-6.63-147.57-89.29      C2381.23,1570.05,2312.75,1501.54,2353.65,1500.45z"/>
			</g>
			<g>
				<g>
					<path class="st6" d="M533.25,590.32c23.43-38.34,34.99-84.37,30.05-132.52c-12-116.87-116.47-201.89-233.34-189.89       c-116.87,12-201.89,116.47-189.89,233.34c12,116.87,116.47,201.89,233.34,189.89c32.51-3.34,62.54-13.85,88.71-29.77       l98.44,22.08L533.25,590.32z"/>
				</g>
				<g class="st16">
					<g>
						<path class="st6" d="M334.13,308.62c109.17-11.21,207.5,62.25,229.77,167.24c0.03-7.5-0.3-15.07-1.08-22.69        c-12-116.87-116.47-201.89-233.34-189.89c-116.87,12-201.89,116.47-189.89,233.34c0.79,7.66,1.99,15.18,3.55,22.55        C143.55,411.79,224.92,319.83,334.13,308.62z"/>
					</g>
				</g>
				<g>
					<path class="st13" d="M351.5,710.98c-117.08,0-217.84-88.86-230.06-207.81c-13.03-126.95,79.64-240.83,206.59-253.87       c126.89-13,240.83,79.64,253.87,206.59c4.93,48-4.89,95.15-28.43,136.92l25.04,85.37c1.87,6.36,0.23,13.23-4.3,18.06       c-4.53,4.84-11.26,6.91-17.75,5.46l-91.25-20.46c-27.72,15.65-57.92,25.23-89.9,28.51       C367.32,710.58,359.37,710.98,351.5,710.98z M351.82,285.51c-6.6,0-13.25,0.34-19.96,1.03       c-106.42,10.93-184.11,106.4-173.18,212.82c10.93,106.42,106.41,184.12,212.82,173.19c28.96-2.97,56.18-12.1,80.9-27.14       c4.14-2.51,9.08-3.34,13.82-2.27l67.45,15.13l-18.37-62.66c-1.48-5.06-0.76-10.52,1.99-15.02       c22.29-36.48,31.77-78.27,27.4-120.85C534.44,360.01,449.96,285.51,351.82,285.51z"/>
				</g>
				<g class="st19">
					<path class="st13" d="M534.44,588.28c-58.27,49.28-138.54,70.87-218.25,51.03c-88.4-22-153.54-89.32-176.96-171.02       c-0.56,10.83-0.31,21.84,0.83,32.97c12,116.87,116.47,201.89,233.34,189.89c32.51-3.34,62.54-13.85,88.71-29.77l98.44,22.08       l-27.32-93.13C533.66,589.65,534.04,588.96,534.44,588.28z"/>
				</g>
				<g>
					<path class="st24" d="M419.7,419.8L419.7,419.8c-18.41-18.41-48.26-15.11-66.67,3.3l-2.87,2.87l-2.87-2.87       c-18.41-18.41-48.26-21.71-66.67-3.3l0,0c-18.41,18.41-18.41,48.26,0,66.67l2.87,2.87l57.88,57.88       c4.85,4.85,12.72,4.85,17.58,0l57.88-57.88l2.87-2.87C438.11,468.06,438.11,438.21,419.7,419.8z"/>
				</g>
			</g>
		</g>
	</g>
</g>
</svg>