<svg xmlns="http://www.w3.org/2000/svg" xmlns:xlink="http://www.w3.org/1999/xlink" version="1.1" id="Layer_1" x="0px" y="0px" style="enable-background:new 0 0 3101.96 2471.29;" xml:space="preserve" viewBox="0 0 3101.97 2471.29">
<style type="text/css">
	.st0{fill:#FEF26B;}
	.st1{opacity:0.3;}
	.st2{fill:#490763;}
	.st3{opacity:0.2;}
	.st4{fill:#390075;}
	.st5{opacity:0.6;}
	.st6{fill:#F3F3F3;}
	.st7{fill:#FD6CCB;}
	.st8{fill:#79CAF2;}
	.st9{fill:#F948A9;}
	.st10{fill:#F1F1F1;}
	.st11{fill:#FDC1E5;}
	.st12{fill:#FFEBF6;}
	.st13{fill:#F4C739;}
	.st14{fill:#F22F54;}
	.st15{fill:#F578FF;}
	.st16{fill:#FFFFFF;}
	.st17{opacity:0.35;}
	.st18{fill:#F69412;}
	.st19{fill:#FFF8EE;}
	.st20{fill:#FC7D27;}
	.st21{fill:#FCE8D0;}
	.st22{fill:#650000;}
	.st23{fill:#F5F5F5;}
	.st24{fill:#FF9878;}
	.st25{fill:#ED6E5D;}
	.st26{fill:#FD9D24;}
	.st27{fill:#F6F6F6;}
	.st28{fill:#F93838;}
	.st29{opacity:0.5;}
	.st30{fill:#FF0068;}
	.st31{fill:#956EFF;}
	.st32{fill:#48B5FF;}
	.st33{fill:#F7F7F7;}
	.st34{fill:#371A45;}
	.st35{fill:#000070;}
	.st36{fill:#B5B7C6;}
	.st37{opacity:0.55;}
	.st38{fill:#9C9EAD;}
	.st39{fill:#220F2D;}
	.st40{fill:#F4F4F4;}
	.st41{fill:#FFDE55;}
	.st42{fill:#919DB5;}
	.st43{fill:#000072;}
	.st44{fill:#FF5C83;}
	.st45{fill:#C77CF7;}
	.st46{fill:#EF2B2B;}
	.st47{fill:#FF8080;}
	.st48{fill:#5B5B7C;}
	.st49{fill:#E0E0E0;}
	.st50{fill:#FFC5D8;}
	.st51{fill:#F4408A;}
	.st52{fill:#FFD45A;}
	.st53{fill:#FF92B9;}
	.st54{fill:#FBFBFB;}
	.st55{fill:#6ED9FF;}
	.st56{fill:#4DB3FF;}
	.st57{fill:#F2C32A;}
	.st58{fill:#72AEF7;}
	.st59{fill:#B6ABBA;}
	.st60{fill:#EF3737;}
	.st61{fill:#F7C128;}
	.st62{fill:#E2673B;}
	.st63{fill:#F8B92F;}
	.st64{fill:#EFC411;}
	.st65{fill:#FFD243;}
	.st66{fill:#FF792E;}
	.st67{fill:#EDECE8;}
	.st68{fill:#FF73E5;}
	.st69{fill:#F7B1A4;}
	.st70{fill:#F27A4C;}
	.st71{fill:#F8331D;}
	.st72{fill:#F7BB9E;}
	.st73{fill:#50BCFF;}
	.st74{fill:#4B4B5B;}
	.st75{fill:#DB2828;}
	.st76{fill:#DD1919;}
	.st77{fill:#EF492E;}
	.st78{opacity:0.61;}
	.st79{fill:#FF8939;}
	.st80{fill:#FFE566;}
	.st81{fill:#5BA5E8;}
	.st82{fill:#8DDCFF;}
	.st83{fill:#B2B9D3;}
	.st84{fill:#FCAC38;}
	.st85{opacity:0.1;}
	.st86{fill:#82BEF4;}
	.st87{fill:#111A28;}
	.st88{fill:#EF9D30;}
	.st89{fill:#EED043;}
	.st90{fill:#FCDA4C;}
	.st91{fill:#EF4343;}
	.st92{fill:#4BC930;}
	.st93{fill:none;stroke:#490763;stroke-width:36.8533;stroke-linecap:round;stroke-linejoin:round;stroke-miterlimit:10;}
</style>
<g>
	<g>
		<g>
			<path class="st18" d="M2112.31,2391.14c-22.94,15.38-50.37,22.83-78.01,22.83h-405.97c-56.6-1.74-79.39-37.24-88.28-60.43v-0.05     c-4.34-11.29-5.36-19.67-5.36-19.67l144.72-350.95c41.74,64.42,73.82,160.61,144.32,184.62c24.88,8.48,51.85,11.9,78.52,12.21     c70.75,0.87,139.61-20.38,163.22-28.51c5.52-1.89,8.58-3.07,8.58-3.07l2.55,4.65l62.94,115.25c2.09,4.14,3.93,8.17,5.52,12.06     c0,0,0,0,0.05,0.05c0,0.05,0.05,0.1,0.1,0.26c0.05,0.05,0.05,0.1,0.05,0.2C2168.09,2337.15,2141.63,2371.53,2112.31,2391.14z"/>
		</g>
		<g>
			<path class="st19" d="M2153.84,2317.58c1.02,25.59-9.6,45.01-24.11,59.41c-0.61,0.61-1.23,1.17-1.84,1.79     c-1.23,1.17-2.45,2.3-3.73,3.37c-0.66,0.56-1.28,1.12-1.94,1.63c-1.94,1.58-3.88,3.12-5.87,4.55c-1.33,0.97-2.71,1.89-4.04,2.81     c-22.94,15.38-50.37,22.84-78.01,22.84h-293.99c-9.55-30.55-10.11-58.75-5.98-83.52c10.68-63.96,52.67-105.23,52.67-105.23     l115.25-45.52l8.33-3.27c15.33-3.83,56.19-33.21,70.6-29.99c9.96,2.2,52.31,1.02,84.29,4.75c3.88,0.46,7.66,0.97,11.14,1.58     l62.94,115.25c2.2,4.29,4.09,8.53,5.72,12.57c0.61,1.48,1.18,2.96,1.69,4.44c0.82,2.2,1.53,4.34,2.2,6.49     c0.51,1.63,0.97,3.22,1.38,4.8c0.05,0.15,0.1,0.31,0.1,0.46c0.46,1.74,0.87,3.42,1.23,5.11c0.26,1.38,0.51,2.76,0.77,4.09     c0.1,0.61,0.2,1.23,0.26,1.84c0.2,1.33,0.41,2.61,0.51,3.88c0.15,1.23,0.26,2.45,0.31,3.68     C2153.74,2316.1,2153.79,2316.87,2153.84,2317.58z"/>
		</g>
		<g>
			<path class="st20" d="M1740.31,2413.98h-111.98c-56.6-1.74-79.39-37.24-88.28-60.43v-0.05l-1.33-14.56l102.37-126.74     c0,0-10.22,89.09,93.23,118.26C1730.19,2355.23,1730.75,2383.43,1740.31,2413.98z"/>
		</g>
		<g>
			<path class="st21" d="M2153.84,2317.58c1.02,25.59-9.6,45.01-24.11,59.41c-0.61,0.61-1.23,1.17-1.84,1.79     c-1.23,1.17-2.45,2.3-3.73,3.37c-0.66,0.56-1.28,1.12-1.94,1.63c-1.94,1.58-3.88,3.12-5.87,4.55c-1.33,0.97-2.71,1.89-4.04,2.81     c-22.94,15.38-50.37,22.84-78.01,22.84h-293.99c-9.55-30.55-10.11-58.75-5.98-83.52c15.02,4.24,32.44,7.25,52.67,8.48     c159.33,9.91,226.72,0,226.72,0l-5.98-25.9c0,0,47.46,80.51,95.53,25.9c40.61-46.08,42.45-56.3,41.99-58.34     c0.61,1.48,1.18,2.96,1.69,4.44c0.82,2.2,1.53,4.34,2.2,6.49c0.51,1.63,0.97,3.22,1.38,4.8c0.05,0.15,0.1,0.31,0.1,0.46     c0.46,1.74,0.87,3.42,1.23,5.11c0.26,1.38,0.51,2.76,0.77,4.09c0.1,0.61,0.2,1.23,0.26,1.84c0.2,1.33,0.41,2.61,0.51,3.88     c0.15,1.23,0.26,2.45,0.31,3.68C2153.74,2316.1,2153.79,2316.87,2153.84,2317.58z"/>
		</g>
		<g>
			<path class="st22" d="M2034.3,2429.31h-405.97c-77.56-2.34-105.08-62.28-108.86-93.65c-1.02-8.4,4.98-16.04,13.38-17.05     c8.43-1.02,16.04,4.98,17.05,13.38c0.34,2.56,9.23,64.56,78.89,66.67l405.51-0.01c25.69,0,49.72-7,69.47-20.24     c37.3-24.98,44.56-58.76,22.19-103.26l-59.11-108.24c-28.76,9.64-95.4,28.98-164.79,28.12c-30.93-0.36-58.95-4.74-83.27-13.02     c-58.04-19.77-90.42-79.66-121.73-137.57c-10.33-19.11-20.09-37.16-30.5-53.22c-4.6-7.1-2.57-16.6,4.53-21.2     c7.11-4.6,16.6-2.57,21.2,4.53c11.07,17.09,21.58,36.52,31.74,55.31c28.51,52.72,57.98,107.25,104.65,123.14     c21.25,7.24,46.06,11.07,73.75,11.39c69.51,0.74,138.57-20.97,158.05-27.68c5.09-1.74,7.96-2.83,8.1-2.89     c7.16-2.73,15.22,0.23,18.91,6.94l2.55,4.65l62.96,115.28c0.08,0.15,0.16,0.29,0.23,0.44c39.71,78.73-3.25,123.23-32.38,142.75     C2096.02,2420.51,2066.1,2429.31,2034.3,2429.31z"/>
		</g>
		<g>
			<path class="st22" d="M1760.59,2188.34c-24.79,15.56-47.53,36.91-63.58,61.74c-1.53,2.46-5.56,0.53-4.59-2.2     c4.67-15.22,11.39-29.93,19.61-43.65c8.66-14.41,17.66-27.14,29.37-39.8C1758.23,2148.2,1780.09,2175.35,1760.59,2188.34     L1760.59,2188.34z"/>
		</g>
		<g>
			<path class="st18" d="M3024.63,1609.39c-19.11,20.64-35.04,40.66-47.87,65.03c-29.37,56.04-41.99,135.02-37.24,297.52     c0.15,6.08,0.2,12.01,0.05,17.78c-4.29,216.19-207.25,231.42-207.25,231.42l-5.16-268.76c34.79-26.31,46.03-68.96,47.71-116.73     c2.35-68.2-14.76-146.92-10.78-203.83c1.89-26.41,6.59-50.37,13.08-71.98c17.27-57.62,47-98.85,68.66-126.69     c29.83-38.31,120.05-84.29,195.86-35.76C3117.45,1445.92,3087.67,1541.29,3024.63,1609.39z"/>
		</g>
		<g>
			<path class="st19" d="M3024.63,1609.39c-19.11,20.64-35.04,40.66-47.87,65.03c-50.17-80.25-138.49-106.72-199.59-114.58     c17.27-57.62,47-98.85,68.66-126.69c29.83-38.31,120.05-84.29,195.86-35.76C3117.45,1445.92,3087.67,1541.29,3024.63,1609.39z"/>
		</g>
		<g>
			<path class="st20" d="M2939.58,1989.72c-4.29,216.19-207.25,231.42-207.25,231.42l-5.16-268.76     c34.79-26.31,46.03-68.96,47.71-116.73c16.55,100.53,57.16,214.86,157.04,158.16     C2934.52,1992.32,2937.07,1990.94,2939.58,1989.72z"/>
		</g>
		<g>
			<path class="st18" d="M2743.46,2177.51c0,0,0,0-0.05,0.05c0,0.15,0,0.26-0.05,0.36c-4.5,22.12-10.68,43.93-18.44,65.24     c-3.73,10.37-7.87,20.59-12.36,30.7c-10.32,23.09-22.32,46.74-35.3,65.95c0,0,6.49,69.07-102.99,74.18     c-32.85,1.53-77.19,7.66-122.3,11.6c-104.88,9.2-213.79,6.33-191.47-94.61c0,0-1.02-0.1-2.96-0.41h-0.05     c-17.11-2.81-104.11-21.2-159.18-115.81c0,0-34.33-6.49-66.36-8.22c-21.25-1.12-42.55,4.75-59.67,17.42     c-6.18,4.6-12.57,8.68-19,12.16c-120.41,65.39-277.8-54.66-167.87-144.57c0,0,18.44-14.81,48.58-31.98v-0.05     c12.26-7.05,26.46-14.46,42.09-21.46c2.2-0.97,4.5-1.99,6.79-2.96c0,0-1.07-0.87-3.01-2.66c-12.87-11.7-64.11-62.83-92.16-156.37     c-4.8-16.04-8.94-33.36-12.06-51.95c-0.05-0.15-0.1-0.26-0.05-0.41h-0.05c-1.12-6.59-2.1-13.28-2.91-20.18     c-19.16-157.09,425.28-40.66,425.28-40.66l291.18-30.91c0,0,216.8,55.58,257.21,291.95     C2755.11,2075.08,2753.68,2127.08,2743.46,2177.51z"/>
		</g>
		<g>
			<path class="st20" d="M2747.8,2166.52l-0.1,0.41l-18.44,65.24c-3.73,10.37-7.87,20.59-12.36,30.7     c-10.32,23.09-22.32,46.74-35.3,65.95c0,0,6.49,69.07-102.99,74.18c-32.34,1.53-75.76,7.46-120.15,11.39     c13.28-26.1,13.03-52.16,6.49-75.55h1.69c141.35-3.47,277.9-168.32,281.12-172.26C2747.8,2166.52,2747.8,2166.52,2747.8,2166.52z     "/>
		</g>
		<g>
			<path class="st20" d="M1983.06,2007.44l-103.19,24.98c-12.87-11.7-64.11-62.83-92.16-156.37l-12.06-51.95l-0.1-0.41h0.05     l179.41,76.58C1955.02,1900.27,1896.83,1949.11,1983.06,2007.44z"/>
		</g>
		<g>
			<path class="st20" d="M2212.94,2169.13v0.05c-48.12,33.87-101.56,45.16-103.5,45.57h-0.05c-2.3-3.52-4.55-7.2-6.74-10.98     c0,0-34.33-6.49-66.36-8.22c-20.28-1.07-40.61,4.24-57.27,15.73c5.62-37.04-0.41-67.07-12.01-91.19     c22.02-6.49,46.95-9.09,73.05-3.17c78.98,17.93,180.38,17.98,217.98-26.77l-45.57,64.93     C2212.48,2155.08,2211.87,2160.65,2212.94,2169.13z"/>
		</g>
		<g class="st5">
			<path class="st23" d="M2712.55,2273.85c-10.32,23.09-22.32,46.74-35.3,65.95c0,0,3.12,33.41-31.83,55.48     c8.84-16.04,7.51-30.34,7.51-30.34c12.98-19.21,24.98-42.86,35.3-65.95c34.94-78.47,48.28-165.31,33.77-249.96     c-40.46-236.37-257.21-291.95-257.21-291.95l-291.18,30.91c0,0-298.85-78.26-395.86-19.87c50.52-102.12,420.17-5.26,420.17-5.26     l291.18-30.91c0,0,216.8,55.58,257.21,291.95C2760.83,2108.54,2747.5,2195.39,2712.55,2273.85z"/>
		</g>
		<g>
			<path class="st19" d="M2411.61,2242.84c0,0-15.58-0.15-37.29,5.11c0,0.05,0,0.05,0,0.05c-21.86,5.31-49.96,16.14-74.53,38.26     c-12.82,11.55-24.67,26.16-34.18,44.7c0,0-0.92,0-2.66-0.15c-1.33-0.05-3.12-0.2-5.31-0.41     c-27.89-2.96-120.87-19.77-148.25-115.66h0.05c1.94-0.41,55.38-11.7,103.5-45.57v-0.05c13.28-9.35,26.21-20.49,37.55-33.56     c0,0,58.13,42.55,137.32,35.76L2411.61,2242.84z"/>
		</g>
		<g>
			<path class="st22" d="M2745.81,2075.16c0,0-49.35,56.86-150.82,61.16c-14.15,0.6-19.94,18.41-9.07,27.48     c26.64,22.24,72.69,50.58,139.45,57.33L2745.81,2075.16z"/>
		</g>
		<g>
			<path class="st22" d="M2651.94,1832.56c0,0,13.65,134.59-119.29,176.02c0,0,126.04,51.49,195.14-54.43L2651.94,1832.56z"/>
		</g>
		<g>
			<path class="st22" d="M2602.57,1789.29c0,0-19.74,123.94-186.18,181.83c-12.86,4.47-23.96-10.16-16.31-21.42     c34.56-50.87,95.75-148.55,100.4-208.77L2602.57,1789.29z"/>
		</g>
		<g>
			<path class="st22" d="M2062.99,1952.39c0,0,35.57,27.95,46.92,78.53c3.12,13.91-13.93,23.31-23.93,13.15     c-20.01-20.32-48.57-43.4-76.29-45.08L2062.99,1952.39z"/>
		</g>
		<g>
			<path class="st19" d="M1979.03,2211.27c-0.15,1.28-0.36,2.61-0.56,3.88c0,0-10.42,9.25-25.18,20.95     c-104.83,56.91-237.7-26.72-197.75-108.61c5.87-12.16,15.63-24.32,29.88-35.96c0,0,18.03-14.46,47.51-31.37c0-0.05,0-0.05,0-0.05     c12.52-7.2,27.07-14.87,43.17-22.07c18.7,7.82,66.82,32.08,90.88,82.04h0.05C1978.62,2144.2,1984.64,2174.24,1979.03,2211.27z"/>
		</g>
		<g>
			<path class="st19" d="M2458.46,2414.39c-1.84,3.73-4.04,7.46-6.49,11.19c-104.88,9.2-213.79,6.33-191.47-94.61     c0,0-1.02-0.1-2.96-0.41c0.05-0.05,0.05-0.1,0.1-0.15c2.25-3.63,4.55-7.1,7-10.47c10.27-14.25,22.07-26.21,35.15-33.67     c0.1-0.05,0.15-0.1,0.26-0.15c25.64-14.61,51.03-23.75,70.55-29.32c21.2-6.03,35.45-7.87,35.45-7.87s44.5,38.72,58.9,89.91     C2471.48,2362.23,2471.74,2388.28,2458.46,2414.39z"/>
		</g>
		<g>
			<path class="st21" d="M1967.02,2120.09c11.6,24.11,17.62,54.15,12.01,91.19c-0.82,0.56-1.63,1.12-2.4,1.69     c-6.18,4.6-12.57,8.68-19,12.16c-100.13,54.35-225.85-19.51-202.09-97.62c4.75-15.84,15.68-31.77,34.23-46.95     c0,0,18.44-14.81,48.58-31.98c-0.36,0.77-2.55,5.01-5.42,11.55c0,0,0,0,0,0.05c-13.95,32.18-43.32,118.93,50.73,107.43     c0,0,34.33-33.26,83.32-47.51H1967.02z"/>
		</g>
		<g>
			<path class="st21" d="M2458.46,2414.39c-0.72,0.1-1.43,0.15-2.15,0.2c-101,8.84-205.72,6.54-193.36-83.78     c0.41-3.47,1.07-7.1,1.89-10.83c0,0-0.05,0-0.2-0.05c-0.36,0-1.33-0.15-2.76-0.36h-0.05c-16.45-2.71-97.27-19.77-152.39-104.83     c1.94-0.41,55.38-11.7,103.5-45.57c3.32,25.7,22.48,78.06,122.76,84.09l38.98-6.08c0,0-0.15,0.26-0.36,0.77c0,0.05,0,0.05,0,0.05     c-0.77,1.38-2.2,4.5-3.73,8.79c-8.48,23.96-18.7,84.24,94.35,82.04C2471.48,2362.23,2471.74,2388.28,2458.46,2414.39z"/>
		</g>
		<g>
			<path class="st22" d="M2385.15,2444.32c-51.98,0-99.47-8.06-124.7-36.8c-14.5-16.52-20.36-38.11-17.5-64.33     c-31.27-7.62-104.17-33.44-154.18-114.56c-11.34-1.91-35.25-5.59-57.65-6.8c-18.21-1.01-35.85,4.17-49.72,14.43     c-6.74,5.01-13.76,9.51-20.84,13.33c-79.19,43-175.18,12.33-211.75-42.13c-28.72-42.75-18.66-90.52,26.91-127.79     c1.53-1.23,32.75-26.05,80.42-49.21c-28.52-30.63-83.96-104.19-98.7-225.08c-3.27-26.81,4.97-49.69,23.83-66.16     c86.74-75.78,386.64-0.07,420.55,8.82c8.19,2.14,13.09,10.52,10.94,18.71c-2.14,8.18-10.54,13.08-18.71,10.94     c-87.79-22.98-329.47-70.55-392.62-15.38c-11.32,9.89-15.63,22.4-13.56,39.36c18.11,148.49,103.9,220.87,104.76,221.58     c4.13,3.41,6.2,8.75,5.42,14.05s-4.25,9.82-9.18,11.91c-2.07,0.87-4.14,1.79-6.12,2.67c-51.91,23.21-87.39,51.34-87.74,51.63     c-32.88,26.88-40.29,57.77-20.74,86.87c29.22,43.5,106.93,67.44,171.72,32.27c5.82-3.14,11.58-6.83,17.17-10.99     c19.61-14.52,44.4-21.8,69.62-20.42c32.69,1.77,66.95,8.19,68.4,8.47c4.37,0.83,8.16,3.51,10.4,7.35     c51.06,87.72,131.35,105.53,148.02,108.33c0.12,0.02,0.24,0.03,0.36,0.05c1.24,0.2,1.98,0.28,2.15,0.3     c4.34,0.47,8.29,2.76,10.83,6.3c2.54,3.54,3.48,7.99,2.54,12.25c-5.21,23.58-2.59,40.92,8.03,53.02     c27.51,31.35,108.57,28.15,167.14,23.01c18.07-1.58,35.96-3.5,53.27-5.36c25.51-2.75,49.6-5.34,69.65-6.27     c35.76-1.67,62.18-10.98,76.41-26.93c12.95-14.52,12.07-30.04,12.02-30.69c-0.23-3.4,0.66-6.99,2.57-9.82     c11-16.28,22.44-37.69,33.99-63.62c34.95-78.41,46.25-161.79,32.68-241.13c-38.22-223.36-237.48-277.5-245.94-279.69     c-8.18-2.12-13.12-10.47-11-18.66c2.11-8.19,10.45-13.12,18.63-11.02c2.33,0.6,57.76,15.14,118.7,59.82     c56.34,41.31,128.07,117.24,149.82,244.39c14.6,85.33,2.53,174.81-34.89,258.77c-11.38,25.53-22.77,47.12-33.93,64.28     c-0.36,9.6-3.27,28.78-19.07,46.97c-20.04,23.07-53.2,35.84-98.57,37.95c-19.12,0.89-42.76,3.44-67.8,6.13     c-17.46,1.88-35.51,3.82-53.88,5.42C2430.71,2442.82,2407.51,2444.32,2385.15,2444.32z"/>
		</g>
		<g>
			<g>
				<path class="st18" d="M708.24,1620.63l-90.06,132.67l-71.31,105.08c-71.11-65.85-144.32-68.66-205.92-48.12      c-44.8,14.87-83.42,42.09-110.65,66.46c-64.67,57.93-178.8,57.93-207.71-76.63c-5.06-23.45-5.77-44.7-3.42-63.75      c5.77-48.48,30.91-83.01,52.92-104.52c18.95-18.6,35.61-27.54,35.61-27.54c44.95-35.4,92.57-57.83,138.64-71.57      c135.48-40.46,257.42-5.77,257.42-5.77L708.24,1620.63z"/>
			</g>
			<g>
				<path class="st19" d="M340.93,1810.26c-44.8,14.87-83.42,42.09-110.65,66.46c-64.67,57.93-178.8,57.93-207.71-76.63      c-3.27-15.17-4.7-29.42-4.7-42.71c0-5.47,0.26-10.78,0.72-15.89c0.15-1.74,0.36-3.47,0.56-5.16      c10.78-90.27,88.53-132.05,88.53-132.05c44.95-35.4,92.57-57.83,138.64-71.57c0,0,98.08,34.79,111.57,148.66      C362.03,1716.41,358.15,1758.92,340.93,1810.26z"/>
			</g>
			<g>
				<path class="st20" d="M618.17,1753.3l-71.31,105.08c-71.11-65.85-144.32-68.66-205.92-48.12      c17.22-51.34,21.1-93.84,16.96-128.89c91.65-20.84,180.28-16.7,235.09,26.51C605.81,1718,613.93,1733.68,618.17,1753.3z"/>
			</g>
			<g>
				<path class="st21" d="M340.93,1810.26c-44.8,14.87-83.42,42.09-110.65,66.46c-64.67,57.93-178.8,57.93-207.71-76.63      c-3.27-15.17-4.7-29.42-4.7-42.71c0-5.47,0.26-10.73,0.72-15.89c0.15-1.74,0.36-3.47,0.56-5.16l52.87-104.42      c-1.12,5.41-45.98,216.86,90.17,130.93c58.59-36.99,128.02-66.05,195.71-81.48C362.03,1716.41,358.15,1758.92,340.93,1810.26z"/>
			</g>
			<g>
				<path class="st18" d="M1533.31,2342.92c-6.74,4.85-10.57,7.2-10.57,7.2c-0.97,108.35-192.39,122.6-315.86,83.01      c-209.45,35.76-327.45-19.92-327.45-19.92c-487.35-14.56-389.57-480.1-239.49-817.36l48.99-111.26l14.76-33.56      c0,0,659-638.56,951.05,0C1918.9,2028.75,1597.06,2297.04,1533.31,2342.92z"/>
			</g>
			<g>
				<path class="st20" d="M1204.32,2433.54c-207.86,34.89-324.9-20.33-324.9-20.33c-487.35-14.56-389.57-480.1-239.49-817.36      l48.99-111.26h19.31l434.53,43.42l-124.03,109.17c0,0-5.31,50.06-4.44,117.5c-93.23,24.42-187.07,33.15-264.62,8.17      c0,0-97.06,475.75,171.13,535.32c60.18,13.38,107.38,22.38,144.37,28.35c1.12,36.17,19.51,73.87,72.29,105.34h59.21      C1196.66,2431.86,1199.37,2432.52,1204.32,2433.54z"/>
			</g>
			<g>
				<path class="st19" d="M1537.6,2339.8c-0.97-1.94-1.94-3.93-2.91-5.98c-17.11-35.3-40.56-62.99-67.53-84.65      c-0.2-0.15-0.31-0.26-0.31-0.26c-120.76-97.06-311.06-74.18-311.06-74.18s-18.19-20.79-90.68-156.98      c-39.64-74.58-49.76-181.51-50.83-263.09c-0.87-67.43,4.44-117.5,4.44-117.5l124.03-109.17l73.97-65.08      c11.03-6.08,188.45-67.02,388.86-102.58c17.32,26.82,33.72,56.96,49.14,90.68C1913.43,2016.74,1610.14,2285.76,1537.6,2339.8z"/>
			</g>
			<g>
				<path class="st19" d="M1510.78,2391.96c-0.05,0-0.05,0.05-0.05,0.05c-15.17,27.33-45.16,42.76-80.87,50.78      c-74.12,16.6-172.77,1.07-213.89-6.9c-4.65-0.92-8.53-1.69-11.6-2.35h-0.05c-4.96-1.02-7.66-1.69-7.66-1.69h-59.21      c-52.77-31.47-71.16-69.17-72.29-105.34c-2.2-71.62,62.99-137.42,62.99-137.42l114.48-22.89c0,0,235.5-10.42,273.82,143.65      c1.89,7.56,3.32,15.53,4.19,23.96C1523.09,2357.48,1519.26,2376.64,1510.78,2391.96z"/>
			</g>
			<g>
				<path class="st21" d="M1442.43,1558c0,0-212.46,140.23-428.14,196.68c-0.87-67.43,4.44-117.5,4.44-117.5l124.03-109.17      L1442.43,1558z"/>
			</g>
			<g>
				<path class="st21" d="M1533.31,2342.92c-6.74,4.85-10.57,7.2-10.57,7.2c-0.15,15.94-4.39,29.83-11.95,41.84      c-0.05,0-0.05,0.05-0.05,0.05c-15.48,24.52-44.8,41.07-80.87,50.78c-63.19,16.86-147.12,12.62-213.89-6.9      c-3.07-0.87-6.08-1.79-9.09-2.76c-0.82,0.15-1.69,0.31-2.5,0.41h-0.05c-4.96-1.02-7.66-1.69-7.66-1.69h-59.21      c-52.77-31.47-71.16-69.17-72.29-105.34c127.92,20.59,134.05,4.44,134.05,4.44s247.51,85.82,267.63-82.04c0,0,0.1,0.1,0.31,0.26      c2.96,2.66,27.59,24.83,49.3,60.69C1522.48,2319.88,1528.25,2330.91,1533.31,2342.92z"/>
			</g>
			<g>
				<path class="st22" d="M1341.71,2471.29c-47.38,0-95.77-7.41-136.1-19.81c-192.43,31.93-308.43-11.27-330.24-20.49      c-154.52-5.33-263.06-56.09-322.65-150.91c-120.66-192-7.39-515.66,70.87-691.51c4.02-9.02,14.58-13.09,23.6-9.06      c9.02,4.02,13.08,14.58,9.06,23.61c-75.36,169.34-185.09,479.99-73.26,657.94c53.3,84.82,153.21,130,296.94,134.31      c2.45,0.07,4.87,0.65,7.09,1.7c1.1,0.51,116.34,52.68,316.84,18.45c2.83-0.46,5.74-0.27,8.47,0.6      c81.68,26.2,205.56,28.68,263.27-13.01c19.5-14.08,29.07-31.46,29.27-53.14c0.06-6.15,3.28-11.85,8.52-15.07      c1.01-0.62,103.44-65.12,169.59-204.38c87.61-184.41,72.21-416.8-44.52-672.05c-70.45-154.04-168.69-243.93-291.98-267.17      c-288.6-54.4-626.96,269.3-630.35,272.58c-7.09,6.87-18.41,6.69-25.28-0.41s-6.69-18.41,0.4-25.28      c3.57-3.47,89.01-85.75,213.08-162.31c165.89-102.37,321.02-143.78,448.7-119.74c135.41,25.5,242.38,122.21,317.95,287.45      c67.66,147.94,102.71,288.27,104.2,417.11c1.2,103.83-19.26,200.41-60.81,287.07c-60.68,126.57-147.58,193.77-174.29,212.3      c-2.96,28.73-17.88,53.48-43.55,72.02C1458.2,2459.79,1400.74,2471.29,1341.71,2471.29z"/>
			</g>
			<g>
				<path class="st22" d="M1504.88,2350.65c-6.16-70.78-61.83-126.26-128.95-145.74c-69.98-21.29-146.34-16.16-218.42-4.47      c-7.38,1.58-14.91-1.98-18.29-8.37c-13.12-24.44-25.41-48.76-37.49-73.41c-24.04-49.2-46.56-99.16-66.64-150.09      c-9.9-25.52-19.12-51.29-27.29-77.36c-0.42-1.35,0.33-2.78,1.67-3.2c1.28-0.41,2.65,0.26,3.13,1.48      c31.61,75.04,71.55,146.18,113.77,215.67c14.11,23.06,28.64,46.12,43.44,68.4l-18.28-8.37      c96.37-15.33,203.35-20.85,291.14,30.55c54.22,31.93,93.34,90.58,97.96,153.85C1541.12,2373.83,1505.94,2375,1504.88,2350.65      L1504.88,2350.65z"/>
			</g>
			<g>
				<path class="st22" d="M723.16,2211.46c28.27,68.29,74.64,131.92,137.75,171.31c0,0,6.5,4.15,6.5,4.15      c5.21,2.69,16.53,8.52,21.81,11.27c21.76,12.32,3.08,44.01-18.28,30.8c-58.15-35.95-101.79-92.28-129.9-153.77      c-9.2-20.21-17.06-40.83-22.77-62.28C717.51,2209.91,722.07,2208.31,723.16,2211.46L723.16,2211.46z"/>
			</g>
			<g>
				<path class="st22" d="M138.86,1931.47c-13.44,0-26.72-2.01-39.42-6.14c-47.31-15.38-80.82-58.52-94.35-121.48      c-29.47-136.85,77.95-205.76,92.52-214.39c42.52-33.29,90.83-58.14,143.6-73.88c138.89-41.47,262.24-7.31,267.42-5.84      c9.5,2.7,15,12.59,12.3,22.09c-2.7,9.5-12.59,15.01-22.09,12.3c-1.16-0.33-118.87-32.68-247.41,5.71      c-48.85,14.57-93.5,37.61-132.71,68.49c-0.81,0.64-1.68,1.21-2.6,1.7c-4.12,2.25-101.77,57.05-76.09,176.3      c10.89,50.71,35.25,83.55,70.44,95c34.18,11.11,76.52,0.15,107.86-27.92c25.37-22.7,66.25-53.29,116.95-70.11      c80.6-26.87,157.96-8.9,223.7,51.97c7.25,6.71,7.68,18.02,0.97,25.27c-6.71,7.24-18.02,7.68-25.27,0.97      c-56.36-52.2-119.65-67.09-188.12-44.28c-44.91,14.9-81.55,42.38-104.38,62.82C212.13,1916.98,174.93,1931.47,138.86,1931.47z"/>
			</g>
			<g>
				<path class="st22" d="M380.15,1524.25c0,0,83.53,53.2,63.41,164.84c-2.41,13.38,12.6,22.74,23.47,14.57      c34.6-26.02,80.64-79.35,50.55-167.34l-42.07-3.61L380.15,1524.25z"/>
			</g>
			<g>
				<path class="st22" d="M1157.23,2200.49c-50.13,4.52-102.11,22.36-136.42,60.85c-1.87,2.44-5.88-0.31-4.18-2.94      c28.98-48.48,81.94-78.1,135.18-93.26C1177.73,2159.47,1183.71,2198.12,1157.23,2200.49L1157.23,2200.49z"/>
			</g>
			<g>
				<path class="st22" d="M1296.89,2331.84c29.24,20.65,60.95,47.51,62.45,87c0.67,19.39-18.21,61.16-42.05,43.43      c-7.61-6.41-8.59-17.77-2.19-25.39c6.71-6.15,14.24-11.05,16.25-20.52c5.36-29.2-18.79-59.43-37.65-80.53      C1291.47,2333.8,1294.4,2330.09,1296.89,2331.84L1296.89,2331.84z"/>
			</g>
			<g>
				<path class="st22" d="M1423.75,2302.91c48.37,29.57,63.23,85.51,41.67,137.15c-8.08,22.43-41.01,11.74-34.31-11.19      c0.53-1.74,1.63-3.65,2.53-5.21c11.32-17.26,19.08-37.14,16.73-58.24c-1.88-21.75-13.71-43-29.55-58.33      C1418.39,2305.16,1421.07,2301.24,1423.75,2302.91L1423.75,2302.91z"/>
			</g>
			<g>
				<path class="st22" d="M690.07,1600.88c0,0,56.73,76.1,167.69,93.6c10.93,1.72,12.82,16.66,2.58,20.86      c-56.43,23.17-169.75,52.41-267.33-29.31l44.7-85.14H690.07z"/>
			</g>
			<g>
				<path class="st22" d="M574.86,1762.86c0,0,26.2,94.2,233.9,136.29c9.77,1.98,11.92,14.93,3.38,20.06      c-48.18,28.97-165.6,81.72-277.83-5.69L574.86,1762.86z"/>
			</g>
			<g>
				<path class="st22" d="M517.58,2026.58c0,0,47.65,65.47,193.93,63.96c9.93-0.1,14.85,11.92,7.69,18.81      c-30.96,29.75-98.37,81.75-184.88,73.47L517.58,2026.58z"/>
			</g>
			<g>
				<path class="st22" d="M1042.27,1968.98c0,0-143.44-4.65-189.97,138.89c-3.33,10.27,8.81,18.72,17.21,11.94      c39.48-31.83,120.61-80.13,222.84-48.36L1042.27,1968.98z"/>
			</g>
		</g>
		<g>
			<g>
				<circle class="st18" cx="2540.65" cy="1193.6" r="170.41"/>
			</g>
			<g>
				<path class="st20" d="M2702.35,1247.49c-22.55,67.71-86.41,116.52-161.72,116.52c-94.11,0-170.39-76.31-170.39-170.43      c0-70.83,43.19-131.54,104.69-157.24c-5.65,16.93-8.71,35.07-8.71,53.91c0,94.11,76.28,170.39,170.39,170.39      C2659.93,1260.64,2682.13,1255.96,2702.35,1247.49z"/>
			</g>
			<g class="st5">
				<path class="st23" d="M2711.06,1193.59c0,74.96-48.39,138.65-115.69,161.44c52.59-29,88.21-84.99,88.21-149.3      c0-94.11-76.28-170.39-170.42-170.39c-19.11,0-37.5,3.16-54.67,8.95c24.35-13.46,52.34-21.09,82.14-21.09      C2634.78,1023.2,2711.06,1099.48,2711.06,1193.59z"/>
			</g>
			<g>
				<path class="st22" d="M2540.64,1379.33c-102.41,0-185.73-83.32-185.73-185.73s83.32-185.73,185.73-185.73      c102.42,0,185.74,83.32,185.74,185.73S2643.06,1379.33,2540.64,1379.33z M2540.64,1038.52c-85.51,0-155.08,69.57-155.08,155.08      s69.57,155.08,155.08,155.08s155.08-69.57,155.08-155.08S2626.16,1038.52,2540.64,1038.52z"/>
			</g>
			<g>
				<circle class="st24" cx="2532.71" cy="1211.34" r="73.01"/>
			</g>
			<g>
				<path class="st25" d="M2605.71,1211.35c0,25.22-12.8,47.45-32.26,60.57c3.68-8.67,5.69-18.21,5.69-28.24      c0-40.34-32.71-73.02-73.02-73.02c-15.09,0-29.1,4.58-40.72,12.42c11.03-26.29,37.01-44.75,67.33-44.75      C2573.03,1138.33,2605.71,1171,2605.71,1211.35z"/>
			</g>
			<g>
				<path class="st22" d="M2532.71,1297.11c-47.29,0-85.78-38.48-85.78-85.78s38.48-85.78,85.78-85.78      c47.3,0,85.78,38.48,85.78,85.78S2580.01,1297.11,2532.71,1297.11z M2532.71,1151.1c-33.21,0-60.23,27.02-60.23,60.23      s27.02,60.23,60.23,60.23s60.23-27.02,60.23-60.23S2565.92,1151.1,2532.71,1151.1z"/>
			</g>
			<g>
				<path class="st26" d="M2552.2,1714.93c-1.48,6.44-3.12,12.98-4.8,19.51c-8.07,31.11-21.86,60.23-40.41,85.87      c-17.16,23.75-38.47,44.49-63.24,61.05c-64.83,43.32-170.01,83.12-325,57.52c-293.74-48.53-579.81-201.79-541.5-436.78      c7.1-43.42,17.73-86.39,32.23-127.76c20.02-57.21,47.3-111.47,82.5-159.79c77.04-105.9,192.03-183.7,351.41-203.42      c0,0,264.36-75.91,438.05,181.96C2481.45,1193.1,2628.83,1390.34,2552.2,1714.93z"/>
			</g>
			<g>
				<g>
					<path class="st22" d="M2566.79,1637.17c-76.73,14.78-117.37-10.2-136.37-29.38c-7.17-7.24-2.91-19.47,7.22-20.56       c118.69-12.79,136.47-71.11,136.47-71.11L2566.79,1637.17z"/>
				</g>
				<g>
					<path class="st22" d="M2536.81,1305.65c0,0-20.45,54.28-82.61,62.79c-57.59,7.89-99.1,17.97-117.07,64.11       c-1.78,4.56,2.24,9.34,6.95,8.02c81.84-23.06,188.02,46.43,218.48-38.43L2536.81,1305.65z"/>
				</g>
				<g>
					<path class="st22" d="M2330.11,1057.03c0,0-36.2,49.13-46.55,132.43c-1.42,11.41,12.56,18.07,20.58,9.83       c26.89-27.62,72.8-68.3,114.08-73.3L2330.11,1057.03z"/>
				</g>
				<g>
					<path class="st22" d="M2280.94,1027.43c0,0-92.86,75.14-139.68,189.77c-4.73,11.58-21.84,9.03-23.08-3.42       c-6.27-63.14-16.15-162.35-21.15-211.43L2280.94,1027.43z"/>
				</g>
			</g>
			<g>
				<path class="st19" d="M2552.2,1714.93c-1.48,6.44-3.12,12.98-4.8,19.51c-8.07,31.11-21.86,60.23-40.41,85.87      c-1.53,2.15-3.12,4.24-4.75,6.33c-0.82,1.07-1.63,2.09-2.45,3.17c-1.53,1.94-3.12,3.83-4.75,5.72      c-0.72,0.87-1.43,1.74-2.25,2.61c-1.69,1.99-3.47,3.98-5.31,5.93c-0.05,0.1-0.15,0.15-0.26,0.26c-0.72,0.82-1.48,1.58-2.2,2.35      c-1.79,1.89-3.63,3.78-5.57,5.62c-0.77,0.77-1.58,1.58-2.4,2.3c-1.94,1.94-3.93,3.78-5.98,5.57c-0.46,0.41-0.92,0.82-1.38,1.23      c-2.4,2.15-4.85,4.19-7.36,6.23c-0.72,0.61-1.43,1.17-2.2,1.74c-2.25,1.84-4.55,3.63-6.9,5.36c-0.15,0.05-0.26,0.15-0.36,0.26      c-3.01,2.2-6.03,4.34-9.14,6.39c-64.83,43.32-170.01,83.12-325,57.52c-293.74-48.53-579.81-201.79-541.5-436.78      c7.1-43.42,17.73-86.38,32.23-127.76c37.8,13.84,76.42,35.15,82.71,65.18c7.2,34.58,20.49,73.56,59.62,97.78      c30.24,18.75,75.96,28.61,146.31,20.69c161.22-18.19,255.12,66.1,299.2,125.46c44.04,59.36,124.49,95.12,213.23,52.31      C2499.33,1692.97,2552.2,1714.93,2552.2,1714.93z"/>
			</g>
			<g>
				<path class="st20" d="M1893.71,1280.81c0,0-145.39,110.55-141.91,256.5c-39.13-24.21-52.41-63.19-59.62-97.78      c-6.28-30.04-44.9-51.34-82.71-65.18c20.03-57.22,47.3-111.47,82.5-159.79L1893.71,1280.81z"/>
			</g>
			<g>
				<path class="st21" d="M2019.55,1653.45c0,0-96.21,65.23-96.21-44.06c0,0-60.28,46.63,8.94,89.4      C2006.86,1744.86,2019.55,1653.45,2019.55,1653.45z"/>
			</g>
			<g>
				<path class="st21" d="M2025.94,1653.45c0,0,30.6,60.14,95.33,54.44c0,0-72.69,69.13-109.98-27.03L2025.94,1653.45z"/>
			</g>
			<g>
				<path class="st21" d="M2506.99,1820.32c-1.53,2.15-3.12,4.24-4.75,6.33c-0.82,1.07-1.63,2.09-2.45,3.17      c-1.53,1.94-3.12,3.83-4.75,5.72c-0.72,0.87-1.43,1.74-2.25,2.61c-1.69,1.99-3.47,3.98-5.31,5.93c-0.05,0.1-0.15,0.15-0.26,0.26      c-0.72,0.82-1.48,1.58-2.2,2.35c-1.79,1.89-3.63,3.78-5.57,5.62c-0.77,0.77-1.58,1.58-2.4,2.3c-1.94,1.94-3.93,3.78-5.98,5.57      c-0.46,0.41-0.92,0.82-1.38,1.23c-2.4,2.15-4.85,4.19-7.36,6.23c-0.72,0.61-1.43,1.17-2.2,1.74c-2.25,1.84-4.55,3.63-6.9,5.36      c-0.15,0.05-0.26,0.15-0.36,0.26c-3.01,2.2-6.03,4.34-9.14,6.39c-64.83,43.32-170.01,83.12-325,57.52      c-293.74-48.53-579.81-201.79-541.5-436.78c7.1-43.42,17.73-86.38,32.23-127.76c37.8,13.84,76.42,35.15,82.71,65.18      c7.2,34.58,20.49,73.56,59.62,97.78c1.43,61.71,29.53,129.76,106.41,198.47C2043.09,1900.93,2309.09,1903.79,2506.99,1820.32z"/>
			</g>
			<g class="st5">
				<path class="st23" d="M2552.2,1714.93c-1.48,6.44-3.12,12.98-4.8,19.51c-15.02,57.68-49.45,108.56-97.93,142.99      c34.18-32.49,58.7-74.33,70.7-120.51c1.69-6.54,3.32-13.08,4.8-19.51c76.63-324.59-70.75-521.83-70.75-521.83      c-173.69-257.88-438.05-181.96-438.05-181.96c-100.48,12.41-183.34,47.97-250.16,99.05c71.11-63.14,162.76-107.38,277.39-121.53      c0,0,264.36-75.91,438.05,181.96C2481.45,1193.1,2628.83,1390.34,2552.2,1714.93z"/>
			</g>
			<g>
				<path class="st22" d="M2212.65,1962.21c-29.79,0-61.89-2.5-96.4-8.2c-304.49-50.31-593.92-210.31-554.14-454.36      c7.44-45.45,18.51-89.31,32.9-130.37c74.82-214.04,232.98-346.55,445.39-373.21c9.94-2.67,74.6-18.57,159.17-5.81      c83.09,12.54,201.59,56.4,294.38,193.99c8.95,12.12,149.71,209.85,73.16,534.18c-1.5,6.54-3.17,13.19-4.88,19.85      c-16.71,64.25-55.76,119.58-109.98,155.83C2402.45,1927.4,2323.77,1962.21,2212.65,1962.21z M2134.54,1016.07      c-51.65,0-86.46,9.67-86.93,9.8c-0.76,0.21-1.55,0.38-2.33,0.47c-200.79,24.83-350.42,150.21-421.33,353.06      c-13.81,39.39-24.43,81.5-31.58,125.18c-36.39,223.19,239.41,371.35,528.88,419.18c153.39,25.35,255.42-16,313.98-55.14      c47.96-32.07,82.53-81.09,97.33-138.03c1.65-6.38,3.25-12.78,4.7-19.09c0.01-0.03,0.01-0.06,0.02-0.09      c74.13-314-66.68-507.22-68.11-509.14c-0.15-0.2-0.3-0.4-0.43-0.61c-69.25-102.82-160.92-163.69-272.45-180.9      C2174.06,1017.33,2153.2,1016.07,2134.54,1016.07z"/>
			</g>
			<g>
				<path class="st22" d="M1898.1,1484.58c-28.4-34.42-57.42-62.91-103.25-57.73c-13.7,1.41-28.18,5.93-45.52,12.7      c9.31-39.24,56.99-61.41,95.28-47.84C1883.42,1403.82,1907.35,1446.45,1898.1,1484.58L1898.1,1484.58z"/>
			</g>
			<g>
				<path class="st22" d="M2096.26,1598.25c-16.81-27.09-70.74-45.89-99.93-38.73c-9.93,2.43-15.68,12.88-12.26,22.52      c4.01,11.33,12.63,27.99,30.75,41.53c7.65,5.72,17.04,8.56,26.58,8.21c11.99-0.43,30-2.27,46.27-8.67      C2097.56,1619.24,2101.86,1607.26,2096.26,1598.25z"/>
			</g>
			<g>
				<path class="st22" d="M1924,1611.86c-22.89,11.3-22.59,30.64-9.82,50.06c2.83,2.87,12.31,13.23,18.84,16.49      c7.15,4.25,14.61,6.64,22.27,8.02c16.41,3.14,33.43-3.62,47.05-13.35c5.74-4.08,13.71-2.74,17.79,3.01      c1.37,1.89,2.04,4,2.35,6.2c0.89,10.52,7.44,20.46,17.1,27.73c9.66,7.43,22.25,10.78,33.96,12.58      c30.71,5.26,44.17-14.75,43.96-43.17c0-1.47,1.24-2.67,2.71-2.6c1.09,0.05,1.99,0.77,2.33,1.73c2.52,7.23,4.09,14.96,4.2,23.24      c0.74,29.36-27.7,48.14-55.11,46.79c-17.52-0.45-33.61-7.93-47.48-18.22c-14.33-10.67-25.56-27.26-27.11-45.72      c0,0,20.14,9.21,20.14,9.21c-27.38,20.47-70.67,28.75-98.35,4.14c-19.6-16.27-33.44-41.51-26.1-66.96      c2.28-6.87,6.94-12.65,12.29-16.57c3.07-2.44,19.2-11.36,20.63-5.49C1925.9,1610.25,1925.13,1611.41,1924,1611.86L1924,1611.86z      "/>
			</g>
			<g>
				<path class="st22" d="M2009.76,1696.24c-1.31,0-2.65-0.21-3.96-0.63c-6.71-2.19-10.37-9.4-8.18-16.1l19.58-60.02      c2.19-6.71,9.39-10.37,16.1-8.18s10.37,9.4,8.18,16.1l-19.58,60.02C2020.14,1692.81,2015.14,1696.24,2009.76,1696.24z"/>
			</g>
			<g>
				<path class="st22" d="M2213.25,1565.12c13.27-36.92,56.69-59.35,95.77-48.11c39.43,9.74,67.06,54.5,53.22,92.38      c-10.75-15.19-20.35-26.93-31.02-35.65C2295.8,1544.2,2255.93,1552.01,2213.25,1565.12L2213.25,1565.12z"/>
			</g>
			<g>
				<path class="st22" d="M2200.49,1395.42c-28.18,2.18-81.23,11.54-109.94,50.3c-4.33,5.85-13.42,4.54-15.83-2.33      c-8.96-25.66-29.86-70.31-72.14-94.81c-6.36-3.69-5.46-13.11,1.52-15.43c21.08-6.99,59.12-8.69,94.65,46.36      c0,0,56.45-41.58,106.45,0.85C2211.03,1385.32,2208.12,1394.83,2200.49,1395.42z"/>
			</g>
			<g>
				<path class="st22" d="M2192.8,1304c31.74-10.14,57.76,16.06,85.58,25.65c46.42,6.42,74.51-11.02,92.16-42.08      c3-5.28-1.79-11.62-7.71-10.23c-14.7,3.45-39.13,5.65-69.12-5.11c-40.28-14.46-85.57-5.95-108.18,20.47      C2180.98,1298.01,2186.14,1306.13,2192.8,1304z"/>
			</g>
			<g>
				<path class="st22" d="M2024.28,1267.94c-18.63-27.63-55.29-23.19-83.06-32.9c-40.41-23.72-51.66-54.82-46.26-90.13      c0.92-6.01,8.6-8.01,12.39-3.25c9.39,11.82,27.21,28.68,57.42,38.82c40.58,13.61,70.85,48.35,72.23,83.09      C2037.28,1270.56,2028.2,1273.74,2024.28,1267.94z"/>
			</g>
		</g>
		<g>
			<g>
				<circle class="st26" cx="1666.41" cy="268.84" r="250.95"/>
			</g>
			<g>
				<path class="st20" d="M1904.54,348.2c-33.21,99.72-127.25,171.59-238.16,171.59c-138.59,0-250.93-112.39-250.93-250.98      c0-104.32,63.6-193.71,154.17-231.57c-8.33,24.93-12.82,51.65-12.82,79.39c0,138.59,112.34,250.93,250.93,250.93      C1842.07,367.57,1874.76,360.67,1904.54,348.2z"/>
			</g>
			<g class="st5">
				<path class="st23" d="M1917.37,268.82c0,110.39-71.26,204.19-170.37,237.75c77.44-42.71,129.91-125.16,129.91-219.87      c0-138.59-112.34-250.93-250.98-250.93c-28.15,0-55.22,4.65-80.51,13.18c35.86-19.82,77.09-31.06,120.97-31.06      C1805.03,17.89,1917.37,130.22,1917.37,268.82z"/>
			</g>
			<g>
				<path class="st22" d="M1666.41,537.67c-148.23,0-268.83-120.6-268.83-268.84S1518.17,0,1666.41,0      c148.24,0,268.84,120.6,268.84,268.84S1814.64,537.67,1666.41,537.67z M1666.41,35.76c-128.52,0-233.07,104.56-233.07,233.07      s104.56,233.07,233.07,233.07c128.52,0,233.08-104.56,233.08-233.07S1794.93,35.76,1666.41,35.76z"/>
			</g>
			<g>
				<circle class="st24" cx="1654.72" cy="294.96" r="107.51"/>
			</g>
			<g>
				<path class="st25" d="M1762.22,294.97c0,37.14-18.85,69.88-47.51,89.19c5.42-12.77,8.38-26.82,8.38-41.58      c0-59.41-48.17-107.53-107.53-107.53c-22.22,0-42.86,6.74-59.97,18.29c16.24-38.72,54.51-65.9,99.16-65.9      C1714.1,187.44,1762.22,235.56,1762.22,294.97z"/>
			</g>
			<g>
				<path class="st22" d="M1654.72,420.35c-69.14,0-125.4-56.25-125.4-125.39s56.25-125.39,125.4-125.39s125.4,56.25,125.4,125.39      S1723.86,420.35,1654.72,420.35z M1654.72,205.33c-49.42,0-89.63,40.21-89.63,89.63s40.21,89.63,89.63,89.63      s89.63-40.21,89.63-89.63S1704.14,205.33,1654.72,205.33z"/>
			</g>
			<g>
				<circle class="st26" cx="415.46" cy="438.4" r="250.95"/>
			</g>
			<g>
				<path class="st20" d="M625.27,576.04c-44.8,68.25-122.04,113.31-209.81,113.31c-138.59,0-250.98-112.34-250.98-250.98      c0-80.71,38.11-152.49,97.32-198.36c-26,39.49-41.12,86.79-41.12,137.62c0,138.59,112.39,250.98,250.98,250.98      C529.54,628.61,582.82,608.99,625.27,576.04z"/>
			</g>
			<g class="st5">
				<path class="st23" d="M608.01,599.29c20.28-36.22,31.83-77.96,31.83-122.4c0-138.59-112.34-250.93-250.93-250.93      c-77.45,0-146.67,35.04-192.64,90.11c42.91-76.73,125.01-128.63,219.21-128.63c138.59,0,250.93,112.34,250.93,250.93      C666.4,499.62,644.48,555.76,608.01,599.29z"/>
			</g>
			<g>
				<path class="st22" d="M415.46,707.23c-148.23,0-268.83-120.6-268.83-268.84s120.6-268.84,268.83-268.84      c148.24,0,268.84,120.6,268.84,268.84S563.7,707.23,415.46,707.23z M415.46,205.32c-128.52,0-233.07,104.56-233.07,233.07      s104.56,233.07,233.07,233.07c128.52,0,233.08-104.56,233.08-233.07S543.98,205.32,415.46,205.32z"/>
			</g>
			<g>
				<circle class="st24" cx="427.15" cy="464.52" r="107.51"/>
			</g>
			<g>
				<path class="st25" d="M534.65,464.53c0,31.42-13.49,59.72-34.99,79.39c1.84-7.77,2.76-15.84,2.76-24.11      c0-59.36-48.17-107.53-107.53-107.53c-27.94,0-53.38,10.68-72.49,28.15c10.93-47.76,53.64-83.42,104.78-83.42      C486.53,356.99,534.65,405.16,534.65,464.53z"/>
			</g>
			<g>
				<path class="st22" d="M427.15,589.91c-69.14,0-125.4-56.25-125.4-125.39c0-69.14,56.25-125.4,125.4-125.4      s125.39,56.25,125.39,125.4C552.54,533.66,496.29,589.91,427.15,589.91z M427.15,374.89c-49.42,0-89.63,40.21-89.63,89.63      s40.21,89.63,89.63,89.63s89.63-40.21,89.63-89.63S476.57,374.89,427.15,374.89z"/>
			</g>
			<g>
				<path class="st26" d="M2037.01,1071.31c28.96,54.46,15.33,129.4,15.33,129.4c-27.23-49.5-97.57-63.86-101.97-64.67      c-0.05,0-0.15,0-0.2-0.05c0,0.05,0,0.15-0.05,0.2c-47.71,347.22-299.77,415.32-882.03,490.21      c-454.71,58.49-630.18-136.3-685.2-224.52c0-0.05-0.05-0.05-0.05-0.1c-14.71-23.5-20.79-39.39-21.35-40.92      c-0.05-0.05-0.05-0.1-0.05-0.1c-37.45,11.95-52.77,69.83-52.77,69.83c-44.29-90.27-13.64-151.57-13.64-151.57      c-66.41,8.53-95.38-39.13-95.38-39.13c114.12-52.82,107.28-137.93,107.28-137.93c-0.1-2.35-0.2-4.8-0.26-7.3      c-1.07-40.36,2.71-94.81,6.59-137.93c3.58-40,7.31-70.19,7.31-70.19c6.85-38.31,15.38-74.28,25.18-107.99      c59.62-205.57,165.57-327.51,223.29-381.81c0.05-0.05,0.05-0.05,0.05-0.05c24.37-22.89,40.1-33.77,40.1-33.77      c176.91-164.19,429.88-185.64,620.27-172.1c137.93,9.76,269.07,58.44,378.08,139.41c45.87,33.97,87.82,73.72,124.75,118.72      c0.51,0.56,0.97,1.18,1.48,1.79c78.98,96.81,158.72,227.79,206.33,395.91c34.53,122.04,166.38,142.78,166.38,142.78      C2089.42,1052.41,2037.01,1071.31,2037.01,1071.31z"/>
			</g>
			<g>
				<path class="st20" d="M652.5,1370.47c-32.44-1.94-66.97-9.35-103.34-21.61c-132.82-44.7-187.74,11.9-187.74,11.9      c-37.45,11.95-52.77,69.83-52.77,69.83c-44.29-90.27-13.64-151.57-13.64-151.57c-66.41,8.53-95.38-39.13-95.38-39.13      c114.12-52.82,107.28-137.93,107.28-137.93c-0.1-2.35-0.2-4.8-0.26-7.31c-1.07-40.36,2.71-94.81,6.59-137.93      c3.58-40,7.31-70.19,7.31-70.19c6.85-38.31,15.38-74.28,25.18-107.99c59.62-205.57,165.57-327.51,223.29-381.81      c0.05-0.05,0.05-0.05,0.05-0.05c13.79-7.41,21.35-11.6,21.35-11.6C350.95,942.02,432.68,1240.1,652.5,1370.47z"/>
			</g>
			<g>
				<g>
					<path class="st22" d="M522.61,1109.08c-148.46,49.96-227.6,169.94-227.6,169.94c-66.41,8.53-95.38-39.13-95.38-39.13       c114.12-52.82,107.28-137.93,107.28-137.93c-0.1-2.35-0.2-4.8-0.26-7.3c86.28-19.59,170.33-9.88,214.74-1.81       C529.91,1094.39,530.81,1106.32,522.61,1109.08z"/>
				</g>
				<g>
					<path class="st22" d="M513.74,910.19c-33.29,22-109.22,62.31-200.34,46.54c3.58-40,7.31-70.19,7.31-70.19       c6.85-38.31,15.38-74.28,25.18-107.99c0,0,35.6,98.43,164.32,116.31C517.91,895.92,520.22,905.9,513.74,910.19z"/>
				</g>
				<g>
					<path class="st22" d="M518.46,450.08c0,0-7.62,114.62,104.77,136.33c103.66,20.03,172.56,59.61,192.65,130.78       c1.95,6.9-5.23,12.9-11.71,9.82c-25.12-11.93-80.08-30.25-163.06-16.72c-117.5,19.16-188.21-50.83-225.65-106.51L518.46,450.08       z"/>
				</g>
				<g>
					<path class="st22" d="M1732.28,448.94c-26.36,60.23-79.79,131.85-188.76,139.46c-83.87,5.84-133.15,36.27-154.87,53.65       c-5.6,4.48-13.97,0.29-13.65-6.88c3.25-73.92,61.23-128.21,157.54-171.47c74.33-33.36,78.67-98.65,74.99-133.49       C1653.41,364.19,1695.35,403.94,1732.28,448.94z"/>
				</g>
				<g>
					<path class="st22" d="M769.05,257.83c0,0,16.38,144.72,83.43,241.16c4.69,6.74-1.88,15.56-9.62,12.82       c-48.16-17.06-152.04-63.85-203.03-162.93L769.05,257.83z"/>
				</g>
				<g>
					<path class="st22" d="M913.14,219.88c0,0,75.27,110.63,139.6,288.78c2.99,8.27,15.03,7.11,16.27-1.6       c8.31-57.95,23.54-183.96,21.66-318.75L913.14,219.88z"/>
				</g>
				<g>
					<path class="st22" d="M1281.92,196.45c0,0,20.3,111.11-22.19,246.59c-2.2,7.01,4.98,13.33,11.6,10.15       c33.53-16.13,109.82-67.08,172.23-213.95L1281.92,196.45z"/>
				</g>
				<g>
					<path class="st22" d="M1838.38,603.41c0,0-37.82,110.55-141.19,163.48c-7.57,3.88-5.14,15.32,3.35,15.85       c56.26,3.5,165.82,6.49,201.94-19.66L1838.38,603.41z"/>
				</g>
				<g>
					<path class="st22" d="M1980.39,920.11c0,0-155.43-88.71-258.43,44.08c-4.83,6.23,1,15.15,8.66,13.27       c32.02-7.85,91.74-13.72,142.92,30.4c74.07,63.86,136.84,69.02,174.42,58.13s58.53-76.58,58.53-76.58L1980.39,920.11z"/>
				</g>
			</g>
			<g class="st5">
				<path class="st23" d="M2106.48,989.42c-12.41,45.93-43.68,68.4-59.67,77.19c9.91-11.95,19.16-27.74,24.67-48.12      c0,0-131.8-20.74-166.33-142.78c-47.66-168.12-127.41-299.1-206.33-395.91c-0.51-0.61-1.02-1.23-1.53-1.79      c-36.93-45.01-78.88-84.75-124.75-118.72c-108.96-80.97-240.15-129.65-378.08-139.41c-176.09-12.52-405.82,4.9-579.36,137.62      c176.6-159.23,426.05-180.07,614.35-166.69c137.93,9.76,269.07,58.44,378.08,139.41c45.87,33.97,87.82,73.72,124.75,118.72      c0.51,0.56,0.97,1.18,1.48,1.79c78.98,96.81,158.72,227.79,206.33,395.91C1974.63,968.68,2106.48,989.42,2106.48,989.42z"/>
			</g>
			<g class="st5">
				<path class="st23" d="M590.42,377.65c8.09-6.96,16.29-13.72,24.68-20.14c-1.99,1.79-3.98,3.58-5.93,5.42      C609.18,362.92,602.2,367.74,590.42,377.65z"/>
			</g>
			<g class="st5">
				<path class="st23" d="M583.23,383.81c2.59-2.27,4.95-4.28,7.19-6.17C588.03,379.7,585.6,381.7,583.23,383.81z"/>
			</g>
			<g class="st5">
				<path class="st23" d="M2046.81,1066.61c-2.61,3.12-5.21,5.98-7.82,8.63c-0.61-1.33-1.28-2.66-1.99-3.93      C2037.01,1071.31,2040.84,1069.93,2046.81,1066.61z"/>
			</g>
			<g>
				<path class="st19" d="M1950.16,1135.99c0,0.05,0,0.15-0.05,0.2c-2.25,16.3-4.9,31.93-8.07,47.05      c-1.53,7.46-3.22,14.81-5.01,21.97c-1.84,7.31-3.78,14.46-5.82,21.51c-1.17,4.14-2.45,8.22-3.78,12.26      c-1.07,3.37-2.2,6.74-3.37,10.11c-1.94,5.72-3.98,11.29-6.13,16.81c-3.52,8.94-7.2,17.62-11.19,26.05      c-1.53,3.37-3.12,6.64-4.8,9.91c-4.5,8.94-9.25,17.62-14.3,26c-1.99,3.27-3.98,6.49-6.08,9.65c-0.1,0.2-0.2,0.41-0.36,0.61      c-2.3,3.58-4.65,7.05-7.05,10.47c-7.56,10.83-15.68,21.15-24.32,31.06c-2.55,2.91-5.16,5.77-7.76,8.58      c-26.46,28.4-57.78,52.98-94.3,74.53c-1.69,1.02-3.37,2.04-5.11,3.01c-16.96,9.81-35.04,18.95-54.25,27.59      c-4.34,1.94-8.74,3.83-13.23,5.77c-2.86,1.17-5.67,2.4-8.53,3.52c-5.77,2.4-11.65,4.7-17.57,6.95c-2.2,0.92-4.44,1.74-6.74,2.61      c-2.71,1.02-5.47,1.99-8.22,3.01c-11.44,4.19-23.29,8.22-35.45,12.11c-6.9,2.2-13.9,4.39-21,6.49c-2.55,0.77-5.11,1.53-7.71,2.3      c-3.58,1.02-7.2,2.09-10.83,3.12c-10.22,2.91-20.64,5.72-31.32,8.48c-7.51,1.94-15.12,3.83-22.84,5.72      c-13.79,3.37-27.99,6.64-42.5,9.81c-5.11,1.12-10.27,2.25-15.48,3.32c-50.88,10.78-106.1,20.59-165.87,29.99      c-7.15,1.07-14.41,2.2-21.71,3.32c-59.36,9.04-123.06,17.73-191.31,26.51c-454.71,58.49-630.18-136.29-685.2-224.52      c0-0.05-0.05-0.05-0.05-0.1c-12.82-24.47-20.69-39.64-21.35-40.92c-0.05-0.05-0.05-0.1-0.05-0.1s54.92-56.6,187.74-11.9      c36.37,12.26,70.91,19.67,103.34,21.61c86.03,5.26,157.24-27.64,208.27-109.42c70.24-112.69,217.11-263.39,397.19-219.97      c180.07,43.42,215.83,198.41,412.51,161.12C1867.15,1164.95,1850.55,1099.41,1950.16,1135.99z"/>
			</g>
			<g>
				<path class="st21" d="M1950.11,1136.19c-2.25,16.3-4.9,31.93-8.07,47.05c-1.53,7.46-3.22,14.76-5.01,21.97      c-1.84,7.31-3.78,14.46-5.82,21.51c-1.23,4.14-2.45,8.22-3.78,12.26c-1.07,3.37-2.2,6.74-3.37,10.11      c-1.94,5.72-3.98,11.29-6.13,16.81c-3.52,8.94-7.2,17.62-11.19,26.05c-1.53,3.37-3.17,6.64-4.8,9.91      c-4.5,8.94-9.25,17.62-14.3,26c-1.99,3.27-3.98,6.49-6.08,9.65c-0.1,0.2-0.2,0.41-0.36,0.61c-2.3,3.58-4.65,7.05-7.05,10.47      c-7.56,10.83-15.68,21.15-24.32,31.06c-2.55,2.91-5.16,5.77-7.76,8.58c-26.46,28.4-57.78,52.98-94.3,74.53      c-1.69,1.02-3.37,2.04-5.11,3.01c-16.96,9.81-35.04,18.95-54.25,27.59c-4.34,1.94-8.79,3.88-13.23,5.77      c-2.86,1.17-5.67,2.4-8.53,3.52c-5.77,2.4-11.6,4.7-17.57,6.95c-2.2,0.92-4.44,1.74-6.74,2.61c-2.71,1.02-5.47,1.99-8.22,3.01      c-11.44,4.19-23.29,8.22-35.45,12.11c-6.9,2.2-13.9,4.39-21,6.49c-2.55,0.77-5.11,1.53-7.71,2.3c-3.58,1.02-7.2,2.09-10.83,3.12      c-10.22,2.91-20.64,5.72-31.32,8.48c-7.51,1.94-15.12,3.83-22.84,5.72c-13.79,3.37-27.99,6.64-42.5,9.81      c-5.11,1.12-10.27,2.25-15.48,3.32c-50.88,10.78-106.1,20.59-165.87,29.99c-7.15,1.07-14.41,2.2-21.71,3.32      c-59.36,9.04-123.06,17.73-191.31,26.51c-454.71,58.49-630.18-136.29-685.2-224.52c0-0.05-0.05-0.05-0.05-0.1      c-14.71-23.5-20.79-39.39-21.35-40.92c-0.05-0.05-0.05-0.1-0.05-0.1s54.92-56.6,187.74-11.9      c36.37,12.26,70.91,19.67,103.34,21.61C980.37,1564.9,1615.45,1386.1,1950.11,1136.19z"/>
			</g>
			<g>
				<path class="st21" d="M1161.75,1181.61c-60.13,49.34-111.14,51.33-150.42-7.74c-8.51-12.8-28.42-7.16-28.42,8.22      c0,62.25,21.32,151.35,151.63,114.4v-36.13l40.83-51.99L1161.75,1181.61z"/>
			</g>
			<g>
				<path class="st21" d="M1175.37,1152.18c0,0,64.81,68.11,151.15,36.94c0,0-63.88,98.44-151.15,3.93l-6.81-26.25L1175.37,1152.18z      "/>
			</g>
			<g>
				<path class="st22" d="M908.41,1655.02c-347.2,0.01-491.64-164.99-540.71-243.68c-0.12-0.19-0.23-0.38-0.34-0.57      c-5.96-9.55-10.58-17.91-14.04-24.7c-15.16,13.92-24.78,39.22-27.39,49.1c-1.91,7.21-8.1,12.48-15.52,13.22      c-7.46,0.73-14.53-3.22-17.81-9.92c-30.46-62.09-28.1-112.09-22.06-140.81c-58.35-3.88-84.93-46.43-86.18-48.49      c-2.65-4.35-3.31-9.62-1.83-14.49s4.98-8.88,9.59-11.02c100.38-46.46,97.14-117.43,96.96-120.43c-0.14-2.97-0.24-5.56-0.3-8.2      c-0.89-33.78,1.34-80.88,6.66-139.92c3.56-39.83,7.33-70.47,7.37-70.78c0.04-0.32,0.09-0.64,0.14-0.95      c6.7-37.47,15.32-74.43,25.62-109.84c83.04-286.35,252.49-412.59,269.35-424.57c183.51-169.57,445.33-189.32,632.81-176      c141.05,9.98,275.04,59.39,387.47,142.89c47.29,35.01,90.25,75.88,127.69,121.46c0.43,0.5,0.85,1.01,1.28,1.53l0.32,0.4      c97.45,119.45,168,254.82,209.82,402.51c30.91,109.22,147.07,129.2,152,130c5,0.81,9.44,3.7,12.19,7.96      c2.75,4.26,3.58,9.48,2.25,14.37c-12.96,47.85-43.84,73.46-63.43,85.37c21.61,56.34,10.17,121.43,9.62,124.44      c-1.36,7.44-7.25,13.23-14.72,14.45c-7.51,1.24-14.9-2.4-18.54-9.03c-15.89-28.88-50.56-44.05-71.81-50.93      c-56.31,342.4-319.39,411.78-894.5,485.73C1012.02,1651.64,958.12,1655.02,908.41,1655.02z M398.34,1392.89      c52.78,84.33,223.04,272.94,667.46,215.78c299.12-38.46,499.07-73.92,635.94-141.33c139-68.46,208-168.28,230.71-333.78      c0.91-6.66,5.48-12.23,11.82-14.45c3.25-1.14,6.69-1.29,9.92-0.54c5.8,1.14,49.06,10.4,83.46,38.12      c-0.17-23.39-3.56-52.8-16.42-76.98c-2.44-4.58-2.76-9.99-0.9-14.83c1.86-4.81,5.7-8.59,10.54-10.36      c1.86-0.7,34.55-13.55,52.09-52.25c-41.15-11.66-131.07-48.34-160.06-150.77c-40.48-142.96-108.78-274-202.98-389.48l-0.62-0.75      c-0.21-0.23-0.64-0.75-0.84-0.99c-35.62-43.42-76.53-82.34-121.57-115.7c-106.96-79.44-234.45-126.45-368.7-135.94      c-180.76-12.85-432.71,5.76-606.85,167.38c-0.63,0.59-1.3,1.13-2.01,1.61c-1.72,1.19-174.6,123.74-256.43,405.89      c-9.91,34.06-18.21,69.61-24.67,105.67c-0.48,3.96-3.92,32.58-7.18,69.12c-5.12,56.86-7.37,103.84-6.53,135.86      c0.05,2.38,0.15,4.63,0.24,6.79c0.48,7.57,3.03,87.94-96.1,144.12c12.3,9.76,33.19,20.19,64.07,16.2      c6.56-0.84,13.03,2,16.86,7.38c3.82,5.39,4.37,12.44,1.41,18.35c-0.83,1.74-17.92,38.58-1.38,96.81      c10.24-16.67,25.27-33.37,46.36-40.1c5.43-1.73,11.37-0.77,15.99,2.6c2.45,1.79,4.36,4.14,5.62,6.8      c0.25,0.52,0.47,1.05,0.67,1.59c0.05,0.15,5.57,14.97,19.72,37.58C398.1,1392.49,398.22,1392.69,398.34,1392.89z       M1950.16,1135.99h0.05H1950.16z"/>
			</g>
			<g>
				
					<ellipse transform="matrix(0.9941 -0.1083 0.1083 0.9941 -105.8036 92.9587)" class="st22" cx="802.88" cy="1020.52" rx="123.01" ry="161.87"/>
			</g>
			<g>
				
					<ellipse transform="matrix(0.9877 -0.1561 0.1561 0.9877 -144.0041 142.6529)" class="st27" cx="836.18" cy="988.11" rx="46" ry="65.83"/>
			</g>
			<g class="st17">
				
					<ellipse transform="matrix(0.9115 -0.4114 0.4114 0.9115 -378.88 411.9024)" class="st27" cx="767.49" cy="1086.16" rx="37.63" ry="55.54"/>
			</g>
			<g>
				
					<ellipse transform="matrix(0.9963 -0.0862 0.0862 0.9963 -74.0442 128.5445)" class="st22" cx="1450.94" cy="921.37" rx="123.01" ry="161.87"/>
			</g>
			<g>
				
					<ellipse transform="matrix(0.9993 -0.0381 0.0381 0.9993 -33.105 54.4338)" class="st27" cx="1412" cy="896.02" rx="46" ry="65.83"/>
			</g>
			<g class="st17">
				
					<ellipse transform="matrix(0.2271 -0.9739 0.9739 0.2271 204.7232 2215.8027)" class="st27" cx="1498.37" cy="978.92" rx="55.54" ry="37.63"/>
			</g>
			<g>
				<path class="st22" d="M1240.18,1272.54c-16.4,45.72-72.18,56.3-105.64,16.55c-6.49-7.66-12.11-17.22-16.45-28.71l57.27-52      l69.47,25.54l-0.26,2.55C1245.6,1250.16,1243.86,1262.27,1240.18,1272.54z"/>
			</g>
			<g>
				<path class="st28" d="M1240.18,1272.54c-16.4,45.72-72.18,56.3-105.64,16.55C1150.58,1243.72,1206.21,1232.64,1240.18,1272.54z"/>
			</g>
			<g>
				<path class="st22" d="M1223.17,1065.53c-36.04-21.08-109.99-9.83-139.4,16.32c-10,8.9-10.26,24.51-0.41,33.58      c11.58,10.66,31.75,24.67,61.02,29.26c12.35,1.94,24.97-0.52,35.81-6.76c13.62-7.84,33.35-20.99,48.27-38.36      C1237.51,1089.04,1235.16,1072.54,1223.17,1065.53z"/>
			</g>
			<g>
				<path class="st22" d="M1014.93,1175.41c-0.51,40.6,20.4,72.4,63.49,72.13c32.28,0.21,70.07-18.18,82.18-47.79      c2.99-11.22,16.95-15.54,25.22-7.12c24.57,17.68,59.93,28.11,90.82,24.55c40.49-4.35,51.53-34.94,43.09-71.18      c-0.6-2.42,3.17-3.65,4.14-1.38c51.23,102.81-102.14,131.11-158.94,70.45c-0.07-0.02,25.22-7.13,25.2-7.14      c-14.94,59.94-96.15,81.15-146.47,53.78c-31.54-16.64-41.09-54.3-33.09-86.77C1011.18,1172.35,1014.93,1172.8,1014.93,1175.41      L1014.93,1175.41z"/>
			</g>
			<g>
				<path class="st22" d="M1175.36,1219.16c-7.18,0-13.59-5.07-15.02-12.38l-13.62-69.53c-1.63-8.31,3.78-16.36,12.09-17.99      c8.3-1.62,16.36,3.79,17.98,12.09l13.62,69.53c1.63,8.31-3.78,16.36-12.09,17.99      C1177.33,1219.06,1176.34,1219.16,1175.36,1219.16z"/>
			</g>
			<g>
				<path class="st22" d="M1184.24,1328.96c-30.21,0-63.57-18.39-80.47-63.18c-2.98-7.92,1.02-16.76,8.93-19.75      c7.94-3,16.76,1.01,19.75,8.93c14.34,38.03,41.75,46.59,60.88,42.37c18.32-4.04,38.72-22.11,35.93-59.73      c-0.62-8.44,5.71-15.79,14.15-16.42c8.52-0.65,15.8,5.71,16.42,14.15c3.96,53.49-27.23,84.71-59.89,91.92      C1194.88,1328.38,1189.61,1328.96,1184.24,1328.96z"/>
			</g>
			<g>
				<path class="st22" d="M1143.02,660.91c15.19-51.23,72.37-34.06,127.07-79.61c56.83-41.29,20.22-83.01,20.22-83.01      s-25.54,39.17-85.99,48.53C1151.37,555.03,1110.67,596.21,1143.02,660.91z"/>
			</g>
			<g>
				<path class="st22" d="M1042.4,678.9c-37.48-38.08-79.89,3.94-149.58-10.56c-69.57-9.75-56.86-63.78-56.86-63.78      s40.95,22.57,98.71,2.43C985.28,589.36,1040.56,606.58,1042.4,678.9z"/>
			</g>
			<g>
				<path class="st22" d="M1226.24,707.52c-28.31,22.74-79.9,72.76-80.17,135.56c-0.03,6.05-7.48,8.92-11.39,4.3      c-21.24-25.05-67.61-68.42-138.84-76.29c-7.84-0.87-10.67-10.73-4.65-15.83c19.31-16.34,60.14-35.62,126.29,4.42      c0,0,22.91-70.73,103.55-68.09C1229.24,691.86,1232.65,702.37,1226.24,707.52z"/>
			</g>
		</g>
		<g>
			<path class="st22" d="M1882.89,2050.42c-6.83,0-13.05-4.59-14.83-11.5c-2.11-8.2,2.82-16.56,11.01-18.67     c1.08-0.28,108.27-27.97,137.57-40.18c20.23-8.43,38.43-43.58,43.21-55.23c3.22-7.83,12.17-11.57,20-8.36     c7.83,3.22,11.57,12.17,8.36,20c-2.38,5.8-24.29,57.1-59.79,71.88c-31.3,13.05-137.21,40.41-141.7,41.56     C1885.44,2050.27,1884.15,2050.42,1882.89,2050.42z"/>
		</g>
		<g>
			<path class="st22" d="M2096.6,2199.52c39.78-9.13,80.73-23.3,112.84-49.06c33.79-26.41,52.32-66.59,57.46-109.44     c0.28-2.89,4.88-2.9,5.1,0.04c2.69,22.55,1.13,46.3-6.23,68.96c-22.7,69.65-95.03,113.82-165.75,119.96     C2080.65,2230.81,2077.62,2202.98,2096.6,2199.52L2096.6,2199.52z"/>
		</g>
		<g>
			<path class="st22" d="M2588.72,2006.58c-45.16,4.45-91.95,14.76-128.72,42.08c-63.43,46.5-62.11,128.17-27.84,192.95     c4.81,7.39,2.78,17.59-5.34,21.61c-3,1.51-6.28,1.88-9.34,1.28c-6.45-0.48-14.46-0.28-21.23,0.16     c-21.57,1.5-43.54,6.37-62.93,15.52c-25.96,11.89-46.81,32.1-59.18,57.78c-3.79,7.57-13,10.63-20.57,6.84     c-7.57-3.79-10.65-12.96-6.86-20.52c7.73-15.56,17.87-30.28,30.6-42.43c37.72-36.41,91.67-50.42,142.91-47.87     c0,0-14.67,22.89-14.67,22.89c-27.38-42.46-39.04-98.98-22.88-148.5c21.54-68.42,90.99-104.09,158.02-107.47     c16.12-1.04,32.16-0.75,48.02,0.59C2591.7,2001.88,2591.93,2006.19,2588.72,2006.58L2588.72,2006.58z"/>
		</g>
		<g>
			<path class="st22" d="M2322.7,2323.04c-17.05,9.14-32.4,24.25-38.73,42.58c-2.25,5.75-2.9,11.84-3.45,17.69     c-0.82,8.53-8.4,14.77-16.92,13.95c-8.52-0.82-14.77-8.4-13.95-16.92c2.17-9.67,7.28-18.79,12.89-26.63     c14.04-19.3,35.4-31.71,58.37-36.53C2324.48,2316.46,2326.05,2321.64,2322.7,2323.04L2322.7,2323.04z"/>
		</g>
		<g>
			<path class="st22" d="M2366.23,2351.57c-13.48,13.9-27.41,31.07-31.62,49.99c-1.07,5.56-0.7,10.52,0.78,14.07     c3.33,8.01-0.46,17.21-8.47,20.54c-10.69,4.7-22.67-4.43-21.82-15.85c-0.68-19.41,9.22-34.85,21.46-47.19     c10.81-10.84,22.88-19.28,36.11-26.57C2365.83,2344.85,2368.9,2349.19,2366.23,2351.57L2366.23,2351.57z"/>
		</g>
		<g>
			<path class="st22" d="M1816.15,2135.62c-13.59,14.12-25.68,30.81-33.01,48.91c-2.27,5.78-3.76,11.58-4.64,17.1     c-1.35,8.46-9.3,14.23-17.76,12.89c-8.46-1.35-14.23-9.3-12.89-17.76c5.48-16.84,18.31-30.35,29.67-41.14     c10.84-9.72,22.36-17.98,35.05-24.97C1815.69,2128.92,1818.78,2133.23,1816.15,2135.62L1816.15,2135.62z"/>
		</g>
		<g>
			<path class="st22" d="M1851.14,2187.23c-14.52,12.84-22.52,33.49-17.41,52.38c3.69,20.23-25.84,26.41-30.55,6.36     c-0.78-15.24,6.23-30.9,15.43-42.57c8-9.82,17.96-17.06,29.64-21.58c1.59-0.61,3.37,0.19,3.97,1.78     C1852.75,2184.96,1852.22,2186.39,1851.14,2187.23L1851.14,2187.23z"/>
		</g>
		<g>
			<path class="st22" d="M2732.31,2236.46c-7.94,0-14.66-6.13-15.27-14.18c-0.63-8.44,5.7-15.8,14.14-16.43     c8.12-0.63,199.3-18.14,193.03-233.47c-4.6-157.24,6.33-242.78,38.98-305.08c12.06-22.92,27.07-43.34,50.2-68.33     c40.21-43.44,62.14-94.28,57.24-132.68c-2.97-23.26-15.49-42.1-37.2-56.01c-66.82-42.78-148.53-2.37-175.5,32.27     c-23.81,30.61-50.28,69-66.06,121.67c-6.59,21.92-10.78,45.02-12.47,68.67c-1.93,27.52,1.37,61.03,4.88,96.5     c8.56,86.78,18.28,185.13-47.85,235.18c-6.75,5.11-16.36,3.78-21.47-2.97c-5.11-6.75-3.77-16.36,2.97-21.47     c52.44-39.68,44-125.11,35.84-207.73c-3.63-36.8-7.07-71.56-4.95-101.68c1.86-25.91,6.46-51.24,13.69-75.31     c17.23-57.5,45.68-98.84,71.24-131.69c31.19-40.06,129.74-94.61,216.22-39.26c29.3,18.77,46.96,45.72,51.07,77.94     c6.12,47.87-18.24,106.71-65.15,157.38c-21.2,22.9-34.82,41.37-45.55,61.76c-29.96,57.16-39.92,138.46-35.49,289.93     c7.14,244.96-219.09,264.76-221.37,264.93C2733.08,2236.45,2732.69,2236.46,2732.31,2236.46z"/>
		</g>
		<g>
			<path class="st22" d="M2776.89,1746.47c42.4-22.87,82.61-15.77,105.29-8.16c7.17,2.41,13.66-5.21,10.03-11.85     c-39.88-72.97-128.67-78.76-128.67-78.76L2776.89,1746.47z"/>
		</g>
		<g>
			<path class="st22" d="M2782,1832.56c0,0,64.3,14.05,107.29,41.66c5.58,3.58,4.96,11.93-1.09,14.64     c-25.75,11.53-85.16,34.76-136.09,29.6L2782,1832.56z"/>
		</g>
		<g>
			<path class="st22" d="M2736.73,1981.5c0,0,47.11,68.08,113.71,81.85c7.97,1.65,9,12.66,1.5,15.82     c-19.41,8.18-51.85,16.08-99.83,10.43L2736.73,1981.5z"/>
		</g>
		<g>
			<path class="st22" d="M2004.41,2297.1c16.79,31.79,27.49,72.88,7.58,106.06c-6.15,9.63-17.24,24.99-29.29,13.98     c-5.74-5.55-4.83-15.32,1.79-19.74c6.44-4.39,11.83-10.24,15.68-17.55c12.09-24.47,7.75-55.12-0.39-80.58     C1998.62,2296.38,2002.91,2294.32,2004.41,2297.1L2004.41,2297.1z"/>
		</g>
		<g>
			<path class="st22" d="M2095.47,2297.01c12.19,20.96,17.03,45.29,17.02,69.39c0.05,8.18-0.74,16.34-1.8,24.52     c-0.91,7.05-7.36,12.02-14.41,11.11c-8.18-0.95-13.4-9.8-10.34-17.42c10.21-26.81,13.61-57.52,5-85.25     C2089.7,2296.51,2093.85,2294.32,2095.47,2297.01L2095.47,2297.01z"/>
		</g>
		<g>
			<path class="st2" d="M2260.5,2091.48c-1.94,3.42-4.19,6.64-6.79,9.65L2260.5,2091.48z"/>
		</g>
		<g>
			<g>
				<path class="st16" d="M2141.36,562.35c-23.26-38.05-34.73-83.74-29.82-131.53c11.91-116,115.6-200.38,231.6-188.47      c116,11.91,200.38,115.6,188.47,231.6S2416,674.33,2300,662.42c-32.26-3.31-62.07-13.74-88.05-29.55l-97.71,21.91      L2141.36,562.35z"/>
			</g>
			<g class="st29">
				<g>
					<path class="st16" d="M2338.99,282.75c-108.36-11.13-205.95,61.78-228.05,165.99c-0.03-7.44,0.29-14.95,1.07-22.52       c11.91-116,115.6-200.38,231.6-188.47c116,11.91,200.38,115.6,188.47,231.6c-0.78,7.6-1.98,15.06-3.53,22.38       C2528.14,385.15,2447.38,293.88,2338.99,282.75z"/>
				</g>
			</g>
			<g>
				<path class="st22" d="M2322,681.43c-7.91,0-15.85-0.41-23.82-1.22c-31.72-3.26-61.69-12.79-89.19-28.34l-90.83,20.37      c-6.17,1.39-12.62-0.6-16.96-5.22c-4.33-4.62-5.89-11.18-4.11-17.26l24.94-85.01c-23.39-41.4-33.15-88.15-28.27-135.74      c6.25-60.85,35.82-115.63,83.27-154.24c47.45-38.61,107.13-56.43,167.94-50.19c60.85,6.25,115.63,35.82,154.24,83.27      c38.61,47.45,56.44,107.09,50.19,167.94c-6.25,60.85-35.82,115.63-83.27,154.24C2424.89,663.57,2374.44,681.43,2322,681.43z       M2211.95,614.99c3.25,0,6.47,0.89,9.29,2.6c24.62,14.98,51.74,24.08,80.59,27.04c51.38,5.26,101.68-9.77,141.72-42.35      c40.04-32.58,65-78.81,70.26-130.16c5.27-51.35-9.77-101.68-42.35-141.72s-78.81-64.99-130.16-70.27      c-51.37-5.27-101.68,9.77-141.72,42.35c-40.04,32.58-65,78.81-70.26,130.16c-4.36,42.41,5.08,84.04,27.29,120.38      c2.63,4.3,3.32,9.52,1.9,14.36l-18.57,63.32l68.1-15.27C2209.34,615.13,2210.64,614.99,2211.95,614.99z"/>
			</g>
			<g class="st3">
				<path class="st22" d="M2140.17,560.32c57.83,48.92,137.5,70.34,216.62,50.65c87.74-21.84,152.39-88.65,175.64-169.74      c0.56,10.75,0.31,21.68-0.83,32.72c-11.91,116-115.6,200.38-231.6,188.47c-32.26-3.31-62.07-13.74-88.05-29.55l-97.71,21.91      l27.11-92.43C2140.95,561.68,2140.57,560.99,2140.17,560.32z"/>
			</g>
			<g>
				<path class="st30" d="M2254.05,393.1L2254.05,393.1c18.27-18.27,47.9-15,66.17,3.27l2.84,2.84l2.84-2.84      c18.27-18.27,47.9-21.55,66.17-3.27v0c18.27,18.27,18.27,47.9,0,66.17l-2.84,2.84l-57.45,57.45c-4.82,4.82-12.63,4.82-17.44,0      l-57.45-57.45l-2.84-2.84C2235.78,440.99,2235.78,411.37,2254.05,393.1z"/>
			</g>
		</g>
	</g>
</g>
</svg>