<svg xmlns="http://www.w3.org/2000/svg" xmlns:xlink="http://www.w3.org/1999/xlink" version="1.1" id="Layer_1" x="0px" y="0px" style="enable-background:new 0 0 2719.02 2943.02;" xml:space="preserve" viewBox="0 -0.01 2719.01 2943.03">
<style type="text/css">
	.st0{fill:#000072;}
	.st1{fill:#FAA327;}
	.st2{fill:#F8F8F8;}
	.st3{fill:#EF7F25;}
	.st4{opacity:0.2;}
	.st5{fill:#B0B7E2;}
	.st6{fill:#9DA0C6;}
	.st7{opacity:0.3;}
	.st8{fill:#462B5B;}
	.st9{fill:#8A90B2;}
	.st10{opacity:0.55;}
	.st11{fill:#F7F7F7;}
	.st12{fill:#00A8FF;}
	.st13{fill:#F72F48;}
	.st14{fill:#E84118;}
	.st15{opacity:0.25;}
	.st16{opacity:0.6;}
	.st17{fill:#FF78A7;}
	.st18{fill:#F43737;}
	.st19{fill-rule:evenodd;clip-rule:evenodd;fill:#000072;}
	.st20{fill-rule:evenodd;clip-rule:evenodd;fill:#FFFFFF;}
	.st21{fill:#6B1A4E;}
	.st22{fill:#FFFFFF;}
	.st23{fill:#FFC840;}
	.st24{fill:#F23D3D;}
	.st25{opacity:0.46;}
	.st26{fill:#802C3F;}
	.st27{fill:#99544F;}
	.st28{fill:#6D6D9B;}
	.st29{fill:#606091;}
	.st30{fill:#000070;}
	.st31{fill:#BCC5DD;}
	.st32{fill:#BFBFDD;}
	.st33{fill:#484870;}
	.st34{fill:#B2385B;}
	.st35{fill:#932449;}
	.st36{opacity:0.29;}
	.st37{fill:#040456;}
	.st38{opacity:0.5;}
	.st39{fill:#FF0068;}
	.st40{fill:#5788EA;}
	.st41{fill:#F7BB9E;}
	.st42{fill:#4545A0;}
	.st43{fill:#3E3E8C;}
	.st44{fill:#585899;}
	.st45{fill:#7E7EC4;}
	.st46{fill:#E791FE;}
	.st47{fill:#AFAFC6;}
	.st48{fill:#F5F5F5;}
	.st49{fill:#A55EEA;}
	.st50{fill:#FF699D;}
	.st51{fill:#FF7B7B;}
	.st52{opacity:0.35;}
	.st53{fill:#222289;}
	.st54{fill:#8484B2;}
	.st55{fill:#992EED;}
	.st56{fill:#A8A8CC;}
	.st57{fill:#D6D6EA;}
	.st58{fill:#060656;}
	.st59{fill:#83C7FF;}
	.st60{fill:#EF2B2B;}
	.st61{fill:#F4CC25;}
	.st62{fill:#F2B620;}
	.st63{fill:#D8681D;}
	.st64{fill:#6853E0;}
	.st65{fill:#9681EF;}
	.st66{fill:#EF2043;}
	.st67{fill:#FFB54A;}
	.st68{fill:#650000;}
	.st69{fill:#711716;}
	.st70{fill:#FFC239;}
	.st71{fill:#EA2424;}
	.st72{opacity:0.4;}
	.st73{opacity:0.68;}
	.st74{fill:#48B2ED;}
	.st75{fill:#E89C21;}
	.st76{fill:#F1F2F2;}
	.st77{fill:#9ED0F2;}
	.st78{opacity:0.39;}
	.st79{fill:#8BC6F7;}
</style>
<g>
	<g>
		<g class="st73">
			<path class="st74" d="M1173.17,2648.75c-64.22,227.44-493.82,215.65-765.72,144.15c-287.33-87.14-406.99-408.69-197.99-660.9     c30.59,42.63,65.16,61.7,110,20c0,0,47.67-45.66,99.91,4.75c52.25,50.42,100.29,26.13,153.27-8.93l86.73-12.15     c0,0,52.41-1.83,101.91,37.58c49.5,39.42,155.32,69.66,223.86,0l280.29,203.49c0,0,9.36,94.63-10.9,127.52L1173.17,2648.75z"/>
		</g>
		<g>
			<g>
				<path class="st75" d="M651.26,2747.39c-6.44,14.63-16.88,27.11-31.51,37.29c-17.82-20.24-24.91-48.12-24.03-81.62      c0.22-10.18,1.15-20.84,2.8-32.01l59.73,18.48C660.83,2711.53,658.63,2730.83,651.26,2747.39z"/>
			</g>
			<g>
				<path class="st75" d="M940.28,2497.69c-3.13,3.96-5.94,8.14-8.58,12.43l-29.59,47.3l-201.51-180.67c0,0,25.74-23.48,61.82-46.86      c42.84-27.88,100.32-55.66,146.74-43.94c8.14,2.03,12.21,11.11,8.19,18.48l-11.22,20.46c-3.96,7.2-0.33,16.17,7.48,18.86      c36.3,12.32,51.42,30.3,23.98,59.78c-3.41,3.63-5.01,8.3-4.89,12.87h0.06c0.11,4.95,2.2,9.84,6.27,13.31      C959.8,2447.48,962.72,2469.53,940.28,2497.69z"/>
			</g>
			<g class="st16">
				<path class="st22" d="M903.15,2309.32c-46.42-11.72-103.89,16.06-146.74,43.94c-18.53,11.99-34.37,24.04-45.32,32.89l-10.5-9.4      c0,0,25.74-23.48,61.82-46.86c42.84-27.88,100.32-55.66,146.74-43.94c8.14,2.03,12.21,11.11,8.19,18.48l-6.05,11.05      C909.64,2312.57,906.78,2310.2,903.15,2309.32z"/>
			</g>
			<g class="st16">
				<path class="st22" d="M907.61,2367.13c-7.81-2.69-11.44-11.66-7.48-18.86l5.99-10.89c1.49,2.86,4.12,5.23,7.48,6.38      c32.39,11,47.96,26.51,31.4,50.71C941.82,2382.85,928.07,2374.11,907.61,2367.13z"/>
			</g>
			<g>
				<path class="st75" d="M800.03,2796.83c-48.23,5.12-85.19-10.39-114.29-40.2c-9.62-9.84-18.42-21.28-26.45-34.04l-12.54-27.66      l77.05-2.81c12.04,4.23,22.16,10.18,30.74,17.1C795.47,2741.99,800.03,2796.83,800.03,2796.83z"/>
			</g>
			<g>
				<path class="st0" d="M758.95,2855.28c-124.27,0-253.36-19.51-355.7-46.42c-0.2-0.05-0.4-0.11-0.59-0.17      c-146.15-44.32-257.73-151.64-298.47-287.07c-40.46-134.5-6.72-280.34,92.55-400.15c3.26-3.94,8.2-6.09,13.28-5.96      c5.11,0.18,9.85,2.71,12.83,6.87c16.48,22.97,31.38,34.82,45.55,36.24c11.81,1.15,25.2-5.12,39.8-18.71      c20.27-19.42,72.25-43.63,122.61,4.96c40.25,38.85,74.87,27.47,132.7-10.82c7.6-5.03,17.83-2.94,22.87,4.65      c5.03,7.6,2.94,17.84-4.65,22.87c-54.36,35.98-112.56,66.16-173.83,7.05c-39.2-37.84-73.35-8.14-77.12-4.63      c-21.95,20.42-43.98,29.64-65.65,27.47c-19.33-1.93-37.66-12.76-55.66-32.96c-82.24,107.93-109.12,235.76-73.67,353.62      c37.52,124.73,140.74,223.74,276.15,264.9c273.73,71.9,685.76,78.25,745.35-132.75c2.48-8.77,11.59-13.88,20.36-11.4      c8.77,2.48,13.87,11.59,11.39,20.36C1146.27,2804.74,958.89,2855.28,758.95,2855.28z"/>
			</g>
			<g class="st7">
				<path class="st8" d="M940.28,2497.69c-3.13,3.96-5.94,8.14-8.58,12.43l-29.59,47.3l-201.51-180.67c0,0,25.74-23.48,61.82-46.86      c89.48,160.65,170.27,86.51,170.27,86.51h0.06c0.11,4.95,2.2,9.84,6.27,13.31C959.8,2447.48,962.72,2469.53,940.28,2497.69z"/>
			</g>
			<g>
				<path class="st75" d="M1149.93,2575.68c0,0-14.68,137.5-157.68,83.38c0,0-9.84,56.59,48.62,76.12c0,0-41.8,35.91-83.43,11.39      c-4.89-2.92-9.84-6.65-14.68-11.39L918,2769.93c0,0-42.13-22.88-37.56-121.88c-123.47,55.82-231.38,62.97-317.62,2.31      c-111.37-90.75-57.75-209.87-57.75-209.87s1.04-10.45,6.65-23.87l0.11-0.22c10.72-25.41,37.89-61.27,105.54-57.09      c124.85,5.94,220.05,95.53,301.56,223.68c0,0,63.25-43.06,144.81-13.75C1063.75,2569.24,1116.93,2591.24,1149.93,2575.68z"/>
			</g>
			<g class="st16">
				<path class="st22" d="M1149.93,2575.68c0,0-1.54,14.52-8.53,32.28c-33.11,13.75-84.04-7.37-84.04-7.37      c-81.62-29.31-144.86,13.75-144.86,13.75c-81.51-128.09-176.66-217.68-301.56-223.62c-103.56-6.43-112.31,81.18-112.31,81.18      s-2.37,5.28-5.12,14.41c3.35-27.61,11.55-45.81,11.55-45.81s8.69-87.56,112.31-81.18c124.85,5.94,220.05,95.53,301.56,223.68      c0,0,63.25-43.06,144.81-13.75C1063.75,2569.24,1116.93,2591.24,1149.93,2575.68z"/>
			</g>
			<g>
				<path class="st0" d="M882.28,2231.69c-50.39,0-99.64-20.33-131.28-45.53c-43.77-34.85-90.67-34.01-91.13-34      c-9.2,0.21-16.68-6.9-16.97-15.98c-0.28-9.08,6.8-16.68,15.88-17c2.36-0.06,59.11-1.56,112.77,41.17      c45.93,36.57,141.84,62.3,201.82,1.33c6.4-6.49,16.84-6.58,23.33-0.19c6.49,6.39,6.58,16.84,0.19,23.33      C963.58,2218.7,922.56,2231.69,882.28,2231.69z"/>
			</g>
			<g>
				<path class="st8" d="M1254.51,2520.77c-2.95,0-5.94-0.8-8.64-2.46c-7.76-4.78-10.17-14.95-5.39-22.7      c12.61-20.47,11.92-82.78,8.53-117.25c-0.89-9.07,5.73-17.14,14.8-18.04c9.09-0.95,17.14,5.72,18.04,14.79      c1.02,10.25,9.26,101.23-13.27,137.8C1265.46,2517.99,1260.05,2520.77,1254.51,2520.77z"/>
			</g>
			<g>
				<path class="st76" d="M403.33,2346.5c-27.29,0-49.5-20.36-49.5-45.38c0-25.01,22.2-45.37,49.5-45.37s49.5,20.36,49.5,45.37      C452.82,2326.15,430.62,2346.5,403.33,2346.5z M403.33,2277.76c-15.16,0-27.5,10.48-27.5,23.37c0,12.89,12.34,23.37,27.5,23.37      s27.5-10.48,27.5-23.37C430.83,2288.24,418.49,2277.76,403.33,2277.76z"/>
			</g>
			<g>
				<path class="st76" d="M583.45,2297c-28.05,0-50.87-20.88-50.87-46.54s22.82-46.54,50.87-46.54s50.87,20.88,50.87,46.54      S611.5,2297,583.45,2297z M583.45,2225.92c-15.92,0-28.87,11.01-28.87,24.54s12.95,24.54,28.87,24.54s28.87-11.01,28.87-24.54      S599.37,2225.92,583.45,2225.92z"/>
			</g>
			<g>
				<path class="st76" d="M448.04,2451.51c-19.35,0-35.09-15.74-35.09-35.09c0-19.35,15.74-35.09,35.09-35.09      c19.35,0,35.09,15.74,35.09,35.09C483.13,2435.77,467.39,2451.51,448.04,2451.51z M448.04,2403.33      c-7.22,0-13.09,5.87-13.09,13.09s5.87,13.09,13.09,13.09c7.22,0,13.09-5.87,13.09-13.09S455.26,2403.33,448.04,2403.33z"/>
			</g>
			<g>
				<path class="st8" d="M918.01,2780.91c-1.78,0-3.57-0.43-5.23-1.33c-1.85-1.01-42.95-24.36-43.68-114.54      c-127.87,54.15-230.28,52.26-312.61-5.68c-0.21-0.15-0.42-0.3-0.62-0.47c-109.49-89.21-67.47-206.35-61.49-221.31      c2.13-13.46,19.35-95.7,123.66-89.22c113.5,5.39,210.49,75.32,304.46,219.85c21.71-11.39,77.18-33.7,144.99-9.31      c0.16,0.06,0.32,0.12,0.47,0.19c13.57,5.58,53.91,17.66,77.27,6.64c3.59-1.7,7.83-1.32,11.07,0.98s4.99,6.18,4.57,10.13      c-0.27,2.55-7.19,62.72-53.78,91.38c-27.61,16.99-62.63,19.03-104.24,6.14c1.35,15.27,8.9,39.48,41.49,50.37      c3.75,1.25,6.55,4.43,7.31,8.32c0.76,3.89-0.62,7.88-3.62,10.46c-19.15,16.46-63.53,37.19-103.25,7.82l-17.79,24.98      C924.85,2779.28,921.47,2780.91,918.01,2780.91z M880.44,2637.07c2.17,0,4.32,0.64,6.18,1.9c3.17,2.15,4.99,5.79,4.81,9.61      c-2.95,63.69,14.36,93.23,24.69,105.04l17.7-24.85c1.87-2.62,4.79-4.29,7.99-4.58c3.21-0.29,6.37,0.85,8.67,3.1      c24.42,23.92,51.13,17.49,67.56,9.44c-35.6-21.58-40.02-59.89-36.59-79.56c0.56-3.23,2.54-6.04,5.39-7.67      c2.84-1.62,6.27-1.9,9.34-0.73c41.24,15.59,74.64,15.84,99.28,0.76c23.91-14.64,35.03-41.06,39.95-58.33      c-33.48,4.89-71.59-10.08-75.57-11.69c-74.9-26.82-134.13,12.18-134.72,12.58c-2.46,1.66-5.5,2.25-8.41,1.66      c-2.9-0.61-5.45-2.35-7.05-4.86c-91.58-143.99-184.62-213.44-292.81-218.58c-92.1-5.61-100.51,68.13-100.82,71.28      c-0.12,1.18-0.43,2.34-0.92,3.43c-2.02,4.54-48.48,112.49,54.37,196.57c78.75,55.23,179,54.07,306.44-3.54      C877.35,2637.4,878.9,2637.07,880.44,2637.07z"/>
			</g>
			<g>
				<path class="st8" d="M880.45,2659.07c-0.82,0-1.66-0.09-2.5-0.29c-5.92-1.37-9.6-7.28-8.23-13.2      c12.92-55.64,42.89-71.71,44.16-72.36c5.39-2.79,12.03-0.67,14.82,4.72c2.77,5.36,0.71,11.93-4.6,14.76      c-1.16,0.65-22.6,13.23-32.96,57.86C889.97,2655.64,885.45,2659.07,880.45,2659.07z"/>
			</g>
			<g>
				<path class="st8" d="M518.84,2428.23c-0.4,2.26-0.62,5.76-0.59,8.74c-0.03,3.11,0.18,6.24,0.53,9.35      c0.73,6.22,2.25,12.33,4.64,18.11c2.3,5.85,5.84,11.11,10.19,15.77c4.23,4.87,9.88,8.29,15.73,11.54l0.27,0.15      c1.33,0.73,1.8,2.41,1.07,3.73c-0.64,1.16-2,1.67-3.22,1.28c-6.88-2.17-14.04-4.76-20.1-9.39c-6.15-4.38-11.75-9.95-15.95-16.41      c-4.31-6.4-7.64-13.45-10.04-20.78c-1.19-3.67-2.19-7.4-2.93-11.21c-0.78-3.93-1.34-7.39-1.55-12.08l-0.01-0.26      c-0.27-6.11,4.47-11.29,10.58-11.56s11.29,4.47,11.56,10.58C519.03,2426.61,518.97,2427.46,518.84,2428.23z"/>
			</g>
			<g>
				<path class="st8" d="M591.85,2442.35c5.17-6.05,12.52-10.12,20.83-11.77c8.25-1.64,18.03-0.48,26.33,4.86      c8.4,5.21,13.79,14.59,14.76,23.19c1.08,8.68-0.82,16.75-5.03,23.57c-0.89,1.44-2.77,1.88-4.21,0.99      c-0.53-0.33-0.93-0.79-1.17-1.32l-0.1-0.21c-3.24-7.01-5.23-13.02-7.85-17.8c-2.6-4.8-5.27-7.85-8.57-10.25      c-3.31-2.4-7.81-4.18-13.38-5.2c-5.58-1.04-11.9-1.22-19.19-1.15l-0.13,0c-1.65,0.02-3.01-1.31-3.02-2.96      C591.13,2443.57,591.4,2442.88,591.85,2442.35z"/>
			</g>
			<g>
				<path class="st8" d="M580.74,2658.99c-8.32,0-16.81-0.81-25.47-2.44c-5.97-1.13-9.9-6.88-8.77-12.85      c1.13-5.97,6.87-9.87,12.85-8.77c62.77,11.88,101.09-29.05,122.17-65.44c39.06-67.43,42.86-158.44,24.55-179.86      c-3.95-4.62-3.4-11.56,1.22-15.51c4.61-3.96,11.56-3.41,15.51,1.21c28.53,33.37,17.3,136.92-22.24,205.19      C670.85,2631.79,628.94,2658.98,580.74,2658.99z"/>
			</g>
			<g>
				<path class="st8" d="M902.1,2568.4c-1.99,0-4.01-0.54-5.82-1.67c-5.15-3.22-6.72-10-3.5-15.16l29.56-47.3      c3.36-5.38,6.32-9.64,9.33-13.42c22.11-27.75,12.51-42.24,0.21-52.75c-6.01-5.14-9.71-12.62-10.15-20.54      c-0.45-7.92,2.39-15.78,7.79-21.56c5.89-6.31,12.56-15.23,10.88-21.9c-0.99-3.94-6.25-11.78-30.35-19.96      c-6.85-2.33-12.28-7.52-14.89-14.23c-2.58-6.65-2.1-14.05,1.33-20.3l11.2-20.44c0.1-0.18,0.39-0.72,0.07-1.46      c-0.17-0.39-0.54-0.9-1.33-1.1c-78.73-19.9-197.25,87.19-198.44,88.28c-4.49,4.09-11.44,3.77-15.54-0.71      c-4.09-4.49-3.78-11.44,0.7-15.54c5.21-4.76,128.48-116.17,218.67-93.36c7.25,1.83,13.12,6.8,16.11,13.64      c2.95,6.76,2.6,14.36-0.94,20.83l-11.2,20.44c-0.31,0.57-0.35,1.16-0.12,1.76c0.15,0.38,0.53,1.05,1.46,1.37      c26.26,8.92,40.86,20.51,44.61,35.43c3.28,13.06-2.15,27.28-16.14,42.27c-1.34,1.44-2.02,3.33-1.91,5.31      c0.11,1.98,0.99,3.78,2.49,5.05c18.72,16,34.38,43.41,2.7,83.18c-2.47,3.1-4.97,6.71-7.88,11.36l-29.56,47.3      C909.35,2566.57,905.77,2568.4,902.1,2568.4z"/>
			</g>
			<g>
				<path class="st8" d="M619.72,2795.66c-3.07,0-6.11-1.28-8.27-3.74c-24.08-27.42-31.88-67.47-23.84-122.44      c0.88-6.02,6.46-10.16,12.48-9.29c6.01,0.88,10.17,6.46,9.29,12.48c-6.24,42.61-2.21,74.32,12.33,96.49      c21.23-18.66,29.63-44.4,25.63-78.35c-0.71-6.03,3.61-11.5,9.64-12.21c6.04-0.75,11.5,3.6,12.21,9.64      c5.44,46.21-9.09,81.69-43.19,105.44C624.1,2795.01,621.9,2795.66,619.72,2795.66z"/>
			</g>
			<g>
				<path class="st8" d="M781.8,2808.79c-54.6,0-97.86-26.44-131.81-80.38c-3.24-5.14-1.69-11.93,3.45-15.17      c5.14-3.23,11.94-1.68,15.17,3.45c30.59,48.61,69.48,71.6,118.68,69.98c-4.43-21.33-19.37-67.31-67.17-84.19      c-5.73-2.02-8.73-8.31-6.71-14.03c2.02-5.73,8.31-8.74,14.03-6.71c75.36,26.61,83.23,110.59,83.52,114.15      c0.5,5.96-3.85,11.23-9.8,11.86C794.56,2808.44,788.1,2808.79,781.8,2808.79z"/>
			</g>
			<g>
				<path class="st8" d="M707.91,2698.57c-11.95,0-23.72-5.41-31.51-15.62l-38.37-49.97c-3.7-4.82-2.79-11.72,2.03-15.42      c4.82-3.69,11.72-2.79,15.42,2.03l38.39,50c5.74,7.53,16.29,9.23,24,3.87c14.75-10.31,25.96-21.64,34.22-34.6      c2.56-4.01,3.16-8.75,1.68-13.35c-1.51-4.7-5-8.45-9.58-10.29l-60.62-24.37c-5.64-2.27-8.37-8.67-6.1-14.31s8.69-8.37,14.31-6.1      l60.61,24.37c10.67,4.27,18.82,13.01,22.34,23.97c3.46,10.79,1.98,22.43-4.08,31.91c-9.71,15.23-23.24,28.96-40.2,40.83      C723.55,2696.27,715.69,2698.57,707.91,2698.57z"/>
			</g>
			<g>
				<path class="st8" d="M789.35,2459.65c5.01,6.76,8.45,14.34,10.13,22.94c1.68,8.48,0.95,18.41-3.76,27.03      c-4.68,8.59-12.47,14.91-20.54,18.75c-4.04,1.92-8.21,3.11-12.35,4.44c-4.17,0.68-8.31,1.5-12.47,1.96l5.52-12.89l0.01,0.02      c4.84,7.31,8.34,14.4,11.14,22.5c2.65,7.98,4.41,16.85,3.03,26.33c-0.69,4.7-2.31,9.49-4.91,13.7c-2.58,4.23-6,7.79-9.71,10.66      c-7.55,5.57-15.87,8.57-23.96,10.44c-4.44,1.03-8.87-1.73-9.9-6.16c-1.03-4.44,1.73-8.87,6.17-9.9l0.05-0.01      c6.71-1.52,12.93-4,17.66-7.49c4.61-3.59,7.52-8.05,8.3-13.73c0.86-5.64-0.21-12.19-2.36-18.56c-2.12-6.3-5.46-12.94-9.03-18.31      l0-0.01c-2.82-2.88-2.77-7.5,0.11-10.32c0.82-0.8,1.77-1.37,2.79-1.71l2.62-0.86c3.41-1.13,6.85-1.89,10.26-2.8      c1.62-0.54,3.17-1.19,4.76-1.76c1.53-0.62,3.32-0.94,4.66-1.77c5.92-2.72,10.8-6.23,14.28-10.84      c3.48-4.61,5.22-10.77,5.47-17.63c0.18-6.79-0.82-14.32-2.79-21.37l-0.07-0.24c-0.41-1.47,0.45-3,1.92-3.41      C787.52,2458.32,788.69,2458.76,789.35,2459.65z"/>
			</g>
			<g>
				<path class="st8" d="M761.64,2586.43c-4.43,0-8.09-3.52-8.24-7.98c-0.15-4.56,3.42-8.37,7.97-8.52      c17.01-0.56,27.62-4.78,31.55-12.54c6.92-13.68-6.06-37.79-11.64-45.92c-2.58-3.75-1.63-8.89,2.12-11.47      c3.75-2.58,8.88-1.64,11.46,2.1c2.63,3.81,25.3,37.9,12.8,62.7c-6.84,13.57-22.23,20.84-45.74,21.62      C761.83,2586.43,761.73,2586.43,761.64,2586.43z"/>
			</g>
			<g>
				<path class="st8" d="M761.36,2653.02c-4.52,0-8.2-3.64-8.25-8.17c-0.05-4.56,3.61-8.29,8.17-8.33      c12.34-0.13,28.09-2.32,33.08-12.07c7.01-13.7-7.28-39.23-12.83-47.1c-2.63-3.72-1.75-8.87,1.97-11.49      c3.71-2.64,8.85-1.76,11.49,1.95c2.79,3.93,26.85,39.09,14.07,64.13c-7.01,13.74-23.03,20.83-47.61,21.08      C761.42,2653.02,761.39,2653.02,761.36,2653.02z"/>
			</g>
			<g>
				<path class="st8" d="M804.91,2537.74c-1.87,0-3.77-0.1-5.73-0.29c-4.53-0.45-7.84-4.49-7.39-9.03c0.45-4.53,4.45-7.85,9.03-7.39      c8.89,0.9,15.92-1.03,21.44-5.87c12.5-10.98,13.31-33.22,13.31-33.44c0.14-4.55,3.89-8.04,8.47-8.01      c4.55,0.13,8.13,3.9,8.02,8.44c-0.03,1.2-0.94,29.55-18.84,45.34C825.5,2534.3,816,2537.74,804.91,2537.74z"/>
			</g>
			<g>
				<path class="st8" d="M827.44,2573.38c-8.25,0-17.98-1.26-29.23-3.77c-4.45-0.99-7.25-5.41-6.25-9.85c1-4.45,5.4-7.26,9.85-6.25      c33.46,7.48,41.03,0.52,42.55-1.79c5.18-7.86-4.7-28.56-13.02-40.08c-2.66-3.69-1.83-8.85,1.86-11.52      c3.69-2.67,8.84-1.85,11.51,1.85c2.8,3.86,26.92,38.31,13.44,58.81C852.6,2569.19,842.47,2573.38,827.44,2573.38z"/>
			</g>
			<g class="st7">
				<path class="st8" d="M957.44,2746.56c-4.89-2.92-9.84-6.65-14.68-11.39L918,2769.93c0,0-42.13-22.88-37.56-121.88      c-123.47,55.82-231.38,62.97-317.62,2.31c-111.37-90.75-57.75-209.87-57.75-209.87s1.04-10.45,6.65-23.87l0.11-0.22      c0,0-5.89,164.33,154.55,192.27l82.06,39.38l140.08-25.24c0,0,28.43,79.47,57.14,105.05      C950.01,2731.77,954.14,2738.31,957.44,2746.56z"/>
			</g>
			<g class="st7">
				<path class="st8" d="M651.26,2747.39c-8.86-46.86-52.91-44.49-55.55-44.33c0.22-10.18,1.15-20.84,2.8-32.01l59.73,18.48      C660.83,2711.53,658.63,2730.83,651.26,2747.39z"/>
			</g>
			<g class="st7">
				<path class="st8" d="M754.55,2709.22c0,0-61.87-21.89-68.8,47.41c-9.62-9.84-18.42-21.28-26.45-34.04l-12.54-27.66l77.05-2.81      C735.85,2696.35,745.97,2702.29,754.55,2709.22z"/>
			</g>
		</g>
		<g>
			<path class="st47" d="M2537.16,2171.88c-67.37-5.22-121.77,4.62-166.04,26.07h-0.06c-57.53,27.88-98.12,75.35-128.15,134.86     c-12.65,25.08-22.16,51.64-29.48,78.76c-26.56,98.28-143.44,445.87-450.38,358.37l83.05-233.36l2.58-7.32     c71.22-21.23,115.99-88.33,138.54-194.14c11.05-51.92,26.78-102.74,49.33-150.75c64.95-138.6,150.26-224.45,241.22-271.69     c106.97-55.6,221.64-57.69,319.98-29.53c11.44,4.07,22.11,9.46,31.95,16h0.06C2735.64,1968.83,2742.68,2162.31,2537.16,2171.88z"/>
		</g>
		<g class="st16">
			<path class="st22" d="M2685.76,1963.22c-17.65-22.49-41.3-40.7-69.68-50.82c-98.34-28.16-213.01-26.07-319.98,29.53     c-90.97,47.24-176.27,133.1-241.22,271.69c-22.55,48.01-38.28,98.83-49.33,150.75c-22.55,105.82-67.32,172.91-138.54,194.14     l-77.55,217.96c-8.64-1.81-17.43-4.01-26.4-6.54l85.63-240.67c71.22-21.23,115.99-88.33,138.54-194.14     c11.05-51.92,26.78-102.74,49.33-150.75c64.95-138.6,150.26-224.45,241.22-271.69c106.97-55.6,221.64-57.69,319.98-29.53     C2637.58,1897.38,2668.22,1927.52,2685.76,1963.22z"/>
		</g>
		<g>
			<path class="st22" d="M2537.16,2171.88c-67.37-5.22-121.77,4.62-166.04,26.07h-0.06c90.97-209.05-93.28-285.22-93.28-285.22     s0,0,0-0.05c106.97-55.6,221.64-57.69,319.98-29.53C2732.51,1931.26,2761.82,2161.43,2537.16,2171.88z"/>
		</g>
		<g class="st15">
			<path class="st77" d="M1430.62,2387.12c-50.27,10.18-95.59,42.79-123.25,89.48c-26.56,44.82-74.63,145.03-45.92,244.19     c-119.18,89.7-300.35,126.72-538.82,109.83c-104.99-5.61-201.4-26.95-285.06-61.54c-147.45-60.94-255.36-163.02-300.95-292.43     c-62.42-177.2,2.69-374.81,173.96-528.26c26.4-17.6,27.33-47.57,26.4-60.44c48.62,33.44,123.91,57.97,224.94,73.04     c19.63,63.69,65.01,110.33,116.05,119.07c30.63,5.23,75.13-0.77,122.26-52.74c0,0,0.06-0.06,0.11-0.17     c6.54-7.15,13.09-15.18,19.63-24.2c0.16-0.22,0.33-0.44,0.38-0.71c2.8-8.14,5.72-16.28,8.64-24.31     c148.88-0.55,311.51-15.23,414.85-37.45c14.41-3.08,27.99-8.25,40.53-15.07l9.4,53.51c-21.94,11.44-44.71,21.23-68.14,29.2     c-30.14,10.12-60.5,21.34-88.16,37.89c-27.55,16.34-52.96,37.95-69.24,66.33c-7.59,14.46-12.59,30.3-13.75,46.64     c-0.94,16.44,2.36,32.78,8.3,47.9c5.83,15.23,15.12,28.87,25.68,41.08c10.45,12.43,23.1,22.71,36.3,31.95     c26.84,17.93,57.14,30.58,88.77,36.68c31.62,6.32,64.29,6.93,96.08,2.09c4.01-0.44,7.98-1.21,11.88-2.15l11.82-2.53     c3.96-0.71,7.75-1.98,11.6-3.08l11.6-3.46c15.18-5.06,30.14-10.5,45.04-16.28c10.39-4.01,20.68-8.25,30.91-12.54     C1434.25,2316.72,1433.59,2353.13,1430.62,2387.12z"/>
		</g>
		<g class="st78">
			<path class="st79" d="M500.84,1814.94c-13.2,29.2-24.31,59.4-33.11,90.42c-17.71-4.12-35.31-8.75-52.47-14.63     c-17.93-6.1-35.64-13.47-51.31-23.7c-3.19-2.15-6.33-4.46-9.24-6.93C381.71,1839.42,432.04,1823.85,500.84,1814.94z"/>
		</g>
		<g class="st78">
			<path class="st79" d="M1066.94,1898.59c-13.75,6.54-28.43,11.27-43.28,15.07c-15.89,4.07-32.12,7.15-48.4,9.84     c-63.8,9.9-128.64,12.54-193.26,12.27c19.47-41.8,40.15-79.2,62.42-112.58C943.63,1839.25,1022.22,1865.93,1066.94,1898.59z"/>
		</g>
		<g class="st78">
			<path class="st77" d="M1226.6,1962.23c-19.25,23.05-46.91,39.38-77.99,46.03c-102.52,22.05-263.72,36.63-411.72,37.34     c14.02-38.5,27.94-72.65,42.51-104.33c32.56,0.22,65.17-0.44,97.68-2.26c33.11-1.87,66.22-4.78,99.11-9.84     c16.39-2.53,32.78-5.78,48.89-9.96c16.11-4.23,32.12-9.35,47.24-16.99c0.27-0.17,0.6-0.39,0.94-0.55     c0.22-0.06,0.44-0.22,0.6-0.33c6.87-3.85,13.64-8.03,19.3-13.8c6.11-6,11.22-13.86,12.05-22.83c0.99-8.91-1.98-17.6-6.44-24.75     c-1.98-3.79-4.89-6.87-7.42-10.23c-2.69-3.19-5.72-6.11-8.58-9.13c-0.33-0.33-0.88-0.38-1.26-0.05     c-0.39,0.33-0.44,0.88-0.11,1.26l0.06,0.11c2.64,3.13,5.44,6.16,7.92,9.4c2.2,3.46,4.9,6.54,6.49,10.28     c4.02,6.93,6.27,14.96,5.06,22.6c-1.05,7.59-5.5,14.35-11.22,19.74c-4.95,4.9-11.05,8.53-17.27,11.88     c-56.7-42.84-152.35-65.83-224.61-77.66c21.67-31.9,44.77-60.11,69.57-84.97c125.67-8.64,281.81,56.65,321.69,134.53     C1255.86,1900.41,1251.62,1932.2,1226.6,1962.23z"/>
		</g>
		<g class="st78">
			<path class="st77" d="M374.95,1782.11c0.38-0.27,0.55-0.82,0.27-1.26c-0.27-0.38-0.83-0.55-1.27-0.27     c-8.14,5.11-16.11,10.61-23.15,17.32c-6.93,6.65-13.69,14.35-16.55,24.25c-3.35,9.73-0.93,21.23,4.95,29.42     c2.58,3.79,5.66,7.09,8.96,10.12v0.05c0.06,0,0.11,0.06,0.11,0.06c3.96,3.63,8.25,6.87,12.65,9.84     c16.39,10.67,34.37,18.04,52.52,24.26c17.32,5.99,34.98,10.61,52.74,14.79l-0.88,3.36c-10.18,36.9-9.73,76.34,0.88,114.34     c-134.91-20.51-222.91-57.64-261.46-110.49c-20.9-28.71-23.37-66.66-6.27-96.58c30.58-53.46,118.8-116.6,364.47-115     c-22.99,32.5-42.84,66.88-59.45,102.74c-72.1,9.02-124.85,25.35-152.9,47.3c-2.53-2.47-4.84-5.06-6.76-7.92     c-5.11-7.32-7.64-16.33-5.11-25.02c2.03-8.8,8.03-16.45,14.41-23.16C359.71,1793.49,367.19,1787.61,374.95,1782.11z"/>
		</g>
		<g>
			<path class="st22" d="M1579.03,2733.42c0,0.11-0.06,0.16-0.06,0.22c-12.21,56.48-44.11,104.39-86.95,137.99     c-1.1,0-1.98,0.77-2.36,1.82c-52.58,40.26-121.11,59.23-190.07,46.42c-35.09-6.54-66.66-25.63-88.82-53.79     c-18.2-23.04-30.08-47.08-37.4-71.17c0-0.5-0.11-0.94-0.39-1.38c-28.76-97.57,18.81-196.73,45.04-240.95     c29.48-49.72,79.47-83.1,133.76-89.21c6.65-0.77,13.25-1.15,19.91-1.15c59.07,0,118.03,29.31,160.93,80.85     C1579.74,2599.77,1597.56,2672.75,1579.03,2733.42z"/>
		</g>
		<g class="st4">
			<path class="st0" d="M1579.03,2733.42c0,0.11-0.06,0.16-0.06,0.22c-12.21,56.48-44.11,104.39-86.95,137.99     c-1.1,0-1.98,0.77-2.36,1.82c-52.58,40.26-121.11,59.23-190.07,46.42c-35.09-6.54-66.66-25.63-88.82-53.79     c-10.18-12.87-18.37-26.07-24.91-39.43c9.51,3.96,19.47,6.98,29.7,8.85c68.97,12.82,137.5-6.16,190.07-46.42     c0.39-1.04,1.26-1.81,2.36-1.81c42.84-33.6,74.74-81.51,86.95-137.99c0-0.05,0.06-0.11,0.06-0.22     c15.23-49.94,5.89-108.18-24.2-158.89c22.66,13.31,43.67,31.13,61.82,52.91C1579.74,2599.77,1597.56,2672.75,1579.03,2733.42z"/>
		</g>
		<g>
			<path class="st47" d="M1771.08,2762.51c-98.94,93.22-200.85,111.37-271.36,109.34c43.23-35.36,72.93-83.16,84.59-136.89     c6.44-21.17,8.64-43.72,6.82-66.6c-3.57-44.6-22.33-90.42-54.34-128.81c-41.85-50.32-98.72-79.91-156.53-82.55     c5.88-8.8,12.37-17.32,19.19-25.57c3.8-4.78,8.03-9.29,11.99-13.91l12.7-13.36c17.38-17.38,36.74-32.67,57.2-46.2     c10.07-7.04,21.06-12.59,31.84-18.54c5.55-2.64,11.22-5.06,16.83-7.54c2.8-1.21,5.55-2.58,8.47-3.68l8.74-2.91     c14.19-5.45,28.93-9.02,43.89-11.66c9.35-1.71,18.75-3.03,28.16-4.23h0.05c0.22-0.06,0.38-0.28,0.38-0.5     c-0.06-0.28-0.27-0.44-0.49-0.44c-13.53,1.15-27.17,2.64-40.59,5.11c-11.05,2.09-21.89,4.78-32.5,8.58l-8.91,2.8     c-2.91,0.99-5.72,2.31-8.63,3.46c-5.72,2.42-11.55,4.73-17.21,7.26c-11.05,5.72-22.33,11.11-32.72,18.04     c-2.15,1.32-4.23,2.64-6.32,4.07c-18.81,12.21-36.24,26.56-52.25,42.29c-12.92,12.87-25.08,26.51-35.86,41.3     c-3.63,5-7.15,10.18-10.45,15.45c-7.53-0.11-15.07,0.22-22.6,1.04c-3.03,0.33-6.05,0.82-9.08,1.32     c2.86-32.78,3.52-67.87,1.98-104.39c-0.06-1.76-0.17-3.52-0.22-5.28c17.32-7.43,34.54-15.23,51.42-23.65     c28.54-14.3,56.21-30.41,82.83-48.12c53.18-35.42,101.69-78.1,141.51-128.04c0.16-0.22,0.11-0.5-0.06-0.66     c-0.22-0.17-0.49-0.11-0.66,0.05c-41.25,48.56-89.87,90.47-143.16,125.01c-26.67,17.33-54.39,32.95-82.94,46.86     c-25.19,12.48-50.98,23.81-77.22,34.1c-3.35,1.38-6.76,2.64-10.12,3.96c-29.75,11.27-59.51,22.66-90.8,27.06     c-31.18,4.68-63.14,4.07-94.05-2.03c-30.91-5.89-60.61-18.26-86.73-35.64c-9.41-6.6-18.48-13.7-26.67-21.78     c-3.03-2.92-5.89-6-8.58-9.19c-10.23-11.77-19.25-24.91-24.8-39.49c-3.24-8.36-5.72-17.1-6.98-26.01     c-0.99-6.43-1.32-12.98-0.93-19.47c1.1-15.51,5.88-30.52,13.03-44.27c15.62-27.17,40.26-48.29,67.26-64.29     c27.22-16.22,56.98-27.28,87.17-37.4c20.18-6.87,39.87-15.12,58.96-24.58c3.85-1.87,7.64-3.79,11.39-5.78     c0.28-0.11,0.55-0.22,0.77-0.38c5.44-2.92,10.89-5.78,16.28-8.91c4.4-2.58,8.8-5.28,13.14-8.03     c49.99-30.96,96.69-67.81,135.19-112.64c23.26-26.84,43.17-56.65,58.96-88.55c3.9-7.81,7.53-15.79,10.94-23.81     c0,0,0-0.05,0.06-0.11c4.51-10.78,8.58-21.78,12.15-32.89c0-0.05,0.06-0.16,0.06-0.22c2.47-7.64,4.67-15.34,6.65-23.15     c0.33-1.32-0.33-2.64-1.48-3.13c-0.17-0.11-0.33-0.17-0.49-0.22c-1.48-0.39-2.97,0.49-3.35,1.98     c-7.04,27.55-17.11,54.28-29.75,79.69c-9.07,18.26-19.52,35.75-31.18,52.47c-0.11,0.17-0.22,0.33-0.38,0.5     c-8.14,11.77-16.94,23.04-26.34,33.88c-34.76,40.42-76.34,74.47-121.05,103.45c-5.83,3.79-11.66,7.48-17.6,11.05     c-2.75,1.71-5.5,3.35-8.25,5c-4.34,2.47-8.8,4.79-13.2,7.15l-1.98-11.11l-7.48-42.4c13.53-8.03,25.57-18.2,35.42-30.03     c26.23-31.46,30.8-66.16,13.2-100.54c-40.7-79.42-191.23-143.82-319.54-137.88c-2.64,0.06-5.28,0.22-7.92,0.39     c-0.17,0.06-0.39,0.06-0.55,0.06c-0.66,0.06-1.26,0.33-1.7,0.82c-26.29,26.18-50.6,56.04-73.37,89.98     c-0.06,0.11-0.11,0.17-0.17,0.28c-17.16,25.57-33.38,53.4-48.84,83.82c-5.67,11.22-11.22,22.77-16.72,34.7     c-15.4,33.27-30.03,69.24-44.77,110c0,0.06,0,0.06,0,0.11c-3.08,8.53-6.21,17.11-9.18,25.8     c-52.47,71.88-103.12,80.19-136.4,74.52c-42.79-7.26-81.56-42.62-103.34-92.56c-3.41-7.76-6.38-15.84-8.91-24.26     c-11.5-38.33-12.21-78.26-1.98-115.5l1.65-6.1c0,0,0-0.06,0.06-0.06c0-0.06,0-0.06,0-0.06s0,0,0-0.06     c11.66-41.69,27.33-81.89,46.91-120.17c14.79-28.98,31.79-56.87,50.93-83.49c0.11-0.11,0.22-0.22,0.33-0.38     c69.9-97.29,171.27-181.94,301.23-251.62l189.25,67.92l35.36,12.7l358.86,128.81l333.95,119.84     c-9.57,16.88-53.84,105.49-34.21,272.52c5.66,48.01,20.73,108.24,36.63,172.03C1838.02,2413.38,1895.82,2644.92,1771.08,2762.51z     "/>
		</g>
		<g class="st16">
			<path class="st22" d="M1789.12,1782.82c-0.93,1.65-2.2,3.96-3.68,6.98l-297.16-106.64l-358.86-128.81l-224.61-80.63     c-129.96,69.68-231.32,154.33-301.23,251.62c-0.11,0.16-0.22,0.27-0.33,0.38c-19.14,26.62-36.13,54.5-50.93,83.49     c-19.58,38.28-35.25,78.48-46.91,120.17c0,0.06,0,0.06,0,0.06s0,0,0,0.06c-0.06,0-0.06,0.06-0.06,0.06l-1.65,6.11     c-10.23,37.23-9.51,77.16,1.98,115.5c11.27,37.62,31.73,69.19,56.98,90.25c-40.09-16.39-74.19-57.42-90.09-110.44     c-11.5-38.33-12.21-78.26-1.98-115.5l1.65-6.1c0,0,0-0.06,0.06-0.06c0-0.06,0-0.06,0-0.06s0,0,0-0.06     c11.66-41.69,27.33-81.89,46.91-120.17c14.79-28.98,31.79-56.87,50.93-83.49c0.11-0.11,0.22-0.22,0.33-0.38     c69.9-97.29,171.27-181.94,301.23-251.62l224.61,80.63l358.86,128.81L1789.12,1782.82z"/>
		</g>
		<g>
			<path class="st22" d="M1561.57,2318.8c10.15-46.95-19.38-91.37-19.38-91.37L1344.25,2359l-2.15,100.2l37-8.19     C1423.65,2388.35,1484.25,2344.03,1561.57,2318.8z"/>
		</g>
		<g>
			<path class="st22" d="M1315.59,2355.08c-3.35,1.38-6.76,2.64-10.12,3.96c-29.75,11.27-59.51,22.66-90.8,27.06     c-31.18,4.68-63.14,4.07-94.05-2.03c-30.91-5.89-60.61-18.26-86.73-35.64c-12.81-9.02-25.13-18.98-35.25-30.96     c-10.23-11.77-19.25-24.91-24.8-39.49c-5.66-14.41-8.8-29.98-7.92-45.48c1.1-15.51,5.88-30.52,13.03-44.27     c15.62-27.17,40.26-48.29,67.26-64.29c27.22-16.22,56.98-27.28,87.17-37.4c20.18-6.87,39.87-15.12,58.96-24.58     c3.85-1.87,7.64-3.79,11.39-5.78c0.28-0.11,0.55-0.22,0.77-0.38c5.44-2.92,10.89-5.78,16.28-8.91c4.4-2.58,8.8-5.28,13.14-8.03     C1253.11,2055.34,1396.98,2186.9,1315.59,2355.08z"/>
		</g>
		<g>
			<path class="st22" d="M1456.44,1754.33c-0.11,0.88-0.22,1.81-0.33,2.75c-1.04,7.86-2.69,15.67-4.84,23.54     c0,0.06-0.06,0.17-0.06,0.22c-3.08,11-7.21,22-12.15,32.89c-0.06,0.06-0.06,0.11-0.06,0.11c-11.77,25.63-28.32,50.65-47.35,74.41     c-0.11,0.17-0.22,0.33-0.38,0.5c-45.59,56.76-105.32,105.98-147.4,137.33c-8.53,5.55-17.16,10.89-25.85,16.06     c-4.34,2.47-8.8,4.79-13.2,7.15l-9.46-53.51c13.53-8.03,25.57-18.2,35.42-30.03c26.23-31.46,30.8-66.16,13.2-100.54     c-41.52-81.07-197.5-146.46-327.46-137.5c11.33-100.32,97.13-174.45,97.13-174.45l82.66-19.08l114.12-26.4     c5.5,5.5,179.68,53.18,183.31,58.68c2.75,4.12,47.41,23.59,61.43,96.52C1459.85,1687.12,1461.11,1717.1,1456.44,1754.33z"/>
		</g>
		<g>
			<path class="st22" d="M791.89,1902.66c-5.67,11.22-11.22,22.77-16.72,34.7c-15.4,33.27-30.03,69.24-44.77,110     c0,0.06,0,0.06,0,0.11c-3.08,8.53-6.21,17.11-9.18,25.8c-52.47,71.88-103.12,80.19-136.4,74.52     c-49.44-8.42-93.5-54.28-112.25-116.82c-11.5-38.33-12.21-78.26-1.98-115.5l1.65-6.1c0,0,0-0.06,0.06-0.06c0-0.06,0-0.06,0-0.06     s0,0,0-0.06c11.66-41.69,27.33-81.89,46.91-120.17C544.67,1782.27,695.75,1749.77,791.89,1902.66z"/>
		</g>
		<g>
			<path class="st0" d="M1509.98,2891.26c-6.42,0-12.6-0.16-18.56-0.46c-9.1-0.45-16.11-8.2-15.66-17.3     c0.45-9.1,8.29-16.13,17.3-15.66c67.91,3.39,169.66-12.15,268.58-105.36c118.9-112.07,62.17-339.24,16.58-521.77     c-16.04-64.23-31.19-124.89-36.94-173.77c-22.45-190.81,35.68-280.98,38.17-284.73c5.04-7.59,15.29-9.66,22.87-4.62     c7.59,5.04,9.66,15.28,4.62,22.87c-0.5,0.77-53.78,85.09-32.89,262.62c5.51,46.79,20.41,106.46,36.18,169.63     c47.68,190.89,107.01,428.46-25.96,553.78C1685.5,2869.56,1583.54,2891.26,1509.98,2891.26z"/>
		</g>
		<g>
			<path class="st0" d="M1342.22,2943.02c-15.39,0-30.82-1.41-46.14-4.26c-39.69-7.38-75.37-28.96-100.45-60.76     c-99.4-126.04-29.04-276.44,5.83-335.24c32.53-54.87,87.92-91.71,148.17-98.54c71.99-8.13,145.91,24.19,197.76,86.53     c51.88,62.38,70.65,139.95,50.27,207.65c-14.28,65.05-53.51,121.82-110.53,159.92     C1443.12,2927.73,1392.93,2943.02,1342.22,2943.02z M1371.71,2475.98c-6.13,0-12.26,0.34-18.36,1.04     c-50.04,5.67-96.21,36.54-123.5,82.57c-31.39,52.95-95.04,187.99-8.3,297.99c20.12,25.52,48.74,42.83,80.57,48.75     c117.45,21.84,238.07-58.57,263.43-175.58c0.1-0.44,0.21-0.88,0.34-1.32c17.19-56.33,0.37-124.38-43.88-177.57     C1481.78,2503.48,1426.7,2475.98,1371.71,2475.98z"/>
		</g>
		<g>
			<path class="st0" d="M1361.07,2451.11c3.5-6.56,6.8-11.75,10.52-17.3c3.75-5.36,7.51-10.69,11.63-15.72     c8.08-10.2,16.88-19.76,26.16-28.85c18.73-17.98,39.62-33.79,62.21-46.59c22.51-12.92,46.73-22.82,71.68-29.12     c24.94-6.3,50.65-8.81,75.79-7.35c1.53,0.09,2.7,1.4,2.61,2.93c-0.07,1.27-1,2.29-2.19,2.55l-0.05,0.01     c-24.21,5.16-47.52,12.04-69.46,21.71c-11.02,4.69-21.56,10.3-31.94,16.01c-10.26,5.98-20.18,12.45-29.83,19.25     c-19.06,13.97-36.88,29.45-53.34,46.31c-8.3,8.35-16.19,17.11-23.85,26.02c-3.79,4.49-7.6,8.96-11.19,13.56     c-1.85,2.26-3.65,4.56-5.39,6.85l-4.97,6.54l-0.71,0.94c-5.52,7.25-15.86,8.66-23.12,3.14     C1359.11,2467.03,1357.32,2458.13,1361.07,2451.11z"/>
		</g>
		<g>
			<path class="st0" d="M1424.1,2809.11c16.5-75.1-82.32-153.22-147.07-113.43c-17.89,10.99-27.55,31.12-26.15,52.07     c5.67,85.02,89.16,127.23,145.54,97.79C1410.56,2838.16,1420.68,2824.7,1424.1,2809.11z"/>
		</g>
		<g>
			
				<ellipse transform="matrix(0.4234 -0.9059 0.9059 0.4234 -1582.9205 2678.8132)" class="st0" cx="1313.09" cy="2582.99" rx="42.17" ry="35.75"/>
		</g>
		<g>
			
				<ellipse transform="matrix(0.6478 -0.7618 0.7618 0.6478 -1477.0028 1996.9399)" class="st0" cx="1421.16" cy="2595.83" rx="42.17" ry="35.75"/>
		</g>
		<g>
			
				<ellipse transform="matrix(0.7873 -0.6165 0.6165 0.7873 -1335.6141 1490.2001)" class="st0" cx="1492.24" cy="2681.07" rx="42.17" ry="35.75"/>
		</g>
		<g>
			<path class="st0" d="M1471.22,1760.89c-8.27,32.03-20.25,63.22-35.75,92.53c-15.48,29.33-34.44,56.75-55.97,81.76     c-21.52,25.04-45.55,47.7-71.12,68.16c-25.65,20.52-52.5,38.67-80.8,55.47c-28.55,16.47-58.7,30.09-89.85,40.73l-22.43,7.56     c-7.19,2.7-14.42,5.33-21.44,8.35c-14.1,5.92-27.79,12.58-40.7,20.24c-25.65,15.27-48.83,34.84-62.19,59.12     c-3.22,6.07-5.99,12.31-7.92,18.76c-1.86,6.46-3.04,13.05-3.47,19.71c-0.67,13.31,1.58,26.87,6.89,39.6     c10.43,25.65,31.05,47.64,55.25,63.95c24.28,16.48,52.59,27.4,81.73,33.04c29.2,5.67,59.43,6.02,88.92,1.52     c14.75-2.27,29.34-5.79,43.55-10.46c14.46-5.02,29.59-10.16,44.15-15.75c58.71-22.09,115.74-48.35,169.14-80.92     c53.5-32.42,103.04-71.35,147.89-116.6c1.07-1.09,2.82-1.1,3.91-0.03c0.96,0.95,1.08,2.44,0.35,3.52     c-36.17,53.26-83.81,98.96-136.79,136.47c-26.45,18.9-54.48,35.52-83.21,50.61c-28.88,14.79-58.41,28.25-88.56,40.01     c-15.12,5.99-30.02,11.55-45.72,16.79c-16.08,5.23-32.57,9.16-49.32,11.69c-33.48,5.11-67.96,4.49-101.22-2.6     c-33.26-6.92-65.41-19.96-93.83-39.4c-28.19-19.41-53.33-45.76-66.9-79.52c-6.82-16.72-10.18-35.32-9.17-53.83     c0.58-9.25,2.22-18.41,4.79-27.25c2.64-8.83,6.34-17.22,10.61-25.21c8.81-15.81,20.24-29.63,33.04-41.3     c12.77-11.76,26.73-21.69,41.21-30.3c14.5-8.61,29.53-15.9,44.81-22.31c7.62-3.27,15.37-6.1,23.1-8.99l22.86-7.71     c29.15-9.96,57.35-22.7,84.01-38.08c53.27-31.6,103.37-69.94,143.39-116.56c40.2-46.45,69.63-101.61,84.8-161.06     c2.25-8.83,11.24-14.16,20.07-11.91s14.16,11.24,11.91,20.07l-0.01,0.04L1471.22,1760.89z"/>
		</g>
		<g>
			<path class="st0" d="M469.95,2048.25c-0.8,0-1.62-0.06-2.44-0.18c-142.59-21.12-236.23-61.1-278.32-118.86     c-25.39-34.82-28.31-80.92-7.43-117.46c33.32-58.32,127.38-127.34,386.56-124.68c9.08,0.09,16.41,7.5,16.36,16.58     s-7.39,16.42-16.47,16.42h-0.05c-256-2.7-334.05,66.6-357.74,108.06c-14.44,25.26-12.3,57.31,5.44,81.65     c36.17,49.63,124.86,86.16,256.49,105.65c9.01,1.34,15.24,9.73,13.9,18.74C485.04,2042.36,477.99,2048.24,469.95,2048.25z"/>
		</g>
		<g>
			<path class="st0" d="M601.58,2168.47c-6.66,0-13.33-0.56-19.99-1.7c-56.59-9.66-106.63-60.8-127.46-130.28     c-12.56-41.75-13.28-85.36-2.09-126.09l1.64-6.05c21.16-75.83,55.16-146.58,101.09-210.41c0.24-0.33,0.48-0.64,0.74-0.95     c71.84-99.56,175.52-186.03,308.18-257.01c8.04-4.29,18.03-1.27,22.33,6.77c4.3,8.03,1.27,18.03-6.77,22.33     c-128.61,68.81-228.75,152.29-297.65,248.13c-0.23,0.33-0.48,0.64-0.73,0.94c-43.32,60.43-75.41,127.36-95.39,198.95l-1.61,5.97     c-9.57,34.82-8.92,72.12,1.85,107.93c17.27,57.59,57.07,99.68,101.41,107.25c41.76,7.15,83.82-16.19,121.77-67.46     c2.76-7.96,5.59-15.87,8.43-23.7c0.08-0.24,0.16-0.47,0.25-0.7c14.81-41.01,29.56-77.27,45.07-110.79     c40.86-88.67,87.27-158.27,141.86-212.75c2.81-2.8,6.53-4.5,10.49-4.78c134.81-9.56,297.47,59.47,341.22,144.9     c20.29,39.62,15.15,79.59-14.88,115.59c-21.99,26.35-53.49,45.01-88.69,52.53c-101.94,21.91-260.95,36.55-408.06,37.7     c-1.79,5.01-3.57,10.05-5.31,15.11c-0.53,1.55-1.3,3.02-2.27,4.35C697.03,2139.18,649.58,2168.47,601.58,2168.47z M923.48,1746.6     c-49.9,51.04-92.75,116.15-130.85,198.82c-12.3,26.59-24.12,54.97-35.91,86.24c169.84-2.1,314.58-20.84,389.02-36.85     c28.04-5.99,52.99-20.7,70.27-41.41c21.48-25.75,25.03-51.73,10.85-79.41C1189.65,1801.33,1043.62,1740.49,923.48,1746.6z"/>
		</g>
		<g>
			<path class="st0" d="M1086.02,1817.39c7.41,4.77,14.16,10.77,20.1,18.41c2.81,3.95,5.49,8.24,7.39,13.34     c1.87,5.07,2.9,10.87,2.63,16.87c-0.21,6-1.94,11.99-4.55,17.17c-2.58,5.24-5.92,9.73-9.48,13.59     c-7.25,7.68-15.32,13.21-23.45,17.74c-16.34,8.98-33.05,14.69-49.82,19.11c-16.76,4.45-33.61,7.32-50.41,9.72     c-33.61,4.64-67.09,7.48-100.57,9.43c-33.47,1.87-66.93,2.54-100.39,2.24c-9.11-0.08-16.43-7.53-16.35-16.65     c0.08-9.11,7.53-16.43,16.65-16.35h0.01c32.78,0.29,65.58-0.37,98.24-2.19c32.64-1.79,65.22-4.93,97.05-10.5     c15.9-2.8,31.61-6.15,46.93-9.96c15.24-3.93,30.3-8.3,43.52-14.35c13.18-6.04,24.32-13.69,26.68-22.14     c1.45-4.36,1-10.57-1.5-17.21c-2.34-6.72-6.29-13.54-10.51-20.53l-0.06-0.1c-1.61-2.66-0.75-6.12,1.91-7.73     C1081.96,1816.16,1084.27,1816.27,1086.02,1817.39z"/>
		</g>
		<g>
			<path class="st0" d="M465.96,1924.75c-19.07-4.39-38.09-9.33-56.94-15.82c-18.84-6.47-37.6-14.09-55.72-25.86     c-9.01-6.08-17.88-13.08-25.7-23.66c-7.87-10.35-9.82-27.96-4.58-40.38c4.77-12.84,13.56-20.66,21.85-27.16     c8.47-6.43,17.48-11.12,26.56-15.15c2.81-1.25,6.1,0.02,7.35,2.83c0.98,2.2,0.41,4.7-1.23,6.27l-0.11,0.1     c-6.82,6.54-13.24,13.3-18.42,20.27c-1.35,1.72-2.52,3.49-3.54,5.28c-1.17,1.74-1.98,3.54-2.81,5.29     c-0.95,1.73-1.3,3.44-2.01,5.08c-0.23,1.63-0.87,3.22-0.77,4.65c-0.61,6.01,2.41,8.93,5.54,14.04c0.6,1.31,1.82,2.65,2.75,3.98     c1.27,1.3,2.38,2.61,3.87,3.85c2.84,2.5,5.97,4.97,9.49,7.21c13.97,9.13,30.86,16.25,48.14,22.12     c17.31,5.97,35.36,10.66,53.54,14.86l0.14,0.03c8.88,2.05,14.42,10.9,12.37,19.78C483.7,1921.26,474.84,1926.8,465.96,1924.75     L465.96,1924.75z"/>
		</g>
		<g>
			<path class="st0" d="M1072.32,1915.64c-3.52,0-7.06-1.12-10.06-3.43c-42.47-32.75-121.23-59.65-221.77-75.75     c-9-1.44-15.12-9.91-13.68-18.9c1.44-9,9.88-15.13,18.9-13.69c74.9,12,176.77,35.99,236.7,82.2c7.21,5.56,8.55,15.92,2.99,23.14     C1082.14,1913.44,1077.26,1915.64,1072.32,1915.64z"/>
		</g>
		<g>
			<path class="st0" d="M350.32,1876.48c-4.76,0-9.48-2.05-12.74-6.01c-5.79-7.03-4.79-17.43,2.24-23.22     c37.56-30.94,109.56-45.38,163.34-52.04c9.05-1.16,17.28,5.3,18.4,14.35s-5.3,17.28-14.35,18.4     c-69.88,8.66-121.88,24.56-146.41,44.76C357.73,1875.25,354.01,1876.48,350.32,1876.48z"/>
		</g>
		<g>
			<path class="st0" d="M526.59,2053.98l2.54,59.98c0.33,7.73-5.68,14.26-13.4,14.58c-7.73,0.33-14.26-5.67-14.59-13.4     c-0.08-1.84,0.22-3.65,0.8-5.29l20.12-56.56c0.43-1.22,1.77-1.85,2.98-1.42C525.96,2052.2,526.55,2053.05,526.59,2053.98z"/>
		</g>
		<g>
			<path class="st0" d="M630.64,2074.28l19.71,70.12c2.08,7.4-2.23,15.09-9.64,17.17s-15.09-2.23-17.17-9.64     c-0.4-1.43-0.56-2.94-0.51-4.35l3.05-72.77c0.05-1.28,1.14-2.27,2.42-2.22C629.53,2072.63,630.37,2073.34,630.64,2074.28z"/>
		</g>
		<g>
			<path class="st0" d="M1202.76,2070.14c-7.86,0-14.82-5.63-16.23-13.64l-10.45-59.23c-1.58-8.97,4.41-17.53,13.38-19.12     c8.97-1.59,17.53,4.41,19.11,13.38l10.45,59.23c1.58,8.97-4.41,17.53-13.38,19.12     C1204.68,2070.06,1203.72,2070.14,1202.76,2070.14z"/>
		</g>
		<g>
			<path class="st0" d="M736.31,2927.01c-34.97,0-71.33-1.33-109.09-4c-152.18-8.11-288.97-48.17-395.31-115.85     c-100.46-63.94-172.22-150.7-207.53-250.92c-65.11-184.82,2.01-390.16,179.57-549.27c0.58-0.52,1.21-1,1.86-1.44     c23.13-15.42,17.68-45.65,17.44-46.93c-1.69-8.91,4.11-17.57,13.01-19.32c8.92-1.77,17.53,3.96,19.34,12.84     c0.43,2.13,10.1,52.19-30.45,80.17C58.5,2182.06-4.92,2373.77,55.5,2545.27c69.59,197.53,289.44,329.65,573.75,344.8     c236.34,16.7,415.03-19.73,531.42-108.25c7.25-5.5,17.6-4.11,23.12,3.14c5.52,7.26,4.11,17.61-3.14,23.12     C1076.7,2887.15,927.54,2927.01,736.31,2927.01z"/>
		</g>
		<g>
			<path class="st0" d="M1339.14,2478.99c-0.5,0-1.01-0.02-1.52-0.07c-9.07-0.83-15.76-8.85-14.93-17.93     c3.19-34.99,3.82-72.79,1.88-112.36c-0.45-9.1,6.57-16.84,15.67-17.29c9.06-0.47,16.84,6.56,17.29,15.67     c2.02,41.11,1.36,80.47-1.97,116.98C1354.77,2472.56,1347.58,2478.99,1339.14,2478.99z"/>
		</g>
		<g>
			<path class="st0" d="M979.27,2199.37c-0.44-0.38-0.08,0.09-0.02,0.24c0.07,0.2,0.38,0.51,0.55,0.77     c0.36,0.55,0.94,1.11,1.45,1.69c1.09,1.12,2.27,2.32,3.64,3.35c2.61,2.23,5.74,4.07,9.01,5.78c6.61,3.36,14.28,5.45,22.35,6.5     c8.09,1.24,16.6,0.72,25.2-0.02c4.27-0.58,8.57-1.35,12.92-2.08l12.9-3.21l0.21-0.05c1.48-0.37,2.97,0.53,3.34,2.01     c0.31,1.24-0.28,2.5-1.36,3.09l-12.14,6.6c-4.22,1.9-8.47,3.86-12.83,5.65c-8.86,3.15-18.08,6.17-27.96,7.27     c-9.82,1.25-20.19,1.3-30.65-0.89c-5.21-1.15-10.47-2.61-15.59-4.95c-2.59-1.07-5.11-2.44-7.65-3.92     c-1.27-0.79-2.52-1.52-3.82-2.49c-0.66-0.49-1.25-0.86-1.96-1.46c-0.74-0.64-1.21-0.93-2.4-2.14c-6-6.86-5.3-17.28,1.56-23.28     C962.84,2191.82,973.27,2192.51,979.27,2199.37z"/>
		</g>
		<g>
			<path class="st0" d="M1024.32,2323.95c-1.58-1.77-5.69-3-4.45-2.49l0.24,0.29l1.89,0.82c1.5,0.51,3.03,1.04,4.72,1.45     c3.3,0.91,6.82,1.52,10.39,2.04c7.15,0.95,14.55,1.05,21.96,0.34c7.44-0.64,14.88-2.26,22.12-4.82     c7.38-2.34,14.25-6.09,21.13-10.15l0.18-0.1c1.31-0.78,3.01-0.34,3.78,0.97c0.64,1.08,0.45,2.42-0.36,3.29     c-5.7,6.07-11.82,12.14-19,16.96c-7.04,5.03-14.81,9.28-23.08,12.5c-8.25,3.29-16.97,5.73-25.99,7.13     c-4.53,0.66-9.1,1.18-13.86,1.28c-2.35,0.1-4.82,0.03-7.32-0.07l-4.06-0.39l-2.68-0.53c0.25,0.3-4.75-1.45-7.25-3.63     c-6.87-5.98-7.6-16.4-1.61-23.28C1007.02,2318.69,1017.44,2317.97,1024.32,2323.95z"/>
		</g>
		<g class="st4">
			<path class="st0" d="M1761.16,2754.03c-98.94,93.22-200.85,111.37-271.36,109.34c43.23-35.36,72.93-83.16,84.59-136.89     c6.44-21.17,8.64-43.72,6.82-66.6c218.95-112.09,101.36-344.45,0-354.74c-4.01-0.39-7.97-0.44-11.93-0.11     c-0.17,0-0.39,0.06-0.55,0.06c-39.16,3.25-75.84,22.05-106.31,44.22c-50.43,36.74-83.93,82.72-83.93,82.72l-4.18,0.88     l-37.23,7.81l-2.75-94.43l-0.17,0.06l-104.39,29.42c-122.1,39.71-193.54-8.58-232.48-57.58c-28.6-35.97-39.65-72.38-40.31-74.58     c81.18,118.74,584.52-106.37,619.34-228.08c31.4-109.89-127.05-174.73-158.18-186.33c-3.36-1.26-5.23-1.87-5.23-1.87     c-290.89-65.23-477.17-328.01-477.17-328.01l115.28,13.69l35.36,12.7l358.86,128.81l333.95,119.84     c-9.57,16.88-53.84,105.49-34.21,272.52c5.66,48.01,20.73,108.24,36.63,172.03C1828.1,2404.89,1885.9,2636.44,1761.16,2754.03z"/>
		</g>
		<g>
			<g>
				<path class="st47" d="M1051.98,367.4c166.7-325.34,213.45-504.08,510.52-178.44L1051.98,367.4z"/>
			</g>
			<g class="st16">
				<path class="st22" d="M1562.53,188.97l-35.47,12.37C1259.21-81.9,1204.1,71.6,1055.66,366.12l-3.69,1.26      C1218.68,42.07,1265.43-136.68,1562.53,188.97z"/>
			</g>
			<g>
				<path class="st50" d="M1203.95,263.79c66.06-110.81,72.83-244.63,192.23-64.46L1203.95,263.79z"/>
			</g>
			<g>
				<path class="st47" d="M2337.9,1124.6c-71.22,350.56-242.54,725.92-768.38,654.48c-106.53-14.47-210.04-46.14-307.33-91.85      c-397.36-186.61-721.85-439.38-553.61-790.93c9.79-20.4,21.17-41.14,34.37-62.26L927.19,517.8      c197.99-332.74,758.98-536.23,1275.03,1.81C2710.62,497.84,2541.39,666.3,2337.9,1124.6z"/>
			</g>
			<g class="st16">
				<path class="st22" d="M2535.23,660.74c-14.13-74.96-106.04-103.18-333.01-93.44c-516.05-538.05-1077.03-334.56-1275.03-1.87      l-184.24,316.3c-49.5,79.25-74.41,153.78-78.98,223.79c-5.61-83.65,18.04-173.96,78.98-271.47L927.19,517.8      c197.99-332.74,758.98-536.23,1275.03,1.81C2472.2,508.07,2551.07,550.14,2535.23,660.74z"/>
			</g>
			<g>
				<path class="st0" d="M1693.04,1804.31c-40.27,0-82.19-2.95-125.77-8.87c-106.02-14.39-211.03-45.77-312.12-93.24      c-344.93-162.01-538.9-329.99-593-513.54c-34.06-115.55-11.63-237.72,66.67-363.14l184.12-316.04      c107.56-180.76,309.65-308.44,527.46-333.35c125.23-14.33,252.1,3.64,377.07,53.4c136.96,54.53,268.64,146.46,391.5,273.32      c194.8-7.75,289.86,12.43,327.38,69.23c47.44,71.83-9.58,191.02-95.89,371.44c-26.42,55.23-56.34,117.77-86.74,186.16      c-44.81,219.6-115.91,380.4-217.33,491.54C2025.26,1742.98,1876.5,1804.3,1693.04,1804.31z M1524.39,204.35      c-28.46,0-55.27,1.7-80.24,4.56c-207.8,23.76-400.45,145.35-502.78,317.31L757.2,842.35c-0.09,0.15-0.17,0.29-0.26,0.44      c-73.19,117.14-94.43,230.37-63.13,336.54c51.28,173.97,239.48,335.23,575.38,492.99c98.05,46.05,199.84,76.47,302.53,90.42      c230.75,31.33,412.53-23.77,540.29-163.77c97.56-106.9,166.16-263.14,209.72-477.64c0.24-1.17,0.6-2.32,1.09-3.41      c30.84-69.46,61.14-132.78,87.86-188.65c81.46-170.27,135.28-282.76,98.12-339.01c-29.88-45.23-124.21-61.94-305.87-54.14      c-4.75,0.19-9.33-1.64-12.61-5.06C1939.69,269.74,1700.7,204.35,1524.39,204.35z"/>
			</g>
			<g>
				<path class="st0" d="M1051.96,383.91c-2.53,0-5.1-0.59-7.51-1.82c-8.11-4.16-11.32-14.1-7.16-22.21      c14.11-27.54,27.28-53.86,40.01-79.32c80.46-160.85,133.62-267.12,222.25-279.42c70.88-9.82,153.17,43.01,275.13,176.7      c6.14,6.73,5.66,17.17-1.07,23.31c-6.73,6.14-17.17,5.66-23.31-1.07C1439.59,78.72,1361.4,25.87,1304.09,33.83      c-71.43,9.91-124.21,115.44-197.28,261.49c-12.77,25.52-25.97,51.91-40.15,79.6C1063.74,380.63,1057.96,383.91,1051.96,383.91z"/>
			</g>
			<g>
				<path class="st50" d="M2262.73,646.13c30.04,71.18,49.85,162.98,66,262.16C2449.27,648.42,2456.14,604.43,2262.73,646.13z"/>
				<path class="st0" d="M2327.52,917.11l-1.37-8.4c-19.37-118.91-39.67-199.58-65.83-261.56l-1.23-2.91l3.08-0.66      c73.75-15.91,126.83-21.52,146.25,2.76c24.35,30.46-2.85,102.49-77.32,263.05L2327.52,917.11z M2266.36,648.03      c25.12,60.51,44.85,138.52,63.57,251.46c70.82-153.08,96.65-222.06,74.41-249.88C2389.14,630.6,2350.36,630.12,2266.36,648.03z"/>
			</g>
			<g>
				<path class="st22" d="M1465.77,1304.39c2.26-146.26-190.27-258.23-334.26-248.1c-52.76,3.71-96.01,43.51-104.71,95.67      c-45,269.85,226.58,342.78,382.98,247.43C1443.21,1379.01,1465.16,1343.53,1465.77,1304.39z"/>
			</g>
			<g>
				<path class="st0" d="M1203.94,280.29c-2.88,0-5.79-0.75-8.44-2.33c-7.83-4.67-10.39-14.79-5.72-22.62      c13.66-22.91,25.03-47.55,35.07-69.3c22.86-49.53,40.91-88.65,75.78-91.32c30.78-2.42,63.39,26.21,109.31,95.5      c5.03,7.6,2.95,17.83-4.64,22.87c-7.59,5.03-17.83,2.95-22.87-4.64c-47.69-71.97-70.2-81.51-79.28-80.83      c-15.55,1.19-32.22,37.31-48.34,72.25c-10.38,22.49-22.14,47.97-36.68,72.37C1215.04,277.42,1209.56,280.29,1203.94,280.29z"/>
			</g>
			<g>
				<path class="st0" d="M2328.74,924.8c-0.75,0-1.5-0.05-2.25-0.16c-7.18-0.98-12.88-6.54-14.04-13.69      c-19.18-117.77-39.2-197.47-64.91-258.4c-1.91-4.53-1.7-9.67,0.56-14.03s6.36-7.48,11.16-8.52      c83.13-17.92,135.96-22.42,160.02,7.67c30.47,38.11,0.37,113.84-75.57,277.57C2340.97,921.12,2335.09,924.8,2328.74,924.8z       M2285.37,658.24c19.33,50.56,35.48,112.71,50.59,194.96c38.65-84.88,75.06-173.01,57.54-194.92      C2380.19,641.64,2322.09,650.88,2285.37,658.24z"/>
			</g>
			<g>
				<path class="st0" d="M1970.69,1423.45c5.75,0.02,10.5,0.28,15.64,0.62c5.05,0.33,10.05,0.77,15.03,1.3      c9.97,1.02,19.85,2.44,29.67,4.12c19.64,3.39,39.03,7.94,58.05,13.72c37.98,11.61,74.64,27.93,107.76,49.81      c16.5,10.99,32.23,23.12,46.72,36.59c14.3,13.65,27.75,28.17,39.53,43.95c23.68,31.47,41.33,66.94,53.72,103.76      c0.48,1.44-0.29,3-1.73,3.48c-1.39,0.47-2.88-0.23-3.43-1.57l-0.02-0.04c-14.37-35.55-33.66-69.02-58.22-97.92      c-12.22-14.5-25.93-27.61-40.3-39.8c-14.56-12-30.17-22.61-46.4-32.09c-32.56-18.84-68.08-32.17-104.51-40.98      c-18.24-4.38-36.75-7.57-55.33-9.66c-9.29-1.03-18.61-1.8-27.89-2.19c-4.64-0.22-9.28-0.35-13.88-0.38      c-4.5-0.04-9.41,0.02-13.32,0.24l-0.23,0.01c-9.1,0.52-16.91-6.44-17.43-15.54c-0.52-9.1,6.44-16.9,15.54-17.42      C1970,1423.46,1970.37,1423.45,1970.69,1423.45z"/>
			</g>
			<g>
				<path class="st0" d="M1894.14,1579.11c2.41,1.31,3.91,2.24,5.68,3.36c1.72,1.07,3.35,2.19,4.99,3.29      c3.24,2.23,6.36,4.55,9.43,6.9c6.1,4.75,11.86,9.8,17.41,15.03c11.03,10.53,21.08,21.95,30.04,34.09      c17.97,24.29,31.28,51.53,40.42,79.73c4.46,14.16,7.79,28.57,10.33,43.05c2.15,14.54,3.93,29.11,4.25,43.71      c1.08,29.17-1.23,58.21-6.06,86.65c-0.25,1.5-1.67,2.51-3.17,2.25c-1.42-0.24-2.4-1.55-2.28-2.96      c2.52-28.42,2.47-56.99-0.82-85.01c-1.42-14.04-4.26-27.84-7.4-41.46c-3.52-13.54-7.73-26.84-12.94-39.69      c-10.63-25.59-24.85-49.48-42.75-70.01c-8.92-10.27-18.71-19.71-29.14-28.19c-5.24-4.19-10.62-8.2-16.15-11.83      c-2.78-1.79-5.57-3.54-8.37-5.16l-4.19-2.3c-1.3-0.7-2.95-1.5-3.73-1.83c-8.41-3.54-12.36-13.23-8.81-21.64      s13.23-12.36,21.64-8.82c0.5,0.21,0.98,0.44,1.44,0.69L1894.14,1579.11z"/>
			</g>
			<g>
				<path class="st0" d="M759.81,864.12c-0.16-0.95-0.6-2.93-1.04-4.52c-0.41-1.68-0.95-3.4-1.44-5.12      c-1.06-3.44-2.25-6.9-3.53-10.34c-2.55-6.89-5.65-13.67-8.99-20.33c-6.77-13.29-14.8-26.09-24.13-37.98      c-9.3-11.91-19.71-23.05-31.09-33.23c-11.41-10.14-23.77-19.3-36.78-27.59c-26.06-16.55-54.93-28.96-84.94-38.02      c-30.02-9.11-61.24-14.83-92.77-17.95c-1.51-0.15-2.62-1.5-2.47-3.01c0.14-1.44,1.39-2.51,2.81-2.48      c31.97,0.85,64.04,4.34,95.56,11.47c31.5,7.08,62.53,17.78,91.48,33.34c14.44,7.8,28.41,16.66,41.57,26.76      c13.12,10.13,25.4,21.47,36.62,33.88c11.25,12.39,21.25,25.98,29.99,40.47c4.33,7.27,8.4,14.73,11.96,22.53      c1.78,3.9,3.48,7.86,5.06,11.92c0.76,2.06,1.55,4.09,2.25,6.23c0.75,2.2,1.36,4.07,2.12,6.98c2.31,8.82-2.98,17.85-11.8,20.15      c-8.82,2.31-17.85-2.98-20.15-11.8C760,865.05,759.89,864.56,759.81,864.12z"/>
			</g>
			<g>
				<path class="st0" d="M708.08,1013.66c-0.94-0.7-2.52-1.7-3.93-2.61c-1.38-0.94-2.96-1.82-4.48-2.72      c-3.01-1.84-6.15-3.56-9.37-5.21c-6.29-3.49-13.02-6.37-19.64-9.42c-6.82-2.62-13.48-5.73-20.52-7.88      c-6.96-2.37-13.92-4.81-21.1-6.55c-28.47-7.75-58.1-12.13-88-12.71c-7.47-0.21-14.94,0.31-22.44,0.42l-11.25,0.34l-11.19,1.23      c-7.46,0.87-14.98,1.52-22.44,2.56l-22.22,4.31l-11.15,2.16l-10.93,3.07l-21.91,6.17c-3.7,0.91-7.23,2.32-10.79,3.65      l-10.69,3.99l-21.43,8l-0.21,0.08c-1.42,0.53-3-0.19-3.53-1.61c-0.51-1.35,0.13-2.85,1.42-3.45l21-9.69l10.53-4.85      c3.51-1.62,7-3.32,10.68-4.52l21.83-7.96l10.95-3.97l11.23-3.07l22.54-6.14c7.61-1.65,15.31-2.92,22.99-4.39l11.54-2.14      l11.67-1.25c7.8-0.71,15.6-1.82,23.44-2.19c31.4-1.73,63.14,0.49,94.35,6.53c7.86,1.3,15.55,3.35,23.28,5.36      c7.79,1.78,15.31,4.58,22.98,6.92c7.54,2.79,15.14,5.41,22.55,8.8c3.73,1.58,7.45,3.27,11.14,5.15      c1.85,0.92,3.69,1.78,5.58,2.85c1.89,1.04,3.64,1.94,5.9,3.34l0.22,0.14c7.76,4.81,10.15,14.99,5.34,22.74      c-4.81,7.76-14.99,10.15-22.75,5.34C708.88,1014.22,708.46,1013.94,708.08,1013.66z"/>
			</g>
			<g>
				<path class="st18" d="M1276.24,1272.32c-53.89,112.63-146.8,95.44-123.56-22.12c-11.69-23.83-16.18-48.61-16.18-48.61      l85.76,29.53l34.39,33.73L1276.24,1272.32z"/>
			</g>
			<g>
				<path class="st0" d="M1299.88,1124.72c-14.59-27.88-53.35-47.65-81.73-52c-13.99-2.14-26.1,9.25-24.98,23.35      c4.57,57.65,33.54,80.98,94.94,58.72C1300.24,1150.39,1305.87,1136.16,1299.88,1124.72z"/>
			</g>
			<g>
				<path class="st0" d="M1237.38,1152.71c-5.53,16.44-6.52,34.58-2.88,51.69c3.48,17.04,11.65,33.23,23.73,43.76      c12.09,10.5,27.94,14.22,45,10.76c8.49-1.73,17.11-4.99,25.65-9.09c8.61-4.02,16.79-9.43,25.39-14.65l0.24-0.14      c2.63-1.6,6.05-0.76,7.64,1.87c1.24,2.03,1,4.55-0.38,6.32c-12.97,16.54-29.86,31.37-52.04,39.21      c-11.02,3.91-23.56,5.25-35.95,3.35c-12.37-2.03-24.21-7.45-33.97-15.01c-19.42-15.54-30.51-37.77-35.14-60.32      c-4.44-22.67-2.51-46.79,7.24-68.09c3.16-6.91,11.33-9.95,18.24-6.79c6.45,2.95,9.53,10.26,7.34,16.84L1237.38,1152.71z"/>
			</g>
			<g>
				<path class="st0" d="M1124.63,1099.94c-5.12,7.53-10.38,14.85-13.63,22.86c-3.4,7.87-5.52,15.94-5.58,23.58      c-0.07,7.65,1.98,14.72,5.71,20.84c3.73,6.13,9.39,11.2,15.86,15.1c13.07,7.68,29.5,10.6,44.09,7.85      c14.72-2.61,26.91-10.89,35.05-23.6l0.12-0.19c4.1-6.4,12.61-8.27,19.01-4.17c5.96,3.82,7.96,11.52,4.9,17.72      c-5.03,10.11-12.77,19.3-22.22,26.21c-9.49,6.9-20.62,11.26-31.86,13.1c-22.54,3.47-45.49-1.89-63.79-15.02      c-9.1-6.55-17.19-15.21-22.12-25.86c-5.09-10.52-6.76-22.64-5.1-33.72c1.57-11.14,6.11-21.09,11.68-29.69      c5.61-8.67,12.59-15.84,19.8-22.48c2.24-2.06,5.72-1.92,7.78,0.32c1.77,1.92,1.92,4.76,0.51,6.83L1124.63,1099.94z"/>
			</g>
			<g>
				<path class="st0" d="M1192.36,1361.89c-5.72,0-11.15-0.87-16.2-2.55c-26.21-8.71-49.53-41.46-37.81-107.3      c-10.91-23.85-15.19-46.98-15.37-48.01c-1.35-7.47,3.61-14.63,11.08-15.98c7.49-1.35,14.63,3.61,15.98,11.07      c0.11,0.6,4.44,23.48,15,45.01c1.33,2.71,1.73,5.77,1.14,8.72c-8.36,42.29-1.04,73.84,18.66,80.38      c20.14,6.69,53.77-14.12,79.01-66.86c3.27-6.85,11.48-9.75,18.34-6.47c6.85,3.28,9.75,11.49,6.47,18.34      C1260.25,1337.59,1222.48,1361.89,1192.36,1361.89z"/>
			</g>
			<g>
				<path class="st0" d="M1149.1,1289.18c0,0,27.96-61.71,107.55-24.33c-26.63-15.45-43.73-38.94-45.53-75.37l-68.06,24.06      C1143.06,1213.53,1147.68,1291.85,1149.1,1289.18z"/>
			</g>
			<g>
				<path class="st0" d="M886.59,830.36c10.29-11.78,22.04-22.06,34.86-31.31c12.86-9.17,26.97-17.09,42.56-22.97      c15.54-5.92,32.8-9.48,51.04-9.27c9.08,0.13,18.38,1.52,27.47,3.86c4.48,1.46,9.05,2.68,13.34,4.68      c2.17,0.94,4.36,1.83,6.49,2.84l6.17,3.42c16.42,9.34,29.35,22.71,39.27,36.8c10.01,14.15,16.97,29.37,22.23,44.6      c10.19,30.65,13.91,61.77,11.89,92.73c-0.2,3.13-2.91,5.5-6.04,5.3c-2.08-0.13-3.83-1.38-4.71-3.12l-0.07-0.13      c-6.84-13.7-12.7-27.29-18.92-40.45c-6.26-13.11-12.56-25.86-19.46-37.76c-13.59-23.83-29.72-44.47-48.85-55.14      c-9.55-5.38-19.84-8.82-31.42-9.87c-11.51-1.37-24.09-0.5-37.17,1.6c-26.32,4.35-53.54,14.39-82.65,23.39l-0.04,0.01      c-3.01,0.93-6.21-0.76-7.14-3.77C884.83,833.85,885.34,831.8,886.59,830.36z"/>
			</g>
			<g>
				<path class="st0" d="M1572.04,1167.82c25.23-26.88,57.69-47.75,94.1-60.1c18.22-6.14,37.5-10.07,57.41-10.97      c19.87-0.86,40.45,1.27,60.45,7.82c19.87,6.52,39.52,17.45,54.43,33.78c15.16,15.98,25.23,36.32,29.69,56.7      c4.57,20.47,3.73,40.89-0.09,59.77c-3.91,18.93-10.67,36.63-19.84,52.81c-1.54,2.72-4.99,3.67-7.71,2.13      c-1.85-1.05-2.88-2.99-2.87-4.98l0-0.19c0.21-18.07,0.6-35.31-0.8-51.83c-1.31-16.49-4.45-32.12-9.89-45.8      c-10.91-27.41-30.99-46.28-58.67-55.79c-27.47-9.73-60.11-10.21-92.37-4.99c-32.5,5.28-64.78,16.38-97.44,30.57l-0.1,0.04      c-2.84,1.23-6.14-0.07-7.37-2.91C1570.07,1171.77,1570.56,1169.4,1572.04,1167.82z"/>
			</g>
			<g class="st4">
				<path class="st0" d="M2337.9,1124.6c-71.22,350.56-242.54,725.92-768.38,654.48c-106.53-14.47-210.04-46.14-307.33-91.85      c-397.36-186.61-721.85-439.38-553.61-790.93c95.94,807.2,1372.65,932.22,1603.81-78.21L2337.9,1124.6z"/>
			</g>
		</g>
		<g class="st4">
			<path class="st0" d="M922.07,1730.02v0.06c-2.64,0.06-5.28,0.22-7.92,0.39c-0.17,0.06-0.39,0.06-0.55,0.06     c-0.66,0.06-1.26,0.33-1.7,0.82c-26.29,26.18-50.6,56.04-73.37,89.98c-0.06,0.11-0.11,0.17-0.17,0.28     c-17.16,25.57-33.38,53.4-48.84,83.82c-5.67,11.22-11.22,22.77-16.72,34.7c-15.4,33.27-30.03,69.24-44.77,110     c0,0.06,0,0.06,0,0.11c-3.08,8.53-6.21,17.11-9.18,25.8c-52.47,71.88-103.12,80.19-136.4,74.52     c-42.79-7.26-81.56-42.62-103.34-92.56c162.14,96.47,222.63-215.59,300.9-310.96C859.81,1649.83,922.07,1730.02,922.07,1730.02z"/>
		</g>
		<g class="st4">
			<path class="st0" d="M433.41,1708.32c0,0,22.92,41.69-12.83,64.6c0,0-68.84,4.77-82.54,46.84     c-13.71,42.07,26.63,40.24,26.63,40.24l97.2,54.85l99.53-203.71L433.41,1708.32z"/>
		</g>
		<g class="st4">
			<path class="st0" d="M382.7,1875.35c0,0-138.41,101.6-188.83,13.68c0,0,57.89,122.83,272.32,139.36l-5.5-119.89L382.7,1875.35z"/>
		</g>
		<g class="st4">
			<path class="st0" d="M960.59,1722.64c0,0-49.71,32.17,0,69.71c0,0,119.45,21.7,134.08,66.74     c14.63,45.04-174.84,87.2-309.04,74.37c0,0,8.8-123.71,132.55-211.26L960.59,1722.64z"/>
		</g>
		<g class="st4">
			<path class="st0" d="M843.09,1940.93c0,0,314.17,109.13,380.17-120.76c0,0,93.53,166.75-130.16,195.43s-356.21,35.5-356.21,35.5     l46.05-109.81L843.09,1940.93z"/>
		</g>
		<g class="st4">
			<path class="st0" d="M1336.54,2460.29c-50.27,10.18-95.59,42.79-123.25,89.48c-26.56,44.82-74.63,145.03-45.92,244.19     c-119.18,89.7-300.35,126.72-538.82,109.83c-104.99-5.61-201.4-26.95-285.06-61.54c506.87,98.34,870.35-387.13,362.66-741.76     c0,0,0.06-0.05,0.11-0.17c6.54-7.15,13.09-15.18,19.63-24.2c0.16-0.22,0.33-0.44,0.38-0.71c2.8-8.14,5.72-16.28,8.64-24.31     c148.88-0.55,311.51-15.23,414.85-37.45c14.41-3.08,27.99-8.25,40.53-15.07l9.4,53.51c-21.94,11.44-44.71,21.23-68.14,29.2     c-30.14,10.12-60.5,21.34-88.16,37.89c-27.55,16.34-52.96,37.95-69.24,66.33c-7.59,14.46-12.59,30.3-13.75,46.64     c-0.94,16.44,2.36,32.78,8.3,47.9c5.83,15.23,15.12,28.87,25.68,41.08c10.45,12.43,23.1,22.71,36.3,31.95     c26.84,17.93,57.14,30.58,88.77,36.68c31.62,6.32,64.29,6.93,96.08,2.09c4.01-0.44,7.98-1.21,11.88-2.15l11.82-2.53     c3.96-0.71,7.76-1.98,11.6-3.08l11.6-3.46c15.18-5.06,30.14-10.5,45.04-16.28c10.39-4.01,20.68-8.25,30.91-12.54     C1340.17,2389.9,1339.51,2426.3,1336.54,2460.29z"/>
		</g>
		<g class="st52">
			<path class="st22" d="M457.01,2434.54c47.99,126.86,104.64,224.1,25.56,254.02c-79.08,29.92-182.1-48.67-230.09-175.54     c-47.99-126.86-22.79-253.96,56.29-283.88C387.85,2199.22,409.02,2307.67,457.01,2434.54z"/>
		</g>
		<g>
			<path class="st0" d="M1861.48,2806.75c-31.32,0-63.88-4.79-97.56-14.4c-8.76-2.5-13.84-11.63-11.34-20.4     c2.5-8.76,11.62-13.83,20.39-11.34c78.59,22.42,149.96,15.97,212.1-19.16c125.42-70.9,186.93-239.8,212.44-334.18     c8.28-30.63,18.31-57.42,30.67-81.89c63.27-125.33,164.41-180.99,309.22-170.02c84.36-4.19,138.02-42.1,147.28-104.1     c9.48-63.48-30.89-130.31-91.98-152.41c-84.37-24.03-370-72.89-541.22,292.51c-20.7,44.17-36.44,92.3-48.12,147.17     c-24.4,114.65-74.85,184.14-149.95,206.52c-8.73,2.61-17.92-2.36-20.53-11.1c-2.6-8.73,2.37-17.92,11.1-20.52     c63.53-18.94,105.1-78.39,127.1-181.77c12.21-57.36,28.73-107.83,50.51-154.3c66.86-142.68,158.95-240.72,273.7-291.39     c94.48-41.71,203.51-48.36,307.01-18.69c0.34,0.09,0.67,0.21,1,0.32c75.68,27.03,125.76,109.84,114,188.54     c-11.67,78.12-78.74,127.56-179.39,132.23c-0.67,0.04-1.36,0.02-2.04-0.03c-132.32-10.24-220.74,38.01-278.25,151.92     c-11.34,22.45-20.58,47.19-28.27,75.63c-26.85,99.35-92.17,277.49-228.05,354.3C1958.22,2794.54,1911.43,2806.75,1861.48,2806.75     z"/>
		</g>
		<g class="st4">
			<path class="st0" d="M2537.16,2171.88c-67.37-5.22-121.77,4.62-166.04,26.07h-0.06c-57.53,27.88-98.12,75.35-128.15,134.86     c-12.65,25.08-22.16,51.64-29.48,78.76c-26.56,98.28-134.07,448.41-441.02,360.91l83.28-144.68     c96.69,167.14,231.02-190.55,302.52-381.23c71.5-190.63,331.91-179.63,331.91-179.63c232.92-55,139.59-167.8,139.59-167.8h0.06     C2735.64,1968.83,2742.68,2162.31,2537.16,2171.88z"/>
		</g>
		<g>
			<g>
				<path class="st22" d="M612.07,440.32c21.17-34.64,31.61-76.22,27.14-119.72c-10.84-105.58-105.22-182.39-210.8-171.55      c-105.58,10.84-182.39,105.22-171.55,210.8c10.84,105.58,105.22,182.39,210.8,171.55c29.37-3.02,56.5-12.51,80.15-26.9      l88.93,19.95L612.07,440.32z"/>
			</g>
			<g class="st38">
				<g>
					<path class="st22" d="M432.18,185.83c98.63-10.13,187.46,56.24,207.57,151.08c0.02-6.78-0.27-13.61-0.98-20.5       c-10.84-105.58-105.22-182.39-210.8-171.55C322.4,155.7,245.59,250.08,256.43,355.67c0.71,6.92,1.8,13.71,3.21,20.37       C260.01,279.04,333.52,195.96,432.18,185.83z"/>
				</g>
			</g>
			<g>
				<path class="st0" d="M447.88,549.33c-105.78,0.01-196.8-80.27-207.83-187.74c-5.7-55.56,10.57-110.01,45.82-153.33      c35.25-43.32,85.26-70.31,140.82-76.02c55.55-5.71,110.01,10.57,153.32,45.82c43.32,35.25,70.31,85.26,76.02,140.82      c4.45,43.36-4.42,85.96-25.68,123.7l22.62,77.12c1.68,5.74,0.21,11.95-3.89,16.32c-4.09,4.37-10.2,6.24-16.03,4.93l-82.44-18.49      c-25.05,14.14-52.33,22.8-81.22,25.76C462.18,548.96,454.99,549.33,447.88,549.33z M448.17,164.95      c-5.97,0-11.97,0.31-18.03,0.93c-96.14,9.87-166.33,96.12-156.46,192.26c9.87,96.14,96.11,166.32,192.26,156.46      c26.16-2.69,50.75-10.94,73.09-24.52c3.74-2.28,8.22-3,12.48-2.05l60.94,13.67l-16.6-56.6c-1.34-4.58-0.69-9.5,1.8-13.57      c20.14-32.95,28.7-70.71,24.75-109.17C613.15,232.25,536.83,164.95,448.17,164.95z"/>
			</g>
			<g class="st7">
				<path class="st0" d="M613.15,438.48c-52.64,44.52-125.16,64.02-197.17,46.1c-79.86-19.88-138.7-80.69-159.87-154.5      c-0.51,9.79-0.28,19.73,0.75,29.79c10.84,105.58,105.22,182.39,210.8,171.55c29.37-3.02,56.5-12.51,80.15-26.9l88.94,19.95      l-24.68-84.13C612.44,439.71,612.78,439.09,613.15,438.48z"/>
			</g>
			<g>
				<path class="st39" d="M509.49,286.27L509.49,286.27c-16.63-16.63-43.6-13.65-60.23,2.98l-2.59,2.59l-2.59-2.59      c-16.63-16.63-43.6-19.61-60.23-2.98l0,0c-16.63,16.63-16.63,43.6,0,60.23l2.59,2.59l52.29,52.29c4.38,4.38,11.49,4.38,15.88,0      l52.29-52.29l2.59-2.59C526.12,329.86,526.12,302.9,509.49,286.27z"/>
			</g>
		</g>
	</g>
</g>
</svg>