<svg xmlns="http://www.w3.org/2000/svg" xmlns:xlink="http://www.w3.org/1999/xlink" version="1.1" id="Layer_1" x="0px" y="0px" style="enable-background:new 0 0 3017.16 3039.95;" xml:space="preserve" viewBox="0 -0.01 3017.18 3039.96">
<style type="text/css">
	.st0{fill:#512717;}
	.st1{fill:#FEF26B;}
	.st2{fill:#FFC55F;}
	.st3{fill:#390075;}
	.st4{fill:#FD6CCB;}
	.st5{fill:#F948C3;}
	.st6{fill:#39D5FF;}
	.st7{fill:#3BB4FF;}
	.st8{fill:#F9D3B7;}
	.st9{fill:#6B184E;}
	.st10{fill:#FFAD40;}
	.st11{fill:#FF9343;}
	.st12{fill:#FFF3E9;}
	.st13{opacity:0.3;}
	.st14{opacity:0.7;}
	.st15{fill:#FFFFFF;}
	.st16{opacity:0.5;}
	.st17{opacity:0.2;}
	.st18{opacity:0.35;}
	.st19{fill:#FF8080;}
	.st20{fill:#FDD800;}
	.st21{fill:#FCC000;}
	.st22{opacity:0.6;}
	.st23{fill:#B199C5;}
	.st24{fill:#60567C;}
	.st25{fill:#232333;}
	.st26{opacity:0.25;}
	.st27{fill:#181558;}
	.st28{fill:#545468;}
	.st29{fill:#FC7E81;}
	.st30{fill:#0096F0;}
	.st31{fill:none;stroke:#6B184E;stroke-width:7.9963;stroke-linecap:round;stroke-linejoin:round;stroke-miterlimit:10;}
	.st32{fill:#FF67A0;}
	.st33{opacity:0.8;}
	.st34{fill:#93AFBA;}
	.st35{fill:#799299;}
	.st36{fill:#EAE8E5;}
	.st37{fill:#FFAD40;stroke:#512717;stroke-width:0.9717;stroke-linecap:round;stroke-linejoin:round;stroke-miterlimit:10;}
	.st38{fill:#E5E5E5;}
	.st39{fill:#9DA9B9;}
	.st40{fill:#C9C9C9;}
	.st41{fill:#B2B2B2;}
	.st42{fill:#A0A0A0;}
	.st43{fill:none;stroke:#6B184E;stroke-width:7.7734;stroke-linecap:round;stroke-linejoin:round;stroke-miterlimit:10;}
	.st44{fill:#C1DAE0;}
	.st45{fill:#E8E8E8;}
	.st46{fill:none;stroke:#6B184E;stroke-width:7.9977;stroke-linecap:round;stroke-linejoin:round;stroke-miterlimit:10;}
	.st47{fill:#686779;}
	.st48{fill:#FF57BB;}
	.st49{fill:#EF26A8;}
	.st50{fill:#F792D3;}
	.st51{fill:#FFF61E;}
	.st52{fill:#7BA2FF;}
	.st53{fill:#4D1C54;}
	.st54{opacity:0.4;}
	.st55{fill:#F2A34E;}
	.st56{fill:#D68134;}
	.st57{fill:#FF80CC;}
	.st58{fill:#EF6AAC;}
	.st59{fill:none;stroke:#6B184E;stroke-width:7.6422;stroke-linecap:round;stroke-linejoin:round;stroke-miterlimit:10;}
	.st60{fill:#32CC17;}
	.st61{fill:#371A45;}
	.st62{fill:#D8D8D8;}
	.st63{fill:#111A28;}
	.st64{fill:#7DC142;}
	.st65{fill:#62ED2E;}
	.st66{fill:#371944;}
	.st67{fill:#101928;}
	.st68{fill:#FFD243;}
	.st69{fill:#FF9D33;}
	.st70{fill:#FCAC38;}
	.st71{fill:#FF8A3B;}
	.st72{fill:#FF1B40;}
	.st73{fill:#C63C3C;}
	.st74{fill:#16B768;}
	.st75{fill:#EDEDED;}
	.st76{fill:#D3D3D3;}
	.st77{fill:#5DAA55;}
	.st78{fill:#83D67C;}
	.st79{fill:#54B74F;}
</style>
<g>
	<g>
		<g>
			<g>
				<g>
					<path class="st0" d="M2495.42,2916.75c-4.45,0-8.9-0.04-13.38-0.13c-229.86-4.54-389.91-119.41-483.7-214.97       c-101.25-103.16-147.88-204.06-149.81-208.3c-3.65-8-1.52-17.46,5.22-23.12l94.4-79.35c7.52-6.32,18.56-6.08,25.81,0.53       c135.73,124,292.66,158.47,419.8,92.21c75.63-39.41,123.03-108.25,115.28-167.4c-1.98-15.07-8.28-27.21-16.88-32.47       c-5.56-3.39-11.84-3.78-19.18-1.16c-19.74,7.04-21.99,20.57-24.54,45.87c-2.11,20.99-5.01,49.74-33.44,61.66       c-47.08,19.73-127.7-10.53-157.2-77.73c-45.07-102.68-30.04-216.34,40.2-304.04c84.64-105.67,227.05-150.74,380.97-120.59       c114.87,22.52,207.94,93.17,269.16,204.33c55.52,100.83,78.74,225.21,65.35,350.22c-13.94,130.26-67.26,248.07-150.13,331.72       C2770.68,2867.55,2643.69,2916.75,2495.42,2916.75z M1890.77,2490.27c15.86,30.2,60.44,107.72,136.47,184.92       c128.81,130.79,282.09,198.85,455.57,202.27c327.61,6.48,469.57-232.61,491.7-439.31c23-214.87-75.41-467.31-303.1-511.94       c-139.34-27.3-267.5,12.55-342.87,106.64c-60.96,76.1-74.01,174.73-34.9,263.81c22.19,50.56,82.16,67.44,106.2,57.35       c5.94-2.49,7.61-9.54,9.61-29.45c2.53-25.16,6.36-63.17,50.36-78.85c18.41-6.56,37.15-4.92,52.77,4.65       c18.86,11.54,31.72,33.7,35.27,60.78c9.85,75.14-46.08,160.36-136.01,207.22c-138.27,72.05-305.98,39.56-451.47-86.6       L1890.77,2490.27z M1866.34,2485.22h0.05H1866.34z"/>
				</g>
			</g>
			<g>
				<path class="st1" d="M2482.4,2897.05c-432.15-8.57-616.06-411.85-616.06-411.85l27.51-23.13      c61.63,101.3,230.36,318.51,538.08,307.6c397.85-14.13,456.64-294.33,450.1-460.53c-5.18-132.82-85.63-323.7-291.74-346.89      c-181.93-20.54-334.31,114.31-328.69,302.54c-56.51-205.06,135.78-412.22,413.58-357.75      C3138.68,1997.83,3125.91,2909.76,2482.4,2897.05z"/>
			</g>
			<g>
				<path class="st2" d="M2261.61,2264.76c-39.51-143.47,42.69-287.96,190.78-343.13c-13.38,21.56-23.73,44.66-30.69,68.76      C2323.79,2038.4,2257.9,2139.87,2261.61,2264.76z"/>
			</g>
			<g>
				<path class="st2" d="M2883.77,2721.36c-84.43,107.1-217.02,179.31-401.37,175.7c-432.17-8.6-616.05-411.89-616.05-411.89      l27.5-23.1c61.65,101.31,230.34,318.49,538.11,307.6c37.22-1.33,71.47-4.99,103.01-10.67c33.77,6.11,69.35,9.82,106.78,10.57      C2735.73,2771.43,2816.23,2753.59,2883.77,2721.36z"/>
			</g>
			<g>
				<path class="st3" d="M2495.41,2916.77c-4.45,0-8.91-0.04-13.39-0.13c0,0,0,0,0,0c-229.84-4.56-389.89-119.44-483.67-215      c-101.24-103.16-147.88-204.06-149.81-208.31c-3.65-8-1.52-17.46,5.21-23.12l27.51-23.13c4.38-3.68,10.14-5.24,15.77-4.34      c5.64,0.93,10.59,4.27,13.56,9.15c56.71,93.2,220.86,308.71,520.65,298.2c146.34-5.2,257.62-47.8,330.76-126.64      c94.16-101.48,103.36-240.01,100.46-313.55c-4.03-103.3-66.56-304.82-274.36-328.2c-82.35-9.31-162.71,15.89-220.52,69.11      c-58.23,53.61-88.92,129.38-86.42,213.38c0.3,9.91-6.86,18.48-16.66,19.95c-9.8,1.46-19.16-4.6-21.79-14.16      c-27.04-98.11-0.75-202.43,70.32-279.06c85.92-92.65,222.7-131.19,365.91-103.11c114.86,22.5,207.93,93.15,269.14,204.3      c55.52,100.82,78.74,225.19,65.36,350.2c-13.94,130.27-67.26,248.09-150.14,331.75      C2770.68,2867.57,2643.69,2916.77,2495.41,2916.77z M2482.79,2877.47c327.59,6.63,469.61-232.63,491.73-439.34      c22.99-214.86-75.42-467.29-303.09-511.89c-129.79-25.44-253.03,8.69-329.66,91.3c-6.88,7.41-13.26,15.07-19.16,22.94      c5.85-6.39,12.01-12.56,18.46-18.5c66.17-60.91,157.82-89.79,251.43-79.21c203.47,22.9,302.87,205.56,309.11,365.59      c3.13,79.6-7.11,229.87-110.89,341.72c-80.49,86.75-200.96,133.56-358.09,139.14c-7.71,0.27-15.34,0.41-22.88,0.41      c-271.76,0.01-434.61-174.2-508.82-280.88c21.2,37.15,62.78,101.89,126.32,166.42      C2156.06,2805.97,2309.32,2874.03,2482.79,2877.47L2482.79,2877.47z"/>
			</g>
			<g>
				<path class="st4" d="M2431.94,2769.66c-307.72,10.92-476.45-206.3-538.08-307.6l36.77-30.91      c64.9,87.54,234.31,265.77,513.77,223.08c335.3-51.14,353.8-483.36,163.85-562.81c-56.45-23.63-133.56-26.53-194.33,27.21      c-58.3,51.57-94.7,163.79-28.26,257.69c-37.02,1.05-88.53-22.89-109.93-71.81c-5.8-13.2-10.49-26.47-14.13-39.73      c-5.61-188.22,146.77-323.08,328.69-302.54c206.11,23.2,286.56,214.07,291.74,346.89      C2888.58,2475.33,2829.79,2755.53,2431.94,2769.66z"/>
			</g>
			<g>
				<path class="st5" d="M2534.97,2759c-31.54,5.68-65.79,9.35-103.01,10.67c-307.76,10.89-476.46-206.29-538.11-307.6l36.8-30.9      c51.35,69.24,168.16,195.3,353.16,223.71C2352.52,2701.92,2435.94,2740.95,2534.97,2759z"/>
			</g>
			<g>
				<path class="st3" d="M2409.75,2789.64c-305.87,0.01-473.78-220.68-532.62-317.39c-5.02-8.26-3.27-18.95,4.13-25.17l36.77-30.91      c4.13-3.48,9.5-5.08,14.89-4.46c5.36,0.63,10.23,3.45,13.44,7.79c58.27,78.6,223.16,256.92,495.08,215.39      c174.2-26.57,251.46-159.59,265.69-275.22c14.17-115.16-29.6-218.03-106.43-250.17c-23.39-9.79-105.03-37-173.8,23.81      c-48.32,42.74-88.1,142.89-25.24,231.7c4.17,5.89,4.76,13.6,1.53,20.06c-3.23,6.46-9.74,10.62-16.96,10.83      c-45,1.32-103.69-27-128.43-83.53c-6.08-13.85-11.15-28.12-15.07-42.4c-0.41-1.5-0.64-3.04-0.69-4.59      c-2.85-95.52,32.32-181.95,99.04-243.36c66.17-60.91,157.82-89.79,251.43-79.21c203.47,22.9,302.87,205.56,309.11,365.59      c3.13,79.6-7.11,229.87-110.89,341.72c-80.49,86.75-200.96,133.56-358.09,139.14c0,0,0,0,0,0      C2424.93,2789.5,2417.29,2789.64,2409.75,2789.64z M2431.94,2769.66h0.05H2431.94z M1919.49,2466.1      c63.87,99.16,226.43,294.12,511.75,283.99c146.34-5.2,257.62-47.8,330.76-126.64c94.16-101.48,103.36-240.01,100.46-313.55      c-4.03-103.3-66.56-304.82-274.36-328.2c-82.33-9.3-162.71,15.89-220.52,69.11c-57.69,53.11-88.34,127.98-86.48,211.04      c3.32,11.69,7.54,23.39,12.54,34.79c11.13,25.43,32.26,43.08,54.17,52.4c-39.41-90.25-8.11-190.91,53.11-245.07      c57.93-51.23,138.25-62.67,214.86-30.6c92.95,38.88,146.49,158.58,130.19,291.08c-15.98,129.87-102.82,279.29-298.65,309.16      c-30,4.58-58.82,6.69-86.39,6.69c-225.29,0.01-369.44-140.62-433.38-220.98L1919.49,2466.1z"/>
			</g>
			<g>
				<path class="st6" d="M2444.37,2654.25c-279.41,42.7-448.85-135.57-513.75-223.12l30.13-25.26      c128.61,117.51,256.59,144.18,358.47,124.25c132.23-25.88,220.52-130.19,209.19-216.44c-4.87-37.15-30.3-60.82-62.07-49.55      c-58.67,20.95-19.54,91.46-58.95,107.94c-4.47,1.93-9.57,3.17-15.12,3.79c-2.15,0.28-4.36,0.4-6.63,0.45      c-66.43-93.89-30.01-206.13,28.26-257.67c60.76-53.74,137.89-50.85,194.35-27.24      C2798.2,2170.86,2779.68,2603.12,2444.37,2654.25z"/>
			</g>
			<g>
				<path class="st7" d="M2320.87,2530.35c-0.57-0.06-1.13-0.17-1.64-0.23c132.23-25.88,220.52-130.19,209.19-216.44      c-4.87-37.15-30.3-60.82-62.07-49.55c-58.67,20.95-19.54,91.46-58.95,107.94c-4.47,1.93-9.57,3.17-15.12,3.79      c-12.63-46.38-24.46-127.59,26.5-177.7c74.64-73.34,172.5-43.04,192.54,45.3C2641.33,2375.35,2489.4,2552.77,2320.87,2530.35z"/>
			</g>
			<g>
				<path class="st7" d="M2283.81,2654.88c-185-28.41-301.81-154.47-353.16-223.71l30.11-25.33      c56.39,51.51,112.68,85.6,166.68,105.88C2167.15,2559.19,2218.97,2610.59,2283.81,2654.88z"/>
			</g>
			<g>
				<path class="st3" d="M2360.96,2680.29c-241.66,0-389.97-161.81-446.06-237.47c-6.17-8.32-4.79-20,3.13-26.66l30.11-25.29      c7.52-6.31,18.55-6.08,25.8,0.54c135.76,124.02,292.7,158.5,419.85,92.22c75.6-39.41,122.98-108.24,115.22-167.38      c-1.98-15.07-8.28-27.2-16.87-32.46c-5.57-3.41-11.85-3.79-19.22-1.17c-19.69,7.02-21.93,20.54-24.48,45.83      c-2.12,21.01-5.01,49.78-33.5,61.68c-8.37,3.56-18.1,5.52-28.82,5.76c-6.38,0.2-12.67-2.94-16.43-8.26      c-69.74-98.55-38.87-221.62,31.27-283.67c57.93-51.23,138.25-62.67,214.86-30.6c92.95,38.88,146.49,158.58,130.19,291.08      c-15.98,129.86-102.84,279.28-298.65,309.16l0,0C2417.35,2678.18,2388.53,2680.29,2360.96,2680.29z M1957.56,2434.1      c66.54,83.93,227.71,239.91,483.88,200.78c0,0,0,0,0,0c174.19-26.57,251.46-159.59,265.68-275.22      c14.17-115.16-29.6-218.03-106.43-250.17c-23.39-9.79-105.03-37-173.8,23.81c-46.6,41.22-85.25,135.83-31.57,222.19      c1.59-0.4,3.06-0.87,4.39-1.44c6.07-2.54,7.75-9.59,9.76-29.53c2.53-25.14,6.36-63.13,50.31-78.8      c18.45-6.55,37.19-4.9,52.81,4.67c18.85,11.54,31.7,33.69,35.25,60.76c9.87,75.13-46.04,160.34-135.95,207.21      c-138.27,72.07-306.01,39.58-451.53-86.61L1957.56,2434.1z"/>
			</g>
			<g>
				<path class="st8" d="M1453.45,2335.62c-135.47-4.5-305.36,51.08-343.11,214.31c-32.93,142.38,70.75,266.38,75.57,272.74      s-42.04,8.45-70.55,30.05c-59.35,44.97-31.88,166.9,45.57,166.9c20.75,0,184.21,0,184.21,0c268.3,0,428.42-194.62,412.56-444.89      c-4.17-65.85-13.83-125.62-27.77-180.11L1453.45,2335.62z"/>
			</g>
			<g>
				<path class="st9" d="M1345.15,3039.61h-184.21c-40.98,0-75.69-27.52-90.58-71.84c-16.72-49.77-3.18-103.64,32.93-131      c15.92-12.07,35.46-18.7,51.08-23.12c-33.67-48.77-90.3-152.43-63.52-268.23c18.42-79.64,68.59-143,145.09-183.25      c62.02-32.63,139.48-49.11,218.18-46.55c11.04,0.37,19.69,9.61,19.32,20.65c-0.37,11.04-9.58,19.62-20.65,19.33      c-126.75-4.17-287.46,45.33-322.97,198.83c-27.42,118.56,47.3,224.89,70.85,254.65l1.17,1.49c4.34,5.72,5.56,13.15,3.26,19.86      c-4.18,12.18-15.22,15.11-30.51,19.17c-13.5,3.58-33.89,8.99-47.16,19.05c-25.22,19.11-28.74,57.92-19.17,86.37      c3.52,10.46,17.7,44.58,52.67,44.58h184.21c120.12,0,221.26-40.11,292.49-115.99c72.25-76.98,107.81-186.24,100.11-307.64      c-3.92-61.85-13.06-121.21-27.18-176.42c-2.74-10.7,3.72-21.6,14.42-24.33c10.71-2.73,21.6,3.72,24.33,14.42      c14.73,57.62,24.27,119.46,28.35,183.8c8.4,132.55-30.98,252.43-110.87,337.55C1587.82,2995.14,1476.6,3039.61,1345.15,3039.61z      "/>
			</g>
			<g>
				<path class="st3" d="M1453.12,2345.62c-42.53,8.84-83.49,13.1-123.56,23.95c-39.72,11.05-77.73,27.76-110.01,51.65      c-131.57,98.79-114.45,263.11-22.24,383.56c1.2,1.61,3.22,4.1,4.42,5.66c0.5,0.65,4.02,5.11,4.45,11.42      c0.29,2.98-0.27,6.54-1.2,8.93c-3.08,8.93-11.77,13.54-19.37,15.74c-12.93,3.84-26.38,6.78-37.76,11.33      c-35.66,11.25-49.65,47.96-43.11,83.15c5.18,32.02,27.96,61.77,61.93,58.62c0,0,8.14,0,8.14,0      c44.91-0.32,151.1,0.72,194.46-0.56c230.93-9.07,379.28-182.52,369.11-410.67c-3.09-63.33-12.1-127.36-27.81-188.82      c-2.74-10.7,3.72-21.59,14.42-24.33s21.6,3.72,24.33,14.42c20.93,86.44,34.12,175.7,27.45,264.77      c-15,191.93-146.99,344.65-338.35,377.04c-43.38,8.45-89.4,8.46-133.36,8.14c0,0-130.26,0-130.26,0h-8.14      c-54.42,3.41-93.55-42.25-101.34-91.75c-6.88-37.51,3.06-82.16,34.15-108.03c21.87-18.34,48.62-24.36,74.05-31.44      c0.9-0.28,1.79-0.61,1.72-0.6c-0.08,0.06-0.28,0.05-1.67,1c-0.39,0.28-0.7,0.52-1.38,1.11c-7.92,6.91-6.78,19.03-2.69,24.25      c-17.24-21.79-32.14-45.43-44.82-70.05c-55.09-103.26-58.83-235.14,18.38-329.1c58.85-72.17,152.27-109.1,243.32-115.73      c22.6-0.94,45.36,0.54,67.39,6.35c5.48,1.44,8.75,7.05,7.3,12.53C1460.05,2342.09,1456.86,2344.89,1453.12,2345.62      L1453.12,2345.62z"/>
			</g>
			<g>
				<path class="st3" d="M1315.06,2902.21c-6.28,35.83-3.97,92.32,41.33,97.92c27.64,5.65,18.56,45.88-8.87,39.04      c-64.62-18.36-69.95-87.97-51.7-142.41C1300.04,2884.76,1317.74,2889.82,1315.06,2902.21L1315.06,2902.21z"/>
			</g>
			<g>
				<path class="st3" d="M1196.43,2902.21c-6.28,35.83-3.97,92.32,41.33,97.92c27.64,5.65,18.56,45.88-8.87,39.04      c-64.62-18.36-69.95-87.97-51.7-142.41C1181.41,2884.76,1199.11,2889.82,1196.43,2902.21L1196.43,2902.21z"/>
			</g>
			<g>
				<path class="st9" d="M1184.55,2832.22c40.41-2.61,79.97-1.33,119.66,6.21c13.16,2.75,26.23,6.3,38.96,11.28      c5.15,2.01,7.69,7.82,5.68,12.97c-1.89,4.85-7.16,7.37-12.03,6c-47.77-11.04-99.01-5.77-146.65,3.16      C1162.32,2876.43,1156.45,2835.58,1184.55,2832.22L1184.55,2832.22z"/>
			</g>
			<g>
				<path class="st10" d="M986.27,2430.96c0,0-38.34,260.61-106.58,434.07c-7.48,19.08-15.35,37.09-23.56,53.63      c-11.89,23.9-28.26,43.38-44.4,58.73c-28.71,27.24-66.82,42.25-106.35,42.25h-142.2c-28.99,0-57.31-12.01-75.71-34.43      c-16.65-20.22-23.45-45.3-22.82-67.96c0.62-21.52,7.93-40.83,19.82-51.93c30.35-27.98,54.48-30.81,71.41-39.08      c11.1-5.32,19.08-13.08,23.73-31.71c15.8-63.71,31.26-220.4,45.59-391.09c17.73-211.34,33.69-444.04,46.1-547.89L986.27,2430.96      z"/>
			</g>
			<g>
				<path class="st8" d="M879.69,2865.03c-0.91,2.38-1.87,4.76-2.83,7.08c-3.23,8.15-6.63,16.14-10.08,23.84      c-0.96,2.27-1.98,4.47-3,6.63c-1.13,2.55-2.32,5.1-3.51,7.53c-1.36,2.89-2.72,5.78-4.13,8.55      c-11.89,23.9-28.26,43.38-44.4,58.73c-28.71,27.24-66.82,42.25-106.35,42.25h-142.2c-28.99,0-57.31-12.01-75.71-34.43      c-16.65-20.22-23.45-45.3-22.82-67.96c34.43,21.69,85.17,37.38,159.24,31.43c95.48-7.7,149.67-51.02,176.74-101.76      C825.5,2851.89,851.83,2857.89,879.69,2865.03z"/>
			</g>
			<g>
				<path class="st11" d="M464.68,2917.25c-0.65,22.63,6.17,47.74,22.81,67.96c18.4,22.4,46.68,34.39,75.72,34.39h142.16      c39.57,0,77.66-14.99,106.36-42.21c16.17-15.34,32.51-34.86,44.39-58.73c82.9-166.56,130.17-487.68,130.17-487.68      l-315.01-575.46c-12.41,103.89-28.34,336.59-46.09,547.94c70.02,114.06,151.1,196.31,188.19,292.79      c28.16,73.14,5.17,236.7-189.49,252.4C549.81,2954.64,499.07,2938.94,464.68,2917.25z"/>
			</g>
			<g>
				<path class="st12" d="M879.69,2865.03c-7.48,19.08-15.35,37.09-23.56,53.63c-11.89,23.9-28.26,43.38-44.4,58.73      c-28.71,27.24-66.82,42.25-106.35,42.25h-142.2c-28.99,0-57.31-12.01-75.71-34.43c-16.65-20.22-23.45-45.3-22.82-67.96      c0.62-21.52,7.93-40.83,19.82-51.93c30.35-27.98,54.48-30.81,71.41-39.08C626.84,2821.48,732.34,2827.26,879.69,2865.03z"/>
			</g>
			<g>
				<path class="st8" d="M879.69,2865.03c-0.91,2.38-1.87,4.76-2.83,7.08c-3.23,8.15-6.63,16.14-10.08,23.84      c-0.96,2.27-1.98,4.47-3,6.63c-1.13,2.55-2.32,5.1-3.51,7.53c-1.36,2.89-2.72,5.78-4.13,8.55      c-11.89,23.9-28.26,43.38-44.4,58.73c-28.71,27.24-66.82,42.25-106.35,42.25h-142.2c-28.99,0-57.31-12.01-75.71-34.43      c-16.65-20.22-23.45-45.3-22.82-67.96c34.43,21.69,85.17,37.38,159.24,31.43c95.48-7.7,149.67-51.02,176.74-101.76      C825.5,2851.89,851.83,2857.89,879.69,2865.03z"/>
			</g>
			<g>
				<path class="st3" d="M996.2,2432.43c-2.44,89.66-20.74,176.99-41.9,263.75c-16.65,65.27-36.23,129.74-62.28,192.05      c-26.33,68.21-73.46,131.03-148.47,147.14c-20.51,5.61-49.2,3.93-70.41,4.23c-21.8-0.04-78.39,0.03-99.51,0c0,0-8.29,0-8.29,0      h-2.07c-35.75,0.06-71.42-15.58-93.6-44.71c-30.46-40.03-36.15-102.4-1.65-141.72c11.73-11.62,23.77-20.68,38.34-28.63      c14.8-8.3,30.99-11.94,43.9-18.7c9.73-6.01,10.18-19.43,13.16-30.05c35.51-202.24,49.76-450.88,70.48-657.06      c8.3-88.27,15.89-176.36,27.43-264.4c0.74-5.47,5.78-9.31,11.25-8.57c5.33,0.72,9.11,5.52,8.62,10.83      c-8.25,87.66-13.54,176.1-19.48,264.34c-16.03,209.91-25.25,456.56-59.32,662.91c-5.26,31.7-15.96,55.05-48.5,65.78      c-23.45,8.25-44.15,17.11-59.88,35.45c-16.16,25.28-10.42,62.41,7.36,85.46c10.43,13.71,26.11,23.24,43.56,27.07      c9.12,2.25,19.31,2.02,28.68,2c0,0,33.17,0,33.17,0c22.04,0,78.12,0,99.39-0.02c33.76-0.11,67.17-13.4,91.66-36.61      c22.75-20.81,39.06-47.11,50.58-75.48c10.87-24.7,20.32-49.92,28.8-75.74c27.22-83.24,46.84-168.66,66.54-254.04      c9.96-42.85,20.12-85.82,32.67-128.33C979.54,2418.54,996.45,2420.57,996.2,2432.43L996.2,2432.43z"/>
			</g>
			<g>
				<path class="st3" d="M552.39,2810.06c36.54-2.57,72.25-2.01,108.16,5.19c11.95,2.61,23.88,6.04,35.4,11.38      c5.02,2.33,7.19,8.28,4.87,13.3c-2.12,4.56-7.23,6.78-11.92,5.39c-10.12-3.04-20.91-4.54-31.84-5.31      c-32.61-1.8-66.69,2.6-98.42,9.57C530.69,2854.84,524.11,2813.72,552.39,2810.06L552.39,2810.06z"/>
			</g>
			<g class="st13">
				<path class="st9" d="M1229.07,2672.77c-3.71,0.5-7.41,0.94-11.04,1.33C1221.3,2673.49,1224.97,2673.02,1229.07,2672.77z"/>
			</g>
			<g class="st13">
				<path class="st9" d="M1231.27,2672.48v0.18c-0.61,0-1.19,0.04-1.8,0.07c-0.14,0-0.25,0-0.4,0.04      C1229.79,2672.66,1230.55,2672.59,1231.27,2672.48z"/>
			</g>
			<g>
				<path class="st10" d="M2138.42,2629.83c-36.75,215.45-149.6,389.8-383.4,389.8c0,0-54.75,0-116.1,0h-166.25      c-69.25,0-215.1-61.75-365.95-169.8c-130.2-93.2-264.2-220.95-355.95-373.2c-118.9-197.2-187-594.3-93.5-857.4l637.4,73.9      c0,0,105.45,133.6,298.65,260.15c130,85.15,384.45,96.95,496.45,294C2172.27,2392.38,2166.97,2462.08,2138.42,2629.83z"/>
			</g>
			<g>
				<path class="st11" d="M1313.87,2461.38c0-0.35,0.1-0.55,0.2-0.65S1314.12,2460.88,1313.87,2461.38z"/>
			</g>
			<g>
				<path class="st11" d="M1638.92,3019.63h-166.25c-69.25,0-215.1-61.75-365.95-169.8c65.9-122.55,200.8-373.8,207.15-388.45      c-1.8,12.7,41.95,200.45,202.55-23.8C1585.27,2341.38,1627.32,2814.83,1638.92,3019.63z"/>
			</g>
			<g>
				<path class="st8" d="M2074.02,2827.77c-61.67,114.85-163.6,191.86-319,191.86c0,0-266.84,0-282.36,0      c-129,0-523.77-214.29-721.92-543.02c-118.87-197.18-186.99-594.27-93.5-857.38l637.42,73.9c0,0,36.87,15.35,106.86,54.82      l-53.69,176.57c0,0-458.65,88.4-429.03,400.2c29.67,311.8,478.63,544.97,738.46,330.15      C1742.97,2584.04,1950.11,2707.48,2074.02,2827.77z"/>
			</g>
			<g>
				<path class="st3" d="M1755.03,3039.95h-282.36c-73.39,0.01-212.61-60.96-346.44-151.71      c-164.81-111.77-304.34-254.22-392.89-401.11c-61.49-102-108.56-252.13-129.14-411.88c-22.4-173.89-10.36-338.26,33.9-462.83      c3.17-8.93,12.08-14.44,21.51-13.39l637.4,73.91c5.36,0.62,10.26,3.36,13.61,7.59c1.04,1.31,106,132.67,293.85,255.75      c41.19,26.99,97.36,46.9,156.84,67.98c125.45,44.47,267.63,94.87,346.15,232.97c87.46,153.83,78.83,232.58,50.97,396.03      C2113.75,2895.52,1970.48,3039.95,1755.03,3039.95z M671.24,1641.32c-82.79,255.21-16.9,635.97,96.94,824.81      c85.57,141.95,220.84,279.9,380.88,388.44c146.62,99.43,270.53,144.71,323.61,144.71h0h282.36      c247.77,0,334.33-202.75,363.32-372.85c28.03-164.51,33.66-228.55-46.24-369.09c-71.03-124.93-205.63-172.64-324.38-214.74      c-61.85-21.92-120.26-42.63-165.54-72.3c-171.64-112.45-273.9-228.92-298.05-257.91L671.24,1641.32z"/>
			</g>
			<g>
				<path class="st10" d="M1822.68,2287.07c-222-22.31-336.62,107.15-351.27,225.52c-19.99,161.51,83.31,303.31,88.15,309.69      c4.84,6.37-42.12,8.46-70.69,30.11c-59.47,45.06-31.94,167.23,45.66,167.23c20.79,0,184.58,0,184.58,0      c268.83,0,420.8-205.31,444.69-435.13c18.79-180.8-44.4-281.44-74.01-337.22L1822.68,2287.07z"/>
			</g>
			<g>
				<path class="st11" d="M1534.54,3019.61c20.8,0,184.57,0,184.57,0c268.83,0,420.77-205.31,444.72-435.09      c0.53-4.87,0.95-9.63,1.37-14.38c-30.42,112.49-116.41,284.87-359.21,348.69c-195.26,51.34-296.16,24.9-347.92-12      C1449.86,2958.52,1479.69,3019.61,1534.54,3019.61z"/>
			</g>
			<g>
				<path class="st8" d="M2027.81,2894.02c-7.14,7.42-14.55,14.55-22.26,21.41c-1.64,1.42-3.28,2.89-4.98,4.36      c-1.98,1.7-4.02,3.46-6.12,5.15c-1.75,1.47-3.57,2.94-5.38,4.36c-2.15,1.76-4.36,3.51-6.63,5.21c-1.87,1.42-3.74,2.89-5.66,4.25      c-0.96,0.79-2.04,1.53-3.06,2.26c-2.32,1.7-4.7,3.34-7.08,4.98c-2.55,1.81-5.15,3.57-7.82,5.32c-0.34,0.23-0.68,0.45-1.08,0.74      c-2.55,1.64-5.1,3.28-7.7,4.87c-0.23,0.17-0.45,0.28-0.68,0.4c-2.72,1.76-5.49,3.4-8.27,5.04c-0.06,0.06-0.17,0.11-0.34,0.17      c-2.15,1.25-4.3,2.49-6.51,3.74c-1.47,0.85-3,1.64-4.47,2.44c-2.1,1.19-4.19,2.32-6.34,3.4c-0.28,0.17-0.57,0.28-0.85,0.45      c-2.83,1.47-5.66,2.89-8.55,4.25c-0.28,0.17-0.57,0.34-0.85,0.45c-2.1,1.02-4.25,2.04-6.4,3.06c-2.66,1.25-5.44,2.44-8.15,3.62      s-5.49,2.38-8.27,3.51c-0.96,0.4-1.93,0.79-2.94,1.19c-2.21,0.91-4.47,1.76-6.74,2.61c-1.02,0.4-2.04,0.79-3.11,1.19      c-2.6,0.96-5.27,1.93-7.93,2.83c-0.68,0.23-1.3,0.45-1.98,0.68c-2.38,0.85-4.81,1.64-7.31,2.44c-1.13,0.4-2.32,0.74-3.46,1.08      c-2.04,0.68-4.08,1.3-6.17,1.87c-1.98,0.62-3.91,1.19-5.89,1.7c-6.34,1.81-12.8,3.45-19.31,4.93      c-3.46,0.79-6.91,1.53-10.42,2.21c-5.89,1.25-11.84,2.32-17.89,3.28c-2.44,0.45-4.87,0.79-7.31,1.13      c-7.53,1.13-15.18,2.04-22.94,2.77c-7.59,0.74-15.23,1.3-22.99,1.64c-3.23,0.17-6.51,0.28-9.8,0.34      c-4.98,0.23-10.02,0.28-15.06,0.28c0,0-163.77,0-184.56,0c-54.87,0-84.72-61.1-76.51-112.81      c51.76,36.92,152.67,63.37,347.93,12.01c54.37-14.33,100.86-34.03,140.61-57.31      C1975.99,2870.75,2003.17,2881.62,2027.81,2894.02z"/>
			</g>
			<g>
				<path class="st12" d="M2027.81,2894.02c-74.24,76.79-177.59,125.61-308.69,125.61c0,0-163.77,0-184.56,0      c-54.87,0-84.72-61.1-76.51-112.81c3.4-21.46,13.37-41.23,30.81-54.42c4.98-3.79,10.53-6.97,16.25-9.68      C1718.55,2807.38,1904.58,2832.07,2027.81,2894.02z"/>
			</g>
			<g>
				<path class="st8" d="M2027.81,2894.02c-7.14,7.42-14.55,14.55-22.26,21.41c-1.64,1.42-3.28,2.89-4.98,4.36      c-1.98,1.7-4.02,3.46-6.12,5.15c-1.75,1.47-3.57,2.94-5.38,4.36c-2.15,1.76-4.36,3.51-6.63,5.21c-1.87,1.42-3.74,2.89-5.66,4.25      c-0.96,0.79-2.04,1.53-3.06,2.26c-2.32,1.7-4.7,3.34-7.08,4.98c-2.55,1.81-5.15,3.57-7.82,5.32c-0.34,0.23-0.68,0.45-1.08,0.74      c-2.55,1.64-5.1,3.28-7.7,4.87c-0.23,0.17-0.45,0.28-0.68,0.4c-2.72,1.76-5.49,3.4-8.27,5.04c-0.06,0.06-0.17,0.11-0.34,0.17      c-2.15,1.25-4.3,2.49-6.51,3.74c-1.47,0.85-3,1.64-4.47,2.44c-2.1,1.19-4.19,2.32-6.34,3.4c-0.28,0.17-0.57,0.28-0.85,0.45      c-2.83,1.47-5.66,2.89-8.55,4.25c-0.28,0.17-0.57,0.34-0.85,0.45c-2.1,1.02-4.25,2.04-6.4,3.06c-2.66,1.25-5.44,2.44-8.15,3.62      s-5.49,2.38-8.27,3.51c-0.96,0.4-1.93,0.79-2.94,1.19c-2.21,0.91-4.47,1.76-6.74,2.61c-1.02,0.4-2.04,0.79-3.11,1.19      c-2.6,0.96-5.27,1.93-7.93,2.83c-0.68,0.23-1.3,0.45-1.98,0.68c-2.38,0.85-4.81,1.64-7.31,2.44c-1.13,0.4-2.32,0.74-3.46,1.08      c-2.04,0.68-4.08,1.3-6.17,1.87c-1.98,0.62-3.91,1.19-5.89,1.7c-6.34,1.81-12.8,3.45-19.31,4.93      c-3.46,0.79-6.91,1.53-10.42,2.21c-5.89,1.25-11.84,2.32-17.89,3.28c-2.44,0.45-4.87,0.79-7.31,1.13      c-7.53,1.13-15.18,2.04-22.94,2.77c-7.53,0.74-15.23,1.3-22.99,1.64c-3.23,0.17-6.51,0.28-9.8,0.34      c-4.98,0.23-10.02,0.28-15.06,0.28c0,0-163.77,0-184.56,0c-54.87,0-84.72-61.1-76.51-112.81      c51.76,36.92,152.67,63.37,347.93,12.01c54.37-14.33,100.86-34.03,140.61-57.31      C1975.99,2870.75,2003.17,2881.62,2027.81,2894.02z"/>
			</g>
			<g>
				<path class="st3" d="M1821.68,2297.02c-138.62-7.26-283.81,47.51-324.29,191.15c-25.39,106.94,12.27,219.46,69.87,310.07      c1.52,2.24,5.58,8.34,7.14,10.45c0,0,1.06,1.45,1.06,1.45c1.4,1.72,5.04,7.48,4.36,14.77c-0.25,3.55-1.53,6.67-2.68,8.7      c-7.13,11.64-18.62,12.37-29.62,15.79c-36.54,8.82-65.32,22.05-70.14,63.82c-5.13,36.2,16.02,86.29,56.37,86.35      c2.11,0.15,10.78-0.06,13.25,0.02c47.93,0.09,114.6-0.07,162.66,0c103.84,2.5,208.68-30.62,285.39-101.71      c136.22-126.21,181.46-336.33,133.77-513.13c-12.94-45.61-33.49-86.18-56.69-128.14c-11.86-23.34,21.79-42.04,35.21-18.97      c51.48,88.51,81.33,181.15,79.87,284.45c-0.24,279.49-181.5,524.85-477.55,517.49c-40.35,0-104.24,0-144.59,0      c-5.65-0.11-21.56,0.08-27.11,0c-34.48,1.94-67.85-19.57-83.84-49.04c-28.74-49.94-23.34-123,26.91-157.16      c21.59-14.48,44.03-19.02,67.49-25.86c-8.27,4.5-11.83,18.09-4.93,26.75c-6.93-9.49-13.75-20.07-19.79-30.09      c-56.72-96.17-92.92-215.11-66.73-326.66c42.96-161.37,213.68-228.06,366.63-200.43      C1836,2279.4,1834.14,2297.34,1821.68,2297.02L1821.68,2297.02z"/>
			</g>
			<g>
				<path class="st3" d="M1550.85,2807.1c46.12-3.34,91.49-2.24,136.9,6.03c15.06,3.03,30.02,6.97,44.58,12.54      c5.16,1.97,7.75,7.76,5.77,12.92c-1.83,4.8-6.97,7.37-11.83,6.12c-13.63-3.51-27.7-5.59-41.92-6.81      c-42.43-2.92-86.37,0.99-127.95,8.83C1528.82,2851.14,1523.03,2810.49,1550.85,2807.1L1550.85,2807.1z"/>
			</g>
			<g>
				<path class="st3" d="M1687.73,2901.97c-6.3,35.91-3.98,92.54,41.42,98.16c27.64,5.65,18.55,45.87-8.87,39.04      c-64.73-18.39-70.06-88.12-51.79-142.65C1672.72,2884.52,1690.41,2889.58,1687.73,2901.97L1687.73,2901.97z"/>
			</g>
			<g>
				<path class="st3" d="M1568.86,2901.97c-6.3,35.91-3.98,92.54,41.42,98.16c27.64,5.65,18.55,45.87-8.87,39.04      c-64.73-18.39-70.06-88.11-51.79-142.65C1553.84,2884.52,1571.54,2889.58,1568.86,2901.97L1568.86,2901.97z"/>
			</g>
			<g>
				<path class="st3" d="M660.4,2901.76c-6.32,35.99-4,92.73,41.51,98.38c27.63,5.66,18.54,45.87-8.88,39.03      c-64.83-18.41-70.16-88.25-51.87-142.86C645.38,2884.3,663.09,2889.36,660.4,2901.76L660.4,2901.76z"/>
			</g>
			<g>
				<path class="st3" d="M541.32,2901.76c-6.32,35.99-4,92.73,41.51,98.38c27.63,5.66,18.55,45.87-8.88,39.03      c-64.83-18.41-70.16-88.25-51.87-142.86C526.3,2884.3,544,2889.36,541.32,2901.76L541.32,2901.76z"/>
			</g>
			<g>
				<path class="st10" d="M1314.1,2448.52c0,0-15.46,74.64-41.51,170.46c-21.69,79.85-50.63,174.31-83.98,252.51      c-6.8,15.97-13.76,31.26-20.95,45.64c-12.06,24.24-28.65,44.06-45.08,59.63c-29.05,27.64-67.79,42.87-107.94,42.87H870.29      c-29.5,0-58.16-12.18-76.85-34.94c-18.29-22.31-24.92-50.29-22.88-74.7c1.58-19.48,8.66-36.75,19.82-47      c24.29-22.48,45.53-28.77,62.01-34.49c18.06-6.34,30.35-11.95,34.54-37.43c12.63-76.11,19.6-272.45,33.3-489.06L1314.1,2448.52z      "/>
			</g>
			<g>
				<path class="st11" d="M793.42,2984.68c18.7,22.75,47.39,34.92,76.84,34.92h144.39c40.16,0,78.84-15.23,107.94-42.86      c16.4-15.58,32.98-35.39,45.03-59.62c42.21-84.66,78.84-202.01,104.94-298.14c-58.79,132.99-151.56,289.1-266.2,317.89      c-112.98,28.38-204.69,10.19-235.83-26.87C768.55,2934.42,775.14,2962.4,793.42,2984.68z"/>
			</g>
			<g>
				<path class="st8" d="M1188.61,2871.49c-0.06,0.11-0.11,0.23-0.17,0.34c-2.83,6.74-5.78,13.42-8.72,19.88      c-0.11,0.28-0.23,0.51-0.34,0.79c-1.19,2.66-2.43,5.27-3.63,7.87c-2.66,5.72-5.38,11.33-8.1,16.76      c-12.06,24.24-28.65,44.06-45.08,59.63c-29.05,27.64-67.79,42.87-107.94,42.87H870.29c-29.5,0-58.16-12.18-76.85-34.94      c-18.29-22.31-24.92-50.29-22.88-74.7c31.15,37.09,122.83,55.27,235.81,26.9c44.34-11.16,85.4-41.34,122.49-81.83      C1147.95,2859.82,1167.82,2865.31,1188.61,2871.49z"/>
			</g>
			<g>
				<path class="st12" d="M1188.61,2871.49c-6.8,15.97-13.76,31.26-20.95,45.64c-12.06,24.24-28.65,44.06-45.08,59.63      c-29.05,27.64-67.79,42.87-107.94,42.87H870.29c-29.5,0-58.16-12.18-76.85-34.94c-18.29-22.31-24.92-50.29-22.88-74.7      c1.58-19.48,8.66-36.75,19.82-47c24.29-22.48,45.53-28.77,62.01-34.49C924.49,2819.56,1032.42,2824.82,1188.61,2871.49z"/>
			</g>
			<g>
				<path class="st8" d="M1188.61,2871.49c-0.06,0.11-0.11,0.23-0.17,0.34c-2.83,6.74-5.78,13.42-8.72,19.88      c-0.11,0.28-0.23,0.51-0.34,0.79c-1.19,2.66-2.43,5.27-3.63,7.87c-2.66,5.72-5.38,11.33-8.1,16.76      c-12.06,24.24-28.65,44.06-45.08,59.63c-29.05,27.64-67.79,42.87-107.94,42.87H870.29c-29.5,0-58.16-12.18-76.85-34.94      c-18.29-22.31-24.92-50.29-22.88-74.7c31.15,37.09,122.83,55.27,235.81,26.9c44.34-11.16,85.4-41.34,122.49-81.83      C1147.95,2859.82,1167.82,2865.31,1188.61,2871.49z"/>
			</g>
			<g>
				<path class="st3" d="M1323.85,2450.52c-13.73,140.13-56,274.34-106.76,405.22c-14.13,33.12-27.34,67.5-47.75,97.48      c-32.62,48.06-85.35,83.6-144.4,86.06c-16.94,1.03-36.76-0.07-53.22,0.33c0,0-104.65-0.08-104.65-0.08      c-30.99-0.61-62.37-13.43-83.93-36.31c-43.38-45.27-47.62-131.18,8.83-167.88c15-11.41,34.58-20.22,51.76-25.96      c14.1-5.36,18.94-6.05,21.7-18.61c13.27-93.1,15.86-187.73,23.25-281.92c5.27-69.23,11.29-138.52,21.59-207.49      c0.82-5.48,5.93-9.26,11.41-8.44c4.91,0.73,8.45,4.91,8.55,9.71c1.57,69.61-0.1,138.97-2.47,208.39      c-5.1,96.15-6.22,193.16-20.98,288.94c-10.73,51.65-57.21,42.94-90.82,68.26c-5.72,4.22-12.82,9.98-15.14,13.25      c-22.59,32.44-7.63,87.66,27.31,106.91c11.88,6.93,25.83,10.87,39.95,11.16l103.64,0.06c14.1-0.46,37.72,0.53,50.91-0.26      c47.03-1.86,88.05-30.96,113.92-69.04c18.53-27.53,29.92-59.11,42.78-89.68c24.95-63.87,44.89-129.87,64.29-195.75      c19.52-66.18,36.91-133.09,60.7-198.58C1308.03,2435.77,1324.71,2438.58,1323.85,2450.52L1323.85,2450.52z"/>
			</g>
			<g>
				<path class="st3" d="M848.22,2809.01c36.84-3.21,72.84-2.59,109.1,4.18c12.02,2.49,23.96,5.78,35.56,10.46      c11.33,4.69,5.79,21.82-6.11,19.01c-10.59-2.6-21.55-4-32.64-4.68c-32.87-1.41-67.12,2.91-98.93,10.41      C827.27,2854.28,819.91,2813.12,848.22,2809.01L848.22,2809.01z"/>
			</g>
			<g>
				<path class="st3" d="M968.82,2899.92c-6.5,36.67-4.11,94.39,42.22,100.22c27.59,5.69,18.5,45.84-8.89,39.03      c-65.66-18.62-71.02-89.4-52.56-144.7C953.8,2882.45,971.52,2887.51,968.82,2899.92L968.82,2899.92z"/>
			</g>
			<g>
				<path class="st3" d="M847.92,2899.92c-6.5,36.67-4.11,94.39,42.22,100.22c27.59,5.69,18.5,45.84-8.89,39.03      c-65.66-18.62-71.02-89.4-52.56-144.7C832.89,2882.45,850.61,2887.51,847.92,2899.92L847.92,2899.92z"/>
			</g>
			<g class="st14">
				<path class="st15" d="M1723.9,2344.61c0,0-136.28,26.88-175.89,148.1c-37.61,115.08,23.77,134.69,42.78,71.31      C1609.81,2500.63,1629.89,2425.36,1723.9,2344.61z"/>
			</g>
			<g>
				<path class="st10" d="M1201.95,709.23l-369.44,44.28l-499.97,59.87c-60.26-152.61-14.99-541.69,113.56-647.71      c38.81-31.98,85.18-38.16,138.56-4.26C719,246.75,883.98,555.44,1201.95,709.23z"/>
			</g>
			<g class="st16">
				<path class="st15" d="M1201.95,709.23l-66.37,7.97C849.64,556.97,695.01,276,567.83,195.22c-53.38-33.9-99.75-27.72-138.56,4.26      c-20.26,16.72-38.47,40.54-54.57,69.29c19.76-44.08,43.62-80.18,71.41-103.1c38.81-31.98,85.18-38.16,138.56-4.26      C719,246.75,883.98,555.44,1201.95,709.23z"/>
			</g>
			<g>
				<path class="st11" d="M832.51,753.51l-499.97,59.87c-60.26-152.61-14.99-541.69,113.56-647.71      c22.23-1.96,46.66,6.67,69.89,36.64C575.45,278.96,672.44,628.4,832.51,753.51z"/>
			</g>
			<g>
				<path class="st3" d="M332.53,833.74c-8.11,0-15.77-4.88-18.92-12.88c-30.7-77.76-36.52-212.56-15.19-351.78      c23.15-151.16,72.23-267.42,134.65-318.98c48.83-40.35,105.02-42.37,162.49-5.86c51.29,32.59,105.77,94.93,168.85,167.11      c110.36,126.29,247.71,283.46,446.41,379.58c10.11,4.89,14.34,17.05,9.45,27.17c-4.89,10.11-17.06,14.35-27.17,9.45      C986.93,627.83,846.56,467.2,733.77,338.13c-61.01-69.81-113.7-130.11-160.03-159.55c-42.33-26.89-79.87-25.95-114.77,2.89      c-54.02,44.62-99.01,154.44-120.35,293.78c-19.99,130.51-14.96,260.31,12.82,330.68c4.12,10.45-1,22.26-11.45,26.39      C337.54,833.28,335.01,833.74,332.53,833.74z"/>
			</g>
			<g>
				<path class="st12" d="M711.66,487.56L354.28,726.68c0.43-5.51-1.23-88.29,9.31-179.27c4.6-39.98,11.58-81.5,22.13-118.74      c26.97-95.13,59.92-156.68,84.78-180.99c7.05-6.87,13.43-10.75,18.84-11.58C532.13,229.54,583.49,333.11,711.66,487.56z"/>
			</g>
			<g class="st17">
				<path class="st3" d="M711.66,487.56L354.28,726.68c0.43-5.51-1.23-88.29,9.31-179.27c16.01-3.12,35.94-10.28,57.01-25.58      c30.67-22.21,89.39-76.28,98.6-139.37c4.9-33.4-19.18-89.28-48.7-134.79c7.05-6.87,13.43-10.75,18.84-11.58      C532.13,229.54,583.49,333.11,711.66,487.56z"/>
			</g>
			<g>
				<path class="st3" d="M354.3,747.03c-3.55,0-7.1-0.93-10.28-2.79c-6.65-3.89-10.52-11.21-10.01-18.89      c0.05-1.16,0.05-3.79,0.06-7.67c0.52-122.13,11.32-221.24,32.09-294.57c25.78-91,72.71-199.85,120.12-207.11      c39.98-6.14,71.02,35.72,132.87,119.1c28.46,38.36,63.88,86.11,108.15,139.47c3.68,4.43,5.3,10.21,4.48,15.91      s-4.03,10.78-8.82,13.98L365.61,743.59C362.2,745.88,358.25,747.03,354.3,747.03z M493.55,256.13c-0.38,0-0.75,0.03-1.11,0.08      c-10.48,3.3-51.39,51.77-87.14,177.99c-12.66,44.68-27.69,124.21-30.21,254.1l306.6-205.17      c-38.35-47.14-69.58-89.24-95.21-123.8C547.13,306.29,509.92,256.13,493.55,256.13z"/>
			</g>
			<g>
				<path class="st3" d="M577.13,592.59c-2.93,0-5.87-0.86-8.41-2.58c-49.38-33.41-76.03-62.46-81.47-88.81      c-5.47-26.57,3.02-42.22,11.11-50.67c12.31-12.86,30.84-17.14,48.16-17.79c-6.23-11.77-11.07-26.15-8.46-40.48      c1.59-8.75,6.74-21.17,22.23-30.68c19.09-11.74,44.93-8.79,76.82,8.75c1.87,1.03,3.49,2.44,4.77,4.14      c18.39,24.52,46.84,61.93,81.32,103.52c2.71,3.27,3.91,7.53,3.3,11.73s-2.97,7.95-6.5,10.31l-134.52,90.03      C582.95,591.74,580.04,592.59,577.13,592.59z M551.35,462.62c-14.6,0-25.91,3-31.32,8.65c-4.54,4.74-5.68,12.77-3.4,23.86      c3.32,16.07,25.26,39.26,60.64,64.31l112.28-75.14c-28.97-35.46-53.05-67.06-69.69-89.19c-19.79-10.4-35.3-13.24-43.87-7.97      c-6.57,4.03-7.95,7.92-8.42,10.49c-1.62,8.87,4.4,22.16,17.87,39.52c2.97,3.82,8.49,10.93,3.75,19.72      c-2.82,5.23-8.53,8.34-14.45,7.86c-0.26-0.02-1-0.1-2.17-0.29C565,463.22,557.85,462.62,551.35,462.62z"/>
			</g>
			<g>
				<path class="st10" d="M1711.29,1105.83L1542.13,930.9l-373.93-386.65c195.33-234.69,476.7-327.74,564.29-282.72      c12.23,6.27,23.22,18.41,32.62,36.21C1818.65,398.74,1821.84,681.65,1711.29,1105.83z"/>
			</g>
			<g class="st16">
				<path class="st15" d="M1789.89,375.36c-4.93-17.55-10.65-32.46-17.15-44.68c-9.39-17.8-20.39-29.95-32.62-36.21      c-85.92-44.17-358.28,44.53-552.92,269.4l-18.98-19.62c195.33-234.69,476.7-327.74,564.29-282.72      c12.23,6.27,23.22,18.41,32.62,36.21C1775.35,317.05,1783.76,343.02,1789.89,375.36z"/>
			</g>
			<g>
				<path class="st11" d="M1711.29,1105.83L1542.13,930.9c-17.48-82.68-31.17-206.27,5.71-318.84      c55.52-169.32,122.61-346.69,217.27-314.31C1818.65,398.74,1821.84,681.65,1711.29,1105.83z"/>
			</g>
			<g>
				<path class="st3" d="M1711.32,1126.16c-1.7,0-3.43-0.21-5.14-0.66c-10.87-2.83-17.39-13.94-14.55-24.81      c74.84-287.14,89.85-478.41,89.25-588.31c-0.81-150.19-30.33-218.72-57.68-232.77c-75.85-38.96-349.29,49.3-539.35,277.63      c-7.19,8.63-20.01,9.8-28.65,2.62c-8.63-7.19-9.8-20.01-2.62-28.65c199.72-239.94,490.58-338.46,589.2-287.79      c50.64,26.02,78.97,121.46,79.77,268.73c0.61,112.32-14.61,307.39-90.57,598.79C1728.6,1120.1,1720.35,1126.16,1711.32,1126.16z      "/>
			</g>
			<g>
				<g>
					<path class="st10" d="M21.28,1441.5c1.31,17.57,3.8,34.94,7.48,52.05c46.35,219.58,280.39,397.62,683.2,489.14l246.12,34.82       c404.38,31.51,738.95-37.18,845.83-303.03c19.79-49.25,35.6-108.81,45.38-175.06c37.33-250.12-9.56-595.22-239.4-836.84       c-243.3-255.8-620.71-269.64-702.74-273.29c-493.79-22.13-644.72,312.19-782.91,715.17c-0.02,0.13-11.29,11.95-26.39,33.45       c-6.33,8.98-13.31,19.73-20.42,32C46.91,1262.53,13.89,1343.76,21.28,1441.5z"/>
				</g>
			</g>
			<g>
				<g>
					<path class="st12" d="M21.28,1441.5c18.36,243.34,256.52,442.53,690.68,541.19l246.12,34.82       c404.38,31.51,738.95-37.18,845.83-303.03c19.79-49.25,35.6-108.81,45.38-175.06c-54.58-39-144.42-87.33-289.37-116.55       c-278.01-56.04-336.59,88.24-457.81,50.82c-118.73-36.65-123.83-182.41-337.59-188.33c-137.21-3.8-178.49,84.88-233.93,89.14       c-142.61,10.95-214.24-188.12-432.74-196.59C64.49,1225.6,12.15,1320.94,21.28,1441.5z"/>
				</g>
			</g>
			<g>
				<g>
					<path class="st8" d="M1849.32,1539.43c-9.8,66.22-25.63,125.79-45.41,175.03c-106.89,265.85-441.43,334.57-845.81,303.04       l-246.13-34.82c-359.41-81.68-584.47-232.2-661.7-419.65c111.55,147.02,324.1,264.31,629.87,333.81l256.58,36.27       c421.62,32.85,770.42-38.75,881.86-315.91c9.89-24.57,18.82-51.63,26.52-80.81       C1846.54,1537.43,1847.95,1538.45,1849.32,1539.43z"/>
				</g>
			</g>
			<g>
				<path class="st12" d="M611.48,1448.81c0,0-21.77,45.28,17.78,72.92c49.23,34.41,106.61-5.75,121.1-24.09      c3.37-4.27,12.24-2.88,13.33,2.44c5.96,29,38.2,90.11,108.76,78.67c27.73-4.49,57.67-31.28,51.27-65.34l-105.39-177.44      L611.48,1448.81z"/>
			</g>
			<g>
				<path class="st8" d="M918.55,1546.29c-9.41,17.38-28.25,29.57-46.12,32.44c-70.52,11.44-102.79-49.63-108.75-78.69      c-1.09-5.31-9.93-6.68-13.35-2.39c-14.45,18.35-71.85,58.49-121.05,24.09c-17.95-12.5-23.28-28.64-23.74-42.55      c62.23,26.35,125.53-4.32,136.34-45.21c1.89-7.16,67.73-21,66.01-13.78c-16.74,70.47,14.07,141.8,110.38,126.15      C918.35,1546.35,918.48,1546.29,918.55,1546.29z"/>
			</g>
			<g>
				<path class="st3" d="M933.55,1511.57c12.55,36.94-18.06,76.2-53.7,85.11c-11.49,2.87-23.83,4.15-35.63,3.37      c-50.81-3.56-88.89-48.35-100.32-95.6c0,0-0.07-0.28-0.07-0.28c0.27,1.53,0.86,3.01,1.59,4.36c4.61,8.61,15.5,8.98,20.86,1.93      c-2.58,3.2-5.55,6.42-8.24,8.99c-28.16,26.43-67.74,43.02-106.55,33.74c-41.97-10.43-71.99-49.14-56.67-92.84      c3.14-8.5,9.18-25.92,21.4-19c4.18,2.58,5.33,7.4,4.27,11.79c-6.7,34.17,10.47,57.37,44.98,61.11      c21.27,1.92,47.68-9.91,64.32-24.78c1.78-1.6,3.09-2.98,4.45-4.45c4.21-5.56,12.12-9.5,18.21-10.02      c15.15-1.99,29.58,8.04,31.78,23.86c3.67,14.99,12.78,30.51,23.93,41.35c17.07,16.14,40.57,21.87,63.41,19.25      c21.74-3.08,42.62-21.39,42.35-44.94C914.2,1503.39,930.09,1501.16,933.55,1511.57L933.55,1511.57z"/>
			</g>
			<g>
				<path class="st3" d="M666.04,1323.66c-6.45,35.83,27.8,74.67,55.08,99.24c18.89,17.01,45.84,21.86,69.47,12.5      c34.13-13.52,79.77-37.98,86.22-73.82C887.27,1303.38,676.51,1265.46,666.04,1323.66z"/>
			</g>
			<g class="st18">
				<path class="st15" d="M718.29,1320.05c-1.19,6.63,12.53,15.14,23.26,20.71c7.43,3.85,17.4,5.65,25.7,4.62      c11.99-1.48,27.83-4.68,29.02-11.3C798.21,1323.31,720.23,1309.29,718.29,1320.05z"/>
			</g>
			<g>
				<path class="st3" d="M745.75,1508.93c-3.09-6.26-17.34-42,5.62-131.25c2.75-10.7,13.67-17.14,24.35-14.39      c10.7,2.75,17.14,13.66,14.39,24.35c-19.41,75.45-8.32,103.93-8.2,104.21l-0.3-0.63L745.75,1508.93z"/>
			</g>
			<g>
				<path class="st19" d="M21.28,1441.5c1.31,17.57,3.8,34.94,7.48,52.05c23.31,10.11,49.05,17.88,76.51,22.66      c126.04,21.93,240.03-27.87,254.52-111.18c14.49-83.31-75.98-168.68-202.01-190.61c-27.66-4.81-54.78-6.17-80.34-4.5      C46.91,1262.53,13.89,1343.76,21.28,1441.5z"/>
			</g>
			<g>
				
					<ellipse transform="matrix(0.1714 -0.9852 0.9852 0.1714 -375.8146 2735.8198)" class="st19" cx="1438.54" cy="1591.33" rx="153.14" ry="231.72"/>
			</g>
			<g>
				<g>
					<path class="st3" d="M1728.06,842.37c135.41,206.55,178.55,466.71,140,709c0,0-2.41,14.64-2.41,14.64       c-0.45,4.95-3.89,9.35-4.19,14.32c-11.55,58.91-25.26,116.55-52.01,171.44c-70.24,149.02-229.72,232.01-384.26,263.63       c-153.47,32.84-313.09,33.01-467.74,10.34c-9.54-1.87-9.53-15.92,1.28-16.46c77.44,0.44,154.47,0.58,231.08-3.4       c494.86-23.93,676.83-221.13,646.63-716.81c-11.06-151.75-51.18-302.01-124.51-437c-2.48-4.57-0.79-10.29,3.78-12.77       C1720.03,836.96,1725.39,838.37,1728.06,842.37L1728.06,842.37z"/>
				</g>
				<g>
					<path class="st3" d="M709.86,1991.86c-246.37-41.29-549.91-161.96-667.77-397.62c-76.81-153.06-44.86-335.93,66.36-463.28       c0.84-0.92-1.55,1.52-2.8,4.06c-1.3,2.49-2.01,5.34-2.12,7.86l0.99-4.93c60.51-182.23,129.22-368.24,257.16-515.53       c188.91-219.06,449.31-242.35,718.45-192.2c63.24,11.51,125.51,28.35,185.66,50.92c11.43,4.95,6.65,21.95-6.16,19.02       c-30.34-8.66-61-15.96-91.79-22.41c-91.68-20.16-186.66-27.47-280.42-29.22c-453-19.21-621.21,326.14-743.4,702.46       c0,0,0.98-4.93,0.98-4.93c-0.25,2.67-1.1,5.68-2.53,8.32c-1.38,2.7-3.91,5.29-3.21,4.52       c-64.54,74.79-103.41,174.86-97.82,273.98c6.49,155.02,116.59,282.39,242.94,362.57c131.07,84.39,280.82,133.96,429.66,178.06       c5,1.47,7.85,6.71,6.38,11.71C719.05,1989.82,714.48,1992.6,709.86,1991.86L709.86,1991.86z"/>
				</g>
			</g>
			<g>
				<path class="st12" d="M1209.77,1066.73c11.64-32.05-77.52-157.85-146.22-141.04c-68.7,16.82-70.21,89.65-34.59,116.59      C1080.7,1081.41,1198.13,1098.78,1209.77,1066.73z"/>
			</g>
			<g>
				<path class="st12" d="M485,969.88c-0.79-34.08,114.02-124.57,169.15-86.57s35.11,107.45-3.92,121.52      C593.53,1025.25,485.78,1003.97,485,969.88z"/>
			</g>
			<g>
				<path class="st12" d="M1699.38,742.44c-6.4,20.03-13.91,38.28-22.66,53.98c-152.7-180.77-272.73-159.72-260.15-253.29      c13.67-101.29,187.31-218.02,288.33-210.06c6.27,0.49,11.83,12.6,16.3,32.85C1737.34,439.97,1737.97,622.68,1699.38,742.44z"/>
			</g>
			<g class="st17">
				<path class="st3" d="M1699.38,742.44c-6.4,20.03-13.91,38.28-22.66,53.98c-152.7-180.77-272.73-159.72-260.15-253.29      c13.67-101.29,187.31-218.02,288.33-210.06c6.27,0.49,11.83,12.6,16.3,32.85c-50.88,11.46-134.48,42.99-151.02,127.48      C1548.45,604.56,1651.02,647.87,1699.38,742.44z"/>
			</g>
			<g>
				<path class="st3" d="M1676.72,816.43c-5.85,0-11.46-2.57-15.28-7.09c-71.53-84.68-135.38-123.61-182.01-152.03      c-50.81-30.98-90.94-55.44-82.67-116.84c15.57-115.49,200.68-235.86,309.69-227.34l0,0c6.89,0.54,16.68,4.12,24.16,18.07      c28.79,53.69,36.45,344.03-36.42,474.97c-3.19,5.74-9,9.55-15.54,10.18C1678.01,816.39,1677.36,816.43,1676.72,816.43z       M1694.94,352.67c-90.14,0-246.6,104.59-258.53,193.12c-4.57,33.89,11.71,45.56,63.85,77.35      c44.56,27.17,104.1,63.47,171.51,137.33c53.57-130.14,43.51-367.74,25.06-407.79C1696.2,352.68,1695.57,352.67,1694.94,352.67z       M1703.31,352.99h0.05H1703.31z"/>
			</g>
			<g>
				<path class="st3" d="M1564.11,607.95c-2.46,18.77-19.32,28.72-34.78,32.59c-6.11,1.81-9.95,3.32-12.07,4.88      c0.12,0.16,0,0.02-0.07,0.09c0.12,0.24-0.12,0.11-0.17,0.51c0.05,1.78-1.45,5.02-1.79,6.6c-2.28,7.29-10.03,11.35-17.32,9.08      c-25.28-14.7-51.92-29.38-73.88-50.41c-41.23-39.61-19.27-104.74,10.35-144.09c1.82-2.63,4.42-4.46,7.26-5.35      c24.39-9.67,55.53-14.1,81.38-2.27c36.49,16.1,48.13,55.12,14.78,80.87c-15.6,11.13-32.46,15.67-50.98,15.96      c0,0,0.92-14.06,0.92-14.06C1518.24,550.63,1567.97,568.4,1564.11,607.95L1564.11,607.95z M1534.43,603.6      c0.73-16.41-19.51-28.51-32.2-37c-6.12-3.76-12.72-7.41-19.1-10.43c-3.73-1.76-5.33-6.21-3.56-9.94      c0.88-2.02,2.66-3.17,4.48-4.11c13.37-6.77,27.24-14.17,35.88-22.82c14.96-14.72,5.11-23.28-9.89-30.64      c-18.73-7.75-38.76-4.31-59.23,0.83c0,0,7.25-5.35,7.25-5.35c-21.36,30.03-43.16,77.07-13.18,106.83      c18.68,18.02,42.44,30.11,65.04,44.44c0,0-22.17,12.76-22.17,12.76c-0.87-21.14,16-31.61,32.6-35.93      c5.34-1.67,9.72-3.3,11.71-4.78C1533.96,605.9,1533.8,605.88,1534.43,603.6L1534.43,603.6z"/>
			</g>
			<g>
				<path class="st20" d="M1064.93,363.75c-2.14,0.67-4.28,1.34-6.43,1.93c4.3-1.19,8.58-2.53,12.86-3.87      C1069.22,362.49,1067.08,363.16,1064.93,363.75z"/>
			</g>
			<g>
				<path class="st20" d="M1086.47,356.9c-2.06,0.73-4.13,1.39-6.2,2.06c2.06-0.73,4.13-1.39,6.19-2.13      c2.5-0.78,4.99-1.63,7.48-2.49C1091.45,355.2,1088.97,356.05,1086.47,356.9z"/>
			</g>
			<g>
				<path class="st20" d="M1058.5,365.68c4.3-1.19,8.58-2.53,12.86-3.87c-2.14,0.67-4.28,1.34-6.43,1.93      C1062.79,364.42,1060.65,365.09,1058.5,365.68z"/>
			</g>
			<g>
				<path class="st20" d="M1093.95,354.34c-2.49,0.85-4.98,1.71-7.47,2.56c-2.06,0.73-4.13,1.39-6.2,2.06      c2.06-0.73,4.13-1.39,6.19-2.13C1088.97,356.05,1091.45,355.2,1093.95,354.34z"/>
			</g>
			<g>
				<g>
					<path class="st21" d="M1158.82,603.23c-0.47,1.69-0.99,3.38-1.5,5c-0.31,1.15-0.68,2.28-1.1,3.36       c-40.35,14.39-96.47,23.71-178.89,11.54c-44.67-6.6-81.07-20.29-110.01-36.11c91.05-11.55,213.17-37.39,300.81-91.29       c0.36,29.92-0.71,56.9-3.63,79.32C1163.14,585.28,1161.23,594.62,1158.82,603.23z"/>
				</g>
				<g>
					<path class="st20" d="M1168.14,495.73c-87.64,53.89-209.76,79.73-300.81,91.29c-14.64-7.91-27.4-16.48-38.36-24.84       c-0.06-0.01-0.06-0.01-0.05-0.06c-0.05-2.01-0.04-4.07-0.02-6.13c0.05-1.93,0.05-3.94,0.17-5.92c0.17-3.97,0.43-8.1,0.88-12.31       c0.19-2.08,0.44-4.21,0.71-6.4c1.8-13.7,4.67-28.93,8.59-45.24c0.05-0.28,0.11-0.61,0.22-0.93c1.14-4.95,2.43-10.05,3.73-15.25       c0.13-0.43,0.26-0.87,0.34-1.31c1.39-5.36,2.9-10.82,4.44-16.39c0.84-2.89,1.64-5.84,2.48-8.72       c2.56-8.82,5.33-17.89,8.29-27.04c0.78-2.5,1.54-4.94,2.37-7.42l0.02-0.11c0.98-0.06,1.97-0.17,2.96-0.23       c0.7-0.05,1.45-0.09,2.21-0.19c0.52-0.02,1.05-0.1,1.57-0.13c0.23-0.02,0.46-0.03,0.7-0.11c2.03-0.16,4.12-0.37,6.22-0.58       c3.9-0.41,7.81-0.82,11.89-1.26c3.44-0.38,6.94-0.8,10.57-1.26c7.36-0.9,14.96-1.87,22.82-2.96c0.36-0.11,0.77-0.15,1.18-0.2       c6.74-0.95,13.67-1.98,20.66-3.05c1.34-0.17,2.64-0.4,4.05-0.61c1.53-0.25,3.12-0.49,4.77-0.77c1.06-0.16,2.18-0.37,3.3-0.57       c3.06-0.5,6.19-1.04,9.32-1.64l0.06-0.05c2.41-0.38,4.78-0.83,7.19-1.21c4.43-0.83,8.87-1.67,13.31-2.55       c3.49-0.65,6.98-1.36,10.49-2.13c0.65-0.12,1.3-0.23,1.95-0.35c0.95-0.18,1.84-0.37,2.73-0.56c0.59-0.13,1.2-0.31,1.79-0.43       c7.06-1.47,14.2-3.09,21.3-4.77c6.32-1.48,12.65-3.01,18.94-4.67c2.27-0.58,4.49-1.16,6.71-1.75c2.15-0.54,4.32-1.14,6.42-1.75       c2.03-0.5,4.07-1.07,6.13-1.68c2.04-0.56,4.08-1.12,6.14-1.74c3.56-1.04,7.11-2.08,10.67-3.18c2.11-0.61,4.28-1.26,6.41-1.98       c0.91-0.3,1.82-0.6,2.73-0.9c4.17-1.28,8.24-2.63,12.37-4.03c4.98-1.65,9.96-3.36,14.86-5.2c2.49-0.83,4.94-1.77,7.39-2.72       c0.55-0.19,1.1-0.38,1.59-0.58c0.55-0.19,1.1-0.38,1.6-0.64c1.34-0.46,2.63-0.97,3.91-1.44c0.31-0.12,0.61-0.24,0.86-0.36       c1.53-0.59,3.07-1.19,4.62-1.89c1.28-0.46,2.57-0.98,3.82-1.57c0.36-0.11,0.72-0.22,1.1-0.38c0.73-0.28,1.41-0.56,2.16-0.89       c2.41-1.01,4.81-2.03,7.16-3.05c0.43-0.15,0.86-0.36,1.36-0.56c2.66-1.14,5.26-2.29,7.87-3.5c0.82,7.18,1.63,14.35,2.34,21.45       c0.64,5.89,1.23,11.71,1.77,17.52c0.45,4.31,0.85,8.61,1.19,12.9c0.1,1.05,0.21,2.1,0.26,3.13c0.31,3.14,0.56,6.33,0.82,9.46       c0.85,9.93,1.6,19.78,2.23,29.38c0.38,5.73,0.71,11.39,1.01,16.93c0.18,3.23,0.32,6.41,0.47,9.52c0.11,2.65,0.23,5.3,0.4,7.91       c0.06,3.61,0.18,7.18,0.32,10.69c0.14,3.17,0.17,6.26,0.26,9.37C1168.1,490,1168.12,492.86,1168.14,495.73z"/>
				</g>
				<g>
					<path class="st20" d="M1156.97,338.85c-5.2,2.34-10.46,4.67-15.81,6.87c-2.54,1.01-5.1,2.08-7.64,3.08       c-1.5,0.63-2.98,1.21-4.53,1.84c-0.25,0.12-0.5,0.19-0.74,0.26c-4.83,1.9-9.78,3.77-14.7,5.53c-4.93,1.82-9.9,3.52-14.87,5.21       c-4.97,1.7-9.91,3.29-14.91,4.86c-0.07,0.04-0.12,0.03-0.19,0.08c-4.26,1.31-8.53,2.63-12.84,3.88       c-1.09,0.31-2.19,0.67-3.28,0.98c-4.37,1.29-8.79,2.52-13.2,3.69c-14.27,3.89-28.54,7.44-42.73,10.61       c-2.65,0.65-5.34,1.23-7.96,1.76c-1.5,0.35-2.99,0.64-4.49,0.99c-2.33,0.48-4.71,0.94-7.04,1.42       c-1.14,0.24-2.33,0.48-3.46,0.72c-3.57,0.7-7.03,1.37-10.53,2.02c-4.94,0.96-9.81,1.81-14.62,2.68l-0.07,0.04       c-7.25,1.32-14.41,2.49-21.44,3.57c-7.03,1.08-13.94,2.12-20.71,3.08c-16.44,2.34-32.04,4.14-46.44,5.66       c-4.67,0.44-9.23,0.89-13.66,1.26c19.12-58.89,44.8-124.23,71.67-186.19l0.01-0.06c45.29-5.36,99.34-14.28,153.46-28.7       c15.89-4.27,31.8-8.95,47.53-14.17C1142.65,230.27,1150.91,285.11,1156.97,338.85z"/>
				</g>
				<g>
					<path class="st20" d="M1133.79,179.84c-15.73,5.22-31.64,9.9-47.53,14.17c-54.12,14.42-108.17,23.34-153.46,28.7       c23.3-53.69,47.44-104.86,69-146.95c3.54-6.9,6.98-13.53,10.36-19.89c28.22-53.33,85.86-45.74,99.46,12.98       C1118.95,100.99,1126.62,138.97,1133.79,179.84z"/>
				</g>
				<g class="st22">
					<path class="st15" d="M1162.3,390.68l-18.98,53.09c0,0-8.56-39.95-17.62-77.1c-12.28-50.31-23.97-121.09-39.44-172.66       c-10.13-34.03-19.03-64.57-24.51-84.7c-10.22-37.78-36.28-40.42-59.95-33.54c3.54-6.9,6.98-13.53,10.36-19.89       c28.22-53.33,85.86-45.74,99.46,12.98c7.34,32.13,15,70.11,22.17,110.99c8.86,50.43,17.12,105.27,23.18,159.01       C1158.94,356.32,1160.76,373.64,1162.3,390.68z"/>
				</g>
				<g>
					<path class="st21" d="M1167.23,463.12c0.07,1.32,0.13,2.64,0.2,3.96c0.09,3.6,0.24,7.13,0.31,10.66       c0.19,3.15,0.22,6.24,0.26,9.41c0.08,2.87,0.16,5.73,0.16,8.54c-87.65,53.94-209.76,79.74-300.85,91.36       c-14.63-7.97-27.4-16.5-38.31-24.86c-0.07,0.01-0.07,0.01-0.08-0.07c-0.06-1.98-0.06-4.05,0.02-6.12       c0.02-1.92,0.02-3.98,0.11-5.91c0.17-4,0.46-8.16,0.91-12.34c0.15-2.08,0.44-4.25,0.72-6.42c1.8-13.68,4.62-28.88,8.57-45.22       c0.04-0.3,0.08-0.6,0.2-0.91c1.17-4.99,2.48-10.07,3.77-15.29c0.1-0.45,0.21-0.83,0.31-1.29c1.42-5.39,2.91-10.85,4.46-16.4       c0.8-2.89,1.67-5.85,2.47-8.74c2.54-8.82,5.34-17.89,8.28-27.05c0.77-2.44,1.55-4.88,2.39-7.41l0.07-0.08l-0.07,0.01       c19.15-58.87,44.83-124.26,71.69-186.16l-0.01-0.07c2.7-0.29,5.39-0.64,8.08-1c-8.26,80.95,5.98,135.49,31.08,172.06       c0,0-0.07,0.08,0.01,0.07C1026,472.73,1130.4,467.68,1167.23,463.12z"/>
				</g>
				<g>
					<path class="st3" d="M1049.38,648.77c-23.61,0-48.54-1.96-74.97-5.86c-42.32-6.25-81.58-19.16-116.68-38.35       c-7.61-4.16-11.67-12.75-10.05-21.27c1.61-8.52,8.53-15.03,17.13-16.12c70.1-8.9,201.36-32.22,292.85-88.48       c6.13-3.78,13.82-3.96,20.13-0.48c6.31,3.48,10.26,10.08,10.34,17.28c0.39,32.16-0.89,59.8-3.79,82.15       c-1.47,10.98-3.57,21.37-6.25,30.95c-0.5,1.8-1.04,3.59-1.59,5.32c-0.47,1.67-1.02,3.32-1.62,4.89       c-2.1,5.43-6.46,9.68-11.94,11.63C1128.6,642.68,1091.05,648.77,1049.38,648.77z M1156.23,611.59h0.05H1156.23z M942.29,595.5       c12.29,3.31,24.96,5.93,37.97,7.85c62.07,9.17,114.49,6.74,159.83-7.44c1.93-7.28,3.47-15.18,4.59-23.51       c1.59-12.27,2.65-26.46,3.16-42.41C1083.81,562.65,1009.03,582.93,942.29,595.5z"/>
				</g>
				<g>
					<path class="st3" d="M867.33,607.01c-3.31,0-6.58-0.82-9.51-2.4c-14.12-7.63-27.91-16.56-40.98-26.53       c-4.81-3.67-7.7-9.32-7.86-15.37c-0.06-2.25-0.1-4.57-0.08-6.93l0.04-1.97c0.03-1.62,0.07-3.27,0.16-4.9       c0.2-4.69,0.52-9.11,0.95-13.24l0.8-6.7c1.9-14.47,4.86-30.2,8.81-46.97c0.11-0.57,0.26-1.22,0.45-1.93       c1.02-4.4,2.15-8.92,3.31-13.52l0.37-1.47c0.07-0.28,0.15-0.56,0.23-0.84c0.05-0.21,0.1-0.41,0.15-0.62       c1.31-5.07,2.73-10.22,4.18-15.46l1.57-5.57c0.44-1.57,0.88-3.14,1.34-4.7c2.67-8.99,5.48-18.18,8.42-27.46       c0.76-2.46,1.55-4.96,2.4-7.51c2.5-7.77,9.54-13.39,17.86-13.89c0.55-0.03,1.1-0.11,1.66-0.17c0.26-0.03,0.76-0.08,1.03-0.1       l1.17-0.09c0.4-0.04,1.17-0.12,1.57-0.14c0.02,0,0.05-0.01,0.08-0.01c0.51-0.08,1.03-0.14,1.55-0.18       c1.9-0.15,3.85-0.35,5.81-0.54l11.74-1.24c3.31-0.36,6.7-0.77,10.21-1.21c7.4-0.85,14.89-1.84,22.5-2.92       c0.32-0.05,0.63-0.08,0.95-0.11c0.3-0.04,0.59-0.08,0.89-0.11c1.61-0.22,3.71-0.52,5.82-0.83l4.39-0.63       c2.83-0.47,6.17-0.99,9.51-1.52c0.21-0.03,0.43-0.06,0.64-0.09c0.67-0.08,1.33-0.19,2-0.3l5.88-0.95       c1.2-0.19,2.02-0.34,2.85-0.49c0.12-0.02,0.49-0.09,0.61-0.11c2.89-0.47,5.84-0.99,8.8-1.55c0.2-0.04,0.41-0.07,0.61-0.1       c2.16-0.34,4.31-0.73,6.48-1.13l1.27-0.24c4.01-0.75,8.02-1.51,12.03-2.31c3.54-0.66,6.85-1.34,10.17-2.06l1.75-0.36       c1.51-0.3,3.03-0.61,4.53-0.94c7.24-1.51,14.2-3.09,21.11-4.73c6.2-1.45,12.35-2.94,18.47-4.55c2.32-0.59,4.42-1.15,6.52-1.7       c2.33-0.59,4.27-1.12,6.15-1.67c0.24-0.07,0.48-0.13,0.73-0.2c1.73-0.43,3.46-0.91,5.2-1.43c2.34-0.65,4.23-1.17,6.14-1.74       c3.59-1.05,7.07-2.07,10.54-3.14c2.16-0.63,4.04-1.19,5.89-1.81l2.85-0.94c4.41-1.35,8.29-2.65,12.24-3.99       c4.83-1.6,9.57-3.23,14.22-4.98c0.25-0.09,0.5-0.18,0.74-0.26c2.09-0.69,4.14-1.49,6.2-2.29c0.18-0.07,0.65-0.25,0.83-0.31       l0.77-0.27c0.18-0.07,0.64-0.25,0.82-0.31c-0.05,0.03-0.45,0.21-0.83,0.41c0.84-0.43,1.72-0.8,2.61-1.11       c0.62-0.21,1.24-0.45,1.84-0.68l1.24-0.46c0.32-0.14,0.64-0.28,0.97-0.4c1.18-0.45,2.36-0.9,3.55-1.44       c0.48-0.21,0.96-0.41,1.46-0.59c0.73-0.26,1.46-0.55,2.17-0.88c0.78-0.37,1.58-0.68,2.41-0.94c0.03-0.01,0.06-0.02,0.1-0.04       c0.38-0.14,0.73-0.29,1.11-0.46l0.97-0.41c2.12-0.89,4.24-1.78,6.31-2.69c0.36-0.16,0.73-0.31,1.11-0.44l0.67-0.3       c2.14-0.93,4.58-2,7.03-3.13c5.83-2.7,12.6-2.43,18.19,0.72c5.6,3.15,9.34,8.79,10.07,15.17c0.83,7.31,1.65,14.55,2.37,21.71       c0.63,5.83,1.24,11.76,1.78,17.68c0.45,4.22,0.86,8.69,1.22,13.16c0.09,0.86,0.2,2.02,0.27,3.21c0.24,2.5,0.45,5.03,0.66,7.54       l0.15,1.79c0.86,10.01,1.62,20,2.25,29.74c0.38,5.78,0.72,11.53,1.02,17.15c0.14,2.53,0.26,5.08,0.38,7.6l0.1,2.06       c0.11,2.58,0.21,5.05,0.38,7.48c0.02,0.35,0.04,0.69,0.04,1.04c0.06,3.46,0.18,6.88,0.31,10.24l0.04,1.65       c0.07,2.8,0.14,5.57,0.17,8.37c0.07,2.63,0.14,5.61,0.18,8.51c0.07,7.02-3.54,13.57-9.52,17.24       c-92.98,57.18-219.23,82.73-308.77,94.09C869.01,606.96,868.17,607.01,867.33,607.01z M848.99,552.08       c7.26,5.14,14.71,9.91,22.29,14.25c68.89-9.15,188.61-31.39,276.63-81.86c-0.03-1.65-0.07-3.22-0.11-4.8l-0.04-1.4       c-0.13-3.24-0.25-6.77-0.31-10.36c-0.17-2.6-0.29-5.24-0.4-7.88l-0.1-2.01c-0.11-2.38-0.22-4.79-0.36-7.24       c-0.3-5.51-0.62-11.09-1-16.73c-0.62-9.5-1.36-19.21-2.2-29l-0.16-1.89c-0.2-2.42-0.4-4.87-0.64-7.29       c-0.04-0.37-0.06-0.73-0.08-1.1c-0.03-0.67-0.11-1.35-0.18-2.03c-0.37-4.53-0.75-8.66-1.18-12.8       c-0.38-4.13-0.78-8.14-1.19-12.14c-1.14,0.48-2.27,0.93-3.4,1.36c-0.45,0.2-0.92,0.39-1.39,0.57l-1.57,0.58       c-0.69,0.26-1.39,0.52-2.1,0.78c-0.65,0.28-1.33,0.54-2,0.78c-0.58,0.22-1.2,0.44-1.82,0.66c-2.41,0.93-4.93,1.89-7.48,2.75       c-5.02,1.88-10.13,3.64-15.23,5.33c-4.22,1.43-8.47,2.84-12.82,4.17l-2.32,0.77c-2.28,0.77-4.73,1.51-7.12,2.2       c-3.32,1.02-6.95,2.09-10.6,3.16c-2.08,0.62-4.27,1.23-6.46,1.83c-1.81,0.55-4.02,1.16-6.23,1.71       c-2.21,0.63-4.48,1.26-6.73,1.82c-2.15,0.57-4.38,1.16-6.68,1.75c-6.29,1.66-12.8,3.23-19.29,4.75       c-7.22,1.72-14.56,3.38-21.8,4.88c-1.46,0.34-3.33,0.71-5.16,1.08l-1.39,0.28c-3.42,0.74-7.1,1.49-10.77,2.18       c-3.93,0.79-8.09,1.57-12.25,2.35l-1.05,0.2c-0.05,0.01-0.46,0.09-0.51,0.1c-2.34,0.42-4.67,0.84-7,1.21       c-3.21,0.61-6.41,1.17-9.54,1.68c-1.13,0.21-2.38,0.43-3.57,0.61l-5.89,0.95c-1.04,0.17-2.05,0.33-3.08,0.46       c-3.15,0.49-6.3,0.99-9.4,1.49l-4.6,0.67c-2.31,0.34-4.6,0.67-6.87,0.97c-0.17,0.03-0.83,0.15-1.8,0.23       c-7.7,1.09-15.26,2.08-22.52,2.92c-3.51,0.44-7.13,0.88-10.68,1.27l-11.96,1.26c-0.23,0.02-0.46,0.05-0.69,0.07       c-2.29,7.32-4.48,14.51-6.56,21.54l-2.73,9.61c-1.35,4.88-2.67,9.66-3.9,14.38c-0.15,0.68-0.33,1.35-0.52,2.01l-0.27,1.06       c-1.15,4.58-2.27,9.06-3.28,13.43c-0.04,0.19-0.09,0.38-0.14,0.57c-0.03,0.16-0.07,0.32-0.1,0.47       c-3.7,15.64-6.45,30.2-8.16,43.26l-0.73,6.14c-0.32,3.04-0.58,6.67-0.76,10.82C849.02,551.34,849.01,551.72,848.99,552.08z        M858.32,491.82c0,0.01-0.01,0.02-0.01,0.03C858.32,491.84,858.32,491.83,858.32,491.82z M824,464.32       c-0.04,0.19-0.11,0.52-0.17,0.84C823.88,464.88,823.94,464.6,824,464.32z M862.75,389.15c-0.01,0-0.02,0.01-0.03,0.01       C862.73,389.15,862.74,389.15,862.75,389.15z M920.07,382.22c0.2,0,0.41,0,0.61,0.01       C920.48,382.22,920.28,382.22,920.07,382.22C920.08,382.22,920.07,382.22,920.07,382.22z M1119.96,332.79       c-0.06,0.03-0.11,0.06-0.16,0.08C1119.85,332.84,1119.91,332.82,1119.96,332.79z M1130.38,328.54c-0.01,0-0.02,0.01-0.03,0.01       C1130.36,328.55,1130.37,328.54,1130.38,328.54z M1130.4,328.53c-0.01,0-0.01,0-0.02,0.01       C1130.39,328.53,1130.39,328.53,1130.4,328.53z"/>
				</g>
				<g>
					<path class="st3" d="M861.13,428.98c-6.05,0-11.82-2.75-15.64-7.53c-4.19-5.25-5.46-12.25-3.38-18.64       c17.83-54.95,42.84-119.96,72.33-188.01c2.83-6.54,8.93-11.07,16-11.91c50.1-5.94,124.96-18.05,197.06-42       c5.52-1.83,11.56-1.18,16.56,1.8c4.99,2.98,8.44,7.99,9.45,13.71c9.57,54.43,17.64,109.84,23.35,160.25       c0.97,8.61-3.71,16.88-11.61,20.46c-106.99,48.57-235.35,65.83-302.34,71.8C862.32,428.95,861.72,428.98,861.13,428.98z        M946.62,241.19c-22.01,51.37-41.29,100.68-56.62,144.73c64.81-7.47,161.15-23.87,245.4-59.42       c-4.63-38.54-10.56-79.64-17.43-120.67C1055.23,224.64,992.72,235.28,946.62,241.19z"/>
				</g>
				<g>
					<path class="st3" d="M932.79,242.74c-6.27,0-12.24-2.95-16.04-8.06c-4.27-5.74-5.15-13.33-2.3-19.9       c26.49-61.09,54.92-120.85,80.05-168.28c17.04-32.21,45.95-49.81,75.45-45.99c29.5,3.85,52.93,28.32,61.14,63.86       c7.62,33.24,15.37,71.96,22.41,112.01c1.72,9.77-3.98,19.32-13.39,22.44c-75.29,25.02-153.02,37.61-204.97,43.77       C934.36,242.69,933.57,242.74,932.79,242.74z M1061.87,39.99c-11.76,0-23.55,9.21-32.03,25.23       c-20.2,38.12-42.6,84.42-64.37,132.98c42.25-6.27,94.07-16.28,145.56-32.07c-6.07-33.22-12.55-65-18.92-92.79       c-4.41-19.1-14.63-31.51-27.34-33.17C1063.8,40.05,1062.84,39.99,1061.87,39.99z"/>
				</g>
			</g>
			<g>
				<g>
					<g>
						<g>
							<path class="st3" d="M1164.07,1136.67c65.94,3.05,115.31,83.09,110.29,178.77c-5.03,95.68-62.55,170.76-128.49,167.71         c-65.94-3.05-115.32-83.09-110.29-178.77C1040.61,1208.7,1098.14,1133.62,1164.07,1136.67z"/>
						</g>
					</g>
				</g>
				<g>
					<g>
						<g>
							<path class="st15" d="M1162.75,1176.87c19.41,11.72,23.54,45.16,9.22,74.68c-14.32,29.52-41.66,43.95-61.07,32.22         c-19.41-11.72-23.54-45.16-9.22-74.68C1116,1179.57,1143.34,1165.14,1162.75,1176.87z"/>
						</g>
					</g>
				</g>
				<g>
					<g>
						<g>
							<path class="st23" d="M1202.19,1390.04c8.72,8.71,7.27,26.59-3.23,39.93c-10.5,13.34-26.08,17.1-34.8,8.39         c-8.72-8.71-7.27-26.59,3.23-39.93C1177.89,1385.08,1193.47,1381.33,1202.19,1390.04z"/>
						</g>
					</g>
				</g>
			</g>
			<g>
				<g>
					<g>
						<g>
							<path class="st3" d="M509.59,1032.21c65.94,3.05,115.31,83.09,110.29,178.77c-5.03,95.68-62.55,170.76-128.49,167.71         c-65.94-3.05-115.32-83.09-110.29-178.77C386.13,1104.24,443.65,1029.15,509.59,1032.21z"/>
						</g>
					</g>
				</g>
				<g>
					<g>
						<g>
							<path class="st15" d="M508.27,1072.4c19.41,11.72,23.54,45.16,9.22,74.68c-14.32,29.52-41.66,43.95-61.07,32.22         c-19.41-11.72-23.54-45.16-9.22-74.68C461.52,1075.11,488.86,1060.68,508.27,1072.4z"/>
						</g>
					</g>
				</g>
				<g>
					<g>
						<g>
							<path class="st23" d="M547.71,1285.58c8.72,8.71,7.27,26.59-3.23,39.93c-10.5,13.34-26.08,17.1-34.8,8.39         c-8.72-8.71-7.27-26.59,3.23-39.93C523.41,1280.62,538.99,1276.87,547.71,1285.58z"/>
						</g>
					</g>
				</g>
			</g>
		</g>
	</g>
</g>
</svg>