<svg xmlns="http://www.w3.org/2000/svg" xmlns:xlink="http://www.w3.org/1999/xlink" version="1.1" id="Layer_1" x="0px" y="0px" style="enable-background:new 0 0 3185.08 2682.03;" xml:space="preserve" viewBox="0 0 3185.08 2682.03">
<style type="text/css">
	.st0{fill:#FFFFFF;}
	.st1{fill:#8BC93A;}
	.st2{fill:#FFDA7D;}
	.st3{fill:#D9DE1F;}
	.st4{fill:none;}
	.st5{opacity:0.4;}
	.st6{opacity:0.25;}
	.st7{fill:#021168;}
	.st8{fill:#F89B29;}
	.st9{opacity:0.6;}
	.st10{fill:#FFF3E9;}
	.st11{opacity:0.2;}
	.st12{fill:#250178;}
	.st13{fill:#FF1033;}
	.st14{fill:#397BFF;}
	.st15{fill:#FF67A0;}
	.st16{fill:#390075;}
	.st17{fill:#B199C5;}
	.st18{fill:#FC807E;}
	.st19{opacity:0.3;}
	.st20{fill:#7BA2FF;}
	.st21{fill:#FB132B;}
	.st22{fill:#86E6FC;}
	.st23{fill:#C4C9D6;}
	.st24{fill:#9DA9B9;}
	.st25{fill:#FFCEDA;}
	.st26{fill:#3AD5FA;}
	.st27{fill:#FFEB52;}
	.st28{fill:#FD45C5;}
	.st29{fill:#07BCF8;}
	.st30{fill:#F381A0;}
	.st31{fill:#FDD800;}
	.st32{fill:none;stroke:#021168;stroke-width:33.7782;stroke-linecap:round;stroke-linejoin:round;stroke-miterlimit:10;}
	.st33{fill:#4CE550;}
	.st34{fill:#FF812C;}
	.st35{fill:#FFBB94;}
	.st36{fill:#EFB68F;}
	.st37{fill:#727C93;}
	.st38{fill:#FF1B40;}
	.st39{fill:#FEDA24;}
	.st40{fill:#FFB774;}
	.st41{fill:#43B7FF;}
	.st42{fill:#591224;}
	.st43{fill:#FCCC9B;}
	.st44{fill:#FF4073;}
	.st45{fill:#D4613C;}
	.st46{fill:#D89568;}
	.st47{fill:#FFB888;}
	.st48{fill:#FFCC29;}
	.st49{fill:#3FC93F;}
	.st50{fill:none;stroke:#591224;stroke-width:36.7402;stroke-linecap:round;stroke-linejoin:round;stroke-miterlimit:10;}
	.st51{fill:#040060;}
	.st52{fill:#FE5081;}
	.st53{fill:#FFE131;}
	.st54{fill:#FFAC5A;}
	.st55{fill:#FFC3AC;}
	.st56{fill:#494C71;}
	.st57{fill:#C6295E;}
	.st58{fill:#0DFF6F;}
	.st59{fill:#FDEE77;}
	.st60{opacity:0.7;}
	.st61{fill:#1088FF;}
	.st62{fill:#FFAFBE;}
	.st63{fill:#FFD400;}
	.st64{fill:#5F5E73;}
	.st65{fill:#F6AFB3;}
	.st66{fill:#000070;}
	.st67{fill:#5E5D72;}
	.st68{fill:#FDBE00;}
	.st69{fill:#0096F0;}
	.st70{fill:#FFD243;}
	.st71{fill:#FF9D33;}
	.st72{fill:none;stroke:#021168;stroke-width:37.4934;stroke-linecap:round;stroke-linejoin:round;stroke-miterlimit:10;}
	.st73{fill:#FC4F8B;}
	.st74{fill:#E0A47C;}
	.st75{fill:#FF0068;}
	.st76{opacity:0.5;}
	.st77{fill:#371A45;}
</style>
<g>
	<g>
		<g>
			<g>
				<g>
					<path class="st0" d="M1671.85,681.34c0.58,17.99,58,43.67,98.77,57.52c-1.56-10.6-3.12-20.73-4.61-30.36       c-7.19-46.46-12.39-80.21-6.12-103.14C1721.13,628.38,1671.29,663.91,1671.85,681.34z"/>
				</g>
				<g>
					<path class="st1" d="M846.97,2088.96c21.95-25.75,47.49-48.05,73.99-58.7c63.96-25.69,162.79,13.25,201.67,30.83       c-34.29-52.42-64.25-106.35-90.45-160.15c-9.21-4.35-68.31-31.09-123.95-29.2c-58.7,1.8-81.23,14.7-120.56,69.02       c-38.42,53.07-40.53,110.43-25.06,125.08c1.4,1.32,2.91,1.79,4.85,1.52c12.42-1.72,33.36-29.59,43.88-47.07       c1.4-5.08,2.93-9.95,4.58-14.86c1.8-5.27,3.71-10.49,5.86-15.62c4.29-10.21,9.19-20.38,16.19-28.9       c-5.62,9.46-8.82,19.95-11.48,30.46c-1.32,5.26-2.4,10.59-3.36,15.93c-0.91,5.13-1.72,10.37-2.3,15.44       C818.69,2058.81,838.59,2081.2,846.97,2088.96z"/>
				</g>
				<g>
					<path class="st0" d="M2726.44,2548.02c-3.88,15.13-16.56,26.26-24.26,31.82c10.78,10.17,11.7,23.3,9.7,32.95       c48.72-8.03,64.01-32.94,68.03-42.17c-3.52-5.53-28.09-19.3-52.33-30.68C2727.5,2542.63,2727.14,2545.32,2726.44,2548.02z"/>
				</g>
				<g>
					<path class="st1" d="M1779.78,1016.25c10.48-112.05,2-198.86-7.57-266.41c-23.92-7.84-109.3-37.92-110.27-68.19       c-1.01-31.22,91.27-84.14,105.43-92.07c11.26-15.25,39.74-33.6,81.59-53.59c-0.05-1.82,0.86-3.61,2.57-4.53       c143.2-76.56,412.77-168.49,591.15-229.33c65.5-22.34,125.11-42.67,160.43-56.15c0.03-0.01,0.06-0.03,0.09-0.04       c14.53-5.55,24.96-9.94,29.93-12.82c-20.21-9.24-148.95-13.62-425.69,66.69c-287.62,83.46-522.71,231.58-549.71,281.2       c-12.04,22.13-5.09,69.68,4.52,135.48c12.1,82.83,28.68,196.28,15.59,325.69c-20.73,204.92-93.68,301.79-112.5,323.71       c14.82,7.97,30.79,15.8,48.03,23.4C1632.07,1371.22,1758.76,1241.03,1779.78,1016.25z"/>
				</g>
				<g>
					<path class="st2" d="M3145.64,1291.82c-43.97,5.28-190.28,95.25-200.59,109.54c0.97,7.51,18.58,37.11,35.9,62.81       c21.75-12.59,41.13-24.32,57.6-34.29c39.79-24.12,52.68-31.68,59.22-29.94c1.74,0.47,3.16,1.55,3.99,3.06       c4.4,7.92-2.28,64.52-29.49,147.97c11.72,4.82,46,17.35,66.61,8.67c0.58-0.24,5.85-3.16,11.5-29.47       c15.62-72.76,15.16-224.31,2.64-237.77C3153.01,1292.38,3151.73,1291.09,3145.64,1291.82z"/>
				</g>
				<g>
					<path class="st0" d="M2720.95,2517.29c0.82,1.32,1.56,2.64,2.23,3.96c16.47-23.84,30.89-50.19,28.38-56.05       c-3.4-3.73-29.6,1.96-56.62,12.14c4.17,6.46,8.11,12.43,11.79,18.02C2711.88,2503.18,2716.63,2510.39,2720.95,2517.29z"/>
				</g>
				<g>
					<path class="st0" d="M1644.46,588.46c-45.11,22.35-88.83,51.3-86.96,63.46c2.33,15.14,56.22,45.98,94.73,64.59       C1643.85,659.16,1637.59,615.45,1644.46,588.46z"/>
				</g>
				<g>
					<path class="st1" d="M3093.37,1410.17c-7.7,2.76-28.16,15.15-49.68,28.19c-64.02,38.8-171.17,103.72-295.63,144.65       c-168.76,55.5-396.92,67.15-446.38,69.07c4.26,5.86,8.03,11.83,11.71,17.98c5.28,8.97,10,18.21,14.37,27.58       c4.28,9.42,8.23,18.95,11.7,28.65c3.54,9.67,6.56,19.51,9.4,29.37c-3.63-9.61-7.42-19.13-11.7-28.43       c-4.21-9.33-8.88-18.43-13.82-27.34c-5.04-8.86-10.39-17.52-16.21-25.8c-5.71-8.07-11.97-16.17-18.55-22.89       c-7.97-5.65-179.13-126.26-339.81-180.76c-33-4.39-200.6,21.12-216.42,23.55c-15.54,12.76-31.24,25.17-47.27,37.22       c-16.47,12.31-33.2,24.39-50.84,34.92c16.73-11.91,32.33-25.22,47.7-38.77c15.26-13.52,30.23-27.44,44.84-41.58c0,0,0,0,0,0       c123.9-123.9,162.4-270.7,172.87-372.04c11.37-110.04-6.88-191.79-7.07-192.61c-0.51-2.22,0.56-4.51,2.6-5.53       c2.03-1.03,4.51-0.54,6,1.19c0.47,0.55,48.9,57.32,160.49,229.79c59.36,91.74,102.36,189.69,133.77,261.2       c17.25,39.28,36.41,82.86,47.71,97c1.1,0.59,1.94,1.5,2.35,2.61c1.66,1.59,3.1,2.34,4.25,2.05c1.5-0.36,2.86-1.76,4.02-4.16       c2.04-4.22,3.26-10.9,3.46-19.99c0.01-0.12-0.01-0.23,0-0.35c0.9-47.21-25.73-159.69-110.73-342.54       c-87.15-187.49-174.76-297.32-212.17-344.22c-10.11-12.67-16.21-20.32-18.3-24.49c-1.73-3.47-1.2-7.23,1.43-10.04       c14.89-15.96,130.44-9.24,341.74,78.8c119.73,49.89,257,134.05,367.29,201.67c50.46,30.94,94.04,57.66,126.97,75.56       c47.55,25.85,55.12,23.05,56.15,22.24c0.98-0.98,2.23-2.75,1.76-6.7c-0.84-6.98-6.39-17.06-17.41-30.28       c-0.01-0.01-0.01-0.02-0.02-0.02c-39.16-46.96-147.41-133.61-359.92-262.6c-288.92-175.37-485.5-209.05-487.45-209.37       c-2.06-0.34-3.7-1.94-4.08-3.99c-0.38-2.06,0.57-4.13,2.37-5.19c206.22-120.51,566.8-165.92,1042.78-131.29       c107.56,7.82,150.43-2.25,152.19-10.44c0.29-1.34,0.59-13.9-76.12-41.81c-145.22-52.84-579.11-85.78-819.29-25.08       c-241.68,61.07-439.23,137.26-469.71,181.16c-13.09,18.86-7.44,55.4,1.11,110.71c11.27,72.85,26.7,172.61,13.84,310.19       c-22.66,242.32-166.42,376.61-171.72,381.46c-0.06,0.05-0.09,0.13-0.15,0.18c-0.11,0.09-0.24,0.18-0.36,0.26       c-4.74,3.14-8.97,5.09-13.55,7.22c-4.52,2-9.07,3.85-13.67,5.51c-9.19,3.35-18.49,6.18-27.88,8.6       c-9.36,2.51-18.83,4.52-28.28,6.44l-14.24,2.57l-14.28,2.23l14.02-3.44l13.92-3.77c9.22-2.72,18.4-5.51,27.4-8.77       c9.02-3.17,17.9-6.73,26.49-10.74c4.3-1.99,8.52-4.14,12.62-6.4c1.4-0.79,2.83-1.63,4.25-2.48       c-17.43-7.85-33.59-15.92-48.55-24.15c-0.14-0.05-0.26-0.15-0.4-0.22c-104.67-57.67-151.15-122.92-171.7-170.54       c-15.05-34.89-18.6-64.62-18.82-83.96c-51.75,87.91-151.57,147.23-290.42,172.19c-96.55,17.37-183.68,12.92-206.88,11.27       c5.56,52.28,53.6,443.23,272.8,769.04c7.87,5.17,67.65,44.75,107.23,80.92c3.66-30.78,16.74-126.75,44.8-198.8       c0.02-0.05,0.01-0.1,0.03-0.14c0.05-0.13,0.11-0.26,0.17-0.38c0.01-0.01,0.01-0.02,0.02-0.04c0.53-1.35,1.05-2.71,1.59-4.05       c0.35-0.87,0.97-1.51,1.66-2.03c3.87-6.96,8.06-13.48,12.54-19.94c5.75-8.27,11.97-16.18,18.62-23.69       c6.61-7.54,13.66-14.68,21.17-21.27c7.37-6.74,15.45-12.63,23.6-18.29c-7.66,6.33-15.15,12.82-21.88,20.08       c-6.86,7.11-13.19,14.69-19.03,22.6c-5.89,7.88-11.31,16.09-16.2,24.57c-4.8,8.28-9.28,17-12.8,25.57       c-31.04,79.27-43.62,188.78-45.32,204.7c4.21,4.93,8.05,9.88,11.74,15.04c4.15,5.84,8.03,11.86,11.63,18.02       c3.64,6.14,6.87,12.51,9.8,18.99c2.97,6.46,5.32,13.18,7.41,19.91c-2.87-6.46-5.95-12.78-9.61-18.77       c-3.62-6-7.49-11.83-11.73-17.38c-4.21-5.57-8.64-10.95-13.3-16.11c-4.65-5.12-9.59-10.18-14.56-14.64l-0.1-0.09       c-0.01-0.01-0.01-0.01-0.02-0.02c-39.83-38.55-109.44-84.19-113.52-86.85c-4.82-2.44-135.47-67.88-209.53-38.12       c-60.83,24.44-121.21,120.35-133.82,164.44c-3.6,12.57-1.74,15.6-1.72,15.62c9.54,12.89,31.63,10.06,36.77,9.19l30.32-26.08       l-23.19,32.25c0.22,25.18,5.93,64.3,20.74,66.58c18.14,2.78,28.89-6.07,32.1-9.25c-0.06-4.26,0.1-8.31,0.45-12.42       c0.43-4.93,1.09-9.81,2.01-14.63c1.78-9.64,4.57-19.03,8.22-27.96c-2.07,9.43-3.18,18.96-3.28,28.46       c-0.09,4.74,0.1,9.47,0.49,14.16c0.36,4.26,0.94,8.63,1.75,12.59c9.1,15.26,35.7,50.87,56.31,43.23       c21.62-7.99,50.13-56.9,61.12-78.52c-2.42-2.64-4.65-5.31-6.76-8.14c-2.89-3.76-5.41-7.78-7.77-11.87       c-4.65-8.21-8.33-17-10.29-26.17c5.26,7.76,10.42,15.21,16.15,22.2c2.77,3.55,5.78,6.9,8.71,10.27       c0.39,0.43,0.8,0.84,1.19,1.27c0.18-2.41,0.41-4.82,0.75-7.25c0.79-6.34,2.32-12.58,4.37-18.68c2.27-6.03,5.08-11.91,8.9-17.13       c3.93-5.14,8.77-9.6,14.35-12.45c-4.06,4.82-7.27,9.83-9.77,15.18c-2.36,5.43-4.15,11.02-5.45,16.76       c-1.46,5.7-2.11,11.6-2.82,17.46c-0.33,2.94-0.52,5.9-0.61,8.85c-0.14,2.18-0.2,4.41-0.21,6.56       c17.19,14.37,179.5,146.65,308.43,133.23c25.96-2.68,48.01-9.44,66.85-19.1c0.23-0.14,0.45-0.25,0.7-0.35       c85.13-44.19,102.8-149.2,104.63-217.85c0,0,0,0,0,0c0-0.17,0-0.34,0.01-0.51l0-0.01c0.03-1.07,0.07-2.17,0.09-3.22       c0-0.14,0.07-0.26,0.09-0.39c0.39-6.55,0.48-13.33,0.3-20.03c-0.23-7.91-0.75-15.85-1.65-23.75       c-1.72-15.82-4.79-31.54-9.14-46.99c5.92,14.91,10.65,30.38,14.04,46.19c1.74,7.9,3.1,15.9,4.17,23.95       c0.83,6.37,1.4,12.71,1.74,19.22c0.25,0.61,0.4,1.28,0.38,1.98c-0.02,1.05-0.06,2.19-0.09,3.29c0,0.01,0,0.03,0,0.04       c0,0.01,0,0.01,0,0.02c-1.54,57.72-16.2,172.49-104.09,223.39c35.05,28.41,236.29,180.39,471.09,131.48       c-8.39-11.96-15.91-23.81-22.58-35.26c-42.48-72.9-60.09-143.27-64.11-161.18c-0.01-0.04-0.04-0.06-0.04-0.1       c-0.02-0.09-0.04-0.19-0.05-0.28c-0.01-0.04-0.01-0.09-0.02-0.13c-0.54-2.43-0.81-3.77-0.83-3.87       c-0.12-0.6-0.08-1.19,0.01-1.76c-1.85-12.27-3.42-24.48-4.75-36.76c-1.51-14.18-2.69-28.4-3.55-42.62       c-1.65-28.44-1.9-57.02,0.67-85.33c-0.92,28.41,0.99,56.76,4.27,84.89c1.68,14.07,3.67,28.09,5.98,42.05       c2.3,13.77,4.87,27.57,7.84,41.1c3.57,16.08,20.78,86.36,63.3,159.25c7.18,12.3,15.35,25.08,24.57,37.95       c2.14,0.14,4.03,1.57,4.53,3.76c0.19,0.81,0.11,1.6-0.09,2.35c47.85,64.53,122.6,129.56,234.13,144.64       c250.96,33.93,340.93-89.91,349.68-103.04c0.32-0.92,0.82-1.79,1.66-2.41c0.17-0.13,0.35-0.24,0.53-0.34l0.31-0.17       c2.45-1.35,5.4-3.62,7.89-5.85c2.51-2.34,4.97-4.82,7.09-7.6c4.37-5.46,7.9-11.66,10.69-18.25c2.57-6.66,4.54-13.66,5.55-20.88       c0.66-3.59,0.7-7.25,1.08-10.9c0.1-3.66,0.01-7.33,0.02-11.03c0.4,3.65,0.9,7.32,1.22,11.01c0.03,3.69,0.41,7.42,0.15,11.14       c-0.2,7.47-1.39,14.92-3.32,22.26c-2.15,7.27-5.17,14.38-9.31,20.94c-3.23,5.01-6.73,9.6-11.29,13.79       c15.29,15.76,76.65,76.32,125.81,85.99c51.73,10.2,78.51-17.62,82.19-21.8c1.36-3.31,7.36-20.41-8.22-31.63       c-0.19,0.04-0.36,0.15-0.56,0.17c-0.24,0.02-0.5,0.03-0.73,0.02c-11.61-0.58-22.9-1.78-34.21-3.51       c-11.27-1.78-22.48-4.15-33.19-7.85c11.13,2.1,22.38,2.78,33.6,2.91c11.19,0.06,22.5-0.4,33.47-1.46l0.09-0.01       c0.32-0.03,0.6,0.07,0.91,0.09c2.79-1.67,21.03-13.09,25.2-29.41c1.06-4.16,1.1-8.27,0.17-12.4c0-0.01-0.01-0.01-0.01-0.02       c0-0.01,0-0.02,0-0.03c-0.79-3.47-2.25-6.96-4.46-10.5c-4.28-6.84-8.99-13.98-14.09-21.72       c-20.29-30.76-48.08-72.87-80.05-145.07c-34.84-78.66-88.27-112.67-120.02-118.45c-0.09-0.02-0.18-0.03-0.27-0.05       c-3.25-0.58-6.27-0.86-9.01-0.86c-23.27,0-55.03,32.88-65.3,45.55c-1.6,1.97-4.37,2.32-6.48,0.99       c0.07,6.48-0.02,12.97-0.48,19.47c-0.97,16.76-3.77,33.41-8.13,49.57c-2.15,8.09-4.86,16.03-7.84,23.82       c-3.3,7.69-6.67,15.33-11.23,22.37c-0.15,0.23-0.46,0.3-0.69,0.15c-0.2-0.13-0.28-0.38-0.19-0.6l0.01-0.04       c12.08-30.66,17.08-63.34,18.15-95.76c1.02-32.45-1.81-65.13-8.96-97.05c-3.39-16.01-8.44-31.58-13.95-46.99       c-6.12-15.15-12.68-30.21-20.95-44.37c-8.1-14.24-17.23-27.93-27.61-40.68c-10.41-12.67-21.81-24.74-34.89-34.69l-0.03-0.02       c-0.22-0.17-0.26-0.48-0.1-0.69c0.16-0.21,0.46-0.26,0.68-0.11c13.64,9.53,25.56,21.2,36.61,33.59       c11,12.45,20.81,25.95,29.61,40.08c8.84,14.14,15.97,29.24,22.67,44.51c6.09,15.51,11.72,31.28,15.67,47.49       c6.02,23.28,10.36,47.29,11.43,71.48c6.38-7.61,41.7-48,71.99-48c2.83,0,5.93,0.28,9.25,0.83       c22.41-13.84,290.06-182,427.14-394.29c68.08-105.43,110.47-203.91,135.64-279.62c0.04-0.6,0.16-1.21,0.43-1.79       c0.07-0.15,0.2-0.25,0.29-0.39C3086.6,1476.21,3094.33,1423.95,3093.37,1410.17z"/>
				</g>
				<g>
					<path class="st3" d="M1967.07,487.86c77.16-27.71,171.45-56.22,274.91-82.36c73.75-18.64,163.95-28.71,258.15-32.22       c22.8-49.63,57.61-87.35,79.93-108.2c-30.15,10.86-73.23,25.68-134.18,46.46C2307.23,358.82,2113.37,424.94,1967.07,487.86z"/>
				</g>
				<g>
					<path class="st3" d="M2053.34,1151.96c-79.76-123.26-127.05-187.12-147.56-213.55c4.82,30.98,11.99,96.19,3.78,175.99       c-10.3,100.15-47.53,244-165.37,367.75c44.44-6.68,174.71-25.5,205.65-21.55c10.23-1.39,141.93-17.68,277.13,37.23       c-10.2-17.3-22.77-45.41-40.62-86.07C2155.09,1340.56,2112.27,1243.03,2053.34,1151.96z"/>
				</g>
				<g>
					<path class="st3" d="M1961.36,625.78c48.88,10.67,229.67,57.42,477.8,208.04c177.05,107.47,301.87,197.9,354.43,255.5       c5.78-63.15,44.41-362.41,267.31-584.08c-25.7,0.09-52.56-1.33-73.98-2.89C2528.46,469,2165.24,512.82,1961.36,625.78z"/>
				</g>
				<g>
					<path class="st3" d="M2255.38,851.6c-214.23-89.26-319.22-89.77-330.11-81.7c2.1,3.63,8.36,11.48,16.82,22.08       c37.63,47.18,125.76,157.66,213.41,346.22c73.48,158.07,106.47,271.29,110.99,331.07c16.82-25.76,58.05-83.91,123.01-144.22       c77.6-72.05,205.46-161.66,378.76-186.48c-30.38-15.06-76.9-43.05-146.95-86C2511.3,985.13,2374.4,901.2,2255.38,851.6z"/>
				</g>
				<g>
					<path class="st3" d="M939.99,1302.21c0,0,73.75,409.28,364.47,643.65c0,0-29.96,61.48-40.79,131.52l-10.32,65.96l-7.51,5.78       h-5.9l-105-78.43c0,0-79.42-113.69-126.49-232.4c-47.06-118.71-88.11-233.52-107.16-321.38       c-19.05-87.86-38.98-205.4-37.83-206.92s4.75-10.88,4.75-10.88l9.61-1.44L939.99,1302.21z"/>
				</g>
				<g>
					<path class="st3" d="M1182.07,2360.15c0,0,113.1,25.78,200.03-33.77c86.93-59.55,123.91-182.98,123.91-182.98l3.35,24.97       c0,0,131.12,104.7,293.93,144.56c0,0,18.86,104.68,83.99,191.73c0,0-70.12,28.18-193.76,6.03       c-123.64-22.15-248.82-107-248.82-107l-35.7-31.36c0,0-53.69,23.92-128.06,18.39       C1206.57,2385.21,1182.07,2360.15,1182.07,2360.15z"/>
				</g>
				<g>
					<path class="st3" d="M2396.89,2166.13c0,0,188.26-33.72,395.73-238.21c207.47-204.49,260.97-352.64,260.97-352.64       s-85.23,299.49-330.94,493.52c-146.14,115.42-181.85,142.79-181.85,142.79l-37.37,21.78c0,0-23.53-4.58-38.65,5.8       c-15.12,10.39-41,37.75-41,37.75s-11.69-2.23-11.76-3.85c-0.07-1.61-8.41-66.91-8.41-69.47       C2403.61,2201.03,2396.89,2166.13,2396.89,2166.13z"/>
				</g>
				<g>
					<path class="st4" d="M1650.87,715.84c0.45,0.22,0.91,0.45,1.36,0.66c-0.02-0.11-0.03-0.22-0.05-0.33L1650.87,715.84z"/>
				</g>
				<g>
					<path class="st4" d="M1642.88,643.94c-2-22.73-2.01-41.4,1.57-55.47c-45.11,22.35-88.83,51.3-86.96,63.46       c0.24,1.56,1.05,3.29,2.32,5.16c0.2-0.05,32.71-7.53,54.73-11.36C1628.68,643.26,1637.94,643.36,1642.88,643.94z"/>
				</g>
				<g>
					<path class="st4" d="M1759.71,665.11c-3.09-24.93-3.94-44.69,0.19-59.75c-38.76,23.02-88.6,58.55-88.04,75.97       c0.12,3.56,2.49,7.43,6.49,11.45c6.38-6.31,23.08-15.36,46.18-20.67C1745.35,667.32,1755.6,665.67,1759.71,665.11z"/>
				</g>
				<g>
					<path class="st4" d="M2476.3,374.33c7.92-0.39,15.85-0.76,23.84-1.05c22.8-49.63,57.61-87.35,79.93-108.2       c-10.08,3.63-21.65,7.72-34.81,12.31C2528.18,289.54,2490.53,323.28,2476.3,374.33z"/>
				</g>
				<g>
					<path class="st4" d="M2966.31,500.94c-67.55,3.45-243.21,20.46-291.51,104.42c-60.19,104.63,94.72,446.22,88.94,454.61       c11.66,10.54,21.64,20.34,29.85,29.35c5.78-63.15,44.41-362.41,267.31-584.08c-25.7,0.09-52.56-1.33-73.98-2.89       C2980.01,501.84,2973.18,501.41,2966.31,500.94z"/>
				</g>
				<g>
					<path class="st4" d="M823.13,2007.29c-0.91,5.13-1.72,10.37-2.3,15.44c-1.46,24.57,7.3,42.77,15.69,54.34       c6.72-18.93,30.85-80.81,66.45-104c37.7-24.57,152.1,9.46,176.35,17.09c-11.97-20.95-23.33-42.01-34.08-63.1       c-25.6-9.51-131.9-46.29-185.18-22.18c-60.83,27.53-97.44,160.97-97.44,160.97c1.4,1.32,2.91,1.79,4.85,1.52       c12.42-1.72,33.36-29.59,43.88-47.07c1.4-5.08,2.93-9.95,4.58-14.86c1.8-5.27,3.71-10.49,5.86-15.62       c4.29-10.21,9.19-20.38,16.19-28.9c-5.62,9.46-8.82,19.95-11.48,30.46C825.17,1996.63,824.09,2001.95,823.13,2007.29z"/>
				</g>
				<g>
					<path class="st4" d="M2726.44,2548.02c-3.88,15.13-16.56,26.26-24.26,31.82c1.93,1.82,3.44,3.75,4.77,5.72       c10.23-0.09,28.88-2.49,46.04-5.68c13.31-2.47,21.19-4.92,25.65-6.65c0.5-0.95,0.94-1.85,1.27-2.61       c-3.52-5.53-28.09-19.3-52.33-30.68C2727.5,2542.63,2727.14,2545.32,2726.44,2548.02z"/>
				</g>
				<g>
					<path class="st4" d="M2708.98,2498.8c7.91-7.47,38.94-36.24,42.82-31.57c0.03-0.8-0.02-1.52-0.24-2.03       c-3.4-3.73-29.6,1.96-56.62,12.14c4.17,6.46,8.11,12.43,11.79,18.02C2707.51,2496.56,2708.22,2497.64,2708.98,2498.8z"/>
				</g>
				<g>
					<path class="st4" d="M1736.05,1025.04c24.9-153.72-5.79-264.65-15.88-295.3c-28.83-13.12-57.67-30.57-58.23-48.08       c-0.48-14.79,19.99-34.45,43.17-51.89c-0.32-9.28,1.72-41.19,39.59-79.86c45.14-46.11,291.7-149.04,561.9-235.26       c219.34-69.99,292.71-75.45,312.56-75.02c6.31-2.63,11.09-4.82,13.98-6.5c-20.21-9.24-148.95-13.62-425.69,66.69       c-287.62,83.46-522.71,231.58-549.71,281.2c-12.04,22.13-5.09,69.68,4.52,135.48c12.1,82.83,28.68,196.28,15.59,325.69       c-20.73,204.92-93.68,301.79-112.5,323.71c11.11,5.98,22.87,11.87,35.33,17.66C1600.68,1383.56,1706.6,1206.9,1736.05,1025.04z       "/>
				</g>
				<g>
					<path class="st4" d="M2466,1174.24c-112.93,60.7-187.57,222.51-204.13,261.18c2.34,12.7,3.87,24.02,4.62,33.86       c16.82-25.76,58.05-83.91,123.01-144.22c77.6-72.05,205.46-161.66,378.76-186.48c-13.24-6.56-29.56-15.59-49.54-27.23       C2689.54,1111.17,2576.82,1114.68,2466,1174.24z"/>
				</g>
				<g>
					<path class="st4" d="M2715.03,2550.58c-0.16,0.34-0.42,0.89-0.76,1.59C2714.53,2551.64,2714.78,2551.11,2715.03,2550.58z"/>
				</g>
				<g>
					<path class="st4" d="M2032.37,1422.53c-96.12-4.6-222.52,14.92-253.74,20.06c-10.65,13.35-22.08,26.57-34.44,39.55       c44.44-6.68,174.71-25.5,205.65-21.55c10.23-1.39,141.93-17.68,277.13,37.23c-5.33-9.03-11.31-21.04-18.34-36.22       C2189.63,1453.09,2124.58,1426.94,2032.37,1422.53z"/>
				</g>
				<g>
					<path class="st4" d="M1633.76,2474.78c-129.68-39.37-206.26-113.2-206.26-113.2s-0.23,0.17-0.67,0.47       c-5.25,3.95-10.78,7.66-16.67,11.07c35.05,28.41,236.29,180.39,471.09,131.48c-3.4-4.85-6.62-9.67-9.74-14.47       C1851.62,2493.88,1749.96,2510.06,1633.76,2474.78z"/>
				</g>
				<g>
					<path class="st4" d="M825.9,2228.72l12.88-11.08l-38.88,9.54C810.08,2230.91,822.25,2229.33,825.9,2228.72z"/>
				</g>
				<g class="st5">
					<path class="st0" d="M892.16,2086.41c50.19-40.34,99.17-46.74,190.42-15.69c49.27,16.77,82.18,31.76,102.06,42       c-26.07-19.17-48.19-33.68-50.44-35.14c-4.82-2.44-135.47-67.88-209.53-38.12c-60.83,24.44-121.21,120.35-133.82,164.44       c-3.6,12.57-1.74,15.6-1.72,15.62c2.75,3.71,6.55,6.09,10.68,7.62C800.37,2225.83,842.3,2126.49,892.16,2086.41z"/>
				</g>
				<g>
					<path class="st4" d="M3153.02,1292.4c-0.01-0.01-1.29-1.31-7.38-0.58c-43.97,5.28-190.28,95.25-200.59,109.54       c0.97,7.51,18.58,37.11,35.9,62.81c7.32-4.24,14.27-8.33,21.03-12.34c0.18-0.27,30.17-44.29,73.5-78.29       c43.46-34.1,65.92-47.55,69.34-38.18c3.42,9.36,2.45,132.53-4.97,179.38c-4.5,28.42-9.54,41.56-13.04,47.65       c4.31-0.37,8.41-1.21,12.06-2.75c0.58-0.24,5.85-3.16,11.5-29.47C3166,1457.4,3165.54,1305.86,3153.02,1292.4z"/>
				</g>
				<g>
					<path class="st4" d="M2589.31,2319.82c-29.75-37.46-72.36-62.11-98.93-60.19c-23.21,1.68-64.24,41.2-74.26,51.19       c-1.31,13.91-3.78,27.72-7.41,41.18c-2.15,8.09-4.86,16.03-7.84,23.82c-1.39,3.25-2.82,6.48-4.33,9.67       c15.71-8.68,100.27-54.6,128.1-52.86c30.74,1.92,115.26,176.74,150.32,195.95c34.46,18.88,40.07,21.5,40.25,21.58       c0.65-1.5,1.23-3.04,1.64-4.64c1.06-4.16,1.1-8.27,0.17-12.4c0-0.01-0.01-0.01-0.01-0.02c0-0.01,0-0.02,0-0.03       c-0.79-3.47-2.25-6.96-4.46-10.5c-4.28-6.84-8.99-13.98-14.09-21.72c-19.91-30.18-47.05-71.38-78.28-141.14       C2613.86,2351.24,2603.96,2338.26,2589.31,2319.82z"/>
				</g>
				<g>
					<path class="st4" d="M2617.17,1686.52c37.49,0,67.88,22.08,67.88,49.31s-30.39,49.31-67.88,49.31       c-37.49,0-67.88-22.08-67.88-49.31S2579.68,1686.52,2617.17,1686.52z M2161.18,1750.55c36.34,0,65.79,37.2,65.79,83.08       c0,45.89-29.46,83.08-65.79,83.08c-36.34,0-65.79-37.2-65.79-83.08C2095.39,1787.75,2124.84,1750.55,2161.18,1750.55z        M1977.62,1558.59c28.91,0,52.35,27.71,52.35,61.88c0,34.18-23.44,61.88-52.35,61.88c-28.91,0-52.35-27.7-52.35-61.88       C1925.27,1586.3,1948.71,1558.59,1977.62,1558.59z M1332.36,1461.16c-24.7,18.39-66.72,3.74-93.86-32.71       s-29.11-80.91-4.41-99.3c24.7-18.39,66.72-3.74,93.86,32.71S1357.06,1442.78,1332.36,1461.16z M1881.86,1841.8       c-13.15,0-23.82-15.7-23.82-35.06s10.66-35.06,23.82-35.06c13.15,0,23.82,15.7,23.82,35.06S1895.01,1841.8,1881.86,1841.8z"/>
				</g>
				<g class="st5">
					<path class="st0" d="M860.06,1904.87c53.27-24.11,159.58,12.67,185.18,22.18c-4.44-8.7-8.81-17.41-13.05-26.11       c-9.21-4.35-68.31-31.09-123.95-29.2c-58.7,1.8-81.23,14.7-120.56,69.02c-38.42,53.07-40.53,110.43-25.06,125.08       C762.62,2065.84,799.23,1932.41,860.06,1904.87z"/>
				</g>
				<g class="st5">
					<path class="st0" d="M1371.06,1180c0,0,8.06,148.9,216.3,224.93c4.3-1.99,8.52-4.14,12.62-6.4c1.4-0.79,2.83-1.63,4.25-2.48       c-17.43-7.85-33.59-15.92-48.55-24.15c-0.14-0.05-0.26-0.15-0.4-0.22c-104.67-57.67-151.15-122.92-171.7-170.54       c-4.28-9.93-7.55-19.38-10.16-28.35l-0.12-0.18L1371.06,1180z"/>
				</g>
				<g class="st5">
					<path class="st0" d="M1874.07,1481.49c0,0,310.92,128.92,379.39,179.09c49.66,36.39,73.71,48.21,78.41,55.66       c-2.74-5.51-5.56-10.96-8.54-16.33c-5.04-8.86-10.39-17.52-16.21-25.8c-5.71-8.07-11.97-16.17-18.55-22.89       c-7.97-5.65-179.13-126.26-339.81-180.76c-7.9-1.05-59.32,6.53-78.71,8.17C1869.69,1479.44,1872.31,1480.4,1874.07,1481.49z"/>
				</g>
				<g class="st5">
					<path class="st0" d="M2567.38,1652.1c178.66-31.22,329.94-107.1,394.77-145.52c64.83-38.42,111.48-86.12,111.48-86.12       c-8.75,5.07-19.21,11.4-29.94,17.9c-64.02,38.8-171.17,103.72-295.63,144.65c-168.76,55.5-396.92,67.15-446.38,69.07       c4.26,5.86,16.81,27.09,20.49,33.24c0.17,0.29,0.69-3.45,0.86-3.15C2338.04,1684.02,2407.75,1679.99,2567.38,1652.1z"/>
				</g>
				<g class="st5">
					<path class="st0" d="M2589.31,2319.82c14.65,18.44,24.55,31.43,30.85,39.88c-0.59-1.32-1.18-2.59-1.77-3.93       c-34.84-78.66-88.27-112.67-120.02-118.45c-0.09-0.02-0.18-0.03-0.27-0.05c-3.25-0.58-6.27-0.86-9.01-0.86       c-23.27,0-55.03,32.88-65.3,45.55c-1.6,1.97-4.37,2.32-6.48,0.99c0.07,6.48-0.02,12.97-0.48,19.47       c-0.16,2.8-0.45,5.6-0.71,8.39c10.02-9.99,51.05-49.51,74.26-51.19C2516.95,2257.7,2559.56,2282.36,2589.31,2319.82z"/>
				</g>
				<g class="st6">
					<path class="st7" d="M1342.88,2321.74c-97.08,7.89-292.14-100.04-312.35-111.4c-1.25,3.54-2.36,7.12-3.19,10.79       c-1.46,5.7-2.11,11.6-2.82,17.46c-0.33,2.94-0.52,5.9-0.61,8.85c-0.14,2.18-0.2,4.41-0.21,6.56       c17.19,14.37,179.5,146.65,308.43,133.23c25.96-2.68,48.01-9.44,66.85-19.1c0.23-0.14,0.45-0.25,0.7-0.35       c85.13-44.19,102.8-149.2,104.63-217.85c0,0,0,0,0,0c0-0.17,0-0.34,0.01-0.51l0-0.01c0.03-1.07,0.07-2.17,0.09-3.22       c0-0.14,0.07-0.26,0.09-0.39c0.39-6.55,0.48-13.33,0.3-20.03c-0.23-7.91-0.75-15.85-1.65-23.75       C1503.14,2102.02,1445.34,2313.41,1342.88,2321.74z"/>
				</g>
				<g class="st6">
					<path class="st7" d="M1673.3,2372.35c-89.55-30.41-157.17-109.22-165.39-159.81c-9.25,51.61-31.07,111.91-81.08,149.52       c0.43-0.3,0.67-0.47,0.67-0.47s76.59,73.83,206.26,113.2c116.2,35.28,217.86,19.1,237.75,15.36       c-4.57-7.03-8.87-13.99-12.83-20.79c-16.81-28.84-29.71-57.28-39.43-82.24C1798.79,2389.06,1732.97,2393.11,1673.3,2372.35z"/>
				</g>
				<g class="st6">
					<path class="st7" d="M859.34,2277.87c-13.08-0.14-19.27-2.47-22.18-4.48c3.26,14.78,8.59,26.84,16.61,28.07       c18.14,2.78,28.89-6.07,32.1-9.25c-0.06-4.26,0.1-8.31,0.45-12.42c0.43-4.93,1.09-9.81,2.01-14.63       c0.39-2.13,0.86-4.24,1.35-6.35C885.49,2265.9,875.88,2278.04,859.34,2277.87z"/>
				</g>
				<g class="st6">
					<path class="st7" d="M1025.12,2212.64c-13.64-4.7-28.55-18.75-37.04-27.65c-4.28-4.49-6.96-7.7-6.96-7.7       c-3.21,3.49-5.85,7.34-8.12,11.4c-17.42,31.08-10.69,75.64-33.4,87.54c-21.59,11.31-39.27-9.59-44.36-16.54       c-0.26,3.21-0.45,6.42-0.49,9.62c-0.09,4.74,0.1,9.47,0.49,14.16c0.36,4.26,0.94,8.63,1.75,12.59       c9.1,15.26,35.7,50.87,56.31,43.23c21.62-7.99,50.13-56.9,61.12-78.52c-2.42-2.64-4.65-5.31-6.76-8.14       c-2.89-3.76-5.41-7.78-7.77-11.87c-4.65-8.21-8.33-17-10.29-26.17c5.26,7.76,10.42,15.21,16.15,22.2       c2.77,3.55,5.78,6.9,8.71,10.27c0.39,0.43,0.8,0.84,1.19,1.27c0.18-2.41,0.41-4.82,0.75-7.25c0.79-6.34,2.32-12.58,4.37-18.68       c1.25-3.33,2.7-6.6,4.36-9.76L1025.12,2212.64z"/>
				</g>
				<g class="st6">
					<path class="st7" d="M902.96,1973.07c-35.6,23.19-59.73,85.07-66.45,104c3.93,5.43,7.78,9.41,10.45,11.88       c21.95-25.75,47.49-48.05,73.99-58.7c63.96-25.69,162.79,13.25,201.67,30.83c-15.3-23.39-29.69-47.09-43.32-70.93       C1055.06,1982.53,940.67,1948.5,902.96,1973.07z"/>
				</g>
				<g class="st6">
					<path class="st7" d="M1153.98,1315.92c141.68-52.83,200.51-182.59,200.51-182.59c-54.12,79.04-149.99,132.64-280.16,156.04       c-96.55,17.37-183.68,12.92-206.88,11.27c0.74,6.94,2.24,19.91,4.77,37.86l0,0C872.23,1338.5,1012.3,1368.75,1153.98,1315.92z"/>
				</g>
				<g class="st6">
					<path class="st7" d="M2550.57,2037.75c-176.74,61.15-229.78,15.69-229.78,15.69l0.06,0.08c5.89,5.53,11.49,11.38,16.87,17.41       c11,12.45,20.81,25.95,29.61,40.08c8.84,14.14,15.97,29.24,22.67,44.51c6.09,15.51,11.72,31.28,15.67,47.49       c6.02,23.28,10.36,47.29,11.43,71.48c6.38-7.61,41.7-48,71.99-48c2.83,0,5.93,0.28,9.25,0.83       c22.41-13.84,290.06-182,427.14-394.29c68.08-105.43,110.47-203.91,135.64-279.62c0.04-0.6,0.16-1.21,0.43-1.79       c0.07-0.15,0.2-0.25,0.29-0.39c4.35-13.18,8.14-25.61,11.49-37.3l-19.65,42.6C2975.36,1720.45,2727.31,1976.59,2550.57,2037.75       z"/>
				</g>
				<g class="st6">
					<path class="st7" d="M2335.45,2072.85c-0.17-0.21-0.36-0.41-0.53-0.62l12.9,17.16       C2343.89,2083.74,2339.8,2078.19,2335.45,2072.85z"/>
				</g>
				<g class="st6">
					<path class="st7" d="M2706.96,2585.56c6.14,9.05,6.57,19.3,4.93,27.23c44.71-7.37,61.23-28.92,66.76-39.56       c-4.46,1.73-12.35,4.18-25.65,6.65C2735.84,2583.06,2717.19,2585.47,2706.96,2585.56z"/>
				</g>
				<g class="st6">
					<path class="st7" d="M2524.64,2332.62c-27.84-1.74-112.4,44.18-128.1,52.86c-2.05,4.36-4.27,8.64-6.9,12.7       c-0.15,0.23-0.46,0.3-0.69,0.15c-0.2-0.13-0.28-0.38-0.19-0.6l0.01-0.04c12.08-30.66,17.08-63.34,18.15-95.76       c1.02-32.45-1.81-65.13-8.96-97.05c-3.39-16.01-8.44-31.58-13.95-46.99c-6.12-15.15-12.68-30.21-20.95-44.37       c-4.47-7.86-9.29-15.53-14.43-22.99c23.75,91.22,48.17,374.64-174.59,382.32c-220.88,7.62-385.17-303.65-388.05-309.13       c0.48,19.56,2.01,39.08,4.28,58.49c1.68,14.07,3.67,28.09,5.98,42.05c2.3,13.77,4.87,27.57,7.84,41.1       c3.57,16.08,20.78,86.36,63.3,159.25c7.18,12.3,15.35,25.08,24.57,37.95c2.14,0.14,4.03,1.57,4.53,3.76       c0.19,0.81,0.11,1.6-0.09,2.35c47.85,64.53,122.6,129.56,234.13,144.64c250.96,33.93,340.93-89.91,349.68-103.04       c0.32-0.92,0.82-1.79,1.66-2.41c0.17-0.13,0.35-0.24,0.53-0.34l0.31-0.17c2.45-1.35,5.4-3.62,7.89-5.85       c2.51-2.34,4.97-4.82,7.09-7.6c4.37-5.46,7.9-11.66,10.69-18.25c2.57-6.66,4.54-13.66,5.55-20.88c0.66-3.59,0.7-7.25,1.08-10.9       c0.1-3.66,0.01-7.33,0.02-11.03c0.4,3.65,0.9,7.32,1.22,11.01c0.03,3.69,0.41,7.42,0.15,11.14c-0.2,7.47-1.39,14.92-3.32,22.26       c-2.15,7.27-5.17,14.38-9.31,20.94c-3.23,5.01-6.73,9.6-11.29,13.79c15.29,15.76,76.65,76.32,125.81,85.99       c51.73,10.2,78.51-17.62,82.19-21.8c1.36-3.31,7.36-20.41-8.22-31.63c-0.19,0.04-0.36,0.15-0.56,0.17       c-0.24,0.02-0.5,0.03-0.73,0.02c-11.61-0.58-22.9-1.78-34.21-3.51c-11.27-1.78-22.48-4.15-33.19-7.85       c11.13,2.1,22.38,2.78,33.6,2.91c11.19,0.06,22.5-0.4,33.47-1.46l0.09-0.01c0.32-0.03,0.6,0.07,0.91,0.09       c2.39-1.43,16.12-10.04,22.62-22.75c0.34-0.7,0.6-1.25,0.76-1.59c0.06-0.14,0.12-0.29,0.18-0.43       c-0.18-0.08-5.79-2.7-40.25-21.58C2639.9,2509.36,2555.37,2334.54,2524.64,2332.62z"/>
				</g>
				<g class="st6">
					<path class="st7" d="M3144.83,1335.37c-3.42-9.37-25.87,4.08-69.34,38.18c-43.33,34-73.32,78.02-73.5,78.29       c13.33-7.9,25.64-15.34,36.57-21.96c39.79-24.12,52.68-31.68,59.22-29.94c1.74,0.47,3.16,1.55,3.99,3.06       c4.4,7.92-2.28,64.52-29.49,147.97c9.65,3.96,34.54,13.13,54.55,11.42c3.5-6.09,8.54-19.23,13.04-47.65       C3147.28,1467.9,3148.25,1344.73,3144.83,1335.37z"/>
				</g>
				<g class="st6">
					<path class="st7" d="M2432.75,439.76c-322.73,33.3-484.1,102.46-545.57,148.7c-61.47,46.24-28.18,81.83-32.02,272.65       s-68.52,502.03-151.76,565.42c-82.8,63.06-59.22,131.3-58.96,132.02c12.94-9.87,25.31-20.44,37.51-31.19       c15.26-13.52,30.23-27.44,44.84-41.58c0,0,0,0,0,0c123.9-123.9,162.4-270.7,172.87-372.04       c11.37-110.04-6.88-191.79-7.07-192.61c-0.51-2.22,0.56-4.51,2.6-5.53c2.03-1.03,4.51-0.54,6,1.19       c0.47,0.55,48.9,57.32,160.49,229.79c59.36,91.74,102.36,189.69,133.77,261.2c17.25,39.28,36.41,82.86,47.71,97       c1.1,0.59,1.94,1.5,2.35,2.61c1.66,1.59,3.1,2.34,4.25,2.05c1.5-0.36,2.86-1.76,4.02-4.16c2.04-4.22,3.26-10.9,3.46-19.99       c0.01-0.12-0.01-0.23,0-0.35c0.9-47.21-25.73-159.69-110.73-342.54c-87.15-187.49-174.76-297.32-212.17-344.22       c-10.11-12.67-16.21-20.32-18.3-24.49c-1.73-3.47-1.2-7.23,1.43-10.04c14.89-15.96,130.44-9.24,341.74,78.8       c119.73,49.89,257,134.05,367.29,201.67c50.46,30.94,94.04,57.66,126.97,75.56c47.55,25.85,55.12,23.05,56.15,22.24       c0.98-0.98,2.23-2.75,1.76-6.7c-0.84-6.98-6.39-17.06-17.41-30.28c-0.01-0.01-0.01-0.02-0.02-0.02       c-39.16-46.96-147.41-133.61-359.92-262.6c-288.92-175.37-485.5-209.05-487.45-209.37c-2.06-0.34-3.7-1.94-4.08-3.99       c-0.38-2.06,0.57-4.13,2.37-5.19c206.22-120.51,566.8-165.92,1042.78-131.29c64.04,4.65,105.15,2.97,128.3-0.89       C3065.62,478.66,2729.45,409.15,2432.75,439.76z"/>
				</g>
				<g class="st6">
					<path class="st7" d="M2674.8,605.36c48.3-83.95,223.96-100.97,291.51-104.42c-448.7-30.55-804.14,13.58-1004.95,124.83       c48.88,10.67,229.67,57.42,477.8,208.04c149.38,90.67,261.59,169.22,324.58,226.15       C2769.52,1051.59,2614.61,709.99,2674.8,605.36z"/>
				</g>
				<g class="st6">
					<path class="st7" d="M2032.37,1422.53c92.2,4.41,157.26,30.56,176.26,39.08c-6.44-13.89-13.75-30.42-22.28-49.85       c-31.26-71.21-74.08-168.73-133.01-259.8c-79.76-123.26-127.05-187.12-147.56-213.55c4.82,30.98,11.99,96.19,3.78,175.99       c-9.22,89.65-40.06,214.29-130.93,328.2C1809.85,1437.45,1936.25,1417.94,2032.37,1422.53z"/>
				</g>
				<g class="st6">
					<path class="st7" d="M2466,1174.24c110.81-59.56,223.54-63.07,252.71-62.9c-25.87-15.07-57.89-34.54-97.41-58.77       c-110-67.44-246.9-151.38-365.92-200.97c-214.23-89.26-319.22-89.77-330.11-81.7c2.1,3.63,8.36,11.48,16.82,22.08       c37.63,47.18,125.76,157.66,213.41,346.22c61.38,132.05,94.49,232.77,106.37,297.21       C2278.44,1396.75,2353.07,1234.94,2466,1174.24z"/>
				</g>
				<g class="st6">
					<path class="st7" d="M1766.01,708.5c-2.47-15.95-4.69-30.36-6.3-43.39c-4.11,0.55-14.36,2.21-35.18,7       c-23.1,5.31-39.8,14.37-46.18,20.67c16.21,16.25,59.59,34.96,92.28,46.07C1769.06,728.26,1767.5,718.12,1766.01,708.5z"/>
				</g>
				<g class="st6">
					<path class="st7" d="M2306.6,314.64c-270.2,86.22-516.76,189.16-561.9,235.26c-37.87,38.67-39.91,70.58-39.59,79.86       c25.74-19.37,54.81-36,62.26-40.18c11.26-15.25,39.74-33.6,81.59-53.59c-0.05-1.82,0.86-3.61,2.57-4.53       c143.2-76.56,412.77-168.49,591.15-229.33c65.5-22.34,125.11-42.67,160.43-56.15c0.03-0.01,0.06-0.03,0.09-0.04       c6.09-2.32,11.4-4.43,15.95-6.33C2599.31,239.2,2525.94,244.65,2306.6,314.64z"/>
				</g>
				<g class="st6">
					<path class="st7" d="M1736.05,1025.04c-29.46,181.86-135.37,358.52-135.37,358.52c4.15,1.93,8.38,3.84,12.69,5.74       c18.7-18.08,145.39-148.27,166.4-373.04c10.48-112.05,2-198.86-7.57-266.41c-10.07-3.3-31.05-10.56-52.04-20.11       C1730.26,760.39,1760.95,871.32,1736.05,1025.04z"/>
				</g>
				<g class="st6">
					<path class="st7" d="M2545.27,277.38c-26.19,9.14-58.8,20.32-99.37,34.15c-138.67,47.29-332.53,113.41-478.82,176.33       c77.16-27.71,171.45-56.22,274.91-82.36c67.5-17.06,148.8-26.92,234.32-31.17C2490.53,323.28,2528.18,289.54,2545.27,277.38z"/>
				</g>
				<g class="st6">
					<path class="st7" d="M1642.88,643.94c-4.94-0.58-14.21-0.68-28.34,1.78c-22.02,3.83-54.53,11.32-54.73,11.36       c10.84,16.01,56.65,42.04,91.06,58.76l1.32,0.34C1648.19,688.88,1644.71,664.71,1642.88,643.94z"/>
				</g>
				<g class="st6">
					<path class="st7" d="M2708.98,2498.8c4.27,6.48,8.3,12.63,11.97,18.49c0.82,1.32,1.56,2.64,2.23,3.96       c15.04-21.77,28.32-45.58,28.62-54.02C2747.92,2462.56,2716.89,2491.33,2708.98,2498.8z"/>
				</g>
				<g class="st6">
					<path class="st7" d="M923.74,1582.59c40.1,145,106.91,324.19,216.52,487.1c7.87,5.17,67.65,44.75,107.23,80.92       c1.54-12.99,4.77-37.59,10.09-67.09C1056.99,1903.55,923.74,1582.59,923.74,1582.59z"/>
				</g>
				<g class="st6">
					<ellipse class="st7" cx="2161.18" cy="1833.64" rx="65.79" ry="83.08"/>
				</g>
				<g class="st6">
					<ellipse class="st7" cx="1977.62" cy="1620.47" rx="52.35" ry="61.88"/>
				</g>
				<g class="st6">
					<path class="st7" d="M1881.86,1771.68c-13.15,0-23.82,15.7-23.82,35.06s10.66,35.06,23.82,35.06       c13.15,0,23.82-15.7,23.82-35.06S1895.01,1771.68,1881.86,1771.68z"/>
				</g>
				<g class="st6">
					<ellipse class="st7" cx="2617.17" cy="1735.82" rx="67.88" ry="49.31"/>
				</g>
				<g class="st6">
					<path class="st7" d="M1234.1,1329.15c-24.7,18.39-22.72,62.84,4.41,99.3s69.16,51.1,93.86,32.71       c24.7-18.39,22.72-62.84-4.41-99.3S1258.8,1310.77,1234.1,1329.15z"/>
				</g>
				<g>
					<path class="st1" d="M1964.25,636.59c0,0,39.47,34.98,153.45,79.17c113.98,44.18,320.17,149.2,445.68,231.8       c125.51,82.6,164.7,95.11,164.7,95.11s-102.16-90.02-317.21-219.99C2195.82,692.7,2004.18,638.74,1964.25,636.59z"/>
				</g>
				<g>
					<g>
						<path class="st7" d="M1313.35,2410.92c-115.52,0-243.24-91.25-288.92-127.06c-14.14,25.03-39.39,63.75-64.72,73.12        c-30.75,11.35-58.58-17.47-73.64-37.8c-9.35,4.31-21.45,6.95-35.76,4.75c-28.84-4.43-37.15-43.29-39.33-71.71        c-13.15-0.7-29.51-4.83-40.12-19.16c-7.71-10.42-4.82-25-1.97-35.08c13.42-47.43,75.83-150.91,147.3-179.62        c52.28-21,124.9-2.31,174.22,15.77c-210.02-342.63-245.84-733.3-246.19-737.39c-0.45-5.26,1.46-10.45,5.21-14.16        c3.75-3.72,8.98-5.56,14.21-5.06c3.82,0.37,383.35,34.23,491.62-190.8c3.88-8.07,13.17-11.99,21.67-9.15        c8.5,2.85,13.54,11.58,11.77,20.36c-1.25,6.58-27.66,162.55,221.84,276.04c30.36-31.46,137.48-155.71,156.48-358.93        c12.6-134.78-2.58-232.93-13.67-304.59c-9.39-60.72-15.6-100.83,2.68-127.16c39.69-57.16,271.1-136.73,482.82-190.23        c248.2-62.71,681.39-29.28,832.64,25.75c71.09,25.87,95.63,44.28,90.57,67.94c-4.73,22.13-34.77,27.5-63.52,29.83        c-28.56,2.32-67.48,1.81-112.54-1.47c-434.04-31.57-781.73,6.1-988.14,106.16c75.6,19.97,236.05,72.95,447.96,201.58        c141.36,85.8,379.76,240.12,388.13,309.62c1.2,9.92-1.74,18.98-8.27,25.51c-19.91,19.9-52.68,2.61-211.07-94.5        c-109.62-67.21-246.05-150.85-364.15-200.06c-162.27-67.61-262.3-84.27-301.77-84.27c-0.14,0-0.29,0-0.43,0        c1.27,1.59,2.57,3.22,3.86,4.84c37.92,47.54,126.71,158.86,215.01,348.81c86.97,187.08,129.01,337.17,107.11,382.38        c-4.16,8.6-10.99,14.41-19.22,16.37c-27.19,6.5-41.69-26.5-80.39-114.64c-31.09-70.81-73.67-167.78-132.04-257.99        c-53.78-83.12-92.71-139.08-118.55-174.68c2.67,34.33,3.6,79.66-1.73,131.47c-9.78,95.05-43.35,228.71-144.88,348.62        c58.71-8.36,149.7-20.07,175.11-16.31c1.05,0.16,2.09,0.41,3.09,0.75c153.46,51.94,311.32,159.54,341.63,180.74        c39.65-1.42,273.12-11.99,443.71-68.09c122-40.12,227.77-104.21,290.96-142.5c46.1-27.93,57.06-34.55,69.13-31.35        c5.13,1.36,9.36,4.64,11.91,9.22c10.77,19.39-12.17,106.21-25.8,149.42c-22.07,69.93-64.71,178.59-142.58,299.17        c-145.27,224.98-424.2,395.21-436,402.34c-8.4,5.08-19.32,2.39-24.4-6.01c-5.08-8.4-2.39-19.33,6.01-24.41        c2.82-1.71,283.78-173.23,424.53-391.21c113.66-176.03,155.54-334.42,164.1-393.82c-8.44,4.92-18.53,11.04-28.47,17.06        c-64.49,39.08-172.43,104.48-298.28,145.87c-191.12,62.85-448.89,69.78-459.77,70.04c-3.88,0.14-7.64-1.07-10.77-3.31        c-1.73-1.24-174.12-123.8-335.62-178.91c-26.3-2.7-143.69,13.07-212.89,23.84c-7.62,1.17-15.1-2.66-18.58-9.52        c-3.48-6.86-2.16-15.18,3.28-20.62c232.41-232.41,163.1-549.55,162.37-552.73c-1.82-7.97,2.02-16.15,9.31-19.83        c7.29-3.69,16.16-1.92,21.49,4.27c1.97,2.29,49.47,57.98,161.54,231.18c59.92,92.6,103.16,191.09,134.74,263.01        c13.08,29.79,27.4,62.41,37.71,81c0.31-40.6-23.28-149.27-110-335.82c-86.5-186.08-173.44-295.08-210.56-341.62        c-12.13-15.21-17.16-21.59-19.74-26.76c-4.17-8.33-2.81-17.72,3.52-24.51c27.83-29.81,180.89,2.74,356.03,75.72        c120.65,50.27,258.39,134.72,369.06,202.57c61.35,37.61,129.54,79.42,160.53,92.29c-20.07-31.21-107.15-114.89-366.35-272.23        c-286.31-173.79-480.95-207.37-482.88-207.69c-7.39-1.22-13.23-6.94-14.59-14.31c-1.36-7.37,2.04-14.8,8.51-18.58        c208.47-121.82,571.61-167.81,1050.18-133.01c72.94,5.3,111.8,2.15,129.61-1.47c-9.12-5.55-26.4-14.15-58.86-25.96        c-143.79-52.33-573.66-84.87-811.77-24.69c-267.9,67.7-438.15,141.23-462.33,176.04c-10.18,14.65-4.25,52.95,3.25,101.45        c10.73,69.36,26.95,174.17,13.93,313.34c-23.43,250.59-169.95,384.46-176.17,390.03c-5.18,4.64-12.58,5.84-18.96,3.06        c-188.54-82.17-239.62-190.17-251.91-257.53c-57.4,74.62-152.48,125.36-278.77,148.06c-83.76,15.06-158.98,14.12-194.66,12.38        c10.99,88.89,66.27,447.43,269.49,748.98c4.53,6.72,3.93,15.66-1.45,21.73c-5.39,6.07-14.21,7.71-21.41,4.01        c-35.79-18.36-141.35-60.93-199.13-37.74c-65.19,26.18-124.54,136.89-127.87,162.48c5.64,3.59,17.08,3.29,22.87,2.12        c5.22-1.04,10.7,0.29,14.82,3.66c4.12,3.38,6.56,8.42,6.56,13.75c0.03,23.73,5.24,50.17,10.84,55.56        c13.15,1.64,19.81-5.34,20.54-6.17c3.51-4.88,8.84-7.12,14.86-6.85c6.01,0.28,11.06,4.12,14.09,9.32        c11.73,19.95,32.71,41.62,41.25,38.4c14.04-5.19,39.75-43,55.52-75.05c2.43-4.93,7-8.47,12.39-9.57        c5.39-1.09,10.98,0.35,15.15,3.94c1.69,1.45,170.33,144.96,300.35,131.55c136.41-14.11,159.29-149.25,160.79-228.55        c0.19-9.81,8.34-17.54,18.11-17.44c9.82,0.19,17.62,8.3,17.44,18.11c-2.92,154.93-73.15,250.87-192.68,263.24        C1327.49,2410.58,1320.44,2410.92,1313.35,2410.92z"/>
					</g>
					<g>
						<path class="st7" d="M1251.31,2178.78c-4.54,0-9-1.74-12.37-5.01c-39.87-38.65-111.21-85.11-111.93-85.58        c-8.23-5.34-10.58-16.35-5.23-24.58c5.35-8.23,16.36-10.57,24.59-5.23c2.48,1.61,50.73,33.04,91.44,66.85        c6.16-43.91,19.68-121.68,44.41-182.83c3.68-9.1,14.04-13.5,23.14-9.81c9.1,3.68,13.49,14.04,9.81,23.14        c-33.82,83.63-46.05,205.79-46.17,207.02c-0.66,6.79-5.16,12.6-11.56,14.96C1255.44,2178.43,1253.37,2178.78,1251.31,2178.78z        "/>
					</g>
					<g>
						<path class="st7" d="M1785.07,2537.27c-220.34,0-387.28-144.47-395.36-151.59c-7.37-6.49-8.08-17.72-1.59-25.09        c6.48-7.37,17.72-8.08,25.09-1.59c2.53,2.22,219.98,189.69,474.46,131.11c9.55-2.2,19.1,3.77,21.31,13.33        c2.2,9.57-3.77,19.11-13.33,21.31C1857.7,2533.5,1820.68,2537.27,1785.07,2537.27z"/>
					</g>
					<g>
						<path class="st7" d="M847.49,2113.74c-3.65,0-7.33-1.13-10.49-3.47c-1.19-0.88-20.69-15.63-31.68-43.25        c-10.46,11.47-22.63,21.19-34.74,22.86c-8.81,1.22-17.18-1.46-23.59-7.53c-28.4-26.9-17.99-99.3,22.28-154.92        c40.53-55.98,67.51-76.25,138.28-78.42c66.19-1.96,133.19,30.77,136.01,32.17c8.8,4.35,12.4,15.01,8.04,23.81        c-4.35,8.8-15.01,12.39-23.82,8.05c-0.6-0.3-62.09-30.36-119.14-28.49c-54.81,1.68-73.42,12.41-110.58,63.74        c-33.49,46.26-34.7,90.04-29,104.36c7.96-5.97,21.75-22.95,31.56-39.37c4.2-7.04,12.68-10.28,20.5-7.88        c7.83,2.42,13,9.87,12.51,18.05c-2.24,37.3,23.54,57.49,24.64,58.33c7.75,5.93,9.32,17.05,3.45,24.85        C858.21,2111.27,852.89,2113.74,847.49,2113.74z"/>
					</g>
					<g>
						<path class="st7" d="M798.39,2019.16c10.41-21.18,21.83-42.51,39.57-58.26c-5.5,15.72-5.71,32.38-5.54,48.79        c0.15,5.34,0.35,11.02,0.93,15.9c1.19,10.19-6.1,19.42-16.29,20.62C802.61,2048.31,791.46,2031.8,798.39,2019.16        L798.39,2019.16z"/>
					</g>
					<g>
						<path class="st7" d="M873.2,2296.72c2.8-21.37,11.56-42.01,23.36-59.5c-0.04,10.08,1.03,19.8,3.09,29.1        c2.02,8.54,4.5,17.93,8.74,25.38c7.06,8.6,5.82,21.29-2.78,28.36c-13.2,11.36-34.55,0.09-32.89-17.01        C872.73,2303.03,873.2,2296.72,873.2,2296.72L873.2,2296.72z"/>
					</g>
					<g>
						<path class="st7" d="M814.94,2221.36l41.28-18.73l-15.07,42.75c-3.55,10.06-14.58,15.35-24.65,11.8        C800.15,2251.66,799.35,2228.15,814.94,2221.36L814.94,2221.36z"/>
					</g>
					<g>
						<path class="st7" d="M1042.56,2189.19c-5.27,17.52-4.56,33.51-5.49,50.88c-0.08,1.92-0.82,16.69-0.88,18.2        c-0.45,9.37-8.42,16.6-17.79,16.15c-7.61-0.08-13.03-6.3-16.82-11.68c-10.61-14.81-17.19-33.39-13.45-51.78        c15.61,9.75,28.86,21.11,42.66,32.69c0,0-29.38,13.72-29.38,13.72C998.95,2230.07,1011.72,2192.98,1042.56,2189.19        L1042.56,2189.19z"/>
					</g>
					<g>
						<path class="st7" d="M2215.2,2682.03c-26.93,0-56.11-1.9-87.72-6.17c-115.99-15.69-212.77-84.86-279.88-200.05        c-50.05-85.91-65.92-166.21-66.57-169.59c-1.86-9.64,4.45-18.96,14.09-20.82c9.63-1.83,18.96,4.45,20.82,14.09        c0.74,3.79,62.78,306.86,316.31,341.14c253.61,34.3,334.48-92.76,337.8-98.19c2.91-4.75,7.9-7.91,13.45-8.45        c5.55-0.54,11.05,1.5,14.83,5.6c19.38,20.99,79.15,77.34,122.44,85.86c40.17,7.92,62.6-10.3,68.65-16.2        c1.26-4.16,1.5-10.38-5.38-14.84c-5.23-3.39-8.3-9.27-8.1-15.49c0.2-6.23,3.65-11.89,9.09-14.94        c4.18-2.4,16.9-11.62,19.43-21.67c0.65-2.6,1.08-6.78-2.77-12.94c-4.23-6.77-8.88-13.82-13.93-21.47        c-20.53-31.13-48.66-73.76-81.06-146.92c-37.38-84.42-95.36-111.73-117.58-111.73c-15.19,0-42.01,24.35-55.35,40.81        c-6.19,7.63-17.38,8.78-25,2.61c-7.62-6.19-8.79-17.38-2.61-25c7.31-9.01,45.64-53.96,82.96-53.96        c36.67,0,106.91,35.39,150.08,132.88c31.2,70.45,57.28,109.98,78.23,141.74c5.22,7.92,10.03,15.21,14.4,22.21        c8.11,12.97,10.54,27.05,7.04,40.69c-3.3,12.88-11.28,23.17-18.97,30.55c9.16,16.46,5.51,35.01,0.91,44.72        c-0.61,1.28-1.36,2.49-2.26,3.58c-1.45,1.79-36.34,43.7-104.64,30.26c-47.5-9.35-101.38-56.78-126.89-81.59        C2457.74,2612.62,2377.92,2682.03,2215.2,2682.03z"/>
					</g>
					<g>
						<path class="st7" d="M2240.84,1526.89c-2.43,0-4.9-0.5-7.26-1.56c-139.01-62.3-279.62-42.35-281.03-42.16        c-9.69,1.46-18.75-5.25-20.2-14.95c-1.45-9.7,5.23-18.75,14.93-20.21c6.14-0.92,151.99-21.83,300.83,44.87        c8.96,4.01,12.97,14.53,8.95,23.49C2254.11,1522.98,2247.63,1526.89,2240.84,1526.89z"/>
					</g>
					<g>
						<path class="st7" d="M2262.11,1503.38c-3,0-6.04-0.76-8.82-2.36c-8.52-4.88-11.46-15.74-6.58-24.26        c1.83-3.2,45.87-79.21,134.08-161.11c81.54-75.71,217.68-170.49,403.17-192.05c9.78-1.13,18.58,5.85,19.71,15.6        c1.13,9.75-5.85,18.58-15.6,19.71c-337.03,39.18-508.82,332.56-510.51,335.52        C2274.27,1500.18,2268.28,1503.38,2262.11,1503.38z"/>
					</g>
					<g>
						<path class="st7" d="M2797.63,1119.34c-0.28,0-0.57-0.01-0.85-0.02c-9.8-0.46-17.38-8.78-16.92-18.58        c0.17-3.68,4.63-91.53,41.37-211.44c33.92-110.72,103.03-270.34,239.67-402.04c7.07-6.82,18.32-6.6,25.13,0.46        c6.81,7.07,6.61,18.32-0.46,25.13c-250.83,241.77-270.03,586.1-270.19,589.55        C2814.92,1111.93,2807.06,1119.34,2797.63,1119.34z"/>
					</g>
					<g>
						<path class="st7" d="M1557.42,1385.06c-4.49,0-8.99-1.69-12.45-5.09c-6.99-6.86-7.11-18.08-0.28-25.09l0,0        c0.88-0.91,88.11-93.36,110.53-314.98c12.81-126.63-3.53-238.47-15.46-320.13c-10.63-72.77-17.65-120.84-1.99-149.62        c33.11-60.84,274.68-208.41,563.34-292.17c158.46-45.98,264.45-62.82,325.46-68.86c118.53-11.73,126.67,8.57,130.15,17.24        c1.92,4.79,1.78,10.03-0.4,14.78c-5.87,12.79-17.73,18.21-206.25,82.5c-177.7,60.6-446.23,152.18-587.81,227.87        c-8.66,4.62-19.43,1.36-24.06-7.29c-4.63-8.66-1.36-19.43,7.29-24.06c144.13-77.06,414.31-169.2,593.09-230.17        c53.39-18.21,105.04-35.82,141.06-48.95c-62.17,1.43-182.73,17.12-368.63,71.07c-284.49,82.55-515.9,227.01-542.03,275.02        c-10,18.38-2.61,68.94,5.94,127.49c12.2,83.5,28.91,197.85,15.66,328.85c-23.8,235.31-116.55,332.24-120.48,336.25        C1566.63,1383.28,1562.03,1385.06,1557.42,1385.06z"/>
					</g>
					<g>
						<path class="st7" d="M2503.18,396.29c-2.41,0-4.86-0.49-7.2-1.54c-8.97-3.98-13.02-14.48-9.03-23.46        c36.05-81.21,103.91-132.61,106.78-134.76c7.86-5.88,19-4.27,24.88,3.58c5.88,7.85,4.28,18.98-3.56,24.87l0,0        c-0.63,0.48-63.43,48.24-95.61,120.73C2516.5,392.35,2509.99,396.29,2503.18,396.29z"/>
					</g>
					<g>
						<path class="st7" d="M1776.69,763.86c-1.79,0-3.62-0.28-5.42-0.85c-45.1-14.43-120.95-44.13-122.14-80.95        c-1.14-35.33,70.22-80.42,112.86-104.15c8.58-4.78,19.4-1.69,24.17,6.89c4.78,8.57,1.69,19.4-6.88,24.17        c-46.53,25.92-89.7,58.82-94.37,71.71c6.27,11.17,51.57,33.85,97.19,48.46c9.35,2.99,14.5,13,11.51,22.35        C1791.2,759.05,1784.21,763.86,1776.69,763.86z"/>
					</g>
					<g>
						<path class="st7" d="M1658.47,742.74c-2.5,0-5.04-0.53-7.46-1.65c-50.5-23.41-111.61-57.29-115.98-85.71        c-3.89-25.3,33.39-56.53,110.81-92.83c8.88-4.17,19.47-0.34,23.64,8.54s0.34,19.47-8.54,23.64        c-41.34,19.4-81.19,44.58-89.65,56.3c9.16,11.81,51.25,37.65,94.68,57.8c8.91,4.13,12.78,14.7,8.65,23.6        C1671.6,738.93,1665.18,742.74,1658.47,742.74z M1569.86,648.79L1569.86,648.79z"/>
					</g>
					<g>
						<path class="st7" d="M1742.19,1502.49c-34.94,22.94-70.26,45.67-107.95,63.64c23.2-20.6,43.77-43.54,64.21-66.72        c6.73-7.72,13.5-15.57,19.94-23.33C1736.92,1456.11,1763.99,1486.1,1742.19,1502.49L1742.19,1502.49z"/>
					</g>
					<g>
						<path class="st7" d="M1625.29,1409.2c-18.89,10.2-40.35,13.87-61.07,17.33c-18.96,2.95-39.54,4.38-58.7,5.13        c0,0,13.69-5.01,13.69-5.01c22.02-8.48,44.53-18.28,64.46-30.59c6.85-4.48,14.62-9.06,19.8-14.94        C1622.34,1367.21,1643.45,1394.34,1625.29,1409.2L1625.29,1409.2z"/>
					</g>
					<g>
						<path class="st7" d="M1280.73,1946.2c22.8-35.18,54.18-64.51,90.97-84.22c-27.13,27.18-47.73,61.63-58.34,98.34        C1305.17,1987.49,1266.56,1970.86,1280.73,1946.2L1280.73,1946.2z"/>
					</g>
					<g>
						<path class="st7" d="M1491.53,2148.68c6.7-30.57,6.79-62.38,2.47-93.65c7.94,14.21,14.81,29.36,20.36,45.16        c5.8,16.83,10.61,33.52,12.84,51.46c1.13,10.01-6.06,19.05-16.08,20.18C1498.49,2173.55,1487.82,2160.79,1491.53,2148.68        L1491.53,2148.68z"/>
					</g>
					<g>
						<path class="st7" d="M1781.89,2310.27c-2.5-29.33-3.29-57.86-2.94-87.07c0.46-28.85,2.34-57.71,7.05-85.89        c1.9,42.72,9.78,84.36,19.78,125.64c3.37,13.64,7.04,27.49,11.02,40.52C1823.2,2328.79,1785.48,2336.18,1781.89,2310.27        L1781.89,2310.27z"/>
					</g>
					<g>
						<path class="st7" d="M2387.66,2397.06c8.85-51.69,6.68-102.5,4.83-154.35c-0.91-11.07-2.18-24.52-4.48-35.4        c-12.11-62.69-40.25-124.49-88.28-168.21c-1.56-1.27,0.33-4.04,2.11-2.84c14.48,8.84,27.15,19.96,38.94,32.07        c42.12,42.81,68.18,99,81.65,157.13c11.87,42.01,11.1,87.67-4.84,128.53c-6.36,16.26-14.5,31.99-26.83,44.81        C2389.5,2400.13,2387.15,2398.86,2387.66,2397.06L2387.66,2397.06z"/>
					</g>
					<g>
						<path class="st7" d="M2476.17,2536.34c20.68-6.71,33.16-31.22,37.24-52.44c0.63-3.62,1.08-7.3,1.62-11.05        c4.45,15.13,6.43,30.52,4.11,46.49c-2.65,16.62-10.15,33.9-22.74,45.86C2476.62,2580.77,2454.9,2550.28,2476.17,2536.34        L2476.17,2536.34z"/>
					</g>
					<g>
						<path class="st7" d="M2704.71,2636.64c-8.88,0-16.56-6.65-17.63-15.68c-1.16-9.75,5.81-18.59,15.56-19.75        c36.21-4.3,53.1-18.17,60.6-27.71c-10.17-6.63-29.69-16.92-48.72-25.47c-4.89-2.19-8.52-6.47-9.9-11.65        c-1.38-5.17-0.35-10.69,2.8-15.02c10.77-14.82,20.93-31.25,26.67-42.66c-10.84,2.41-26.05,7.15-40.03,12.72        c-9.12,3.63-19.46-0.81-23.09-9.92c-3.64-9.12,0.8-19.45,9.91-23.1c0.68-0.27,16.8-6.68,33.97-11.48        c15.54-4.35,47.87-13.38,57.61,9.33c2.4,5.6,8.38,19.56-24.08,68.5c4.65,2.3,9.74,4.9,14.82,7.62        c20.74,11.11,46.54,24.93,38.24,45.7c-4.65,11.63-25.21,50.21-94.61,58.44C2706.11,2636.59,2705.41,2636.64,2704.71,2636.64z"/>
					</g>
					<g>
						<path class="st7" d="M2691.39,2597.56c-23.52-5.4-46.83-12.61-67.82-24.17c22.74-0.21,45.16-4.99,66.65-11.36        c9.71-3.19,20.17,2.1,23.36,11.81C2718.43,2587.31,2705.01,2601.4,2691.39,2597.56L2691.39,2597.56z"/>
					</g>
					<g>
						<path class="st7" d="M3121.79,1585.26c-28.95,0-58.97-13.47-63.23-15.44c-8.9-4.14-12.76-14.71-8.62-23.61        c4.14-8.9,14.72-12.76,23.61-8.62c12.5,5.77,42.07,15.53,57.94,11.08c5.35-9.79,14-49.26,17.1-122.9        c2.65-62.95-0.67-105.67-4.36-121.02c-34.02,5.74-154.91,75.71-184.24,100.07c5.76,12.1,20.73,36.34,34.12,55.93        c5.54,8.11,3.45,19.17-4.65,24.71c-8.1,5.53-19.17,3.46-24.7-4.65c-43.17-63.18-42.65-76.18-42.46-81.07        c0.34-8.49,0.69-17.26,76.38-62.99c44.98-27.18,88.72-49.66,117-60.12c19.76-7.32,41.63-13,53.99,0.29        c4.41,4.74,16.12,17.33,15.38,113.33c-0.34,43.54-3.78,104.43-12.44,144.72c-5.89,27.45-13.11,40.66-24.9,45.63        C3139.72,1583.96,3130.8,1585.26,3121.79,1585.26z M3130.59,1550.08L3130.59,1550.08L3130.59,1550.08z M2957.69,1398.98        L2957.69,1398.98z"/>
					</g>
					<g>
						<path class="st7" d="M2304.68,1635.13c24.26,35.88,36.5,78.47,44.19,120.55c-17.87-35.29-39.42-70.26-69.79-95.89        c-9.51-4.16-13.85-15.24-9.69-24.75c5.22-12.84,23.65-15.13,31.94-4.18C2301.31,1630.85,2304.68,1635.13,2304.68,1635.13        L2304.68,1635.13z"/>
					</g>
					<g>
						<path class="st7" d="M1263.78,2148.34c16.52,25.18,28.76,53.39,33.26,83.11c-14.68-23.28-35.29-42.92-58.19-57.76        c-8.85-4.98-11.98-16.18-7.01-25.03C1238.38,2136.33,1256.94,2136.4,1263.78,2148.34L1263.78,2148.34z"/>
					</g>
				</g>
			</g>
			<g>
				<g>
					<path class="st1" d="M1424.23,760.24c-5.48-48.52-13.62-95.96-21.19-140.07l-3-17.56       c-35.57-208.76-200.78-275.07-202.45-275.72c-0.99-0.39-1.84-1.08-2.4-1.98c-58.58-92.98-132.64-84.27-198-76.58l-0.86,0.1       c-58.92,6.94-56.31,35.49-56.17,36.71c0.23,2.01-0.78,3.99-2.56,4.96c-1.79,0.97-3.97,0.78-5.53-0.51       c-65.66-54.57-166.12-41.3-167.11-41.17c-1.26,0.19-2.58-0.15-3.63-0.91c-0.48-0.36-50.07-35.83-121.72-18.39       c-62.4,15.2-88.51,105.24-94.07,127.54c5.32,0.91,14.36,2.53,25.88,4.83c4.73-13.25,18.92-47.18,43.94-59.99       c11.43-5.85,23.62-6.58,36.24-2.17c54.75,19.16,37.96,97.82,37.79,98.61c-0.31,1.4-1.21,2.59-2.46,3.28       c-0.74,0.4-1.57,0.61-2.39,0.61c-0.57,0-1.14-0.1-1.69-0.3c-36.21-13.13-77.22-22.86-106.22-28.86       c-1.08,0.55-2.38,0.71-3.64,0.32c-0.96-0.29-1.78-0.84-2.38-1.55c-18.4-3.7-30.7-5.67-31.77-5.84       c-147.75-16.04-228.36,12.94-249.01,21.9l48.03,61.37c1.68,2.14,1.32,5.22-0.8,6.93c-4.03,3.25-90.72,72.58-143.87,81.18       l-0.26,0.65c-0.35,1.19-0.75,2.34-1.02,3.64c-0.65,2.51-1.08,5.21-1.5,7.88c-0.78,5.39-1.35,10.9-1.69,16.45       c-0.76,11.09-1,22.29-0.97,33.49c-0.01,11.21,0.24,22.44,0.67,33.66c0.35,11.23,1.01,22.45,1.58,33.68       c-1.4-11.16-2.88-22.31-4.06-33.51c-1.25-11.19-2.33-22.4-3.15-33.66c-0.86-11.25-1.45-22.54-1.51-33.92       c-0.07-5.69,0.09-11.4,0.5-17.18c0.24-2.9,0.48-5.79,1.01-8.78c0.07-0.51,0.22-1.05,0.32-1.58c-1.84,0-3.64-0.08-5.35-0.29       c-38.04-4.57-56.66-36.48-63.87-53.13C93.22,519.55,18.83,655.29,22.9,782.19c4.53,141.09,35.64,247.4,38.62,257.27       c6.98,9.49,20.24,15.44,34.38,19.18c0.15,0.04,0.29,0.06,0.43,0.11c20.49,5.35,42.65,6.07,50.14,6.15       c6.4-9.67,32.16-42.09,82.74-29.31c16.23,4.1,31.01,9.46,45.31,14.64c35.58,12.88,69.2,25.06,121.85,17.91       c28.07-3.8,48.98-16.67,71.11-30.3c33.69-20.74,68.52-42.08,131.06-34.15c0.05,0,0.09-0.02,0.14-0.01       c0.06,0,0.1,0.04,0.16,0.05c4.82,0.62,9.77,1.36,14.93,2.34c117.47,22.32,248.73-1.72,312.14-57.13       c63.17-55.2,57.3-132.09,57.24-132.86c-0.22-2.48,1.47-4.6,3.81-5.17c-48.27-16.36-69.04-59.79-69.32-60.42       c-1.15-2.49-0.07-5.43,2.41-6.58c2.48-1.16,5.43-0.07,6.59,2.41c1.56,3.34,39.3,81.62,135.72,55.57       c2.62-0.73,5.37,0.84,6.08,3.49c0.72,2.65-0.85,5.37-3.49,6.08c-14.43,3.91-27.67,5.59-39.78,5.59       c-12.31,0-23.42-1.76-33.45-4.67c0.7,0.77,1.22,1.71,1.32,2.83c0.3,3.34,6.49,82.59-60.59,141.2       c-65.53,57.25-200.31,82.24-320.52,59.41c-3.18-0.6-6.21-1.06-9.25-1.51c-8.13,74.52-47.4,95.76-62.2,97.61       c-0.32,0.04-0.65,0.06-0.98,0.06c-16.06,0-44.34-46.3-58.23-70.91c-2.87,1.74-5.72,3.48-8.56,5.22       c-22.04,13.57-44.82,27.6-74.97,31.69c-11.12,1.51-21.48,2.17-31.21,2.17c-38.5,0-67.31-10.43-95.36-20.59       c-14.07-5.09-28.62-10.37-44.36-14.35c-44.15-11.17-65.96,15.87-71.64,24.49c42.09,61.96,131.26,105.61,265.2,129.74       c29.86,5.38,65.66,15.49,107.12,27.19c154.57,43.63,388.16,109.57,647.23,17.84c251.56-89.07,270.91-294.59,249.62-483.76       C1424.28,760.56,1424.22,760.4,1424.23,760.24z M99.89,729.68c-14.69,0-25.77-21.27-25.77-49.47       c0-28.2,11.08-49.47,25.77-49.47s25.77,21.27,25.77,49.47C125.66,708.41,114.58,729.68,99.89,729.68z M350.6,729.68       c-14.69,0-25.77-21.27-25.77-49.47c0-28.2,11.08-49.47,25.77-49.47c14.69,0,25.78,21.27,25.78,49.47       C376.38,708.41,365.29,729.68,350.6,729.68z"/>
				</g>
				<g>
					<path class="st1" d="M1598.32,816.38c-36.8-22.08-141.74-107.96-175.07-135.44c3.96,25.02,7.63,50.94,10.58,77.3       c60.15,65.86,110.4,88.64,142.66,88.35c0.38-0.06,0.66-0.11,0.71-0.11c0.27-0.03,0.52,0.05,0.78,0.06       c5.37-0.17,10.24-0.97,14.53-2.35c8.6-2.77,14.35-8.07,15.01-13.85C1608.09,825.32,1604.74,820.23,1598.32,816.38z"/>
				</g>
				<g>
					<path class="st0" d="M146.56,1074.84c-6.64-0.04-24-0.56-42.42-4.19c22.39,41.76,48.9,84.75,56.38,87.15       c3.82-0.05,12.96-19.87,18.88-45.85C166.49,1100.38,155.46,1088.04,146.56,1074.84z"/>
				</g>
				<g>
					<ellipse class="st7" cx="99.89" cy="680.21" rx="15.85" ry="39.54"/>
				</g>
				<g>
					<path class="st3" d="M1435.56,774.58c6.25,63.5,7.43,129.11-3.53,191.16c37.29-72.1,90.29-101.21,120.87-112.5       C1521.5,845.4,1481.14,822.01,1435.56,774.58z"/>
				</g>
				<g>
					<path class="st1" d="M648.32,308.7c-10.09-3.53-19.38-3-28.42,1.62c-20.92,10.7-33.84,40.28-38.63,53.19       c27.65,5.79,65.2,14.78,99.38,26.7C683.12,373.18,687.01,322.24,648.32,308.7z"/>
				</g>
				<g>
					<path class="st0" d="M539.16,1102.08c0.02,0,0.04,0,0.06,0c11.76-1.47,46.2-21.08,53.57-89c-46.26-4.81-76.39,7.64-103,22.94       C510.01,1071.74,532.59,1102.08,539.16,1102.08z"/>
				</g>
				<g>
					<path class="st3" d="M1653.23,271.85c-27.54,48.62-101.56,137.96-270.6,235.86c5.86,13.73,11.15,28.33,15.73,43.87       c38.92-4.9,231.46-28.16,299.06-17.94C1651.12,441.24,1650.69,323.59,1653.23,271.85z"/>
				</g>
				<g>
					<path class="st3" d="M1413.49,622.34c2.43,14.16,4.91,28.77,7.36,43.73c14.48,11.99,142.4,117.68,182.58,141.8       c0.1,0.06,0.18,0.13,0.28,0.19c-10.26-108.84,30.05-174.76,56.64-205.6c-37.14,14.09-91.28,23.85-163.37,23.85       C1471.43,626.32,1443.56,625.03,1413.49,622.34z"/>
				</g>
				<g>
					<path class="st1" d="M1656.83,239.39c-31.58,13.96-199.57,122.35-313.61,197.63c12.82,18.05,24.9,38.48,35.44,61.52       C1593.45,373.87,1651,262.54,1656.83,239.39z"/>
				</g>
				<g>
					<path class="st2" d="M937.71,263.61c10.31-13.35,29.64-21.77,57.45-25.05l0.86-0.1c6.16-0.72,12.46-1.46,18.87-2.13       c58.92-93.49,19.76-179.72,4.34-206.87c-12.81,34.15-40.52,64.14-71.41,87.8c4.27,2.33,8.37,4.8,12.43,7.43       c6.34,4.13,12.4,8.64,18.18,13.46c5.81,4.78,11.25,9.99,16.3,15.51c5.16,5.42,9.58,11.48,13.8,17.57       c-4.89-5.6-9.89-11.04-15.54-15.79c-5.55-4.84-11.39-9.3-17.53-13.3c-6.11-4.03-12.43-7.72-18.94-10.99       c-5.64-2.84-11.54-5.39-17.31-7.52c-28.98,20.76-59.74,35.97-83.08,43.88c-3.06,1.04-5.96,2.21-8.76,3.49       c5.07,2.54,9.95,5.27,14.77,8.22c7.72,4.77,15.08,10.07,22.02,15.85c6.99,5.71,13.36,12.16,19.19,18.97       c5.93,6.76,10.75,14.38,15.15,22.09c-5.11-7.29-10.53-14.33-16.97-20.4c-6.33-6.14-13.09-11.81-20.38-16.71       c-7.23-4.96-14.8-9.41-22.63-13.29c-7.06-3.48-14.48-6.61-21.74-9.03c-28.65,17.91-40.7,47.39-44.74,60.12       c34.22-0.31,92.71,5.07,139.24,39.55C932.31,272.61,934.21,268.15,937.71,263.61z"/>
				</g>
				<g>
					<path class="st2" d="M178.94,527.69c3.31,0.4,6.96,0.28,10.84-0.21c0.09,0,0.17-0.03,0.26-0.03       c43.58-5.68,119.09-62.5,136.94-76.36l-48.81-62.37c-0.1-0.13-0.12-0.29-0.2-0.42c-0.1-0.16-0.25-0.27-0.34-0.44       c-25.24-51.18-75.6-128.6-103.35-118.56c-32.03,11.65-49.97,149.73-54.3,203.22C122.1,478.98,137.9,522.76,178.94,527.69z"/>
				</g>
				<g>
					<path class="st2" d="M1202.73,318.28c8.3,3.55,48.23,21.94,91.37,62.43c146.27-110.99,133.79-243.35,125.01-285.94       c-16.51,34.21-46.12,62.08-90.56,84.83c7.9,8.65,15.5,17.45,22.61,26.71c4.26,5.54,8.37,11.21,12.1,17.13       c3.71,5.91,7.24,12,9.64,18.54c-3.15-6.2-7.32-11.73-11.65-17.08c-4.34-5.35-9.02-10.41-13.84-15.33       c-8.81-9.01-18.2-17.55-27.74-25.66c-24.14,11.5-52.29,21.66-84.78,30.59c1.28,1.05,2.6,2.07,3.79,3.2       c3.89,3.65,7.37,7.62,10.54,11.77c6.34,8.3,11.49,17.31,15.7,26.64c4.4,9.26,7.65,18.94,10.7,28.61l3.87,14.7l3.13,14.84       l-4.33-14.5l-5.02-14.23c-3.79-9.31-7.76-18.52-12.76-27.15c-4.82-8.7-10.47-16.91-17.01-24.15       c-3.27-3.62-6.76-6.99-10.49-9.95c-1.86-1.5-3.79-2.85-5.75-4.1c-1.33-0.79-2.89-1.67-4.21-2.29       c-57.74,17.19-70.24,37.04-72.87,43.75C1168.58,274.38,1186.31,292.55,1202.73,318.28z"/>
				</g>
				<g>
					<path class="st7" d="M350.6,640.67c-7.48,0-15.85,16.91-15.85,39.54c0,22.63,8.36,39.54,15.85,39.54s15.85-16.91,15.85-39.54       C366.45,657.58,358.08,640.67,350.6,640.67z"/>
				</g>
				<g>
					<path class="st1" d="M1706.23,545.13c-0.78-0.03-1.54-0.23-2.22-0.6c-13.89-3.45-51.32-6.74-152.34,1.28       c-65.86,5.23-131.38,13.08-150.56,15.45c3.39,12.65,6.36,25.84,8.72,39.69l1.94,11.31c145.62,13.37,229.62-7.14,270.09-30.71       c0.06-0.05,0.17-0.13,0.19-0.14c0.07-0.05,0.16-0.06,0.23-0.1c19.52-11.46,28.84-23.61,29.91-32.91       C1711.99,547.96,1711.02,546.59,1706.23,545.13z"/>
				</g>
				<g>
					<path class="st4" d="M581.27,363.51c27.65,5.79,65.2,14.78,99.38,26.7c2.46-17.03,6.36-67.98-32.33-81.51       c-10.09-3.53-19.38-3-28.42,1.62C598.98,321.01,586.07,350.6,581.27,363.51z"/>
				</g>
				<g>
					<path class="st4" d="M207.84,473.06c35.39-25.51,1.3-153.1-8.07-188.33c-9.75,9.61-29.89,34.52-33.87,79.31       c-4.46,50.21-22.9,106.9-28.58,123.45C153.88,490.85,181.5,492.05,207.84,473.06z"/>
				</g>
				<g>
					<path class="st4" d="M1380.3,528.56c1.15,3.52,7.44,23.02,15.15,51.24C1391.33,561.57,1386.21,544.5,1380.3,528.56z"/>
				</g>
				<g>
					<path class="st4" d="M904.31,218.53c-0.91-0.94-1.8-1.9-2.75-2.8c-6.33-6.14-13.09-11.81-20.38-16.71       c-5.81-3.99-11.88-7.54-18.08-10.83c-2.2,1.15-4.34,2.29-6.34,3.45c-22.57,12.97-38.18,46.12-38.18,46.12s-0.03,0.02-0.03,0.02       c17.06,1.36,36.58,4.4,56.43,10.59C878.58,241.82,886.99,229.83,904.31,218.53z"/>
				</g>
				<g>
					<path class="st4" d="M1009.29,50.43c0,0-12.96,48.15-43.31,78.25c4.27,3.02,8.46,6.14,12.46,9.48       c5.81,4.78,11.25,9.99,16.3,15.51c2.48,2.61,4.78,5.38,6.98,8.21c5.8-6.95,11.31-15.21,16.62-25.48       c23.73-45.86,9.61-80.2,9.61-80.2s3.06,2.61,6.93,8.25c-5.32-15.44-11.39-27.47-15.65-34.97c-2.71,7.23-6.12,14.26-10.06,21.1       C1009.24,50.49,1009.29,50.43,1009.29,50.43z"/>
				</g>
				<g>
					<path class="st4" d="M1000.91,162.88c-2.52-2.6-5.13-5.1-7.9-7.43c-5.55-4.84-11.39-9.3-17.53-13.3       c-4.74-3.13-9.65-5.98-14.64-8.66c-2.27,1.97-4.64,3.83-7.09,5.56c-32.06,22.62-61.53,34.77-83.55,45.55       c4.8,3.31,9.51,6.76,13.97,10.48c6.99,5.71,13.36,12.16,19.19,18.97c0.96,1.09,1.85,2.24,2.75,3.37       c5.37-3.37,11.47-6.66,18.58-9.7C957.42,193.75,981,186.19,1000.91,162.88z"/>
				</g>
				<g>
					<path class="st4" d="M57.04,1008.63c0,0,40.56,13.21,58.7,6.81s34.79-52.51,97.54-42.26c62.75,10.25,58.84,31.38,137.32,28.17       c78.48-3.2,102.17-48.03,155.32-51.23c53.15-3.2,209.39,13.45,316.33-12.81c106.94-26.25,119.74-154.35,119.74-154.35       l0.09,0.05c-16.61-16.19-24.3-32.14-24.47-32.51c-1.15-2.49-0.07-5.43,2.41-6.58c2.48-1.16,5.43-0.07,6.59,2.41       c1.56,3.34,39.3,81.62,135.72,55.57c2.62-0.73,5.37,0.84,6.08,3.49c0.72,2.65-0.85,5.37-3.49,6.08       c-14.43,3.91-27.67,5.59-39.78,5.59c-12.26,0-23.34-1.75-33.33-4.64c0.01,0.06,0.02,0.12,0.03,0.18       c0.61,0.73,1.08,1.59,1.17,2.61c0.05,0.57,0.27,3.43,0.27,7.99c1.64,18.53,0,50.74-22.04,85.02       c-8.93,16.33-21.38,32.96-38.82,48.2c-65.53,57.25-200.31,82.24-320.52,59.41c-3.18-0.6-6.21-1.06-9.25-1.51       c-8.13,74.52-47.4,95.76-62.2,97.61c-0.32,0.04-0.65,0.06-0.98,0.06c-13.38,0-35.21-32.11-50.17-57.07       c-4.71,6.73-43.65,58-142.33,66.97c0,0,253.1,111.9,598.88,70.6c345.79-41.3,434.09-303.37,449.03-417.91       c14.66-112.34-13.63-241.5-14.72-246.41c-55.99-150.42-181.11-200.71-182.56-201.27c-0.99-0.39-1.84-1.08-2.4-1.98       c-58.58-92.98-132.64-84.27-198-76.58l-0.86,0.1c-58.92,6.94-56.31,35.49-56.17,36.71c0.23,2.01-0.78,3.99-2.56,4.96       c-1.79,0.97-3.97,0.78-5.53-0.51c-2.83-2.36-5.75-4.54-8.71-6.65c8.03,9,11.59,16.65,11.59,16.65s-33.94-3.58-76.84-17.98       c-42.9-14.41-91.89-3.52-110.14-6.88c-18.25-3.36-34.1-17.29-63.63-19.69c-29.46-2.4-64.55,44.31-64.72,44.55       c10.19-4.03,20.92-4.12,31.99-0.25c54.75,19.16,37.96,97.82,37.79,98.61c-0.31,1.4-1.21,2.59-2.46,3.28       c-0.74,0.4-1.57,0.61-2.39,0.61c-0.57,0-1.14-0.1-1.69-0.3c-4.73-1.71-9.54-3.36-14.39-4.96       c13.11,7.31,18.66,12.62,18.66,12.62s-108.21-15.37-210.02-18.98s-166.5,23.83-166.5,23.83l0,0l27.26,34.83       c1.68,2.14,1.32,5.22-0.8,6.93c-4.03,3.25-90.72,72.58-143.87,81.18l-0.26,0.65c-0.35,1.19-0.75,2.34-1.02,3.64       c-0.65,2.51-1.08,5.21-1.5,7.88c-0.78,5.39-1.35,10.9-1.69,16.45c-0.76,11.09-1,22.29-0.97,33.49       c-0.01,11.21,0.24,22.44,0.67,33.66c0.35,11.23,1.01,22.45,1.58,33.68c-1.4-11.16-2.88-22.31-4.06-33.51       c-1.25-11.19-2.33-22.4-3.15-33.66c-0.86-11.25-1.45-22.54-1.51-33.92c-0.07-5.69,0.09-11.4,0.5-17.18       c0.24-2.9,0.48-5.79,1.01-8.78c0.07-0.51,0.22-1.05,0.32-1.58c-1.84,0-3.64-0.08-5.35-0.29c-13.52-1.62-24.54-6.73-33.51-13.34       l0.52,3.73c0,0-20.49,20.06-65.69,114.83c-45.19,94.77-30.37,302.68-30.37,302.68c-3.79-0.7-7.01-3.06-9.76-6.52       c6.26,36.34,12.93,64.64,17.43,81.97C56.27,1017.07,56.49,1013.02,57.04,1008.63z M350.6,630.74       c14.69,0,25.78,21.27,25.78,49.47c0,28.2-11.08,49.47-25.78,49.47c-14.69,0-25.77-21.27-25.77-49.47       C324.82,652.01,335.9,630.74,350.6,630.74z M99.89,630.74c14.69,0,25.77,21.27,25.77,49.47c0,28.2-11.08,49.47-25.77,49.47       s-25.77-21.27-25.77-49.47C74.12,652.01,85.2,630.74,99.89,630.74z"/>
				</g>
				<g>
					<path class="st4" d="M141.76,1096.76c-3.34-9.92-2.53-17.84-1.62-22.07c-8.53-0.32-21.94-1.27-36.01-4.04       c22.39,41.76,48.9,84.75,56.38,87.15c1.32-0.02,3.29-2.45,5.54-6.65C165.81,1151.07,146.76,1111.61,141.76,1096.76z"/>
				</g>
				<g>
					<path class="st4" d="M1470.6,874.56c-17.02,14.01-27.74,27.01-31.63,32.04c-1.27,19.95-3.51,39.72-6.94,59.15       c37.29-72.1,90.29-101.21,120.87-112.5c-9.81-2.45-20.5-6.42-31.96-12.17C1520.91,841.08,1492.36,856.64,1470.6,874.56z"/>
				</g>
				<g>
					<path class="st4" d="M1617.23,616.48c0,0-33.62,50.29-40.66,73.02h-41.3l40.98,15.76c0,0-4.48,42.19,6.72,85.74h-4.41       c9.95,7.2,18.51,13.06,24.86,16.88c0.1,0.06,0.18,0.13,0.28,0.19c-10.26-108.84,30.05-174.76,56.64-205.6       c-12.6,4.78-27.21,9.05-43.77,12.62L1617.23,616.48z"/>
				</g>
				<g>
					<path class="st4" d="M61.69,1039.67c-0.09-0.13-0.15-0.27-0.23-0.4c0.02,0.05,0.04,0.14,0.06,0.19       C61.56,1039.53,61.63,1039.59,61.69,1039.67z"/>
				</g>
				<g>
					<path class="st4" d="M122.4,1063.4c10.76,1.2,19.79,1.46,24.06,1.5c0.65-0.98,1.55-2.23,2.6-3.61       C143.43,1063.82,136.06,1064.88,122.4,1063.4z"/>
				</g>
				<g>
					<ellipse class="st4" cx="99.89" cy="680.21" rx="15.85" ry="39.54"/>
				</g>
				<g>
					<path class="st4" d="M350.6,719.75c7.48,0,15.85-16.91,15.85-39.54c0-22.63-8.37-39.54-15.85-39.54s-15.85,16.91-15.85,39.54       C334.75,702.84,343.11,719.75,350.6,719.75z"/>
				</g>
				<g>
					<path class="st4" d="M1706.23,545.13c-0.78-0.03-1.54-0.23-2.22-0.6c-2.17-0.54-4.92-1.07-8.39-1.56       c0,0-35.64,16.54-128.33,22.31c-81.87,5.09-148.73,7.56-163.23,8.06c1.15,4.79,2.21,9.68,3.22,14.63       c17.61,1.17,87.96,5.29,167.05-0.28c75.35-5.31,120.37-22.89,133.62-28.77c2.42-3.75,3.85-7.32,4.22-10.54       C1711.99,547.96,1711.02,546.59,1706.23,545.13z"/>
				</g>
				<g>
					<path class="st4" d="M119.46,1063.06c-0.2-0.03-0.41-0.05-0.61-0.08C119.06,1063.01,119.26,1063.03,119.46,1063.06z"/>
				</g>
				<g>
					<path class="st4" d="M112.55,1062.08c-2.43-0.38-4.69-0.8-6.93-1.23C107.95,1061.31,110.26,1061.72,112.55,1062.08z"/>
				</g>
				<g>
					<path class="st4" d="M116.25,1062.63c-1.13-0.16-2.27-0.33-3.47-0.51C113.94,1062.3,115.1,1062.47,116.25,1062.63z"/>
				</g>
				<g>
					<path class="st4" d="M552.5,1041.85c-1.65-14.1-12.85-21.15-19.68-24.17c-7.43,2.27-14.45,4.68-21.17,7.18       c-7.67,3.36-14.9,7.16-21.86,11.16c17.16,30.31,35.97,56.67,45.31,63.98l4.19-3.08C539.3,1096.2,554.9,1062.34,552.5,1041.85z"/>
				</g>
				<g>
					<path class="st4" d="M1653.23,271.85c-9.15,16.15-23.47,36.81-44.65,60.77c-3.59,24.73-2.29,70.05,0.97,89.86       c4.16,25.29,8.64,38.74,8.64,38.74l-19.21,10.25l27.85,2.88c0,0,12.88,34.9,19.09,42.58c6.21,7.68,11.01,14.17,11.01,14.17       s-0.04,0-0.05,0c15.91,0.14,29.81,0.92,40.54,2.54C1651.12,441.24,1650.69,323.59,1653.23,271.85z"/>
				</g>
				<g>
					<path class="st4" d="M1598.32,816.38c-36.8-22.08-141.74-107.96-175.07-135.44c1.53,9.69,3,19.56,4.43,29.5       c0-0.03,0.01-0.13,0.01-0.13s41.3,47.39,87.73,79.4c39.8,27.44,78.99,42.85,89.4,46.71c1.51-1.89,2.45-3.95,2.7-6.08       C1608.09,825.32,1604.74,820.23,1598.32,816.38z"/>
				</g>
				<g>
					<path class="st4" d="M1276.28,294.05l-3.01-8.53c-3.79-9.31-7.76-18.52-12.76-27.15c-3.41-6.16-7.26-12.06-11.53-17.55       c-3.39,1.25-6.71,2.48-9.87,3.64c-33.32,12.28-59.93,26.84-69.97,32.62c11.63,10.94,22.89,24.44,33.59,41.2       c4.31,1.84,17.16,7.72,34.52,18.56c-0.73-2.11-1.34-4.98-1.34-4.98S1239.71,304.82,1276.28,294.05z"/>
				</g>
				<g>
					<path class="st4" d="M1513.05,347.23c-48.52,37.44-132.3,95.99-155.34,112.01c3.93,6.46,7.77,13.13,11.45,20.11v-0.11       c0,0,108.15-76.62,163.54-118.88c55.03-41.99,108.54-89.03,109.23-89.64c8.99-14.9,13.48-25.72,14.89-31.33       c-12.36,5.47-45.66,25.43-88.4,52.18C1561.53,302.74,1546.32,321.56,1513.05,347.23z"/>
				</g>
				<g>
					<path class="st4" d="M1369.77,236.53c-2.57-4.07-5.49-7.9-8.5-11.63c-4.34-5.35-9.02-10.41-13.84-15.33       c-2.59-2.65-5.31-5.17-7.99-7.74c-27.18,14.79-58.07,26.94-84.03,36.61c3.6,5.69,6.78,11.6,9.52,17.67       c4.4,9.26,7.65,18.94,10.7,28.61l2.32,8.81c2.8-0.76,5.74-1.45,8.92-2.01C1314.8,286.62,1345.86,263.72,1369.77,236.53z"/>
				</g>
				<g>
					<path class="st4" d="M1417.77,97.5c0,0,0.32,41.62-35.13,74.6c-10.39,9.67-23.4,18.52-37.63,26.62       c2.06,2.52,4.17,5.01,6.16,7.6c4.26,5.54,8.37,11.21,12.1,17.13c2.54,4.04,4.96,8.18,7.02,12.47       c15.67-17.94,28.21-37.68,34.66-55.33c9.31-25.48,15.34-37.65,18.8-43.42c-0.43-17.97-2.62-32.58-4.64-42.39       c-0.53,1.09-1.11,2.16-1.66,3.24C1417.66,97.69,1417.77,97.5,1417.77,97.5z"/>
				</g>
				<g class="st5">
					<path class="st0" d="M48.71,945.43c0,0-14.83-207.91,30.37-302.68c45.19-94.77,65.69-114.83,65.69-114.83l-0.52-3.73       c-16.28-12-25.71-29.05-30.36-39.79C93.22,519.55,18.83,655.29,22.9,782.19c1.93,60.18,8.7,113.99,16.06,156.72       C41.7,942.38,44.92,944.73,48.71,945.43z"/>
				</g>
				<g class="st5">
					<path class="st0" d="M124.75,484.05c2.59,0.93,6.94,2.31,12.56,3.45c5.68-16.55,24.13-73.25,28.58-123.45       c3.97-44.79,24.12-69.71,33.87-79.31c-1.54-5.8-2.43-9.15-2.21-9.07c-8.62-6.11-16.6-8.78-23.26-6.37       c-32.03,11.65-49.97,149.73-54.3,203.22C120.54,474.22,122.08,478.55,124.75,484.05z"/>
				</g>
				<g class="st5">
					<path class="st0" d="M477.1,390.21c101.81,3.61,210.02,18.98,210.02,18.98s-5.56-5.31-18.66-12.62       c-32.33-10.64-66.62-18.68-91.83-23.89c-1.08,0.55-2.38,0.71-3.64,0.32c-0.96-0.29-1.78-0.84-2.38-1.55       c-18.4-3.7-30.7-5.67-31.77-5.84c-147.75-16.04-228.36,12.94-249.01,21.9l20.77,26.54l0,0       C310.6,414.04,375.29,386.6,477.1,390.21z"/>
				</g>
				<g class="st5">
					<path class="st0" d="M684.33,255.02c29.53,2.4,45.38,16.33,63.63,19.69c18.25,3.36,67.24-7.52,110.14,6.88       c42.9,14.41,76.84,17.98,76.84,17.98s-3.56-7.65-11.59-16.65c-65.46-46.76-157.46-34.65-158.41-34.52       c-1.26,0.19-2.58-0.15-3.63-0.91c-0.48-0.36-50.07-35.83-121.72-18.39c-62.4,15.2-88.51,105.24-94.07,127.54       c5.32,0.91,14.36,2.53,25.88,4.83c4.73-13.25,18.92-47.18,43.94-59.99c1.4-0.72,2.82-1.36,4.25-1.92       C619.79,299.34,654.87,252.63,684.33,255.02z"/>
				</g>
				<g class="st5">
					<path class="st0" d="M1009.29,50.43c0,0-0.05,0.06-0.11,0.13c-14.66,25.46-37,48.05-61.35,66.71c4.27,2.33,8.37,4.8,12.43,7.43       c1.95,1.27,3.82,2.64,5.72,3.98C996.33,98.58,1009.29,50.43,1009.29,50.43z"/>
				</g>
				<g class="st5">
					<path class="st0" d="M856.75,191.63c2-1.15,4.14-2.3,6.34-3.45c-1.52-0.81-3-1.69-4.54-2.46c-7.06-3.48-14.48-6.61-21.74-9.03       c-28.65,17.91-40.7,47.39-44.74,60.12c7.72-0.07,16.71,0.18,26.48,0.96c0,0,0.03-0.02,0.03-0.02S834.17,204.6,856.75,191.63z"/>
				</g>
				<g class="st5">
					<path class="st0" d="M960.85,133.49c-1.44-0.77-2.85-1.6-4.3-2.33c-5.64-2.84-11.54-5.39-17.31-7.52       c-28.98,20.76-59.74,35.97-83.08,43.88c-3.06,1.04-5.96,2.21-8.76,3.49c5.07,2.54,9.95,5.27,14.77,8.22       c2.75,1.7,5.39,3.54,8.04,5.37c22.02-10.78,51.49-22.93,83.55-45.55C956.21,137.31,958.57,135.45,960.85,133.49z"/>
				</g>
				<g class="st5">
					<path class="st0" d="M1319.68,183.91c-24.14,11.5-52.29,21.66-84.78,30.59c1.28,1.05,2.6,2.07,3.79,3.2       c3.89,3.65,7.37,7.62,10.54,11.77c2.22,2.9,4.24,5.91,6.17,8.97c25.96-9.67,56.86-21.82,84.03-36.61       C1333,195.66,1326.42,189.63,1319.68,183.91z"/>
				</g>
				<g class="st5">
					<path class="st0" d="M1417.77,97.5c0,0-0.11,0.19-0.31,0.52c-16.79,32.73-45.88,59.57-88.9,81.59       c5.69,6.23,11.15,12.61,16.45,19.11c14.22-8.1,27.23-16.95,37.63-26.62C1418.09,139.12,1417.77,97.5,1417.77,97.5z"/>
				</g>
				<g class="st5">
					<path class="st0" d="M1248.98,240.82c-1.76-2.27-3.57-4.48-5.48-6.6c-3.27-3.62-6.76-6.99-10.49-9.95       c-1.86-1.5-3.79-2.85-5.75-4.1c-1.33-0.79-2.89-1.67-4.21-2.29c-57.74,17.19-70.24,37.04-72.87,43.75       c6.41,4.45,12.74,9.6,18.96,15.45c10.03-5.77,36.64-20.34,69.97-32.62C1242.27,243.3,1245.59,242.07,1248.98,240.82z"/>
				</g>
				<g class="st5">
					<path class="st0" d="M1568.42,291.57c-66.46,41.59-155.8,99.64-225.21,145.45c4.98,7.01,9.79,14.49,14.5,22.23       c23.03-16.02,106.81-74.57,155.34-112.01C1546.32,321.56,1561.53,302.74,1568.42,291.57z"/>
				</g>
				<g class="st5">
					<path class="st0" d="M1695.61,542.97c-18.75-2.64-58.72-3.92-143.95,2.84c-65.86,5.23-131.38,13.08-150.56,15.45       c1.06,3.94,1.99,8.04,2.96,12.09c14.5-0.51,81.36-2.97,163.23-8.06C1659.98,559.51,1695.61,542.97,1695.61,542.97z"/>
				</g>
				<g class="st6">
					<path class="st7" d="M95.89,1058.64c0.15,0.04,0.29,0.06,0.43,0.11c3.08,0.8,6.2,1.49,9.3,2.1c2.24,0.42,4.5,0.84,6.93,1.23       c0.08,0.01,0.15,0.02,0.23,0.04c1.2,0.19,2.35,0.35,3.47,0.51c0.87,0.12,1.74,0.24,2.6,0.35c0.2,0.03,0.41,0.05,0.61,0.08       c0.99,0.12,1.97,0.24,2.94,0.35c13.67,1.47,21.03,0.42,26.65-2.11c9.32-12.2,34.67-37.19,80.14-25.7       c16.23,4.1,31.01,9.46,45.31,14.64c35.58,12.88,69.2,25.06,121.85,17.91c28.07-3.8,48.98-16.67,71.11-30.3       c33.69-20.74,68.52-42.08,131.06-34.15c0.05,0,0.09-0.02,0.14-0.01c0.06,0,0.1,0.04,0.16,0.05c4.82,0.62,9.77,1.36,14.93,2.34       c117.47,22.32,248.73-1.72,312.14-57.13c63.17-55.2,57.3-132.09,57.24-132.86c-0.22-2.48,1.47-4.6,3.81-5.17       c-19.16-6.49-33.92-17.25-44.85-27.9l-0.09-0.05c0,0-12.8,128.1-119.74,154.35c-106.94,26.25-263.18,9.61-316.33,12.81       c-53.15,3.2-76.84,48.03-155.32,51.23c-78.48,3.2-74.57-17.93-137.32-28.17c-62.75-10.25-79.4,35.86-97.54,42.26       s-58.7-6.81-58.7-6.81c-0.55,4.39-0.77,8.44-0.66,12.26c2.55,9.84,4.4,16.15,5.08,18.38c0.08,0.13,0.14,0.27,0.23,0.4       C68.7,1049.04,81.86,1054.93,95.89,1058.64z"/>
				</g>
				<g class="st6">
					<path class="st7" d="M991.69,812.39c0.06,0.06,0.09,0.15,0.15,0.21c-0.01-0.06-0.02-0.13-0.03-0.18       C991.76,812.4,991.72,812.4,991.69,812.39z"/>
				</g>
				<g class="st6">
					<path class="st7" d="M532.82,1017.67c-0.18-0.08-0.32-0.13-0.49-0.21c-7.32,2.04-14.17,4.54-20.67,7.39       C518.37,1022.35,525.4,1019.94,532.82,1017.67z"/>
				</g>
				<g class="st6">
					<path class="st7" d="M993.27,823.2c-0.01,15.1-2.52,49.31-22.04,85.02C993.28,873.95,994.91,841.73,993.27,823.2z"/>
				</g>
				<g class="st6">
					<path class="st7" d="M1394.87,774.58c-14.94,114.54-103.25,376.61-449.03,417.91c-345.79,41.3-598.88-70.6-598.88-70.6       c98.68-8.97,137.62-60.24,142.33-66.97c-3-5-5.74-9.74-8.06-13.84c-2.87,1.74-5.72,3.48-8.56,5.22       c-22.04,13.57-44.82,27.6-74.97,31.69c-11.12,1.51-21.48,2.17-31.21,2.17c-38.5,0-67.31-10.43-95.36-20.59       c-14.07-5.09-28.62-10.37-44.36-14.35c-44.15-11.17-65.96,15.87-71.64,24.49c42.09,61.96,131.26,105.61,265.2,129.74       c29.86,5.38,65.66,15.49,107.12,27.19c154.57,43.63,388.16,109.57,647.23,17.84c251.56-89.07,270.91-294.59,249.62-483.76       c-0.01-0.17-0.06-0.32-0.05-0.49c-5.48-48.52-13.62-95.96-21.19-140.07l-3-17.56c-1.33-7.82-2.9-15.38-4.58-22.8       c-7.71-28.22-14-47.73-15.15-51.24c-0.05-0.14-0.11-0.27-0.16-0.4C1381.24,533.08,1409.52,662.23,1394.87,774.58z"/>
				</g>
				<g class="st6">
					<path class="st7" d="M552.5,1041.85c2.4,20.49-13.21,54.35-13.21,55.07l-4.19,3.08c1.67,1.3,3.07,2.08,4.06,2.08       c0.02,0,0.04,0,0.06,0c11.76-1.47,46.2-21.08,53.57-89c-20.24-2.11-37.39-0.91-52.52,2.39c-2.54,0.72-5.01,1.46-7.46,2.21       C539.65,1020.7,550.85,1027.75,552.5,1041.85z"/>
				</g>
				<g class="st6">
					<path class="st7" d="M540.28,1015.47c-2.72,0.59-5.36,1.28-7.95,2c0.17,0.07,0.32,0.13,0.49,0.21       C535.27,1016.92,537.74,1016.18,540.28,1015.47z"/>
				</g>
				<g class="st6">
					<path class="st7" d="M540.28,1015.47c-2.72,0.59-5.36,1.28-7.95,2c0.17,0.07,0.32,0.13,0.49,0.21       C535.27,1016.92,537.74,1016.18,540.28,1015.47z"/>
				</g>
				<g class="st6">
					<path class="st7" d="M141.76,1096.76c5,14.86,24.05,54.31,24.29,54.4c4.24-7.92,9.47-22.22,13.34-39.2       c-12.9-11.57-23.93-23.92-32.84-37.12c-1.57-0.01-3.77-0.05-6.41-0.15C139.24,1078.92,138.43,1086.84,141.76,1096.76z"/>
				</g>
				<g class="st6">
					<path class="st7" d="M207.84,473.06c-26.34,18.99-53.95,17.79-70.53,14.43c-1.06,3.08-1.67,4.77-1.67,4.77       c-2.33,0-5.83-2.21-9.17-4.83c2.72,5.12,6.38,10.92,11.05,16.51l3.75,4.18c9.07,9.46,21.34,17.59,37.67,19.55       c3.31,0.4,6.96,0.28,10.84-0.21c0.09,0,0.17-0.03,0.26-0.03c43.58-5.68,119.09-62.5,136.94-76.36l-48.81-62.37       c-0.1-0.13-0.12-0.29-0.2-0.42c-0.1-0.16-0.25-0.27-0.34-0.44c-17.67-35.83-47.64-84.48-73.56-107.02       c-0.91,0.73-2.37,1.98-4.32,3.9C209.14,319.96,243.22,447.55,207.84,473.06z"/>
				</g>
				<g class="st5">
					<path class="st0" d="M141.27,508.13l-3.75-4.18C138.7,505.37,139.95,506.76,141.27,508.13z"/>
				</g>
				<g class="st6">
					<path class="st7" d="M141.27,508.13l-3.75-4.18C138.7,505.37,139.95,506.76,141.27,508.13z"/>
				</g>
				<g class="st5">
					<path class="st0" d="M137.31,487.5c-5.62-1.14-9.97-2.52-12.56-3.45c0.53,1.1,1.09,2.21,1.72,3.39       c3.34,2.62,6.84,4.83,9.17,4.83C135.64,492.27,136.25,490.58,137.31,487.5z"/>
				</g>
				<g class="st6">
					<path class="st7" d="M137.31,487.5c-5.62-1.14-9.97-2.52-12.56-3.45c0.53,1.1,1.09,2.21,1.72,3.39       c3.34,2.62,6.84,4.83,9.17,4.83C135.64,492.27,136.25,490.58,137.31,487.5z"/>
				</g>
				<g class="st5">
					<path class="st0" d="M199.76,284.73c1.95-1.92,3.41-3.17,4.32-3.9c-2.21-1.92-4.39-3.65-6.53-5.17       C197.33,275.59,198.22,278.94,199.76,284.73z"/>
				</g>
				<g class="st6">
					<path class="st7" d="M199.76,284.73c1.95-1.92,3.41-3.17,4.32-3.9c-2.21-1.92-4.39-3.65-6.53-5.17       C197.33,275.59,198.22,278.94,199.76,284.73z"/>
				</g>
				<g class="st6">
					<path class="st7" d="M1027.96,56.2c0,0,14.12,34.34-9.61,80.2c-5.32,10.27-10.82,18.53-16.62,25.48       c2.37,3.06,4.63,6.2,6.82,9.36c-2.49-2.85-5.02-5.66-7.64-8.36c-19.91,23.32-43.49,30.87-76.21,44.84       c-7.1,3.03-13.21,6.33-18.58,9.7c4.69,5.88,8.71,12.25,12.4,18.72c-4.36-6.21-8.98-12.2-14.21-17.6       c-17.32,11.29-25.72,23.29-29.34,29.83c19.18,5.98,38.62,14.87,56.33,28c1.01-3.75,2.91-8.21,6.42-12.75       c10.31-13.35,29.64-21.77,57.45-25.05l0.86-0.1c6.16-0.72,12.46-1.46,18.87-2.13c42.63-67.65,33.91-131.48,19.99-171.89       C1031.02,58.81,1027.96,56.2,1027.96,56.2z"/>
				</g>
				<g class="st6">
					<path class="st7" d="M1645.93,516.93c-6.21-7.68-19.09-42.58-19.09-42.58l-27.85-2.88l19.21-10.25c0,0-4.48-13.45-8.64-38.74       c-3.26-19.81-4.55-65.13-0.97-89.86c-42.59,48.17-113.06,109.71-225.95,175.09c5.86,13.73,11.15,28.33,15.73,43.87       c32.74-4.12,174.18-21.23,258.52-20.48c0.01,0,0.05,0,0.05,0S1652.13,524.61,1645.93,516.93z"/>
				</g>
				<g class="st6">
					<path class="st7" d="M1369.17,479.25v0.11c3.27,6.2,6.46,12.55,9.49,19.18c162.76-94.46,235.18-181.22,263.29-227.81       c-0.69,0.61-54.2,47.65-109.23,89.64C1477.32,402.62,1369.17,479.25,1369.17,479.25z"/>
				</g>
				<g class="st6">
					<path class="st7" d="M1407.28,587.97c0.87,4.3,1.78,8.54,2.54,12.97l1.94,11.31c145.62,13.37,229.62-7.14,270.09-30.71       c0.06-0.05,0.17-0.13,0.19-0.14c0.07-0.05,0.16-0.06,0.23-0.1c12.77-7.5,21.1-15.28,25.69-22.38       c-13.25,5.88-58.26,23.46-133.62,28.77C1495.24,593.25,1424.89,589.14,1407.28,587.97z"/>
				</g>
				<g class="st6">
					<path class="st7" d="M1576.25,705.26l-40.98-15.76h41.3c7.04-22.73,40.66-73.02,40.66-73.02l-0.66-1.4       c-32.23,6.95-71.97,11.23-119.6,11.24c-25.54,0-53.42-1.28-83.49-3.97c2.43,14.16,4.91,28.77,7.36,43.73       c12.19,10.1,104.77,86.59,157.72,124.92h4.41C1571.77,747.45,1576.25,705.26,1576.25,705.26z"/>
				</g>
				<g class="st6">
					<path class="st7" d="M1427.69,710.31c0,0,0,0.1-0.01,0.13c2.25,15.71,4.35,31.66,6.15,47.8       c60.15,65.86,110.4,88.64,142.66,88.35c0.38-0.06,0.66-0.11,0.71-0.11c0.27-0.03,0.52,0.05,0.78,0.06       c5.37-0.17,10.24-0.97,14.53-2.35c5.43-1.75,9.72-4.52,12.31-7.77c-10.41-3.85-49.6-19.26-89.4-46.71       C1468.99,757.7,1427.69,710.31,1427.69,710.31z"/>
				</g>
				<g class="st6">
					<path class="st7" d="M1470.6,874.56c21.76-17.92,50.31-33.48,50.34-33.49c-25.18-12.64-54.05-33.89-85.38-66.49       c4.3,43.62,6.2,88.24,3.41,132.02C1442.86,901.57,1453.58,888.57,1470.6,874.56z"/>
				</g>
				<g class="st6">
					<path class="st7" d="M1370.3,235.92c0.95,1.99,1.85,4,2.61,6.07c-0.95-1.88-2.03-3.68-3.15-5.45       c-23.91,27.19-54.97,50.09-82.91,54.99c-3.18,0.56-6.12,1.25-8.92,2.01l1.55,5.89l3.13,14.84l-4.33-14.5l-2.01-5.7       c-36.57,10.77-40.37,37.82-40.37,37.82s0.61,2.87,1.34,4.98c16.11,10.06,36.09,24.38,56.85,43.87       c112.58-85.43,131.09-183.48,129.66-243.55c-3.46,5.78-9.49,17.95-18.8,43.42C1398.51,198.24,1385.97,217.98,1370.3,235.92z"/>
				</g>
				<g>
					<g>
						<path class="st7" d="M901.35,1313.5c-149.91,0-280.95-36.99-380.09-64.98c-40.89-11.54-76.2-21.51-104.98-26.69        c-136.64-24.62-229.58-69.78-276.48-134.3c-22.82-0.77-76.61-5.81-97.4-35.69c-1.03-1.48-1.83-3.12-2.37-4.84        C38.61,1042.43,5,933.45,0.18,782.92C-4.75,629.34,95.69,470.2,99.97,463.5c3.76-5.9,10.65-9.03,17.55-8.02        c6.92,1.01,12.6,5.98,14.52,12.71c0.1,0.35,12.97,42.53,48.42,46.79c25.12,3.01,85.76-33.98,128.49-66.13l-40.87-52.23        c-3.22-4.11-4.46-9.42-3.41-14.54c1.05-5.11,4.29-9.5,8.87-12.01c3.39-1.86,82.83-44.1,252.47-28.6        c9.97-35.16,40.3-117.91,108.22-134.45c67.45-16.43,117.42,7.97,134.36,18.13c22.7-2.07,96.69-5.27,157.7,32.38        c0.41-0.58,0.84-1.16,1.29-1.74c12.5-16.17,34.73-26.25,66.09-29.93l0.85-0.1c63.86-7.51,150.95-17.75,216.83,82.28        c30.97,13.79,176.67,88.72,211.1,290.76l3,17.53c36.31,211.53,91.18,531.2-243.2,649.6        C1083.9,1300.74,989.37,1313.5,901.35,1313.5z M149.2,1052.09c6,0,11.61,3.02,14.9,8.06        c39.35,60.25,126.32,102.88,258.5,126.7c30.47,5.49,66.55,15.67,108.33,27.47c153.01,43.19,384.25,108.46,639.47,18.09        c306.14-108.4,256.36-398.36,220.02-610.08l-3.01-17.57c-34.26-201.05-187.95-263.37-194.47-265.93        c-3.54-1.38-6.57-3.88-8.6-7.09c-54.27-86.15-121.07-78.29-185.67-70.68l-0.85,0.1c-34.88,4.1-44.53,16.29-44.89,22.58        c1.67,7.3-1.64,13.99-8.03,18.03c-6.51,4.11-15.11,2.59-21.03-2.32c-61.44-51.06-156.2-38.46-157.14-38.33        c-4.61,0.64-9.27-0.54-13-3.29c-1.76-1.27-45.73-32.19-111.09-16.26c-52.47,12.78-79.67,92.88-85.72,122.66        c-1.83,9-10.21,15.11-19.34,14.13c-119.62-13-193.89,4-226.92,14.97l37.29,47.65c5.99,7.66,4.72,18.72-2.86,24.81        C326.15,481,229,556.59,176.23,550.26c-30.64-3.68-50.38-22.28-62.38-39.71C86.05,561.8,32.3,675.34,35.71,781.78        c4.23,131.93,32.01,233.17,37.37,251.6c12.32,13.53,51.08,19.12,75.83,18.71C149.01,1052.09,149.1,1052.09,149.2,1052.09z"/>
					</g>
					<g>
						<path class="st7" d="M366.17,1093c-40.36,0-70.28-10.84-99.41-21.39c-14.41-5.22-28.02-10.15-43.14-13.97        c-41.68-10.53-58.02,19.27-58.69,20.54c-4.6,8.67-15.35,11.99-24.03,7.39c-8.67-4.59-11.98-15.35-7.39-24.03        c10.23-19.33,44.07-52.2,98.83-38.37c16.84,4.26,31.94,9.73,46.54,15.01c35.53,12.87,66.21,23.98,115.77,17.26        c25.38-3.44,45.17-15.62,66.11-28.51c36.64-22.56,78.15-48.13,155.39-33.45c112.05,21.29,241.6-2.01,301.32-54.19        c57.97-50.65,53.13-119.25,52.89-122.14c-0.79-9.76,6.46-18.35,16.21-19.18c9.73-0.83,18.34,6.35,19.2,16.11        c0.32,3.61,7.02,89.13-64.92,151.99c-68.25,59.63-207.59,85.85-331.35,62.35c-63.69-12.1-95.96,7.77-130.12,28.8        c-23.17,14.26-47.13,29.01-79.97,33.47C387.54,1092.29,376.51,1093,366.17,1093z"/>
					</g>
					<g>
						<path class="st7" d="M1025.26,829.83c-66.11,0-106.04-45.32-119.28-73.96c-4.12-8.91-0.24-19.47,8.67-23.6        c8.88-4.12,19.42-0.26,23.56,8.6c1.47,3.1,35.3,71.74,120.77,48.65c9.49-2.56,19.24,3.04,21.8,12.52        c2.56,9.48-3.04,19.24-12.52,21.8C1052.88,828,1038.54,829.83,1025.26,829.83z"/>
					</g>
					<g>
						<path class="st7" d="M160.1,1180.49c-9.64,0-24.21,0-81.17-108.84c-4.55-8.7-1.19-19.44,7.51-23.99        c8.7-4.56,19.44-1.19,23.99,7.5c15.77,30.12,35.82,64.49,48.07,81.57c3.21-8.14,6.67-19.51,8.96-30.12        c2.08-9.59,11.55-15.69,21.13-13.61c9.59,2.08,15.69,11.53,13.62,21.12C187.89,1180.49,167.7,1180.49,160.1,1180.49z         M167,1146.81C167.01,1146.81,167,1146.81,167,1146.81L167,1146.81z"/>
					</g>
					<g>
						<path class="st7" d="M538.18,1124.94c-10.12,0-29.4-7.62-70.68-82.14c-4.76-8.59-1.65-19.4,6.94-24.16        c8.59-4.75,19.4-1.65,24.16,6.93c15.13,27.31,33.76,54.58,42.55,62.69c10.6-4.7,34.51-24.99,39.36-81.16        c0.84-9.78,9.45-17.01,19.24-16.18c9.78,0.84,17.03,9.46,16.18,19.24c-6.74,78.06-47.9,111.23-73.91,114.48        C540.91,1124.78,539.64,1124.94,538.18,1124.94z"/>
					</g>
					<g>
						<path class="st7" d="M202.58,544.96c0.95-0.92,2.17-2.55,2.56-3.61c0.37-1.56-1.29,1.54-1.47,2.34        c-5.93,17.51-7.49,36.55-9.52,55.18c-2.17,22.41-3.25,45.03-4.15,67.58c-2.46-11.05-5.01-22.13-7.25-33.27        c-5.99-31.7-13.35-63.49-11.72-96.18c0.43-4.81,1.47-10.28,4.28-14.56C190.6,501.77,219.94,525.99,202.58,544.96        L202.58,544.96z"/>
					</g>
					<g>
						<path class="st7" d="M350.6,736.57c-18.93,0-32.66-23.7-32.66-56.35c0-32.65,13.74-56.35,32.66-56.35s32.66,23.7,32.66,56.35        C383.26,712.87,369.53,736.57,350.6,736.57z M350.6,647.82c-2.98,2.32-8.96,13.59-8.96,32.4c0,18.81,5.98,30.08,8.96,32.4        c2.98-2.32,8.96-13.59,8.96-32.4C359.56,661.41,353.58,650.14,350.6,647.82z"/>
					</g>
					<g>
						<path class="st7" d="M99.89,736.57c-18.93,0-32.66-23.7-32.66-56.35c0-32.65,13.74-56.35,32.66-56.35s32.66,23.7,32.66,56.35        C132.55,712.87,118.82,736.57,99.89,736.57z M99.89,647.82c-2.98,2.32-8.96,13.59-8.96,32.4c0,18.81,5.98,30.08,8.96,32.4        c2.98-2.32,8.96-13.59,8.96-32.4C108.85,661.41,102.87,650.14,99.89,647.82z"/>
					</g>
					<g>
						<path class="st7" d="M114.97,490.84c-0.47,0-0.95-0.02-1.43-0.06c-9.79-0.78-17.09-9.34-16.31-19.13        c0.16-2.01,4.02-49.74,13.2-100.22c17.79-97.86,39.32-117.41,56.08-123.5c26.46-9.63,56.35,10.45,91.32,61.39        c22.56,32.85,39.48,67.04,40.19,68.48c4.34,8.8,0.72,19.46-8.08,23.8c-8.8,4.34-19.46,0.73-23.8-8.08        c-33.37-67.63-75.12-116.67-87.48-112.19c-0.16,0.07-17.2,7.9-33.33,96.88c-8.79,48.52-12.62,95.79-12.66,96.26        C131.93,483.78,124.15,490.84,114.97,490.84z"/>
					</g>
					<g>
						<path class="st7" d="M785.49,259.76c-1.19,0-2.4-0.12-3.62-0.37c-9.61-1.99-15.79-11.39-13.81-21.01        c0.59-2.85,15.22-70.18,80.77-92.4c52.69-17.86,134.63-70.92,151.87-132.96c1.83-6.59,7.28-11.54,14.01-12.74        c6.73-1.2,13.55,1.57,17.55,7.12c0.83,1.15,82.01,116.82,0.51,243.26c-5.32,8.25-16.32,10.63-24.57,5.31        c-8.25-5.32-10.63-16.32-5.31-24.57c45.69-70.88,31.57-136.35,16.47-172.97c-35.97,60.65-112.04,105.26-159.12,121.21        c-46.49,15.76-57.27,65.44-57.37,65.94C801.15,253.99,793.75,259.76,785.49,259.76z"/>
					</g>
					<g>
						<path class="st7" d="M1294.11,404.78c-5.42,0-10.78-2.47-14.27-7.15c-5.87-7.87-4.24-19.01,3.63-24.88        c116.73-87.02,131.23-185.72,127.85-242.03c-33.84,42.28-91.95,74.23-175.93,96.96c-62.71,16.97-72.32,36.19-73.26,38.47        c-1.24,8.91-9.28,15.57-18.22,15.29c-9.81-0.34-17.49-8.57-17.14-18.38c0.35-10.14,8.56-45.12,99.34-69.69        c99.77-27,157.83-66.32,177.49-120.2c2.56-7.02,9.24-11.68,16.7-11.68c0.05,0,0.1,0,0.15,0c7.52,0.06,14.19,4.85,16.65,11.96        c0.66,1.9,16,47.23,7.08,110.45c-8.16,57.81-38.97,142.45-139.45,217.36C1301.53,403.63,1297.8,404.78,1294.11,404.78z         M1162.05,266.37L1162.05,266.37L1162.05,266.37z M1162.3,264.32c0,0.01,0,0.01,0,0.02        C1162.3,264.33,1162.3,264.33,1162.3,264.32z M1162.3,264.29c0,0.01,0,0.02,0,0.02C1162.3,264.31,1162.3,264.3,1162.3,264.29z        "/>
					</g>
					<g>
						<path class="st7" d="M1376.53,523.32c-6.15,0-12.14-3.2-15.42-8.92c-4.9-8.51-1.97-19.38,6.55-24.27        c156.25-89.87,230.07-173.83,259.84-219.82c-64.38,38.41-194.83,122.96-281.24,180.04c-8.19,5.41-19.22,3.16-24.63-5.03        s-3.16-19.22,5.03-24.63c0.79-0.52,80.09-52.89,159.42-103.78c46.67-29.94,84.25-53.54,111.69-70.13        c55.4-33.51,63.04-36.37,74.33-27.84c3.24,2.45,8.57,8.17,7.89,19c-2.31,36.9-79.7,159.4-294.61,283.01        C1382.59,522.56,1379.54,523.32,1376.53,523.32z"/>
					</g>
					<g>
						<path class="st7" d="M1499.36,639.29c-28.26,0-59.37-1.47-93.54-4.73c-9.77-0.93-16.94-9.61-16.01-19.38        c0.93-9.77,9.66-16.89,19.38-16.01c185.66,17.72,266.2-21.56,285.52-43.63c-40.59-6.61-178.64,3.91-297.59,19.12        c-9.74,1.26-18.64-5.64-19.89-15.38c-1.25-9.74,5.64-18.64,15.38-19.89c0.74-0.1,75.02-9.55,151.47-15.79        c161.99-13.22,175.62,0.24,183.77,8.28c5.19,5.12,7.71,12.08,6.91,19.08C1730.3,589.94,1662.82,639.29,1499.36,639.29z"/>
					</g>
					<g>
						<path class="st7" d="M1576.62,869.07c-30.94,0-86.53-15.07-160.6-96.59c-6.6-7.27-6.06-18.51,1.2-25.11        c7.27-6.6,18.51-6.06,25.11,1.2c61.5,67.7,112.7,88.15,140.12,84.73c6.68-0.83,10.21-2.88,11.68-4.15        c-0.51-0.49-1.28-1.11-2.41-1.78c-43.88-26.33-181-140.14-186.82-144.97c-7.55-6.27-8.59-17.48-2.31-25.03        c6.27-7.55,17.48-8.59,25.03-2.31c1.4,1.17,140.82,116.89,182.39,141.83c14.19,8.52,21.7,22,20.09,36.06        c-1.72,14.97-13.17,27.27-30.64,32.89C1594.91,867.3,1587.2,869.06,1576.62,869.07z M1594.92,830.08h0.05H1594.92z"/>
					</g>
					<g>
						<path class="st7" d="M1706.4,557.97c-6.3,0-12.4-3.36-15.63-9.28c-68.33-125.6-49.18-297.54-48.33-304.79        c1.14-9.75,10-16.72,19.71-15.59c9.75,1.14,16.73,9.96,15.6,19.71c-0.19,1.67-18.62,168.12,44.25,283.69        c4.69,8.62,1.5,19.42-7.12,24.11C1712.18,557.27,1709.27,557.97,1706.4,557.97z"/>
					</g>
					<g>
						<path class="st7" d="M1610.07,838.61c-8.81,0-16.45-6.54-17.61-15.51c-22.62-175.63,77.87-249.12,82.16-252.16        c8-5.68,19.1-3.8,24.78,4.21c5.67,7.99,3.8,19.04-4.15,24.73c-3.7,2.69-87.29,65.35-67.53,218.67        c1.25,9.74-5.62,18.65-15.36,19.9C1611.59,838.57,1610.82,838.61,1610.07,838.61z"/>
					</g>
					<g>
						<path class="st7" d="M1416.27,1034.5c-1.81,0-3.66-0.28-5.48-0.87c-9.34-3.02-14.46-13.04-11.44-22.39        c51.67-159.68,171.14-176.81,176.2-177.46c9.75-1.26,18.65,5.63,19.9,15.36c1.25,9.71-5.59,18.6-15.28,19.89        c-4.37,0.61-102.61,15.99-147,153.16C1430.75,1029.71,1423.77,1034.5,1416.27,1034.5z"/>
					</g>
					<g>
						<path class="st7" d="M840,160.03c25.25,12.6,47.67,30.43,64.63,52.85c5.59,7.23,9.98,15.26,13.89,23.26        c-16.04-20.95-38.38-35.92-62.48-45.89c-7.49-3.04-16.07-6.1-23.69-7.79c-6.44-1.38-10.55-7.73-9.16-14.17        C824.68,160.83,833.2,156.67,840,160.03L840,160.03z"/>
					</g>
					<g>
						<path class="st7" d="M942.77,106.97c27.1,15.66,50.31,37.21,65.78,64.27c-10.4-10.53-22.23-19.32-35.13-26.33        c-12.11-6.66-26.13-12.59-39.19-15.83c-6.43-1.52-10.41-7.97-8.88-14.39C927.03,107.08,936.03,103.13,942.77,106.97        L942.77,106.97z"/>
					</g>
					<g>
						<path class="st7" d="M1227.41,201.5c33.2,19.26,46.03,62.44,52.92,97.69c0,0,2.3,15.07,2.3,15.07        c-6.33-18.29-14.58-38.26-25.18-54.31c-9.78-14.72-21.79-29.95-38.24-36.21C1204.7,217.98,1212.59,196.46,1227.41,201.5        L1227.41,201.5z"/>
					</g>
					<g>
						<path class="st7" d="M1328.52,169.31c17.32,22.48,35.4,45.51,44.39,72.68c-15.53-22.69-38.6-39.27-60.49-55.28        C1298.03,175.67,1316.38,155.8,1328.52,169.31L1328.52,169.31z"/>
					</g>
					<g>
						<path class="st7" d="M684.54,414.64c-2.05,0-4.1-0.35-6.06-1.07c-34.35-12.46-73.16-21.8-101.48-27.74        c-2.48,0.38-5.08,0.21-7.65-0.54c-1.52-0.45-2.94-1.09-4.23-1.88c-17.02-3.37-28.08-5.12-28.37-5.17        c-9.7-1.52-16.33-10.61-14.81-20.31c1.52-9.7,10.62-16.32,20.31-14.81c1,0.16,8.84,1.4,21.12,3.71        c7.55-17.69,22.35-44.57,46.15-56.75c14.46-7.41,30.48-8.39,46.3-2.85c52.2,18.27,53.52,79.93,46.06,113.48        c-1.11,4.99-4.31,9.27-8.8,11.73C690.44,413.9,687.5,414.64,684.54,414.64z M599.14,354.22        c21.13,4.74,45.87,10.99,70.19,18.72c0.49-18.56-3.08-44.39-25.24-52.15c-6.69-2.34-12.53-2.04-18.36,0.94        C614.49,327.48,605.28,341.7,599.14,354.22z"/>
					</g>
					<g>
						<path class="st7" d="M539.5,360.68c0,0,79.72,12.49,145.04,36.18c0,0,16.65-74.92-34.58-92.85        c-51.23-17.93-75.56,64.23-75.56,64.23L539.5,360.68z"/>
					</g>
					<g>
						<ellipse class="st7" cx="1013.52" cy="448.36" rx="71.56" ry="91.84"/>
					</g>
					<g>
						<ellipse class="st0" cx="990.71" cy="426.13" rx="22.8" ry="29.27"/>
					</g>
					<g>
						
							<ellipse transform="matrix(0.2268 -0.9739 0.9739 0.2268 150.4374 849.3739)" class="st0" cx="610.19" cy="329.94" rx="20.23" ry="13.78"/>
					</g>
				</g>
				<g class="st6">
					<ellipse class="st7" cx="1274.04" cy="734.18" rx="51.87" ry="65.46"/>
				</g>
				<g class="st6">
					<ellipse class="st7" cx="1227.94" cy="941.93" rx="39.38" ry="32.52"/>
				</g>
			</g>
		</g>
	</g>
</g>
</svg>