<svg xmlns="http://www.w3.org/2000/svg" xmlns:xlink="http://www.w3.org/1999/xlink" version="1.1" id="Layer_1" x="0px" y="0px" style="enable-background:new 0 0 2715.84 2866.57;" xml:space="preserve" viewBox="0 0 2715.83 2866.57">
<style type="text/css">
	.st0{fill:#020772;}
	.st1{fill:#FFFFFF;}
	.st2{fill:#9666FF;}
	.st3{fill:#FF9FC6;}
	.st4{opacity:0.25;}
	.st5{fill:none;}
	.st6{fill:#D68949;}
	.st7{fill:#FFC580;}
	.st8{opacity:0.4;}
	.st9{fill:#FFCE43;}
	.st10{fill:#FF6C85;}
	.st11{fill:#FF61C7;}
	.st12{opacity:0.35;}
	.st13{opacity:0.5;}
	.st14{fill:#00DBFF;}
	.st15{opacity:0.7;}
	.st16{opacity:0.3;}
	.st17{fill:#371A45;}
	.st18{fill:#55DFFF;}
	.st19{fill:#9B7861;}
	.st20{fill:#DAD4DD;}
	.st21{fill:#512717;}
	.st22{fill:#FEE1CC;}
	.st23{fill:#C6A289;}
	.st24{fill:#F2CBB1;}
	.st25{fill:#FFA6A6;}
	.st26{fill:#C6A28A;}
	.st27{fill:#22A7F0;}
	.st28{fill:#1C7AEA;}
	.st29{fill:#FF0068;}
	.st30{fill:#E2E2E2;}
	.st31{fill:#FFE1CC;}
	.st32{fill:#9B7A67;}
	.st33{fill:#FFCFAB;}
	.st34{fill:#DBD9D9;}
	.st35{fill:#FFC49C;}
	.st36{fill:#716462;}
	.st37{fill:#261C1B;}
	.st38{fill:#231D1A;}
	.st39{fill:#FFBD9A;}
	.st40{fill:#FFC83E;}
	.st41{fill:#3399FF;}
	.st42{fill:#FF2222;}
	.st43{fill:#FF4D24;}
	.st44{opacity:0.2;}
	.st45{fill:#FFA92C;}
	.st46{fill:#FFDD50;}
	.st47{fill:#220F2D;}
	.st48{fill:#D8D8D8;}
	.st49{fill:#FAA327;}
	.st50{fill:#EF7F25;}
	.st51{fill:#FF7DBB;}
	.st52{fill:#F85189;}
	.st53{fill:#000072;}
	.st54{fill:#E96F5F;}
	.st55{fill:#FFCA83;}
	.st56{fill:#FFB65F;}
	.st57{fill:#540F2E;}
	.st58{fill:#F63C6B;}
	.st59{fill:#C95249;}
	.st60{fill:#D87736;}
	.st61{fill:#FFC248;}
	.st62{fill:#FF7E27;}
	.st63{fill:#FF9124;}
	.st64{fill:#5F537B;}
	.st65{fill:#040371;}
	.st66{fill:#4FD0FC;}
	.st67{opacity:0.24;}
	.st68{fill:#62ED2E;}
	.st69{fill:#F25187;}
	.st70{fill:#46DB78;}
	.st71{fill:#FFF769;}
	.st72{fill:#FFB514;}
	.st73{fill:#FF78A9;}
	.st74{fill:#F9754B;}
	.st75{fill:#F9903A;}
	.st76{fill:none;stroke:#020772;stroke-width:30;stroke-linecap:round;stroke-linejoin:round;stroke-miterlimit:10;}
</style>
<g>
	<g>
		<g>
			<g>
				<g>
					<path class="st1" d="M2181.46,1081.98c-14.05,4.66-52.87,26.98-87.56,49.08c8.76,11.98,16.38,29.47,24.17,51.8       C2174.56,1145.42,2182.23,1098.83,2181.46,1081.98z"/>
				</g>
				<g>
					<path class="st70" d="M941.3,1938.27c-11.56-41-30.27-86.46-41.04-89.88c-0.1-0.01-0.2-0.01-0.31-0.01       c-9.54,0-43.19,38.29-74.7,84.74c52.17,10.74,96.13,16.67,112.07,18.65C938.64,1947.22,939.97,1942.72,941.3,1938.27z"/>
				</g>
				<g>
					<path class="st1" d="M1940.64,996.46c14.19-46.29,21.21-91.49,14.75-96.87c-8.88,0.54-36.08,44.17-59.72,95.78       C1909.76,994.52,1927.01,994.27,1940.64,996.46z"/>
				</g>
				<g>
					<path class="st70" d="M724.43,1817.18c-15.74-9.12-52.78,27.95-77.22,60.55c28.47,14.11,62.38,25.96,96.94,35.77       C745.77,1878.18,742,1827.38,724.43,1817.18z"/>
				</g>
				<g>
					<path class="st70" d="M2056.24,2719.63c-0.26-9.49,1.38-21.32,8.61-32.09c7.93-11.82,20.82-19.8,38.37-23.88       c-27.01-17.48-49.54-27.92-58.01-31.6c-13.2,8.52-61.93,36.49-143.27,43.94c-0.24,0.02-0.47,0.03-0.71,0.03       c-3.9,0-7.23-2.98-7.59-6.94c-0.38-4.2,2.71-7.91,6.91-8.3c89.72-8.21,138.85-43.19,139.34-43.54       c0.02-0.01,0.04-0.02,0.07-0.04c0.01-0.01,0.02-0.02,0.03-0.03c0.61-0.44,64.02-47.27,103.37-200.85       c30.13-117.59-10.61-255.08-32.19-314.97c-14.16,134.62-64.44,240.06-152.16,322.43c-87.59,82.25-221.67,132.32-334.1,161.86       l57.37,23.98c2.45,1.02,4.19,3.24,4.6,5.87s-0.58,5.27-2.6,6.99c-35.82,30.45-37.95,112.18-38.03,127.73       c5.01,6.07,20.84,24.52,36.71,35.28c26.23,17.77,144.88,13.29,183.87,11.82c26.26-0.99,56.42-1.9,86.84-2.7       c0.11-19.08,2.87-67.86,27.08-90.4C1995.46,2690.53,2025.74,2701.75,2056.24,2719.63z"/>
				</g>
				<g>
					<path class="st71" d="M2073,1775.65c-40.63-201.5-151.67-308.88-185.78-337.8c-27.4,55.67-83.25,128.3-197.08,189.38       c-81.33,43.64-152.44,63.74-211.33,71.06c13.59,47.48,67.85,262.46-14.01,414.17c41.01,41.48,83.17,105.08,104.11,200.4       c32.95,150-57.23,245.98-118.73,292.26c90.46-13.1,359.18-61.77,498.36-192.45C2093.61,2276.46,2133.16,2074.04,2073,1775.65z"/>
				</g>
				<g>
					<path class="st1" d="M2062.77,2741.96c-0.41-0.22-0.8-0.45-1.16-0.74c-33.26-21.36-61.88-33.84-70.48-25.82       c-19.55,18.2-22.02,61.41-22.19,78.83c66.58-1.69,131.43-2.86,156.12-3.29l-1.22-3.61       C2104.05,2770.73,2082.62,2754.8,2062.77,2741.96z"/>
				</g>
				<g>
					<path class="st1" d="M2121.68,2676.28c-21.59,1.81-36.47,8.39-44.1,19.67c-8.36,12.37-6.17,27.68-4.75,34       c24.71,16.2,47.64,34.64,60.33,45.27h80.97C2189.82,2732.63,2154.23,2699.82,2121.68,2676.28z"/>
				</g>
				<g>
					<path class="st70" d="M581.83,1831.81c1.82-49.93,0.18-102.33-6.05-110.98c-7.59-1.05-38.81,18.09-69.73,42.43       c10.46,9.05,21.95,19.62,34.7,31.37C553.37,1806.28,567.21,1818.99,581.83,1831.81z"/>
				</g>
				<g>
					<path class="st70" d="M1490.8,2548.46c61.08-67.03,82.34-145.2,63.2-232.32c-46.01-209.43-197.17-259.13-198.69-259.61       c-4.02-1.26-6.26-5.54-5-9.56c1.26-4.02,5.52-6.26,9.55-5.01c0.84,0.26,44.86,14.65,93.52,59.51       c76.76-147.76,21.13-362.47,9.99-401.52c-107.71,9.73-170.59-23.27-174.63-25.47c-3.7-2.02-5.07-6.65-3.05-10.36       c2.02-3.7,6.65-5.05,10.35-3.06c1.49,0.81,151.57,78.98,386.9-47.29c109.64-58.83,164.57-128.67,191.97-186.53       c-1.4-2.49-1.35-5.66,0.42-8.15c1.15-1.61,2.81-2.61,4.59-3.01c25.68-60.32,21.7-105.12,21.61-106.01       c-0.41-3.89,2.19-7.47,6.02-8.28c46.67-9.8,172.97-44.3,196.69-85.6c3.8-6.62,4.62-12.93,2.5-19.31       c-23.54-70.72-37.6-72.51-53.49-67.47c-23.87,7.53-106.64,55.31-107.47,55.79c-2.57,1.48-5.76,1.34-8.19-0.35       c-2.43-1.69-3.66-4.65-3.15-7.56c14.12-81.59,18.29-156.83,9.14-164.76c-0.01,0-0.01,0-0.01,0c-0.13-0.04-0.24-0.11-0.36-0.16       c-18.91-4.79-54.92-1.39-67.06-0.03l-87.49,185.39c-0.59,1.24-1.5,2.3-2.64,3.07c-4.44,2.99-447.18,298.92-808.76,330.45       c-10.02,12.65-53.93,79.2,26.1,190.47c17.66,23.77,1.73,71.29-22.37,143.21c-9.78,29.19-20.73,61.88-30.77,97.3       c-0.03,0.09-0.05,0.19-0.08,0.28c-21.06,74.31-38.11,160.66-32.05,252.31c15.3,231.38,121.89,312.66,122.97,313.45       c2.14,1.58,3.31,4.17,3.07,6.83s-1.84,4.99-4.23,6.17c-0.94,0.46-93.44,46.72-67.99,102.24       c25.94,56.61,109.11,174.26,123.28,194.14c8.08,0.63,29.39,2.2,56.6,3.57c-12.03-12.43-23.58-33.48-21.42-67.96       c1.83-29.36,21.71-52.36,53.16-61.51c36-10.46,75.38,1.18,97.62,28.3c12.95-28.11,41.52-63.44,85.84-54.55       c9.81,1.96,19.14,6.31,27.9,12.24c5.85-11.28,19.37-27.86,48.63-30.33c-15.12-10.92-32.07-20.9-50.97-29.22       c-9.42-2.19-129.93-28.32-240.85,36.76c-1.21,0.71-2.54,1.05-3.86,1.05c-2.62,0-5.17-1.35-6.59-3.77       c-2.13-3.63-0.91-8.31,2.72-10.45c112.26-65.87,230.23-43.37,250.14-38.9C1404.7,2617.53,1450.28,2592.93,1490.8,2548.46z        M1571.63,1469.49c-0.82,14.25-0.95,28.08,1.31,41.02c2.18,12.89,7.11,24.55,15.86,32.21c4.32,3.9,9.58,6.83,15.34,9.08       c5.78,2.3,12.18,3.49,18.68,4.65c13.17,1.96,27.04,1.88,41.38,2.33c-13.11,5.81-27.27,9.27-42.11,9.65       c-7.42-0.05-15.03-0.62-22.53-2.9c-7.46-2.25-14.81-5.99-20.94-11.45c-6.11-5.46-10.75-12.49-13.54-19.91       c-2.82-7.43-3.99-15.16-4.06-22.66C1561.05,1496.51,1564.69,1482.1,1571.63,1469.49z"/>
				</g>
				<g>
					<path class="st70" d="M931.38,2374.51c-13.6-42.82-24.34-95.21-28.53-158.65c-5.99-90.54,9.94-175.56,30.27-249.21       c-46.55-5.78-255.55-35.08-339.39-104.55c-3.16-2.62-6.2-5.26-9.3-7.89c-0.41-0.29-0.8-0.61-1.14-0.97       c-19.07-16.28-36.92-32.66-52.88-47.38c-33.7-31.07-68.56-63.25-81.27-58.75c-3.83,1.34-6.83,7.86-8.45,18.35       c-3.16,20.55,2.94,73.72,23.22,143.53C474.83,1931.84,634.44,2255.95,931.38,2374.51z"/>
				</g>
				<g>
					<path class="st1" d="M1459.98,2817.25c-0.05-0.12-0.14-0.21-0.19-0.33c-0.33-0.85-27.02-68.63-65.72-100.76       c-0.5-0.33-0.95-0.71-1.36-1.14c-9.01-7.23-18.65-12.5-28.75-14.52c-45.08-9.02-67.38,41.24-72.48,54.71l43.85,67.38       c16.92,1.27,87.54,6.44,131.47,7.41l-6.62-12.21C1460.1,2817.62,1460.06,2817.43,1459.98,2817.25z"/>
				</g>
				<g>
					<path class="st1" d="M1187.77,2726.45c-25,7.27-40.77,25.14-42.18,47.8c-3.24,51.8,28.21,66.05,34.01,68.23       c48.82,1.81,106.93,2.13,143.78-3.86v-6.45l-51.95-79.84C1250.77,2723.96,1213.56,2718.96,1187.77,2726.45z"/>
				</g>
				<g>
					<path class="st71" d="M1023.1,2533.07c-17.35-16.02-56.08-58.56-85.32-139.73c-227.44-85.58-377.46-289.83-445.79-402.09       c11.92,30.4,26.17,62.38,43.02,95.06c70.29,136.35,207.38,327.26,461.45,464.83       C1006.47,2543.24,1016.17,2537.09,1023.1,2533.07z"/>
				</g>
				<g>
					<path class="st1" d="M1407.06,2707.37c34.35,30.56,58.01,82.55,64.91,98.99l78.53-2.45c-8.95-21.63-34.98-75.62-86.98-120.6       C1423.65,2678.08,1410.73,2698.4,1407.06,2707.37z"/>
				</g>
				<g>
					<path class="st5" d="M848.77,1937.74c41.55,7.84,75.08,12.34,88.55,14.03c1.31-4.55,2.64-9.04,3.98-13.49       c-3.71-13.17-8.17-26.79-12.86-39.34c-12.19-9.19-27.64-20.26-31.11-20.07C892.23,1879.15,858.03,1925.16,848.77,1937.74z"/>
				</g>
				<g>
					<path class="st5" d="M918.08,2214.85c3.84,58.01,13.41,106.57,25.62,146.81c-1.27-11.45-2.4-22.21-2.4-22.21       s-21.21-156.59,7.95-255.08c0,0,108.93,306.66,297.04,352.77c188.11,46.1,284.93-70.81,288.57-123.29       c0,0,31.11,81.23-0.24,171.89c26.24-51.61,32.83-108.38,19.38-169.59c-1-4.56-2.12-8.96-3.22-13.37       c-9.07-11.8-28.55-39.33-61.72-96.28c-48.75-83.71-165.46-142.8-169.4-154.62c-3.28-9.85,20.38-2.86,30.57-0.62       c-0.37-1.36-0.39-2.83,0.06-4.28c1.26-4.02,5.52-6.26,9.55-5.01c0.84,0.26,44.86,14.65,93.52,59.51       c60.76-116.97,38.57-275.81,21.15-356.34c-91.94-5.96-147.24-42.65-172.43-64.57c-7.83-3.15-12.37-5.54-13.36-6.08       c-3.7-2.02-5.07-6.65-3.05-10.36c2.02-3.7,6.65-5.05,10.35-3.06c0.19,0.11,2.96,1.54,8.09,3.66       c-3.11-3.09-5.93-6.41-8.25-10.09c0,0,246.87-26.26,286.92-36.77c40.05-10.51-38.51-32.2-19.91-90.95l0.04,0.02       c-1.24-5.14-1.85-10.33-1.89-15.43c0.02-15,3.66-29.42,10.61-42.03c-0.82,14.25-0.95,28.08,1.31,41.02       c1.79,10.56,5.46,20.25,11.53,27.64l33.51,17.42c0,0,84.31,15.04,170.98-86.07c86.67-101.11,63.69-185.16,87.98-195.66       c24.29-10.5,132.63-34.8,172.02-49.24c39.39-14.44,48.41-53.43,48.41-53.45c-6.36-15.87-12.01-26.3-17.25-32.92       c-9.15,5.57-42.88,23.76-69.9,32.92c-31.19,10.57-66.97,23.36-66.97,23.36s7.29-8.22,13.64-15.62       c-6.71,3.81-10.94,6.25-11.13,6.36c-2.57,1.48-5.76,1.34-8.19-0.35c-2.43-1.69-3.66-4.65-3.15-7.56c0.03-0.2,0.07-0.4,0.1-0.6       c-3.38,3.97-7.79,8.47-7.79,8.47c-0.55-0.66-14.34-17.54-10.07-52.76c4.27-35.22,6.63-92.34,4.63-105.8       c-1.1-7.39-2.08-13.03-2.75-16.67c-8.3-0.09-16.84,0.28-24.33,0.8c-7.28,34.19-40.73,172.1-79.65,205.3       c-44.65,38.08-296.12,199.6-537.08,279.05c-240.96,79.45-301.04,42.68-301.04,42.68l12.67-7.66       c-3.96,0.41-7.93,0.82-11.88,1.17c-10.02,12.65-53.93,79.2,26.1,190.47c17.66,23.77,1.73,71.29-22.37,143.21       c-9.78,29.19-20.73,61.88-30.77,97.3c-0.03,0.09-0.05,0.19-0.08,0.28C929.07,2036.85,912.02,2123.21,918.08,2214.85z        M1354.47,2292.18c48.86,0,88.47,13.89,88.47,31.02c0,17.13-39.61,31.02-88.47,31.02c-48.86,0-88.47-13.89-88.47-31.02       C1266,2306.07,1305.61,2292.18,1354.47,2292.18z"/>
				</g>
				<g>
					<path class="st5" d="M716.44,1840.78c-13.07,0.65-51.99,44.37-52.33,44.75c24.58,10.73,52.06,20.03,80.04,27.97       c0.57-12.5,0.45-26.92-0.7-40.81C735.71,1858.71,724.36,1840.39,716.44,1840.78z"/>
				</g>
				<g>
					<path class="st5" d="M1921.43,994.86c8.39-22.91,28.25-75.75,33.65-77.55c0.88-0.3,1.7-0.28,2.45-0.03       c0.65-9.42,0.04-15.87-2.14-17.69c-8.88,0.54-36.08,44.17-59.72,95.78C1903.66,994.89,1912.65,994.62,1921.43,994.86z"/>
				</g>
				<g>
					<path class="st5" d="M1181.3,2773.78c27.15-8.46,119.05,53.1,138.48,65.38c1.2-0.18,2.44-0.34,3.59-0.53v-6.45l-51.95-79.84       c-20.65-28.37-57.86-33.38-83.65-25.88c-25,7.27-40.77,25.14-42.18,47.8c-0.8,12.89,0.54,23.44,3.1,32.07l4.71,11.7       C1153.39,2818.03,1151.26,2783.13,1181.3,2773.78z"/>
				</g>
				<g>
					<path class="st5" d="M1394.08,2716.16c-0.5-0.33-0.95-0.71-1.36-1.14c-9.01-7.23-18.65-12.5-28.75-14.52       c-45.08-9.02-67.38,41.24-72.48,54.71l12.55,19.28l0,0c1.85-2.68,31.89-32.01,57.49-21.53c19.13,7.83,75.61,51.29,102.97,72.79       l-4.31-7.95c-0.09-0.17-0.13-0.37-0.21-0.55c-0.05-0.12-0.14-0.21-0.19-0.33C1459.46,2816.07,1432.77,2748.29,1394.08,2716.16z       "/>
				</g>
				<g>
					<path class="st5" d="M1077.89,2630.97c-40.05,24.38,43.37,94.26,63.28,110.16c9.16-13.6,23.69-23.91,42.33-29.34       c36-10.46,75.38,1.18,97.62,28.3c12.95-28.11,41.52-63.44,85.84-54.55c9.81,1.96,19.14,6.31,27.9,12.24       c2.95-5.69,7.87-12.73,15.76-18.63c-77.79-49.01-245.08-4.41-245.08-4.41c-3.57-1.53-4.71-3.26-4.42-5.04       c-3.16,1.7-6.31,3.45-9.45,5.29c-1.21,0.71-2.54,1.05-3.86,1.05c-2.62,0-5.17-1.35-6.59-3.77c-2.13-3.63-0.91-8.31,2.72-10.45       c42.71-25.06,86.22-37.31,124.86-42.65C1190.81,2615.98,1102.8,2615.81,1077.89,2630.97z"/>
				</g>
				<g>
					<path class="st5" d="M1904.19,2605.12c20.61,25.34,138.29-8.6,192.98-64.69c3.71-7.05,7.46-14.71,11.21-22.93       c7.5-34.57,17.14-91.05,15.62-147.85c-2.44-91.26-27.23-184.53-27.23-184.53l0.06-0.73c-22.2,91.12-64.61,166.8-127.77,229.52       c0.18-0.07,0.28-0.11,0.28-0.11S1880.22,2575.66,1904.19,2605.12z"/>
				</g>
				<g>
					<path class="st5" d="M2109.53,1155.64c0,0,36.69-15.27,51.7-33.73c10.21-12.55,15.89-19.06,18.49-21.95       c1.56-7.48,1.92-13.7,1.73-17.98c-14.05,4.66-52.87,26.98-87.56,49.08c4.96,6.79,9.56,15.41,14.03,25.62       C2108.38,1156.29,2108.91,1155.93,2109.53,1155.64z"/>
				</g>
				<g>
					<path class="st5" d="M1901.93,2676c-0.24,0.02-0.47,0.03-0.71,0.03c-3.9,0-7.23-2.98-7.59-6.94c-0.04-0.41-0.01-0.81,0.01-1.2       c-18.51,5.26-70.66,20.87-71.2,30.05c-0.65,11.07,45.18,51.77,136.54,49.26c3.87-16.25,10.46-32.46,21.75-42.97       c14.73-13.7,45.01-2.48,75.51,15.39c-0.26-9.49,1.38-21.32,8.61-32.09c7.93-11.82,20.82-19.8,38.37-23.88       c-27.01-17.48-49.54-27.92-58.01-31.6C2032,2640.58,1983.27,2668.55,1901.93,2676z"/>
				</g>
				<g>
					<path class="st5" d="M2061.61,2741.22c-33.26-21.36-61.88-33.84-70.48-25.82c-19.49,18.15-22,61.14-22.19,78.66       c0.03,0.06,0.06,0.11,0.09,0.17c4.77-0.12,9.52-0.24,14.25-0.35c2.41-11.64,9.2-39.82,18.08-43.74       c9.58-4.23,81.82,30.65,104.34,41.15c7.83-0.14,14.42-0.26,19.36-0.34l-1.22-3.61c-19.79-16.6-41.22-32.53-61.07-45.37       C2062.36,2741.74,2061.97,2741.52,2061.61,2741.22z"/>
				</g>
				<g>
					<path class="st5" d="M2009.57,2067.76c-16.74,2.1,38.41-130.14,22.65-269c-15.76-138.87-89.62-292.5-89.62-292.5       c3.58-0.48,7.79,1.02,12.46,4.23c-6.1-7.94-12.08-15.33-17.82-22.06c0,0.01-87.62,188.21-321.82,243.36       c-47.14,11.1-88.57,14.91-124.83,14.04c18.19,84.4,39.51,245.6-25.79,366.63c41.01,41.48,83.17,105.08,104.11,200.4       c5.42,24.65,7.45,47.81,6.89,69.56c0.01-0.02,0.04-0.08,0.04-0.08s394.51-25.81,487.99-306.83c0,0,2.97,347.14-368.69,472.95       c91.69-30.05,187.19-73.62,253.4-135.78c125.96-118.27,172.32-286.49,142.98-524.07       C2082.76,1993.62,2022.47,2066.14,2009.57,2067.76z M1991.16,1877.27c-5.27,23.24-20.12,39.67-33.16,36.71       c-13.04-2.96-19.33-24.19-14.06-47.43c5.27-23.24,20.12-39.67,33.16-36.71C1990.14,1832.8,1996.43,1854.04,1991.16,1877.27z"/>
				</g>
				<g>
					<path class="st5" d="M1407.06,2707.37c8.24,7.33,15.84,15.9,22.76,24.9c-0.01-0.01-0.04-0.09-0.04-0.09       s34.18,11.55,54.86,25.34c15.7,10.47,41.58,35.37,53.16,46.78l12.71-0.4c-8.95-21.63-34.98-75.62-86.98-120.6       C1423.65,2678.08,1410.73,2698.4,1407.06,2707.37z"/>
				</g>
				<g>
					<path class="st5" d="M475.81,1852.93c9.1-1.3,161.7,303.62,432.87,419.33c-2.49-17.78-4.52-36.48-5.83-56.4       c-4.8-72.59,4.5-141.61,18.85-204.1c-33.21-6.04-166.86-32.66-279.77-88.31c-130-64.08-167.43-144.71-177.93-147.16       c-10.5-2.44-21.74,33.52-21.74,33.52c3.31,25.89,10.23,59.9,21.64,99.17c1.85,3.88,8,16.44,18.35,35.18       C477.24,1911.92,469.17,1853.88,475.81,1852.93z"/>
				</g>
				<g>
					<path class="st5" d="M1015.11,2537.97c-34.48-17.84-174.6-94.22-289.14-213.62c-75.99-79.22-123.06-133.22-149.31-164.77       c78.36,126.08,208.66,277.23,419.81,391.55C1003.07,2545.92,1009.47,2541.55,1015.11,2537.97z"/>
				</g>
				<g>
					<path class="st5" d="M566.25,1747.55c-4.37-1.32-33.42,21.02-44.47,29.7c6.01,5.45,12.3,11.24,18.96,17.38       c12.63,11.65,26.47,24.36,41.08,37.18c0.52-14.36,0.75-28.88,0.67-42.55c-2.26,4.59-4.26,8.03-4.26,8.03       S571.67,1749.19,566.25,1747.55z"/>
				</g>
				<g>
					<path class="st5" d="M2121.68,2676.28c-21.59,1.81-36.47,8.39-44.1,19.67c-8.36,12.37-6.17,27.68-4.75,34       c3.02,1.98,6.01,4,8.97,6.03c6.81-5.83,25.73-20.45,42.2-18.34c16.69,2.14,77.03,41.71,88.23,57.58h1.91       C2189.82,2732.63,2154.23,2699.82,2121.68,2676.28z"/>
				</g>
				<g class="st4">
					<path class="st65" d="M475.81,1852.93c-6.63,0.95,1.44,59,6.44,91.24c50.69,91.73,202.55,331.9,449.13,430.35       c-9.33-29.38-17.25-63.39-22.7-102.26C637.51,2156.54,484.91,1851.63,475.81,1852.93z"/>
				</g>
				<g class="st4">
					<path class="st65" d="M1015.11,2537.97c2.89-1.84,5.64-3.53,7.99-4.9c-17.35-16.02-56.08-58.56-85.32-139.73       c-227.44-85.58-377.46-289.83-445.79-402.09c11.92,30.4,26.17,62.38,43.02,95.06c11.88,23.03,25.71,47.65,41.64,73.28       c26.25,31.54,73.32,85.55,149.31,164.77C840.5,2443.75,980.62,2520.13,1015.11,2537.97z"/>
				</g>
				<g class="st4">
					<path class="st65" d="M1534.87,2313.84c-3.64,52.48-100.46,169.4-288.57,123.29c-188.11-46.1-297.04-352.77-297.04-352.77       c-29.16,98.49-7.95,255.08-7.95,255.08s1.12,10.76,2.4,22.21c36.49,120.26,96.54,166.05,97.35,166.64       c2.14,1.58,3.31,4.17,3.07,6.83s-1.84,4.99-4.23,6.17c-0.94,0.46-93.44,46.72-67.99,102.24       c25.94,56.61,109.11,174.26,123.28,194.14c8.08,0.63,29.39,2.2,56.6,3.57c-12.03-12.43-23.58-33.48-21.42-67.96       c0.75-11.96,4.53-22.83,10.82-32.17c-19.91-15.9-103.33-85.78-63.28-110.16c24.91-15.16,112.92-14.99,190.93-11.8       c62.94-8.7,112.94,0.98,125.27,3.75c10.61-5.38,56.19-29.99,96.71-74.46c18.16-19.93,32.72-40.88,43.82-62.72       C1565.98,2395.07,1534.87,2313.84,1534.87,2313.84z"/>
				</g>
				<g class="st4">
					<path class="st65" d="M1153.39,2818.03l-4.71-11.7C1149.98,2810.7,1151.59,2814.59,1153.39,2818.03z"/>
				</g>
				<g class="st4">
					<path class="st65" d="M1429.77,2732.19c0,0,0.04,0.08,0.04,0.09c21.95,28.56,36.91,61.59,42.15,74.09l65.82-2.06       c-11.57-11.41-37.45-36.31-53.16-46.78C1463.96,2743.74,1429.77,2732.19,1429.77,2732.19z"/>
				</g>
				<g class="st4">
					<path class="st65" d="M1181.3,2773.78c-30.04,9.36-27.91,44.25-27.91,44.25c8.93,17.01,22.58,23.09,26.2,24.45       c47.29,1.75,103.23,2.09,140.18-3.33C1300.35,2826.88,1208.45,2765.32,1181.3,2773.78z"/>
				</g>
				<g class="st4">
					<path class="st65" d="M1304.04,2774.49L1304.04,2774.49l31.3,48.1c16.92,1.27,87.54,6.44,131.47,7.41l-2.31-4.26       c-27.36-21.5-83.85-64.96-102.97-72.79C1335.92,2742.47,1305.88,2771.81,1304.04,2774.49z"/>
				</g>
				<g class="st4">
					<path class="st65" d="M1463.36,1699.95c-81.35,7.35-137.1-9.67-161.27-19.39c25.19,21.92,80.49,58.61,172.43,64.57       C1469.95,1723.93,1465.69,1708.08,1463.36,1699.95z"/>
				</g>
				<g class="st4">
					<path class="st65" d="M1615.42,1731.79c234.19-55.15,321.81-243.36,321.82-243.36c-21.19-24.84-39.36-41.54-50.02-50.58       c-27.4,55.67-83.25,128.3-197.08,189.38c-81.33,43.64-152.44,63.74-211.33,71.06c2.75,9.6,7.16,26.15,11.78,47.55       C1526.85,1746.7,1568.28,1742.89,1615.42,1731.79z"/>
				</g>
				<g class="st4">
					<path class="st65" d="M2063.83,2075.51c-93.48,281.01-487.99,306.83-487.99,306.83s-0.03,0.06-0.04,0.08       c-2.85,110.61-74.23,184.03-125.62,222.7c47.43-6.87,143.88-23.54,244.96-56.67       C2066.8,2422.65,2063.83,2075.51,2063.83,2075.51z"/>
				</g>
				<g class="st4">
					<path class="st65" d="M1822.45,2697.94c0.54-9.18,52.69-24.79,71.2-30.05c0.24-3.68,3.1-6.75,6.9-7.1       c89.72-8.21,138.85-43.19,139.34-43.54c0.02-0.01,0.04-0.02,0.07-0.04c0.01-0.01,0.02-0.02,0.03-0.03       c0.4-0.29,27.49-20.32,57.2-76.76c-54.69,56.08-172.37,90.02-192.98,64.69c-23.97-29.46,65.14-191.31,65.14-191.31       s-0.1,0.04-0.28,0.11c-3.33,3.31-6.62,6.65-10.07,9.89c-87.59,82.25-221.67,132.32-334.1,161.86l57.37,23.98       c2.45,1.02,4.19,3.24,4.6,5.87s-0.58,5.27-2.6,6.99c-35.82,30.45-37.95,112.18-38.03,127.73c5.01,6.07,20.84,24.52,36.71,35.28       c26.23,17.77,144.88,13.29,183.87,11.82c26.26-0.99,56.42-1.9,86.84-2.7c0.06-10.18,0.91-28.83,5.34-47.43       C1867.62,2749.71,1821.8,2709.01,1822.45,2697.94z"/>
				</g>
				<g class="st4">
					<path class="st65" d="M2124,2717.64c-16.47-2.11-35.39,12.5-42.2,18.34c21.2,14.57,40.23,29.91,51.37,39.24h79.07       C2201.02,2759.35,2140.69,2719.78,2124,2717.64z"/>
				</g>
				<g class="st4">
					<path class="st65" d="M1968.94,2794.23c0.03,0,0.06,0,0.1,0c-0.03-0.06-0.06-0.11-0.09-0.17       C1968.94,2794.11,1968.94,2794.18,1968.94,2794.23z"/>
				</g>
				<g class="st4">
					<path class="st65" d="M2001.36,2750.14c-8.88,3.92-15.67,32.09-18.08,43.74c48.15-1.17,93.87-2.07,122.42-2.59       C2083.18,2780.78,2010.95,2745.91,2001.36,2750.14z"/>
				</g>
				<g class="st4">
					<path class="st65" d="M2048.96,1224.58c-39.39,14.44-147.73,38.74-172.02,49.24c-24.29,10.51-1.31,94.55-87.98,195.66       c-86.67,101.11-170.98,86.07-170.98,86.07c1.6,0.31,3.22,0.6,4.85,0.89c13.17,1.96,27.04,1.88,41.38,2.33       c-13.11,5.81-27.27,9.27-42.11,9.65c-7.42-0.05-15.03-0.62-22.53-2.9c-7.46-2.25-14.81-5.99-20.94-11.45       c-6.11-5.46-10.75-12.49-13.54-19.91c-0.9-2.38-1.58-4.8-2.17-7.23l-0.04-0.02c-18.6,58.75,59.96,80.44,19.91,90.95       c-40.05,10.5-286.92,36.77-286.92,36.77c2.32,3.68,5.14,6.99,8.25,10.09c34.14,14.1,174.25,58.8,378.8-50.95       c109.64-58.83,164.57-128.67,191.97-186.53c-1.4-2.49-1.35-5.66,0.42-8.15c1.15-1.61,2.81-2.61,4.59-3.01       c25.68-60.32,21.7-105.12,21.61-106.01c-0.41-3.89,2.19-7.47,6.02-8.28c46.67-9.8,172.97-44.3,196.69-85.6       c3.8-6.62,4.62-12.93,2.5-19.31c-3.29-9.9-6.4-18.4-9.35-25.77C2097.37,1171.16,2088.35,1210.14,2048.96,1224.58z"/>
				</g>
				<g class="st4">
					<path class="st65" d="M1588.81,1542.72c4.32,3.9,9.58,6.83,15.34,9.08c4.33,1.73,9.01,2.83,13.83,3.76l-33.51-17.42       C1585.81,1539.78,1587.23,1541.33,1588.81,1542.72z"/>
				</g>
				<g class="st4">
					<path class="st65" d="M2109.53,1155.64c-0.62,0.29-1.15,0.64-1.61,1.05c3.42,7.8,6.76,16.51,10.13,26.18       c42.14-27.94,57.1-60.94,61.67-82.91c-2.6,2.89-8.29,9.4-18.49,21.95C2146.22,1140.38,2109.53,1155.64,2109.53,1155.64z"/>
				</g>
				<g class="st4">
					<path class="st65" d="M1916.66,1132.43c-4.27,35.22,9.52,52.11,10.07,52.76c0,0,4.41-4.5,7.79-8.47       c14.04-81.36,18.17-156.25,9.04-164.16c-0.01,0-0.01,0-0.01,0c-0.13-0.04-0.24-0.11-0.36-0.16c-6.68-1.69-15.5-2.35-24.65-2.45       c0.67,3.64,1.65,9.28,2.75,16.67C1923.29,1040.09,1920.93,1097.21,1916.66,1132.43z"/>
				</g>
				<g class="st4">
					<path class="st65" d="M1955.07,917.31c-5.39,1.8-25.26,54.64-33.65,77.55c6.71,0.18,13.3,0.65,19.21,1.6       c9.39-30.64,15.61-60.73,16.89-79.18C1956.78,917.03,1955.96,917.01,1955.07,917.31z"/>
				</g>
				<g class="st13">
					<path class="st1" d="M506.05,1763.26c5,4.32,10.24,9.01,15.73,13.99c11.05-8.68,40.1-31.02,44.47-29.7       c5.42,1.64,11.98,49.74,11.98,49.74s2.01-3.44,4.26-8.03c-0.19-33.87-2.29-62.27-6.73-68.43       C568.18,1719.78,536.96,1738.91,506.05,1763.26z"/>
				</g>
				<g class="st13">
					<path class="st1" d="M647.2,1877.73c5.43,2.69,11.11,5.28,16.91,7.81c0.34-0.38,39.26-44.1,52.33-44.75       c7.92-0.4,19.26,17.93,27.01,31.9c-2.1-25.36-7.67-48.91-19.02-55.51C708.69,1808.06,671.65,1845.13,647.2,1877.73z"/>
				</g>
				<g class="st13">
					<path class="st1" d="M825.26,1933.11c8.07,1.66,15.91,3.19,23.52,4.63c9.26-12.58,43.45-58.59,48.56-58.87       c3.47-0.19,18.92,10.88,31.11,20.07c-9.91-26.52-20.87-48.22-28.18-50.54c-0.1-0.01-0.2-0.01-0.31-0.01       C890.41,1848.37,856.76,1886.66,825.26,1933.11z"/>
				</g>
				<g class="st13">
					<path class="st1" d="M463.99,1776.29c10.51,2.44,47.93,83.08,177.93,147.16c112.91,55.65,246.56,82.27,279.77,88.31       c3.55-15.45,7.39-30.52,11.42-45.12c-46.55-5.78-255.55-35.08-339.39-104.55c-3.16-2.62-6.2-5.26-9.3-7.89       c-0.41-0.29-0.8-0.61-1.14-0.97c-19.07-16.28-36.92-32.66-52.88-47.38c-33.7-31.07-68.56-63.25-81.27-58.75       c-3.83,1.34-6.83,7.86-8.45,18.35c-1.38,8.99-0.99,24.22,1.58,44.36C442.25,1809.82,453.48,1773.85,463.99,1776.29z"/>
				</g>
				<g class="st13">
					<path class="st1" d="M1354.47,2354.22c48.86,0,88.47-13.89,88.47-31.02c0-17.13-39.61-31.02-88.47-31.02       c-48.86,0-88.47,13.89-88.47,31.02C1266,2340.33,1305.61,2354.22,1354.47,2354.22z"/>
				</g>
				<g class="st13">
					<path class="st1" d="M1319.67,2051.87c3.94,11.82,120.65,70.91,169.4,154.62c33.16,56.95,52.64,84.48,61.72,96.28       c-49.37-198.1-193.98-245.77-195.47-246.24c-2.57-0.81-4.4-2.86-5.07-5.28C1340.05,2049.01,1316.39,2042.03,1319.67,2051.87z"/>
				</g>
				<g class="st13">
					<path class="st1" d="M2032.22,1798.76c15.76,138.87-39.39,271.11-22.65,269c12.9-1.62,73.19-74.15,81.95-179.16       c-4.45-36.05-10.6-73.64-18.52-112.95c-24.49-121.46-74.55-208.67-117.94-265.16c-4.67-3.21-8.88-4.71-12.46-4.23       C1942.6,1506.26,2016.47,1659.89,2032.22,1798.76z"/>
				</g>
				<g class="st13">
					<path class="st1" d="M1977.1,1829.84c-13.04-2.96-27.89,13.48-33.16,36.71c-5.27,23.23,1.02,44.47,14.06,47.43       c13.04,2.96,27.89-13.48,33.16-36.71C1996.43,1854.04,1990.14,1832.8,1977.1,1829.84z"/>
				</g>
				<g class="st13">
					<path class="st1" d="M1277.49,1495.09c240.96-79.45,492.43-240.96,537.08-279.05c38.92-33.2,72.37-171.11,79.65-205.3       c-7.61,0.52-14.13,1.18-18.08,1.62l-87.49,185.39c-0.59,1.24-1.5,2.3-2.64,3.07c-4.39,2.96-437.56,292.45-796.88,329.29       l-12.67,7.66C976.45,1537.77,1036.52,1574.54,1277.49,1495.09z"/>
				</g>
				<g class="st13">
					<path class="st1" d="M2010.23,1171.14c27.01-9.15,60.75-27.35,69.9-32.92c-9.7-12.27-18.01-11.6-26.89-8.78       c-18.57,5.86-72.8,36.08-96.34,49.44c-6.35,7.4-13.64,15.62-13.64,15.62S1979.04,1181.7,2010.23,1171.14z"/>
				</g>
				<g class="st13">
					<path class="st1" d="M1165.54,2674.73c0,0,167.29-44.6,245.08,4.41c7.75-5.79,18.37-10.48,32.87-11.7       c-15.12-10.92-32.07-20.9-50.97-29.22c-9.16-2.12-123.19-26.83-231.4,31.47C1160.83,2671.47,1161.97,2673.21,1165.54,2674.73z"/>
				</g>
				<g class="st13">
					<path class="st1" d="M2124,2369.65c1.52,56.8-8.12,113.28-15.62,147.85c12.27-26.92,24.47-60.21,34.96-101.16       c30.13-117.59-10.61-255.08-32.19-314.97c-3.05,29.04-7.89,56.64-14.32,83.02l-0.06,0.73       C2096.77,2185.12,2121.55,2278.39,2124,2369.65z"/>
				</g>
				<g>
					<g>
						<path class="st65" d="M1420.39,2631.96c-7.73,0-14.36-5.85-15.17-13.72c-0.86-8.38,5.24-15.88,13.63-16.74        c3.56-0.37,358.24-38.32,524.46-194.39c142.96-134.23,181.79-334.4,122.2-629.96c-47.35-234.83-191.39-340.16-192.84-341.2        c-6.85-4.9-8.45-14.43-3.56-21.28c4.89-6.86,14.4-8.48,21.26-3.59c6.31,4.49,155.2,112.71,205.06,360.04        c61.88,306.92,20.18,516.08-131.23,658.25c-173.79,163.17-527.29,200.98-542.25,202.5        C1421.43,2631.93,1420.91,2631.96,1420.39,2631.96z"/>
					</g>
					<g>
						<path class="st65" d="M997.37,2575.63c-2.43,0-4.9-0.59-7.2-1.81c-262.19-140.53-403.3-336.97-475.51-477.02        c-80.62-156.37-102.71-295.23-96.62-334.83c1.14-7.39,4.59-29.86,23.52-36.48c25.73-9,55.32,18.3,104.36,63.53        c18.65,17.2,39.79,36.7,62.41,55.44c87.33,72.35,333.76,100.21,336.24,100.48c8.38,0.92,14.42,8.47,13.5,16.85        c-0.92,8.38-8.51,14.38-16.84,13.51c-10.49-1.16-258.02-29.14-352.38-107.32c-23.24-19.25-44.69-39.04-63.63-56.5        c-26.21-24.17-61.94-57.12-73.24-57.12c-0.01,0-0.03,0-0.05,0c-0.69,0.96-2.46,4.09-3.72,12.27        c-4.09,26.59,11.01,156.05,93.58,316.2c70.22,136.2,207.52,327.28,462.8,464.09c7.43,3.98,10.22,13.24,6.24,20.67        C1008.09,2572.71,1002.81,2575.63,997.37,2575.63z"/>
					</g>
					<g>
						<path class="st65" d="M943.98,2402.81c-1.76,0-3.54-0.3-5.29-0.95c-170.21-62.89-296.06-191.32-371.67-287.98        c-81.68-104.43-122.81-192.86-124.52-196.57c-3.53-7.66-0.18-16.72,7.47-20.25c7.66-3.52,16.72-0.19,20.25,7.47        c1.62,3.52,165.91,352.99,479.04,468.69c7.91,2.92,11.95,11.7,9.03,19.61C956.02,2398.99,950.19,2402.81,943.98,2402.81z"/>
					</g>
					<g>
						<path class="st65" d="M1236.29,2866.57c-69.79,0-141.98-5.96-146.54-6.35c-4.45-0.37-8.52-2.68-11.12-6.3        c-4-5.57-98.37-137.19-127.54-200.83c-26.05-56.84,28.8-101.66,59.7-121.43c-32.81-33.58-103.07-126.52-115.56-315.3        c-9.25-139.98,33.11-266.38,64.04-358.68c18.63-55.6,36.23-108.11,25.63-122.37c-98.88-137.48-25.75-218.42-22.59-221.8        c2.59-2.76,6.11-4.47,9.88-4.79c339.39-28.17,755.39-296.83,797.56-324.59l87.48-185.36c2.22-4.69,6.67-7.94,11.81-8.62        c5.41-0.72,53.65-6.76,80.73,0.37c9.88,2.6,35.1,9.25,12.37,159.11c27.44-15.29,67.13-36.64,84.2-42.03        c45.79-14.49,64.97,30.57,82.11,82.08c4.18,12.56,2.67,25.68-4.37,37.94c-29.04,50.56-156.26,83.84-199.26,93.81        c-0.29,46.42-18.47,198.44-231.07,312.52c-246.71,132.38-402.17,50.77-408.67,47.23c-7.4-4.03-10.14-13.31-6.1-20.71        c4.03-7.39,13.27-10.14,20.66-6.13l0,0c1.46,0.78,148.5,76.74,379.67-47.3c229.41-123.1,215.32-289.16,214.61-296.17        c-0.79-7.77,4.4-14.93,12.04-16.54c63.58-13.37,171.82-47.43,191.63-81.93c3.5-6.09,2.84-10.2,1.88-13.09        c-23.03-69.21-34.62-65.54-43.95-62.6c-19.15,6.05-82.97,41.85-105.95,55.13c-5.13,2.96-11.52,2.69-16.37-0.7        c-4.86-3.39-7.32-9.28-6.31-15.12c10.97-63.34,17.86-138.94,11.58-156.75c-15.74-2.94-41.78-1.33-57.28,0.22l-85.66,181.52        c-1.17,2.49-3,4.61-5.27,6.14c-18.15,12.23-446.19,298.28-808.95,331.42c-11.42,16.21-44.23,77.99,28.22,178.72        c19.96,26.88,3.54,75.89-21.33,150.09c-30.12,89.89-71.38,213-62.52,346.97c15.11,228.58,118.81,307.02,119.85,307.79        c4.31,3.15,6.66,8.33,6.19,13.66c-0.47,5.32-3.69,10.01-8.49,12.36c-0.85,0.42-86.75,43.46-64.41,92.21        c24.62,53.72,101.78,163.64,120.48,189.99c30.32,2.28,151.28,10.5,216.42,1.69v-2.13c0-4.25,1.77-8.32,4.9-11.21        c3.12-2.89,7.31-4.32,11.55-4.01c0.85,0.07,71.59,5.53,121.61,7.29l-0.3-0.56c-2.52-4.66-2.45-10.29,0.19-14.88        c2.64-4.59,7.47-7.49,12.76-7.65l72.54-2.27c-16.61-35.86-61.07-112.73-150.08-151.68c-5.5-2.4-9.07-7.8-9.15-13.8        c-0.07-6,3.38-11.48,8.81-14.02c0.5-0.23,52.01-24.72,96.94-74.19c59.05-65.02,79.59-140.78,61.05-225.17        c-44.97-204.69-187.49-252.05-193.53-253.96c-8.02-2.54-12.49-11.1-9.97-19.13c2.52-8.03,11.04-12.51,19.07-10.01        c6.73,2.09,165.3,53.78,214.25,276.55c20.58,93.65-3.29,181.16-69.01,253.06c-28.47,31.15-58.78,52.9-79.66,65.88        c110.09,61.48,146.68,171.35,148.29,176.35c1.47,4.57,0.72,9.56-2.05,13.48c-2.76,3.93-7.21,6.32-12,6.47l-69.82,2.18        l1.02,1.88c2.56,4.73,2.45,10.46-0.31,15.08c-2.75,4.62-7.73,7.45-13.12,7.45c-36.31,0-102.7-4.47-133.51-6.7        c-0.59,6.71-5.55,12.32-12.27,13.64C1308.79,2864.93,1272.86,2866.57,1236.29,2866.57z"/>
					</g>
					<g>
						<path class="st65" d="M1945.89,1020.56c-1.55,0-3.12-0.24-4.67-0.73c-8.03-2.58-12.45-11.17-9.88-19.2        c10.67-33.31,18.07-68.33,18.75-86.28c-13.01,15.82-34.2,53.78-51.96,94.17c-3.4,7.72-12.41,11.23-20.12,7.83        c-7.72-3.39-11.23-12.4-7.83-20.12c56.61-128.79,82.17-121.32,91.78-118.53c4.22,1.23,10.08,4.28,14.09,11.82        c12.94,24.35-6.63,92.33-15.64,120.43C1958.34,1016.43,1952.34,1020.56,1945.89,1020.56z"/>
					</g>
					<g>
						<path class="st65" d="M2113.98,1209.77c-5.19,0-10.25-2.65-13.11-7.43c-4.33-7.23-1.98-16.61,5.26-20.94        c49.25-29.48,63.66-66.64,66.94-87.55c-19.25,9.33-53.46,29.63-82.24,48.25c-7.08,4.58-16.53,2.55-21.11-4.52        c-4.58-7.08-2.55-16.53,4.52-21.11c99.27-64.23,111.6-59.54,118.21-57.04c5.16,1.96,8.96,6.1,10.42,11.36        c4.17,15.02,2.86,86.57-81.06,136.8C2119.35,1209.06,2116.65,1209.77,2113.98,1209.77z"/>
					</g>
					<g>
						<path class="st65" d="M1571.63,1469.49c5.85,39.76,7.52,72.15,51.57,80.97c12.32,3.06,26.06,4.77,41.01,8.32        c-32.82,24.71-90.73,22.28-105.78-21.81C1550.57,1513.76,1556.53,1487.58,1571.63,1469.49L1571.63,1469.49z"/>
					</g>
					<g>
						<path class="st65" d="M1455.55,2128.74c-2.54,0-5.11-0.63-7.48-1.97c-7.35-4.14-9.95-13.45-5.81-20.8        c89.63-159.07,12.77-407.48,11.98-409.97c-2.54-8.04,1.92-16.62,9.95-19.16c8.02-2.57,16.61,1.9,19.16,9.94        c3.38,10.68,81.7,263.46-14.49,434.17C1466.06,2125.94,1460.89,2128.74,1455.55,2128.74z"/>
					</g>
					<g>
						<path class="st65" d="M588.77,1863.21c-0.27,0-0.53,0-0.8-0.02c-8.42-0.43-14.89-7.62-14.45-16.04        c2.34-45.13,1.71-98.65-2.58-117.22c-13.02,5.13-41.63,24.1-67.23,44.98c-6.53,5.33-16.15,4.35-21.48-2.18        s-4.35-16.15,2.18-21.47c77.38-63.13,95.89-53.9,101.98-50.84c8.01,4,24.69,12.34,17.62,148.32        C603.58,1856.88,596.84,1863.21,588.77,1863.21z M569.16,1724.73L569.16,1724.73        C569.16,1724.73,569.16,1724.73,569.16,1724.73z"/>
					</g>
					<g>
						<path class="st65" d="M751.22,1938.71c-0.41,0-0.81-0.01-1.23-0.05c-8.4-0.67-14.67-8.02-14.01-16.43        c3.27-41.34-2.13-90.76-15.39-98.46c-8.31-4.85-43.33,24.44-72.36,65.48c-4.87,6.88-14.4,8.52-21.28,3.64        c-6.88-4.87-8.52-14.39-3.65-21.28c16.43-23.21,73.1-97.19,112.62-74.25c36.98,21.47,31.89,109.8,30.49,127.29        C765.78,1932.65,759.1,1938.71,751.22,1938.71z"/>
					</g>
					<g>
						<path class="st65" d="M949.25,1953.6c-6.69,0-12.83-4.43-14.7-11.19c-10.64-38.41-26.46-76.29-35.39-85.47        c-12.95,7.22-45.39,46.5-73.79,89.77c-4.62,7.05-14.08,9.01-21.14,4.39c-7.05-4.63-9.01-14.09-4.39-21.14        c74.68-113.81,99.28-105.96,107.38-103.39c25.71,8.18,46.59,70.98,56.76,107.69c2.25,8.12-2.51,16.53-10.64,18.78        C951.97,1953.42,950.6,1953.6,949.25,1953.6z M897.28,1855.37C897.28,1855.37,897.28,1855.37,897.28,1855.37        C897.27,1855.37,897.28,1855.38,897.28,1855.37z"/>
					</g>
					<g>
						<path class="st65" d="M1147.83,2683.66c-5.24,0-10.34-2.7-13.18-7.54c-4.27-7.27-1.83-16.63,5.44-20.89        c123.16-72.27,253.21-40.45,258.68-39.06c8.17,2.08,13.12,10.38,11.04,18.55s-10.36,13.12-18.54,11.04        c-1.25-0.3-123.69-29.95-235.74,35.79C1153.11,2682.99,1150.45,2683.66,1147.83,2683.66z"/>
					</g>
					<g>
						<path class="st65" d="M1178.23,2865.36c-1.44,0-2.91-0.21-4.37-0.65c-19.31-5.8-54.84-32.47-51.13-91.89        c2.01-32.23,24.48-58.42,58.64-68.36c34.32-9.98,81.26-3.12,108.79,34.73c0.16,0.21,0.31,0.43,0.45,0.65l53.18,81.74        c4.6,7.07,2.6,16.52-4.47,21.12c-7.07,4.59-16.53,2.59-21.12-4.47l-52.95-81.39c-18.75-25.46-52.16-29.82-75.34-23.07        c-10.46,3.04-34.96,13.12-36.7,40.95c-3.04,48.55,26.28,59.7,29.64,60.81c7.92,2.63,12.38,11.16,9.86,19.12        C1190.65,2861.16,1184.7,2865.36,1178.23,2865.36z"/>
					</g>
					<g>
						<path class="st65" d="M1466.92,2829.42c-6.12,0-11.89-3.7-14.24-9.74c-10.98-28.24-48.58-103.36-90.21-111.69        c-45.1-9.01-64.67,52.13-64.86,52.74c-2.5,8.05-11.06,12.53-19.11,10.04c-8.05-2.5-12.54-11.06-10.04-19.11        c9.48-30.48,42.57-85.09,100-73.61c65.42,13.08,108.04,118.6,112.68,130.6c3.04,7.86-0.86,16.69-8.71,19.74        C1470.62,2829.09,1468.75,2829.42,1466.92,2829.42z"/>
					</g>
					<g>
						<path class="st65" d="M1398.28,2725.09c-0.99,0-2-0.1-3.01-0.3c-8.27-1.65-13.63-9.69-11.98-17.96        c3.95-19.8,26.98-54.85,85.92-45.91c8.33,1.27,14.06,9.05,12.8,17.39c-1.27,8.33-9.06,14.04-17.39,12.8        c-45.14-6.86-51.15,20.53-51.38,21.7C1411.78,2720.07,1405.41,2725.09,1398.28,2725.09z"/>
					</g>
					<g>
						<path class="st65" d="M1795.01,2821.77c-68.92,0-107.53-5.53-124.91-17.3c-22.07-14.95-42.63-40.99-43.5-42.08        c-2.05-2.61-3.19-5.82-3.26-9.13c-0.07-3.84-1.22-83.7,30.59-130.63l-59.46-24.85c-7.78-3.25-11.45-12.19-8.2-19.98        c3.25-7.78,12.19-11.44,19.97-8.2l78.96,33c4.9,2.05,8.38,6.49,9.2,11.74c0.82,5.24-1.15,10.54-5.2,13.97        c-28.54,24.26-35.06,89.86-35.35,119.14c6.08,7.19,19.8,22.54,33.37,31.74c16.03,10.86,76.35,14.4,179.3,10.51        c81.76-3.09,201.36-5.39,248.61-6.23c-0.14-3.36,0.84-6.73,2.85-9.53c2.87-3.99,7.49-6.36,12.4-6.36h70.19        c-56.65-87.88-160.65-129.5-161.78-129.95c-5.23-2.05-8.91-6.81-9.58-12.38c-0.67-5.58,1.77-11.07,6.36-14.31        c0.53-0.39,61.92-46.4,100.37-196.5c38.94-151.99-42.84-338.61-43.67-340.48c-3.43-7.71,0.04-16.73,7.74-20.16        c7.7-3.41,16.72,0.04,20.15,7.74c3.57,8.02,86.89,198.3,45.35,360.47c-28.91,112.86-70.49,171.15-94.15,196.9        c39.98,19.79,125.39,70.2,169.15,157.05c2.39,4.73,2.14,10.36-0.63,14.87s-7.7,7.26-13,7.26h-76c0.06,3.21-0.9,6.4-2.79,9.09        c-2.81,3.98-7.36,6.38-12.23,6.46c-1.64,0.02-165.18,2.67-268.21,6.56C1840.39,2821.25,1816.26,2821.77,1795.01,2821.77z"/>
					</g>
					<g>
						<path class="st65" d="M1901.22,2683.66c-7.8,0-14.46-5.95-15.19-13.88c-0.77-8.39,5.42-15.83,13.81-16.59        c88.02-8.06,135.06-41.76,135.52-42.09c6.81-4.98,16.36-3.48,21.33,3.33c4.97,6.81,3.48,16.36-3.33,21.33        c-2.18,1.59-54.42,39.02-150.74,47.84C1902.15,2683.64,1901.68,2683.66,1901.22,2683.66z"/>
					</g>
					<g>
						<path class="st65" d="M1961.37,2817.32c-8.11,0-14.87-6.38-15.24-14.57c-0.34-7.54-2.43-74.49,29.4-104.11        c17.99-16.74,49.24-8.93,101.35,25.31c33.05,21.72,62.13,46.2,63.35,47.23c6.44,5.44,7.25,15.07,1.81,21.51        c-5.44,6.44-15.07,7.25-21.51,1.82c-52.77-44.55-112.1-79.53-124.41-73.36c-17.99,16.78-20.16,64.76-19.49,80.23        c0.37,8.42-6.15,15.55-14.57,15.92C1961.83,2817.31,1961.6,2817.32,1961.37,2817.32z"/>
					</g>
					<g>
						<path class="st65" d="M2066.36,2750.6c-6.36,0-12.3-4.01-14.46-10.38c-0.43-1.28-10.4-31.61,6.6-56.93        c12.13-18.07,33.84-28.21,64.54-30.13c8.49-0.5,15.66,5.87,16.19,14.28c0.53,8.42-5.86,15.66-14.28,16.19        c-20.72,1.3-34.54,6.91-41.1,16.67c-8.41,12.54-3.09,29.97-3.03,30.14c2.7,7.99-1.58,16.65-9.57,19.36        C2069.63,2750.34,2067.99,2750.6,2066.36,2750.6z"/>
					</g>
				</g>
			</g>
			<g>
				<g>
					<path class="st1" d="M514.52,1323.18c0.02,0.01,0.03,0.02,0.05,0.02c0.04,0.01,0.08,0.01,0.11,0.02l15.73,4.9       c-9.8-24.7-28.03-74.25-31.89-110c-30,19.98-47.47,39.37-53.65,46.88C484.51,1313.67,514.1,1323.06,514.52,1323.18z"/>
				</g>
				<g>
					<path class="st1" d="M1487.39,902.99c-20.07,39.8-44.19,78.69-72.66,110.88l80.89,45.04       C1496.2,1030.93,1496.53,961.08,1487.39,902.99z"/>
				</g>
				<g>
					<path class="st1" d="M1359.48,1062.91c-29.88,20.4-65.29,37.54-104.49,51.75c18.19,15.18,58.2,47.39,90.66,65.34       C1350.59,1160.42,1361.19,1111.84,1359.48,1062.91z"/>
				</g>
				<g>
					<path class="st1" d="M1093.17,1249.81c9.41-17.44,32.69-63.58,38.16-101.8c-35.8,6.93-72.91,12.18-110.52,15.83       C1032.16,1183,1059.78,1225.77,1093.17,1249.81z"/>
				</g>
				<g>
					<path class="st65" d="M435.56,813.95c-2.67-2.85-7.75-7.27-13.5-7.27c-0.7,0-1.41,0.06-2.13,0.21       c-9.87,1.95-17.8,19.67-13.4,41.99c4.4,22.32,18.45,35.67,28.34,33.75c6.6-1.3,10.21-8.37,11.77-12.47       c3.12-8.18,3.71-18.95,1.62-29.52S441.56,820.34,435.56,813.95z"/>
				</g>
				<g>
					<path class="st70" d="M745.93,1148.8c208.91,20.15,480.32-4.88,615.82-106.19c117.93-88.16,177.4-313.79,188.77-361.04       c-37.54,0.06-64.1,18.56-65.82,19.78c-3.42,2.45-8.19,1.67-10.65-1.74c-2.45-3.42-1.69-8.17,1.72-10.64       c0.51-0.37,35.44-24.92,83.21-22.11c0.86-0.12,1.74-0.13,2.63,0.06c0.16,0.03,0.3,0.1,0.46,0.15       c21.92,1.82,46.38,9.48,71.4,27.84c3.4,2.49,4.13,7.27,1.63,10.67c-1.5,2.04-3.81,3.12-6.16,3.12c-1.57,0-3.15-0.48-4.51-1.48       c-20.49-15.05-40.38-22.17-58.44-24.62c-5.67,24.54-27.08,110.24-67.36,197.14c16.46,77.88,12.08,187.61,11.88,192.3       c-0.11,2.64-1.59,5.04-3.9,6.34c-1.16,0.65-2.44,0.97-3.73,0.97c-1.28,0-2.56-0.32-3.71-0.96l-95.12-52.96       c-9.48,9.78-19.42,18.79-29.82,26.85c4.82,68.88-15.46,138.15-16.35,141.12c-0.64,2.16-2.2,3.92-4.26,4.82       c-0.97,0.43-2.02,0.64-3.06,0.64c-1.16,0-2.31-0.26-3.37-0.79c-40.6-20-95.39-65.93-108.97-77.54       c-28.77,9.57-59.31,17.69-91.08,24.37c-5.45,51.88-43.07,116.94-44.73,119.78c-1.04,1.78-2.76,3.07-4.77,3.56       c-0.6,0.15-1.21,0.22-1.82,0.22c-1.42,0-2.83-0.4-4.05-1.16c-44.1-27.64-78.7-85.78-87.74-101.92       c-32.09,2.71-64.4,4.3-96.44,4.85c-7.69,49.92-49.45,125.75-51.3,129.09c-1.12,2.03-3.11,3.43-5.39,3.83       c-0.43,0.07-0.86,0.11-1.29,0.11c-1.85,0-3.66-0.68-5.06-1.92c-24.35-21.58-69.03-99.67-85.84-129.07       c-1.61-2.81-3.11-5.43-4.22-7.35c-3.33-0.3-6.7-0.57-10-0.89c-22.69-2.19-43.9-2.63-63.84-1.82       c-4.64,53.55-24.4,122.03-25.27,125.05c-0.66,2.25-2.31,4.08-4.49,4.95c-0.91,0.37-1.88,0.55-2.84,0.55       c-1.33,0-2.65-0.35-3.83-1.03c-45.84-26.6-79.45-83.6-89.94-103.01c-15.37,6.3-29.07,13.23-41.14,20.33       c1.72,44.51,37.16,127.35,37.53,128.22c1.18,2.74,0.66,5.91-1.34,8.12c-1.47,1.63-3.54,2.52-5.67,2.52       c-0.76,0-1.52-0.11-2.27-0.34l-19.56-6.09c2.43,11.39,8.18,31.52,21.84,60.55c18.83,40.01,133.07,125.52,342.78,125.54       c56.8,0.01,120.56-6.27,191.38-21.41c256.72-54.91,730.15-227.11,876.13-524.23c61.6-125.39,58.19-261.29-10.14-403.91       c-138.13-288.34-264.45-407.94-346.08-457.51c-87.59-53.17-143.45-38.89-144-38.74c-2.78,0.77-5.75-0.1-7.68-2.22       c-0.51-0.55-53.08-56.6-150.63-56.6c-97.21,0-179.4,115.1-180.22,116.26c-1.58,2.25-4.19,3.48-6.98,3.21       c-145.36-14.03-272.5,59.94-273.77,60.69c-1.94,1.15-4.29,1.37-6.41,0.64c-14.98-5.24-35.13-9.27-57.15-9.27       c-50.13,0-109.98,20.84-140.75,95.58c-38.69,93.97-20.01,212.43-14.24,242.77c23.84-4.96,101.06-19.92,193.12-26.44       c106.33-7.53,164.3-81,164.87-81.74c2.57-3.33,7.36-3.95,10.7-1.38c3.34,2.57,3.96,7.36,1.39,10.69       c-2.49,3.25-62.48,79.63-175.89,87.66c-106.19,7.52-192.41,26.4-198.13,27.67c-170.72,51.95-253.21,138.89-284.72,300.06       c-33.18,169.76,59.79,323.92,60.73,325.46c0.11,0.18,0.22,0.37,0.32,0.56c16.15,32.15,32.1,57.46,46.93,77.35       C457.87,1225.64,552.6,1130.15,745.93,1148.8z M900.86,686.75c21.12-4.23,43.2,19.85,50.08,54.72c0,0,0,0,0,0       c6.88,34.86-4.34,65.45-25.55,69.64c-1.64,0.32-3.29,0.49-4.95,0.49c-9.36,0-18.77-5.14-26.96-14.84       c-8.59-10.17-15.04-24.51-18.17-40.37C868.44,721.52,879.65,690.93,900.86,686.75z M432.74,898.11       c-18.34,0-35.82-19.14-41.18-46.27c-5.84-29.64,5.32-55.96,25.42-59.92c10.24-2.02,20.8,2.1,29.71,11.6       c8.02,8.54,13.89,20.68,16.56,34.18c2.66,13.5,1.84,26.96-2.33,37.91c-4.64,12.17-12.84,19.99-23.09,22.01       C436.14,897.94,434.44,898.11,432.74,898.11z"/>
				</g>
				<g>
					<path class="st65" d="M905.14,786.91c5.81,6.88,12.1,10.22,17.29,9.22c10.8-2.13,19.01-23.89,13.52-51.71v0.01       c-5.18-26.25-19.6-42.88-30.28-42.88c-0.64,0-1.26,0.06-1.87,0.18c-10.8,2.13-19,23.89-13.52,51.71       C892.92,766.79,898.2,778.68,905.14,786.91z"/>
				</g>
				<g>
					<path class="st1" d="M643.42,1273.11c5.57-20.68,18.02-69.97,21.8-110.05c-37.07,2.87-69.21,10.3-96.56,20.06       C578.78,1201.4,606.78,1247.69,643.42,1273.11z"/>
				</g>
				<g>
					<path class="st1" d="M892.07,1170.4c-40.71,0.28-80.77-1.13-119.14-4.01c14.26,24.93,51.53,89.76,74.84,116.41       C858.85,1261.56,885.53,1207.77,892.07,1170.4z"/>
				</g>
				<g>
					<path class="st5" d="M1973.76,652.52c9.2,29.67,15.72,58.13,19.86,85.57C1989.75,709.9,1983.12,681.37,1973.76,652.52z"/>
				</g>
				<g>
					<path class="st5" d="M435.56,813.95c-2.67-2.85-7.75-7.27-13.5-7.27c-0.7,0-1.41,0.06-2.13,0.21       c-9.87,1.95-17.8,19.67-13.4,41.99c4.4,22.32,18.45,35.67,28.34,33.75c6.6-1.3,10.21-8.37,11.77-12.47       c3.12-8.18,3.71-18.95,1.62-29.52S441.56,820.34,435.56,813.95z"/>
				</g>
				<g>
					<path class="st5" d="M514.52,1323.18c0.02,0.01,0.03,0.02,0.05,0.02c0.04,0.01,0.08,0.01,0.11,0.02l15.73,4.9       c-9.8-24.7-28.03-74.25-31.89-110c-30,19.98-47.47,39.37-53.65,46.88C484.51,1313.67,514.1,1323.06,514.52,1323.18z"/>
				</g>
				<g>
					<path class="st5" d="M1575.03,684.24l25.63,8.76C1591.87,688.86,1583.29,686.04,1575.03,684.24z"/>
				</g>
				<g>
					<path class="st5" d="M1162.13,86.97c-13.54,12.58-24.65,24.76-32.67,34.2C1139.24,112.54,1150.05,100.39,1162.13,86.97z"/>
				</g>
				<g>
					<path class="st5" d="M643.42,1273.11c5.57-20.68,18.02-69.97,21.8-110.05c-37.07,2.87-69.21,10.3-96.56,20.06       C578.78,1201.4,606.78,1247.69,643.42,1273.11z"/>
				</g>
				<g>
					<path class="st5" d="M809.01,506.32c106.33-7.53,164.3-81,164.87-81.74c2.57-3.33,7.36-3.95,10.7-1.38       c2.32,1.79,3.29,4.63,2.83,7.32c0,0.04-2.59,79.2-102.36,104.8c-85.42,21.92-157.89,15.5-273.31,52.28       c6.13,20.51-19.46,51.71-59.7,71.67c-38.59,19.13-77.21,21.26-91.46,6.16c-88.87,76.37-131.84,184.13-134.66,191.38       c-1.7,9.75-3.01,19.44-3.93,29.05c6.66,42.96,34.45,164.41,136.94,177.06c124.75,15.39,183.84-114.24,249.5-96.04       s120.81,91.74,355.86,39.21c231.38-51.7,386.71-135.46,429.53-310.2c-5.34,2.83-8.57,5.06-9.13,5.46       c-3.42,2.45-8.19,1.67-10.65-1.74c-2.45-3.42-1.69-8.17,1.72-10.64c0.51-0.37,35.44-24.92,83.21-22.11       c0.86-0.12,1.74-0.13,2.63,0.06c0.16,0.03,0.3,0.1,0.46,0.15c21.92,1.82,46.38,9.48,71.4,27.84c3.4,2.49,4.13,7.27,1.63,10.67       c-1.5,2.04-3.81,3.12-6.16,3.12c-1.57,0-3.15-0.48-4.51-1.48c-7.97-5.85-15.84-10.47-23.55-14.12       c-0.11,0.45-36.36,151.58-92.74,224.35l-3.41-0.81c9.13,71.66,5.95,151.4,5.78,155.39c-0.11,2.64-1.59,5.04-3.9,6.34       c-1.16,0.65-2.44,0.97-3.73,0.97c-1.28,0-2.56-0.32-3.71-0.96l-124.4-15.07c2.14,65.05-16.06,127.26-16.9,130.07       c-0.64,2.16-2.2,3.92-4.26,4.82c-0.97,0.43-2.02,0.64-3.06,0.64c-1.16,0-2.31-0.26-3.37-0.79       c-14.58-7.18-30.97-17.72-46.64-28.8l11.28,10.76l-124.09-44.65l-0.9,0.17c-13,3.36-26.21,6.51-39.7,9.34       c-5.45,51.88-43.07,116.94-44.73,119.78c-1.04,1.78-2.76,3.07-4.77,3.56c-0.6,0.15-1.21,0.22-1.82,0.22       c-1.42,0-2.83-0.4-4.05-1.16c-44.1-27.64-78.7-85.78-87.74-101.92c-18.34,1.55-36.75,2.69-55.15,3.52l-0.75,0.07       c0,0-68.16,82.8-68.81,84.21c-0.01,0.02,0.01-0.02,0.01-0.03c-11.47,25.17-22.13,44.52-23.04,46.17       c-1.12,2.03-3.11,3.43-5.39,3.83c-0.43,0.07-0.86,0.11-1.29,0.11c-1.85,0-3.66-0.68-5.06-1.92       c-24.35-21.58-69.03-99.67-85.84-129.07c-1.61-2.81-3.11-5.43-4.22-7.35c-3.33-0.3-6.7-0.57-10-0.89       c-3.18-0.31-6.27-0.5-9.4-0.74l-14.07-0.88c-1.15-0.05-2.29-0.11-3.43-0.15l-55.76,122.86c0,0,3.19-22.54,6.32-48.24       c-6.2,27.57-12.3,48.73-12.78,50.37c-0.66,2.25-2.31,4.08-4.49,4.95c-0.91,0.37-1.88,0.55-2.84,0.55       c-1.33,0-2.65-0.35-3.83-1.03c-45.84-26.6-79.45-83.6-89.94-103.01c-5.26,2.15-10.25,4.4-15.12,6.69       c-0.5,2.52-0.75,4.48-0.75,4.48l11.82,128.28l-29.04-74.71c10.97,40.52,29.23,83.19,29.49,83.81c1.18,2.74,0.66,5.91-1.34,8.12       c-1.47,1.63-3.54,2.52-5.67,2.52c-0.76,0-1.52-0.11-2.27-0.34l-19.56-6.09c2.43,11.39,8.18,31.52,21.84,60.55       c18.83,40.01,133.07,125.52,342.78,125.54c33.52,0,69.53-2.25,107.92-7.16c-94.51-2.61-301.22-18.92-397.52-109.18       c0,0,269.93,72.22,722.89-70.95c452.96-143.18,589.64-393.9,587.32-575.12c-2.3-180.19-141.88-484.46-143.45-487.88       c-21.28-27.21-41.71-50.55-61.12-70.59c-106.05-104.4-253.42-88.25-260.63-88.25c-7.22,0-28.89-37.42-122.12-62.37       c-93.23-24.95-186.47,122.78-186.47,122.78c-150.36-20.35-274.45,54.5-292.18,58.44c-17.73,3.94-31.52-19.04-118.84-5.25       c-87.32,13.79-108.33,177.93-108.33,177.93c-3.08-1.27-5.13-7.74-6.31-16.83c-4.6,63.16,4.57,119.99,8.32,139.69       C639.73,527.81,716.95,512.84,809.01,506.32z M460.92,875.6c-4.64,12.17-12.84,19.99-23.09,22.01c-1.7,0.33-3.4,0.5-5.09,0.5       c-18.34,0-35.82-19.14-41.18-46.27c-5.84-29.64,5.32-55.96,25.42-59.92c10.24-2.02,20.8,2.1,29.71,11.6       c8.02,8.54,13.89,20.68,16.56,34.18C465.92,851.19,465.09,864.66,460.92,875.6z M710.93,677.04       c-19.66,6.68-39.06,1.9-43.34-10.68s8.19-28.2,27.85-34.89c19.66-6.68,39.06-1.9,43.34,10.68       C743.05,654.74,730.59,670.36,710.93,677.04z M925.39,811.11c-1.64,0.32-3.29,0.49-4.95,0.49c-9.36,0-18.77-5.14-26.96-14.84       c-8.59-10.17-15.04-24.51-18.17-40.37c-6.88-34.86,4.34-65.45,25.54-69.64c21.12-4.23,43.2,19.85,50.08,54.72c0,0,0,0,0,0       C957.81,776.33,946.59,806.92,925.39,811.11z"/>
				</g>
				<g>
					<path class="st5" d="M1414.73,1013.87l80.89,45.04c0.56-26.41,0.86-90.14-6.79-146.06l-18.71,22.21       C1453.87,963.39,1435.47,990.42,1414.73,1013.87z"/>
				</g>
				<g>
					<path class="st5" d="M1093.17,1249.81c9.41-17.44,32.69-63.58,38.16-101.8c-35.8,6.93-72.91,12.18-110.52,15.83       C1032.16,1183,1059.78,1225.77,1093.17,1249.81z"/>
				</g>
				<g>
					<path class="st5" d="M847.77,1282.79c11.08-21.23,37.76-75.03,44.3-112.4c-40.71,0.28-80.77-1.13-119.14-4.01       C787.2,1191.31,824.47,1256.15,847.77,1282.79z"/>
				</g>
				<g>
					<path class="st5" d="M1255,1114.66c18.19,15.18,58.2,47.39,90.66,65.34c4.82-19.14,15.02-66.01,13.89-113.81l-8.73,2.38       C1322.83,1086.5,1290.49,1101.8,1255,1114.66z"/>
				</g>
				<g>
					<path class="st5" d="M935.96,744.43c-5.18-26.25-19.6-42.88-30.28-42.88c-0.64,0-1.26,0.06-1.87,0.18       c-10.8,2.13-19,23.89-13.52,51.71c2.63,13.36,7.91,25.25,14.85,33.47c5.81,6.88,12.1,10.22,17.29,9.22       C933.23,794,941.44,772.24,935.96,744.43L935.96,744.43z"/>
				</g>
				<g class="st4">
					<path class="st65" d="M717.58,1162.22c-12.77-0.5-25.11-0.53-36.95-0.05c-2.11,24.33-7.34,51.72-12.5,74.68       c-3.13,25.7-6.32,48.24-6.32,48.24L717.58,1162.22z"/>
				</g>
				<g class="st4">
					<path class="st65" d="M1470.11,935.06l18.71-22.21c-0.45-3.32-0.93-6.61-1.44-9.86       C1481.94,913.79,1476.16,924.51,1470.11,935.06z"/>
				</g>
				<g class="st4">
					<path class="st65" d="M948.11,1168.94l0.75-0.07c-13.79,0.62-27.57,1.09-41.29,1.33c-3.89,25.26-16.5,57.14-28.26,82.92       c0,0.01-0.02,0.05-0.01,0.03C879.95,1251.74,948.11,1168.94,948.11,1168.94z"/>
				</g>
				<g class="st4">
					<path class="st65" d="M538.38,1199.84c0,0,0.25-1.96,0.75-4.48c-9.36,4.39-18.08,8.97-26.02,13.64       c0.49,12.63,3.69,28.35,8.04,44.41l29.04,74.71L538.38,1199.84z"/>
				</g>
				<g class="st4">
					<path class="st65" d="M721.01,1162.37l14.07,0.88C730.32,1162.88,725.63,1162.59,721.01,1162.37z"/>
				</g>
				<g class="st4">
					<path class="st65" d="M1404.05,1025.4c-9.48,9.78-19.42,18.79-29.82,26.85c0.26,3.69,0.43,7.37,0.55,11.05l124.4,15.07       L1404.05,1025.4z"/>
				</g>
				<g class="st4">
					<path class="st65" d="M1350.82,1068.58l8.73-2.38c-0.03-1.1-0.03-2.19-0.06-3.28       C1356.66,1064.84,1353.74,1066.71,1350.82,1068.58z"/>
				</g>
				<g class="st4">
					<path class="st65" d="M1600.89,693.09c-0.08-0.03-0.15-0.06-0.22-0.1l-25.63-8.76c-3.05-0.67-6.07-1.25-9.03-1.65       c-5.67,24.54-27.08,110.24-67.36,197.14c2.48,11.73,4.48,24.2,6.1,36.91l3.41,0.81       C1564.52,844.67,1600.78,693.55,1600.89,693.09z"/>
				</g>
				<g class="st4">
					<path class="st65" d="M1311.83,1180.01l-11.28-10.76c-27.98-19.78-53.62-41.3-62.33-48.75c-16.56,5.51-33.76,10.48-51.39,15.02       l0.9-0.17L1311.83,1180.01z"/>
				</g>
				<g class="st4">
					<path class="st65" d="M1064.3,1006.08c-235.05,52.53-290.21-21.01-355.86-39.21s-124.75,111.44-249.5,96.04       c-102.49-12.65-130.28-134.09-136.94-177.06c-14.89,154.7,65.1,287.44,65.97,288.87c0.11,0.18,0.22,0.37,0.32,0.56       c16.15,32.15,32.1,57.46,46.93,77.35c22.66-27,117.39-122.49,310.72-103.84c208.91,20.15,480.32-4.88,615.82-106.19       c117.93-88.16,177.4-313.79,188.77-361.04c-25.33,0.04-45.62,8.46-56.69,14.32C1451.01,870.62,1295.67,954.38,1064.3,1006.08z"/>
				</g>
				<g class="st4">
					<path class="st65" d="M1319.71,1340.24c-452.96,143.18-722.89,70.95-722.89,70.95c96.31,90.26,303.01,106.57,397.52,109.18       c26.66-3.4,54.44-8.05,83.47-14.26c256.72-54.91,730.15-227.11,876.13-524.23c38.1-77.54,51.3-159.1,39.69-243.79       c-4.14-27.44-10.66-55.9-19.86-85.57c-8-24.63-17.96-49.48-29.96-74.55c-63.66-132.88-124.8-229.86-180.22-300.73       c1.57,3.42,141.15,307.69,143.45,487.88C1909.34,946.33,1772.66,1197.06,1319.71,1340.24z"/>
				</g>
				<g class="st13">
					<path class="st1" d="M613.89,409.91c0,0,21.01-164.14,108.33-177.93c87.33-13.79,101.11,9.19,118.84,5.25       c17.73-3.94,141.82-78.79,292.18-58.44c0,0,93.23-147.73,186.47-122.78c93.23,24.95,114.9,62.37,122.12,62.37       c7.21,0,154.57-16.15,260.63,88.25c-39.73-41.02-75.18-68.23-104.75-86.19c-87.59-53.17-143.45-38.89-144-38.74       c-2.78,0.77-5.75-0.1-7.68-2.22c-0.51-0.55-53.08-56.6-150.63-56.6c-52.19,0-100.02,33.16-133.28,64.07       c-12.08,13.42-22.89,25.57-32.67,34.2c-8.97,10.57-14.07,17.7-14.27,17.99c-1.58,2.25-4.19,3.48-6.98,3.21       c-145.36-14.03-272.5,59.94-273.77,60.69c-1.94,1.15-4.29,1.37-6.41,0.64c-14.98-5.24-35.13-9.27-57.15-9.27       c-50.13,0-109.98,20.84-140.75,95.58c-13.58,32.97-20.07,68.95-22.56,103.08C608.75,402.17,610.8,408.64,613.89,409.91z"/>
				</g>
				<g class="st13">
					<path class="st1" d="M460.58,665.43c14.24,15.09,52.87,12.97,91.46-6.16c40.25-19.96,65.83-51.16,59.7-71.67       c115.43-36.79,187.9-30.37,273.31-52.28c99.78-25.6,102.36-104.76,102.36-104.8c-0.2,1.19-0.65,2.35-1.44,3.37       c-2.49,3.25-62.48,79.63-175.89,87.66c-106.19,7.52-192.41,26.4-198.13,27.67c-170.72,51.95-253.21,138.89-284.72,300.06       c-0.49,2.52-0.87,5.02-1.31,7.53C328.75,849.56,371.71,741.8,460.58,665.43z"/>
				</g>
				<g class="st13">
					<path class="st1" d="M695.43,631.47c-19.66,6.68-32.13,22.3-27.85,34.89s23.68,17.36,43.34,10.68       c19.66-6.68,32.13-22.3,27.85-34.89C734.5,629.57,715.09,624.79,695.43,631.47z"/>
				</g>
				<g>
					<g>
						<path class="st65" d="M885.2,1550.63c-222.04,0.01-340.91-93.51-362.27-138.9c-16.42-34.89-22.38-58.23-24.54-70.57        c-21.69-10.61-75.52-46.27-130.29-155.04c-7.42-12.3-97.52-166.38-63.34-341.25C337.33,678.27,421,586.63,592.3,531.37        c-7.13-39.48-22.65-154.6,16.67-250.1c48.89-118.73,161.46-119.03,219.95-101.38c27.36-14.88,140.45-70.99,272.87-61.07        C1122.5,91.91,1200.26,0,1295.41,0c88.96,0,143.48,41.76,161.23,57.9c46.77-6.43,261.5-3.95,507.8,510.17        c71.51,149.28,74.89,291.9,10.04,423.9c-149.85,305-631.13,480.75-891.89,536.52        C1009.56,1544.12,943.77,1550.63,885.2,1550.63z M771.06,202.06c-47.7,0-104.62,19.81-133.86,90.84        c-43.52,105.68-12.68,244.15-12.37,245.53c1.78,7.81-2.77,15.68-10.44,18.01c-169.96,51.67-248.37,134.18-279.66,294.29        c-32.55,166.49,58.83,318.5,59.75,320.01c0.22,0.36,0.43,0.74,0.62,1.12c62.52,124.42,121.06,143.83,121.64,144.01        c6.24,1.94,10.75,7.69,10.94,14.21c0,0.06,1.35,22.92,22.88,68.65c9.65,20.5,57.11,63.7,143.4,92.34        c74.65,24.78,201.56,46.2,382.25,7.56c255.38-54.62,726.18-225.63,870.87-520.13c60.52-123.18,57.1-256.83-10.17-397.25        C1800.39,296.3,1676,177.58,1595.68,128.17c-85.32-52.5-139.47-39.22-140-39.08c-5.51,1.43-11.47-0.26-15.29-4.45        c-0.46-0.5-51.12-54.11-144.98-54.11c-93.18,0-173.19,111.89-173.99,113.02c-3.16,4.48-8.5,6.9-13.95,6.4        c-143.08-13.83-267.91,58.92-269.15,59.66c-3.88,2.29-8.57,2.76-12.82,1.27C811.24,205.89,792.04,202.06,771.06,202.06z"/>
					</g>
					<g>
						<path class="st65" d="M436.07,1279.1c-3.07,0-6.16-0.92-8.85-2.84c-6.85-4.89-8.46-14.38-3.59-21.24        c3.93-5.54,98.82-135.43,323.04-113.82c207.41,19.98,476.64-4.63,610.52-104.71c129.17-96.56,187.34-362.63,187.91-365.3        c1.77-8.24,9.87-13.51,18.12-11.73c8.24,1.76,13.5,9.88,11.73,18.12c-2.43,11.38-61.23,280.02-199.48,383.37        c-150.02,112.15-434.06,129.7-631.73,110.65c-205.8-19.85-291.67,96.19-295.23,101.14        C445.52,1276.88,440.83,1279.1,436.07,1279.1z"/>
					</g>
					<g>
						<path class="st65" d="M543.63,1355.5c-1.51,0-3.04-0.23-4.54-0.69l-31.22-9.72c-8.05-2.51-12.54-11.06-10.04-19.11        c2.5-8.05,11.06-12.55,19.11-10.04l0.67,0.21c-11.82-31.59-28.01-80.8-27.47-112.08c0.15-8.43,7.08-15.14,15.53-15        c8.43,0.15,15.14,7.1,15,15.53c-0.6,34.43,26.48,105.23,36.97,129.6c2.36,5.48,1.31,11.82-2.68,16.25        C552.03,1353.72,547.89,1355.5,543.63,1355.5z"/>
					</g>
					<g>
						<path class="st65" d="M648.03,1300.35c-2.66,0-5.31-0.7-7.66-2.06c-56.53-32.8-94.78-109.54-96.38-112.79        c-3.72-7.56-0.61-16.7,6.95-20.43s16.71-0.62,20.44,6.93c0.31,0.63,27.87,55.8,67.55,88.17        c6.66-25.96,17.2-71.36,19.38-106.38c0.53-8.41,7.73-14.8,16.19-14.29c8.41,0.52,14.81,7.77,14.29,16.19        c-3.44,55.21-25.17,130.48-26.1,133.66c-1.31,4.51-4.62,8.16-8.98,9.91C651.88,1299.99,649.95,1300.35,648.03,1300.35z"/>
					</g>
					<g>
						<path class="st65" d="M849.6,1310.85c-3.7,0-7.31-1.35-10.12-3.84c-22.41-19.87-58.49-80.44-87.41-130.99        c-2.67-4.67-4.54-7.96-5.4-9.38c-2.1-2.87-3.21-6.49-2.88-10.31c0.73-8.4,8.14-14.57,16.52-13.9        c8.12,0.7,9.87,3.75,18.26,18.42c12.12,21.18,44.59,77.94,67.73,108.09c13.56-26.96,36.37-76.16,39.33-107.5        c0.79-8.4,8.24-14.58,16.63-13.76c8.39,0.79,14.56,8.24,13.76,16.63c-4.83,51.09-51.11,135.12-53.07,138.67        c-2.24,4.05-6.21,6.87-10.77,7.65C851.32,1310.78,850.45,1310.85,849.6,1310.85z M757.66,1172.86c0,0,0.01,0,0.02,0        C757.67,1172.86,757.67,1172.86,757.66,1172.86z M757.64,1172.86c0,0,0.01,0,0.02,0        C757.65,1172.86,757.64,1172.86,757.64,1172.86z M757.61,1172.85C757.62,1172.85,757.62,1172.85,757.61,1172.85        C757.62,1172.85,757.62,1172.85,757.61,1172.85z M747.24,1167.39c0.32,0.39,0.69,0.79,1.09,1.18        C747.94,1168.2,747.58,1167.8,747.24,1167.39z"/>
					</g>
					<g>
						<path class="st65" d="M1095.81,1276.06c-2.84,0-5.65-0.8-8.11-2.33c-52.13-32.67-91.07-105.86-92.71-108.96        c-3.93-7.46-1.06-16.68,6.39-20.61c7.45-3.94,16.68-1.07,20.62,6.38c0.33,0.62,29.86,56.03,68.63,87.72        c11.65-22.61,32.08-66.58,34.11-100.27c0.51-8.42,7.72-14.88,16.16-14.32c8.42,0.51,14.82,7.74,14.32,16.15        c-3.28,54.44-44.47,125.66-46.22,128.66c-2.08,3.57-5.52,6.15-9.54,7.13C1098.26,1275.91,1097.03,1276.06,1095.81,1276.06z"/>
					</g>
					<g>
						<path class="st65" d="M1350.56,1206.46c-2.31,0-4.62-0.53-6.75-1.57c-46.55-22.94-110.98-78.93-113.7-81.3        c-6.35-5.54-7.01-15.18-1.47-21.54c5.54-6.35,15.18-7.02,21.54-1.47c0.56,0.49,49.44,42.96,90.44,67.7        c5.77-25.38,14.35-72.92,10.5-118.26c-0.71-8.4,5.52-15.79,13.92-16.5c8.39-0.75,15.79,5.52,16.5,13.92        c6.08,71.65-15.42,145.03-16.34,148.12c-1.28,4.31-4.4,7.84-8.52,9.64C1354.73,1206.04,1352.64,1206.46,1350.56,1206.46z"/>
					</g>
					<g>
						<path class="st65" d="M1502.89,1086.96c-2.56,0-5.12-0.64-7.43-1.93l-99.24-55.25c-7.37-4.1-10.01-13.4-5.91-20.76        c4.1-7.37,13.39-10,20.76-5.91l77.1,42.92c0.37-37.82-0.71-110.79-12.52-164.35c-1.82-8.23,3.39-16.38,11.62-18.2        c8.23-1.82,16.38,3.39,18.2,11.62c17.42,78.99,12.87,192.44,12.67,197.23c-0.22,5.29-3.17,10.09-7.8,12.68        C1508.03,1086.31,1505.46,1086.96,1502.89,1086.96z"/>
					</g>
					<g>
						<path class="st65" d="M609.93,557.11c-6.97,0-13.27-4.81-14.88-11.89c-1.86-8.22,3.29-16.4,11.51-18.26        c3.65-0.83,90.73-20.37,201.9-28.24c102.66-7.27,158.83-78.09,159.38-78.81c5.17-6.64,14.75-7.87,21.4-2.72        c6.66,5.15,7.91,14.7,2.77,21.37c-2.58,3.36-64.62,82.35-181.4,90.62c-108.73,7.7-196.43,27.37-197.3,27.57        C612.18,556.98,611.05,557.11,609.93,557.11z"/>
					</g>
					<g>
						<path class="st65" d="M920.41,819.23c-23.49,0-45.41-24.97-52.59-61.36c-7.84-39.71,5.73-73.51,31.55-78.6        c25.83-5.13,51.21,21.01,59.05,60.73c7.84,39.71-5.73,73.51-31.55,78.6C924.71,819.02,922.55,819.23,920.41,819.23z         M905.78,709.17c-0.18,0-0.34,0.01-0.5,0.05c-4.45,0.88-12.6,16.94-7.51,42.74c5.09,25.8,18.73,37.53,23.18,36.69        c4.45-0.88,12.6-16.95,7.51-42.74C923.55,721,910.67,709.17,905.78,709.17z"/>
					</g>
					<g>
						<path class="st65" d="M432.83,905.73c-10.69,0-21.44-5.08-30.28-14.49c-8.98-9.57-15.54-23.04-18.48-37.93        c-6.67-33.83,7.13-64.09,31.43-68.89c24.32-4.8,48.56,17.96,55.24,51.79l0,0c2.94,14.89,1.98,29.84-2.69,42.1        c-5.53,14.51-16,24.27-28.74,26.79C437.17,905.52,435,905.73,432.83,905.73z M422.06,814.32c-0.23,0-0.44,0.02-0.65,0.06        c-4.71,0.93-11.1,14.18-7.38,33.02c1.82,9.21,5.75,17.58,10.79,22.95c3.12,3.33,6.5,5.2,8.58,4.8c2.1-0.42,4.5-3.44,6.12-7.7        c2.62-6.88,3.08-16.12,1.27-25.32C437.23,824.09,427.06,814.32,422.06,814.32z"/>
					</g>
					<g>
						<path class="st65" d="M664.57,531.42c0,0-45.43-135.34-4.72-184.59c40.71-49.24,126.96,7.08,125.85,169        C785.7,515.83,731.79,517.06,664.57,531.42z"/>
					</g>
					<g>
						
							<ellipse transform="matrix(0.9811 -0.1936 0.1936 0.9811 -35.0185 255.6222)" class="st65" cx="1290.56" cy="307.01" rx="96.11" ry="126.48"/>
					</g>
					<g>
						
							<ellipse transform="matrix(0.9811 -0.1936 0.1936 0.9811 -65.7292 147.1276)" class="st1" cx="720.01" cy="409.91" rx="26.82" ry="43.43"/>
					</g>
					<g class="st12">
						
							<ellipse transform="matrix(0.8368 -0.5475 0.5475 0.8368 -148.7154 456.8027)" class="st1" cx="691.9" cy="477.86" rx="13.65" ry="27.22"/>
					</g>
					<g class="st12">
						
							<ellipse transform="matrix(0.8368 -0.5475 0.5475 0.8368 8.2436 748.8061)" class="st1" cx="1260.2" cy="360.58" rx="13.65" ry="27.22"/>
					</g>
					<g>
						
							<ellipse transform="matrix(0.9811 -0.1936 0.1936 0.9811 -28.9295 257.9961)" class="st1" cx="1305.75" cy="277.04" rx="34.15" ry="50.48"/>
					</g>
					<g>
						<path class="st65" d="M1628.94,716.33c-3.14,0-6.3-0.96-9.02-2.96c-67.52-49.57-128.24-7.61-130.79-5.8        c-6.86,4.86-16.38,3.29-21.27-3.54c-4.89-6.84-3.37-16.32,3.45-21.24c27.64-19.96,98.05-44.41,166.68,5.98        c6.8,4.99,8.26,14.54,3.27,21.34C1638.27,714.17,1633.64,716.33,1628.94,716.33z"/>
					</g>
				</g>
			</g>
			<g>
				<g>
					<g>
						<path class="st72" d="M2146.6,102.54c-3.14-0.07-6.29-0.1-9.43-0.1c-145.88,0-284.8,75.03-402.34,217.47        C1506.88,596.16,1455,901.3,1576.22,1252.78c74.09,214.83,235.92,311.21,351.99,328.48c0.47,0.07,0.93,0.18,1.38,0.34        c0.81,0.28,83.43,28.3,199.78,16.61c107.21-10.77,265.93-58.47,413.28-224.57c277.88-313.24,107.1-907.85-24.03-1081.89        C2449.6,200.14,2307.8,106.1,2146.6,102.54z"/>
					</g>
					<g>
						<path class="st5" d="M2551.21,401.32c-65.43-135.41-238.77-253.11-451.85-237.13c0.64,1.2,1.22,2.42,1.74,3.68        c15.4,37.51-27.04,90.47-94.8,118.3c-67.76,27.83-135.17,19.97-150.58-17.54c-0.21-0.52-0.37-1.05-0.56-1.57        c-162.21,131.69-290.52,349.83-297.68,362.11c-44.98,131.93-55.95,270.71-33.14,417.8c1.35-82.56,9.11-252.74,49.22-318.29        c0,0,77.48,552.84,516.07,592.23C2528.23,1360.32,2625.4,709,2625.4,709s169.17,546.22-252.65,807.41        c55.97-33.42,113.75-79.47,169.9-142.76c158.64-178.83,171.02-449.34,128.06-680.96        C2669.08,687.82,2621.85,547.5,2551.21,401.32z M2204.53,410.53c-28.28,0-51.21-17.64-51.21-39.39s22.93-39.39,51.21-39.39        s51.21,17.64,51.21,39.39S2232.82,410.53,2204.53,410.53z"/>
					</g>
					<g class="st4">
						<path class="st65" d="M2625.4,679c0,0-97.17,651.32-535.77,611.93c-438.59-39.39-516.07-592.23-516.07-592.23        c-40.11,65.54-47.87,235.73-49.22,318.29c10.37,66.84,27.58,135.37,51.87,205.8c74.09,214.83,235.92,311.21,351.99,328.48        c0.47,0.07,0.93,0.18,1.38,0.34c0.81,0.28,83.43,28.3,199.78,16.61c66.36-6.66,152.47-27.52,243.38-81.81        C2794.57,1225.21,2625.4,679,2625.4,679z"/>
					</g>
					<g class="st13">
						<path class="st1" d="M1855.17,267.06c0.19,0.52,0.35,1.05,0.56,1.57c15.4,37.51,82.82,45.36,150.58,17.54        c67.76-27.82,110.2-80.79,94.8-118.3c-0.52-1.26-1.11-2.49-1.74-3.68c213.08-15.98,386.41,101.73,451.85,237.13        c70.64,146.18,117.88,286.5,119.51,291.36c-32.29-174.1-95.82-326.25-152.09-400.92c-69.02-91.61-210.82-185.65-372.02-189.21        c-3.14-0.07-6.29-0.1-9.43-0.1c-145.88,0-284.8,75.03-402.34,217.47c-81.77,99.09-140.76,201.93-177.35,309.27        C1564.64,616.89,1692.96,398.75,1855.17,267.06z"/>
					</g>
					<g class="st13">
						<ellipse class="st1" cx="2198.63" cy="256.9" rx="39.39" ry="30.3"/>
					</g>
					<g>
						<path class="st65" d="M2071.64,1624.01c-82.36,0-138.35-17.09-148.15-20.3c-122.3-18.75-291.76-119.75-368.92-343.46        c-124.04-359.64-70.85-671.99,162.6-954.91c124.69-151.1,273.24-229.18,429.93-225.68c168.86,3.73,317.46,102.3,389.8,198.33        c64.14,85.13,142.92,281.59,169.4,492.37c22.75,181.15,15.8,435.5-146.53,618.49c-152.51,171.92-317.41,221.18-428.88,232.23        C2109.97,1623.14,2090.13,1624.01,2071.64,1624.01z M1932.08,1574.38c0.81,0.28,82.43,27.84,197.26,16.16        c105.65-10.75,262.13-57.98,407.6-221.97c275.19-310.21,105.62-899.64-24.41-1072.22c-67.92-90.14-207.45-182.67-366.1-186.18        c-146.9-3.17-287.18,70.96-405.71,214.59c-226.13,274.03-277.58,576.77-157.29,925.52c72.98,211.6,231.94,306.47,345.9,323.42        C1930.27,1573.85,1931.19,1574.07,1932.08,1574.38L1932.08,1574.38z"/>
					</g>
				</g>
				<g class="st4">
					<ellipse class="st65" cx="2161.2" cy="413.58" rx="82.73" ry="97.5"/>
				</g>
				<g class="st4">
					<circle class="st65" cx="1875.1" cy="465.29" r="51.71"/>
				</g>
				<g class="st4">
					<ellipse class="st65" cx="1734.25" cy="836.47" rx="34.97" ry="41.74"/>
				</g>
				<g class="st4">
					<ellipse class="st65" cx="2364.56" cy="1267.84" rx="34.97" ry="41.74"/>
				</g>
				<g class="st4">
					<ellipse class="st65" cx="2568.43" cy="925.84" rx="30.05" ry="35.87"/>
				</g>
				<g class="st4">
					<ellipse class="st65" cx="2117.24" cy="1439.03" rx="44.73" ry="53.39"/>
				</g>
				<g class="st4">
					
						<ellipse transform="matrix(0.9792 -0.2031 0.2031 0.9792 -48.7749 518.3661)" class="st65" cx="2500.98" cy="496.8" rx="40.38" ry="51.71"/>
				</g>
				<g class="st4">
					<ellipse class="st65" cx="2342.42" cy="837.07" rx="106.37" ry="117.2"/>
				</g>
			</g>
			<g>
				<g>
					<g>
						<path class="st5" d="M1604.15,1551.8c-5.76-2.26-11.02-5.19-15.34-9.08c-8.76-7.66-13.69-19.32-15.86-32.21        c-2.26-12.93-2.13-26.77-1.31-41.02c-6.94,12.61-10.58,27.03-10.61,42.03c0.07,7.5,1.24,15.22,4.06,22.66        c2.79,7.42,7.43,14.46,13.54,19.91c6.12,5.46,13.47,9.19,20.94,11.45c7.51,2.27,15.11,2.85,22.53,2.9        c14.84-0.38,29-3.84,42.11-9.65c-14.34-0.45-28.21-0.37-41.38-2.33C1616.33,1555.3,1609.93,1554.11,1604.15,1551.8z"/>
					</g>
					<g>
						<path class="st70" d="M2106.73,1196.91c-23.54-70.72-37.6-72.51-53.49-67.47c-23.87,7.53-106.64,55.31-107.47,55.79        c-2.57,1.48-5.76,1.34-8.19-0.35c-2.43-1.69-3.66-4.65-3.15-7.56c14.12-81.59,18.29-156.83,9.14-164.76c0,0-0.01,0-0.01,0        c-0.13-0.04-0.24-0.11-0.36-0.16c-18.91-4.79-54.92-1.39-67.06-0.03l-87.49,185.39c-0.59,1.24-1.5,2.3-2.64,3.07        c-3.44,2.32-269.63,180.21-557.45,275.06c-12.92,28.74-42.04,118.48,58.28,186.69c2.32-2.48,6.08-3.2,9.2-1.52        c1.49,0.81,151.57,78.98,386.9-47.29c109.64-58.83,164.57-128.67,191.97-186.53c-1.4-2.49-1.35-5.66,0.42-8.15        c1.15-1.61,2.81-2.61,4.59-3.01c25.68-60.32,21.7-105.12,21.61-106.01c-0.41-3.89,2.19-7.47,6.02-8.28        c46.67-9.8,172.97-44.3,196.69-85.6C2108.03,1209.59,2108.85,1203.28,2106.73,1196.91z M1622.1,1568.43        c-7.42-0.05-15.03-0.62-22.53-2.9c-7.46-2.25-14.81-5.99-20.94-11.45c-6.11-5.46-10.75-12.49-13.54-19.91        c-2.82-7.43-3.99-15.16-4.06-22.66c0.02-15,3.66-29.42,10.61-42.03c-0.82,14.25-0.95,28.08,1.31,41.02        c2.18,12.89,7.11,24.55,15.86,32.21c4.32,3.9,9.58,6.83,15.34,9.08c5.78,2.3,12.18,3.49,18.68,4.65        c13.16,1.96,27.04,1.88,41.38,2.33C1651.1,1564.59,1636.95,1568.05,1622.1,1568.43z"/>
					</g>
				</g>
				<g>
					<path class="st1" d="M2181.46,1081.98c-14.05,4.66-52.87,26.98-87.56,49.08c8.76,11.98,16.38,29.47,24.17,51.8       C2174.56,1145.42,2182.23,1098.83,2181.46,1081.98z"/>
				</g>
				<g>
					<path class="st1" d="M1940.64,996.46c14.19-46.29,21.21-91.49,14.75-96.87c-8.88,0.54-36.08,44.17-59.72,95.78       C1909.76,994.52,1927.01,994.27,1940.64,996.46z"/>
				</g>
				<g>
					<path class="st5" d="M1921.43,994.86c8.39-22.91,28.25-75.75,33.65-77.55c0.88-0.3,1.7-0.28,2.45-0.03       c0.65-9.42,0.04-15.87-2.14-17.69c-8.88,0.54-36.08,44.17-59.72,95.78C1903.66,994.89,1912.65,994.62,1921.43,994.86z"/>
				</g>
				<g>
					<path class="st5" d="M2109.53,1155.64c0,0,36.69-15.27,51.7-33.73c10.21-12.55,15.89-19.06,18.49-21.95       c1.56-7.48,1.92-13.7,1.73-17.98c-14.05,4.66-52.87,26.98-87.56,49.08c4.96,6.79,9.56,15.41,14.03,25.62       C2108.38,1156.29,2108.91,1155.93,2109.53,1155.64z"/>
				</g>
				<g class="st4">
					<path class="st65" d="M2048.96,1224.58c-39.39,14.44-147.73,38.74-172.02,49.24c-24.29,10.51-1.31,94.55-87.98,195.66       c-86.67,101.11-170.98,86.07-170.98,86.07c1.6,0.31,3.22,0.6,4.85,0.89c13.17,1.96,27.04,1.88,41.38,2.33       c-13.11,5.81-27.27,9.27-42.11,9.65c-7.42-0.05-15.03-0.62-22.53-2.9c-7.46-2.25-14.81-5.99-20.94-11.45       c-6.11-5.46-10.75-12.49-13.54-19.91c-0.9-2.38-1.58-4.8-2.17-7.23l-0.04-0.02c-18.6,58.75,59.96,80.44,19.91,90.95       c-40.05,10.5-286.92,36.77-286.92,36.77c2.32,3.68,5.14,6.99,8.25,10.09c34.14,14.1,174.25,58.8,378.8-50.95       c109.64-58.83,164.57-128.67,191.97-186.53c-1.4-2.49-1.35-5.66,0.42-8.15c1.15-1.61,2.81-2.61,4.59-3.01       c25.68-60.32,21.7-105.12,21.61-106.01c-0.41-3.89,2.19-7.47,6.02-8.28c46.67-9.8,172.97-44.3,196.69-85.6       c3.8-6.62,4.62-12.93,2.5-19.31c-3.29-9.9-6.4-18.4-9.35-25.77C2097.37,1171.16,2088.35,1210.14,2048.96,1224.58z"/>
				</g>
				<g class="st4">
					<path class="st65" d="M1588.81,1542.72c4.32,3.9,9.58,6.83,15.34,9.08c4.33,1.73,9.01,2.83,13.83,3.76l-33.51-17.42       C1585.81,1539.78,1587.23,1541.33,1588.81,1542.72z"/>
				</g>
				<g class="st4">
					<path class="st65" d="M2109.53,1155.64c-0.62,0.29-1.15,0.64-1.61,1.05c3.42,7.8,6.76,16.51,10.13,26.18       c42.14-27.94,57.1-60.94,61.67-82.91c-2.6,2.89-8.29,9.4-18.49,21.95C2146.22,1140.38,2109.53,1155.64,2109.53,1155.64z"/>
				</g>
				<g class="st4">
					<path class="st65" d="M1916.66,1132.43c-4.27,35.22,9.52,52.11,10.07,52.76c0,0,4.41-4.5,7.79-8.47       c14.04-81.36,18.17-156.25,9.04-164.16c-0.01,0-0.01,0-0.01,0c-0.13-0.04-0.24-0.11-0.36-0.16c-6.68-1.69-15.5-2.35-24.65-2.45       c0.67,3.64,1.65,9.28,2.75,16.67C1923.29,1040.09,1920.93,1097.21,1916.66,1132.43z"/>
				</g>
				<g class="st4">
					<path class="st65" d="M1955.07,917.31c-5.39,1.8-25.26,54.64-33.65,77.55c6.71,0.18,13.3,0.65,19.21,1.6       c9.39-30.64,15.61-60.73,16.89-79.18C1956.78,917.03,1955.96,917.01,1955.07,917.31z"/>
				</g>
				<g>
					<g>
						<path class="st5" d="M1604.15,1551.8c-5.76-2.26-11.02-5.19-15.34-9.08c-8.76-7.66-13.69-19.32-15.86-32.21        c-2.26-12.93-2.13-26.77-1.31-41.02c-6.94,12.61-10.58,27.03-10.61,42.03c0.07,7.5,1.24,15.22,4.06,22.66        c2.79,7.42,7.43,14.46,13.54,19.91c6.12,5.46,13.47,9.19,20.94,11.45c7.51,2.27,15.11,2.85,22.53,2.9        c14.84-0.38,29-3.84,42.11-9.65c-14.34-0.45-28.21-0.37-41.38-2.33C1616.33,1555.3,1609.93,1554.11,1604.15,1551.8z"/>
					</g>
					<g>
						<path class="st70" d="M1427.46,1397.38c1.78-0.81,3.55-1.62,5.32-2.43C1431.01,1395.77,1429.23,1396.58,1427.46,1397.38z"/>
					</g>
					<g>
						<path class="st70" d="M1678.84,1266.88c1.51-0.88,3.03-1.77,4.51-2.64C1681.87,1265.11,1680.35,1266,1678.84,1266.88z"/>
					</g>
					<g>
						<path class="st70" d="M1688.27,1261.36c2.36-1.39,4.68-2.75,6.96-4.11C1692.94,1258.6,1690.62,1259.97,1688.27,1261.36z"/>
					</g>
					<g>
						<path class="st70" d="M1659.85,1277.86c1.55-0.89,3.06-1.76,4.59-2.64C1662.92,1276.1,1661.4,1276.98,1659.85,1277.86z"/>
					</g>
					<g>
						<path class="st70" d="M1699.77,1254.55c1.4-0.83,2.77-1.65,4.14-2.47C1702.54,1252.9,1701.17,1253.72,1699.77,1254.55z"/>
					</g>
					<g>
						<path class="st70" d="M1442.17,1390.64c1.68-0.78,3.36-1.55,5.04-2.33C1445.53,1389.09,1443.85,1389.87,1442.17,1390.64z"/>
					</g>
					<g>
						<path class="st70" d="M1669.44,1272.34c1.58-0.91,3.14-1.82,4.7-2.72C1672.58,1270.52,1671.02,1271.43,1669.44,1272.34z"/>
					</g>
					<g>
						<path class="st70" d="M1708.09,1249.59c1.26-0.76,2.51-1.51,3.75-2.25C1710.6,1248.08,1709.35,1248.83,1708.09,1249.59z"/>
					</g>
					<g>
						<path class="st70" d="M1733.07,1234.43c1.12-0.69,2.21-1.36,3.29-2.03C1735.27,1233.08,1734.18,1233.75,1733.07,1234.43z"/>
					</g>
					<g>
						<path class="st70" d="M1726.22,1238.63c1.09-0.67,2.13-1.3,3.19-1.96C1728.35,1237.32,1727.31,1237.96,1726.22,1238.63z"/>
					</g>
					<g>
						<path class="st70" d="M1412.96,1403.91c1.48-0.66,2.95-1.33,4.43-1.99C1415.91,1402.58,1414.44,1403.25,1412.96,1403.91z"/>
					</g>
					<g>
						<path class="st70" d="M1378.91,1418.76c1.63-0.7,3.27-1.39,4.89-2.09C1382.18,1417.37,1380.54,1418.06,1378.91,1418.76z"/>
					</g>
					<g>
						<path class="st70" d="M1646.11,1285.69c1.55-0.88,3.12-1.76,4.64-2.63C1649.22,1283.93,1647.66,1284.81,1646.11,1285.69z"/>
					</g>
					<g>
						<path class="st70" d="M1716.18,1244.72c1.12-0.68,2.26-1.37,3.37-2.03C1718.45,1243.35,1717.31,1244.04,1716.18,1244.72z"/>
					</g>
					<g>
						<path class="st70" d="M1395.33,1411.68c1.1-0.48,2.21-0.96,3.32-1.44C1397.54,1410.72,1396.43,1411.2,1395.33,1411.68z"/>
					</g>
					<g>
						<path class="st70" d="M1598.09,1312.29c1.84-1,3.68-2,5.5-2.99C1601.78,1310.3,1599.93,1311.3,1598.09,1312.29z"/>
					</g>
					<g>
						<path class="st70" d="M1586.46,1318.57c1.88-1.01,3.74-2.01,5.6-3.01C1590.2,1316.55,1588.34,1317.56,1586.46,1318.57z"/>
					</g>
					<g>
						<path class="st70" d="M1558.7,1333.26c2.3-1.2,4.58-2.4,6.85-3.59C1563.28,1330.86,1560.99,1332.06,1558.7,1333.26z"/>
					</g>
					<g>
						<path class="st70" d="M2106.73,1196.91c-23.54-70.72-37.6-72.51-53.49-67.47c-23.87,7.53-106.64,55.31-107.47,55.79        c-2.57,1.48-5.76,1.34-8.19-0.35c-2.43-1.69-3.66-4.65-3.15-7.56c14.12-81.59,18.29-156.83,9.14-164.76c0,0-0.01,0-0.01,0        c-0.13-0.04-0.24-0.11-0.36-0.16c-15.78-4-43.43-2.29-59.22-0.83c3.04-0.28,6.5-0.57,10.24-0.82        c-7.28,34.19-40.73,172.1-79.65,205.3c-44.65,38.08-296.12,199.6-537.08,279.05c-21.65,7.14-41.79,13.31-60.61,18.68        c-7.29,40.61-1.57,100.17,69.96,148.81c2.32-2.48,6.08-3.2,9.2-1.52c1.49,0.81,151.57,78.98,386.9-47.29        c109.64-58.83,164.57-128.67,191.97-186.53c-1.4-2.49-1.35-5.66,0.42-8.15c1.15-1.61,2.81-2.61,4.59-3.01        c25.68-60.32,21.7-105.12,21.61-106.01c-0.41-3.89,2.19-7.47,6.02-8.28c46.67-9.8,172.97-44.3,196.69-85.6        C2108.03,1209.59,2108.85,1203.28,2106.73,1196.91z M1622.1,1568.43c-7.42-0.05-15.03-0.62-22.53-2.9        c-7.46-2.25-14.81-5.99-20.94-11.45c-6.11-5.46-10.75-12.49-13.54-19.91c-2.82-7.43-3.99-15.16-4.06-22.66        c0.02-15,3.66-29.42,10.61-42.03c-0.82,14.25-0.95,28.08,1.31,41.02c2.18,12.89,7.11,24.55,15.86,32.21        c4.32,3.9,9.58,6.83,15.34,9.08c5.78,2.3,12.18,3.49,18.68,4.65c13.16,1.96,27.04,1.88,41.38,2.33        C1651.1,1564.59,1636.95,1568.05,1622.1,1568.43z"/>
					</g>
					<g>
						<path class="st70" d="M1502.21,1361.95c1.7-0.84,3.42-1.68,5.11-2.53C1505.63,1360.27,1503.92,1361.11,1502.21,1361.95z"/>
					</g>
					<g>
						<path class="st70" d="M1532.59,1346.72c1.9-0.97,3.79-1.93,5.67-2.9C1536.38,1344.79,1534.49,1345.75,1532.59,1346.72z"/>
					</g>
					<g>
						<path class="st70" d="M1519.68,1353.26c1.64-0.82,3.25-1.64,4.88-2.46C1522.93,1351.61,1521.31,1352.43,1519.68,1353.26z"/>
					</g>
					<g>
						<path class="st70" d="M1545.4,1340.16c1.88-0.97,3.76-1.94,5.62-2.9C1549.15,1338.22,1547.28,1339.19,1545.4,1340.16z"/>
					</g>
					<g>
						<path class="st70" d="M1739.83,1230.27c0.95-0.59,1.9-1.18,2.82-1.75C1741.73,1229.09,1740.78,1229.68,1739.83,1230.27z"/>
					</g>
					<g>
						<path class="st70" d="M1488.25,1368.79c1.89-0.92,3.77-1.83,5.64-2.75C1492.02,1366.96,1490.14,1367.87,1488.25,1368.79z"/>
					</g>
					<g>
						<path class="st70" d="M1624.67,1297.71c1.82-1.01,3.62-2.02,5.42-3.02C1628.3,1295.7,1626.5,1296.7,1624.67,1297.71z"/>
					</g>
					<g>
						<path class="st70" d="M1635.31,1291.77c1.79-1,3.56-2,5.32-2.99C1638.88,1289.77,1637.09,1290.77,1635.31,1291.77z"/>
					</g>
					<g>
						<path class="st70" d="M1474.49,1375.44c1.82-0.87,3.63-1.75,5.44-2.62C1478.12,1373.69,1476.31,1374.57,1474.49,1375.44z"/>
					</g>
					<g>
						<path class="st70" d="M1611.5,1304.98c2.43-1.33,4.83-2.65,7.21-3.97C1616.32,1302.33,1613.92,1303.65,1611.5,1304.98z"/>
					</g>
					<g>
						<path class="st70" d="M1459.46,1382.58c1.35-0.64,2.69-1.27,4.03-1.91C1462.15,1381.31,1460.81,1381.95,1459.46,1382.58z"/>
					</g>
					<g>
						<path class="st70" d="M1574.57,1324.91c1.8-0.95,3.57-1.9,5.35-2.85C1578.15,1323,1576.37,1323.95,1574.57,1324.91z"/>
					</g>
					<g>
						<path class="st70" d="M1262.37,1464.32c1.18-0.42,2.36-0.83,3.53-1.25C1264.72,1463.49,1263.54,1463.9,1262.37,1464.32z"/>
					</g>
					<g>
						<path class="st70" d="M1769.73,1211.44c0.22-0.14,0.4-0.26,0.62-0.4C1770.14,1211.18,1769.95,1211.3,1769.73,1211.44z"/>
					</g>
					<g>
						<path class="st70" d="M1776.89,1206.82c0.28-0.18,0.55-0.36,0.82-0.53C1777.44,1206.46,1777.16,1206.64,1776.89,1206.82z"/>
					</g>
					<g>
						<path class="st70" d="M1313.24,1445.48c1.5-0.58,3.01-1.16,4.51-1.75C1316.25,1444.32,1314.75,1444.9,1313.24,1445.48z"/>
					</g>
					<g>
						<path class="st70" d="M1880.05,1011.96c1.07-0.11,2.21-0.22,3.44-0.34C1882.26,1011.74,1881.11,1011.85,1880.05,1011.96z"/>
					</g>
					<g>
						<path class="st70" d="M1329.69,1439.03c1.19-0.47,2.39-0.94,3.58-1.42C1332.08,1438.09,1330.89,1438.56,1329.69,1439.03z"/>
					</g>
					<g>
						<path class="st70" d="M1773.47,1209.03c0.37-0.24,0.72-0.46,1.08-0.7C1774.19,1208.57,1773.84,1208.79,1773.47,1209.03z"/>
					</g>
					<g>
						<path class="st70" d="M1297.66,1451.44c1.15-0.43,2.29-0.87,3.44-1.3C1299.95,1450.57,1298.81,1451.01,1297.66,1451.44z"/>
					</g>
					<g>
						<path class="st70" d="M1784.32,1201.95c0.03-0.02,0.04-0.03,0.07-0.05C1784.37,1201.92,1784.34,1201.93,1784.32,1201.95z"/>
					</g>
					<g>
						<path class="st70" d="M1780.02,1204.78c0.1-0.07,0.22-0.15,0.32-0.21C1780.24,1204.63,1780.12,1204.71,1780.02,1204.78z"/>
					</g>
					<g>
						<path class="st70" d="M1876.16,1012.37c0.88-0.1,1.93-0.21,3.05-0.33C1878.09,1012.16,1877.05,1012.27,1876.16,1012.37z"/>
					</g>
					<g>
						<path class="st70" d="M1782.48,1203.16c0.16-0.11,0.29-0.19,0.45-0.29C1782.77,1202.97,1782.64,1203.05,1782.48,1203.16z"/>
					</g>
					<g>
						<path class="st70" d="M1785.44,1201.2c0.02-0.01,0.04-0.03,0.06-0.04C1785.48,1201.17,1785.46,1201.19,1785.44,1201.2z"/>
					</g>
					<g>
						<path class="st70" d="M1363.64,1425.21c1.6-0.67,3.19-1.34,4.78-2.01C1366.82,1423.87,1365.23,1424.54,1363.64,1425.21z"/>
					</g>
					<g>
						<path class="st70" d="M1230.07,1475.38c0.32-0.1,0.63-0.21,0.95-0.32C1230.71,1475.17,1230.39,1475.27,1230.07,1475.38z"/>
					</g>
					<g>
						<path class="st70" d="M1245.96,1470.03c1.21-0.41,2.41-0.83,3.62-1.24C1248.37,1469.2,1247.17,1469.61,1245.96,1470.03z"/>
					</g>
					<g>
						<path class="st70" d="M1753.85,1221.52c0.75-0.47,1.46-0.92,2.18-1.38C1755.31,1220.6,1754.6,1221.05,1753.85,1221.52z"/>
					</g>
					<g>
						<path class="st70" d="M1348.6,1431.42c0.68-0.28,1.35-0.56,2.03-0.84C1349.96,1430.87,1349.28,1431.15,1348.6,1431.42z"/>
					</g>
					<g>
						<path class="st70" d="M1759.05,1218.24c0.72-0.46,1.43-0.9,2.12-1.34C1760.48,1217.34,1759.77,1217.79,1759.05,1218.24z"/>
					</g>
					<g>
						<path class="st70" d="M1746.57,1226.08c0.82-0.51,1.64-1.02,2.44-1.52C1748.22,1225.05,1747.39,1225.57,1746.57,1226.08z"/>
					</g>
					<g>
						<path class="st70" d="M1763.92,1215.15c0.61-0.39,1.24-0.79,1.82-1.16C1765.16,1214.37,1764.53,1214.77,1763.92,1215.15z"/>
					</g>
					<g class="st13">
						<path class="st1" d="M1265.9,1463.07c10.63-3.78,21.23-7.66,31.76-11.63C1287.12,1455.41,1276.53,1459.29,1265.9,1463.07z"/>
					</g>
					<g class="st13">
						<path class="st1" d="M1231.02,1475.06c4.99-1.65,9.96-3.33,14.94-5.03C1240.99,1471.73,1236.01,1473.41,1231.02,1475.06z"/>
					</g>
					<g class="st13">
						<path class="st1" d="M1507.33,1359.43c4.15-2.06,8.27-4.11,12.35-6.17C1515.59,1355.31,1511.47,1357.37,1507.33,1359.43z"/>
					</g>
					<g class="st13">
						<path class="st1" d="M1524.56,1350.79c2.69-1.36,5.37-2.72,8.04-4.07C1529.93,1348.08,1527.25,1349.43,1524.56,1350.79z"/>
					</g>
					<g class="st13">
						<path class="st1" d="M1249.58,1468.78c4.27-1.47,8.53-2.96,12.79-4.46C1258.11,1465.82,1253.85,1467.31,1249.58,1468.78z"/>
					</g>
					<g class="st13">
						<path class="st1" d="M1479.93,1372.82c2.78-1.34,5.56-2.68,8.32-4.03C1485.49,1370.14,1482.72,1371.48,1479.93,1372.82z"/>
					</g>
					<g class="st13">
						<path class="st1" d="M1333.27,1437.61c5.13-2.05,10.24-4.11,15.33-6.19C1343.51,1433.51,1338.4,1435.57,1333.27,1437.61z"/>
					</g>
					<g class="st13">
						<path class="st1" d="M1398.64,1410.24c4.8-2.1,9.57-4.21,14.32-6.33C1408.21,1406.03,1403.44,1408.14,1398.64,1410.24z"/>
					</g>
					<g class="st13">
						<path class="st1" d="M1417.39,1401.92c3.37-1.51,6.72-3.02,10.06-4.54C1424.11,1398.9,1420.76,1400.41,1417.39,1401.92z"/>
					</g>
					<g class="st13">
						<path class="st1" d="M1350.63,1430.59c4.35-1.78,8.68-3.58,13.01-5.38C1359.32,1427.01,1354.98,1428.81,1350.63,1430.59z"/>
					</g>
					<g class="st13">
						<path class="st1" d="M1383.8,1416.67c3.86-1.66,7.69-3.32,11.52-4.99C1391.5,1413.35,1387.66,1415.01,1383.8,1416.67z"/>
					</g>
					<g class="st13">
						<path class="st1" d="M1447.21,1388.32c4.11-1.91,8.19-3.82,12.26-5.73C1455.4,1384.49,1451.31,1386.41,1447.21,1388.32z"/>
					</g>
					<g class="st13">
						<path class="st1" d="M1301.09,1450.13c4.06-1.54,8.11-3.09,12.15-4.65C1309.2,1447.04,1305.15,1448.6,1301.09,1450.13z"/>
					</g>
					<g class="st13">
						<path class="st1" d="M1463.49,1380.67c3.68-1.74,7.35-3.49,10.99-5.23C1470.84,1377.19,1467.18,1378.93,1463.49,1380.67z"/>
					</g>
					<g class="st13">
						<path class="st1" d="M1317.75,1443.73c3.99-1.55,7.97-3.12,11.94-4.7C1325.72,1440.61,1321.74,1442.18,1317.75,1443.73z"/>
					</g>
					<g class="st13">
						<path class="st1" d="M1432.78,1394.96c3.14-1.44,6.27-2.87,9.39-4.31C1439.05,1392.08,1435.92,1393.52,1432.78,1394.96z"/>
					</g>
					<g class="st13">
						<path class="st1" d="M1368.41,1423.2c3.51-1.48,7.01-2.96,10.5-4.44C1375.42,1420.25,1371.92,1421.73,1368.41,1423.2z"/>
					</g>
					<g class="st13">
						<path class="st1" d="M1493.89,1366.04c2.79-1.36,5.56-2.73,8.32-4.09C1499.45,1363.31,1496.68,1364.68,1493.89,1366.04z"/>
					</g>
					<g class="st13">
						<path class="st1" d="M1761.17,1216.9c0.95-0.6,1.85-1.18,2.75-1.75C1763.03,1215.72,1762.12,1216.3,1761.17,1216.9z"/>
					</g>
					<g class="st13">
						<path class="st1" d="M1765.74,1213.99c1.4-0.89,2.73-1.75,3.99-2.56C1768.48,1212.24,1767.13,1213.1,1765.74,1213.99z"/>
					</g>
					<g class="st13">
						<path class="st1" d="M1774.55,1208.34c0.82-0.53,1.6-1.04,2.34-1.52C1776.15,1207.3,1775.36,1207.81,1774.55,1208.34z"/>
					</g>
					<g class="st13">
						<path class="st1" d="M1770.35,1211.04c1.09-0.7,2.14-1.37,3.12-2.01C1772.49,1209.67,1771.44,1210.34,1770.35,1211.04z"/>
					</g>
					<g class="st13">
						<path class="st1" d="M1538.27,1343.82c2.39-1.22,4.77-2.44,7.13-3.66C1543.03,1341.38,1540.66,1342.6,1538.27,1343.82z"/>
					</g>
					<g class="st13">
						<path class="st1" d="M1736.36,1232.41c1.18-0.72,2.33-1.44,3.47-2.14C1738.69,1230.97,1737.53,1231.69,1736.36,1232.41z"/>
					</g>
					<g class="st13">
						<path class="st1" d="M1742.65,1228.52c1.34-0.83,2.64-1.64,3.92-2.44C1745.29,1226.88,1743.99,1227.69,1742.65,1228.52z"/>
					</g>
					<g class="st13">
						<path class="st1" d="M1749.01,1224.56c1.66-1.04,3.28-2.05,4.84-3.03C1752.29,1222.51,1750.67,1223.52,1749.01,1224.56z"/>
					</g>
					<g class="st13">
						<path class="st1" d="M1784.39,1201.9c0.44-0.29,0.79-0.53,1.05-0.7C1785.18,1201.38,1784.83,1201.61,1784.39,1201.9z"/>
					</g>
					<g class="st13">
						<path class="st1" d="M1883.49,1011.62c0.16-0.02,0.32-0.03,0.49-0.05C1883.81,1011.59,1883.66,1011.61,1883.49,1011.62z"/>
					</g>
					<g class="st13">
						<path class="st1" d="M1788.64,1197.76l87.49-185.39c0.01,0,0.02,0,0.03,0c-0.01,0-0.02,0-0.03,0L1788.64,1197.76        c-0.59,1.24-1.5,2.3-2.64,3.07c-0.07,0.04-0.24,0.16-0.5,0.33c0.25-0.17,0.44-0.29,0.5-0.33        C1787.14,1200.06,1788.05,1199,1788.64,1197.76z"/>
					</g>
					<g class="st13">
						<path class="st1" d="M1879.21,1012.04c0.26-0.03,0.56-0.06,0.84-0.08C1879.76,1011.99,1879.48,1012.01,1879.21,1012.04z"/>
					</g>
					<g class="st13">
						<path class="st1" d="M1777.7,1206.29c0.83-0.54,1.61-1.05,2.32-1.51C1779.31,1205.24,1778.53,1205.75,1777.7,1206.29z"/>
					</g>
					<g class="st13">
						<path class="st1" d="M1780.34,1204.56c0.79-0.52,1.51-0.99,2.14-1.4C1781.85,1203.58,1781.14,1204.04,1780.34,1204.56z"/>
					</g>
					<g class="st13">
						<path class="st1" d="M1782.93,1202.87c0.53-0.35,1-0.66,1.39-0.92C1783.93,1202.2,1783.44,1202.53,1782.93,1202.87z"/>
					</g>
					<g class="st13">
						<path class="st1" d="M1729.42,1236.67c1.23-0.75,2.46-1.5,3.65-2.24C1731.87,1235.17,1730.65,1235.92,1729.42,1236.67z"/>
					</g>
					<g class="st13">
						<path class="st1" d="M1756.03,1220.15c1.03-0.65,2.04-1.29,3.02-1.9C1758.07,1218.86,1757.06,1219.5,1756.03,1220.15z"/>
					</g>
					<g class="st13">
						<path class="st1" d="M1603.59,1309.31c2.66-1.45,5.29-2.89,7.9-4.32C1608.88,1306.42,1606.26,1307.86,1603.59,1309.31z"/>
					</g>
					<g class="st13">
						<path class="st1" d="M1618.71,1301.01c2-1.1,4-2.21,5.96-3.3C1622.71,1298.8,1620.71,1299.91,1618.71,1301.01z"/>
					</g>
					<g class="st13">
						<path class="st1" d="M1640.63,1288.78c1.84-1.04,3.66-2.07,5.47-3.09C1644.29,1286.72,1642.48,1287.75,1640.63,1288.78z"/>
					</g>
					<g class="st13">
						<path class="st1" d="M1630.09,1294.69c1.75-0.98,3.49-1.95,5.22-2.92C1633.58,1292.74,1631.84,1293.72,1630.09,1294.69z"/>
					</g>
					<g class="st13">
						<path class="st1" d="M1592.06,1315.55c2.02-1.09,4.03-2.18,6.03-3.26C1596.09,1313.38,1594.08,1314.46,1592.06,1315.55z"/>
					</g>
					<g class="st13">
						<path class="st1" d="M1719.55,1242.68c2.28-1.38,4.5-2.73,6.67-4.06C1724.05,1239.95,1721.82,1241.3,1719.55,1242.68z"/>
					</g>
					<g class="st13">
						<path class="st1" d="M1565.55,1329.67c3.03-1.59,6.04-3.18,9.02-4.76C1571.59,1326.49,1568.58,1328.07,1565.55,1329.67z"/>
					</g>
					<g class="st13">
						<path class="st1" d="M1579.93,1322.06c2.19-1.17,4.37-2.33,6.53-3.49C1584.3,1319.73,1582.11,1320.89,1579.93,1322.06z"/>
					</g>
					<g class="st13">
						<path class="st1" d="M1551.02,1337.26c2.58-1.34,5.13-2.67,7.68-4C1556.15,1334.59,1553.59,1335.92,1551.02,1337.26z"/>
					</g>
					<g class="st13">
						<path class="st1" d="M1703.91,1252.08c1.41-0.84,2.8-1.67,4.17-2.5C1706.71,1250.41,1705.32,1251.25,1703.91,1252.08z"/>
					</g>
					<g class="st13">
						<path class="st1" d="M1711.84,1247.34c1.47-0.89,2.91-1.75,4.35-2.62C1714.75,1245.58,1713.31,1246.45,1711.84,1247.34z"/>
					</g>
					<g class="st13">
						<path class="st1" d="M1695.23,1257.25c1.53-0.9,3.05-1.81,4.55-2.7C1698.28,1255.44,1696.75,1256.35,1695.23,1257.25z"/>
					</g>
					<g class="st13">
						<path class="st1" d="M1683.35,1264.24c1.66-0.97,3.29-1.93,4.91-2.89C1686.64,1262.31,1685.02,1263.27,1683.35,1264.24z"/>
					</g>
					<g class="st13">
						<path class="st1" d="M1664.44,1275.22c1.68-0.96,3.35-1.93,5-2.88C1667.79,1273.3,1666.12,1274.26,1664.44,1275.22z"/>
					</g>
					<g class="st13">
						<path class="st1" d="M1650.75,1283.06c3.08-1.75,6.11-3.48,9.1-5.2C1656.86,1279.58,1653.83,1281.31,1650.75,1283.06z"/>
					</g>
					<g class="st13">
						<path class="st1" d="M1674.13,1269.62c1.59-0.92,3.15-1.83,4.71-2.74C1677.28,1267.79,1675.72,1268.7,1674.13,1269.62z"/>
					</g>
					<g>
						<path class="st70" d="M1814.57,1216.05c38.92-33.2,72.37-171.11,79.65-205.3c-3.74,0.26-7.2,0.55-10.24,0.82        c-0.16,0.01-0.32,0.03-0.49,0.05c-1.23,0.11-2.37,0.23-3.44,0.34c-0.28,0.03-0.57,0.06-0.84,0.08        c-1.12,0.12-2.17,0.23-3.05,0.33c-0.01,0-0.02,0-0.03,0l-87.49,185.39c-0.59,1.24-1.5,2.3-2.64,3.07        c-0.06,0.04-0.25,0.17-0.5,0.33c-0.02,0.01-0.04,0.03-0.06,0.04c-0.26,0.17-0.62,0.41-1.05,0.7        c-0.02,0.02-0.04,0.03-0.07,0.05c-0.4,0.26-0.86,0.57-1.39,0.92c-0.15,0.1-0.28,0.19-0.45,0.29c-0.63,0.41-1.34,0.88-2.14,1.4        c-0.1,0.07-0.22,0.14-0.32,0.21c-0.71,0.46-1.49,0.97-2.32,1.51c-0.27,0.17-0.54,0.35-0.82,0.53        c-0.74,0.48-1.52,0.98-2.34,1.52c-0.36,0.23-0.7,0.45-1.08,0.7c-0.98,0.64-2.02,1.31-3.12,2.01c-0.21,0.14-0.4,0.26-0.62,0.4        c-1.26,0.81-2.6,1.66-3.99,2.56c-0.59,0.38-1.21,0.77-1.82,1.16c-0.89,0.57-1.8,1.15-2.75,1.75c-0.69,0.44-1.4,0.89-2.12,1.34        c-0.98,0.62-1.99,1.26-3.02,1.9c-0.73,0.46-1.43,0.9-2.18,1.38c-1.56,0.98-3.17,1.99-4.84,3.03c-0.79,0.5-1.62,1.01-2.44,1.52        c-1.29,0.8-2.58,1.61-3.92,2.44c-0.92,0.57-1.87,1.16-2.82,1.75c-1.14,0.7-2.29,1.42-3.47,2.14        c-1.08,0.67-2.17,1.34-3.29,2.03c-1.19,0.73-2.42,1.48-3.65,2.24c-1.06,0.65-2.1,1.29-3.19,1.96        c-2.17,1.32-4.4,2.68-6.67,4.06c-1.1,0.67-2.24,1.35-3.37,2.03c-1.43,0.87-2.88,1.74-4.35,2.62        c-1.23,0.74-2.49,1.49-3.75,2.25c-1.37,0.82-2.77,1.66-4.17,2.5c-1.37,0.82-2.74,1.64-4.14,2.47        c-1.49,0.89-3.02,1.79-4.55,2.7c-2.28,1.35-4.6,2.72-6.96,4.11c-1.63,0.96-3.25,1.91-4.91,2.89c-1.49,0.87-3,1.75-4.51,2.64        c-1.56,0.91-3.12,1.82-4.71,2.74c-1.55,0.9-3.12,1.81-4.7,2.72c-1.65,0.95-3.32,1.92-5,2.88c-1.53,0.88-3.04,1.75-4.59,2.64        c-2.99,1.72-6.02,3.45-9.1,5.2c-1.53,0.87-3.09,1.75-4.64,2.63c-1.82,1.03-3.63,2.05-5.47,3.09        c-1.76,0.99-3.54,1.99-5.32,2.99c-1.73,0.97-3.47,1.94-5.22,2.92c-1.8,1-3.6,2.01-5.42,3.02c-1.97,1.09-3.97,2.2-5.96,3.3        c-2.39,1.32-4.79,2.64-7.21,3.97c-2.62,1.44-5.24,2.87-7.9,4.32c-1.82,0.99-3.66,1.99-5.5,2.99c-2,1.08-4.01,2.17-6.03,3.26        c-1.86,1-3.72,2-5.6,3.01c-2.16,1.16-4.34,2.32-6.53,3.49c-1.78,0.95-3.55,1.9-5.35,2.85c-2.98,1.58-5.99,3.17-9.02,4.76        c-2.27,1.19-4.56,2.39-6.85,3.59c-2.55,1.33-5.1,2.66-7.68,4c-1.86,0.97-3.74,1.93-5.62,2.9c-2.37,1.22-4.74,2.44-7.13,3.66        c-1.89,0.97-3.77,1.93-5.67,2.9c-2.66,1.36-5.35,2.71-8.04,4.07c-1.63,0.82-3.24,1.64-4.88,2.46        c-4.09,2.05-8.2,4.11-12.35,6.17c-1.7,0.84-3.41,1.68-5.11,2.53c-2.76,1.36-5.53,2.73-8.32,4.09        c-1.87,0.92-3.76,1.83-5.64,2.75c-2.76,1.34-5.54,2.69-8.32,4.03c-1.81,0.87-3.62,1.75-5.44,2.62        c-3.64,1.75-7.31,3.49-10.99,5.23c-1.34,0.63-2.68,1.27-4.03,1.91c-4.06,1.91-8.15,3.83-12.26,5.73        c-1.67,0.78-3.36,1.55-5.04,2.33c-3.12,1.44-6.25,2.88-9.39,4.31c-1.77,0.81-3.55,1.62-5.32,2.43        c-3.34,1.52-6.7,3.03-10.06,4.54c-1.48,0.66-2.95,1.33-4.43,1.99c-4.75,2.12-9.52,4.23-14.32,6.33        c-1.1,0.48-2.21,0.96-3.32,1.44c-3.83,1.67-7.67,3.33-11.52,4.99c-1.63,0.7-3.26,1.39-4.89,2.09        c-3.49,1.49-6.99,2.97-10.5,4.44c-1.59,0.67-3.18,1.34-4.78,2.01c-4.32,1.81-8.66,3.6-13.01,5.38        c-0.68,0.28-1.35,0.56-2.03,0.84c-5.09,2.08-10.2,4.14-15.33,6.19c-1.19,0.48-2.39,0.95-3.58,1.42        c-3.97,1.58-7.95,3.14-11.94,4.7c-1.5,0.59-3,1.17-4.51,1.75c-4.04,1.56-8.09,3.11-12.15,4.65c-1.15,0.43-2.29,0.87-3.44,1.3        c-10.53,3.97-21.12,7.85-31.76,11.63c-1.18,0.42-2.35,0.83-3.53,1.25c-4.26,1.5-8.52,2.99-12.79,4.46        c-1.21,0.41-2.41,0.83-3.62,1.24c-4.97,1.7-9.95,3.38-14.94,5.03c-0.32,0.11-0.63,0.21-0.95,0.32        c-0.51,0.17-1.02,0.34-1.52,0.51c-3.71,8.25-8.74,21.54-11.68,37.89c18.82-5.37,38.96-11.54,60.61-18.68        C1518.45,1415.65,1769.92,1254.13,1814.57,1216.05z"/>
					</g>
					<g class="st13">
						<path class="st1" d="M1814.57,1216.05c38.92-33.2,72.37-171.11,79.65-205.3c-3.74,0.26-7.2,0.55-10.24,0.82        c-0.16,0.01-0.32,0.03-0.49,0.05c-1.23,0.11-2.37,0.23-3.44,0.34c-0.28,0.03-0.57,0.06-0.84,0.08        c-1.12,0.12-2.17,0.23-3.05,0.33c-0.01,0-0.02,0-0.03,0l-87.49,185.39c-0.59,1.24-1.5,2.3-2.64,3.07        c-0.06,0.04-0.25,0.17-0.5,0.33c-0.02,0.01-0.04,0.03-0.06,0.04c-0.26,0.17-0.62,0.41-1.05,0.7        c-0.02,0.02-0.04,0.03-0.07,0.05c-0.4,0.26-0.86,0.57-1.39,0.92c-0.15,0.1-0.28,0.19-0.45,0.29c-0.63,0.41-1.34,0.88-2.14,1.4        c-0.1,0.07-0.22,0.14-0.32,0.21c-0.71,0.46-1.49,0.97-2.32,1.51c-0.27,0.17-0.54,0.35-0.82,0.53        c-0.74,0.48-1.52,0.98-2.34,1.52c-0.36,0.23-0.7,0.45-1.08,0.7c-0.98,0.64-2.02,1.31-3.12,2.01c-0.21,0.14-0.4,0.26-0.62,0.4        c-1.26,0.81-2.6,1.66-3.99,2.56c-0.59,0.38-1.21,0.77-1.82,1.16c-0.89,0.57-1.8,1.15-2.75,1.75c-0.69,0.44-1.4,0.89-2.12,1.34        c-0.98,0.62-1.99,1.26-3.02,1.9c-0.73,0.46-1.43,0.9-2.18,1.38c-1.56,0.98-3.17,1.99-4.84,3.03c-0.79,0.5-1.62,1.01-2.44,1.52        c-1.29,0.8-2.58,1.61-3.92,2.44c-0.92,0.57-1.87,1.16-2.82,1.75c-1.14,0.7-2.29,1.42-3.47,2.14        c-1.08,0.67-2.17,1.34-3.29,2.03c-1.19,0.73-2.42,1.48-3.65,2.24c-1.06,0.65-2.1,1.29-3.19,1.96        c-2.17,1.32-4.4,2.68-6.67,4.06c-1.1,0.67-2.24,1.35-3.37,2.03c-1.43,0.87-2.88,1.74-4.35,2.62        c-1.23,0.74-2.49,1.49-3.75,2.25c-1.37,0.82-2.77,1.66-4.17,2.5c-1.37,0.82-2.74,1.64-4.14,2.47        c-1.49,0.89-3.02,1.79-4.55,2.7c-2.28,1.35-4.6,2.72-6.96,4.11c-1.63,0.96-3.25,1.91-4.91,2.89c-1.49,0.87-3,1.75-4.51,2.64        c-1.56,0.91-3.12,1.82-4.71,2.74c-1.55,0.9-3.12,1.81-4.7,2.72c-1.65,0.95-3.32,1.92-5,2.88c-1.53,0.88-3.04,1.75-4.59,2.64        c-2.99,1.72-6.02,3.45-9.1,5.2c-1.53,0.87-3.09,1.75-4.64,2.63c-1.82,1.03-3.63,2.05-5.47,3.09        c-1.76,0.99-3.54,1.99-5.32,2.99c-1.73,0.97-3.47,1.94-5.22,2.92c-1.8,1-3.6,2.01-5.42,3.02c-1.97,1.09-3.97,2.2-5.96,3.3        c-2.39,1.32-4.79,2.64-7.21,3.97c-2.62,1.44-5.24,2.87-7.9,4.32c-1.82,0.99-3.66,1.99-5.5,2.99c-2,1.08-4.01,2.17-6.03,3.26        c-1.86,1-3.72,2-5.6,3.01c-2.16,1.16-4.34,2.32-6.53,3.49c-1.78,0.95-3.55,1.9-5.35,2.85c-2.98,1.58-5.99,3.17-9.02,4.76        c-2.27,1.19-4.56,2.39-6.85,3.59c-2.55,1.33-5.1,2.66-7.68,4c-1.86,0.97-3.74,1.93-5.62,2.9c-2.37,1.22-4.74,2.44-7.13,3.66        c-1.89,0.97-3.77,1.93-5.67,2.9c-2.66,1.36-5.35,2.71-8.04,4.07c-1.63,0.82-3.24,1.64-4.88,2.46        c-4.09,2.05-8.2,4.11-12.35,6.17c-1.7,0.84-3.41,1.68-5.11,2.53c-2.76,1.36-5.53,2.73-8.32,4.09        c-1.87,0.92-3.76,1.83-5.64,2.75c-2.76,1.34-5.54,2.69-8.32,4.03c-1.81,0.87-3.62,1.75-5.44,2.62        c-3.64,1.75-7.31,3.49-10.99,5.23c-1.34,0.63-2.68,1.27-4.03,1.91c-4.06,1.91-8.15,3.83-12.26,5.73        c-1.67,0.78-3.36,1.55-5.04,2.33c-3.12,1.44-6.25,2.88-9.39,4.31c-1.77,0.81-3.55,1.62-5.32,2.43        c-3.34,1.52-6.7,3.03-10.06,4.54c-1.48,0.66-2.95,1.33-4.43,1.99c-4.75,2.12-9.52,4.23-14.32,6.33        c-1.1,0.48-2.21,0.96-3.32,1.44c-3.83,1.67-7.67,3.33-11.52,4.99c-1.63,0.7-3.26,1.39-4.89,2.09        c-3.49,1.49-6.99,2.97-10.5,4.44c-1.59,0.67-3.18,1.34-4.78,2.01c-4.32,1.81-8.66,3.6-13.01,5.38        c-0.68,0.28-1.35,0.56-2.03,0.84c-5.09,2.08-10.2,4.14-15.33,6.19c-1.19,0.48-2.39,0.95-3.58,1.42        c-3.97,1.58-7.95,3.14-11.94,4.7c-1.5,0.59-3,1.17-4.51,1.75c-4.04,1.56-8.09,3.11-12.15,4.65c-1.15,0.43-2.29,0.87-3.44,1.3        c-10.53,3.97-21.12,7.85-31.76,11.63c-1.18,0.42-2.35,0.83-3.53,1.25c-4.26,1.5-8.52,2.99-12.79,4.46        c-1.21,0.41-2.41,0.83-3.62,1.24c-4.97,1.7-9.95,3.38-14.94,5.03c-0.32,0.11-0.63,0.21-0.95,0.32        c-0.51,0.17-1.02,0.34-1.52,0.51c-3.71,8.25-8.74,21.54-11.68,37.89c18.82-5.37,38.96-11.54,60.61-18.68        C1518.45,1415.65,1769.92,1254.13,1814.57,1216.05z"/>
					</g>
				</g>
				<g class="st13">
					<path class="st1" d="M2010.23,1171.14c27.01-9.15,60.75-27.35,69.9-32.92c-9.7-12.27-18.01-11.6-26.89-8.78       c-18.57,5.86-72.8,36.08-96.34,49.44c-6.35,7.4-13.64,15.62-13.64,15.62S1979.04,1181.7,2010.23,1171.14z"/>
				</g>
				<g>
					<g>
						<path class="st65" d="M1424.34,1709.29c-85.92,0-135.64-26.14-139.25-28.11c-7.4-4.03-10.14-13.3-6.1-20.7        c4.03-7.39,13.27-10.14,20.66-6.13c1.53,0.81,148.55,76.71,379.67-47.3c230.54-123.7,214.8-294.41,214.62-296.12        c-0.85-7.8,4.36-14.98,12.04-16.59c63.58-13.37,171.82-47.43,191.63-81.93c3.5-6.09,2.84-10.2,1.88-13.09        c-23.03-69.21-34.62-65.55-43.95-62.6c-19.16,6.05-82.98,41.84-105.95,55.12c-5.13,2.96-11.52,2.69-16.37-0.7        c-4.86-3.39-7.32-9.28-6.31-15.12c10.97-63.34,17.86-138.94,11.58-156.75c-15.77-2.95-41.79-1.34-57.28,0.22l-85.67,181.52        c-1.12,2.37-2.83,4.41-4.97,5.93c-2.96,2.1-299.17,210.94-603.09,295.54c-8.12,2.27-16.54-2.5-18.8-10.62        s2.49-16.54,10.61-18.8c281.88-78.47,557.56-266.01,590.36-288.76l87.56-185.54c2.22-4.69,6.67-7.94,11.81-8.62        c5.42-0.71,53.65-6.75,80.73,0.37c9.88,2.6,35.1,9.25,12.37,159.11c27.44-15.3,67.13-36.64,84.2-42.03        c45.79-14.49,64.97,30.57,82.11,82.08c4.18,12.56,2.67,25.68-4.37,37.94c-29.04,50.56-156.26,83.84-199.26,93.81        c-0.29,46.42-18.47,198.44-231.07,312.52C1584.33,1692.67,1492.82,1709.29,1424.34,1709.29z"/>
					</g>
					<g>
						<path class="st65" d="M1945.89,1020.56c-1.55,0-3.12-0.24-4.67-0.73c-8.03-2.58-12.45-11.17-9.88-19.2        c10.67-33.31,18.07-68.33,18.75-86.28c-13.01,15.82-34.2,53.78-51.96,94.17c-3.4,7.72-12.41,11.23-20.12,7.83        c-7.72-3.39-11.23-12.4-7.83-20.12c56.61-128.79,82.17-121.32,91.78-118.53c4.22,1.23,10.08,4.28,14.09,11.82        c12.94,24.35-6.63,92.33-15.64,120.43C1958.34,1016.43,1952.34,1020.56,1945.89,1020.56z"/>
					</g>
					<g>
						<path class="st65" d="M2113.98,1209.77c-5.19,0-10.25-2.65-13.11-7.43c-4.33-7.23-1.98-16.61,5.26-20.94        c49.25-29.48,63.66-66.64,66.94-87.55c-19.25,9.33-53.46,29.63-82.24,48.25c-7.08,4.58-16.53,2.55-21.11-4.52        c-4.58-7.08-2.55-16.53,4.52-21.11c99.27-64.23,111.6-59.54,118.21-57.04c5.16,1.96,8.96,6.1,10.42,11.36        c4.17,15.02,2.86,86.57-81.06,136.8C2119.35,1209.06,2116.65,1209.77,2113.98,1209.77z"/>
					</g>
					<g>
						<path class="st65" d="M1571.63,1469.49c5.85,39.76,7.52,72.15,51.57,80.97c12.32,3.06,26.06,4.77,41.01,8.32        c-32.82,24.71-90.73,22.28-105.78-21.81C1550.57,1513.76,1556.53,1487.58,1571.63,1469.49L1571.63,1469.49z"/>
					</g>
				</g>
			</g>
		</g>
		<g>
			<g>
				<path class="st1" d="M328.46,396.96c18.64-30.49,27.82-67.09,23.89-105.38c-9.54-92.94-92.62-160.55-185.56-151.01      C73.85,150.11,6.24,233.19,15.79,326.13s92.62,160.55,185.56,151.01c25.85-2.65,49.73-11.01,70.55-23.68l78.29,17.56      L328.46,396.96z"/>
			</g>
			<g class="st13">
				<g>
					<path class="st1" d="M170.12,172.93c86.82-8.91,165.01,49.5,182.72,132.99c0.02-5.96-0.24-11.98-0.86-18.05       c-9.54-92.94-92.62-160.55-185.56-151.01C73.47,146.42,5.86,229.5,15.41,322.44c0.63,6.09,1.58,12.07,2.82,17.93       C18.56,254.98,83.27,181.85,170.12,172.93z"/>
				</g>
			</g>
			<g>
				<path class="st53" d="M183.94,492.91C90.82,492.92,10.7,422.25,0.98,327.65c-5.02-48.91,9.3-96.84,40.33-134.97      c31.03-38.13,75.05-61.9,123.96-66.92c101-10.38,191.52,63.33,201.89,164.29c3.92,38.17-3.89,75.67-22.61,108.89l19.91,67.89      c1.48,5.06,0.18,10.52-3.42,14.36c-3.61,3.85-8.98,5.49-14.11,4.34l-72.57-16.28c-22.05,12.45-46.07,20.07-71.49,22.68      C196.52,492.59,190.19,492.91,183.94,492.91z M184.19,154.56c-5.25,0-10.54,0.27-15.87,0.82      C83.68,164.06,21.9,239.98,30.59,324.61c8.69,84.63,84.59,146.41,169.24,137.72c23.03-2.36,44.67-9.63,64.34-21.59      c3.29-2,7.23-2.65,10.99-1.81l53.64,12.03l-14.61-49.83c-1.18-4.03-0.61-8.37,1.58-11.95c17.73-29.01,25.26-62.24,21.79-96.11      C329.41,213.8,262.24,154.56,184.19,154.56z"/>
			</g>
			<g class="st16">
				<path class="st53" d="M329.41,395.33c-46.34,39.19-110.17,56.36-173.56,40.58c-70.3-17.5-122.1-71.03-140.73-136      c-0.45,8.61-0.25,17.37,0.66,26.22c9.54,92.94,92.62,160.55,185.56,151.01c25.85-2.65,49.73-11.01,70.55-23.68l78.29,17.56      l-21.72-74.06C328.79,396.42,329.09,395.87,329.41,395.33z"/>
			</g>
			<g>
				<path class="st29" d="M238.16,261.35L238.16,261.35c-14.64-14.64-38.38-12.02-53.02,2.62l-2.28,2.28l-2.28-2.28      c-14.64-14.64-38.38-17.26-53.02-2.62l0,0c-14.64,14.64-14.64,38.38,0,53.02l2.28,2.28l46.03,46.03      c3.86,3.86,10.12,3.86,13.98,0l46.03-46.03l2.28-2.28C252.8,299.73,252.8,275.99,238.16,261.35z"/>
			</g>
		</g>
	</g>
</g>
</svg>