<svg xmlns="http://www.w3.org/2000/svg" xmlns:xlink="http://www.w3.org/1999/xlink" version="1.1" id="Layer_1" x="0px" y="0px" style="enable-background:new 0 0 2944.99 2663.43;" xml:space="preserve" viewBox="0 0.01 2944.98 2663.42">
<style type="text/css">
	.st0{fill:#FEF26B;}
	.st1{opacity:0.3;}
	.st2{fill:#490763;}
	.st3{opacity:0.2;}
	.st4{fill:#390075;}
	.st5{opacity:0.6;}
	.st6{fill:#F3F3F3;}
	.st7{fill:#FD6CCB;}
	.st8{fill:#79CAF2;}
	.st9{fill:#F948A9;}
	.st10{fill:#F1F1F1;}
	.st11{fill:#FDC1E5;}
	.st12{fill:#FFEBF6;}
	.st13{fill:#F4C739;}
	.st14{fill:#F22F54;}
	.st15{fill:#F578FF;}
	.st16{fill:#FFFFFF;}
	.st17{opacity:0.35;}
	.st18{fill:#F69412;}
	.st19{fill:#FFF8EE;}
	.st20{fill:#FC7D27;}
	.st21{fill:#FCE8D0;}
	.st22{fill:#650000;}
	.st23{fill:#F5F5F5;}
	.st24{fill:#FF9878;}
	.st25{fill:#ED6E5D;}
	.st26{fill:#FD9D24;}
	.st27{fill:#F6F6F6;}
	.st28{fill:#F93838;}
	.st29{opacity:0.5;}
	.st30{fill:#FF0068;}
	.st31{fill:#956EFF;}
	.st32{fill:#48B5FF;}
	.st33{fill:#F7F7F7;}
	.st34{fill:#371A45;}
	.st35{fill:#000070;}
	.st36{fill:#B5B7C6;}
	.st37{opacity:0.55;}
	.st38{fill:#9C9EAD;}
	.st39{fill:#220F2D;}
	.st40{fill:#F4F4F4;}
	.st41{fill:#FFDE55;}
	.st42{fill:#919DB5;}
	.st43{fill:#000072;}
	.st44{fill:#FF5C83;}
	.st45{fill:#C77CF7;}
	.st46{fill:#EF2B2B;}
	.st47{fill:#FF8080;}
	.st48{fill:#5B5B7C;}
	.st49{fill:#E0E0E0;}
	.st50{fill:#FFC5D8;}
	.st51{fill:#F4408A;}
	.st52{fill:#FFD45A;}
	.st53{fill:#FF92B9;}
	.st54{fill:#FBFBFB;}
	.st55{fill:#6ED9FF;}
	.st56{fill:#4DB3FF;}
	.st57{fill:#F2C32A;}
	.st58{fill:#72AEF7;}
	.st59{fill:#B6ABBA;}
	.st60{fill:#EF3737;}
	.st61{fill:#F7C128;}
	.st62{fill:#E2673B;}
	.st63{fill:#F8B92F;}
	.st64{fill:#EFC411;}
	.st65{fill:#FFD243;}
	.st66{fill:#FF792E;}
	.st67{fill:#EDECE8;}
	.st68{fill:#FF73E5;}
	.st69{fill:#F7B1A4;}
	.st70{fill:#F27A4C;}
	.st71{fill:#F8331D;}
	.st72{fill:#F7BB9E;}
	.st73{fill:#50BCFF;}
	.st74{fill:#4B4B5B;}
	.st75{fill:#DB2828;}
	.st76{fill:#DD1919;}
	.st77{fill:#EF492E;}
	.st78{opacity:0.61;}
	.st79{fill:#FF8939;}
	.st80{fill:#FFE566;}
	.st81{fill:#5BA5E8;}
	.st82{fill:#8DDCFF;}
	.st83{fill:#B2B9D3;}
	.st84{fill:#FCAC38;}
	.st85{opacity:0.1;}
	.st86{fill:#82BEF4;}
	.st87{fill:#111A28;}
	.st88{fill:#EF9D30;}
	.st89{fill:#EED043;}
	.st90{fill:#FCDA4C;}
	.st91{fill:#EF4343;}
	.st92{fill:#4BC930;}
	.st93{fill:none;stroke:#490763;stroke-width:36.8533;stroke-linecap:round;stroke-linejoin:round;stroke-miterlimit:10;}
</style>
<g>
	<g>
		<g>
			<path class="st0" d="M2756.62,2307.6c-184.25,146.4-484.65,173.35-748.1-25.85l41.95-274.3     C2106.42,2146.1,2294.67,2483.15,2756.62,2307.6z"/>
		</g>
		<g class="st1">
			<path class="st2" d="M2201.47,2234.45l-15.45-10.2h-168.7l33.15-216.8C2073.97,2065.7,2120.82,2158.9,2201.47,2234.45z"/>
		</g>
		<g class="st3">
			<path class="st4" d="M2756.62,2307.6c-87.8,69.75-202.05,112.45-326.1,116.35c-33.05-19.05-67.7-50.45-97.5-102.55     C2438.27,2366.6,2576.67,2376,2756.62,2307.6z"/>
		</g>
		<g>
			<path class="st0" d="M2905.52,2102.15c0,0.05,0,0.05-0.05,0.1c0,0.05-0.05,0.1-0.05,0.15c-3.2,9.15-6.75,18.15-10.55,27     c-30.05,69.65-77.9,130.3-138.15,178.15l-0.05,0.05h-0.05c-461.95,175.55-650.2-161.5-706.15-300.15l10.25-67l21.95-143.7     c0,0,153.35-175,381.7-53.35c190.9,101.75,304.95,105.8,380.05,46.85c22.05-17.35,54.4-7.6,62.75,19.2     c11.55,37.15,18.6,73.55,21.55,108.9v0.05C2934.12,1983.75,2925.57,2045.55,2905.52,2102.15z"/>
		</g>
		<g class="st5">
			<path class="st6" d="M2924.47,1883.6c-3.05-13.4-6.7-26.9-10.9-40.55c-8.35-26.8-40.7-36.55-62.75-19.2     c-75.1,58.95-189.15,54.9-380.05-46.85c-228.35-121.65-381.7,53.35-381.7,53.35l-21.95,143.7l-8.2,53.5     c-3.1-7.05-5.9-13.8-8.45-20.1l10.25-67l21.95-143.7c0,0,153.35-175,381.7-53.35c190.9,101.75,304.95,105.8,380.05,46.85     c22.05-17.35,54.4-7.6,62.75,19.2C2914.97,1834.55,2920.72,1859.3,2924.47,1883.6z"/>
		</g>
		<g>
			<path class="st7" d="M2894.87,2129.4c-133.35,91.05-295.1,28.35-295.1,28.35l-371.25-83.5l-115-215.45     c0,0,204.15-176.25,395.85,0c191.65,176.3,375.3,194.45,419.35,59.6C2935.02,1994.4,2922.37,2065.65,2894.87,2129.4z"/>
		</g>
		<g class="st3">
			<path class="st4" d="M2894.87,2129.4c-133.35,91.05-295.1,28.35-295.1,28.35l-371.25-83.5l-115-215.45c0,0,21.4-18.45,56.8-37.5     l47.4,127.2l356.85,132.2c0,0,107.35,59.1,227.25,34.9c44-8.85,80.6-39.35,97.75-80.8c14.35-34.6,24.45-71.65,29.55-110.9     C2934.42,1997.85,2921.72,2067.2,2894.87,2129.4z"/>
		</g>
		<g class="st3">
			<path class="st4" d="M2926.72,1924.05c-47.25,128.65-228.4,108.55-417.35-65.25c-191.7-176.25-395.85,0-395.85,0l49.35,92.5     l-62.25-87.55c0,0,180-200.85,392.6-50.5c212.6,150.4,397.05,144.95,423.55,5.55     C2924.42,1854.55,2927.62,1889.75,2926.72,1924.05z"/>
		</g>
		<g class="st5">
			<path class="st6" d="M2921.57,2044.3c3.3-28.75,3.8-58.4,1.3-88.85c-44.05,134.85-227.7,116.7-419.35-59.6     c-157.5-144.8-323.45-51.65-377.6-13.8l-12.4-23.25c0,0,204.15-176.25,395.85,0c191.65,176.3,375.3,194.45,419.35,59.6     C2932.32,1962.1,2929.72,2004.25,2921.57,2044.3z"/>
		</g>
		<g>
			<path class="st8" d="M2881.07,2135.85c-17.48,60.08-62.92,116.84-124.35,171.7l-0.05,0.05h-0.05     c-461.95,175.55-650.2-161.5-706.15-300.15c-13.65-33.7-19.45-55.7-19.45-55.7s6.25-8.65,29.7-11.3     c44.45-5.1,150.6,11.3,392.8,148.8C2718.77,2239.8,2836.02,2181.1,2881.07,2135.85z"/>
		</g>
		<g class="st3">
			<path class="st4" d="M2878.87,2135.85c-13.15,58.92-59.95,115.84-124.45,171.75c-461.95,175.55-650.2-161.5-706.15-300.15     c-13.65-33.7-19.45-55.7-19.45-55.7s6.25-8.65,29.7-11.3c13.6-1.55,33-1.1,60.35,4.25c5.42,13.01,11.24,25.86,17.46,38.51     c13.8,28.07,29.61,55.17,47.58,80.78c19.55,27.86,41.69,53.93,66.43,77.32c26.6,25.14,56.19,47.1,88.16,64.92     c35.34,19.7,73.42,34.24,112.77,43.58c45.86,10.89,93.19,14.76,140.25,13.3c27.23-0.85,54.39-3.47,81.33-7.5     c14.62-2.19,29.04-5.47,43.62-7.78c14.52-2.3,28.83-9.36,41.91-16.07c5.13-2.63,9.95-4.79,13.55-9.26     c3.28-4.07,6.73-7.96,10.28-11.83c10.95-11.96,21.9-23.91,32.86-35.87C2844.57,2164.8,2865.12,2149.7,2878.87,2135.85z"/>
		</g>
		<g>
			<path class="st8" d="M2905.47,2102.25c0,0.05-0.05,0.1-0.05,0.15c-0.9,2.05-7.75,16.85-24.35,33.45L2905.47,2102.25z"/>
		</g>
		<g>
			<path class="st4" d="M2801.5,2022.15c-86.55,0-195.81-54.35-302.3-152.29c-75.35-69.29-161.28-90.41-255.41-62.75     c-71.06,20.87-119.98,62.64-120.47,63.06c-6.27,5.41-15.74,4.72-21.16-1.55c-5.41-6.27-4.72-15.75,1.55-21.16     c2.19-1.89,54.39-46.45,131.62-69.14c72.14-21.2,180-26.35,284.17,69.45c116.66,107.29,239.08,160.85,319.47,139.82     c37.26-9.76,62.65-34.62,75.46-73.91c2.57-7.88,11.04-12.19,18.91-9.61c7.88,2.57,12.18,11.04,9.61,18.91     c-15.95,48.93-49.28,81.3-96.38,93.63C2832.42,2020.32,2817.34,2022.14,2801.5,2022.15z"/>
		</g>
		<g>
			<path class="st4" d="M2512.57,2372.14c-77.16,0-148.49-16.71-213.5-50.13c-212.69-109.37-279.8-355.99-282.56-366.44     c-1.15-4.35-0.28-8.98,2.36-12.62c10.08-13.92,78.78-72.92,442.05,133.25c185.23,105.13,293.19,103.98,351.14,84.52     c60.01-20.16,78.87-62.61,79.64-64.41c3.26-7.57,12.05-11.14,19.64-7.92c7.6,3.21,11.19,11.91,8.02,19.53     c-0.95,2.28-24,55.97-96.59,80.84c-92.81,31.81-219.53,2.71-376.67-86.46c-286.28-162.49-376.56-151.71-397.59-144.35     c14.89,46.97,87.13,246.43,264.47,337.49c122.33,62.81,269.81,62.18,438.35-1.88c7.73-2.92,16.41,0.95,19.35,8.69     c2.94,7.74-0.95,16.41-8.69,19.36C2673.38,2355.29,2590.04,2372.14,2512.57,2372.14z"/>
		</g>
		<g>
			<path class="st4" d="M2411.37,2439.27c-5.33,0-10.67-0.07-16.01-0.21c-138.08-3.68-274.97-53.94-395.88-145.35     c-6.61-5-7.92-14.4-2.92-21.01c4.99-6.61,14.4-7.92,21.01-2.92c273.23,206.57,551.46,152.45,706.69,43.33     c163.98-115.26,228.58-306.55,168.59-499.2c-2.46-7.88-8.34-13.79-16.15-16.23c-7.97-2.47-16.36-0.89-23.03,4.34     c-85.83,67.4-211.78,52.98-396.37-45.37c-90.06-47.99-178.34-54.34-262.39-18.88c-63.32,26.72-100.59,68.46-100.96,68.88     c-5.47,6.21-14.95,6.82-21.16,1.35c-6.22-5.46-6.84-14.92-1.39-21.14c1.66-1.89,41.38-46.66,110.6-76.2     c64.03-27.33,166.22-46.13,289.4,19.52c172.81,92.08,288.4,107.41,363.73,48.25c14.33-11.25,33.2-14.75,50.47-9.39     c17.11,5.32,30.53,18.77,35.88,35.95c64,205.53-4.96,409.64-179.98,532.66C2647.9,2403.46,2531.22,2439.27,2411.37,2439.27z"/>
		</g>
		<g>
			<path class="st9" d="M2068.52,1251.75c0,0,245-50.83,242.5,158.33s-335-73.33-335-73.33L2068.52,1251.75z"/>
		</g>
		<g>
			<path class="st4" d="M2250.39,1502.03c-99.8,0-263.67-136.51-284.08-153.85c-6.31-5.36-7.08-14.83-1.72-21.14     c5.36-6.32,14.83-7.08,21.14-1.72c80.86,68.68,229.85,168.24,285.4,142.9c16.14-7.35,24.52-26.97,24.89-58.31     c0.61-50.53-14.25-88.66-44.16-113.34c-64.45-53.19-179.16-30.36-180.31-30.12c-8.1,1.67-16.04-3.55-17.72-11.66     c-1.67-8.11,3.53-16.04,11.64-17.72c5.26-1.1,129.75-26.02,205.39,36.29c37.32,30.74,55.87,76.8,55.16,136.91     c-0.53,43.98-14.81,72.67-42.46,85.26C2273.7,1500.01,2262.51,1502.02,2250.39,1502.03z"/>
		</g>
		<g>
			<path class="st2" d="M1706.04,1351.75c-4.52,0-8.98-2.03-11.94-5.9c-3.03-3.97-74.7-98.86-110.06-230.2     c-33.91-125.96-141.79-283.82-142.88-285.4c-4.69-6.83-2.96-16.16,3.86-20.86c6.82-4.69,16.16-2.97,20.86,3.86     c4.55,6.62,111.86,163.62,147.12,294.6c33.84,125.69,104.23,218.87,104.94,219.8c5.03,6.58,3.76,16-2.82,21.02     C1712.41,1350.75,1709.21,1351.75,1706.04,1351.75z"/>
		</g>
		<g>
			<path class="st7" d="M2245.82,979.3c-0.2,73.8-13.7,160.95-51.75,236.45c-0.75,1.5-1.5,3-2.3,4.5     c-39.45,75.95-104.2,139.6-205.75,165.25c-132.5,33.45-261.2-3.9-361.8-57.2c-106.3-56.3-181.25-130.5-196.35-158     c-25.6-46.65-90.1-233.05-123.95-328.15v-0.05c-5-14-9.3-26.05-12.7-35.35c-4.65-12.65-6.95-30.9-7.55-52.55     c-1.15-43.5,4.45-100.5,11.35-151.7c9.35-69.45,21-128.25,21-128.25l77.5-55.3c0,0,107.35,76.9,181.05,205.15     c4.45,7.7,9.1,15.3,14,22.7c0,0.05,0,0.05,0,0.05c3.55,5.35,7.15,10.65,10.9,15.85c45.2,62.75,106.15,112.75,178.4,141.25     c79.95,31.55,181.7,41.7,293.15-19.45c0,0,125-50.25,160,69.75c1,3.45,1.95,7.1,2.9,10.9c1,4,1.9,8.15,2.75,12.5     c2.45,11.95,4.5,25.25,6,39.55C2244.72,936.25,2245.87,957.2,2245.82,979.3z"/>
		</g>
		<g>
			<path class="st8" d="M2194.07,1215.75c-39.2,77.95-104.5,143.6-208.05,169.75c-272.5,68.75-528.8-161.65-558.15-215.2     s-110-291.05-136.65-363.55c-14-38.05-6.5-127.65,3.8-204.25c21.35-46.6,39-81.3,39-81.3s113.4,13.65,187,179.8     C1585.72,847.05,1689.57,1264.8,2194.07,1215.75z"/>
		</g>
		<g class="st5">
			<path class="st6" d="M1634.48,936.79c0,0,94.88,373.38,526.54,325l16.67-39.38C2177.69,1222.41,1822.95,1286.92,1634.48,936.79z"/>
		</g>
		<g class="st5">
			<path class="st6" d="M2242.67,917.2c-2.9,1.95-5.8,3.9-8.75,5.9c-377.55,253.3-556.4-135.55-560.55-144.8     c241.55,314.9,510.85,138.65,563.3,99.35C2239.12,889.6,2241.17,902.9,2242.67,917.2z"/>
		</g>
		<g>
			<path class="st0" d="M2233.92,865.15c-397.2,299.05-642.4-212.1-645.35-218.3c46.05,70.15,111.05,126.25,189.3,157.1     c79.95,31.55,181.7,41.7,293.15-19.45c0,0,125-50.25,160,69.75C2232.02,857.7,2232.97,861.35,2233.92,865.15z"/>
		</g>
		<g class="st5">
			<path class="st6" d="M2231.02,854.25c-45.2-81.95-148.1-40.6-148.1-40.6c-111.45,61.15-213.2,51-293.15,19.45     c-66.65-26.3-123.75-70.9-167.65-126.95c0-0.05-0.05-0.1-0.1-0.15c-20.75-33-32.15-56.45-33.35-59     c46.05,70.1,111,126.1,189.2,156.95c79.95,31.55,181.7,41.7,293.15-19.45C2071.02,784.5,2196.02,734.25,2231.02,854.25z"/>
		</g>
		<g>
			<path class="st4" d="M1882.77,1413.19c-108.35,0-205.34-38.59-274.21-76.26c-99.23-54.29-176.34-127.46-193.85-159.41     c-22.83-41.66-73.38-184.66-110.3-289.07c-11.2-31.68-20.87-59.05-27.3-76.51c-27.83-75.59,22.05-329.81,24.19-340.6     c1.61-8.12,9.51-13.41,17.63-11.8c8.12,1.61,13.41,9.5,11.8,17.63c-14.1,71.17-46.15,268.2-25.46,324.4     c6.49,17.64,16.2,45.09,27.43,76.88c34.51,97.61,86.66,245.13,108.32,284.65c12.68,23.14,81.15,92.37,181.94,147.51     c86.18,47.15,218.5,95.89,359.39,60.35c82.4-20.79,145.97-69.38,188.93-144.42c69.78-121.88,68.52-288.63,45.34-368.09     c-8.62-29.55-23.95-49.89-45.57-60.45c-38.74-18.93-87.23-2.26-93.74,0.14c-98.88,53.97-201.47,60.63-304.96,19.79     c-86.49-34.14-161.35-100.31-210.78-186.33c-71.25-123.99-175.74-199.7-176.79-200.45c-6.74-4.82-8.28-14.19-3.46-20.93     c4.83-6.74,14.19-8.29,20.93-3.46c4.49,3.22,110.87,80.31,185.33,209.89c46.06,80.15,115.59,141.72,195.78,173.37     c95.12,37.54,189.47,31.26,280.43-18.68c0.53-0.29,1.07-0.54,1.63-0.77c2.63-1.05,65.11-25.62,118.6,0.38     c29.63,14.4,50.28,41.02,61.39,79.11c22.96,78.73,30.21,254.6-48.11,391.4c-47.16,82.38-117.02,135.74-207.62,158.6     C1953.26,1409.24,1917.43,1413.19,1882.77,1413.19z"/>
		</g>
		<g class="st3">
			<path class="st4" d="M1758.92,1361.3l-134.7-33c-106.3-56.3-181.25-130.5-196.35-158c-25.6-46.65-90.1-233.05-123.95-328.15     v-0.05c-7.05-30.55-13.9-60.2-20.25-87.9c-1.15-43.5,4.45-100.5,11.35-151.7c9.35-69.45,21-128.25,21-128.25l77.5-55.3     c0,0,107.35,76.9,181.05,205.15c4.45,7.7,9.1,15.3,14,22.7c0,0.05,0,0.05,0,0.05c3.55,5.35,7.15,10.65,10.9,15.85     C1572.02,780.9,1565.72,1012.15,1758.92,1361.3z"/>
		</g>
		<g>
			<path class="st9" d="M2778.52,1644.25c0,0-1.15-1.75-3.65-4.8c-19.95-24.7-125.35-136.65-398.85-138.3     c0,0-113.3,193.95-290.8,155.6c-126.95-27.4-201.5-36.1-233.65-38.8c-12.8-1.05-18.9-1.2-18.9-1.2l-13.1-252.55     c0,0,116.45,34.2,334.8-20.8c211.9-53.4,577-124.85,621.05,264.4c0.65,5.85,1.25,11.85,1.75,17.95     C2777.72,1631.8,2778.17,1638,2778.52,1644.25z"/>
		</g>
		<g class="st5">
			<path class="st6" d="M2778.52,1644.25c0,0-1.05-1.55-3.25-4.3c-44.55-388.05-409.15-316.65-620.9-263.3     c-202.9,51.1-317.8,25.15-333.05,21.2l-1.75-33.65c0,0,116.45,34.2,334.8-20.8C2372.67,1288.4,2753.52,1214.25,2778.52,1644.25z"/>
		</g>
		<g>
			<path class="st4" d="M2132.29,1676.87c-16.12,0-32.87-1.7-50.24-5.45c-173.44-37.45-248.96-39.65-249.7-39.67     c-7.84-0.19-14.23-6.38-14.63-14.22l-13.1-252.57c-0.25-4.86,1.87-9.54,5.69-12.55c3.81-3.01,8.84-3.98,13.5-2.63     c1.3,0.38,116.17,32.18,326.9-20.91c177.57-44.73,377.14-77.21,511.03,21.02c79.51,58.34,123.85,157.08,131.78,293.48     c0.39,6.75-3.78,12.93-10.19,15.09c-6.4,2.17-13.46-0.23-17.24-5.84c-0.88-1.28-93.81-132.15-381.76-136.4     C2362.96,1549.36,2271.69,1676.87,2132.29,1676.87z M1846.97,1602.53c29.16,2.15,105.17,10.14,241.4,39.55     c164.61,35.55,273.62-146.68,274.7-148.53c2.71-4.62,7.5-7.59,13.04-7.42c219.95,1.35,333.99,72.28,383.52,116.09     c-13.27-104.86-52.08-181.49-115.66-228.14c-124.59-91.41-325.14-56.63-485.95-16.12c-170.49,42.95-279.73,32.53-322.44,25.03     L1846.97,1602.53z"/>
		</g>
		<g class="st3">
			<path class="st4" d="M2778.52,1617.7l-1.35,8.05l-2.3,13.7c-19.95-24.7-125.35-136.65-398.85-138.3c0,0-113.3,193.95-290.8,155.6     c-126.95-27.4-201.5-36.1-233.65-38.8c-8.4-34.35-9.65-62.75-10.55-69.35c-2.5-18.2,91.5-34,91.5-34l152.7-13.45l192.2-13.95     c382.35-134.7,480.6,71.9,498,120.6C2777.62,1614.05,2778.52,1617.7,2778.52,1617.7z"/>
		</g>
		<g>
			<path class="st4" d="M1881.01,1546.75c-6.9,0-13.12-4.79-14.64-11.82c-1.76-8.1,3.38-16.08,11.47-17.84     c229.46-49.89,496.61-31.11,499.28-30.92c8.26,0.61,14.47,7.79,13.86,16.05c-0.6,8.26-7.77,14.47-16.05,13.87     c-2.63-0.19-265.58-18.63-490.72,30.31C1883.14,1546.64,1882.06,1546.75,1881.01,1546.75z"/>
		</g>
		<g>
			<path class="st10" d="M2392.67,2226.75c0,0-27.9,10.1-74,22.1c-76.35,19.75-202.65,44.6-334.9,36.8c-1.1-0.05-2.15-0.15-3.25-0.2     c-7.6-0.5-15.25-1.1-22.9-1.85c-6.05-0.5-12.15-1.15-18.25-1.85c0,0,3.45,3.25,8.9,9.5c18.6,21.15,60.05,76.4,67.75,155.5     c10,102.5,1.65,203.35-120,201.65c0,0-0.7-0.05-2-0.25c-10.75-1.5-62.75-12.2-108.85-80.55c0,0-26.25,2-67.6-1.3     c-74.4-6-197.75-29.3-304.9-112.9c0,0-15.7,0.5-42.65-2.35c-78.45-8.25-252.15-44.8-408.9-204.5     c-41.05-41.75-80.9-92-117.6-152.3c0,0-265.95,121.8-554.75,3h-0.05c-36.85-15.15-74.05-34.25-111.15-58     c-103.4-66.2-143.95-199.1-90.15-309.5c1.15-2.3,2.3-4.6,3.5-6.9c15.15-28.95,43.3-49.6,75.9-51.85     c33.25-2.25,74.8,13.25,107.95,84.5c0,0,41.2,32,121.95,45.7c27.85,4.7,60.45,7.25,97.65,5.55c0,0-303.35-58.35-305-298.35     c-1.7-240,31.65-593.3,28.3-710c-3.3-116.65-45.35-167.9-45.35-167.9c-0.75-0.5-1.5-1-2.25-1.55     c-39.15-26.15-73.9-57.15-99.65-91.65c-48.35-64.6-65.2-141.65-20.65-223.1c24.1-44,63.5-78.35,111.3-93.7     c29.75-9.55,57.1-10.45,82.35-3.4c49.9,13.85,91.45,58.85,126,129.35c2.8,5.7,5.55,11.55,8.25,17.6l705-155.65     c53.3-116.1,152.95-150.5,229.55-115.25c73.7,33.95,126.1,132.45,95.05,284.85c0,0-17.5,76.25-78.75,150     c0,0,192.5,337.1,182.5,650.4c0,0,160-26.65,350,240c0,0,51.65,65,58.35,198.35c0,0,80,85,151.65,168.35     c38.85,45.15,130.55,52.1,206.4,49.05c0,0,0,0,0-0.05c64.15-2.6,116.95-12.35,116.95-12.35s105.8,37.35,147.4,160.45     c6.6,19.35,11.55,40.8,14.25,64.55C2576.02,2221.75,2472.67,2270.1,2392.67,2226.75z"/>
		</g>
		<g>
			<path class="st11" d="M2392.67,2226.75c0,0-27.9,10.1-74,22.1c74.3-212.95-41.25-414.7-41.25-414.7s0,0,0-0.05     c64.15-2.6,116.95-12.35,116.95-12.35s141.65,50,161.65,225S2472.67,2270.1,2392.67,2226.75z"/>
		</g>
		<g>
			<path class="st11" d="M1896.02,2648.4c0,0-59.15-4.15-110.85-80.8c0,0-26.25,2-67.6-1.3v-0.05c24-80.45,0-147,0-147     s194.65-78.55,230.7-128c18.6,21.15,60.05,76.4,67.75,155.5C2026.02,2549.25,2017.67,2650.1,1896.02,2648.4z"/>
		</g>
		<g>
			<path class="st11" d="M1741.73,1281.94c0,0-7.04,213.02-214.5,265.79l-47.46-46.59c0,0-196.17-6.02-102.46-244.58     c0,0,88.15-133.14,208.59-68.59S1741.73,1281.94,1741.73,1281.94z"/>
		</g>
		<g>
			<path class="st11" d="M288.77,2097.25h-0.05c-36.85-15.15-74.05-34.25-111.15-58c-103.4-66.2-143.95-199.1-90.15-309.5     c1.15-2.3,2.3-4.6,3.5-6.9c15.15-28.95,43.3-49.6,75.9-51.85c33.25-2.25,74.8,13.25,107.95,84.5c0,0,41.2,32,121.95,45.7     C397.07,1805,413.52,1985.6,288.77,2097.25z"/>
		</g>
		<g class="st5">
			<path class="st6" d="M246.62,1709.45c-15.6-8.05-30.9-10.2-44.8-9.25c-32.6,2.25-60.75,22.9-75.9,51.85     c-1.2,2.3-2.35,4.6-3.5,6.9c-45.75,93.9-23.25,204.1,48.15,275.65c-98.2-67.6-135.7-197-83.15-304.85c1.15-2.3,2.3-4.6,3.5-6.9     c15.15-28.95,43.3-49.6,75.9-51.85C191.17,1669.35,219.92,1677.2,246.62,1709.45z"/>
		</g>
		<g>
			<path class="st9" d="M1336.87,1843.4c99.15,54.2,123.3,65.85,123.3,65.85s-94.7,118.4-213.9,94.35     c-34-6.8-69.95-25.25-106.3-61.3c-3.4-3.35-6.8-6.9-10.2-10.55c0,0,12.5,78.75-73.75,51.25c0,0-3.85,159.45-165.05,181.6     c0,0-6.25-13.1-12.35-34.4c-1.5-5.2-3-10.9-4.35-17c-11.3-50.2-15.6-128.75,39.25-196.45c0,0-111.25,8.75-183.75-84.3     c0,0,23.4,2,62.85,0.35c126.9-5.5,419.65-49.4,631.2-322.75l64.7-4.55l76.75,83.75c0,0-261.75,77.55-417.75,269.3     c0,0,46.05-35.4,108.55-35.85C1280.97,1822.55,1308.57,1827.95,1336.87,1843.4z"/>
		</g>
		<g>
			<path class="st12" d="M1349.14,1364.19c0,0-341.87-144.94-621.25-89.94s-481.93,243.05-420.65,450.28     c0,0,329.95,227.22,823.11,30.97c0,0,204.98-95.94,293.45-245.47C1423.81,1510.03,1332.27,1470.38,1349.14,1364.19z"/>
		</g>
		<g>
			<path class="st11" d="M1149.22,341.75c0,0,32.5,14.17,88.33,85c35.97-30.21,82.33-119.37,41.94-173.79     c-16.32-21.99-47.31-27.91-70.04-12.65C1189.51,253.69,1166.56,282.22,1149.22,341.75z"/>
		</g>
		<g class="st5">
			<path class="st6" d="M877.67,2106.75c1.8,9.7,2,17.4,0.95,23.45c-1.5-5.2-3-10.9-4.35-17c-11.3-50.2-15.6-128.75,39.25-196.45     c0,0-111.25,8.75-183.75-84.3c0,0,23.4,2,62.85,0.35c7.9,18.65,38.55,69.5,140.1,81.95l14.7-1.4     C947.42,1913.35,862.67,2025.1,877.67,2106.75z"/>
		</g>
		<g>
			<path class="st11" d="M306.89,426.75c-51.46-70.2-108.81-92.81-146.88-65.06c-16.19,11.8-26,30.97-26.27,51     c-0.7,53.04,55.58,100.81,107.31,118.92L306.89,426.75z"/>
		</g>
		<g>
			<path class="st9" d="M211.78,975.13c0,0,85.91-126.71,282.57-33.38c0,0,110,70,273.33-61.67s185-196.67,356.67-175     c171.67,21.67,323.08,97.86,323.08,97.86l54.26,223.47c0,0-123.51,283.67-412.92,247.01c-198.38-25.13-284.27-55.75-353.57-61.25     c-46.76-3.71-92.74,15-123.09,50.76c-42.48,50.04-131.92,129.03-269.42,122.16c0,0-100.8,4.5-149.56-61.91L211.78,975.13z"/>
		</g>
		<g>
			<path class="st4" d="M1898.93,2663.43c-1.03,0-2.07,0-3.11-0.02c-0.28,0-0.57-0.02-0.85-0.04c-2.63-0.19-63.36-5.31-117.32-80.38     c-41.52,1.56-219.08,0.68-370.02-114.55c-21.21-0.15-99.91-3.5-200.49-41.85c-104.33-39.79-252.24-126.42-369.63-313.55     c-28.11,11.2-102.16,37.35-202.54,47.34c-116.89,11.62-292.51,2.25-465.47-108.5c-111.14-71.16-152.21-212.47-95.53-328.71     c1.18-2.42,2.41-4.86,3.68-7.3c17.96-34.4,51.73-57.32,88.13-59.83c20.13-1.4,45.12,2.71,69.91,21.87     c-39.99-48.85-60.89-106.04-61.33-169.4c-0.93-133.52,8.76-298.96,17.31-444.92c6.71-114.51,12.5-213.41,11.03-264.75     c-2.81-98.32-34.34-148.03-40.85-157.28C20.43,547.04-26.39,422.12,36.63,307c26.66-48.71,69.22-84.49,119.83-100.76     c96.81-31.11,175.85,19.91,234.92,151.66c3.39,7.56,0.01,16.44-7.55,19.82c-7.56,3.39-16.43,0.02-19.82-7.55     c-52.51-117.12-117.4-161.4-198.36-135.37c-43.27,13.91-79.74,44.67-102.7,86.61C-16.4,466.35,118.79,577.12,180.6,618.01     c1.25,0.83,2.37,1.84,3.32,3c1.85,2.25,45.32,56.57,48.77,176.98c1.5,52.65-4.32,152.15-11.07,267.36     c-8.52,145.51-18.18,310.42-17.26,442.96c1.56,224.74,289.93,283.14,292.84,283.71c7.46,1.44,12.67,8.24,12.11,15.82     s-6.68,13.54-14.27,13.9c-148.77,6.87-226.25-51.88-229.47-54.39c-1.89-1.46-3.4-3.36-4.4-5.52     c-24.59-52.89-56-78.46-93.34-75.84c-26.06,1.79-50.43,18.57-63.6,43.79c-1.14,2.19-2.25,4.38-3.31,6.56     c-50.01,102.55-13.58,227.35,84.74,290.3c165.31,105.84,333.36,114.99,445.22,104.01c121.85-11.95,205.56-49.65,206.39-50.03     c6.91-3.16,15.1-0.64,19.06,5.85c113.65,186.9,258.58,272.61,360.14,311.6c110.31,42.34,194.93,40.42,195.75,40.37     c3.54-0.02,6.93,1.02,9.68,3.17c159.89,124.72,360.14,111.18,362.13,111.04c5.36-0.42,10.57,2.1,13.58,6.57     c44.86,66.57,94.02,73.65,99.19,74.22c35.81,0.28,61.58-8.54,78.83-27.29c32.73-35.59,30.79-103.09,25.44-157.92     c-9.29-95.27-71.39-154.94-72.02-155.53c-4.7-4.44-6.04-11.4-3.3-17.26c2.74-5.86,8.94-9.29,15.32-8.56     c222.23,25.93,444.26-53.4,446.48-54.2c4.03-1.46,8.49-1.13,12.26,0.91c32.62,17.67,68.04,17.44,94.76-0.6     c39.11-26.42,55.63-84.84,46.53-164.51c-17.15-150.07-126.69-202.31-148.28-211.2c-35.1,6.05-261.25,41.25-333.19-42.39     c-70.62-82.11-150.42-166.99-151.22-167.83c-2.44-2.6-3.88-5.97-4.06-9.53c-6.31-126.15-54.64-189.17-55.12-189.79     c-0.14-0.18-0.31-0.4-0.44-0.59c-181.16-254.26-333.89-234.14-335.41-233.89c-4.39,0.66-8.93-0.64-12.27-3.6     c-3.33-2.96-5.23-7.24-5.09-11.69c9.75-305.35-178.63-639.16-180.53-642.5c-3.1-5.43-2.5-12.21,1.49-17.02     c58.03-69.88,75.51-143.06,75.67-143.79c31.68-155.65-27.74-249.53-100.72-273.35c-62.16-20.29-146.75,6.91-195.61,113.4     c-3.45,7.53-12.36,10.84-19.89,7.38c-7.53-3.45-10.83-12.36-7.38-19.89c56.57-123.28,157.37-153.83,232.19-129.41     c85.63,27.95,156.18,134.1,120.73,308.24c-0.8,3.49-17.83,75.59-75.42,148.57c30.49,55.74,182.82,348.81,179.8,633.07     c48.29,0.62,187.77,23.9,346.69,246.82c4.65,6.01,53.26,71.74,60.98,201.03c16.7,17.85,86.06,92.38,148.36,164.83     c54.13,62.93,241.57,44.22,309.23,31.7c2.58-0.48,5.25-0.27,7.72,0.61c6.15,2.17,150.75,55.22,171.58,237.44     c14.08,123.22-31.26,173.67-59.54,192.77c-34.46,23.28-78.81,25.09-119.81,5.21c-36.42,12.44-219.7,70.75-416.92,57.06     c21.46,29.22,49.86,79.2,56.29,145.21c5.95,61.04,7.56,136.81-33.22,181.15C1975.15,2651,1941.91,2663.43,1898.93,2663.43z      M286.65,1745.52c8.63,5.78,38.05,23.68,87.24,35.58c-12.72-6.03-25.83-12.87-38.99-20.58c-26.15-15.33-49.23-32.3-69.15-50.74     C272.96,1719.85,279.98,1731.68,286.65,1745.52z"/>
		</g>
		<g>
			<path class="st0" d="M426.37,889.85c393.75-73.55,364.65-318.1,404.65-498.1s159.3-211.95,159.3-211.95     c29.6,7.75,60.4,17.25,92.35,28.6l-26.65,46.75C1207.62,624.2,804.47,870.2,426.37,889.85z"/>
		</g>
		<g class="st3">
			<path class="st4" d="M426.37,889.85c128.6-24.05,212.1-66.3,267.65-118.65c222.09-77.11,386.84-238.9,341.72-472.98     c-6.16-31.96,0.31-65.06,19.06-91.67l0.08-0.11c-18.75-8.75-37.15-16.8-55.2-24.15c26.7,7.25,54.4,15.95,83,26.1l-26.65,46.75     C1207.62,624.2,804.47,870.2,426.37,889.85z"/>
		</g>
		<g>
			<path class="st6" d="M1088.77,212.77l-2.35,4.1c-23.05-7.65-45.5-14.3-67.3-20c0,0-119.3,31.95-159.3,211.95     c-35.7,160.75-16.35,372.95-292.15,468.9c-44.75,8.6-90.15,14.15-135.2,16.5c393.75-73.55,364.65-318.1,404.65-498.1     s159.3-211.95,159.3-211.95C1026.02,191.92,1056.82,201.43,1088.77,212.77z"/>
		</g>
		<g>
			<path class="st0" d="M990.32,179.8c0,0-119.3,31.95-159.3,211.95s-10.9,424.55-404.65,498.1c-88.55,4.65-175.7-3.15-254.05-24.7     h-0.1c-50.25-13.8-96.85-33.3-137.9-58.75c-7.15-4.45-12.45-10.75-15.6-17.85c-1.4-2.95-2.35-6.05-2.95-9.25     c-0.05-0.25-0.1-0.55-0.15-0.8c-1.35-7.7-0.45-15.8,2.7-23.2c1.4-3.15,3.2-6.2,5.4-9.05c11.1-14.2,29.8-30.35,61.05-45.75     c83.75-41.25,121.25-113.75,194.6-230.4c37.6-59.9,107.3-177.25,238.55-251.6c26.2-14.9,54.8-28,86.15-38.6     c0.1-0.05,0.2-0.1,0.3-0.1c38.1-12.95,80.25-22.15,126.75-26.15c39.8-3.5,82.85-3.15,129.4,1.85c0.2,0,0.3,0,0.3,0l0.3,0.05     c40.3,4.4,83.2,12.2,128.95,24.2L990.32,179.8z"/>
		</g>
		<g class="st5">
			<path class="st6" d="M990.32,179.8c0,0-2.05,0.55-5.7,1.95c-32.95-7.4-64.4-12.55-94.4-15.8l-0.25-0.05c0,0-0.15-0.05-0.3-0.05     C520.12,126.1,370.62,381.6,308.52,480.45c-73.35,116.7-110.85,189.2-194.6,230.45c-31.25,15.4-49.95,31.55-61.05,45.7     c-15,19.25-10.1,47.35,10.6,60.15c25.3,15.75,52.75,29.15,81.85,40.35c-40.05-13-77.4-29.85-111-50.7     c-20.7-12.85-25.6-40.95-10.6-60.15c11.1-14.2,29.8-30.35,61.05-45.75c83.75-41.25,121.25-113.75,194.6-230.4     c62.1-98.85,211.6-354.4,581.15-314.6c0.15,0,0.3,0,0.3,0l0.3,0.05c40.3,4.4,83.2,12.2,128.95,24.2L990.32,179.8z"/>
		</g>
		<g>
			<g>
				<path class="st8" d="M990.32,179.8c0,0-119.3,31.95-159.3,211.95s-10.9,424.55-404.65,498.1l-254.05-24.7      c399.4-21.7,415.35-358.4,480.8-536.75c65.45-178.3,207.7-172.9,207.7-172.9l129.25,24.25L990.32,179.8z"/>
			</g>
		</g>
		<g class="st1">
			<g>
				<path class="st4" d="M982.01,180.02c0,0-119.3,31.95-159.3,211.95s-10.9,424.55-404.65,498.1l-254.05-24.7      c56.25-3.05,104.85-12.35,147.1-26.6l42.15,4.1c393.75-73.55,364.65-318.1,404.65-498.1c23.1-103.9,72.6-158.5,110.35-186.1      l113.5,21.3L982.01,180.02z"/>
			</g>
		</g>
		<g class="st5">
			<g>
				<path class="st6" d="M990.32,179.8c0,0-8.15,2.2-20.85,8.6l-75.7-14.2c0,0-142.25-5.4-207.7,172.9      c-61.15,166.6-79.1,471.35-406.7,528.45l-107.05-10.4c399.4-21.7,415.35-358.4,480.8-536.75      c65.45-178.3,207.7-172.9,207.7-172.9l129.25,24.25L990.32,179.8z"/>
			</g>
		</g>
		<g>
			<g>
				<path class="st7" d="M604.15,179.81c0,0-123.13,157.54-211.46,341.4S207.32,811.75,15,778.42      c32.52,41.4,85.93,69.67,157.21,86.71c399.52-21.62,415.48-358.38,480.91-536.71S860.8,155.49,860.8,155.49L604.15,179.81z"/>
			</g>
		</g>
		<g class="st1">
			<g>
				<path class="st4" d="M667.81,173.23l158.3-15c-44.25,7.8-133.4,39.85-181.3,170.4c-65.45,178.35-81.4,515.1-480.9,536.75      c-39.05-9.35-72.75-22.05-100.55-38.45c11.65,3.8,23.85,7.2,36.65,10.25c399.55-21.6,415.5-358.35,480.9-536.7      C603.66,238.48,635.71,198.72,667.81,173.23z"/>
			</g>
			<g>
				<path class="st2" d="M860.82,155.5l-26.4,2.5C850.62,155.1,860.82,155.5,860.82,155.5z"/>
			</g>
		</g>
		<g class="st1">
			<g>
				<path class="st2" d="M796.92,127.35l-26.4,2.5C786.72,126.95,796.92,127.35,796.92,127.35z"/>
			</g>
		</g>
		<g class="st1">
			<g>
				<path class="st2" d="M860.82,155.5l-26.4,2.5C850.62,155.1,860.82,155.5,860.82,155.5z"/>
			</g>
		</g>
		<g class="st1">
			<g>
				<path class="st2" d="M15.77,779.3c5.05,6.4,10.65,12.45,16.75,18.25c-4.8-2.85-9.4-5.8-13.8-9      C17.32,785.6,16.37,782.5,15.77,779.3z"/>
			</g>
			<g>
				<path class="st4" d="M509.61,218.72c26.2-14.9,54.8-28,86.15-38.6c-3.75,4.85-124.45,160.3-211.4,341.3      c-88.2,183.7-185.15,290.35-377.05,257.3c-1.35-7.7-0.45-15.8,2.7-23.2c165.7,12.25,255.05-91.85,336.85-262.25      C399.96,382.72,465.66,281.73,509.61,218.72z"/>
			</g>
			<g class="st3">
				<path class="st4" d="M731.12,153.65c-8.2,4.65-16.6,10.1-25,16.5l-101.75,9.65C642.47,166.85,684.62,157.65,731.12,153.65z"/>
			</g>
			<g>
				<path class="st2" d="M823.32,127.35l-26.4,2.5C813.12,126.95,823.32,127.35,823.32,127.35z"/>
			</g>
		</g>
		<g class="st5">
			<g>
				<path class="st6" d="M604.17,179.8L834.42,158c-17.85,3.15-43.05,10.25-69.9,26.2l-127.85,12.15c0,0-123.15,157.55-211.5,341.4      C336.87,721.6,239.82,828.3,47.52,794.95c14.5,18.45,33.1,34.3,55.65,47.7c-37.55-16.3-67.2-37.55-88.15-64.25      c192.3,33.35,289.35-73.3,377.65-257.2C481.02,337.35,604.17,179.8,604.17,179.8z"/>
			</g>
			<g>
				<path class="st6" d="M860.82,155.5l-26.4,2.5C850.62,155.1,860.82,155.5,860.82,155.5z"/>
			</g>
		</g>
		<g class="st5">
			<g>
				<path class="st6" d="M893.32,172l-26.45,2.5C883.12,171.6,893.32,172,893.32,172z"/>
			</g>
		</g>
		<g>
			<path class="st4" d="M426.38,904.87c-7.08,0-13.38-5.03-14.73-12.25c-1.52-8.14,3.85-15.98,11.99-17.5     c324.32-60.59,351.4-233.78,377.59-401.27c4.66-29.79,9.06-57.93,15.15-85.35c41.5-186.74,164.82-221.77,170.05-223.17     c7.99-2.15,16.23,2.6,18.37,10.61c2.14,7.99-2.59,16.19-10.56,18.35c-4.71,1.31-111.27,32.85-148.57,200.72     c-5.89,26.49-10.21,54.17-14.8,83.48c-13.35,85.4-27.16,173.71-81.49,251.54c-61.99,88.8-166.74,145.91-320.23,174.58     C428.22,904.78,427.29,904.87,426.38,904.87z"/>
		</g>
		<g>
			<path class="st4" d="M172.2,880.13c-7.92,0-14.53-6.19-14.97-14.19c-0.45-8.27,5.9-15.34,14.17-15.79     c322.52-17.45,385.9-244.06,436.83-426.14c10.16-36.32,19.76-70.63,30.81-100.76c68.4-186.43,220.79-182.81,222.33-182.75     c8.28,0.31,14.73,7.28,14.42,15.56c-0.31,8.27-7.19,14.73-15.52,14.42c-5.64-0.21-132.5-1.97-193.06,163.1     c-10.65,29.02-20.09,62.77-30.08,98.51c-50.68,181.21-120.1,429.39-464.1,448.01C172.75,880.12,172.47,880.13,172.2,880.13z"/>
		</g>
		<g>
			<path class="st4" d="M82.02,799.53c-21.8,0-44.93-2.06-69.58-6.33c-8.16-1.42-13.63-9.18-12.22-17.34s9.17-13.61,17.34-12.22     c186.05,32.26,276.29-71.34,361.61-248.92c88.02-183.21,211.92-342.56,213.16-344.14c5.1-6.53,14.53-7.69,21.05-2.58     c6.53,5.1,7.68,14.53,2.58,21.05c-1.22,1.56-123.19,158.47-209.76,338.66C328.11,690.29,240.62,799.53,82.02,799.53z"/>
		</g>
		<g>
			<path class="st4" d="M378.62,906.1c-136.31,0-260.75-30.2-352.2-86.97c-13.46-8.35-22.77-22.11-25.54-37.75     c-2.78-15.67,1.24-31.84,11.04-44.36c14.66-18.73,36.94-35.55,66.24-49.98c70.36-34.65,105.86-91.89,164.69-186.71     c7.56-12.18,15.46-24.92,23.83-38.23l4.98-7.94c76.98-123,281.46-449.73,816.08-259.87c4.18,1.49,7.5,4.75,9.04,8.91     c1.55,4.16,1.17,8.8-1.03,12.65l-23.07,40.45c67.57,171.46,23.48,334.57-124.62,459.96     c-112.52,95.27-278.47,161.96-455.31,182.99C454.08,903.84,415.91,906.1,378.62,906.1z M787.25,166.91     c-300.52,0-432.64,211.2-490.18,303.16l-5.01,8c-8.33,13.26-16.2,25.94-23.73,38.08C208.8,612.11,169.47,675.51,91.4,713.96     c-25.22,12.42-44.01,26.4-55.87,41.55c-4.62,5.9-6.44,13.23-5.12,20.63c1.31,7.36,5.51,13.58,11.82,17.5     c110.8,68.78,273.71,96.41,446.94,75.82c171.15-20.35,331.33-84.53,439.47-176.09c98.56-83.45,198.27-226.23,113.51-432.5     c-1.76-4.27-1.45-9.12,0.84-13.13l17.72-31.06C956.83,181.5,866.2,166.91,787.25,166.91z"/>
		</g>
		<g>
			<path class="st13" d="M743.3,436.4c-30.67-60.02-148.69-282-281.5-414.46c-14.6-14.56-39.48-4.58-39.87,16.03     c-1.97,102.81-0.1,336.75,50.76,480.45c46.14,85.92,247.33,83.99,275.52-47.13C750.75,459.47,748.8,447.16,743.3,436.4z"/>
		</g>
		<g class="st3">
			<path class="st4" d="M748.22,471.3c-18.05,83.85-106.8,114.85-180.55,103.9c30.25-12.9,55.6-35.9,69.05-71.05     c4.35-11.25,4.3-23.75,0.5-35.2c-20.8-63.05-101.2-294.35-209.65-445.8c8.25-9.5,23.85-11.55,34.25-1.2     c132.8,132.45,250.8,354.45,281.5,414.45C748.82,447.15,750.77,459.45,748.22,471.3z"/>
		</g>
		<g class="st5">
			<path class="st6" d="M614.27,576.55c-58.7,5.15-118.9-15.85-141.6-58.15c-50.85-143.7-52.7-377.6-50.75-480.45     c0.4-20.6,25.3-30.55,39.9-16l0.95,0.95c-3.5,3.85-5.75,9-5.85,15.05c-1.95,102.85-0.1,336.75,50.75,480.45     C525.87,552.25,568.07,572.45,614.27,576.55z"/>
		</g>
		<g>
			<path class="st4" d="M595.85,592.38c-60.5,0-114.14-25.45-136.38-66.86c-0.36-0.67-0.67-1.37-0.93-2.09     c-52.17-147.39-53.48-388.79-51.62-485.74c0.3-15.62,9.48-28.96,23.95-34.81c14.51-5.86,30.42-2.62,41.51,8.44     C605.88,144.45,723.72,365.1,756.66,429.57l0,0c7.2,14.09,9.41,30.03,6.22,44.86c-13.4,62.31-64.31,105.59-136.19,115.76     C616.29,591.66,605.97,592.38,595.85,592.38z M486.43,512.28c20.28,36.28,77.21,56.53,136.05,48.21     c58.9-8.33,100.42-42.86,111.06-92.36c1.74-8.11,0.46-16.95-3.6-24.9l0,0c-32.43-63.46-148.37-280.64-278.74-410.67     c-3.57-3.56-7.55-2.5-9.09-1.87c-1.53,0.62-5.09,2.59-5.19,7.56C435.1,133.32,436.29,369.41,486.43,512.28z"/>
		</g>
		<g>
			<path class="st4" d="M451.55,267.62c-11.65,0-22.65-3.46-32.38-10.36c-5.63-3.99-6.96-11.79-2.97-17.43     c3.99-5.63,11.8-6.96,17.43-2.97c11,7.8,24.4,7.71,39.82-0.26c34.45-17.81,68.27-70.72,68.27-106.82c0-6.9,5.6-12.5,12.5-12.5     s12.5,5.6,12.5,12.5c0,45.4-38.98,106.9-81.79,129.03C473.56,264.68,462.28,267.62,451.55,267.62z"/>
		</g>
		<g>
			<path class="st4" d="M496.34,464.53c-23.83,0-43.79-9.13-57.22-26.83c-4.17-5.5-3.1-13.34,2.4-17.51     c5.51-4.18,13.34-3.1,17.51,2.4c18.61,24.52,52.87,16.3,66.74,11.63c56.46-19,114.85-83.33,114.85-158.11     c0-6.9,5.6-12.5,12.5-12.5s12.5,5.6,12.5,12.5c0,86.02-67.05,159.99-131.88,181.8C520.56,462.35,507.99,464.53,496.34,464.53z"/>
		</g>
		<g>
			<path class="st4" d="M1237.56,441.75c-0.51,0-1.02-0.03-1.53-0.08c-4.04-0.42-7.74-2.45-10.25-5.64     c-51.81-65.73-82.42-80.47-82.72-80.61c-6.71-3.13-10.31-10.76-8.23-17.87c15.66-53.79,37.96-90.7,66.27-109.71     c29.37-19.7,69.09-12.6,90.45,16.17c46.43,62.57-4.93,161.12-44.34,194.22C1244.49,440.51,1241.07,441.75,1237.56,441.75z      M1167.04,334.85c13.57,9.09,38.12,28.9,71.77,69.58c29.58-33.8,58.48-102.32,28.64-142.53c-11.59-15.63-33.86-19.73-49.64-9.14     C1203.48,262.38,1183.47,284.41,1167.04,334.85z"/>
		</g>
		<g>
			<path class="st4" d="M241.05,546.61c-1.65,0-3.32-0.27-4.96-0.85c-58.92-20.63-118.15-73.03-117.35-133.27     c0.32-24.84,12.45-48.36,32.43-62.93c46.62-33.97,112.49-7.16,167.81,68.32c4.9,6.68,3.45,16.07-3.23,20.96     c-6.68,4.9-16.07,3.45-20.96-3.23c-44.58-60.82-94.02-85.08-125.94-61.81c-12.39,9.03-19.9,23.64-20.1,39.08     c-0.58,43.93,49,87.66,97.27,104.56c7.82,2.74,11.94,11.3,9.2,19.11C253.04,542.74,247.24,546.61,241.05,546.61z"/>
		</g>
		<g>
			<path class="st4" d="M211.77,990.09c-2.91,0-5.85-0.84-8.44-2.61c-6.82-4.66-8.6-13.94-3.96-20.77     c0.98-1.44,24.49-35.53,73.97-57.03c44.88-19.5,120.76-32.11,227.44,18.52c0.56,0.27,1.1,0.57,1.62,0.9     c4.1,2.54,103.82,61.88,255.87-60.69c34.02-27.43,61.8-51.89,86.31-73.48c92.74-81.68,139.3-122.69,281.64-104.72     c172.25,21.74,321.67,96.18,327.94,99.34c7.4,3.72,10.38,12.74,6.66,20.14c-3.72,7.4-12.73,10.39-20.14,6.66     c-1.49-0.75-151.25-75.31-318.21-96.38c-128.93-16.26-166.73,17.02-258.06,97.47c-24.74,21.79-52.78,46.49-87.31,74.33     c-163.83,132.08-277.76,70.46-289.89,63.21c-181.38-85.7-259.8,23.92-263.05,28.63C221.25,987.81,216.55,990.09,211.77,990.09z"/>
		</g>
		<g>
			<path class="st4" d="M359.41,1400.5c-5.53,0-11.13-0.13-16.81-0.41c-10.52,0.33-110.4,1.63-161.56-68.05     c-4.9-6.68-3.46-16.06,3.21-20.97s16.06-3.46,20.97,3.21c43.33,59.01,135.89,55.84,136.83,55.81c0.45-0.02,0.94-0.02,1.4,0     c131.8,6.56,217.78-70.4,257.24-116.88c33.25-39.17,83.99-60.11,135.71-56.01c30.38,2.41,63.95,9.52,106.46,18.52     c56.66,11.99,134.25,28.42,247.81,42.81c275.08,34.83,396.1-235.38,397.29-238.12c3.31-7.6,12.14-11.08,19.74-7.76     c7.6,3.31,11.07,12.15,7.76,19.74c-1.31,3-32.81,74.34-101.14,141.93c-91.14,90.15-204.37,129.56-327.43,113.97     c-114.79-14.54-193.09-31.12-250.25-43.22c-43.06-9.12-74.17-15.7-102.61-17.96c-42.14-3.35-83.44,13.67-110.47,45.51     C582.27,1321.26,494.28,1400.5,359.41,1400.5z"/>
		</g>
		<g>
			
				<ellipse transform="matrix(0.9973 -0.0728 0.0728 0.9973 -112.0859 28.2888)" class="st11" cx="332.24" cy="1552.58" rx="120.45" ry="77.5"/>
		</g>
		<g>
			
				<ellipse transform="matrix(0.9819 -0.1896 0.1896 0.9819 -245.453 254.8501)" class="st11" cx="1209.04" cy="1410.08" rx="120.45" ry="77.5"/>
		</g>
		<g>
			
				<ellipse transform="matrix(0.9553 -0.2956 0.2956 0.9553 -381.3487 248.2407)" class="st2" cx="630.4" cy="1385.46" rx="18.54" ry="21.26"/>
		</g>
		<g>
			
				<ellipse transform="matrix(0.9553 -0.2956 0.2956 0.9553 -369.8489 275.9801)" class="st2" cx="727.9" cy="1361.29" rx="18.54" ry="21.26"/>
		</g>
		<g>
			<path class="st4" d="M1511.23,1193.42c-57.65,3.19-112.31,39.52-132.63,94.38c-16.26,45.01-20.53,98.62-4.82,144.2     c16.34,46.63,65.99,65.5,112.28,58.71c5.33-1.52,10.17,1,13.59,4.73c51.97,50.94,98.97,107.24,136.69,169.68     c1.34,2.18-1.57,5.05-3.71,3.36c-15.11-10.77-29.15-22.51-42.81-34.61c-40.52-36.44-78.81-75.37-112.42-118.3     c0,0,13.59,4.73,13.59,4.73c-12.27,1.86-23.48,1.97-35.16,1.15c-64.84-4.1-109.87-48.31-118.84-112.25     c-6.27-45.08-2.2-89.77,13.71-132.43c24.52-65.84,90.57-110.21,160.11-113.34C1530.93,1163.45,1531.32,1192.83,1511.23,1193.42     L1511.23,1193.42z"/>
		</g>
		<g>
			<path class="st4" d="M1934.02,1619.91c-11.36,52.19-44.36,99.02-89.3,127.78c-44.33,28.43-98.57,36.92-150.13,31.24     c-33.68-3.4-66.1-12.4-96.75-24.77c-1.29-0.52-1.91-1.99-1.39-3.27c0.45-1.11,1.62-1.72,2.75-1.54     c32.36,5.12,64.59,8.97,96.37,8.34c98.7-0.07,177.74-49.24,209.12-144.1C1909.64,1594.73,1937.34,1600.69,1934.02,1619.91     L1934.02,1619.91z"/>
		</g>
		<g>
			<path class="st4" d="M2069.72,1760.97c13.48,27.26,23.74,54.54,32.2,83.41c8.17,28.34,13.59,57.7,14.1,87.17     c0.07,2.99-4.47,3.52-4.97,0.48c-4.61-28.34-13.8-55.58-25.57-81.65c-11.63-25.56-25.77-51.22-41.56-74.07     C2032.46,1758.4,2059.37,1742.28,2069.72,1760.97L2069.72,1760.97z"/>
		</g>
		<g>
			<path class="st4" d="M2386.45,2213.11c28.5-9.97,60.01-24.69,75.54-52.18c0.61-1.29,2.19-1.83,3.45-1.16     c1.03,0.55,1.53,1.71,1.27,2.8c-4.06,17.08-14.85,31.94-26.79,44.51c-12.52,12.96-25.64,23.58-41.12,33.38     C2379.03,2251.37,2365.16,2220.77,2386.45,2213.11L2386.45,2213.11z"/>
		</g>
		<g>
			<path class="st4" d="M1475.01,2471.2c-38.2,0-62.2-2.68-64.04-2.89c-8.23-0.95-14.13-8.38-13.18-16.61     c0.94-8.23,8.37-14.15,16.61-13.19c3.25,0.38,327.35,34.86,513.94-166.95c5.62-6.08,15.11-6.46,21.2-0.83     c6.08,5.62,6.46,15.12,0.83,21.2c-103.23,111.65-244.51,153.65-344.86,169.22C1554.5,2469.07,1509.1,2471.2,1475.01,2471.2z"/>
		</g>
		<g>
			<path class="st4" d="M1781.76,2552.98l64.94-2.41c2.72-0.18,3.64,3.84,1.14,4.87c0,0-59.22,26.75-59.22,26.75     C1765.89,2590.71,1757.59,2555.48,1781.76,2552.98L1781.76,2552.98z"/>
		</g>
		<g>
			<path class="st4" d="M766.27,1847.41c-86.07,0-177.83-8.64-274.55-25.89c-8.16-1.46-13.59-9.24-12.13-17.4     c1.45-8.15,9.24-13.61,17.4-12.13c385.94,68.86,615.17-16.31,739.51-99.87c133.42-89.67,177.03-195.51,177.45-196.57     c3.09-7.69,11.81-11.42,19.51-8.33c7.69,3.09,11.42,11.82,8.33,19.51c-1.88,4.67-47.55,115.53-188.56,210.29     c-82.31,55.32-180.26,93.57-291.12,113.69C900.77,1841.84,835.36,1847.41,766.27,1847.41z"/>
		</g>
		<g>
			<path class="st4" d="M288.81,1750.22c21.83,85.11-32.26,154.17-108.34,185.44c-2.79,1.17-4.97-2.89-2.24-4.47     c31.06-17.83,59.49-41.61,76.14-73.55c15.29-29.84,18.33-65.67,6.36-96.85C252.07,1740.86,282.11,1729.46,288.81,1750.22     L288.81,1750.22z"/>
		</g>
		<g>
			<path class="st4" d="M830.35,2101.43c-20.58-47.18-39.76-94.86-55.81-143.72c-0.43-1.32,0.29-2.73,1.61-3.16     c1.18-0.39,2.45,0.17,3.01,1.24c23.5,45.09,49.97,88.7,77.56,131.32C867.72,2105.57,839.89,2120.75,830.35,2101.43     L830.35,2101.43z"/>
		</g>
		<g>
			<path class="st4" d="M890.97,2179.6c-5.71,0-11-3.26-13.52-8.51c-2.68-5.59-60.62-129.52,7.56-240.04     c-40.3-3.66-113.25-20.3-167.07-89.37c-5.09-6.53-3.92-15.96,2.61-21.05c6.53-5.09,15.96-3.93,21.05,2.61     c66.42,85.24,169.74,78.64,170.78,78.55c5.94-0.49,11.64,2.7,14.42,8s2.15,11.74-1.62,16.4     c-68.29,84.3-37.21,188.97-24.87,221.69c135.19-25.65,140.56-159.44,140.72-165.28c0.13-4.71,2.47-9.1,6.32-11.83     c3.84-2.72,8.75-3.51,13.23-2.08c15.11,4.82,35.32,8.71,45.74-0.17c10.04-8.54,9.63-27.8,8.63-34.5     c-0.97-6.51,2.4-12.93,8.34-15.78c5.94-2.85,13.03-1.53,17.5,3.31c44.66,48.32,92.8,71.88,142.99,70.2     c69.77-2.42,127.63-53.02,152.13-78.09c-17.29-9.01-49.5-26.11-106.24-57.1c-89.09-48.66-169.64,11.32-173.02,13.9     c-6.04,4.59-14.59,3.96-19.88-1.49c-5.29-5.46-5.67-13.99-0.87-19.89c157.12-193.14,414.26-271.03,425.13-274.25     c7.95-2.34,16.29,2.18,18.64,10.12c2.36,7.94-2.17,16.29-10.11,18.65c-2.31,0.69-208.8,63.32-360.43,210.13     c36.84-9.51,84.61-10.97,134.93,16.51c97.24,53.12,122.43,65.38,122.67,65.49c4.11,1.99,7.09,5.74,8.1,10.19     c1.01,4.45-0.06,9.12-2.91,12.68c-3.24,4.06-80.61,99.33-186.9,103.13c-50.33,1.8-98.28-17.24-142.73-56.68     c-2.74,9.28-7.69,18.73-16.35,26.18c-13.63,11.7-32.72,15.25-56.89,10.6c-6.98,45.14-38.21,158.69-176.02,177.62     C892.33,2179.56,891.65,2179.6,890.97,2179.6z"/>
		</g>
		<g>
			<path class="st4" d="M1129.77,1946.76c-1.75,0-3.52-0.31-5.25-0.96c-7.76-2.9-11.7-11.54-8.8-19.3     c35.42-94.7-8.36-142.34-10.24-144.32c-5.67-5.97-5.5-15.45,0.42-21.17c5.94-5.72,15.32-5.63,21.08,0.25     c2.44,2.49,59.27,62.28,16.83,175.74C1141.57,1943.03,1135.85,1946.76,1129.77,1946.76z"/>
		</g>
		<g>
			<path class="st4" d="M1056.01,1998.01c-2.05,0-4.13-0.42-6.13-1.32c-43.45-19.48-71.38-47.39-82.99-82.94     c-18.33-56.08,11.6-109.67,12.89-111.92c4.1-7.2,13.26-9.71,20.46-5.62c7.19,4.1,9.7,13.23,5.63,20.43     c-0.36,0.64-24.64,44.79-10.39,88.01c8.93,27.07,31.36,48.83,66.68,64.66c7.56,3.39,10.94,12.27,7.55,19.82     C1067.21,1994.7,1061.74,1998.01,1056.01,1998.01z"/>
		</g>
		<g>
			<path class="st4" d="M913.51,1931.75c-7.59,0-14.1-5.74-14.9-13.45c-0.85-8.24,5.13-15.62,13.37-16.47l67.83-7.04     c8.24-0.85,15.61,5.14,16.47,13.37c0.85,8.24-5.13,15.62-13.37,16.47l-67.83,7.04C914.55,1931.73,914.02,1931.75,913.51,1931.75z     "/>
		</g>
		<g>
			<path class="st4" d="M1003.56,1963.5c-5.51,1.71-11.25,7.17-15.81,11.76c-16.84,18.34-25.26,44.04-30.07,68.32     c-0.44,2.95-4.96,2.69-4.99-0.33c-0.65-18.22,0.14-36.82,4.99-54.61c5.29-19.5,14.93-40.09,32.47-51.97     C1008.05,1928.28,1021.04,1954.19,1003.56,1963.5L1003.56,1963.5z"/>
		</g>
		<g>
			<path class="st4" d="M1105.15,1928.41c-17.32,0-32.58-5.03-45.6-15.06c-42.15-32.49-41.89-106.13-41.87-109.25     c0.08-8.23,6.78-14.85,15-14.85c0.05,0,0.1,0,0.15,0c8.28,0.08,14.92,6.86,14.85,15.13l0,0c-0.13,17.15,5.06,65.89,30.22,85.24     c12.2,9.38,28.06,11.22,48.48,5.62c7.97-2.18,16.24,2.51,18.43,10.5c2.19,7.99-2.51,16.24-10.5,18.43     C1124.04,1927,1114.31,1928.41,1105.15,1928.41z"/>
		</g>
		<g>
			<path class="st4" d="M1153.91,1876.34c32.13,17.35,68.33,29.24,104.94,32.21c12.47,0.99,25,0.35,37.55-1.28     c2.94-0.41,3.97,4.04,1.04,4.88c-44.28,13.84-92.38,9.35-136.7-2.49c-6.55-1.78-12.66-3.62-19.6-6.17     C1121.18,1895.18,1134.72,1866.25,1153.91,1876.34L1153.91,1876.34z"/>
		</g>
		<g>
			<path class="st14" d="M835.72,1597.35c-9.4,10.45-22.1,17.35-35.85,19.55c-2.7,0.45-5.45,0.7-8.2,0.75c-25.2,0.6-62.2-9-79-65.05     l-0.75-1.65c37.2-10.55,77.1-37.1,105.35-96.7c0,0,15.45,17.45,26.8,42.2C857.47,1525.45,865.22,1564.6,835.72,1597.35z"/>
		</g>
		<g>
			<path class="st4" d="M789.51,1632.68c-26.5,0-71.16-10.33-90.9-74.78l-0.34-0.75c-1.81-3.98-1.79-8.55,0.05-12.51     s5.31-6.93,9.52-8.12c41.28-11.71,73.54-41.55,95.89-88.69c2.16-4.55,6.46-7.72,11.45-8.43c5-0.71,10,1.13,13.34,4.91     c0.69,0.78,17.07,19.42,29.2,45.89c21.01,45.46,17.26,85.99-10.84,117.19c-11.65,12.94-27.49,21.58-44.62,24.32     c-3.3,0.55-6.81,0.87-10.31,0.94C791.15,1632.67,790.33,1632.68,789.51,1632.68z M731.27,1560.26     c11.92,28.81,32.05,43.04,60.05,42.39c2.11-0.04,4.13-0.22,6.08-0.55c10.49-1.68,20.1-6.92,27.17-14.79c0,0,0,0,0.01-0.01     c19.72-21.89,21.69-50.34,5.88-84.57c-3.53-7.69-7.47-14.6-11.15-20.38C796.86,1520.09,767.35,1546.2,731.27,1560.26z"/>
		</g>
		<g>
			<path class="st4" d="M716.04,1565.37c-35.85,5.73-72.99,0.64-105.88-14.43c-1.25-0.6-1.78-2.09-1.19-3.34     c0.53-1.12,1.77-1.65,2.92-1.35c32.03,6.05,66.36,2.96,96.27-9.87C729.29,1528.95,738.07,1561.05,716.04,1565.37L716.04,1565.37z     "/>
		</g>
		<g>
			<path class="st4" d="M844.07,1496.45l-7.2,4.7c0,0-92.5,46.45-40.85,110.6c1.4,1.7,2.7,3.45,3.85,5.15     c-2.7,0.45-5.45,0.7-8.2,0.75c-25.2,0.6-62.2-9-79-65.05l-0.75-1.65c37.2-10.55,77.1-37.1,105.35-96.7     C817.27,1454.25,832.72,1471.7,844.07,1496.45z"/>
		</g>
		<g>
			<path class="st4" d="M1988.97,973.94c-25.94,0-51.69-3.14-77.24-9.44c-211.98-52.24-331.77-300.74-336.77-311.29     c-3.54-7.49-0.35-16.42,7.13-19.97c7.49-3.53,16.43-0.35,19.98,7.13c1.17,2.46,118.86,246.3,316.95,295.04     c98.34,24.2,201.25-3.48,305.87-82.26c6.62-4.99,16.03-3.66,21.01,2.96c4.98,6.62,3.66,16.02-2.96,21.01     C2157.37,941.54,2072.25,973.94,1988.97,973.94z"/>
		</g>
		<g>
			<path class="st15" d="M1588.57,646.8c0,0.05,0,0.05,0,0.05c-0.05-0.05-0.05-0.05-0.05-0.05S1588.52,646.8,1588.57,646.8z"/>
		</g>
		<g>
			<path class="st4" d="M2115.4,1234.69c-163.48,0-298.18-52.67-401.26-157.09c-99.85-101.16-151.19-231.32-185.16-317.45     c-8.08-20.47-15.05-38.15-21.67-53.09c-68.81-155.35-170.83-170.39-175.15-170.95c-8.18-1.07-14-8.56-12.98-16.75     c1.03-8.19,8.47-14.01,16.63-13.03c4.98,0.6,122.75,16.61,198.92,188.58c6.86,15.5,13.94,33.45,22.14,54.23     c68.17,172.83,195.05,494.53,635.72,451.7c8.28-0.8,15.58,5.23,16.38,13.48s-5.23,15.58-13.48,16.38     C2168.09,1233.36,2141.36,1234.69,2115.4,1234.69z"/>
		</g>
		<g class="st3">
			<path class="st4" d="M369.42,346.45c-11.85,15.55-21.75,26.95-21.75,26.95l-177.6,255.55c-39.15-26.15-73.9-57.15-99.65-91.65     c266.3-97.8,195.85-275.6,173-320.2C293.32,230.95,334.87,275.95,369.42,346.45z"/>
		</g>
		<g class="st3">
			<path class="st4" d="M2541.77,1982.2c-0.05,35.8-0.75,61.2-0.75,61.2s-66.8-168.65-186.65-93.3     c-119.9,75.3-396.7,29.55-396.7,29.55c6.7-185.45-323.2-219.1-323.2-219.1s196.05-23.05,124.45-263.1     c-71.55-240.1-387.9-223.2-387.9-223.2c-102.5,252.5,130.65,231.25,130.65,231.25l106.15,131.85     c-195.2-114.15-346.05,55.4-346.05,55.4c-264.3,206-710.7,111.5-710.7,111.5c1110.1-207.5,648.3-1303.95,648.3-1303.95     c145.7-165.45,122.45-356,112.85-407.15c73.7,33.95,126.1,132.45,95.05,284.85c0,0-17.5,76.25-78.75,150     c0,0,192.5,337.1,182.5,650.4c0,0,160-26.65,350,240c0,0,51.65,65,58.35,198.35c0,0,80,85,151.65,168.35     c38.85,45.15,130.55,52.1,206.4,49.05c0,0,0,0,0-0.05c64.15-2.6,116.95-12.35,116.95-12.35S2500.17,1859.1,2541.77,1982.2z"/>
		</g>
		<g class="st3">
			<path class="st4" d="M1896.02,2648.4c0,0-0.7-0.05-2-0.25c85.2-132.9-41.4-287.4-108.85-239.8     c-90.8,64.1-400.8,36.75-400.8,36.75s-5.15,2.15-14.35,5.95c-78.45-8.25-252.15-44.8-408.9-204.5     c670.1,238.15,855.1-30.7,855.1-30.7l161.45,65.9l2.85,3.7c-7.6-0.5-15.25-1.1-22.9-1.85c-6.05-0.5-12.15-1.15-18.25-1.85     c0,0,3.45,3.25,8.9,9.5c18.6,21.15,60.05,76.4,67.75,155.5C2026.02,2549.25,2017.67,2650.1,1896.02,2648.4z"/>
		</g>
		<g class="st3">
			<path class="st4" d="M215.28,1682.25c0,0,79.94,118.11-22.16,243.8c0,0,167.84-106.35,406.17-103.74l-253.32-33.29l-94.51-73.39     L215.28,1682.25z"/>
		</g>
		<g class="st3">
			<path class="st4" d="M206.43,2056.77c0,0,399.6,114.14,570.43-73.77l7.1-9.65l61.41,123.9     C845.37,2097.25,534.33,2259.3,206.43,2056.77z"/>
		</g>
		<g class="st1">
			<path class="st2" d="M1460.17,1909.25c0,0-94.7,118.4-213.9,94.35c2.95-2.3,6.15-4.55,9.7-6.85c131.6-85,0-174,0-174l0.1-0.05     c24.9-0.15,52.5,5.25,80.8,20.7C1436.02,1897.6,1460.17,1909.25,1460.17,1909.25z"/>
		</g>
		<g class="st1">
			<path class="st2" d="M1139.97,1942.3c-3.4-3.35-6.8-6.9-10.2-10.55c0,0,12.5,78.75-73.75,51.25c0,0-3.85,159.45-165.05,181.6     c0,0-9.7-20.25-16.7-51.4c145.65-20.9,116.75-173.55,116.75-173.55c142.5-17.1,90.5-155.1,90.5-155.1l34.75-11.6l20.65,36.3     C1136.92,1809.25,1140.12,1885.9,1139.97,1942.3z"/>
		</g>
		<g class="st3">
			<path class="st4" d="M2245.82,979.3c-0.2,73.8-13.7,160.95-51.75,236.45c-0.75,1.5-1.5,3-2.3,4.5     c-433.4,31.55-570.55-292.3-572.55-297.15C2064.82,1329.35,2245.82,979.3,2245.82,979.3z"/>
		</g>
		<g class="st1">
			<path class="st2" d="M2332.97,2321.35c-51.45-22-94.95-52.65-131.5-86.9L2332.97,2321.35z"/>
		</g>
		<g>
			<g>
				<g>
					<path class="st4" d="M276.96,1087.87c2.34,8.42,6.33,16.62,11.7,23.81c5.38,7.24,12.02,13.49,19.38,18.68       c6.22,4.38,12.94,8.06,19.95,11.03c2.2-8.05,4.47-14.98,6.27-20.19c-5.85-1.52-11.61-3.54-16.98-6.21       c-6.58-3.2-12.71-7.35-17.95-12.44c-5.25-5.14-9.58-11.25-12.73-18.11l-0.07-0.11c-1.18-2.56-4.23-3.71-6.79-2.52       C277.44,1082.88,276.3,1085.45,276.96,1087.87z"/>
				</g>
				<g>
					<path class="st4" d="M245.15,1145.62c4.85,6.33,10.65,11.82,16.93,16.64c6.32,4.84,13.13,8.96,20.38,12.43       c7.26,3.43,14.95,6.2,23.23,7.92c6.44,1.2,13.27,2.06,20.91,0.99c-0.8-8.68-0.85-17.59-0.44-26.14       c-0.6,0.23-1.19,0.51-1.72,0.77c-3.56,1.91-9.76,2.94-16.05,2.73c-6.33-0.14-13.02-1.25-19.56-3.03       c-13.07-3.65-25.91-9.88-36.07-19.14l-0.05-0.08c-2.1-1.91-5.36-1.77-7.26,0.32C243.74,1140.92,243.69,1143.69,245.15,1145.62z       "/>
				</g>
				<g>
					<path class="st4" d="M248.34,1200.13c-0.84,2.16-0.13,4.54,1.65,5.88l0.8,0.62c0.41,0.29,1.41,0.88,2.18,1.36l2.5,1.46       c1.67,0.92,3.35,1.89,5.05,2.73c3.39,1.81,6.88,3.49,10.42,5.01c7.08,3.09,14.42,5.75,22.06,7.81       c7.69,1.96,15.69,3.29,23.98,3.74c8.31,0.33,16.85-0.47,25.46-2.52c1.55-0.34,2.93-0.99,4.2-1.79       c-5.62-5.86-9.64-13.65-12.53-22.44c-5.43,2.33-11.48,4.13-17.88,4.98c-6.46,0.77-13.19,0.89-20.06,0.35       c-6.83-0.61-13.76-1.78-20.67-3.45c-3.42-0.81-6.86-1.78-10.22-2.89c-1.74-0.49-3.4-1.13-5.1-1.69l-2.5-0.91l-2.72-1.11       C252.32,1196.25,249.39,1197.52,248.34,1200.13z"/>
				</g>
			</g>
			<g>
				<g>
					
						<ellipse transform="matrix(0.9921 -0.1252 0.1252 0.9921 -146.1716 59.865)" class="st4" cx="403.33" cy="1193.19" rx="109.86" ry="122.19"/>
				</g>
				<g>
					
						<ellipse transform="matrix(0.987 -0.1609 0.1609 0.987 -181.4413 85.2195)" class="st16" cx="435.37" cy="1162.71" rx="41.22" ry="52.4"/>
				</g>
				<g class="st17">
					
						<ellipse transform="matrix(0.8986 -0.4387 0.4387 0.8986 -506.8428 286.3373)" class="st16" cx="366.23" cy="1240.01" rx="30.09" ry="43.59"/>
				</g>
			</g>
		</g>
		<g>
			<path class="st4" d="M317.47,999.15c42.09-38.14,111.12-48.51,158.27-13.12c15.55,11.54,27.88,26.26,36.27,42.41     c2.97,5.72,0.75,12.76-4.97,15.73c-4.67,2.43-10.23,1.39-13.72-2.19c-21.85-21.58-45.67-38.65-76.01-42.42     c-29.45-4.05-61.49,4.29-89.26,14.99C318.36,1019.11,309.67,1006.44,317.47,999.15L317.47,999.15z"/>
		</g>
		<g>
			<g>
				<g>
					<path class="st4" d="M1101.72,893.26c1.35,9.55,0.93,19.61-1.33,29.25c-2.24,9.7-6.21,18.95-11.37,27.45       c-4.35,7.18-9.53,13.86-15.32,19.96c-5.78-7.17-11.13-13.19-15.25-17.66c5.25-4.12,10.18-8.71,14.44-13.77       c5.24-6.13,9.61-13.04,12.67-20.5c3.04-7.52,4.73-15.6,4.9-23.94l0.02-0.14c0.07-3.12,2.64-5.61,5.76-5.55       C1099.04,888.42,1101.33,890.52,1101.72,893.26z"/>
				</g>
				<g>
					<path class="st4" d="M1159.39,937.65c-2.11,8.54-5.56,16.66-9.79,24.3c-4.26,7.68-9.33,14.86-15.13,21.56       c-5.84,6.67-12.39,12.86-20.01,18.26c-5.99,4.06-12.52,7.93-20.72,10.23c-3.02-9.13-6.9-18.17-11.09-26.64       c0.71-0.04,1.43-0.01,2.09,0.02c4.45,0.36,11.17-1.33,17.44-4.32c6.34-2.94,12.62-7.01,18.45-11.69       c11.61-9.46,21.86-21.43,28.05-35.28l0.02-0.1c1.28-2.85,4.64-4.16,7.49-2.88C1158.74,932.28,1160.02,935.05,1159.39,937.65z"/>
				</g>
				<g>
					<path class="st4" d="M1180.21,994.21c1.8,1.82,2.13,4.54,0.92,6.68l-0.53,0.98c-0.28,0.48-1.04,1.51-1.61,2.34l-1.88,2.58       c-1.28,1.66-2.56,3.39-3.91,4.99c-2.63,3.33-5.42,6.57-8.33,9.66c-5.81,6.25-12.06,12.18-18.87,17.64       c-6.91,5.37-14.42,10.24-22.61,14.37c-8.26,4-17.25,6.96-26.87,8.68c-1.72,0.34-3.4,0.29-5.04,0.04       c3.1-8.41,3.74-18.07,2.77-28.23c6.53-0.04,13.44-0.88,20.29-2.85c6.87-2.07,13.74-4.92,20.45-8.49       c6.64-3.64,13.14-7.87,19.39-12.61c3.1-2.33,6.15-4.82,9.07-7.43c1.54-1.26,2.94-2.64,4.42-3.96l2.12-2.02l2.26-2.33       C1174.47,992.04,1177.99,992.03,1180.21,994.21z"/>
				</g>
			</g>
			<g>
				<g>
					
						<ellipse transform="matrix(0.9595 -0.2818 0.2818 0.9595 -256.1244 330.3419)" class="st4" cx="1020.34" cy="1055.56" rx="121.25" ry="134.87"/>
				</g>
				<g>
					
						<ellipse transform="matrix(0.969 -0.247 0.247 0.969 -226.3814 272.8485)" class="st16" cx="974.48" cy="1038.86" rx="45.5" ry="57.84"/>
				</g>
				<g class="st17">
					
						<ellipse transform="matrix(0.0429 -0.9991 0.9991 0.0429 -53.3281 2117.4539)" class="st16" cx="1078.53" cy="1086.56" rx="48.11" ry="33.21"/>
				</g>
			</g>
		</g>
		<g>
			<path class="st4" d="M1023.53,841.62c-75.48,3.02-127.65,26.47-155.1,100.67c-5.35,13.7-25.79,9.13-24.88-5.46     c5.5-80.63,75.76-131.15,154.05-121.99c10.14,1.27,19.65,2.94,29.85,6.53c5.41,1.91,8.26,7.85,6.34,13.26     C1032.23,839.11,1027.99,841.67,1023.53,841.62L1023.53,841.62z"/>
		</g>
	</g>
</g>
</svg>