<svg xmlns="http://www.w3.org/2000/svg" xmlns:xlink="http://www.w3.org/1999/xlink" version="1.1" id="Layer_1" x="0px" y="0px" style="enable-background:new 0 0 2621.97 2863.77;" xml:space="preserve" viewBox="-0.01 -0.02 2621.97 2863.79">
<style type="text/css">
	.st0{fill:#FFFFFF;}
	.st1{opacity:0.25;}
	.st2{fill:#371A45;}
	.st3{fill:#220F2D;}
	.st4{opacity:0.26;}
	.st5{opacity:0.5;}
	.st6{opacity:0.7;}
	.st7{fill:#67E9FF;}
	.st8{fill:#FFBF94;}
	.st9{fill:#EF3946;}
	.st10{fill:#E8945B;}
	.st11{fill:#542F8E;}
	.st12{opacity:0.3;}
	.st13{fill:#3B087A;}
	.st14{opacity:0.6;}
	.st15{fill:#492A5B;}
	.st16{opacity:0.47;}
	.st17{fill:#57BBFF;}
	.st18{fill:#55AEFF;}
	.st19{fill:#FF0068;}
	.st20{fill:#FFC278;}
	.st21{fill:#F1F2F2;}
	.st22{fill:#3B087B;}
	.st23{fill:#9654D6;}
	.st24{fill:#3CA7EF;}
	.st25{fill:#BC7058;}
	.st26{fill:#EF4848;}
	.st27{opacity:0.35;}
	.st28{fill:#E9E6EF;}
	.st29{fill:#000072;}
	.st30{fill:#F99A26;}
	.st31{fill:#EF7F25;}
	.st32{fill:#F42C44;}
	.st33{fill:#F79FD1;}
	.st34{opacity:0.21;}
	.st35{fill:#64C8FF;}
	.st36{opacity:0.4;}
	.st37{fill:#BC6FF7;}
	.st38{fill:#B77B13;}
	.st39{fill:#FFCB48;}
	.st40{fill:#4D146E;}
	.st41{fill:#5AB5FF;}
	.st42{fill:#FCA800;}
	.st43{fill:#F2EFEB;}
	.st44{fill:#FFB200;}
	.st45{fill:#FF9100;}
	.st46{fill:none;stroke:#293856;stroke-width:34.7689;stroke-linecap:round;stroke-miterlimit:10;}
	.st47{fill:#D66B09;}
	.st48{fill:#FFD766;}
	.st49{fill:#FFAA39;}
	.st50{fill:#FFCF6E;}
	.st51{fill:#FFEC90;}
	.st52{opacity:0.41;}
	.st53{fill:#B1411E;}
	.st54{fill:#650000;}
	.st55{fill:#FEB845;}
	.st56{fill:#F48D40;}
	.st57{fill:#FF78A2;}
	.st58{fill:#993419;}
	.st59{fill:#F42F2F;}
	.st60{fill:#FF9878;}
	.st61{fill:#ED6E5D;}
	.st62{fill:#EFDECC;}
	.st63{fill:#4C136D;}
	.st64{fill:#E0CFBD;}
	.st65{fill:#FEB300;}
	.st66{fill:#FBE291;}
	.st67{opacity:0.2;}
	.st68{fill:#F28D01;}
	.st69{opacity:0.24;}
	.st70{opacity:0.13;}
	.st71{opacity:0.6;fill:url(#SVGID_1_);}
	.st72{opacity:0.83;}
	.st73{fill:#CE2828;}
	.st74{fill:#9B9FBA;}
	.st75{fill:#010270;}
	.st76{fill:#3FB1EA;}
	.st77{fill:#299ADF;}
	.st78{fill:#28328E;}
	.st79{opacity:0.48;}
	.st80{opacity:0.4;fill:url(#SVGID_00000046300342416195642800000001677894964076993178_);}
	.st81{fill:#B5B8C9;}
	.st82{opacity:0.4;fill:url(#SVGID_00000128449840467036607460000006695988181031130509_);}
	.st83{opacity:0.68;fill:url(#SVGID_00000065793179446082479350000016979448033631131542_);}
	.st84{opacity:0.68;fill:url(#SVGID_00000012449030017117152610000018037500947380100758_);}
	.st85{fill:#FFF194;}
	.st86{fill:#390176;}
	.st87{fill:#6E2752;}
	.st88{fill:#3DD4FC;}
	.st89{fill:#F571C6;}
	.st90{fill:#F770D5;}
	.st91{fill:#3AD5FE;}
	.st92{fill:#FFC2E7;}
	.st93{fill:#C07DF4;}
	.st94{fill:#B2B2CC;}
	.st95{fill:#EFDD5E;}
	.st96{fill:#F57E9F;}
	.st97{fill:#FFEBF6;}
	.st98{fill:#FBC1E2;}
	.st99{fill:#FEF369;}
	.st100{fill:#FB6CCC;}
	.st101{fill:#40D3FF;}
	.st102{fill:#E91885;}
	
		.st103{opacity:0.68;clip-path:url(#SVGID_00000158729442494077599070000011836112521672260774_);fill:url(#SVGID_00000167396145546180198150000017419305805740381067_);}
	.st104{fill:#BBBADD;}
	.st105{fill:#A3A3C1;}
	.st106{fill:#777789;}
	.st107{fill:#FF76A7;}
	.st108{fill:#38CE1D;}
	.st109{fill:#F4B519;}
	.st110{fill:#F4144A;}
	.st111{fill:#A875EA;}
	.st112{fill:#FFA9C0;}
</style>
<g>
	<g>
		<g>
			<path class="st55" d="M913.17,2654.17l-140.06,155.26c0,0-18.5,1.85-45.31,3c-57.98,2.35-155.09,1.4-189.66-29.09     c-33.54-29.55-49.98-67.59-44.25-106.27c2.89-19.62,11.49-39.38,26.38-58.23c44.36-56.2,123.83-49.99,123.83-49.99     c0.15-24.09,0.46-48.13,0.95-71.9c4.5-224.03,22.51-424.46,22.51-424.46l110.04,118.74c0,0,80.49,194.13,95.6,244.35     c10.05,33.37,24.32,118.63,32.85,172.26C910.36,2635.08,913.17,2654.17,913.17,2654.17z"/>
		</g>
		<g>
			<path class="st53" d="M2534.27,2146.48l42.53,11.91c-38.16,113.41-140.47,172.86-227.95,141.36     c-80.36-28.93-123.04-132.71-80.04-212.63c3.86-7.15,8.4-14.1,13.62-20.78c63.97-81.49,174.18-80.85,174.18-80.85l-5.74,57     c48.85-34.96,151.49-57.78,151.49-57.78C2601.58,2064.13,2580.29,2119.6,2534.27,2146.48z"/>
		</g>
		<g>
			<path class="st58" d="M2576.8,2158.4c-38.16,113.41-140.47,172.86-227.95,141.36c-80.36-28.93-123.04-132.71-80.04-212.63     c6.21-2.56,10.1-4.05,10.1-4.05C2245.36,2259.85,2511.61,2284.45,2576.8,2158.4z"/>
		</g>
		<g class="st14">
			<path class="st21" d="M2452.98,2021.22c-21.32,0.91-113.4,8.96-169.7,80.74c-17.93,22.9-27.5,48.84-30.01,75.01     c-5.28-37.57,3.01-77.33,29.15-110.62c63.97-81.49,174.18-80.85,174.18-80.85L2452.98,2021.22z"/>
		</g>
		<g class="st14">
			<path class="st21" d="M2602.35,1984.73c-0.14,12.66-0.75,24.78-1.98,36.24c-16.82,3.99-104.59,25.55-148.65,57.09l3.88-38.8     C2506.01,2006.16,2602.35,1984.73,2602.35,1984.73z"/>
		</g>
		<g>
			<path class="st54" d="M2396.93,2327.7c-18.67,0-37.12-3.15-54.75-9.5c-49.12-17.69-87.65-60.3-103.09-113.98     c-15.29-53.18-5.11-107.83,27.92-149.94c69.1-88.09,184.7-88.4,189.7-88.38c5.52,0.03,10.77,2.39,14.46,6.5s5.48,9.58,4.92,15.07     l-1.94,19.21c53.02-25.14,120.45-40.28,123.96-41.06c5.83-1.29,11.94,0.14,16.59,3.91s7.31,9.44,7.26,15.42     c-0.65,68.07-16.21,119.25-46.33,152.79l6.46,1.82c5.17,1.46,9.51,4.97,12.02,9.71c2.5,4.75,2.96,10.32,1.25,15.41     c-22.04,65.51-66.09,118.28-120.86,144.76C2449.39,2321.57,2422.96,2327.7,2396.93,2327.7z M2434.74,2006.91     c-32.99,4.41-96.08,19.57-136.87,71.57c-25.18,32.08-32.86,73.96-21.09,114.91c11.97,41.62,41.38,74.49,78.69,87.93     c32.2,11.6,68.41,9.04,101.96-7.18c39.97-19.33,73.24-56.15,93.37-102.67l-21.83-6.15c-7.57-2.13-13.13-8.58-14.13-16.38     s2.76-15.44,9.56-19.41c33.45-19.55,52.67-59.64,57.29-119.37c-32.42,8.77-88.53,26.13-119.44,48.26     c-6.26,4.49-14.57,4.88-21.24,1.02s-10.45-11.27-9.67-18.93L2434.74,2006.91z"/>
		</g>
		<g>
			<path class="st55" d="M2296.49,2249.76c-60.65,21.86-75.21,126.13-137.57,216.49c-0.05,0.06-0.11,0.11-0.17,0.12     c-6.06,8.89-12.68,17.67-19.81,26.19c-79.88,95.32-249.81,133.99-321.11,81.54l80.12-113.03c0,0,69.69,46.16,140.92,8.08     c3.26-1.7,6.47-3.57,9.72-5.67c74.47-48.02,91.22-108.25,132.93-178.78c41.71-70.53,94.73-97.41,133-99.57     C2352.75,2183.03,2363.13,2225.74,2296.49,2249.76z"/>
		</g>
		<g>
			<path class="st56" d="M2158.73,2466.35c-6.03,8.92-12.66,17.7-19.77,26.22c-69.14,82.44-205.64,122.52-287.33,97.84     c-12.75-3.78-24.18-9.22-33.78-16.31l80.08-113.02c0,0,18.55,12.26,46.33,18.91c26.05,6.26,60.17,7.59,94.61-10.85     C2038.88,2469.14,2076.4,2546.42,2158.73,2466.35z"/>
		</g>
		<g>
			<path class="st54" d="M1905.07,2617.06c-38.66,0-73.55-8.57-98.83-27.17c-8.73-6.42-10.6-18.68-4.18-27.4     c6.42-8.73,18.68-10.6,27.4-4.18c59.2,43.54,218.61,12.18,294.45-78.32c34.02-40.59,55.36-87.53,74.18-128.95     c25.28-55.62,47.12-103.66,91.72-119.74c28.43-10.24,34.97-22,35.42-24.8c-0.89-0.69-3.81-2.08-9.64-1.78     c-15.53,0.86-69.85,9.89-117.19,89.97c-9.49,16.04-17.73,31.69-25.7,46.82c-26.77,50.83-52.07,98.85-113.48,138.45     c-84.28,54.33-168.54-0.22-172.08-2.56c-9.02-5.98-11.49-18.14-5.52-27.17c5.97-9,18.1-11.49,27.13-5.54     c3.04,1.98,66.96,42.48,129.22,2.32c52.77-34.03,73.64-73.63,100.05-123.77c8.19-15.55,16.66-31.64,26.64-48.51     c38.63-65.33,94.24-106.13,148.77-109.16c25.79-1.49,45.98,11.77,50.27,32.85c4.39,21.58-9.22,51.24-60.59,69.76     c-29.05,10.47-47.71,51.53-69.33,99.08c-19.86,43.69-42.37,93.22-79.82,137.91C2095.9,2574.46,1991.19,2617.05,1905.07,2617.06z"/>
		</g>
		<g>
			<path class="st21" d="M913.18,2654.17l-87.42,96.94l-52.65,58.35c0,0-6.61,0.64-17.68,1.45c-1.34,0.09-2.74,0.17-4.25,0.26     c-6.67,0.43-14.57,0.84-23.39,1.27l-0.97,0.02c-21.62,0.9-48.59,1.28-75.66-0.16c-2.05-0.11-4.1-0.22-6.2-0.39     c-2.05-0.11-4.15-0.28-6.2-0.39c-4.1-0.33-8.2-0.66-12.3-1.1c-3.99-0.39-7.99-0.83-11.93-1.33c-0.05,0-0.11,0-0.22-0.05     c-3.94-0.5-7.78-1.05-11.62-1.66c-3.89-0.66-7.73-1.37-11.52-2.14c-3.68-0.77-7.25-1.55-10.72-2.43     c-7.59-1.97-14.69-4.22-21.11-6.87c-2.5-1.07-4.84-2.14-7.13-3.27l-0.06-0.05c-2.67-1.34-5.18-2.78-7.54-4.34     c-2.35-1.56-4.49-3.18-6.47-4.91c-5.34-4.72-10.25-9.61-14.68-14.72c-2.99-3.37-5.71-6.86-8.27-10.41     c-6.69-9.26-11.98-19.1-15.73-29.24c-6.22-16.65-8.2-34.21-5.56-51.94c2.86-19.62,11.43-39.31,26.38-58.2     c44.36-56.21,123.82-50,123.82-50c0.17-24.13,0.45-48.15,0.95-71.91c0,0,53.17-5.54,113.15,7.44c22.03,4.8,44.98,12.05,66.57,23     c1.2,0.62,2.4,1.23,3.6,1.91c31.58,16.74,59.91,41.63,77.66,78.52C910.35,2635.07,913.18,2654.17,913.18,2654.17z"/>
		</g>
		<g>
			<path class="st54" d="M689.92,2832.98c-59.17,0-132.36-6.4-164.74-34.93c-61.47-54.11-69.43-129.23-20.28-191.37     c35.79-45.34,90.12-55.34,119.76-57.25c0.18-17.93,0.44-35.65,0.8-52.89c4.47-222.13,22.41-423.8,22.59-425.81     c0.97-10.79,10.57-18.74,21.27-17.77c10.78,0.97,18.74,10.49,17.77,21.27c-0.18,2-18,202.38-22.44,423.11     c-0.48,23.21-0.8,47.3-0.95,71.62c-0.03,5.44-2.32,10.63-6.33,14.31c-4,3.69-9.38,5.53-14.79,5.11     c-0.63-0.02-69.79-4.45-106.92,42.6c-35.69,45.11-29.77,97.85,15.43,137.64c30.97,27.29,143.55,28.07,212.58,21.99l128.74-142.71     c-1.23-8.13-3.22-21.2-5.72-37.01c-13.57-85.4-25.02-145.66-32.25-169.66c-14.65-48.72-94.13-240.57-94.93-242.5     c-4.15-10,0.6-21.47,10.6-25.62c10.02-4.16,21.47,0.6,25.62,10.6c3.31,7.96,81.04,195.63,96.26,246.22     c9.9,32.85,23.64,113.2,33.43,174.82c4.32,27.37,7.15,46.54,7.15,46.54c0.85,5.78-0.92,11.65-4.84,15.99l-140.05,155.26     c-3.26,3.62-7.75,5.89-12.6,6.37C766.87,2829.75,731.93,2832.98,689.92,2832.98z"/>
		</g>
		<g>
			<path class="st54" d="M607.25,2818.95c-1.41-3.96-2.13-6.78-2.95-10.04c-0.82-3.16-1.45-6.29-2.1-9.42     c-1.21-6.25-2.13-12.48-2.82-18.7c-1.37-12.43-1.63-24.87-0.85-37.13c0.21-6.12,1.15-12.21,1.85-18.22     c1.15-6.01,1.97-11.96,3.63-17.78c2.67-11.72,7.12-22.87,11.79-33.55c-1.56,11.66-2.7,23.15-2.05,34.6     c0,5.68,0.83,11.37,1.32,16.95c0.94,5.6,1.63,11.13,3,16.57c2.39,10.9,5.7,21.5,9.87,31.61c2.09,5.05,4.34,10,6.78,14.77     c1.25,2.36,2.48,4.73,3.82,6.96c1.24,2.16,2.79,4.68,3.84,5.98L607.25,2818.95z"/>
		</g>
		<g>
			<polygon class="st54" points="649.69,2550.06 706.38,2587.3 638.55,2587.65    "/>
		</g>
		<g>
			<path class="st55" d="M1975.9,2429.27c0,0-33.67,76.44-132.71,150.77c0,0,15.83,17.6,31.32,44.34     c21.57,37.13,42.55,91.74,19.88,141.14c-39.07,84.98-453.61,85.64-511.81,72.14c-34.87-8.12-90.42-28.01-112.39-72.3     c-7.53-15.06-11.22-32.95-8.82-54.18c0.19-1.52,0.38-3.03,0.62-4.55c0-0.11,0-0.17,0.05-0.28c0.72-4.84,1.68-9.51,2.96-14.13     c-0.45-0.16-0.96-0.26-1.41-0.41c-3.05-0.82-6.2-1.7-9.31-2.63c-114.52-32.97-284.59-104.16-419.24-253.79     c-224.51-249.47-208.65-636.13-208.65-636.13l1055.84-238.68c0,0,5.84,14.37,17.78,37.95c24.89,49.31,76.3,139.05,156.59,222.99     C2023.41,1995.92,2070.4,2245.87,1975.9,2429.27z"/>
		</g>
		<g>
			<path class="st56" d="M1975.89,2429.25c0,0-9.03,20.52-31.62,50.73c-27.78-6.65-46.33-18.91-46.33-18.91l-80.08,113.02     c9.59,7.09,21.03,12.52,33.78,16.31c6.06,7.77,14.53,19.52,22.9,33.96c-18.75,1.8-52.82,0.2-94.29-4.83     c-2.51-10.22-6.32-21.01-11.55-32.24c-44.7-96.11-25.44-125.98-7.68-135.13c25.05-12.99,48.74-28.64,68.28-49.03     c158.18-165.74,128.17-422.72-28.75-545.68c-170.36-133.46-414.44-17.39-419.13-15.12l84.79-181.3c0,0,116.32-55.04,131.19-59.17     c9.95-2.77,66.74-3.23,102.66-3.34c24.88,49.31,76.27,139.07,156.59,223.02C2023.41,1995.94,2070.43,2245.89,1975.89,2429.25z"/>
		</g>
		<g>
			<path class="st56" d="M1944.27,2479.99c-20.86,27.97-53.32,64.23-101.07,100.07c0,0,3.32,3.69,8.43,10.35     c-12.75-3.78-24.18-9.22-33.78-16.31l80.08-113.02C1897.94,2461.08,1916.49,2473.34,1944.27,2479.99z"/>
		</g>
		<g>
			<path class="st56" d="M758.2,2504.4c11.04-129.07-33.7-235.78-37.29-244.15l26.08,47.45l66.19,109.54l11.6,110.16     C803.19,2516.45,780.23,2509.2,758.2,2504.4z"/>
		</g>
		<g class="st14">
			<path class="st21" d="M1726.07,2108.09c-115.84-73.5-220.05-78.66-297.42-39.48c-3.86,62.78-40.26,86.74-94.36,89.67     c-61.5,102.66-62.47,261.67,32.25,421.34l-62.05-80.18c0,0-51.48-97.02-55.7-151.09c-4.16-54.07-0.94-159.64,41.62-213.33     c42.57-53.63,68.83-89.06,213.27-120.56C1646.2,1983.41,1723.92,2104.67,1726.07,2108.09z"/>
		</g>
		<g>
			<path class="st21" d="M1196.8,2650.06c-1.28,4.93-2.62,9.76-3.96,14.47c-5.29-4.88-10.32-10.47-14.67-16.77     c-21.26-30.61-297.44-177.93-297.44-177.93l-87.04-85.5l-73.06-124.5c0,0-20.33-150.65,102.34-56.59     c97.38,74.75,282.45,146.15,354.54,172.41c-11.53,82.18-22.01,149.69-36.16,201.67     C1162.81,2596.12,1181.8,2619.94,1196.8,2650.06z"/>
		</g>
		<g>
			<path class="st21" d="M1371.03,2591.41c0,0-5.63,1.16-13.92,3.19c-23.02,5.56-66.39,17.87-65.55,30.5     c0.75,10.81-20.86,34.75-37.1,51.08l-0.05,0.06c-9.57,9.65-17.26,16.68-17.26,16.68s-13.1-5.01-28.21-15.47     c-5.26-3.59-10.8-7.87-16.09-12.91c1.34-4.72,2.68-9.54,3.96-14.47c-15-30.11-33.99-53.94-55.44-72.75     c14.14-51.98,24.63-119.49,36.16-201.67c18.69,6.82,29.82,10.59,29.82,10.59l52.3,34.22l45.49,75.42l21.37,35.4     c0.06,0.11,0.11,0.21,0.22,0.32l1.57,2.65l5.84,7.77c0.83,1.11,1.61,2.17,2.39,3.23l30.49,40.83L1371.03,2591.41z"/>
		</g>
		<g>
			<path class="st21" d="M1894.42,2765.5c-39.08,85-453.63,85.65-511.84,72.19c-8.88-2.1-19.13-4.92-29.83-8.76     c-1.63-0.55-3.31-1.21-4.94-1.82c-0.87-0.3-1.69-0.66-2.5-0.96c-5.27-2.08-10.55-4.38-15.84-6.94c-1.36-0.67-2.67-1.34-3.98-2     c-7.58-3.91-14.96-8.42-21.92-13.58c-0.77-0.57-1.54-1.15-2.3-1.72c-5.6-4.28-10.82-8.95-15.53-14.11     c-1.71-1.84-3.32-3.69-4.82-5.65c-1.33-1.64-2.56-3.28-3.73-4.97c-0.89-1.22-1.73-2.49-2.52-3.82c-0.62-1.01-1.23-2.02-1.85-3.02     c-0.17-0.32-0.34-0.58-0.51-0.9c-0.73-1.33-1.47-2.71-2.15-4.09c-0.02-0.05-0.03-0.1-0.04-0.16     c-7.46-15.04-11.14-32.86-8.75-54.01c0.18-1.51,0.36-2.97,0.59-4.43c0-0.05,0-0.05,0-0.11c0-0.05,0-0.11,0.05-0.16     c0.05-0.22,0.04-0.38,0.09-0.54c0.7-4.65,1.66-9.25,2.9-13.69c-0.49-0.15-0.92-0.25-1.41-0.4c-3.09-0.84-6.18-1.74-9.33-2.68     c2.9-4.86,6.28-9.84,10.3-14.95l0.05,0c2.4-3.13,5.12-6.32,8.06-9.51c11.7-12.77,27.32-25.97,48.16-39.13     c0.16-0.11,0.27-0.17,0.42-0.28l0.42-0.28l77.48-44.57c0,0,87.53-30.11,196.64,1.82c62.09,18.15,129.65,30.68,184.41,37.27     c41.48,5.03,75.54,6.63,94.29,4.83C1896.1,2661.48,1917.08,2716.11,1894.42,2765.5z"/>
		</g>
		<g>
			<path class="st54" d="M1498.79,2863.77c-56.11,0-101.8-2.64-120.63-7.01c-94.64-22.09-144.29-75.94-136.26-147.75     c0.11-0.97,0.23-1.94,0.36-2.9c-122-35.98-288.42-109.39-421.77-257.61c-227.24-252.5-214.32-633.93-213.66-650.04     c0.36-8.85,6.62-16.36,15.26-18.32l1055.84-238.68c9.31-2.12,18.86,2.85,22.48,11.73c0.54,1.33,55.88,135.07,170.38,254.78     c171.02,178.82,221.46,437.73,122.77,629.82c-3.53,7.72-36.2,75.77-122.64,145.5c25.43,34.16,75.59,115.68,41.28,190.41     c-7.5,16.31-30.3,65.91-265,84.36C1596.74,2862.03,1544.33,2863.77,1498.79,2863.77z M645.81,1814.97     c0.11,72.66,11.92,394.08,203.81,607.31c133.54,148.42,302.43,218.44,420.6,251.04c5.01,1.38,9.27,4.7,11.84,9.22     c2.56,4.53,3.23,9.88,1.84,14.9c-1.41,5.1-2.41,10.32-3.05,15.96c-7.63,68.16,63.25,95.16,106.18,105.18     c26.41,6.12,142.44,9.41,257.09,0.4c156.14-12.27,222.45-39.89,232.45-61.65c33.12-72.13-47.18-163.31-47.99-164.22     c-3.66-4.1-5.43-9.54-4.89-15s3.34-10.45,7.73-13.75c93.85-70.43,126.22-142.27,126.54-142.99c0.16-0.37,0.33-0.72,0.51-1.08     c91.47-177.5,43.76-418.16-116.02-585.22c-98.01-102.47-153.42-212.08-171.65-251.8L645.81,1814.97z"/>
		</g>
		<g>
			<path class="st54" d="M1537.06,2622.9c-26.85-4.57-52.76-8.86-78.32-10.05c-25.49-1.26-50.43-0.08-74.06,4.95     c-11.79,2.53-23.5,5.89-33.48,10.2c-10.24,4.41-19.81,10.17-28.4,17.07c-17.49,13.57-30.45,31.79-38.89,52.39l-0.27,0.65     c-4.12,10.05-15.6,14.85-25.65,10.73c-8.8-3.61-13.58-12.88-11.86-21.88c2.91-15.23,9.14-29.84,17.43-43.03     c8.38-13.16,19.12-24.74,31.31-34.33c12.23-9.54,25.91-17.19,40.46-22.27c3.64-1.25,7.26-2.55,11-3.47l5.56-1.45l5.38-1.11     c7.16-1.52,14.4-2.45,21.62-3.18c28.94-2.76,57.72,0.75,84.43,8.71C1490.1,2594.73,1514.96,2607.06,1537.06,2622.9z"/>
		</g>
		<g>
			<path class="st55" d="M1262.23,2262.56c-1.12,11.66-2.24,23.1-3.48,34.33c-16,150.99-39.51,268.08-61.95,353.17     c-0.64,2.44-1.28,4.93-1.98,7.32c-0.64,2.38-1.34,4.77-1.98,7.16c-0.65,2.28-1.29,4.5-1.94,6.72c-0.74,2.66-1.54,5.26-2.34,7.86     c-0.95,3.09-1.85,6.08-2.85,9.06c-1.85,5.97-3.81,11.67-5.78,17.21c-1.97,5.49-3.99,10.81-6.02,15.92     c-35.7,89.12-149.38,135.26-292.66,117.73c-143.28-17.54-192.95-42.99-174.49-148.44c18.45-105.5,117.61-117.7,117.61-117.7     c1.83-15.71,3.26-32.01,4.37-48.67c12.75-189.68-15.87-427.26-15.87-427.26l382.86,141.09l64.38,23.75L1262.23,2262.56z"/>
		</g>
		<g>
			<path class="st21" d="M1196.8,2650.06c-5.32,20.32-10.96,38.76-16.86,55.33c0,0,0,0.05-0.05,0.11     c-1.97,5.49-3.94,10.76-5.97,15.81c-27.83,69.6-103.29,112.93-203.21,120.3l-0.38,0.01c-27.95,2.02-57.8,1.24-89.07-2.59     c-94.46-11.56-148.18-26.52-168.56-65.66c-4.46-8.45-7.33-18.13-8.67-29.14c-1.87-15.09-0.9-32.82,2.74-53.64     c18.45-105.5,117.61-117.7,117.61-117.7c1.83-15.71,3.26-32.01,4.37-48.67c0,0,193.74-51.2,312.62,53.08     C1162.81,2596.12,1181.8,2619.94,1196.8,2650.06z"/>
		</g>
		<g>
			<path class="st56" d="M1268.18,2123.34l-5.2,110.29c-1.22,9.61-2.18,19.01-2.87,28.18c-0.89,12.03-1.36,23.73-1.36,35.09     c-16,150.99-39.51,268.08-61.95,353.17c-15-30.11-33.99-53.94-55.44-72.75c14.14-51.98,24.63-119.49,36.16-201.67     c3.44-24.85,7-51.05,10.76-78.55c2.84-20.58,5.33-40.24,7.46-59.03c22.03-191.47,11.33-288.78,11.33-288.78     c40.85,27.98,51.22,89.49,51.22,89.49L1268.18,2123.34z"/>
		</g>
		<g>
			<path class="st54" d="M1387.61,2612.49c-36.54-24.62-69.39-55.66-94.85-92.28c-25.55-36.53-43.46-78.35-52.79-121.76     c-9.44-43.43-10.46-88.27-4.72-131.83c5.73-43.61,18.13-86.05,35.71-126.02c0.18-0.42,0.38-0.82,0.59-1.22l0.05-0.09     c24.5-46.27,62.54-84.96,107.49-111.35c44.84-26.48,96.73-41.85,149.35-41.45c52.43,0.28,105.36,16.92,147.05,48.44     c41.86,31.33,71,76.74,82.87,124.64c-14.55-20.06-29.76-38.64-46.77-54.81c-16.95-16.18-35.38-30.05-55.06-41.19     c-39.3-22.41-83.67-33.64-128.35-33.78c-44.58-0.26-89.89,10.24-129.18,32.49c-39.26,22.21-71.67,55.77-92.79,95.43l0.63-1.31     c-16.18,36.81-27.51,75.72-32.71,115.31c-5.21,39.56-4.24,79.85,4.17,118.45c8.32,38.6,24.1,75.38,46.63,107.61     c22.47,32.31,51.57,59.91,84.55,82.16l0.05,0.03c8.97,6.05,11.35,18.23,5.29,27.21     C1408.76,2616.17,1396.59,2618.54,1387.61,2612.49z"/>
		</g>
		<g>
			<path class="st54" d="M1827.95,2592.33l-48.27-91.07l78.79,66.46c8.43,7.11,9.5,19.71,2.39,28.13     c-7.11,8.43-19.71,9.5-28.13,2.39C1830.72,2596.55,1829.11,2594.5,1827.95,2592.33z"/>
		</g>
		<g>
			<path class="st54" d="M812.87,2096.99c9.99,38.87,17.28,78.25,23.39,117.79c1.66,9.88,2.98,19.79,4.29,29.7     c1.35,9.91,2.68,19.83,3.85,29.78c2.23,19.88,4.27,39.81,5.96,59.78c1.46,19.99,2.48,40,2.51,60.07     c0.22,20.05-0.61,40.15-1.16,60.22c-1.66,40.18-3.38,80.45-7.86,120.81c-0.97,8.78-7.64,15.54-15.92,17.02l-1.16,0.2h0     c-1.63,0.24-4.84,0.9-7.39,1.51c-2.72,0.74-5.46,1.39-8.17,2.34c-2.73,0.81-5.42,1.78-8.08,2.86c-2.71,0.95-5.31,2.14-7.9,3.36     c-10.31,4.88-20.16,10.74-28.65,18.09c-17.13,14.5-29.38,33.83-36.18,55.67c-1.6,5.5-2.66,11.23-4.09,16.83     c-1.13,5.9-1.96,12.03-2.64,17.96c-1.28,11.9-1.35,23.49,0.24,34.01c1.68,10.51,5.26,19.5,11.01,26.99     c2.96,3.72,6.45,7.14,10.42,10.32c4.15,3.06,8.61,5.97,13.59,8.5c20,10.19,44.71,16.01,69.49,20.62     c12.47,2.29,25.13,4.22,37.9,5.93c6.35,0.87,12.84,1.71,19.15,2.41l18.79,1.8c25.05,1.81,50.18,2.04,74.92-0.4     c24.68-2.63,48.98-7.62,71.87-15.78c22.86-8.14,44.31-19.53,62.3-34.53c18-14.95,32.36-33.55,41.28-54.64     c9.45-22.6,16.88-47.36,23.39-72.02c6.45-24.8,12.1-49.95,16.99-75.36c19.42-101.71,31.16-205.55,41.24-309.42l0-0.06     c1.04-10.78,10.63-18.66,21.4-17.62c10.77,1.04,18.66,10.63,17.62,21.4v0c-10.16,104.54-21.92,209.1-41.79,313.19     c-5.01,26.02-10.83,51.98-17.56,77.85c-6.88,25.93-14.45,51.51-25.17,77.24c-11.46,27.21-30.07,51.11-52.3,69.53     c-22.26,18.54-47.83,31.93-74.21,41.34c-26.44,9.41-53.78,14.96-81.15,17.87c-27.4,2.71-54.8,2.45-81.95,0.48l-20.3-1.95     c-6.7-0.75-13.18-1.59-19.81-2.5c-13.18-1.77-26.41-3.78-39.69-6.21c-13.29-2.44-26.64-5.28-40.07-9.05     c-13.42-3.83-26.98-8.38-40.37-15.31c-6.69-3.41-13.28-7.59-19.62-12.36c-6.28-4.97-12.21-10.72-17.37-17.29     c-5.13-6.61-9.24-14.02-12.38-21.63c-3.21-7.64-4.99-15.47-6.35-23.16c-2.34-15.39-2.01-30.2-0.53-44.31     c0.81-7.08,1.74-13.93,3.06-20.88c1.7-7.11,3.11-14.28,5.18-21.32c8.6-28.14,25.4-54.84,48.36-74.11     c11.37-9.78,24.21-17.47,37.53-23.74c3.34-1.57,6.7-3.08,10.16-4.32c3.42-1.37,6.88-2.61,10.42-3.68     c3.48-1.19,7.11-2.09,10.71-3.05c3.83-0.88,7.01-1.63,11.86-2.33h0.01l-17.08,17.22c4.11-38.67,6.5-77.83,6.69-117.11     c-0.18-19.67-0.36-39.31-0.86-59c-0.07-19.68-0.53-39.38-0.11-59.12l0.88-118.81C811.67,2176.89,811.94,2137.08,812.87,2096.99z"/>
		</g>
		<g>
			<path class="st54" d="M1244.38,2218.84c3.62-16.33,6.49-34,8.81-51.25c2.28-17.37,3.99-34.86,4.89-52.42     c0.78-17.54,0.91-35.17-0.19-52.79c-1.3-17.58-3.69-35.16-8.18-52.5c7.55,16.21,13.26,33.42,17.86,50.96     c4.39,17.58,7.58,35.48,10.09,53.5c2.39,18.03,3.94,36.18,4.9,54.39c0.89,18.34,1.33,36.23,0.68,55.26     c-0.37,10.87-9.49,19.38-20.36,19.01c-10.87-0.37-19.38-9.49-19.01-20.36c0.04-1.19,0.19-2.35,0.43-3.48L1244.38,2218.84z"/>
		</g>
		<g>
			<path class="st54" d="M827.68,2553.58c17.16,6.28,34.12,12.66,51.1,19.22c16.93,6.6,33.92,13.16,50.43,20.68     c-18.04-1.16-36.06-1.26-54.1-1.42c-18.02-0.1-36.11-0.04-54.05,0.17c-11.01,0.13-20.03-8.69-20.16-19.69     c-0.13-11.01,8.69-20.03,19.69-20.16C823.06,2552.33,825.49,2552.78,827.68,2553.58z"/>
		</g>
		<g>
			<path class="st54" d="M771.56,2828.7c-1.24-7.33-1.83-13.57-2.41-20.29c-0.54-6.61-0.87-13.2-1.01-19.79     c-0.28-13.18,0.25-26.37,1.91-39.45c1.71-13.05,4.48-26.06,9.35-38.28c4.7-12.21,11.93-23.59,21.39-31.91     c-6.98,10.53-10.6,22.4-11.9,34.36c-1.42,11.95-0.8,24.02,0.76,35.89c1.61,11.88,4.24,23.63,7.58,35.14     c1.66,5.75,3.5,11.46,5.5,17.07c1.97,5.49,4.21,11.41,6.4,16.08L771.56,2828.7z"/>
		</g>
		<g>
			<path class="st54" d="M923.62,2850.74c-1.35-4.19-2.12-7.46-3.01-11.11c-0.82-3.55-1.6-7.09-2.25-10.62     c-1.37-7.07-2.41-14.14-3.22-21.23c-1.58-14.17-2.04-28.4-1.29-42.5c0.73-14.11,3.22-28.09,6.94-41.47     c3.8-13.43,9.9-25.96,16.98-37.4c-4.14,12.91-6.87,25.91-7.31,39.03c-0.36,13.1,0.51,26.04,2.97,38.71     c2.45,12.67,5.94,25.04,10.37,37.01c2.22,5.98,4.64,11.87,7.3,17.6c1.3,2.88,2.69,5.69,4.1,8.46c1.39,2.66,2.98,5.66,4.26,7.64     L923.62,2850.74z"/>
		</g>
		<g>
			<path class="st54" d="M1315.33,2827.8c-0.88-3.87-1.25-6.67-1.69-9.88c-0.42-3.1-0.73-6.18-0.98-9.24     c-0.53-6.12-0.72-12.2-0.76-18.25c0-12.1,1.05-24.12,3.1-35.87c1.93-11.75,5.32-23.21,9.65-34.04     c4.11-10.93,10.3-20.88,16.64-30.15c-3.47,10.83-6.37,21.53-7.14,32.53c-0.98,10.91-0.95,21.73,0.43,32.39     c1.26,10.64,3.43,21.07,6.45,31.17c1.55,5.04,3.21,10.01,5.13,14.83c0.94,2.41,1.93,4.79,2.98,7.09c1,2.2,2.21,4.79,3.12,6.22     L1315.33,2827.8z"/>
		</g>
		<g>
			<path class="st54" d="M1435.17,2845.08c-0.88-3.87-1.25-6.67-1.69-9.88c-0.42-3.1-0.73-6.18-0.98-9.23     c-0.53-6.12-0.73-12.2-0.76-18.25c0-12.1,1.05-24.12,3.1-35.87c1.93-11.75,5.32-23.21,9.65-34.04     c4.12-10.93,10.3-20.88,16.64-30.15c-3.47,10.82-6.37,21.53-7.14,32.53c-0.97,10.91-0.95,21.73,0.43,32.39     c1.26,10.64,3.43,21.07,6.45,31.17c1.55,5.04,3.21,10.01,5.13,14.83c0.95,2.41,1.93,4.79,2.98,7.09c1,2.2,2.21,4.79,3.11,6.22     L1435.17,2845.08z"/>
		</g>
		<g class="st12">
			<path class="st54" d="M1370.82,2582.8l-3.8,3.27l-9.92,8.53l-92.52,79.61l-10.13,1.97l-0.05,0.06l-26.05,5.1     c0,0-6.57-8.94-19.42-3.89c-7.52,2.98-17.24,10.75-28.99,27.95c1.97-5.54,3.93-11.24,5.78-17.21c1.01-2.93,1.96-5.97,2.85-9.06     c0.8-2.55,1.6-5.21,2.34-7.86c0.65-2.22,1.29-4.45,1.94-6.72c0.7-2.33,1.34-4.72,1.98-7.16c0.7-2.39,1.34-4.88,1.98-7.32     c22.44-85.08,45.94-202.17,61.95-353.17c-0.56,86.01,21.61,152.08,46.38,198.97c7.05,13.34,14.34,25.18,21.37,35.4     c0.06,0.11,0.11,0.21,0.22,0.32c2.51,3.71,4.96,7.15,7.41,10.43c0.83,1.11,1.61,2.17,2.39,3.23     C1355.71,2570.4,1370.82,2582.8,1370.82,2582.8z"/>
		</g>
		<g class="st12">
			<path class="st54" d="M1196.8,2650.06c-5.32,20.32-10.96,38.76-16.86,55.33c0,0,0,0.05-0.05,0.11     c-4.84,7.06-10.01,15.75-15.52,26.33c-41.89,80.27-153.46,104.62-193.67,109.79l-0.38,0.01c-40.32,5.07-226.2,4.82-257.4-67.71     c-0.06-0.16-0.17-0.37-0.23-0.53c-4.28-10.07-7.05-19.81-8.67-29.14c-3.45-20.27-1.42-38.52,2.74-53.64     c7.67-27.97,22.43-45.4,22.43-45.4c-27.26,179.97,258.59,83.4,334.88,51.89c37.05-15.33,59.93-55.78,77.28-119.79     C1162.81,2596.12,1181.8,2619.94,1196.8,2650.06z"/>
		</g>
		<g class="st12">
			<path class="st54" d="M1874.53,2624.37c21.57,37.12,42.55,91.75,19.89,141.13c-39.08,85-453.63,85.65-511.84,72.19     c-8.88-2.1-19.13-4.92-29.83-8.76c-1.63-0.55-3.31-1.21-4.94-1.82c-0.87-0.3-1.69-0.66-2.5-0.96     c-5.27-2.08-10.55-4.38-15.84-6.94c-1.31-0.67-2.62-1.34-3.98-2c-7.58-3.91-14.96-8.42-21.92-13.58     c-0.77-0.57-1.54-1.15-2.3-1.72c-5.6-4.28-10.82-8.95-15.53-14.11c-1.71-1.84-3.32-3.69-4.82-5.65     c-1.33-1.64-2.56-3.28-3.73-4.97c-0.89-1.22-1.73-2.49-2.52-3.82c-0.62-1.01-1.23-2.02-1.85-3.02c-0.17-0.32-0.34-0.58-0.51-0.9     c-0.73-1.33-1.47-2.71-2.15-4.09c-6.64-22.99-8.88-42.32-8.2-58.6c0-0.05,0-0.05,0-0.11c0-0.05,0-0.11,0.05-0.16     c0,0,0-0.05,0.05-0.11c0-0.16-0.01-0.27,0.04-0.43c0.2-5.01,0.63-9.65,1.49-14.09l0-0.05c1.52-8.6,3.92-16.14,6.99-22.73     c0.66-1.52,1.38-2.99,2.1-4.36c15.97-30,44.36-38.17,48.16-39.13c0.11-0.06,0.21-0.06,0.27-0.06c0.11-0.06,0.16-0.06,0.16-0.06     c-81.78,178.59,132.15,147.68,132.15,147.68c201.65,19.95,356.38-32.3,326.79-153.6     C1821.71,2624.56,1855.78,2626.16,1874.53,2624.37z"/>
		</g>
		<g>
			<g>
				<path class="st53" d="M1092.01,86.54c0,0,145.43-72.61,352.16-25.32l1.58,65.32c0,0,255.85,30.31,390.2,201.16      c0,0-60.99,120-63.14,110.49c151.76,171.41,246.24,380.47,223.35,666.64l-70.82-33c0,0,70.95,211.78-24.19,418.8l-105.07-89.66      c0,0,49.21,183.68-187.89,340.67l-49.97-58.55c0,0-115.7,157.79-351.59,210.17l-13.18-81.85      c-177.79,100-361.35,136.48-418.02,243.06c-48.74-134.01-197.9-191.29-274.17-333.71c0,0-7.35,43.59-11.98,141.74      c-119.53-63.67-212.08-180.75-268.05-370.27l-54.84,48.94c-81.47-107.96-112.37-263.81-70.63-488.48l-48.51,21.04      c0,0-107.61-337.99,101.68-544.72s201.46-298.98,201.46-298.98l-29.58-65.11c0,0,165.36-111.84,407.37-65.87l-46.41-66.1      C681.76,32.96,936.78-19.89,1092.01,86.54z"/>
			</g>
			<g>
				<path class="st58" d="M1996.16,1104.82l-70.83-33.02c0,0,70.94,211.78-24.16,418.84l-105.08-89.67c0,0,49.2,183.68-187.9,340.67      l-49.99-58.57c0,0-115.68,157.81-351.55,210.17l-13.18-81.81c-177.81,99.98-361.35,136.46-418.04,243.04      c-48.73-134-197.9-191.29-274.17-333.71c0,0-7.35,43.59-11.98,141.74c-113.85-60.67-203.26-169.76-259.79-343.75      c67.93,135.89,157.35,219.72,263.18,263.83c-3.53-95.15,0.14-137.87,0.14-137.87c86.92,130.95,238.76,173.56,297.8,298.74      c27.29-62.34,98.4-105.63,185.83-152.67c7.3-3.82,14.38-7.63,21.24-11.33c0.05-0.06,0.05-0.06,0.05-0.06      c73.59-40.32,120.95-76.7,82.39-100.25c-59.12,1.6-122.58-0.34-190.41-6.49c-298.69-26.95-450.77-139.86-517.93-255.55      c83.26,74.79,220.22,138.93,435.17,164.16c511.81,60.18,780.71-109.29,829.24-271.07c54.02-180.18-53.22-296.52-56.64-440.7      c-4.27-178.94-151.51-381.49-380.69-355.61c251.2-72.01,424.66,156.07,436.28,361.1c3.71,65.62,25.66,125.2,46.25,186.95      l22.79,60.48c25.36,67.28,70.46,125.33,129.39,166.53l20.54,14.36c75.98-205.76-8.82-402.13-10.6-406.24l72.5,25.75      c-0.24-63.07-6.08-121.81-16.93-176.73c0,0,0-0.06,0-0.11c-38.66-141.47-190.83-21.72-190.83-21.72l-0.82-34.04      c0,0,8.53,5.4,25.11-11.03c16.58-16.42,50.79-35.62,60.22-51.26c9.43-15.63,51.76-53.35,51.76-53.35      c-48.24-106.84-118.59-196.74-203.18-275.59c4.42-0.11,31.12-61.59,44.68-93.63c54.15,29.28,107.94,68.93,149.9,122.31      c0,0-56.31,110.88-62.58,111.03C1924.77,610.03,2019,818.95,1996.16,1104.82z"/>
			</g>
			<g class="st12">
				<path class="st40" d="M997.69,1779.48c-6.86,3.7-13.94,7.51-21.24,11.33C983.42,1787.05,990.5,1783.24,997.69,1779.48z"/>
			</g>
			<g class="st12">
				<path class="st40" d="M221.24,1492.25c2.68,9.01,5.42,17.85,8.26,26.52c-3.94-7.75-7.72-15.61-11.44-23.7L221.24,1492.25z"/>
			</g>
			<g class="st14">
				<path class="st21" d="M174.35,1534.11l-7.95,7.08c-75.12-99.53-107.25-239.76-79.08-437.07l42.85-18.63      C93.29,1283.86,113.09,1428.65,174.35,1534.11z"/>
			</g>
			<g class="st14">
				<path class="st21" d="M1444.17,61.2l0.63,26.03c-188.63-32.7-318.38,32.06-318.38,32.06C971.19,12.91,716.17,65.74,716.17,65.74      l46.41,66.1c-242-45.97-407.37,65.87-407.37,65.87l29.58,65.11c0,0,7.83,92.25-201.46,298.98      C19.47,723.69,49.86,965.98,70.77,1063.57l-23.51,10.2c0,0-107.61-338.01,101.68-544.75s201.46-298.98,201.46-298.98      l-29.58-65.11c0,0,165.36-111.84,407.37-65.87l-46.41-66.1c0,0,255.02-52.83,410.25,53.56      C1092.01,86.52,1237.43,13.93,1444.17,61.2z"/>
			</g>
			<g>
				<path class="st54" d="M775.44,2074.08c-0.46,0-0.91-0.02-1.38-0.05c-7.72-0.54-14.4-5.58-17.05-12.86      c-24.02-66.06-75.51-113.5-130.02-163.74c-39.03-35.96-79.05-72.85-112.54-118.96c-1.89,21.54-3.92,49.72-5.59,84.96      c-0.32,6.71-4.05,12.79-9.89,16.12c-5.84,3.32-12.98,3.42-18.91,0.26c-124.6-66.38-212.64-181.91-268.51-352.66l-32.11,28.66      c-4.08,3.65-9.48,5.42-14.97,4.88c-5.45-0.53-10.43-3.33-13.73-7.7c-85.61-113.44-112.04-266.76-80.43-467.89l-15.26,6.62      c-5.08,2.2-10.87,2.16-15.91-0.14c-5.05-2.29-8.89-6.62-10.57-11.9c-1.14-3.57-27.81-88.62-28.56-200.65      c-1.01-149.78,45.73-275.63,135.15-363.96c177-174.84,193.91-264.52,195.5-281.07l-27.71-60.97c-3.96-8.7-1.05-18.99,6.87-24.35      c6.58-4.45,154.17-102.13,375.89-75.99l-20-28.48c-3.79-5.4-4.61-12.35-2.18-18.48c2.43-6.14,7.78-10.63,14.24-11.98      c10.55-2.18,255.4-51.35,416.02,50.48c37.89-16.01,172.87-63.73,354.74-22.13c8.74,2,15.01,9.67,15.22,18.64l1.18,48.81      c60.71,10.08,267.27,54.51,386.42,206.02c4.72,6,5.52,14.19,2.07,21c-0.15,0.28-14.47,28.45-29.34,56.17      c-11.16,20.81-19.09,35.32-25.38,45.31c166.44,193.88,237.44,412.69,216.99,668.33c-0.51,6.4-4.13,12.14-9.67,15.38      c-5.56,3.23-12.34,3.54-18.14,0.83l-32.93-15.34c16.2,73.47,36.97,232.8-35.99,391.56c-2.57,5.58-7.6,9.64-13.6,10.96      c-5.99,1.31-12.27-0.25-16.94-4.23l-68.3-58.28c-0.79,69.3-29.2,196.9-201.12,310.72c-8.26,5.47-19.29,3.92-25.73-3.62      l-34.79-40.77c-39.45,44.76-153.67,155.73-347.61,198.8c-5.27,1.17-10.79,0.12-15.25-2.92c-4.47-3.03-7.49-7.77-8.34-13.11      l-8.77-54.47c-54.34,28.83-109.02,52.58-158.02,73.86c-104.03,45.17-193.87,84.18-227.76,147.91      C789.32,2070.11,782.64,2074.08,775.44,2074.08z M501.27,1701.17c7.14,0,13.82,3.91,17.28,10.35      c34.56,64.53,85.62,111.59,135.01,157.09c49.02,45.18,95.75,88.23,125.55,145.63c47.49-57.01,131.11-93.33,225.77-134.43      c58.23-25.29,118.45-51.44,178.96-85.47c5.59-3.14,12.35-3.35,18.12-0.57c5.77,2.78,9.82,8.21,10.83,14.54l9.82,60.99      c211.88-54.25,318.72-196.34,319.81-197.81c3.55-4.81,9.11-7.75,15.09-7.97c5.96-0.12,11.73,2.3,15.62,6.86l38.55,45.17      c205.31-144.09,167.2-302.75,165.44-309.58c-2.14-8.28,1.32-17.04,8.58-21.57s16.59-3.88,23.1,1.67l84.8,72.36      c75.05-189.46,13.79-378.42,13.13-380.39c-2.47-7.43-0.29-15.62,5.55-20.83c5.84-5.21,14.23-6.45,21.32-3.15l44.91,20.92      c13-239.87-56.82-438.12-218.47-621.63c-3.12-2.75-5.39-6.5-6.37-10.86c-1.86-8.27,1.81-16.74,8.98-21.07      c8.31-12.27,30.36-53.05,50.01-91.26c-129.82-154.15-366.81-183.86-369.24-184.15c-9.69-1.15-17.06-9.24-17.29-18.99      l-1.21-49.89c-188.99-38.41-322.84,26.29-324.21,26.97c-6.37,3.15-13.96,2.62-19.81-1.39C964.96,23.19,786.27,37.61,715.78,47.3      l28.44,40.51c4.58,6.53,4.75,15.19,0.42,21.89c-4.33,6.71-12.31,10.11-20.13,8.63c-191.37-36.36-334.53,30.21-378.59,54.5      l22.31,49.11c0.93,2.04,1.49,4.22,1.68,6.45c0.88,10.38,2.55,107.38-207.21,314.58C-6.44,710.06,41.71,971.27,60.25,1046.75      l27.72-12.02c6.65-2.89,14.35-1.87,20.01,2.65c5.67,4.51,8.38,11.79,7.06,18.91c-36.58,196.87-18.72,346.26,54.63,455.71      l38.52-34.37c5.01-4.48,11.96-6.07,18.42-4.23c6.46,1.84,11.53,6.86,13.43,13.3c48.12,162.95,123.97,275.47,231.38,342.84      c4.53-75.81,10.25-110.41,10.52-112.02c1.4-8.27,7.89-14.73,16.16-16.09C499.16,1701.26,500.22,1701.17,501.27,1701.17z"/>
			</g>
			<g>
				<path class="st54" d="M1104.79,101.4c-9,5.7-18.41,12.21-27.47,18.68c-9.11,6.53-18.11,13.28-26.98,20.22      c-17.76,13.88-34.9,28.64-51.19,44.65c11.07-19.95,23.57-39.37,36.99-58.16c6.71-9.41,13.62-18.7,20.76-27.86      c7.2-9.2,14.33-18.08,22.33-27.25l0.03-0.03c7.19-8.24,19.71-9.09,27.95-1.9c8.24,7.19,9.09,19.71,1.9,27.95      C1107.85,99.14,1106.34,100.41,1104.79,101.4z"/>
			</g>
			<g>
				<g>
					<path class="st55" d="M907.98,584.91c-271.7-231.53-459.56-123.35-565.02,264.82c0,0-44.74,157.94-84.5,289.62       c-39.77,131.68,40.32,432.26,554.04,478.67c513.72,46.41,776.09-146.56,818.51-323.23c47.25-196.8-64.28-318.68-73.09-474.42       C1543.25,561.15,1270,265.24,907.98,584.91z"/>
				</g>
				<g class="st14">
					<path class="st21" d="M1488.19,607.86c-111.38-143.97-314.99-208.01-558.92,7.34c-271.7-231.53-459.56-123.35-565.02,264.8       c0,0-44.75,157.94-84.48,289.66c-17.43,57.68-11.84,147.68,43.09,234.59c-74.64-95.67-83.84-200.49-64.38-264.88       c39.73-131.71,84.48-289.66,84.48-289.66c105.46-388.15,293.32-496.33,565.02-264.8       C1168.42,354.98,1382.88,443.52,1488.19,607.86z"/>
				</g>
				<g class="st12">
					<path class="st40" d="M860.92,575.52c-68.46-57.95-132.09-94.51-190.8-110.68c62.87,5.04,132.71,36.85,209.51,96.9       C873.41,566.14,867.19,570.77,860.92,575.52z"/>
				</g>
				<g>
					<path class="st56" d="M1631.01,1294.77c-42.4,176.71-304.79,369.66-818.51,323.25c-298.69-26.96-450.77-139.86-517.93-255.55       c83.26,74.79,220.22,138.93,435.17,164.16c511.81,60.18,780.71-109.29,829.24-271.07c54.02-180.18-53.22-296.52-56.64-440.7       c-4.27-178.94-151.51-381.49-380.69-355.61c251.2-72.01,424.66,156.07,436.28,361.1       C1566.73,976.1,1678.24,1098,1631.01,1294.77z"/>
				</g>
				<g class="st12">
					<path class="st40" d="M1121.64,459.24c-66.32,18.97-138.07,58.91-213.65,125.67c-9.55-8.12-18.98-15.84-28.35-23.18       C967.31,498.94,1048.62,467.51,1121.64,459.24z"/>
				</g>
				<g>
					<path class="st21" d="M755.8,1042.26c-24.67,10.79-46.96,25.1-68.18,42.99c-23.31,19.64-50.44,34.19-79.9,42.04       c-26.78,7.14-57.9,24.41-65.06,65.88c-13.1,75.95,25.68,266.88,291.27,315.09s429.32-189.18,390.37-294.21       c-22.72-61.27-76.4-82.39-117.2-89.36c-31.29-5.34-60.47-18.85-84.61-39.47c-27.72-23.68-65.47-43.32-110.58-54.47       C859.94,1017.89,804.87,1020.81,755.8,1042.26z"/>
				</g>
				<g>
					<g>
						
							<ellipse transform="matrix(0.0444 -0.999 0.999 0.0444 -330.5201 1493.9758)" class="st54" cx="615.68" cy="919.76" rx="124.83" ry="96.29"/>
					</g>
					<g>
						
							<ellipse transform="matrix(0.0444 -0.999 0.999 0.0444 -273.785 1520.3203)" class="st21" cx="657.82" cy="903.27" rx="45.55" ry="31.49"/>
					</g>
					<g class="st27">
						
							<ellipse transform="matrix(0.9801 -0.1985 0.1985 0.9801 -178.5208 131.8604)" class="st21" cx="568.37" cy="956.28" rx="21.3" ry="40.69"/>
					</g>
				</g>
				<g>
					<g>
						
							<ellipse transform="matrix(0.9957 -0.0926 0.0926 0.9957 -81.6451 112.1522)" class="st54" cx="1167.44" cy="935.67" rx="103.65" ry="134.37"/>
					</g>
					<g>
						
							<ellipse transform="matrix(0.9957 -0.0926 0.0926 0.9957 -80.4049 107.8097)" class="st21" cx="1121.28" cy="920.14" rx="33.9" ry="49.04"/>
					</g>
					<g class="st27">
						
							<ellipse transform="matrix(0.1509 -0.9885 0.9885 0.1509 74.6913 2031.9146)" class="st21" cx="1220.2" cy="972.48" rx="43.8" ry="22.93"/>
					</g>
				</g>
				<g>
					<path class="st54" d="M774.12,1111.18c37.63-21.81,120.71-15.06,154.93,12.37c14.1,11.3,14.16,33.03,0.75,45.15       c-14.11,12.74-39.32,30.67-78.68,42.68c-7.79,2.38-16.23,1.53-23.36-2.41c-15.54-8.57-43.63-26.77-63.02-54.96       C754.95,1139.77,759.17,1119.84,774.12,1111.18z"/>
				</g>
				<g>
					<path class="st54" d="M681.66,1226.88c6.54,16.61,14.22,31.93,24.31,43.9c5.05,5.93,10.55,11.01,16.34,14.84       c5.83,3.82,11.95,6.17,17.98,7.41c12.07,2.5,24.34-0.28,36.85-5.99c6.25-2.88,12.48-6.59,18.68-10.8       c6.23-4.24,12.26-9.12,18.7-13.92l0.64-0.48c9.12-6.8,21.86-5.37,29.35,2.87c11.87,13.13,24.51,24.74,38.58,33.38       c14.1,8.48,29.36,13.93,45.14,14.53c15.79,0.75,32.02-4.1,47.21-13.63c15.29-9.48,28.75-23.61,41.6-39.23l0.04-0.04       c1.01-1.22,2.81-1.4,4.03-0.39c0.88,0.73,1.22,1.87,0.95,2.91c-5.09,20.08-14.43,39.92-29.84,56.43       c-15.09,16.52-37.26,29.2-61.68,31.97c-24.34,3.01-49.26-3.11-69.56-15c-20.47-11.79-37.15-28.77-48.47-48.26l29.99,2.39       c-12.16,15.17-27.98,28.54-47.85,37.05c-9.88,4.24-20.83,7.11-32.28,7.69c-11.41,0.69-23.3-1.24-33.97-5.67       c-10.68-4.37-20.19-10.99-27.47-19c-7.41-7.9-12.97-16.83-16.9-26.08c-7.89-18.5-9.96-37.87-7.95-56.18       c0.17-1.58,1.59-2.72,3.17-2.55c1.1,0.12,1.98,0.84,2.36,1.8L681.66,1226.88z"/>
				</g>
				<g>
					<path class="st54" d="M828.49,1295.63c-10.05,0-18.6-7.67-19.5-17.87c-0.17-1.95-4.01-48.24,11.53-101.04       c3.06-10.39,13.95-16.32,24.34-13.27c10.39,3.06,16.32,13.96,13.27,24.34c-13.36,45.38-10.11,86.15-10.08,86.56       c0.91,10.77-7.08,20.27-17.85,21.2C829.63,1295.61,829.05,1295.63,828.49,1295.63z"/>
				</g>
				<g>
					<path class="st54" d="M961.21,1644.54c-47.75,0-97.89-2.25-150.47-7c-312.62-28.24-454.99-147.87-519.36-243.24       c-66.42-98.4-70.25-199.14-51.68-260.61c39.26-130,83.96-287.72,84.4-289.29c60.76-223.63,149.36-354.98,263.27-390.2       c92.82-28.69,200.53,6.63,320.39,104.99c187.22-159.07,335.77-147.51,428.19-108.92c133.06,55.55,232.39,207.29,241.54,369.01       c3.22,56.97,20.9,109.39,39.6,164.9c31.2,92.55,63.46,188.24,32.98,315.2C1608.05,1474.39,1376.34,1644.53,961.21,1644.54z        M652.16,483.75c-18.46,0-36.19,2.62-53.21,7.89c-100.25,31-180.01,153.21-237.08,363.23c-0.5,1.78-45.29,159.81-84.65,290.15       c-15.23,50.43-12.15,140.23,46.65,227.34c59.62,88.34,193.1,199.28,490.39,226.14c229.07,20.69,428.17-5.63,575.79-76.12       c119.27-56.96,200.16-141.58,221.9-232.16c27.85-115.98-2.58-206.24-32-293.53c-18.72-55.53-38.08-112.95-41.6-175.2       c-8.33-147.29-97.77-285.07-217.5-335.05c-84.18-35.14-221.87-44.02-399.89,113.18c-7.31,6.46-18.26,6.56-25.69,0.23       C804.66,522.62,723.16,483.75,652.16,483.75z"/>
				</g>
				<g class="st12">
					<path class="st54" d="M876.89,1181.36c6.83,96.94,109.13,111.27,163.36,37.21c0,0,14.2,123.76-105.41,158.4       c0,0-77.63,10.13-107.8-48.36c0,0-20.4,36.52-76.44,36c-56.03-0.51-67.98-93.1-68.33-115.28       c65.49,14.25,111.33,2.42,97.96-88.05L876.89,1181.36z"/>
				</g>
			</g>
			<g>
				<g>
					<path class="st55" d="M345.05,472.69l45.53,29.49c0,0-82.58,53.09-129.58,171.64C166.85,646.57,96.93,560.76,94.44,457.51       c-3.08-127.54,97.83-233.45,225.37-236.54c96.19-2.32,180.02,54.42,216.76,137.17C483.52,372.31,402.05,404.03,345.05,472.69z"/>
				</g>
				<g>
					<path class="st56" d="M443.83,242.49c24.35,93.24-10.42,125.76-111.7,120.6l77.63,44.32l102.9-57.57l0.36-32.69L443.83,242.49z       "/>
				</g>
				<g>
					<path class="st56" d="M232.98,516.26c-10.55,76.22-52.65,79.6-126.31,10.16c0,0,50.22,80.38,53.07,82.18       c2.84,1.8,91.87,53.8,91.87,53.8l37.25-81.2l-17.88-15.44L232.98,516.26z"/>
				</g>
				<g class="st14">
					<path class="st21" d="M511.84,315.55c-42.85-41.48-101.72-66.39-166.1-64.84C218.2,253.8,117.28,359.65,120.37,487.25       c1.18,48.93,17.51,93.97,44.45,130.69c-42.1-40.66-68.85-97.27-70.37-160.43c-3.08-127.54,97.83-233.45,225.37-236.54       C398.42,219.08,468.74,256.59,511.84,315.55z"/>
				</g>
				<g>
					<path class="st60" d="M351.59,472.53l24.98,29.05l-58.27,71.36c-47.46-4.85-84.99-44.39-86.18-93.38       c-1.28-53.13,40.73-97.29,93.86-98.57c31.8-0.77,60.34,13.95,78.43,37.26L351.59,472.53z"/>
				</g>
				<g>
					<path class="st61" d="M402.39,415.79c-12-4.98-25.17-7.57-39-7.24c-53.13,1.28-95.09,45.43-93.81,98.57       c0.55,22.56,8.77,43.09,22.16,59.13c-34.23-14.02-58.68-47.26-59.63-86.68c-1.28-53.13,40.73-97.29,93.86-98.57       C356.66,380.25,384.27,393.93,402.39,415.79z"/>
				</g>
				<g>
					<path class="st54" d="M279.24,681.01l-6.26,11.13l-17.04-23.72l35.12,4.29l4.15,0.51c5.94,0.73,10.18,6.14,9.45,12.08       c-0.2,1.64-0.79,3.2-1.62,4.51c-1.31,2.06-2.87,5.47-4.17,8.43c-1.36,3.08-2.6,6.27-3.81,9.5c-2.39,6.47-4.47,13.15-6.35,19.94       c-1.86,6.79-3.48,13.7-4.88,20.69c-1.42,6.99-2.56,14.06-3.59,21.18c-1.06-7.11-2.01-14.27-2.67-21.5       c-0.68-7.23-1.13-14.51-1.31-21.86c-0.15-7.34-0.08-14.74,0.38-22.22c0.24-3.74,0.54-7.5,1.01-11.3       c0.51-3.92,0.9-7.36,2.04-11.99l11.98,17.1l-34.87,5.98c-8.6,1.47-16.77-4.3-18.24-12.9c-0.35-2.07-0.29-4.12,0.13-6.05       l1.07-4.77l3.01-13.41c2.4-10.69,13.01-17.41,23.7-15.01s17.41,13.01,15.02,23.7c-0.43,1.9-1.12,3.68-2.02,5.31L279.24,681.01z       "/>
				</g>
				<g>
					<path class="st54" d="M614.53,351.59c-25.09,9.84-50.52,18.85-77.49,26.16l-0.21,0.06c-10.79,2.92-21.9-3.45-24.83-14.24       c-2.92-10.79,3.45-21.9,14.24-24.83c3.31-0.9,6.73-0.89,9.85-0.18C561.3,344.38,587.89,348.47,614.53,351.59z"/>
				</g>
				<g>
					<path class="st54" d="M261.01,693.43c-1.81,0-3.64-0.25-5.45-0.78C150.12,662.14,77.5,567.83,74.85,457.99       c-3.34-138.15,106.34-253.27,244.49-256.61c101.74-2.43,193.93,55.95,235.15,148.81c2.33,5.24,2.24,11.24-0.23,16.41       c-2.48,5.17-7.09,9-12.63,10.48c-48.88,13.05-115.42,39.38-166.62,91.65l26.23,16.99c5.59,3.62,8.96,9.83,8.95,16.49       c-0.01,6.66-3.4,12.85-9,16.46c-0.74,0.48-78.07,51.68-121.95,162.38C276.2,688.68,268.86,693.43,261.01,693.43z        M325.48,240.51c-1.73,0-3.46,0.02-5.2,0.06c-56.45,1.36-108.99,24.63-147.95,65.52c-38.96,40.89-59.66,94.49-58.3,150.95       c2.1,86.82,56.01,162.14,135.94,192.46c33.36-74.93,79.33-122.32,106.75-145.89l-22.33-14.46c-4.7-3.04-7.88-7.96-8.72-13.49       c-0.85-5.54,0.71-11.17,4.29-15.48c51.84-62.44,122-96.15,178.45-114.19C470.88,280.93,401.58,240.51,325.48,240.51z"/>
				</g>
				<g>
					<path class="st54" d="M318.32,592.55c-0.67,0-1.34-0.03-2.02-0.1c-57.76-5.9-102.38-54.22-103.78-112.4       c-1.54-63.88,49.15-117.1,112.99-118.64c36.73-0.96,71.91,15.88,94.39,44.84c6.64,8.55,5.09,20.87-3.47,27.5       s-20.86,5.09-27.5-3.47c-15.11-19.46-37.85-30.4-62.48-29.69c-42.23,1.02-75.76,36.24-74.75,78.5       c0.93,38.49,30.42,70.45,68.58,74.35c10.77,1.1,18.61,10.72,17.51,21.49C336.76,585.03,328.24,592.55,318.32,592.55z"/>
				</g>
			</g>
			<g>
				<g>
					<path class="st55" d="M1875.8,459.06c-3.67,107.71-75.82,196.23-170.91,220.82l-0.06,0       c-24.22-93.36-86.09-168.67-176.44-230.47l41.16-35.5c-37.41-32.04-79.65-52.98-118.47-66.6       c38.06-80.13,118.1-134.06,208.77-130.93C1783.54,220.56,1880.22,329.26,1875.8,459.06z"/>
				</g>
				<g>
					<path class="st56" d="M1875.8,459.06c-3.67,107.71-75.82,196.23-170.91,220.82l-0.06,0c-7.11-27.5-17.54-53.41-30.96-77.85       c84-31.67,145.46-114.61,148.84-213.79c1.41-41.49-7.5-80.77-24.24-115.21C1847.96,317.88,1878.32,385.05,1875.8,459.06z"/>
				</g>
				<g class="st14">
					<path class="st21" d="M1856.89,355.76c-38.61-60.8-103.69-101.75-178.71-104.31c-81.69-2.84-154.81,40.72-196.27,108.05       c-10.42-4.62-20.71-8.63-30.83-12.2c38.06-80.13,118.1-134.06,208.77-130.93C1748.49,219.39,1823.31,276.07,1856.89,355.76z"/>
				</g>
				<g>
					<path class="st60" d="M1660.1,579.06l-94.63-93.12l-37.07-36.53l36.99-31.87l-7.83-13.42c64.63-49.46,128.93-24.46,156.3,23.06       C1739.99,472.42,1732.61,538.04,1660.1,579.06z"/>
				</g>
				<g>
					<path class="st61" d="M1713.85,427.17c-4.9-1.11-10.15-2.72-15.69-4.89c-84.1-33.04-121.13,57.44-121.13,57.44l-11.56,6.22       l-37.07-36.53l36.99-31.87l-7.83-13.42C1622.18,354.66,1686.49,379.66,1713.85,427.17z"/>
				</g>
				<g>
					<path class="st54" d="M1303.78,330.25c24.84-2.64,49.92-3.96,75.13-4.37c25.23-0.44,50.6,0.29,76.2,2.24       c10.89,0.83,19.04,10.33,18.22,21.22s-10.33,19.04-21.22,18.22c-1.74-0.13-3.5-0.52-5.07-1.07       c-22.87-8.06-46.42-15.14-70.36-21.13C1352.73,339.33,1328.42,334.15,1303.78,330.25z"/>
				</g>
				<g>
					<path class="st54" d="M1724.49,679.96c-1.51,6.95-2.75,13.83-3.64,20.91c-0.9,7.08-1.44,14.47-1.97,22.05l-0.26,3.75       c-0.35,5.09-4.76,8.92-9.85,8.57c-0.65-0.04-1.32-0.17-1.92-0.34l-68.85-19.88l71.65-1.37l-12.03,11.98       c-2.4-7.16-4.86-14.5-6.99-22.23c-2.14-7.72-3.91-15.7-5.35-23.61l-0.09-0.47c-1.99-10.88,5.21-21.32,16.1-23.32       c10.89-1.99,21.33,5.21,23.32,16.1C1725.1,674.76,1725.02,677.48,1724.49,679.96z"/>
				</g>
				<g>
					<path class="st54" d="M1704.88,699.48c-8.89,0-16.77-6-19.02-14.68c-22.06-85.02-77.18-156.73-168.53-219.21       c-5.02-3.44-8.17-9.01-8.51-15.08c-0.34-6.08,2.16-11.97,6.77-15.94l23.21-20.02c-27.25-19.97-58.84-36.32-94.22-48.74       c-5.24-1.84-9.46-5.83-11.6-10.95c-2.13-5.13-2-10.93,0.39-15.95c42.57-89.62,131.88-145.4,227.15-142.1       c65.21,2.2,125.59,30.9,169.98,80.79c44.15,49.62,67.19,114.31,64.88,182.14l0,0c-3.87,113.54-80.19,211.87-185.59,239.13       c-1.31,0.34-2.66,0.54-4.02,0.61C1705.48,699.47,1705.18,699.48,1704.88,699.48z M1560.1,447.95       c79.62,59.27,132.65,128.84,157.98,207.32c79.22-28.93,135.07-107.27,138.12-196.88c1.97-57.72-17.56-112.68-54.99-154.74       c-37.19-41.8-87.63-65.83-142.04-67.67c-73.08-2.53-141.66,36.53-180.31,100.92c39.24,16.04,73.96,36.89,103.43,62.13       c4.34,3.72,6.84,9.14,6.85,14.85c0.01,5.72-2.47,11.15-6.8,14.88L1560.1,447.95z M1875.8,459.06h0.05H1875.8z"/>
				</g>
				<g>
					<path class="st54" d="M1660.13,598.65c-6.84,0-13.48-3.58-17.08-9.95c-5.33-9.42-2.02-21.38,7.41-26.71       c38.39-21.72,58.82-52.59,57.53-86.92c-1.14-30.47-19.47-58.43-46.68-71.24c-28.4-13.36-61.01-7.72-91.83,15.88       c-8.6,6.58-20.91,4.95-27.48-3.64c-6.58-8.6-4.95-20.9,3.64-27.48c42.41-32.48,90.64-39.86,132.36-20.22       c40.33,18.98,67.48,60.29,69.16,105.24c1.84,48.99-26.37,93.64-77.4,122.51C1666.72,597.83,1663.4,598.65,1660.13,598.65z"/>
				</g>
			</g>
			<g>
				<g>
					<path class="st54" d="M737.16,670.99c36.35,27.73,22.86,68.74-32.58,75.5c-20.76,2.53-114.2-6.73-125.37-28.02       C562.25,686.16,680.02,627.4,737.16,670.99z"/>
				</g>
			</g>
			<g>
				<g>
					<path class="st54" d="M1044.77,673.91c-34.97,29.46-19.52,69.77,36.19,73.84c20.86,1.52,113.74-12.24,123.87-34.04       C1220.2,680.61,1099.74,627.61,1044.77,673.91z"/>
				</g>
			</g>
		</g>
		<g class="st12">
			<path class="st54" d="M827.7,2555.06l-1.59,1.06l-49.58,33.72l-21.3,14.51c0,0-13.36,22.02-27.17,49.98     c-9.08,18.53-18.43,39.65-24.16,58.74c-0.05,0.22-0.15,0.43-0.2,0.7c-0.6,2.06-1.03,4.12-1.36,6.28     c-5.03,30.28,12.15,68.41,25.44,92.38l-0.97,0.02c-21.62,0.9-48.59,1.28-75.66-0.16c-2.05-0.11-4.1-0.22-6.2-0.39     c-2.05-0.11-4.15-0.28-6.2-0.39c-4.1-0.33-8.2-0.66-12.3-1.1c-3.99-0.33-7.99-0.78-11.93-1.33c-0.05,0-0.11,0-0.22-0.05     c-3.89-0.44-7.78-1.05-11.62-1.66c-3.89-0.66-7.73-1.37-11.52-2.14c-3.68-0.72-7.25-1.55-10.72-2.43     c-7.59-1.97-14.69-4.22-21.11-6.87c-2.5-1.07-4.84-2.14-7.13-3.27l-0.06-0.05c-2.67-1.34-5.18-2.78-7.54-4.34     c-2.35-1.56-4.49-3.18-6.47-4.91c-5.34-4.72-10.25-9.61-14.68-14.72c-2.99-3.37-5.71-6.86-8.27-10.41     c-6.69-9.26-11.98-19.1-15.73-29.24c-6.16-16.65-8.2-34.21-5.56-51.94c107.92,125.28,223.92-23.4,223.92-23.4     c1.08-2.18,2.1-4.36,3.13-6.54c0.1-0.22,0.2-0.44,0.31-0.65c22.16-47.92,33.05-96.38,36.95-142.08     c22.03,4.8,44.98,12.05,66.57,23l2.16,20.19L827.7,2555.06z"/>
		</g>
		<g>
			<g>
				<path class="st0" d="M2154.74,528.14c-24.51-40.1-36.59-88.24-31.42-138.59c12.55-122.23,121.81-211.14,244.04-198.59      c122.23,12.55,211.15,121.81,198.59,244.04c-12.55,122.23-121.81,211.14-244.04,198.59c-34-3.49-65.41-14.48-92.78-31.14      l-102.96,23.09L2154.74,528.14z"/>
			</g>
			<g class="st5">
				<g>
					<path class="st0" d="M2362.99,233.51c-114.18-11.72-217.02,65.1-240.3,174.91c-0.03-7.84,0.31-15.76,1.13-23.73       c12.55-122.23,121.81-211.14,244.04-198.59c122.23,12.55,211.14,121.81,198.59,244.04c-0.82,8.01-2.08,15.87-3.71,23.58       C2562.31,341.42,2477.21,245.24,2362.99,233.51z"/>
				</g>
			</g>
			<g>
				<path class="st54" d="M2345.08,654.87c-8.37,0-16.78-0.43-25.22-1.3c-33.45-3.44-65.04-13.45-94.05-29.79l-95.24,21.36      c-6.97,1.57-14.19-0.68-19.06-5.87c-4.87-5.19-6.63-12.57-4.62-19.39l26.13-89.07c-24.59-43.73-34.85-93.09-29.69-143.32      c6.62-64.46,37.94-122.48,88.2-163.37c50.25-40.9,113.45-59.76,177.89-53.16c64.46,6.62,122.48,37.94,163.37,88.2      c40.89,50.26,59.78,113.43,53.16,177.89c-6.62,64.45-37.94,122.48-88.2,163.37C2454.07,635.96,2400.64,654.87,2345.08,654.87z       M2229.13,582.35c3.66,0,7.27,1,10.44,2.93c25.79,15.69,54.17,25.21,84.38,28.32c53.77,5.51,106.49-10.23,148.42-44.35      c41.93-34.12,68.07-82.53,73.58-136.31c5.52-53.78-10.23-106.48-44.35-148.42s-82.53-68.06-136.3-73.58      c-53.78-5.53-106.49,10.23-148.42,44.35c-41.93,34.12-68.07,82.53-73.58,136.31c-4.57,44.42,5.32,88.02,28.58,126.07      c2.95,4.84,3.73,10.7,2.14,16.13l-18.97,64.68l69.68-15.63C2226.19,582.52,2227.66,582.35,2229.13,582.35z"/>
			</g>
			<g class="st12">
				<path class="st54" d="M2153.49,526c60.94,51.54,144.89,74.12,228.26,53.37c92.46-23.01,160.58-93.41,185.08-178.86      c0.59,11.33,0.32,22.85-0.87,34.48c-12.55,122.23-121.81,211.14-244.04,198.59c-34-3.49-65.41-14.48-92.78-31.14l-102.96,23.09      l28.57-97.4C2154.31,527.43,2153.91,526.71,2153.49,526z"/>
			</g>
			<g>
				<path class="st19" d="M2273.49,349.79L2273.49,349.79c19.25-19.25,50.47-15.8,69.72,3.45l3,3l3-3      c19.25-19.25,50.47-22.7,69.72-3.45v0c19.25,19.25,19.25,50.47,0,69.72l-3,3l-60.53,60.53c-5.08,5.08-13.31,5.08-18.38,0      l-60.53-60.53l-3-3C2254.24,400.26,2254.24,369.05,2273.49,349.79z"/>
			</g>
		</g>
	</g>
</g>
</svg>