<svg xmlns="http://www.w3.org/2000/svg" xmlns:xlink="http://www.w3.org/1999/xlink" version="1.1" id="Layer_1" x="0px" y="0px" style="enable-background:new 0 0 2790.46 2995.22;" xml:space="preserve" viewBox="0 0 2790.44 2995.22">
<style type="text/css">
	.st0{fill:#020772;}
	.st1{fill:#FFFFFF;}
	.st2{fill:#9666FF;}
	.st3{fill:#FF9FC6;}
	.st4{opacity:0.25;}
	.st5{fill:none;}
	.st6{fill:#D68949;}
	.st7{fill:#FFC580;}
	.st8{opacity:0.4;}
	.st9{fill:#FFCE43;}
	.st10{fill:#FF6C85;}
	.st11{fill:#FF61C7;}
	.st12{opacity:0.35;}
	.st13{opacity:0.5;}
	.st14{fill:#00DBFF;}
	.st15{opacity:0.7;}
	.st16{opacity:0.3;}
	.st17{fill:#371A45;}
	.st18{fill:#55DFFF;}
	.st19{fill:#9B7861;}
	.st20{fill:#DAD4DD;}
	.st21{fill:#512717;}
	.st22{fill:#FEE1CC;}
	.st23{fill:#C6A289;}
	.st24{fill:#F2CBB1;}
	.st25{fill:#FFA6A6;}
	.st26{fill:#C6A28A;}
	.st27{fill:#22A7F0;}
	.st28{fill:#1C7AEA;}
	.st29{fill:#FF0068;}
	.st30{fill:#E2E2E2;}
	.st31{fill:#FFE1CC;}
	.st32{fill:#9B7A67;}
	.st33{fill:#FFCFAB;}
	.st34{fill:#DBD9D9;}
	.st35{fill:#FFC49C;}
	.st36{fill:#716462;}
	.st37{fill:#261C1B;}
	.st38{fill:#231D1A;}
	.st39{fill:#FFBD9A;}
	.st40{fill:#FFC83E;}
	.st41{fill:#3399FF;}
	.st42{fill:#FF2222;}
	.st43{fill:#FF4D24;}
	.st44{opacity:0.2;}
	.st45{fill:#FFA92C;}
	.st46{fill:#FFDD50;}
	.st47{fill:#220F2D;}
	.st48{fill:#D8D8D8;}
	.st49{fill:#FAA327;}
	.st50{fill:#EF7F25;}
	.st51{fill:#FF7DBB;}
	.st52{fill:#F85189;}
	.st53{fill:#000072;}
	.st54{fill:#E96F5F;}
	.st55{fill:#FFCA83;}
	.st56{fill:#FFB65F;}
	.st57{fill:#540F2E;}
	.st58{fill:#F63C6B;}
	.st59{fill:#C95249;}
	.st60{fill:#D87736;}
	.st61{fill:#FFC248;}
	.st62{fill:#FF7E27;}
	.st63{fill:#FF9124;}
	.st64{fill:#5F537B;}
	.st65{fill:#040371;}
	.st66{fill:#4FD0FC;}
	.st67{opacity:0.24;}
	.st68{fill:#62ED2E;}
	.st69{fill:#F25187;}
	.st70{fill:#46DB78;}
	.st71{fill:#FFF769;}
	.st72{fill:#FFB514;}
	.st73{fill:#FF78A9;}
	.st74{fill:#F9754B;}
	.st75{fill:#F9903A;}
	.st76{fill:none;stroke:#020772;stroke-width:30;stroke-linecap:round;stroke-linejoin:round;stroke-miterlimit:10;}
</style>
<g>
	<g>
		<g>
			<g>
				<path class="st0" d="M1177.94,1795.15l-432.02,120.52l422.2-151.38C1189.2,1757.55,1199.12,1788.41,1177.94,1795.15      L1177.94,1795.15z"/>
			</g>
			<g>
				<path class="st0" d="M432.02,1272.24L0,1392.76l422.2-151.38C443.28,1234.64,453.2,1265.5,432.02,1272.24L432.02,1272.24z"/>
			</g>
			<g>
				<path class="st0" d="M593,398.23L160.97,518.75l422.2-151.38C604.25,360.63,614.17,391.49,593,398.23L593,398.23z"/>
			</g>
			<g>
				<path class="st0" d="M450.58,2642.75L18.56,2763.27l422.2-151.38C461.84,2605.15,471.76,2636.01,450.58,2642.75L450.58,2642.75z      "/>
			</g>
		</g>
		<g>
			<g>
				<path class="st1" d="M2252.98,2107.11c0,0,158.14,44.62,214.76,176.9c56.62,132.28,42.67,246.9,26.53,289.41      c-16.15,42.51-62.82,87.49-88.01,114.26c-25.2,26.77-50.92,80.31-50.92,80.31s-32.91-29.44-30.89-72.46      c0,0-101.39,135.45-242.6,181.12s-177.15,33.23-177.15,33.23s18.77-45.83,20.72-51.08s-134.92,31.5-235.7,96.59      c0,0,1.91-85.86,53.71-157.36c51.81-71.5,114.27-120.15,114.27-120.15s173.1-21.05,212.79-81.74      c39.7-60.69,21.78-151.5,21.78-151.5s80.97-71.03,95.63-126.59c14.67-55.56-12.33-100.38-12.33-100.38      S2211.51,2191.63,2252.98,2107.11z"/>
			</g>
			<g>
				<path class="st1" d="M1437.57,2710.2c-3.15-7.74-5.25-15.08-7.07-22.8c-1.71-7.66-3.05-15.41-3.37-23.26      c-0.32-7.83,0.01-15.71,1.72-23.33c1.81-7.6,4.97-14.78,9.45-20.89c-3.41,6.81-5.19,14.1-5.68,21.43      c-0.4,7.36,0.55,14.67,2.06,21.79c1.51,7.14,3.96,14.08,6.71,20.81c2.19,5.23,4.73,10.55,7.45,15.39      c13.75-14.41,35.78-27.53,70.96-33.54c-0.06-0.14-0.15-0.27-0.2-0.42c-0.13-0.36-0.24-0.76-0.31-1.13      c-1.66-8.6-2.77-16.86-3.65-25.32c-0.85-8.43-1.3-16.9-1.3-25.37c-0.06-8.46,0.65-16.99,2.24-25.31      c1.67-8.22,4.31-16.72,10.04-22.92c-4.68,6.98-5.87,15.36-6.26,23.39c-0.29,8.12,0.27,16.25,1.57,24.3      c1.24,8.05,2.92,16.03,4.95,23.92c2.05,7.84,4.42,15.79,7.07,23.19l0.04,0.1c0.42,1.17,0.5,2.38,0.35,3.53      c69.15-7.24,122.38-10.2,152.18,11.77c-20.45-23.97-42.95-59.8-42.41-101.08c0.53-40.15,22.81-77.15,66.24-110.04      c-13.94-34.26-81-210.7-40.84-338.5c-17.76-8.99-93.18-41.09-176.59,11.99c-0.82,0.89-1.85,1.57-3.05,1.99      c-92.02,61.14-72.28,180.38-72.07,181.58c0.05,0.29,0.04,0.57,0.06,0.86c0.01,0.11,0.05,0.21,0.05,0.31      c0.02,1.35,3.3,133.67,51.56,180.2l12.01-0.44l16.03-0.39c10.7-0.16,21.41,0.01,32.11,0.56c10.69,0.52,21.38,1.5,31.94,3.29      c10.52,1.81,21.06,4.21,30.71,8.7c-10.11-3.3-20.66-4.38-31.12-4.92c-10.49-0.51-21-0.21-31.47,0.54      c-10.48,0.72-20.92,1.81-31.34,3.22l-15.61,2.26l-7.84,1.23l-4.01,0.61l-2.11,0.29l-0.15,0.02      c-10.27,6-77.53,47.29-91.82,106.17c-6.66,27.44-0.8,55.13,17.44,82.31c9.24,13.78,20.54,25.09,33.09,34.42      c1.51-7.84,4.72-18.09,11.44-28.61c-0.21-0.25-0.42-0.49-0.6-0.78C1437.94,2711,1437.73,2710.59,1437.57,2710.2z"/>
			</g>
			<g>
				<path class="st2" d="M1708.94,2709.03c1.58-2.11,3.12-4.24,4.52-6.42c-3.11-2.65-7.36-6.46-12.26-11.29      C1704.43,2696.45,1706.99,2702.36,1708.94,2709.03z"/>
			</g>
			<g>
				<path class="st3" d="M1817.05,2596.77c-74.08,22.43-80.84,66.87-80.64,83.44c37.67-1.98,212.18-13.1,286.27-51.98      c11.86-6.22,21.57-13.62,29.54-21.8c1.23-8.91-1.02-15.71-7.11-21.21C2015.23,2558.27,1905.69,2569.93,1817.05,2596.77z"/>
			</g>
			<g>
				<path class="st1" d="M2404.71,1463.49c-0.34-0.93-0.62-1.85-0.92-2.78c-1.02,1.96-2.19,3.83-3.53,5.52      c-3.04,3.75-6.61,6.77-10.36,9.15c-7.56,4.66-15.56,7.34-23.53,8.86c-15.9,3.14-31.85,2.94-47.24-0.25      c15.31-3.13,30.27-6.31,44.07-11.2c6.82-2.56,13.35-5.51,18.62-9.38c5.26-3.88,8.85-8.5,10.05-13.79      c1.28-5.39,0.19-11.42-2.43-17.5c-2.69-6.08-6.74-12-11.26-17.75c-9.26-11.38-20.32-21.92-31.75-32.58      c14.78,5.35,28.45,13.56,40.38,24.48c4.48,4.05,8.63,8.64,12.18,13.91c3.4-39.26,28.21-67.46,29.62-69.03      c0.18-0.2,0.38-0.4,0.58-0.58c21.27-19.12,71.27-75.27,47.44-105.07c-0.68-0.85-1.71-1.75-4.22-1.96      c-29.09-2.3-121,80.03-218.51,167.3c-74.05,66.28-157.99,141.39-243.3,207.57c-212.75,165.03-511.26,218.42-542.58,223.65      c-10.85,11.84-69.78,77.74-97.63,140.86c-25.67,58.2-53.13,162.96-61.83,197.36c3.88-0.64,7.75-1.22,11.65-1.77      c7.97-1.11,15.96-2.02,23.96-2.75c15.98-1.45,32.04-2.04,47.95-1.34c-15.82,1.84-31.37,4.94-46.67,8.85      c-7.65,1.95-15.25,4.08-22.77,6.39c-7.03,2.17-14.11,4.52-20.87,6.99c-8.89,6.01-109.57,76.38-64.22,148.7      c9.64,15.37,22.35,24.06,38.86,26.57c48.04,7.29,111.11-40.54,125.76-52.31c-2.79-23.16-10.42-130.86,77.04-190.86      c-3.87-33.09-6.92-66.09-9.29-99.21c-2.4-34.73-3.99-69.54-3.64-104.29c2.19,34.69,6.3,69.15,11.21,103.48      c4.45,30.58,9.52,61.13,15.23,91.43c83.11-48.08,159.48-19.14,181.8-8.64c1.89-4.81,3.9-9.57,6.14-14.2      c23.07-47.73,62.83-79.53,118.18-94.53c163.35-44.28,234.36,57.14,235.06,58.17c1.7,2.51,1.75,5.79,0.13,8.35      c-55.17,86.86-5.61,185.88,7.03,208.3c88.88-23.13,148.79-67.88,178.13-133.07c62.44-138.74-32.82-326.59-36.15-333.06      c-0.02-0.03-0.04-0.07-0.05-0.1l-0.05-0.1c-6.36-12.87-13.32-25.78-20.45-38.44c-7.19-12.67-14.62-25.21-22.49-37.48      c-15.79-24.48-32.81-48.36-53.6-69.08c22.52,18.85,41.8,41.43,59.82,64.7c9.01,11.67,17.59,23.66,25.95,35.82      c6.51,9.53,12.8,19.17,18.96,28.99c37.49-35.39,220.92-209.39,257.96-260.32c6.41-8.82,12.66-16.12,18.64-22.38      C2447.64,1511.54,2418.76,1502.09,2404.71,1463.49z"/>
			</g>
			<g>
				<path class="st1" d="M2018.41,2065.7c-14.13-17.46-79.28-85.15-215.57-48.19c-50.9,13.79-87.38,42.87-108.45,86.44      c-57.23,118.36,12.83,310.94,29.05,352.14c3.25-1.67,6.45-3.13,9.81-4.59c6.07-2.65,12.25-4.81,18.45-6.87      c12.43-3.99,25.07-6.86,37.75-9.12c12.67-2.35,25.47-3.58,38.22-4.6c6.38-0.46,12.78-0.6,19.15-0.92l19.12-0.09l-18.98,1.98      c-6.29,0.95-12.59,1.72-18.84,2.8c-12.47,2.26-24.89,4.72-36.99,8.24c-12.11,3.42-24.02,7.42-35.42,12.38      c-5.67,2.54-11.28,5.16-16.62,8.16c-5.25,2.86-10.81,6.33-14.77,9.55l-0.32,0.26c-0.07,0.05-0.14,0.08-0.21,0.14      c-42.26,30.72-63.95,64.76-64.46,101.19c-0.74,53.17,43.77,98.3,61.51,114.15c0.26-0.59,0.55-1.17,0.8-1.76      c-0.83-7.92-1.57-32.37,16.25-57.07c-5.74-6.62-9.72-13.09-13.42-20.19c-3.69-7.18-6.63-14.69-8.66-22.39      c-2.05-7.68-3.42-15.5-3.69-23.33c-0.54-7.81,0.23-15.59,1.24-23.18c0.25,7.7,0.77,15.31,2.53,22.68      c1.49,7.4,4.02,14.51,7.08,21.25c3.04,6.77,6.85,13.12,11.21,18.97c4,5.41,8.84,10.75,13.51,14.68      c13.64-13.82,34.13-26.9,64.94-36.23c4.47-1.35,9.12-2.7,13.92-4.03c-4.52-6.55-8.15-12.98-11.63-19.76      c-3.53-7.08-6.73-14.3-9.13-21.83c-2.38-7.52-4.25-15.22-4.92-23.05c-0.58-7.83-0.02-15.71,2.07-23.08      c-0.84,7.65-0.08,15.21,1.68,22.46c1.86,7.25,4.82,14.13,8.19,20.73c3.39,6.61,7.51,12.84,11.86,18.82      c4.36,5.9,9.21,11.83,14.09,16.76l0.1,0.1c1.38,1.4,2.05,3.21,2.13,5.03c75.88-19.25,179.25-32.08,214.31-0.42      c4.92,4.44,8.36,9.69,10.37,15.55c28.15-43.89,20.16-100.4,16.58-125.68l-0.58-4.17c-3.9-28.6-47.45-158.81-51.19-169.96      C2024.02,2279.09,1958.42,2166.51,2018.41,2065.7z"/>
			</g>
			<g>
				<path class="st3" d="M1535.68,2678.94c-84.74,8.88-93.65,57.15-94.44,71.15c40.88,24.04,91.75,29.74,133.69,25.26      c50.17-5.35,93.75-24.67,121.62-52.19C1688.41,2672.29,1646.32,2667.34,1535.68,2678.94z"/>
			</g>
			<g>
				<path class="st1" d="M2478.14,1317.25c-15.62,23.18-35.15,41.35-38.44,44.34c-3.16,3.71-38.74,47.13-20.69,96.69      c16.31,44.78,56.3,40.75,65.21,39.25c3.41-2.94,6.66-5.62,9.73-8.14c20.01-16.46,33.24-27.33,39.89-67.2      C2542.54,1369.94,2495.37,1329.93,2478.14,1317.25z"/>
			</g>
			<g class="st4">
				<path class="st0" d="M1473.48,2764.81c0,0-3.15-33.04,53.14-50.36c56.28-17.32,158.12-24.87,166.52-14.27      s16.47,26.99-4.89,40.58c-21.36,13.59-59.16,31.43-108.5,39.83C1530.41,2788.98,1481.12,2773.7,1473.48,2764.81z"/>
			</g>
			<g class="st4">
				<path class="st0" d="M1775.55,2677.62c0,0,12.07-31.15,52.49-52.8c40.42-21.66,140.23-34.35,180.58-34.78s47.24,4.72,47.24,4.72      s16.83,19.02-29.64,40.22c-46.47,21.2-168.12,42.04-171.86,42.64C1850.61,2678.22,1775.55,2677.62,1775.55,2677.62z"/>
			</g>
			<g>
				<g>
					<path class="st5" d="M1228.57,2299.75c0,0,41.99,21,80.84,11.55c34.89-8.49,83.2-38.55,92.69-44.59       c2.09-20,7-43.17,17.32-66.09c10.2-44.94,21.88-102.3,23.33-134.98c2.63-59.32,23.53-123.36,23.53-123.36s0.03,0.35,0.08,0.95       c-0.05-5.98-0.12-11.96-0.06-17.94c2.19,34.69,6.3,69.15,11.21,103.48c4.45,30.58,9.52,61.13,15.23,91.43       c83.11-48.08,159.48-19.14,181.8-8.64c1.89-4.81,3.9-9.57,6.14-14.2c23.07-47.73,62.83-79.53,118.18-94.53       c71.05-19.26,124.62-10.95,162.54,4.67c-0.2-1.22-0.24-2.47-0.03-3.79c0,0,151.88-10.51,168.68-91       c16.8-80.49-77.69-246.39-77.69-246.39s-100.79,144.91-211.37,192.5c-110.58,47.59-364.18-18.27-364.19-18.27       c-3.89,0.71-6.85,1.21-8.79,1.54c-10.85,11.84-69.78,77.74-97.63,140.86c-25.67,58.2-53.13,162.96-61.83,197.36       c3.88-0.64,7.75-1.22,11.65-1.77c7.97-1.11,15.96-2.02,23.96-2.75c15.98-1.45,32.04-2.04,47.95-1.34       c-15.82,1.84-31.37,4.94-46.67,8.85c-7.65,1.95-15.25,4.08-22.77,6.39c-7.03,2.17-14.11,4.51-20.87,6.99       c-7.76,5.25-85.47,59.55-74.89,121.38C1226.7,2311.63,1227.29,2305.38,1228.57,2299.75z"/>
				</g>
				<g>
					<path class="st5" d="M1937.23,2192.67c-13.04-89.52,50.07-126.67,72.2-136.81c-24.74-24.49-89.3-70.15-206.59-38.35       c-50.9,13.79-87.38,42.87-108.45,86.44c-57.23,118.36,12.83,310.94,29.05,352.14c3.25-1.67,6.45-3.13,9.81-4.59       c6.07-2.65,12.25-4.81,18.45-6.87c12.43-3.99,25.07-6.86,37.75-9.12c12.67-2.35,25.47-3.58,38.22-4.59       c6.38-0.46,12.78-0.6,19.15-0.92l19.12-0.09l-18.98,1.98c-6.29,0.95-12.59,1.72-18.84,2.8c-12.47,2.26-24.89,4.72-36.99,8.24       c-12.11,3.42-24.02,7.42-35.42,12.38c-5.67,2.54-11.28,5.16-16.62,8.16c-5.25,2.86-10.81,6.33-14.77,9.55l-0.32,0.26       c-0.07,0.05-0.14,0.08-0.21,0.14c-42.26,30.72-63.95,64.76-64.46,101.19c-0.53,38.18,22.26,72.16,41.73,94.18       c0-0.89,0.04-1.8,0.15-2.73c0,0-4.77-32.56,18.68-66.45c-1.6-4.02-2.98-8.11-4.07-12.26c-2.05-7.68-3.42-15.5-3.69-23.33       c-0.54-7.81,0.23-15.59,1.24-23.18c0.25,7.7,0.77,15.31,2.53,22.68c1.49,7.4,4.02,14.51,7.08,21.25       c0.99,2.21,2.1,4.37,3.25,6.49c11.57-13.86,28.28-27.52,52.47-38.85c9.45-4.42,18.97-8.33,28.49-11.84       c-0.48-1.33-0.96-2.65-1.39-4c-2.38-7.52-4.25-15.22-4.92-23.05c-0.58-7.83-0.02-15.71,2.07-23.08       c-0.84,7.65-0.08,15.21,1.68,22.46c1.86,7.25,4.82,14.13,8.19,20.73c0.72,1.4,1.58,2.73,2.36,4.09       c76.67-26.35,152.24-26.07,190.28-31.51C2049.56,2499.92,1952.97,2300.8,1937.23,2192.67z"/>
				</g>
				<g>
					<path class="st5" d="M1686.51,2675.55c-0.51-0.59-1.02-1.23-1.53-1.84c-0.24,0.12-0.47,0.24-0.75,0.35       C1684.99,2674.56,1685.79,2675.01,1686.51,2675.55z"/>
				</g>
				<g>
					<path class="st5" d="M2220.69,1674.04c94.49-40.94,167.98-152.75,167.98-152.75l-52.01-34.99c-5.9-0.34-11.75-1.11-17.52-2.31       c0.65-0.13,1.28-0.27,1.92-0.4c-9.34-2.36-18.94-6.51-16.38-13.48c4.72-12.86,79-20.21,85.56-31.23       c0.36-0.61,0.66-1.25,0.94-1.89c-0.47-1.61-1.04-3.23-1.74-4.85c-2.69-6.08-6.74-12-11.26-17.75       c-9.26-11.38-20.32-21.92-31.75-32.58c12.46,4.51,24.06,11.17,34.56,19.65l-0.25-0.38c0,0-7.82-29.4,24.73-60.89       c32.54-31.5,70.34-70.87,71.39-86.61c0.22-3.25,0.83-4.83,1.64-5.39c-0.57-0.91-1.18-1.8-1.87-2.66       c-0.68-0.85-1.71-1.75-4.22-1.96c-29.09-2.3-121,80.03-218.51,167.3c-51.76,46.32-108.38,96.92-166.89,145.8       C2093.39,1579.58,2134.31,1711.47,2220.69,1674.04z"/>
				</g>
				<g>
					<path class="st5" d="M2439.71,1361.59c-1.83,2.15-14.6,17.72-21.45,40.1c12.2,17.03,44.68,52.16,69.61,39.28       c24.7-12.76,33.9-54.27,36.72-71.57c-13.21-25.61-35.68-44.22-46.45-52.15C2462.53,1340.42,2443,1358.6,2439.71,1361.59z"/>
				</g>
				<g>
					<path class="st5" d="M1817.05,2596.77c-74.08,22.43-80.84,66.87-80.64,83.44c37.67-1.98,212.18-13.1,286.27-51.98       c11.86-6.22,21.57-13.62,29.54-21.8c1.23-8.91-1.02-15.71-7.11-21.21C2015.23,2558.27,1905.69,2569.93,1817.05,2596.77z"/>
				</g>
				<g>
					<path class="st5" d="M1535.68,2678.94c-84.74,8.88-93.65,57.15-94.44,71.15c40.88,24.04,91.75,29.74,133.69,25.26       c50.17-5.35,93.75-24.67,121.62-52.19C1688.41,2672.29,1646.32,2667.34,1535.68,2678.94z"/>
				</g>
				<g>
					<path class="st5" d="M1708.94,2709.03c1.58-2.11,3.12-4.24,4.52-6.42c-3.11-2.65-7.36-6.46-12.26-11.29       C1704.43,2696.45,1706.99,2702.36,1708.94,2709.03z"/>
				</g>
				<g>
					<path class="st5" d="M1428.57,2677.44c-0.72-4.4-1.26-8.82-1.44-13.29c-0.32-7.83,0.01-15.71,1.72-23.33       c1.81-7.6,4.97-14.78,9.45-20.89c-3.41,6.81-5.19,14.1-5.68,21.43c-0.4,7.36,0.55,14.67,2.06,21.79       c0.41,1.95,0.91,3.89,1.45,5.81c17.05-17.93,42.22-36.62,78.4-48.5c-0.07-2.29-0.18-4.59-0.18-6.88       c-0.06-8.46,0.65-16.99,2.24-25.31c1.67-8.22,4.31-16.72,10.04-22.92c-4.68,6.98-5.87,15.36-6.26,23.4       c-0.29,8.12,0.27,16.24,1.57,24.3c0.25,1.63,0.6,3.25,0.88,4.88c1.27-0.36,2.51-0.75,3.81-1.1       c69.86-18.67,114.2-10.5,119.1-90.99c4.9-80.49-35.69-193.17-28.7-286.96c5.86-78.5,41.12-105.99,52.46-112.87       c0.01-0.02,0.01-0.04,0.02-0.06c-17.76-8.99-93.18-41.09-176.59,11.99c-0.82,0.89-1.85,1.57-3.05,1.99       c-92.02,61.14-72.28,180.38-72.07,181.58c0.05,0.29,0.04,0.57,0.06,0.86c0.01,0.11,0.05,0.21,0.05,0.31       c0.02,1.35,3.3,133.67,51.56,180.2l12.01-0.44l16.03-0.38c10.7-0.16,21.41,0.01,32.11,0.56c10.69,0.52,21.38,1.5,31.94,3.29       c10.52,1.81,21.06,4.21,30.71,8.7c-10.11-3.3-20.66-4.38-31.12-4.92c-10.49-0.51-21-0.21-31.47,0.54       c-10.48,0.72-20.92,1.81-31.34,3.22l-15.61,2.26l-7.84,1.23l-4.01,0.61l-2.11,0.29l-0.15,0.02       c-10.27,6-77.53,47.29-91.82,106.17c-6.66,27.44-0.8,55.13,17.44,82.31c2.97,4.42,6.21,8.5,9.58,12.43       C1404.13,2717.79,1410.47,2699.18,1428.57,2677.44z"/>
				</g>
				<g class="st4">
					<path class="st0" d="M1436.12,2668.95c1.43,5.11,3.26,10.11,5.26,15c2.19,5.23,4.73,10.55,7.45,15.39       c13.75-14.41,35.78-27.53,70.96-33.54c-0.06-0.14-0.15-0.27-0.2-0.42c-0.13-0.36-0.24-0.76-0.31-1.13       c-1.66-8.6-2.77-16.86-3.65-25.32c-0.62-6.14-0.95-12.31-1.12-18.49C1478.34,2632.33,1453.17,2651.02,1436.12,2668.95z"/>
				</g>
				<g class="st4">
					<path class="st0" d="M1427.32,2740.75c1.51-7.84,4.72-18.09,11.44-28.61c-0.21-0.25-0.42-0.49-0.6-0.78       c-0.23-0.36-0.43-0.78-0.59-1.16c-3.15-7.74-5.25-15.08-7.07-22.8c-0.74-3.31-1.39-6.63-1.93-9.97       c-18.09,21.74-24.44,40.36-24.76,41.32C1410.92,2727.08,1418.8,2734.41,1427.32,2740.75z"/>
				</g>
				<g class="st4">
					<path class="st0" d="M1617.02,2238.86c-7,93.79,33.59,206.47,28.7,286.96c-4.9,80.49-49.24,72.32-119.1,90.99       c-1.3,0.35-2.53,0.74-3.81,1.1c1.13,6.39,2.44,12.75,4.07,19.04c2.05,7.84,4.42,15.79,7.07,23.19l0.04,0.1       c0.42,1.17,0.5,2.38,0.35,3.53c67.47-7.07,119.72-9.98,149.9,10.28c0.27-0.11,0.5-0.23,0.75-0.35       c-20.03-23.94-41.41-58.99-40.88-99.24c0.53-40.15,22.81-77.15,66.24-110.04c-13.93-34.25-80.97-210.64-40.86-338.44       C1658.14,2132.87,1622.88,2160.36,1617.02,2238.86z"/>
				</g>
				<g class="st4">
					<path class="st0" d="M1701.2,2666.06c-0.11,0.93-0.15,1.83-0.15,2.73c7.64,8.64,14.78,15.51,19.78,19.97       c0.26-0.59,0.55-1.17,0.8-1.76c-0.83-7.92-1.57-32.37,16.25-57.07c-5.74-6.62-9.72-13.09-13.42-20.19       c-1.7-3.31-3.22-6.69-4.59-10.13C1696.44,2633.51,1701.2,2666.06,1701.2,2666.06z"/>
				</g>
				<g class="st4">
					<path class="st0" d="M2018.41,2065.7c-1.97-2.44-4.98-5.87-8.99-9.84c-22.13,10.14-85.24,47.29-72.2,136.81       c15.75,108.13,112.33,307.26,68.24,313.56c-38.05,5.44-113.62,5.16-190.28,31.51c2.9,5.08,6.07,10.01,9.49,14.73       c4.36,5.9,9.21,11.83,14.09,16.76l0.1,0.1c1.38,1.4,2.05,3.21,2.13,5.03c75.88-19.25,179.25-32.08,214.31-0.42       c4.92,4.44,8.36,9.69,10.37,15.55c28.15-43.89,20.16-100.4,16.58-125.68l-0.58-4.17c-3.9-28.6-47.45-158.81-51.19-169.96       C2024.02,2279.09,1958.42,2166.51,2018.41,2065.7z"/>
				</g>
				<g class="st4">
					<path class="st0" d="M1726.23,2591.26c2.37,4.36,5.03,8.54,7.96,12.48c4,5.41,8.84,10.75,13.51,14.68       c13.64-13.82,34.13-26.9,64.94-36.23c4.47-1.35,9.12-2.7,13.92-4.03c-4.52-6.55-8.15-12.98-11.63-19.76       c-2.9-5.81-5.55-11.73-7.74-17.83c-9.52,3.51-19.04,7.41-28.49,11.84C1754.51,2563.74,1737.8,2577.4,1726.23,2591.26z"/>
				</g>
				<g class="st4">
					<path class="st0" d="M1228.57,2299.75c-1.28,5.63-1.88,11.88-1.68,18.3c1.54,8.99,4.92,18.14,10.68,27.32       c9.64,15.37,22.35,24.06,38.86,26.57c48.04,7.29,111.11-40.54,125.76-52.31c-1.02-8.47-2.67-28.29-0.09-52.93       c-9.48,6.04-57.8,36.11-92.69,44.59C1270.57,2320.75,1228.57,2299.75,1228.57,2299.75z"/>
				</g>
				<g class="st4">
					<path class="st0" d="M1442.74,2065.63c-1.45,32.68-13.13,90.04-23.33,134.98c11.7-25.99,30.34-51.62,59.81-71.84       c-3.87-33.09-6.92-66.09-9.29-99.21c-1.99-28.75-3.35-57.56-3.59-86.35c-0.05-0.6-0.08-0.95-0.08-0.95       S1445.37,2006.32,1442.74,2065.63z"/>
				</g>
				<g class="st4">
					<path class="st0" d="M1840.99,1858.81c110.58-47.59,211.37-192.5,211.37-192.5s94.49,165.91,77.69,246.39       c-16.8,80.49-168.68,91-168.68,91c-0.21,1.32-0.17,2.57,0.03,3.79c49.26,20.29,72.12,52.91,72.52,53.49       c1.7,2.51,1.75,5.79,0.13,8.35c-55.17,86.86-5.61,185.88,7.03,208.3c88.88-23.13,148.8-67.88,178.13-133.07       c62.44-138.74-32.82-326.59-36.15-333.06c-0.02-0.03-0.04-0.07-0.05-0.1l-0.05-0.1c-6.36-12.87-13.32-25.78-20.45-38.44       c-7.19-12.67-14.62-25.21-22.49-37.48c-15.79-24.48-32.81-48.36-53.6-69.08c22.52,18.85,41.8,41.43,59.82,64.7       c9.01,11.67,17.59,23.66,25.95,35.82c6.51,9.53,12.8,19.17,18.96,28.99c37.49-35.39,220.92-209.39,257.96-260.32       c6.41-8.82,12.66-16.12,18.64-22.38c-20.11-1.58-48.98-11.03-63.03-49.63c-0.34-0.93-0.62-1.85-0.92-2.78       c-1.02,1.96-2.19,3.83-3.53,5.52c-3.04,3.75-6.61,6.77-10.36,9.15c-7.56,4.66-15.56,7.34-23.53,8.86       c-9.94,1.96-19.89,2.62-29.72,2.06l52.01,34.99c0,0-73.49,111.81-167.98,152.75c-86.38,37.43-127.3-94.46-133.69-117.37       c-25.21,21.06-50.73,41.84-76.42,61.76c-199.6,154.84-474.69,211.39-533.79,222.11       C1476.81,1840.54,1730.41,1906.4,1840.99,1858.81z"/>
				</g>
				<g class="st4">
					<path class="st0" d="M2304.67,1470.1c-2.56,6.97,7.04,11.12,16.38,13.48c14.63-3,28.92-6.11,42.14-10.8       c6.82-2.56,13.35-5.51,18.62-9.38c5.26-3.88,8.85-8.5,10.05-13.79c0.94-3.95,0.58-8.24-0.7-12.65       c-0.27,0.64-0.57,1.28-0.94,1.89C2383.68,1449.89,2309.4,1457.24,2304.67,1470.1z"/>
				</g>
				<g class="st4">
					<path class="st0" d="M2487.87,1440.97c-24.94,12.88-57.42-22.25-69.61-39.28c-4.94,16.14-6.81,35.82,0.75,56.59       c16.31,44.78,56.3,40.75,65.21,39.25c3.41-2.94,6.66-5.62,9.73-8.14c20.01-16.46,33.24-27.33,39.89-67.2       c3.26-19.58-1.32-37.44-9.24-52.79C2521.78,1386.7,2512.58,1428.2,2487.87,1440.97z"/>
				</g>
				<g class="st4">
					<path class="st0" d="M2476.85,1253.57c-1.05,15.75-38.84,55.12-71.39,86.61c-32.55,31.5-24.73,60.89-24.73,60.89l0.25,0.38       c1.96,1.58,3.95,3.11,5.82,4.83c4.48,4.05,8.63,8.64,12.18,13.91c3.4-39.26,28.21-67.46,29.62-69.03       c0.18-0.2,0.38-0.4,0.58-0.58c20.66-18.57,68.39-72.04,49.31-102.41C2477.68,1248.74,2477.07,1250.32,2476.85,1253.57z"/>
				</g>
			</g>
			<g>
				<g>
					<path class="st0" d="M1547.33,2800.64c-73.89,0-138.45-29.73-172.88-81.05c-22.12-32.97-29.11-67.04-20.78-101.25       c13.16-54.06,61.58-93.52,87.8-111.45c-31.05-42.01-41.78-112.59-45.47-153.02c-29.3,20.12-79.48,48.27-123.16,41.62       c-23.44-3.57-42.09-16.17-55.44-37.46c-45.83-73.09,20.78-146.26,66.68-178.13c6.97-28.03,36.22-142.44,64.5-206.56       c32.25-73.1,100.91-146.37,103.82-149.45c2.48-2.63,5.77-4.36,9.34-4.9c3.13-0.47,315.63-49.78,534.24-219.35       c84.65-65.67,168.26-140.49,242.02-206.5c129.61-116,198.9-176.34,236.36-173.28c8.54,0.71,15.74,4.45,20.83,10.81       c40.97,51.22-36.83,125.56-49.35,136.95c-4.35,5.14-34.89,43.5-18.77,87.74c15.55,42.69,55.2,33.91,56.88,33.51       c8.69-2.05,17.42,3.35,19.47,12.06c2.05,8.71-3.35,17.42-12.06,19.47c-23.93,5.61-74.49,1.57-94.71-53.96       c-23.7-65.07,23.54-118.74,25.56-121c0.39-0.43,0.8-0.84,1.24-1.23c22.57-20.32,63.14-69,47.34-92.13       c-4.36,0.08-20.59,3.94-69.62,42.6c-38.57,30.42-86.29,73.13-141.56,122.58c-74.16,66.37-158.22,141.6-243.77,207.95       c-211.56,164.11-498.26,217.3-543.51,224.87c-14.47,16.01-68.18,77.56-94.1,136.33c-30.55,69.23-63.84,205.87-64.17,207.25       c-0.98,4.03-3.46,7.53-6.94,9.78c-1.04,0.68-104.93,69.35-62.27,137.38c8.23,13.12,18.97,20.52,32.84,22.64       c41.88,6.43,102.32-36.04,122.09-52.94c4.76-4.07,11.44-5.03,17.15-2.47c5.71,2.56,9.44,8.18,9.57,14.44       c0.76,37,11.35,140.71,50.6,175.83c3.91,3.51,5.89,8.69,5.29,13.91s-3.69,9.82-8.29,12.35c-0.73,0.41-74.52,41.78-88.98,101.51       c-6.14,25.34-0.82,50.01,16.24,75.45c38.62,57.58,114.52,71.47,172.67,65.27c67.72-7.22,122.83-40.44,140.39-84.63       c2.36-5.95,8.01-9.95,14.4-10.2c2.08-0.08,208.72-8.77,289.88-51.35c63.62-33.38,62.84-100.71,55.06-155.64l-0.59-4.2       c-3.27-24.01-37.99-130.27-51.09-169.19c-2.85-8.48,1.7-17.66,10.18-20.51c8.47-2.84,17.66,1.7,20.51,10.18       c4.92,14.62,48.21,143.74,52.49,175.15l0.57,4.03c4.93,34.78,19.93,140.6-72.08,188.87c-77.76,40.79-249.74,52.25-293.59,54.56       c-25.51,50.97-86.69,87.04-162.69,95.15C1567.28,2800.11,1557.22,2800.64,1547.33,2800.64z"/>
				</g>
				<g>
					<path class="st0" d="M1410.28,2339c-7.7,0-14.52-5.5-15.92-13.34c-0.99-5.58-23.04-137.36,84.13-206.8       c106.56-69.06,202.92-13.76,206.98-11.37c7.7,4.54,10.27,14.47,5.73,22.17s-14.47,10.28-22.18,5.73       c-3.32-1.92-83.57-47.24-172.92,10.64c-88.92,57.61-70.67,169.25-69.85,173.98c1.53,8.8-4.35,17.19-13.15,18.74       C1412.15,2338.92,1411.21,2339,1410.28,2339z"/>
				</g>
				<g>
					<path class="st0" d="M1293.81,2174.28c32.77-3.45,65.8-4,98.3,0.16c-30.96,6.57-60.91,17.54-89.28,30.95       C1279.11,2215.27,1268.49,2178.62,1293.81,2174.28L1293.81,2174.28z"/>
				</g>
				<g>
					<path class="st0" d="M1433.58,2770.42c-8.44,0-15.52-6.44-16.12-14.97c-0.06-0.87-4.74-87.56,115.74-100.19       c86.94-9.12,176.87-18.54,187.55,68.79c1.09,8.88-5.23,16.96-14.11,18.04c-8.89,1.1-16.96-5.23-18.04-14.11       c-5.48-44.8-35.3-52.74-152.02-40.52c-86.94,9.11-87.07,60.11-86.8,65.89c0.42,8.86-6.37,16.5-15.22,17.02       C1434.22,2770.41,1433.9,2770.42,1433.58,2770.42z"/>
				</g>
				<g>
					<path class="st0" d="M1729.44,2704.37c-7.54,0-14.28-5.29-15.85-12.96c-0.17-0.83-15.65-83.44,96.56-117.42       c66.82-20.24,205.27-47.64,250.9-6.43c8.95,8.09,18.69,22.56,14.21,45.61c-1.71,8.78-10.2,14.49-18.99,12.81       c-8.78-1.71-14.51-10.21-12.81-18.99c1.7-8.72-0.98-12.55-4.12-15.39c-26.39-23.82-134.96-12.31-219.81,13.38       c-84.29,25.53-74.32,79.41-74.21,79.95c1.79,8.76-3.86,17.31-12.63,19.1C1731.61,2704.26,1730.52,2704.37,1729.44,2704.37z"/>
				</g>
				<g>
					<path class="st0" d="M1469.47,2494.51c28.1,1.34,88.3,1.65,122.81,20.08c-31.03-6.7-62.79-0.44-93.47,5.25       c-5.14,1.06-18.21,3.94-23.16,5.08c-1.82,0.35-5.29,1.22-7.05,1.44C1443.44,2528.49,1444.6,2491.06,1469.47,2494.51       L1469.47,2494.51z"/>
				</g>
				<g>
					<path class="st0" d="M1723.35,2717.08c-3.43,0-6.89-1.08-9.82-3.33c-3.23-2.47-79.04-61.43-78.01-139.39       c0.55-41.28,22.22-79.17,64.46-112.75c-19.57-49.81-87.75-242.38-27.04-367.99c24.2-50.06,65.81-83.4,123.67-99.08       c169.18-45.85,241.41,57.22,244.4,61.63c3.62,5.34,3.73,12.32,0.27,17.77c-48.8,76.83-11.16,164.41,4.1,193.67       c82.63-22.89,138.43-65.4,165.95-126.46c61.5-136.47-35.05-324.07-36.04-325.95c-3.37-6.44-2.04-14.34,3.26-19.32       c2.22-2.09,222.98-209.58,263.6-265.43c17.34-23.84,33.42-37.07,46.35-47.69c19.17-15.77,30.75-25.28,36.87-61.98       c9.6-57.58-57.22-100.1-57.9-100.52c-7.57-4.74-9.89-14.72-5.17-22.3c4.72-7.59,14.67-9.92,22.26-5.21       c3.52,2.18,85.94,54.27,72.76,133.36c-8.11,48.68-26.71,63.97-48.24,81.68c-12.1,9.95-25.82,21.23-40.72,41.72       c-38.12,52.41-216.55,221.81-258.89,261.77c21.04,44.47,91.01,210.72,31.45,343.07c-33.09,73.53-100.25,123.26-199.61,147.81       c-6.72,1.66-13.76-1.14-17.5-6.97c-3.22-5-75.78-120.25-15.86-228.49c-18.93-20.77-81.32-73.83-202.85-40.9       c-49.06,13.3-82.74,40.08-102.96,81.87c-62.32,128.84,31.46,350.72,32.41,352.95c2.98,6.96,0.75,15.06-5.38,19.5       c-40.15,29.09-60.76,60.9-61.25,94.54c-0.91,61.65,64.67,112.88,65.33,113.39c7.08,5.45,8.41,15.61,2.97,22.7       C1733.02,2714.89,1728.21,2717.08,1723.35,2717.08z"/>
				</g>
				<g>
					<path class="st0" d="M1709.75,2454.2c41.63-22.69,90.64-25.88,136.99-25.27c0,0,19.21,0.98,19.21,0.98       c-42.79,6.45-86.66,17.31-123.56,40.31c-4.32,2.81-9.34,6.1-12.81,9.59c-4.24,8.59-14.63,12.12-23.22,7.88       c-11.89-5.46-12.89-23.14-1.91-30.01C1704.44,2457.68,1709.75,2454.2,1709.75,2454.2L1709.75,2454.2z"/>
				</g>
				<g>
					<path class="st0" d="M1429.96,2714.17c-8.8-30.34-13.38-68.53,8.33-94.24c-10.4,27.66,4.13,57.27,20.38,79.27       C1475.16,2721.18,1438.82,2740.31,1429.96,2714.17L1429.96,2714.17z"/>
				</g>
				<g>
					<path class="st0" d="M1511.03,2666.59c-2.46-29.71-5.82-78.37,15.59-101.25c-12.23,26.33,4.91,67.43,15.59,92.48       C1551.77,2681.52,1515.24,2691.82,1511.03,2666.59L1511.03,2666.59z"/>
				</g>
				<g>
					<path class="st0" d="M1732.49,2636.74c-20.43-26.85-27.43-63.51-19.12-95.9c0.96,7.75,2.21,15.28,4.66,22.4       c6.44,19.77,19.01,38.37,36.37,49.65c21.74,7.31,12.11,39.2-10.06,33.22C1739.28,2644.86,1735.73,2640.35,1732.49,2636.74       L1732.49,2636.74z"/>
				</g>
				<g>
					<path class="st0" d="M1820.63,2584.64c-15.48-27.98-28.79-62.67-17.68-94.19c0.04,29.81,21.1,54.73,42.36,73.22       C1865.81,2581.42,1835.04,2607.72,1820.63,2584.64L1820.63,2584.64z"/>
				</g>
				<g>
					<path class="st0" d="M2175.4,1815.39c-23.81-52.61-50.35-105.37-88.99-149.08c23.5,17.8,44.05,39.65,63.33,62.23       c19.38,22.97,37.19,46.41,54.15,71.45C2216.13,1820.09,2185.54,1836.68,2175.4,1815.39L2175.4,1815.39z"/>
				</g>
				<g>
					<path class="st0" d="M2346.42,1381.8c34.26,4.96,75.93,33.61,68.64,73.17c-11.22,40-63.97,43.1-95.93,29.01       c15.25-6.75,29.67-11.72,42.25-17.74c9.45-5,19.03-8.94,22.13-18.54c1.93-9.01-4.67-19.9-10.28-28.69       C2365.58,1407.27,2355.92,1395.5,2346.42,1381.8L2346.42,1381.8z"/>
				</g>
				<g>
					<path class="st0" d="M1471.31,2135.03c-5.18-69.81-8.3-139.89-5.01-209.76c3.62,34.65,9.15,68.92,15.48,103.03       c6.39,33.96,13.53,68.12,21.52,101.64C1507.76,2152.61,1474.13,2158.02,1471.31,2135.03L1471.31,2135.03z"/>
				</g>
			</g>
			<g class="st4">
				<path class="st0" d="M1801.75,2848.49c0,0,77.31-67.95,162.35-94.17s133.41-77.84,133.02-59.03      c-0.39,18.81-71.99,129.4-38.29,109.8c33.7-19.6,207.28-136.23,235.27-225.59c28-89.37,48.99-101.96,53.19-80.97      c4.2,21,15.4,102.81,44.79,66.8s26.6-220.23,0-287.69c0,0,85.39,101.13,81.19,212.8c-4.2,111.67-106.39,200.97-108.48,198.32      c-2.1-2.65-8.4-59.34-44.09-45.7c-35.7,13.65-115.32,192.5-268.16,242.7c-152.83,50.21-143.18,23.02-135.35,6.11      c7.82-16.91,20.31-33.6,16.11-35.7c-4.2-2.1-168.3,60.31-187.81,69.02c-19.51,8.71-52.6,18.12-52.6,18.12      S1767.31,2871.23,1801.75,2848.49z"/>
			</g>
			<g>
				<path class="st0" d="M1669.49,2995.22c-2.39,0-4.81-0.53-7.07-1.63c-6.62-3.22-10.24-10.49-8.81-17.71      c1.92-9.7,49.03-238.45,215.62-316.82c8.09-3.82,17.74-0.33,21.55,7.76c3.81,8.1,0.33,17.74-7.76,21.55      c-107.46,50.55-161.64,175.84-184.25,245.39c83.73-55.07,229-97.3,236.35-99.42c6.35-1.82,13.18,0.39,17.25,5.61      c4.07,5.21,4.55,12.38,1.23,18.1l-22.92,39.42c257.72-12.84,379.01-214.76,380.25-216.88c3.83-6.52,11.65-9.53,18.87-7.25      c7.21,2.29,11.88,9.27,11.23,16.81c-2.47,29.03,3.65,48.33,10.9,60.68c10.14-31.34,33.04-54.12,56.94-77.89      c48.79-48.53,104.09-103.54,86.8-257.7c-11.6-103.49-58.18-185.1-138.43-242.56c-60.49-43.32-118.56-56.03-119.14-56.15      c-8.74-1.86-14.33-10.45-12.48-19.19s10.41-14.34,19.16-12.5c2.6,0.55,64.29,13.87,130.19,60.7      c61,43.35,137.04,124.71,152.89,266.09c19.03,169.71-44.84,233.23-96.15,284.28c-29.14,28.98-52.15,51.87-52.83,88.81      c-0.1,5.54-3.02,10.63-7.75,13.52c-4.73,2.89-10.6,3.15-15.57,0.72c-1.72-0.84-33.41-16.98-44.04-63.7      c-17.57,21.87-43.77,50.58-79.11,79.35c-65.05,52.96-174.57,115.87-327.63,115.87c-0.9,0-1.8,0-2.71-0.01      c-5.78-0.02-11.11-3.13-13.98-8.15c-2.87-5.02-2.85-11.19,0.06-16.18l16.43-28.26c-62.94,20.85-182.94,65.2-222.8,111.68      C1678.64,2993.24,1674.11,2995.22,1669.49,2995.22z"/>
			</g>
			<g>
				<path class="st0" d="M2085.15,2456.04c-5.5,0-10.86-2.8-13.89-7.86c-4.6-7.66-2.13-17.6,5.52-22.21l0,0      c0.84-0.51,84.25-51.45,92.81-110.25c8.43-57.88-11.08-83.22-11.28-83.47c-5.81-6.8-4.91-16.92,1.89-22.72      c6.81-5.8,17.11-4.9,22.92,1.91c3.01,3.52,29.07,36.5,18.52,108.96c-10.78,74.03-104.19,130.95-108.17,133.34      C2090.87,2455.29,2087.99,2456.04,2085.15,2456.04z"/>
			</g>
		</g>
		<g class="st4">
			<path class="st0" d="M698.67,2745.95c0,0-46.72,27.3-119.16,37.79s-187.4,1.05-209.45,5.25c-22.05,4.2-28.35,4.72-28.35,4.72     s14.17-23.1,70.87-31.5s106.56-14.17,177.43-14.17S698.67,2745.95,698.67,2745.95z"/>
		</g>
		<g>
			<g>
				<path class="st6" d="M2766.48,1887.33c0.91-10.45-1.41-18.27-7.09-23.92c-10.8-10.75-30.75-10.89-36.96-10.65      c-8.35,6.17-45.27,37.34-17.1,87.43C2720.3,1936.3,2763.45,1922.09,2766.48,1887.33z"/>
			</g>
			<g>
				<path class="st7" d="M1122.5,2576.48c70.71,8.6,89.55-3.03,94.37-8.43c1.72-1.93,3.84-5.24,2.3-11.63      c-2.99-12.47-20.9-26.48-35.3-37.73c-11.91-9.31-20.4-16.02-23.45-22.95l-37.78,11.67l40.82-27.7      c8.78-11.73,29.37-24.32,47.84-34.02c17.85-19.38,24.66-35.41,20.12-47.62c-7.27-19.6-43.12-28.05-57.92-29.91      c-6.55,1.62-29.53,6.68-45.9,2.65c-0.23,0.14-0.44,0.3-0.68,0.41c-0.63,0.3-1.31,0.51-1.96,0.63l-55.84,9.82l43.46-20.64      c-1.24-1.96-2.17-4.1-2.65-6.46c-1.96-9.81,2.78-22.32,7.81-35.55c8.93-23.52,13.84-39.46,1.23-46.41      c-5.56-3.06-18.39-2.73-37.78,7.39c-39.48,20.6-85,71.56-91.65,134.77C979.59,2509.11,1048.9,2567.53,1122.5,2576.48z"/>
			</g>
			<g>
				<path class="st6" d="M1245.68,2392.74c4.81,12.93,2.15,27.55-7.91,43.64l1452.65-491.74c-18.97-36.02-9.76-64.21,2.57-82.39      l-1491.47,496.7C1218.79,2364.48,1238.95,2374.63,1245.68,2392.74z"/>
			</g>
			<g>
				<path class="st7" d="M1024.22,2564.85c-3.36,0.21-6.97,0.35-10.84,0.35c-19.53,0-44.52-3.31-64.83-16.9      c-17.97-12.02-29.27-30.03-33.57-53.53c-7.21-39.35,7.04-71.77,25.41-95.85c-14.06-10.63-60.28-37.39-166.05-33.99      c-107.65,3.52-266.01,61.62-318.99,86.55c30.06,1.8,79.95,5.69,108.45,25.8c9.77-1.9,19.25-3.18,28.92-4.17      c10.89-1.11,21.8-1.69,32.7-1.82c10.89-0.17,21.77,0.21,32.58,1.15c10.82,0.78,21.53,2.55,32.11,4.5      c-10.77-0.7-21.5-1.19-32.21-0.7c-10.71,0.33-21.37,1.21-31.94,2.63c-10.57,1.37-21.07,3.19-31.44,5.5      c-10.24,2.27-20.65,5-30.23,8.22c-0.01,0-0.02,0.01-0.03,0.01c-0.04,0.01-0.15,0.05-0.2,0.06l-0.13,0.04      c-0.02,0.01-0.03,0.01-0.05,0.01c-7.56,2.32-107.24,32.8-150.39,42.04c-31.02,6.65-60.25,10.75-74.94,12.6      c8.78,20.88,34.57,72.35,78.32,84.01c8.38-5.75,16.76-10.39,25.63-14.62c10.09-4.74,20.57-8.58,31.26-11.46      c10.65-2.99,21.64-4.71,32.58-5.33c10.95-0.91,21.91,0.32,32.59,1.89c-10.83-0.31-21.63-0.25-32.16,1.89      c-10.52,1.85-20.81,4.73-30.62,8.77c-9.83,3.94-19.28,8.72-28.22,14.28c-8.83,5.51-17.59,11.95-24.77,18.62l-0.26,0.24      c-0.02,0.02-0.04,0.02-0.06,0.04c-5.9,5.18-103.07,91.4-128.38,177.09c23-6.47,71.14-18.38,100.63-14.29      c36.58,5.09,196.05-5.19,197.91-5.31c2-0.16,4.78-0.66,7.19-1.11c2.69-0.53,5.39-1.16,8.09-1.84c5.41-1.38,10.81-3,16.18-4.78      c10.75-3.56,21.36-7.81,31.81-12.47c10.5-4.58,20.76-9.76,30.98-15.05l15.17-8.28l14.97-8.7l-13.94,10.3l-14.24,9.94      c-9.64,6.42-19.38,12.77-29.48,18.57c-10.05,5.89-20.37,11.4-31.08,16.31c-5.35,2.46-10.8,4.77-16.39,6.87      c-2.8,1.05-5.63,2.04-8.53,2.96c-1.25,0.37-2.44,0.73-3.65,1.08c-3.12,12.72-15.75,44.75-66.34,75.76      c15.38,3.26,42.46,5.86,82.32-1.26c69.1-12.33,164.91-47.58,165.88-47.94c2.65-0.98,5.64-0.41,7.74,1.5      c2.1,1.9,2.97,4.81,2.26,7.55c-0.53,2.04-11.51,43.58-36.78,81.07c30.08-10.2,89.34-35.66,160.72-94.12      C1016.17,2757.43,1035.53,2624.4,1024.22,2564.85z"/>
			</g>
			<g>
				<path class="st2" d="M929.95,2492.03c3.53,19.27,12.62,33.93,27.01,43.58c21.32,14.3,50.02,15.15,68.11,13.87      c-34.97-30.81-56.92-77.15-50.69-136.32c1.26-12.01,3.83-23.53,7.32-34.56C957.1,2398.86,920.22,2438.99,929.95,2492.03z"/>
			</g>
			<g class="st8">
				<path class="st1" d="M607.34,2535.63c0,0,26.6-11.71,72.79-19.85c46.19-8.14,65.79-9.54,65.79-9.54s-44.09,27.3-69.29,32.9      C651.43,2544.73,607.34,2535.63,607.34,2535.63z"/>
			</g>
			<g>
				<g>
					<path class="st5" d="M866.3,2721.8c3.5,5.6-20.3,62.29,4.9,53.89c25.2-8.4,91.69-84.69,95.89-139.28       c2.95-38.36,1.76-65.67,0.78-78.55c-6.67-2.42-13.22-5.48-19.32-9.56c-17.97-12.02-29.27-30.03-33.57-53.53       c-5.44-29.65,1.32-55.36,12.84-76.54c-17.94-7.1-71.36-26.56-129.41-31.69c-71.39-6.3-264.56,39.89-264.56,39.89       s10.26-6.65,21.64-13.82c-43.15,14.53-79.6,29.19-100.15,38.86c30.06,1.8,79.95,5.69,108.45,25.8       c7.34-1.42,14.53-2.44,21.75-3.3c-3.67-0.45-6.52-1.11-8.12-2.05c-0.82-0.48-11.55-13.12-28.87-18.9       c-17.32-5.77-33.33-8.4-33.33-8.4s21.26-6.56,55.12-1.84c33.86,4.72,84.25,29.37,84.25,29.37s-0.19,0.02-0.46,0.04       c1.28,0.1,2.58,0.12,3.86,0.24c10.82,0.78,21.53,2.55,32.11,4.5c-7.67-0.5-15.33-0.87-22.97-0.88       c-0.58,0.13-12.45,2.89-49.64,17.56c-38.14,15.05-108.83,43.74-171.48,56.34c-62.48,12.57-104.32,4.08-104.53,4.04       c10.84,23.54,35.7,66.81,75.38,77.39c2.97-2.04,5.94-3.89,8.93-5.68c-8.99-5.64-45.68-29.89-60.97-58.95       c0,0,32.55,17.15,71.04,23.1c38.49,5.95,53.54,11.99,53.54,11.99s0,0.01,0,0.01c5.62-0.93,11.28-1.56,16.93-1.88       c10.95-0.91,21.91,0.32,32.59,1.89c-10.83-0.31-21.63-0.25-32.16,1.89c-5.25,0.93-10.44,2.11-15.55,3.56       c-0.35,0.51-0.87,1.08-1.81,1.79c-11.58,8.73-48.29,54.94-97.99,104.29c-49.69,49.34-92.04,103.59-92.04,103.59l-4.67,5       c-0.08,0.27-0.18,0.55-0.26,0.82c23-6.47,71.14-18.38,100.63-14.29c36.58,5.09,196.05-5.19,197.91-5.31       c2-0.16,4.78-0.66,7.19-1.11c2.69-0.53,5.39-1.16,8.09-1.84c5.41-1.38,10.81-3,16.18-4.78c10.75-3.56,21.36-7.8,31.81-12.47       c10.5-4.58,20.76-9.76,30.98-15.05l15.17-8.28l14.97-8.7l-13.94,10.3l-14.24,9.94c-9.64,6.42-19.38,12.77-29.48,18.57       c-10.05,5.89-20.37,11.4-31.08,16.31c-5.35,2.46-10.8,4.77-16.39,6.87c-2.8,1.05-5.63,2.04-8.53,2.96       c-1.25,0.37-2.44,0.73-3.65,1.08c-2.73,11.13-12.74,37.04-49.09,64.12c0,0,96.24-9.54,192.82-66.23       C840.4,2758.2,862.8,2716.21,866.3,2721.8z"/>
				</g>
				<g>
					<path class="st5" d="M2680.05,1912.32c-1.17-10.53,0.03-20.05,2.57-28.49L1229.4,2372.46c7.21,5.29,13.18,11.93,16.28,20.28       c1.19,3.21,1.92,6.52,2.19,9.92c1.99-3.8,3.37-6.47,3.37-6.47L2680.05,1912.32z"/>
				</g>
				<g>
					<path class="st5" d="M2738.02,1892.94c14.33-13.97,17.9-25.74,18.72-31.8c-2.52-1.92-5.37-3.41-8.33-4.57       c-7.28-0.11-42.49,29.02-52.61,37.51c-0.83,4.65-1.12,9.66-0.67,15.02C2703.46,1909.49,2722.22,1908.35,2738.02,1892.94z"/>
				</g>
				<g>
					<path class="st5" d="M347.28,2546.24c-3.28,0.45-6.24,0.83-8.74,1.15c0.81,1.93,1.82,4.19,2.92,6.59       C341.48,2553.73,341.83,2550.18,347.28,2546.24z"/>
				</g>
				<g>
					<path class="st5" d="M969.01,2395.3c1.75-0.53,4.9,0,4.9,0s-2.27,14.52-2.8,16.1s-2.1,1.92-16.8,21.7       c-14.7,19.77-20.3,55.99-20.3,55.99c-1.49,2.09-2.8,3.07-3.97,3.37c3.59,19.05,12.63,33.58,26.91,43.15       c1.51,1.01,3.06,1.94,4.63,2.82c-5.76-12.43-13.92-32.93-13.58-48.64c0.42-19.33,18.52-37.94,25.75-44.62       c-0.72-10.2-0.55-20.87,0.62-32c1.27-12.01,3.83-23.53,7.32-34.56c-7.5,6.18-16.14,14.23-24.26,23.91       C963.39,2398.11,968.16,2395.56,969.01,2395.3z"/>
				</g>
				<g>
					<path class="st5" d="M1231.41,2398.06c-7.27-19.6-43.12-28.05-57.92-29.91c-6.55,1.62-29.53,6.68-45.9,2.65       c-0.23,0.14-0.44,0.3-0.68,0.41c-0.63,0.3-1.31,0.51-1.96,0.63l-55.84,9.82l43.46-20.64c-1.24-1.96-2.18-4.1-2.65-6.46       c-1.96-9.81,2.78-22.32,7.81-35.55c3.73-9.82,6.73-18.29,8.07-25.37c-9.5-0.75-26.56,2.89-55.13,24.32       c-51.79,38.84-75.89,129.23-79.79,129.48c-0.58,0.04-1.07-0.02-1.59-0.04c0.27,2.83,0.61,5.63,1.03,8.38       c10.82,8.74,27.34,18.54,46.93,18.25c35.17-0.53,167.93-81.89,164.28-64.04c-3.65,17.85-28.85,26.64-42.49,47.44       c-13.65,20.8-22.41,40.46-22.41,40.46l0,0l26.82-18.2c8.78-11.73,29.38-24.32,47.84-34.02       C1229.14,2426.29,1235.95,2410.26,1231.41,2398.06z"/>
				</g>
				<g class="st4">
					<path class="st0" d="M948.01,2489.79c-0.34,15.72,7.82,36.21,13.58,48.64c20.7,11.57,46.67,12.24,63.48,11.06       c-28.39-25.02-48.2-60.27-51.32-104.32C966.54,2451.84,948.43,2470.46,948.01,2489.79z"/>
				</g>
				<g class="st4">
					<path class="st0" d="M1159.03,2457.44c13.65-20.8,38.85-29.59,42.49-47.44c3.65-17.85-129.11,63.52-164.28,64.04       c-19.58,0.29-36.11-9.51-46.93-18.25c10.76,70.15,69.93,113.12,132.18,120.69c70.71,8.6,89.55-3.03,94.37-8.43       c1.72-1.93,3.84-5.24,2.3-11.63c-2.99-12.47-20.9-26.48-35.3-37.73c-11.91-9.31-20.4-16.02-23.45-22.95l-37.78,11.67l13.99-9.5       l0,0C1136.63,2497.9,1145.39,2478.24,1159.03,2457.44z"/>
				</g>
				<g class="st4">
					<path class="st0" d="M616.07,2891.5c69.1-12.33,164.91-47.58,165.88-47.94c2.65-0.98,5.64-0.41,7.74,1.5       c2.1,1.9,2.97,4.81,2.26,7.55c-0.53,2.04-11.51,43.58-36.78,81.07c30.08-10.2,89.34-35.66,160.72-94.12       c100.28-82.13,119.64-215.17,108.32-274.72c-3.36,0.21-6.97,0.35-10.84,0.35c-13.66,0-29.97-1.71-45.5-7.33       c0.97,12.89,2.17,40.19-0.78,78.55c-4.2,54.59-70.69,130.88-95.89,139.28c-25.2,8.4-1.4-48.29-4.9-53.89       c-3.5-5.6-25.9,36.4-122.48,93.09c-96.59,56.69-192.82,66.23-192.82,66.23c-5.19,3.87-10.92,7.76-17.25,11.64       C549.12,2896.02,576.21,2898.62,616.07,2891.5z"/>
				</g>
				<g class="st4">
					<path class="st0" d="M435.86,2589.87c-38.5-5.95-71.04-23.1-71.04-23.1c15.3,29.06,51.99,53.31,60.97,58.95       c5.45-3.26,10.97-6.2,16.7-8.94c10.09-4.74,20.57-8.58,31.26-11.46c5.15-1.45,10.39-2.58,15.65-3.45c0,0,0-0.01,0-0.01       S474.35,2595.82,435.86,2589.87z"/>
				</g>
				<g class="st4">
					<path class="st0" d="M570.33,2442.81c-33.86-4.72-55.12,1.84-55.12,1.84s16.01,2.62,33.33,8.4       c17.32,5.77,28.05,18.42,28.87,18.9c1.6,0.94,4.46,1.6,8.12,2.05c2.39-0.29,4.76-0.62,7.17-0.87       c10.89-1.11,21.8-1.69,32.7-1.82c9.6-0.15,19.18,0.2,28.72,0.92c0.27-0.02,0.46-0.04,0.46-0.04S604.19,2447.53,570.33,2442.81z       "/>
				</g>
				<g class="st4">
					<path class="st0" d="M2690.42,1944.63c-6.12-11.61-9.27-22.4-10.37-32.31l-1428.81,483.87c0,0-1.38,2.67-3.37,6.47       c0.83,10.34-2.54,21.61-10.1,33.72L2690.42,1944.63z"/>
				</g>
				<g class="st4">
					<path class="st0" d="M2766.47,1887.33c0.91-10.45-1.41-18.27-7.09-23.92c-0.83-0.82-1.72-1.56-2.65-2.27       c-0.82,6.07-4.39,17.83-18.72,31.8c-15.8,15.4-34.56,16.54-42.88,16.16c0.78,9.35,3.8,19.73,10.19,31.09       C2720.3,1936.3,2763.45,1922.09,2766.47,1887.33z"/>
				</g>
				<g class="st8">
					<path class="st1" d="M391.41,2713.41c49.69-49.34,86.4-95.56,97.99-104.29c0.94-0.71,1.46-1.28,1.81-1.79       c-5.12,1.46-10.16,3.19-15.07,5.22c-9.83,3.94-19.28,8.72-28.22,14.28c-8.83,5.51-17.59,11.95-24.77,18.62l-0.26,0.24       c-0.02,0.02-0.04,0.02-0.06,0.04c-5.88,5.16-102.43,90.85-128.12,176.27l4.67-5C299.38,2816.99,341.72,2762.75,391.41,2713.41z       "/>
				</g>
				<g class="st8">
					<path class="st1" d="M446.01,2549.98c62.64-12.6,133.33-41.29,171.48-56.34c37.18-14.67,49.06-17.43,49.64-17.56       c-3.08,0-6.16,0.04-9.24,0.18c-10.71,0.33-21.37,1.21-31.94,2.63c-10.57,1.37-21.07,3.19-31.44,5.5       c-10.24,2.27-20.65,5-30.23,8.22c-0.01,0-0.02,0.01-0.03,0.01c-0.04,0.01-0.15,0.05-0.2,0.06l-0.13,0.04       c-0.02,0.01-0.03,0.01-0.05,0.01c-7.56,2.32-107.24,32.8-150.39,42.04c-25.73,5.51-50.21,9.27-66.2,11.45       c-5.45,3.94-5.8,7.49-5.82,7.74c0.01,0.01,0.01,0.02,0.02,0.04C341.69,2554.06,383.52,2562.55,446.01,2549.98z"/>
				</g>
				<g class="st8">
					<path class="st1" d="M798.41,2386.55c58.05,5.12,111.47,24.59,129.41,31.69c3.77-6.93,8.04-13.37,12.56-19.31       c-14.06-10.63-60.28-37.39-166.05-33.99c-65.89,2.16-150.75,24.76-218.84,47.69c-11.38,7.17-21.64,13.82-21.64,13.82       S727.02,2380.25,798.41,2386.55z"/>
				</g>
				<g class="st8">
					<path class="st1" d="M934.02,2489.09c0,0,5.6-36.22,20.3-55.99c14.7-19.77,16.27-20.12,16.8-21.7s2.8-16.1,2.8-16.1       s-3.15-0.53-4.9,0c-0.85,0.26-5.62,2.81-11.58,7.22c-18.49,22.05-34.24,52.66-27.48,89.51c0.03,0.15,0.07,0.28,0.1,0.43       C931.21,2492.16,932.53,2491.18,934.02,2489.09z"/>
				</g>
				<g class="st8">
					<path class="st1" d="M1070.67,2317.96c28.57-21.43,45.63-25.06,55.13-24.32c1.88-9.87,0.5-16.99-6.84-21.05       c-5.55-3.06-18.39-2.73-37.78,7.39c-39.48,20.6-85,71.56-91.65,134.77c-1.2,11.42-1.22,22.3-0.23,32.65       c0.52,0.02,1.01,0.07,1.59,0.04C994.79,2447.19,1018.88,2356.81,1070.67,2317.96z"/>
				</g>
				<g class="st8">
					<path class="st1" d="M2693,1862.25l-1491.47,496.7c9.31,2.98,19.44,7.32,27.87,13.51l1453.23-488.63       C2685.11,1875.58,2688.86,1868.34,2693,1862.25z"/>
				</g>
				<g class="st8">
					<path class="st1" d="M2722.43,1852.76c-5.37,3.97-22.54,18.29-26.63,41.33c10.12-8.5,45.33-37.62,52.61-37.51       C2738.3,1852.63,2726.86,1852.59,2722.43,1852.76z"/>
				</g>
			</g>
			<g>
				<g>
					<path class="st0" d="M1216.07,2467.96c-5.39,0-10.56-2.7-13.61-7.42c-4.02-6.23-3.3-14.4,1.77-19.83       c15.63-16.74,22.42-30.83,19.13-39.67c-5.48-14.72-38.06-23-52.08-24.52c-7.57-0.82-13.55-6.8-14.36-14.37       c-0.81-7.57,3.76-14.69,10.98-17.09l1546.79-515.13c1.16-0.39,2.36-0.63,3.57-0.75c3.77-0.37,37.42-2.95,57.84,17.29       c7.48,7.42,15.99,20.88,14.07,42.92c-4.91,56.46-73.75,72.95-84.37,75.17L1221.26,2467.1       C1219.56,2467.68,1217.8,2467.96,1216.07,2467.96z M1225.79,2359.92c12.09,6.76,22.92,16.34,27.93,29.82       c3.74,10.05,3.84,20.76,0.34,32.06l1442.36-488.26c0.74-0.25,1.49-0.44,2.25-0.59c0.52-0.1,56.17-11.04,59.25-46.37       c1-11.5-3.19-15.69-4.56-17.07c-7.52-7.5-23.43-8.44-30.41-8.2L1225.79,2359.92z"/>
				</g>
				<g>
					<path class="st0" d="M2701.63,1965.07c-5.38,0-10.64-2.68-13.72-7.57c-39.1-62.16-2-109.46,23.07-125.78       c7.49-4.87,17.53-2.75,22.4,4.74c4.86,7.47,2.77,17.46-4.67,22.36c-4.7,3.14-44.57,31.88-13.4,81.44       c4.76,7.57,2.48,17.57-5.09,22.33C2707.56,1964.27,2704.58,1965.07,2701.63,1965.07z"/>
				</g>
				<g>
					<path class="st0" d="M1166.96,2603.36c-13.84,0-29.59-1.08-47.33-3.24c-85.15-10.36-165.32-78.2-153.78-187.84       c7.61-72.33,57.88-129.16,104.31-153.39c24.27-12.67,45.68-15.2,60.29-7.13c31.64,17.46,17.8,53.92,9.53,75.7       c-2.43,6.41-5.92,15.6-6.62,20.43c6.33,1.64,22.51,0.33,35.51-3.12c8.65-2.27,17.51,2.86,19.8,11.5       c2.29,8.64-2.85,17.51-11.5,19.8c-9.95,2.64-43.89,10.34-62.73-1.4c-6.92-4.31-11.39-10.68-12.94-18.43       c-2.45-12.23,2.72-25.85,8.2-40.28c8.05-21.21,11.05-32.57,5.1-35.85c-2.43-1.34-12.88-1.28-29.67,7.48       c-37.51,19.58-80.77,68-87.09,128.07c-9.79,92.97,58.19,144.12,125.48,152.3c71.81,8.74,85.59-4.13,86.92-5.62       c0.46-0.51,1.03-1.15,0.36-3.92c-2.29-9.56-20.31-23.65-32.24-32.97c-15.65-12.24-26.96-21.08-27.99-33.51       c-0.53-6.38-1.94-23.33,58-54.55c7.93-4.14,17.71-1.05,21.84,6.88c4.13,7.93,1.05,17.71-6.88,21.84       c-14.88,7.76-30,17.51-37.37,23.84c3.52,3.08,8.39,6.88,12.35,9.98c18.21,14.24,38.85,30.38,43.78,50.93       c2.98,12.4,0.25,24.13-7.68,33.03C1223.04,2596.9,1200.73,2603.35,1166.96,2603.36z"/>
				</g>
				<g>
					<path class="st0" d="M1013.56,2573.73c-20.87,0-47.76-3.56-69.78-18.3c-19.97-13.36-32.5-33.25-37.24-59.11       c-17.27-94.2,79.65-150.7,83.79-153.06c7.77-4.42,17.66-1.72,22.09,6.04c4.43,7.76,1.73,17.64-6.02,22.08       c-1.04,0.6-81.09,47.71-68.01,119.1c3.14,17.12,10.76,29.54,23.3,37.97c30.25,20.33,78.39,10.58,78.87,10.48       c8.75-1.85,17.33,3.76,19.17,12.5c1.85,8.74-3.72,17.31-12.45,19.18C1046.1,2570.87,1032.25,2573.73,1013.56,2573.73z"/>
				</g>
				<g>
					<path class="st0" d="M735.23,2963.49c-5.73,0-11.13-3.05-14.05-8.15c-3.42-5.98-2.69-13.46,1.83-18.66       c16.14-18.59,27.72-41.5,35.21-59.57c-34.74,11.72-91.4,29.52-137.97,37.83c-73.9,13.19-109.22-3.81-113-5.8       c-5.33-2.79-8.67-8.31-8.68-14.32c-0.01-6.02,3.32-11.54,8.64-14.35c35.59-18.78,53.23-38.17,61.91-51.97       c-47.58,2.74-147.35,7.74-177.31,3.59c-28.02-3.88-83.91,11.13-103.09,17.24c-5.49,1.74-11.49,0.45-15.77-3.4       c-4.28-3.86-6.18-9.7-5-15.34c15.85-75.91,85.64-151.52,120.24-185.18c-51.44-28.34-74.55-96-75.65-99.3       c-1.55-4.65-0.91-9.76,1.75-13.89s7.04-6.83,11.92-7.34c0.39-0.04,39.62-4.23,82.29-13.38c25.22-5.41,71.83-18.73,106.19-28.87       c-22.8-5.19-48.47-6.68-65.31-7.67c-8.57-0.5-14.77-0.86-19.08-1.56c-8.8-1.43-15.03-9.03-14.48-17.7       c0.67-10.48,6.64-16.02,44.87-32.51c24.8-10.7,56.01-22.5,87.88-33.23c50.98-17.16,148.01-46.32,224.99-48.84       c140.77-4.61,185.03,41.04,189.62,46.25c5.9,6.72,5.24,16.95-1.48,22.86c-6.65,5.85-16.75,5.25-22.68-1.28       c-1.07-1.09-39.98-39.51-164.4-35.45c-90.06,2.95-216.31,44.75-284.35,72.25c28.84,3.37,60.77,10.32,81.77,26.87       c4.73,3.73,7,9.78,5.9,15.69c-1.11,5.92-5.41,10.74-11.17,12.5c-4.36,1.34-107.21,32.87-151.49,42.35       c-24.82,5.32-48.14,8.98-64.17,11.22c11.3,23.4,34.79,61.59,70.56,69.47c5.98,1.32,10.71,5.9,12.21,11.85       c1.5,5.94-0.48,12.22-5.12,16.23c-0.99,0.85-89.65,78.11-120.97,158.38c25.8-6.49,62.97-13.87,88.47-10.31       c29.67,4.13,151.68-2.48,196.2-5.37c4.7-0.3,9.24,1.43,12.54,4.74c3.3,3.32,5,7.91,4.67,12.57       c-0.32,4.52-4.35,39.05-52.34,75.2c14.4,0.81,33.41,0.15,57.24-4.1c68.32-12.19,163.45-47.19,164.41-47.54       c5.65-2.09,12-0.86,16.47,3.18c4.47,4.05,6.33,10.24,4.81,16.07c-0.44,1.71-8.05,30.49-25,62.08       c32.13-13.52,79.92-38.65,135.19-83.92c100.99-82.71,117.62-218.15,104.08-272.28c-2.17-8.68,3.11-17.47,11.78-19.64       c8.67-2.18,17.47,3.1,19.64,11.78c17.66,70.63-6.66,216.47-114.98,305.2c-108.36,88.75-189.38,104.59-192.78,105.23       C737.21,2963.39,736.21,2963.49,735.23,2963.49z"/>
				</g>
				<g>
					<path class="st0" d="M591.55,2794.73c21.46-1.15,42.4-8.31,62.77-15.55c20.88-7.61,43.18-18.05,63.08-28.21       c0,0-13.37,11.21-13.37,11.21c-22.89,18.46-46.9,36-73,49.9c-11.43,5.9-22.8,11.65-35.56,14.81c0,0-10.3,2.11-10.3,2.11       c-10.18,2.08-20.11-4.48-22.2-14.65C559.34,2798.36,578.15,2785.7,591.55,2794.73L591.55,2794.73z"/>
				</g>
				<g>
					<path class="st0" d="M407.6,2627.42c38.44-24.34,86.71-36.33,131.31-25.53c-10.93,0.4-21.63,1.19-31.91,4.02       c-29.72,7.48-57.25,24-78.24,46.03C411.41,2670.64,386.58,2641.98,407.6,2627.42L407.6,2627.42z"/>
				</g>
				<g>
					<path class="st0" d="M557.53,2469.79c44.52-6.05,89.3-4.08,132.57,7.16c-10.87,0.01-21.61,0.24-32.27,1.45       c-30.99,3.2-62.84,10.81-91.39,22.54C543.64,2509.43,533.65,2474.67,557.53,2469.79L557.53,2469.79z"/>
				</g>
				<g>
					<path class="st0" d="M1175.54,2499.95l-52.9,7.45l38.88-36.64c6.83-6.44,17.58-6.12,24.02,0.71       C1195.08,2480.98,1188.76,2498.5,1175.54,2499.95L1175.54,2499.95z"/>
				</g>
				<g>
					<path class="st0" d="M1127.55,2380.02l-58.45,1.64l48.61-32.5c7.74-5.17,18.2-3.1,23.38,4.64       C1148.61,2364.38,1140.37,2380,1127.55,2380.02L1127.55,2380.02z"/>
				</g>
			</g>
		</g>
		<g>
			<g>
				<path class="st2" d="M787.03,1430.2c195.64-8.01,433.51-69.66,669.77-173.59c485.64-213.63,813.46-540.38,730.77-728.37      c-37.88-86.12-155.47-128.41-318.46-128.41c-58.25,0-122.34,5.44-190.63,16.17c-1.08,0.42-2.19,0.58-3.28,0.51      c-156.93,25-335.98,78.02-518.34,158.24c-102.16,44.94-198.68,95.45-286.52,149.53c-0.59,0.48-1.23,0.9-1.94,1.19      C753.9,796.12,654.26,872.83,576.31,951.17c-136.4,137.09-189.75,262.08-150.22,351.94S593.86,1438.08,787.03,1430.2z"/>
			</g>
			<g>
				<path class="st2" d="M1070.51,423.87c119.6-59.22,308.82-126.94,536.53-117.86c-103.51-146.95-239.34-215.99-343.75-248.33      c-202.49-62.72-419.1-31.13-528.43,32.48C584.59,177.61,590.44,313.2,598.38,362.54c20.79-28.1,56.65-47.08,96.46-49.91      c53.21-3.75,100.72,20.42,130.46,66.38c26.7,41.26,39.4,107.83,45.16,171.2C896.85,528.69,967.2,475.03,1070.51,423.87z"/>
			</g>
			<g>
				<path class="st9" d="M1077.74,437.28c-116.74,57.74-190.65,118.56-205.77,131.49c4.14,57.98,2.9,110.75,1.88,135.53      c85.35-51.81,178.53-100.23,276.88-143.49c176.15-77.49,353.3-131.61,513.57-157.8c-14.4-29.32-29.98-56.38-46.51-81.28      C1388.41,310.02,1197.63,377.98,1077.74,437.28z"/>
			</g>
			<g class="st4">
				<path class="st0" d="M1159.56,668.29c0,0-650.91,361.15-657.21,562.72s363.94,195.81,711.8,86.09      c347.86-109.72,928.07-506.03,907.07-632.01s-170.08-90.29-170.08-90.29l50.39-67.19      C2001.54,527.61,1602.6,439.42,1159.56,668.29z"/>
			</g>
			<g class="st8">
				<path class="st1" d="M454.4,1345.61c0,0-65.43-119.85,91-318.28s729.65-552.68,1197.88-588.14s461.94,189.9,461.94,189.9      s18.9-136.81-93.79-193.69c-112.68-56.88-372.35-44.96-480.13-16.28c-107.79,28.68-201.92,41.29-452.84,138.93      S670.33,857.26,670.33,857.26s-227.28,180.33-256.95,328.48S454.4,1345.61,454.4,1345.61z"/>
			</g>
			<g class="st8">
				
					<ellipse transform="matrix(0.35 -0.9367 0.9367 0.35 657.8972 1334.243)" class="st1" cx="1290.38" cy="193.05" rx="14.7" ry="35.41"/>
			</g>
			<g>
				<g>
					<path class="st5" d="M598.45,277.73c1.95-11.2,4.43-21.8,7.3-31.94C602.51,256.74,600.1,267.45,598.45,277.73z"/>
				</g>
				<g>
					<path class="st5" d="M871.96,568.77c4.14,57.98,2.9,110.75,1.88,135.53c15.49-9.4,31.33-18.65,47.33-27.82       c-1.58-20.82-3.47-76.25-11.99-137.01C889.95,553.69,877.29,564.21,871.96,568.77z"/>
				</g>
				<g>
					<path class="st5" d="M1603.02,414.22c-18.56-32.87-38.39-64.13-59.83-93.52c-196.07,4.3-358.81,63.84-465.45,116.58       c-1.92,0.95-3.8,1.9-5.7,2.86c14.82,42.78,26.24,90.13,34.42,140.66l0.02,0.05c14.64-6.78,29.37-13.48,44.26-20.03       C1304.71,493.08,1459.45,443.2,1603.02,414.22z"/>
				</g>
				<g>
					<path class="st5" d="M1869.11,399.83c-58.26,0-122.34,5.44-190.63,16.17c-1.08,0.42-2.19,0.58-3.28,0.51       c-156.93,25-335.98,78.02-518.34,158.24c-102.16,44.94-198.68,95.45-286.52,149.53c-0.59,0.48-1.23,0.9-1.94,1.19       C753.9,796.12,654.26,872.83,576.31,951.17c-136.4,137.09-189.75,262.08-150.22,351.94s167.77,134.97,360.94,127.09       c195.64-8.01,433.51-69.66,669.77-173.59c485.64-213.63,813.46-540.38,730.77-728.37       C2149.69,442.13,2032.1,399.83,1869.11,399.83z"/>
				</g>
				<g>
					<path class="st5" d="M906.63,522.49c-8.1-50.79-21.12-103.26-42.69-140.81c-56.08-97.64-146.37-115.48-224.06-77.69       c0,0,12.6-74.54,177.43-82.94c120.94-6.16,201.61,76.67,249.53,204.68c1.24-0.62,2.42-1.24,3.67-1.86       c106.21-52.59,267.34-111.83,461.54-118.09c-55.49-72.46-121.67-132.64-204.58-175.6c0,1.03-0.11,2.02-0.45,2.95       c-4.74,12.97-41.84,11.31-82.86-3.69c-41.02-15-70.43-37.67-65.69-50.64c0.25-0.69,0.65-1.33,1.08-1.94       c-51.75-11.75-108.49-18.55-171.16-19.6c-313.99-5.25-409.93,220.46-409.93,220.46c-5.73,35.67-3.05,66.31-0.07,84.81       c20.79-28.1,56.65-47.08,96.46-49.91c53.21-3.75,100.72,20.42,130.46,66.38c26.7,41.26,39.4,107.83,45.16,171.2       C878.51,543.65,890.71,534.06,906.63,522.49z"/>
				</g>
				<g class="st4">
					<path class="st0" d="M817.31,221.05c-164.83,8.4-177.43,82.94-177.43,82.94c77.69-37.79,167.98-19.95,224.06,77.69       c21.57,37.55,34.59,90.02,42.69,140.81c35.64-25.89,90.21-61.79,160.2-96.75C1018.92,297.72,938.25,214.89,817.31,221.05z"/>
				</g>
				<g class="st4">
					<path class="st0" d="M1072.03,440.14c-72.79,36.5-128.41,73.87-162.85,99.34c8.52,60.75,10.41,116.19,11.99,137.01       c58.78-33.7,120.78-65.76,185.3-95.63l-0.02-0.05C1098.27,530.27,1086.86,482.92,1072.03,440.14z"/>
				</g>
				<g class="st8">
					<path class="st1" d="M1664.3,403.01c-14.4-29.32-29.98-56.38-46.51-81.28c-25.36-1.29-50.23-1.56-74.61-1.03       c21.44,29.39,41.28,60.65,59.83,93.52C1623.69,410.05,1644.13,406.31,1664.3,403.01z"/>
				</g>
				<g class="st8">
					<path class="st1" d="M1008.38,57.27c62.67,1.05,119.41,7.85,171.16,19.6c-0.43,0.61-0.83,1.24-1.08,1.94       c-4.74,12.97,24.67,35.64,65.69,50.64c41.02,15,78.12,16.65,82.86,3.69c0.34-0.93,0.46-1.93,0.45-2.95       c82.91,42.96,149.08,103.13,204.58,175.6c24.49-0.79,49.48-0.78,74.98,0.24c-103.51-146.95-239.34-215.99-343.75-248.33       c-202.49-62.72-419.1-31.13-528.43,32.48c-77.68,45.2-113.58,103.25-129.1,155.62c-2.87,10.15-5.36,20.75-7.3,31.94       C598.45,277.73,694.39,52.02,1008.38,57.27z"/>
				</g>
			</g>
			<g>
				<g>
					<path class="st0" d="M745.28,1454.88c-180.02,0.01-300.36-49.85-340.97-142.18c-43.75-99.45,11.35-233.8,155.13-378.32       c140.15-140.86,348.92-276.32,587.84-381.42c238.92-105.1,479.84-167.46,678.39-175.59c203.68-8.32,339.96,41.84,383.7,141.29       c43.75,99.45-11.34,233.8-155.13,378.32c-140.15,140.86-348.92,276.32-587.84,381.42       c-238.92,105.1-479.84,167.46-678.39,175.58C773.42,1454.59,759.16,1454.88,745.28,1454.88z M1867.43,408.89       c-13.16,0-26.64,0.28-40.45,0.84c-194.6,7.97-431.36,69.36-666.67,172.87C925,686.12,719.76,819.16,582.39,957.23       c-131.8,132.47-185.9,257.28-148.44,342.43c37.46,85.15,166.03,129.58,352.73,121.97c194.6-7.97,431.36-69.36,666.67-172.87       c235.31-103.51,440.55-236.56,577.92-374.62c131.8-132.47,185.9-257.28,148.44-342.43       C2145.02,452.85,2032.19,408.89,1867.43,408.89z"/>
				</g>
				<g>
					<path class="st0" d="M865.55,734.61c-0.34,0-0.68-0.01-1.02-0.03c-8.93-0.56-15.71-8.24-15.16-17.17       c0.15-2.35,13.91-235.86-44.06-325.46c-24.88-38.46-64.55-58.7-108.78-55.56c-39.05,2.78-73.15,23.8-86.89,53.55       c-2.83,6.14-9.19,9.85-15.95,9.36c-6.75-0.52-12.47-5.19-14.32-11.7c-0.59-2.07-14.37-51.5-3.62-115.44       c9.94-59.14,43.54-142.28,147.15-202.56c113.82-66.22,338.41-99.39,547.44-34.65c188.52,58.39,333.76,185.32,420.01,367.06       c3.84,8.08,0.39,17.74-7.69,21.57c-8.09,3.83-17.74,0.39-21.57-7.69c-103.93-218.99-275.07-311.21-400.34-350.01       c-200.12-61.98-413.85-30.97-521.56,31.7c-129.55,75.38-139.32,187.7-134.56,244.97c22.67-21.77,54.75-36,89.61-38.48       c55.55-3.96,107.24,22.32,138.27,70.28c63.76,98.53,49.82,335.04,49.19,345.06C881.16,728,874.03,734.61,865.55,734.61z"/>
				</g>
				<g>
					<path class="st0" d="M863.95,581.84c-4.44,0-8.85-1.81-12.05-5.37c-5.97-6.65-5.43-16.88,1.22-22.86       c3.2-2.88,79.97-71.27,213.58-137.43c123.24-61.02,319.81-131.04,556.29-118.05c8.93,0.49,15.77,8.13,15.28,17.06       s-8.16,15.78-17.06,15.28c-229.01-12.59-419.58,55.18-539.14,114.24C952.12,508.9,875.52,577.02,874.76,577.7       C871.67,580.48,867.8,581.84,863.95,581.84z"/>
				</g>
			</g>
		</g>
		<g>
			<g>
				<path class="st0" d="M1722.74,1341.37c0.15-33-7.75-68.58-16.1-92.21c-21.27,3.32-42.56-0.69-53.65-3.48      c-6.3,20.08-18.18,35.01-35.41,44.45c-15.96,8.75-34.54,11.65-52.14,11.65c-0.09,0-0.17-0.01-0.25-0.01      c1.23,3.18,2.59,6.55,4.06,10.08C1591.93,1302.42,1662.15,1280.79,1722.74,1341.37z"/>
			</g>
			<g>
				<path class="st10" d="M1012.73,875.71c-31.59-23.99-162.83-120.33-233.24-120.33c-4.18,0-8.15,0.34-11.87,1.06      c-10.84,2.08-18.55,7.34-23.58,16.07c-35.09,60.89,60.19,254.13,109.17,340.41C895.69,995.52,987.27,900.58,1012.73,875.71z"/>
			</g>
			<g>
				<path class="st1" d="M838.81,1208.99c-19.01,193.5,24.8,360.78,123.34,471.05c85.62,95.8,208.33,145.5,364.72,147.71      c4.23,0.06,8.5,0.09,12.75,0.09c265.41,0.01,563.03-116.32,727.93-285.42c93.48-95.86,140.6-204.54,136.28-314.28      c-7.13-181.12-75.2-298.77-131.05-365.56c-60.57-72.45-120.28-102.47-120.87-102.76c-0.57-0.28-1.1-0.65-1.57-1.05      c-0.02-0.02-0.05-0.02-0.07-0.04c-1.2-1.05-124.25-105.34-439.55-124.84c-1-0.06-1.94-0.33-2.79-0.73      c-0.46,2.18-0.98,4.35-1.66,6.47c-5.96,19.24-19.21,34.34-33.69,46.19c-14.68,11.86-31.08,20.88-47.87,28.59      c-16.84,7.66-34.21,13.85-51.76,19.32c17.13-6.66,33.98-14.03,50.06-22.73c16.02-8.73,31.43-18.7,44.57-30.92      c13-12.17,23.85-26.95,27.67-43.45c2.01-8.18,2.02-16.63,0.43-24.72c-0.82-4.04-2.1-7.99-3.71-11.76      c-1.46-3.45-3.53-7.16-5.43-9.73c-31.29-31.16-112.6,29.19-141.38,55.17c-2.14,1.94-5.2,2.49-7.9,1.43      c-2.69-1.06-4.54-3.56-4.79-6.44c-1.65-19.76-6.48-43.99-20.15-47.19c-36.14-8.43-121.11,106.98-166.27,181.73      c-1.09,1.8-2.88,3.07-4.94,3.51c-2.08,0.44-4.21,0-5.94-1.21c-2.21-1.54-199.78-138.57-336.46-138.57      c-15.53,0-30.26,1.77-43.85,5.7c-32.23,9.34-55.51,30.68-69.2,63.43c-80.3,192.11,149.26,492.63,151.58,495.64      C838.44,1205.13,839,1207.06,838.81,1208.99z M1495.62,1280.94c1.41-3.96,5.75-6.02,9.72-4.63      c0.64,0.23,64.74,22.53,104.96,0.44c15.38-8.44,25.45-22.64,29.95-42.21c0.48-2.09,1.82-3.88,3.7-4.93      c1.87-1.06,4.1-1.26,6.13-0.58c0.48,0.16,47.73,15.59,77.17-3.05c13.06-8.26,20.88-22.42,23.27-42.1      c0.51-4.17,4.33-7.15,8.47-6.64c4.17,0.51,7.15,4.3,6.64,8.47c-2.97,24.46-13.16,42.35-30.29,53.16      c-4.41,2.79-9.09,4.9-13.89,6.58c11.11,32.68,27.96,105.59,5.67,153.28c-8.95,19.15-23.21,32.14-42.38,38.59      c-6.03,2.03-11.92,2.97-17.67,2.97c-63.4,0-109.09-114.07-118.44-139.37c-26.06-2.48-46.83-9.72-48.39-10.27      C1496.28,1289.25,1494.21,1284.9,1495.62,1280.94z M730.85,764.91c7.27-12.61,18.67-20.49,33.9-23.42      c81.61-15.66,256.96,121.77,264.37,127.63c1.75,1.38,2.8,3.46,2.89,5.68c0.08,2.22-0.81,4.38-2.45,5.89      c-1.23,1.13-123.64,115.12-167.28,252.87c-0.91,2.86-3.41,4.93-6.4,5.26c-0.29,0.03-0.57,0.05-0.86,0.05      c-2.67,0-5.18-1.41-6.56-3.74C841.63,1123.54,681.6,850.36,730.85,764.91z"/>
			</g>
			<g>
				<path class="st10" d="M1575.34,1325.67c22.34,48.41,62.3,111.45,104.54,97.23c15.28-5.14,26.22-15.15,33.44-30.61      c4.12-8.82,6.65-19.01,8.07-29.87C1664.4,1294.82,1596.14,1316.69,1575.34,1325.67z"/>
			</g>
			<g>
				<path class="st1" d="M1508.83,609.74c0.39,3.05,0.52,6.13,0.52,9.2c0.74-0.18,1.5-0.29,2.31-0.25      c39.76,2.46,76.46,6.22,110.28,10.91c3.4-37.58,20.38-191.23,73.81-235.7c11.75-9.77,24.59-13.98,38.31-12.46      c85.6,9.45,149.34,278.13,159.81,324.96c22.88,11.28,39.4,21.41,50.25,28.78c-43.15-218.58-133.91-392.91-223.6-427.26      c-74.35-28.47-182.35,186.89-219.77,276.83c1.88,3.41,3.23,6.66,4.51,10.21C1506.95,599.77,1508.18,604.71,1508.83,609.74z"/>
			</g>
			<g>
				<path class="st10" d="M1732.39,396.57c-9.49-1.03-18.33,1.9-26.9,9.02c-48.7,40.53-65.27,191.77-68.45,226.2      c109.63,16.55,187.49,42.95,239.31,66.35C1854.16,603.75,1794.48,403.43,1732.39,396.57z"/>
			</g>
			<g>
				<path class="st11" d="M855.03,1138.87c0.28,0,0.57-0.01,0.86-0.05c2.99-0.34,5.49-2.4,6.4-5.26      c43.65-137.74,166.05-251.73,167.28-252.87c1.64-1.51,2.53-3.66,2.45-5.89c-0.08-2.23-1.14-4.3-2.89-5.68      c-7.42-5.86-182.76-143.29-264.37-127.63c-15.23,2.93-26.63,10.81-33.9,23.42c-49.25,85.45,110.78,358.63,117.62,370.22      C849.85,1137.46,852.35,1138.87,855.03,1138.87z M744.04,772.51c5.03-8.73,12.74-13.98,23.58-16.07      c3.72-0.72,7.69-1.06,11.87-1.06c70.42,0,201.66,96.34,233.24,120.33c-25.46,24.87-117.04,119.8-159.52,237.2      C804.23,1026.64,708.95,833.39,744.04,772.51z"/>
			</g>
			<g class="st4">
				<path class="st0" d="M1509.5,1270.56c0,0,68.94,3.5,89.59-21c20.65-24.5,14.35-48.6,27.3-51.95c12.95-3.35,7.7,3.99,44.44,7.15      c36.74,3.15,58.79-3.5,73.84-22.39c0,0,10.15,46.19-28.7,54.59c-38.84,8.4-64.89-1.82-69.37,3.46      c-4.47,5.28-23.02,40.63-51.37,48.33S1505.3,1292.95,1509.5,1270.56z"/>
			</g>
			<g class="st4">
				<path class="st0" d="M1222.19,747.82c-4.05,3,77.69-121.17,83.29-115.57S1338.38,661.82,1222.19,747.82z"/>
			</g>
			<g class="st4">
				<path class="st0" d="M1472.76,615.45c10.5,14.7,1.25,41.99-34.72,67.89c-35.97,25.9-113.66,56.91-113.66,56.91      S1462.26,600.75,1472.76,615.45z"/>
			</g>
			<g>
				<g>
					<path class="st5" d="M935.93,1556.82c0,0,251.97,236.57,663.51,116.18c411.5-120.37,604.22-316.31,554.81-675.99       c-24.48-57.7-54.4-102.06-81.47-134.43c-60.57-72.45-120.28-102.47-120.87-102.76c-0.57-0.28-1.1-0.65-1.57-1.05       c-0.02-0.02-0.05-0.02-0.07-0.04c-1.2-1.05-124.25-105.34-439.55-124.84c-1-0.06-1.94-0.33-2.79-0.73       c-0.46,2.18-0.98,4.35-1.66,6.47c-5.96,19.24-19.21,34.34-33.69,46.19c-14.68,11.86-31.08,20.88-47.87,28.59       c-16.84,7.66-34.21,13.85-51.76,19.32c17.13-6.66,33.98-14.03,50.06-22.73c16.02-8.73,31.43-18.7,44.57-30.92       c13-12.17,23.85-26.95,27.67-43.45c2.01-8.18,2.02-16.63,0.43-24.72c-0.82-4.04-2.1-7.99-3.71-11.76       c-1.46-3.45-3.53-7.16-5.43-9.73c-31.29-31.16-112.6,29.19-141.38,55.17c-2.14,1.94-5.2,2.49-7.9,1.43       c-2.69-1.06-4.54-3.56-4.79-6.44c-1.65-19.76-6.48-43.99-20.15-47.19c-36.14-8.43-121.11,106.98-166.27,181.73       c-1.09,1.8-2.88,3.07-4.94,3.51c-2.08,0.44-4.21,0-5.94-1.21c-2.21-1.54-199.78-138.57-336.46-138.57       c-15.53,0-30.26,1.77-43.85,5.7c-32.23,9.34-55.51,30.68-69.2,63.43c-80.3,192.11,149.26,492.63,151.58,495.64       c1.19,1.53,1.74,3.47,1.56,5.4c-19.01,193.5,24.8,360.78,123.34,471.05c81.16,90.81,195.72,140.12,340.64,146.91       C1292.95,1824.59,1033.76,1760.96,935.93,1556.82z M785.45,801.62c-33.56,14.89-12.52,146.4-12.52,146.4       c-13.75-5.66-40.84-88.3-44.1-124s6.74-65.86,30.55-72.44c23.81-6.58,91.86,17.85,117.35,30.97       c25.49,13.12,133.56,76.64,141.44,89.24c7.87,12.6-28.35,34.12-28.35,34.12C926.13,852.01,811.87,789.9,785.45,801.62z"/>
				</g>
				<g>
					<path class="st5" d="M1805.72,483.25c-18.4-17.86-47.94-41.29-69.1-32.28c-32.9,14-41.27,191.07-41.27,191.07c0,0,0,0,0,0       c79.58,16.08,138.9,37.08,181.01,56.1C1863.34,642.8,1837.43,551.08,1805.72,483.25z"/>
				</g>
				<g>
					<path class="st5" d="M1508.83,609.74c0.39,3.05,0.52,6.13,0.52,9.2c0.74-0.18,1.5-0.29,2.31-0.25       c20.87,1.29,40.85,2.96,60.06,4.91c8.35-30.04,43.51-152.89,74.27-204.3c35.17-58.79,94.48-36.63,94.48-36.63s-0.04,0-0.05,0       c82.39,21.5,143.26,278.07,153.47,323.74c22.88,11.28,39.4,21.41,50.25,28.78c-43.15-218.58-133.91-392.91-223.6-427.26       c-74.35-28.47-182.35,186.89-219.77,276.83c1.88,3.41,3.23,6.66,4.51,10.21C1506.95,599.77,1508.18,604.71,1508.83,609.74z"/>
				</g>
				<g class="st4">
					<path class="st0" d="M1599.44,1673c-411.54,120.38-663.51-116.18-663.51-116.18c97.83,204.14,357.02,267.77,366.86,270.12       c7.95,0.37,15.94,0.69,24.08,0.81c4.23,0.06,8.5,0.09,12.75,0.09c265.41,0.01,563.03-116.32,727.93-285.42       c93.48-95.86,140.6-204.54,136.28-314.28c-3.67-93.34-23.55-169.78-49.58-231.13C2203.66,1356.69,2010.94,1552.63,1599.44,1673       z"/>
				</g>
				<g class="st4">
					<path class="st0" d="M1018.17,871.79c-7.87-12.6-115.95-76.11-141.44-89.24c-25.49-13.12-93.55-37.55-117.35-30.97       c-23.81,6.58-33.81,36.75-30.55,72.44s30.35,118.34,44.1,124c0,0-21.04-131.5,12.52-146.4       c26.42-11.72,140.68,50.39,204.37,104.29C989.82,905.91,1026.05,884.38,1018.17,871.79z"/>
				</g>
				<g class="st4">
					<path class="st0" d="M1736.62,450.97c21.16-9,50.7,14.42,69.1,32.28c-22.38-47.86-47.64-83.84-73.32-86.68       c-9.49-1.03-18.33,1.9-26.9,9.02c-48.7,40.53-65.27,191.77-68.45,226.2c20.53,3.1,39.95,6.54,58.3,10.25c0,0,0,0,0,0       C1695.35,642.04,1703.73,464.97,1736.62,450.97z"/>
				</g>
				<g class="st4">
					<path class="st0" d="M1645.98,419.3c-30.76,51.41-65.92,174.26-74.27,204.3c17.39,1.77,34.16,3.77,50.23,6       c3.4-37.58,20.38-191.23,73.81-235.7c11.75-9.77,24.59-13.98,38.31-12.46c2.13,0.24,4.24,0.67,6.34,1.22c0.01,0,0.05,0,0.05,0       S1681.15,360.51,1645.98,419.3z"/>
				</g>
			</g>
			<g>
				<g>
					<path class="st0" d="M1339.54,1851.64c-4.36,0-8.66-0.03-13.01-0.09c-163.32-2.31-291.89-54.68-382.13-155.65       c-101.95-114.07-147.98-285.37-129.89-482.9c-31.9-42.68-231.37-321.48-150.81-514.23c16.6-39.72,45.05-65.67,84.54-77.11       c126.1-36.55,330.59,89.82,386.43,126.67c11.66-18.36,33.46-51.58,58.7-84.46c71.62-93.31,105.29-98.17,124.38-93.68       c19.69,4.61,29.1,22.36,33.75,39.22c32.44-25.07,91.74-63.54,133.37-47.88c12.35-28.12,38.75-85.39,72-140.93       c64.9-108.42,122.83-153.82,172.18-134.9c51.27,19.63,102.01,77.07,146.74,166.1c40.56,80.73,73.83,183.67,94,290.63       c18.52,10.53,68.96,42.53,120.73,104.25c58.46,69.69,129.69,192.29,137.11,380.52c4.58,116.43-44.88,231.18-143.03,331.84       C1915.56,1732.38,1610.9,1851.63,1339.54,1851.64z M799.25,647.31c-14.9,0-29.02,1.69-42.01,5.46       c-30.02,8.71-50.84,27.84-63.66,58.49c-78.33,187.4,148.16,484.11,150.46,487.09c2.52,3.26,3.7,7.37,3.3,11.48       c-18.77,191.08,24.28,356.04,121.21,464.49c83.95,93.93,204.55,142.67,358.44,144.85c266.37,3.72,568.39-112.49,734.41-282.73       c91.8-94.13,138.08-200.62,133.86-307.95c-13.46-341.96-244.8-459.81-247.14-460.96c-4.6-2.27-7.85-6.57-8.77-11.62       c-40.34-221.14-133.66-406.16-221.88-439.95c-57.83-22.17-157.74,147.8-210.2,275.56c-2.07,5.04-6.54,8.71-11.89,9.75       c-5.37,1.04-10.87-0.68-14.68-4.58c-24.24-24.83-97.91,26.52-129.79,55.28c-4.57,4.12-11.08,5.3-16.81,3.03       c-5.72-2.26-9.67-7.58-10.18-13.71c-2.28-27.38-8.73-38.42-13.56-39.55c-2.47-0.56-26-3.2-91.3,81.87       c-35.81,46.65-65.37,95.45-65.67,95.94c-2.32,3.84-6.12,6.54-10.51,7.47c-4.38,0.93-8.96,0-12.63-2.57       C1128.07,782.9,932.54,647.31,799.25,647.31z"/>
				</g>
				<g>
					<path class="st0" d="M855.02,1147.45c-5.68,0-11.01-2.99-13.94-7.96c-17.4-29.49-168.51-290.64-117.67-378.86       c8.45-14.66,22.18-24.19,39.72-27.56c84.03-16.17,252.39,114.38,271.31,129.32c3.72,2.93,5.96,7.36,6.15,12.09       s-1.72,9.31-5.2,12.52c-1.21,1.12-122,113.68-164.92,249.15c-1.93,6.09-7.26,10.48-13.61,11.2       C856.24,1147.42,855.63,1147.45,855.02,1147.45z M779.65,763.95c-3.7,0-7.17,0.3-10.42,0.92c-8.36,1.61-14,5.4-17.76,11.92       c-28.43,49.33,40.85,208.59,100.28,316.05c41.67-102.13,116.99-184.93,147.97-216.29       C946.01,836.29,837.19,763.95,779.65,763.95z"/>
				</g>
				<g>
					<path class="st0" d="M1505.24,575.64c12,19.23,14.68,44.48,7.24,65.68c-14.55,39.64-51.31,59.86-86.81,75       c-17.27,7.07-34.94,12.61-52.72,17.4c32.89-14.44,66.45-31.63,91.81-56.88c22.9-21.86,35.12-56.17,14.57-81.76       C1466.95,577.69,1491.99,558.87,1505.24,575.64L1505.24,575.64z"/>
				</g>
				<g>
					<path class="st0" d="M1955.27,769.19c-3.77,0-7.56-1.31-10.63-3.98c-1.31-1.13-123.03-103.49-434.45-122.75       c-8.93-0.55-15.71-8.23-15.16-17.16c0.55-8.93,8.21-15.78,17.16-15.16c324.09,20.05,448.62,126.18,453.76,130.69       c6.72,5.9,7.4,16.13,1.5,22.85C1964.25,767.32,1959.77,769.19,1955.27,769.19z"/>
				</g>
				<g>
					<path class="st0" d="M1887.29,728.15c-7.45,0-14.15-5.17-15.81-12.74c-27.44-125.46-89.02-304.67-140.04-310.31       c-7.2-0.8-13.7,1.46-20.47,7.09c-43.18,35.94-62.27,176.27-65.98,227.31c-0.65,8.92-8.45,15.59-17.32,14.98       c-8.92-0.65-15.62-8.4-14.98-17.32c1.47-20.19,16.12-198.71,77.56-249.85c13.61-11.33,28.67-16.16,44.74-14.39       c42.81,4.73,82.92,62.22,122.63,175.76c27.83,79.56,45.31,159.02,45.49,159.82c1.91,8.74-3.63,17.37-12.36,19.28       C1889.6,728.03,1888.44,728.15,1887.29,728.15z"/>
				</g>
				<g>
					
						<ellipse transform="matrix(0.9085 -0.418 0.418 0.9085 -270.2687 838.2768)" class="st0" cx="1778.61" cy="1036.15" rx="77.15" ry="99.29"/>
				</g>
				<g>
					
						<ellipse transform="matrix(0.9085 -0.418 0.418 0.9085 -256.2105 840.3114)" class="st1" cx="1790.28" cy="1005.07" rx="23.59" ry="35.05"/>
				</g>
				<g class="st12">
					
						<ellipse transform="matrix(0.6435 -0.7654 0.7654 0.6435 -198.0041 1739.8119)" class="st1" cx="1768.94" cy="1082.49" rx="15.62" ry="28.03"/>
				</g>
				<g>
					
						<ellipse transform="matrix(0.9085 -0.418 0.418 0.9085 -383.5215 674.7303)" class="st0" cx="1348.62" cy="1212.93" rx="80.52" ry="103.63"/>
				</g>
				<g>
					
						<ellipse transform="matrix(0.9085 -0.418 0.418 0.9085 -368.8478 676.8541)" class="st1" cx="1360.8" cy="1180.49" rx="24.62" ry="36.58"/>
				</g>
				<g class="st12">
					
						<ellipse transform="matrix(0.6435 -0.7654 0.7654 0.6435 -488.2859 1474.1035)" class="st1" cx="1338.52" cy="1261.3" rx="16.3" ry="29.26"/>
				</g>
				<g>
					<path class="st0" d="M1565.47,1310.27c-35.11,0-66.15-10.83-68.12-11.53c-8.43-3-12.82-12.26-9.83-20.69       c3-8.42,12.26-12.82,20.67-9.83c1,0.35,61.32,21.15,98,0.99c13.3-7.32,21.7-19.29,25.68-36.6c1.02-4.45,3.88-8.27,7.87-10.5       c3.99-2.24,8.73-2.68,13.07-1.22c12.11,4.01,48.36,11.47,69.88-2.19c10.9-6.91,17.21-18.64,19.3-35.86       c1.08-8.88,9.15-15.21,18.03-14.13c8.88,1.08,15.2,9.15,14.13,18.03c-3.3,27.15-14.81,47.13-34.24,59.38       c-26.71,16.86-61.4,13.57-81.38,9.55c-7.44,18.54-19.78,32.61-36.83,41.96C1604.37,1307.15,1584.34,1310.27,1565.47,1310.27z"/>
				</g>
				<g>
					<path class="st0" d="M1630.43,1211.05c0,0-73.58-5.25-59.93-30.97c13.65-25.72,86.09-51.44,89.76-24.67       C1663.94,1182.17,1648.37,1204.75,1630.43,1211.05z"/>
				</g>
				<g>
					<path class="st0" d="M1666.66,1448.98c-73.9,0-122.16-133.47-127.85-149.99c-2.91-8.45,1.58-17.66,10.03-20.58       c8.46-2.92,17.67,1.57,20.59,10.03c13.04,37.79,60.88,142.07,107.72,126.34c12.94-4.36,22.23-12.89,28.41-26.11       c18.43-39.42,4.2-108.24-9.1-142.36c-3.25-8.33,0.87-17.72,9.21-20.97c8.34-3.25,17.72,0.87,20.97,9.21       c13.64,34.99,32.91,115.1,8.26,167.83c-9.99,21.36-25.94,35.86-47.41,43.09C1680.34,1447.87,1673.39,1448.98,1666.66,1448.98z"/>
				</g>
				<g>
					<path class="st0" d="M1729.45,1376.31c-4.71,0-9.38-2.05-12.58-5.99c-62.33-76.78-140.4-35.92-143.69-34.14       c-7.85,4.23-17.67,1.34-21.94-6.49c-4.27-7.83-1.43-17.62,6.39-21.92c1.04-0.57,104.75-55.95,184.38,42.14       c5.63,6.95,4.58,17.14-2.37,22.78C1736.65,1375.12,1733.04,1376.31,1729.45,1376.31z"/>
				</g>
			</g>
		</g>
		<g>
			<g>
				<g>
					<path class="st1" d="M1462.05,1844.48c-14.31,15.81-69.26,78.61-95.87,138.93c-25.67,58.2-53.13,162.96-61.83,197.36       c3.88-0.64,7.75-1.22,11.65-1.77c7.97-1.11,15.96-2.02,23.96-2.75c15.98-1.45,32.04-2.04,47.95-1.34       c-15.82,1.84-31.37,4.94-46.67,8.85c-7.65,1.95-15.25,4.08-22.77,6.39c-7.03,2.17-14.11,4.52-20.87,6.99       c-8.89,6.01-109.57,76.38-64.22,148.7c9.64,15.37,22.35,24.06,38.86,26.57c48.04,7.29,111.11-40.54,125.76-52.31       c-2.79-23.16-10.42-130.86,77.04-190.86c-3.87-33.09-6.92-66.09-9.29-99.21c-2.36-34.12-3.92-68.32-3.64-102.47       C1461.12,1901.5,1460.56,1869.82,1462.05,1844.48z"/>
				</g>
			</g>
			<g>
				<path class="st1" d="M1433.38,2710.67c-3.15-7.74-5.25-15.08-7.07-22.8c-1.71-7.66-3.05-15.41-3.37-23.26      c-0.32-7.83,0.01-15.71,1.72-23.33c1.81-7.6,4.97-14.78,9.45-20.89c-3.41,6.81-5.19,14.1-5.68,21.43      c-0.4,7.36,0.55,14.67,2.06,21.79c1.51,7.14,3.96,14.08,6.71,20.81c2.19,5.23,4.73,10.55,7.45,15.39      c13.75-14.41,35.78-27.53,70.96-33.54c-0.06-0.14-0.15-0.27-0.2-0.42c-0.13-0.36-0.24-0.76-0.31-1.13      c-1.66-8.6-2.77-16.86-3.65-25.32c-0.85-8.43-1.3-16.9-1.3-25.37c-0.06-8.46,0.65-16.99,2.24-25.31      c1.67-8.22,4.31-16.72,10.04-22.92c-4.68,6.98-5.87,15.36-6.26,23.4c-0.29,8.12,0.27,16.24,1.57,24.3      c1.24,8.05,2.92,16.03,4.95,23.92c2.05,7.84,4.42,15.79,7.07,23.19l0.04,0.1c0.42,1.17,0.5,2.38,0.35,3.53      c69.15-7.24,122.38-10.2,152.18,11.77c-20.45-23.97-42.95-59.8-42.41-101.08c0.53-40.15,22.81-77.15,66.24-110.04      c-13.94-34.26-81-210.7-40.84-338.5c-17.76-8.99-93.18-41.09-176.59,11.99c-0.82,0.89-1.85,1.57-3.05,1.99      c-92.02,61.14-72.28,180.38-72.07,181.58c0.05,0.29,0.04,0.57,0.06,0.86c0.01,0.11,0.05,0.21,0.05,0.31      c0.02,1.35,3.3,133.67,51.56,180.2l12.01-0.44l16.03-0.39c10.7-0.16,21.41,0.01,32.11,0.56c10.69,0.52,21.38,1.5,31.94,3.29      c10.52,1.81,21.06,4.21,30.71,8.7c-10.11-3.3-20.66-4.38-31.12-4.92c-10.49-0.51-21-0.21-31.47,0.54      c-10.48,0.72-20.92,1.81-31.34,3.22l-15.61,2.26l-7.84,1.23l-4.01,0.61l-2.11,0.29l-0.15,0.02      c-10.27,6-77.53,47.29-91.82,106.17c-6.67,27.44-0.8,55.13,17.44,82.31c9.24,13.78,20.55,25.09,33.09,34.42      c1.51-7.84,4.72-18.09,11.44-28.61c-0.21-0.25-0.42-0.49-0.6-0.78C1433.75,2711.46,1433.54,2711.05,1433.38,2710.67z"/>
			</g>
			<g>
				<path class="st2" d="M1704.76,2709.49c1.58-2.11,3.12-4.24,4.52-6.42c-3.11-2.65-7.36-6.46-12.26-11.29      C1700.24,2696.91,1702.81,2702.82,1704.76,2709.49z"/>
			</g>
			<g>
				<path class="st10" d="M1812.86,2597.23c-74.08,22.43-80.84,66.87-80.64,83.44c37.67-1.98,212.18-13.1,286.27-51.98      c11.86-6.22,21.57-13.62,29.54-21.8c1.23-8.91-1.02-15.71-7.11-21.21C2011.04,2558.73,1901.5,2570.39,1812.86,2597.23z"/>
			</g>
			<g>
				<path class="st1" d="M2014.22,2066.16c-14.13-17.46-79.28-85.15-215.57-48.19c-50.9,13.79-87.38,42.87-108.45,86.44      c-57.23,118.36,12.83,310.94,29.05,352.14c3.25-1.68,6.45-3.13,9.81-4.59c6.07-2.65,12.25-4.81,18.45-6.87      c12.43-3.99,25.07-6.86,37.75-9.12c12.67-2.35,25.47-3.58,38.22-4.6c6.38-0.46,12.78-0.6,19.15-0.92l19.12-0.09l-18.98,1.98      c-6.29,0.95-12.59,1.72-18.84,2.8c-12.47,2.26-24.89,4.72-36.99,8.24c-12.11,3.42-24.02,7.42-35.42,12.38      c-5.67,2.54-11.28,5.16-16.62,8.16c-5.25,2.86-10.81,6.33-14.77,9.55l-0.32,0.26c-0.07,0.05-0.14,0.08-0.21,0.14      c-42.26,30.72-63.95,64.76-64.46,101.19c-0.74,53.17,43.77,98.3,61.51,114.15c0.26-0.59,0.55-1.17,0.8-1.76      c-0.83-7.92-1.57-32.37,16.25-57.08c-5.74-6.62-9.72-13.09-13.42-20.19c-3.69-7.18-6.63-14.69-8.66-22.39      c-2.05-7.68-3.42-15.5-3.69-23.33c-0.54-7.81,0.23-15.59,1.24-23.18c0.25,7.7,0.77,15.31,2.53,22.68      c1.49,7.4,4.02,14.51,7.08,21.25c3.04,6.77,6.85,13.12,11.21,18.97c4,5.41,8.84,10.75,13.51,14.68      c13.64-13.82,34.13-26.9,64.94-36.23c4.47-1.35,9.12-2.7,13.92-4.03c-4.52-6.55-8.15-12.98-11.63-19.76      c-3.53-7.08-6.73-14.3-9.13-21.83c-2.38-7.52-4.25-15.22-4.92-23.05c-0.58-7.83-0.02-15.71,2.07-23.08      c-0.84,7.65-0.08,15.21,1.68,22.46c1.86,7.25,4.82,14.13,8.19,20.73c3.39,6.61,7.51,12.84,11.86,18.82      c4.36,5.9,9.21,11.83,14.09,16.76l0.1,0.1c1.38,1.4,2.05,3.21,2.13,5.03c75.88-19.25,179.25-32.08,214.31-0.42      c4.92,4.44,8.36,9.69,10.37,15.55c28.15-43.89,20.16-100.4,16.58-125.68l-0.58-4.17c-3.9-28.6-47.45-158.81-51.19-169.96      C2019.84,2279.55,1954.23,2166.97,2014.22,2066.16z"/>
			</g>
			<g>
				<path class="st10" d="M1531.49,2679.41c-84.74,8.88-93.65,57.15-94.44,71.15c40.88,24.04,91.75,29.74,133.69,25.26      c50.17-5.35,93.75-24.67,121.62-52.19C1684.23,2672.76,1642.13,2667.8,1531.49,2679.41z"/>
			</g>
			<g class="st4">
				<path class="st0" d="M1469.29,2765.27c0,0-3.15-33.04,53.14-50.36s158.12-24.87,166.52-14.27c8.4,10.6,16.47,26.99-4.89,40.58      s-59.16,31.43-108.5,39.83C1526.22,2789.45,1476.93,2774.16,1469.29,2765.27z"/>
			</g>
			<g class="st4">
				<path class="st0" d="M1771.36,2678.08c0,0,12.07-31.15,52.49-52.8c40.42-21.66,140.23-34.35,180.58-34.78      c40.34-0.43,47.24,4.72,47.24,4.72s16.83,19.02-29.64,40.22c-46.47,21.2-168.12,42.04-171.86,42.64      C1846.42,2678.69,1771.36,2678.08,1771.36,2678.08z"/>
			</g>
			<g>
				<g>
					<path class="st5" d="M1933.04,2193.13c-13.04-89.52,50.07-126.67,72.2-136.81c-24.74-24.49-89.3-70.15-206.59-38.35       c-50.9,13.79-87.38,42.87-108.45,86.44c-57.23,118.36,12.83,310.94,29.05,352.14c3.25-1.68,6.45-3.13,9.81-4.59       c6.07-2.65,12.25-4.81,18.45-6.87c12.43-3.99,25.07-6.86,37.75-9.12c12.67-2.35,25.47-3.58,38.22-4.6       c6.38-0.46,12.78-0.6,19.15-0.92l19.12-0.09l-18.98,1.98c-6.29,0.95-12.59,1.72-18.84,2.8c-12.47,2.26-24.89,4.72-36.99,8.24       c-12.11,3.42-24.02,7.42-35.42,12.38c-5.67,2.54-11.28,5.16-16.62,8.16c-5.25,2.86-10.81,6.33-14.77,9.55l-0.32,0.26       c-0.07,0.05-0.14,0.08-0.21,0.14c-42.26,30.72-63.95,64.76-64.46,101.19c-0.53,38.18,22.26,72.16,41.73,94.18       c0-0.89,0.04-1.8,0.15-2.73c0,0-4.77-32.56,18.68-66.45c-1.6-4.02-2.98-8.11-4.07-12.26c-2.05-7.68-3.42-15.5-3.69-23.33       c-0.54-7.81,0.23-15.59,1.24-23.18c0.25,7.7,0.77,15.31,2.53,22.68c1.49,7.4,4.02,14.51,7.08,21.25       c0.99,2.21,2.1,4.37,3.25,6.49c11.57-13.86,28.28-27.52,52.47-38.85c9.45-4.42,18.97-8.33,28.49-11.84       c-0.48-1.33-0.96-2.65-1.39-4c-2.38-7.52-4.25-15.22-4.92-23.05c-0.58-7.83-0.02-15.71,2.07-23.08       c-0.84,7.65-0.08,15.21,1.68,22.46c1.86,7.25,4.82,14.13,8.19,20.73c0.72,1.4,1.58,2.73,2.36,4.09       c76.67-26.35,152.24-26.07,190.28-31.51C2045.37,2500.39,1948.78,2301.26,1933.04,2193.13z"/>
				</g>
				<g>
					<path class="st5" d="M1682.33,2676.01c-0.51-0.59-1.02-1.23-1.53-1.84c-0.24,0.12-0.47,0.24-0.75,0.35       C1680.8,2675.02,1681.6,2675.48,1682.33,2676.01z"/>
				</g>
				<g>
					<path class="st5" d="M1812.86,2597.23c-74.08,22.43-80.84,66.87-80.64,83.44c37.67-1.98,212.18-13.1,286.27-51.98       c11.86-6.22,21.57-13.62,29.54-21.8c1.23-8.91-1.02-15.71-7.11-21.21C2011.04,2558.73,1901.5,2570.39,1812.86,2597.23z"/>
				</g>
				<g>
					<path class="st5" d="M1531.49,2679.41c-84.74,8.88-93.65,57.15-94.44,71.15c40.88,24.04,91.75,29.74,133.69,25.26       c50.17-5.35,93.75-24.67,121.62-52.19C1684.23,2672.76,1642.13,2667.8,1531.49,2679.41z"/>
				</g>
				<g>
					<path class="st5" d="M1704.76,2709.49c1.58-2.11,3.12-4.24,4.52-6.42c-3.11-2.65-7.36-6.46-12.26-11.29       C1700.24,2696.91,1702.81,2702.82,1704.76,2709.49z"/>
				</g>
				<g>
					<path class="st5" d="M1424.38,2677.9c-0.72-4.4-1.25-8.82-1.44-13.29c-0.32-7.83,0.01-15.71,1.72-23.33       c1.81-7.6,4.97-14.78,9.45-20.89c-3.41,6.81-5.19,14.1-5.68,21.43c-0.4,7.36,0.55,14.67,2.06,21.79       c0.41,1.95,0.91,3.89,1.45,5.81c17.05-17.93,42.22-36.62,78.4-48.5c-0.07-2.29-0.18-4.59-0.18-6.88       c-0.06-8.46,0.65-16.99,2.24-25.31c1.67-8.22,4.31-16.72,10.04-22.92c-4.68,6.98-5.87,15.36-6.26,23.39       c-0.29,8.12,0.27,16.25,1.57,24.3c0.25,1.63,0.6,3.25,0.88,4.88c1.27-0.36,2.51-0.75,3.81-1.1       c69.86-18.67,114.2-10.5,119.1-90.99c4.9-80.49-35.69-193.17-28.7-286.96c5.86-78.5,41.12-105.99,52.46-112.87       c0.01-0.02,0.01-0.04,0.02-0.06c-17.76-8.99-93.18-41.09-176.59,11.99c-0.82,0.89-1.85,1.57-3.05,1.99       c-92.02,61.14-72.28,180.38-72.07,181.58c0.05,0.29,0.04,0.57,0.06,0.86c0.01,0.11,0.05,0.21,0.05,0.31       c0.02,1.35,3.3,133.67,51.56,180.2l12.01-0.44l16.03-0.39c10.7-0.16,21.41,0.01,32.11,0.56c10.69,0.52,21.38,1.5,31.94,3.29       c10.52,1.81,21.06,4.21,30.71,8.7c-10.11-3.3-20.66-4.38-31.12-4.92c-10.49-0.51-21-0.21-31.47,0.54       c-10.48,0.72-20.92,1.81-31.34,3.22l-15.61,2.26l-7.84,1.23l-4.01,0.61l-2.11,0.29l-0.15,0.02       c-10.27,6-77.53,47.29-91.82,106.17c-6.67,27.44-0.8,55.13,17.44,82.31c2.97,4.42,6.21,8.5,9.58,12.43       C1399.94,2718.26,1406.28,2699.64,1424.38,2677.9z"/>
				</g>
				<g class="st4">
					<path class="st0" d="M1431.93,2669.42c1.43,5.11,3.26,10.11,5.26,15c2.19,5.23,4.73,10.55,7.45,15.39       c13.75-14.41,35.78-27.53,70.96-33.54c-0.06-0.14-0.15-0.27-0.2-0.42c-0.13-0.36-0.24-0.76-0.31-1.13       c-1.66-8.6-2.77-16.86-3.65-25.32c-0.62-6.14-0.95-12.31-1.12-18.49C1474.15,2632.8,1448.98,2651.48,1431.93,2669.42z"/>
				</g>
				<g class="st4">
					<path class="st0" d="M1423.13,2741.21c1.51-7.84,4.72-18.09,11.44-28.61c-0.21-0.25-0.42-0.49-0.6-0.78       c-0.23-0.36-0.43-0.78-0.59-1.16c-3.15-7.74-5.25-15.08-7.07-22.8c-0.74-3.31-1.39-6.63-1.93-9.97       c-18.09,21.74-24.44,40.36-24.76,41.32C1406.74,2727.54,1414.61,2734.87,1423.13,2741.21z"/>
				</g>
				<g class="st4">
					<path class="st0" d="M1612.83,2239.32c-7,93.79,33.59,206.47,28.7,286.96c-4.9,80.49-49.24,72.32-119.1,90.99       c-1.3,0.35-2.53,0.74-3.81,1.1c1.13,6.39,2.44,12.75,4.07,19.04c2.05,7.84,4.42,15.79,7.07,23.19l0.04,0.1       c0.42,1.17,0.5,2.38,0.35,3.53c67.47-7.07,119.72-9.98,149.9,10.28c0.27-0.11,0.5-0.23,0.75-0.35       c-20.03-23.94-41.41-58.99-40.88-99.24c0.53-40.15,22.81-77.15,66.24-110.04c-13.93-34.25-80.97-210.64-40.86-338.44       C1653.95,2133.33,1618.69,2160.82,1612.83,2239.32z"/>
				</g>
				<g class="st4">
					<path class="st0" d="M1697.01,2666.52c-0.11,0.93-0.15,1.83-0.15,2.73c7.64,8.64,14.78,15.5,19.78,19.97       c0.26-0.59,0.55-1.17,0.8-1.76c-0.83-7.92-1.57-32.37,16.25-57.08c-5.74-6.62-9.72-13.09-13.42-20.19       c-1.7-3.31-3.22-6.69-4.59-10.13C1692.25,2633.97,1697.01,2666.52,1697.01,2666.52z"/>
				</g>
				<g class="st4">
					<path class="st0" d="M2014.22,2066.16c-1.97-2.44-4.98-5.87-8.99-9.84c-22.13,10.14-85.24,47.29-72.2,136.81       c15.75,108.14,112.33,307.26,68.24,313.56c-38.05,5.44-113.62,5.16-190.28,31.51c2.9,5.08,6.07,10.01,9.49,14.73       c4.36,5.9,9.21,11.83,14.09,16.76l0.1,0.1c1.38,1.4,2.05,3.21,2.13,5.03c75.88-19.25,179.25-32.08,214.31-0.42       c4.92,4.44,8.36,9.69,10.37,15.55c28.15-43.89,20.16-100.4,16.58-125.68l-0.58-4.17c-3.9-28.6-47.45-158.81-51.19-169.96       C2019.84,2279.55,1954.23,2166.97,2014.22,2066.16z"/>
				</g>
				<g class="st4">
					<path class="st0" d="M1722.04,2591.73c2.37,4.36,5.03,8.54,7.96,12.48c4,5.41,8.84,10.75,13.51,14.68       c13.64-13.82,34.13-26.9,64.94-36.23c4.47-1.35,9.12-2.7,13.92-4.03c-4.52-6.55-8.15-12.98-11.63-19.76       c-2.9-5.81-5.55-11.73-7.74-17.83c-9.52,3.51-19.04,7.41-28.49,11.84C1750.32,2564.2,1733.61,2577.86,1722.04,2591.73z"/>
				</g>
				<g class="st4">
					<path class="st0" d="M1224.39,2300.21c-1.28,5.63-1.88,11.88-1.68,18.3c1.54,8.99,4.92,18.14,10.68,27.32       c9.64,15.37,22.35,24.06,38.85,26.57c48.04,7.29,111.11-40.54,125.76-52.31c-1.02-8.47-2.67-28.29-0.09-52.93       c-9.48,6.04-57.8,36.11-92.69,44.59C1266.38,2321.21,1224.39,2300.21,1224.39,2300.21z"/>
				</g>
				<g class="st4">
					<path class="st0" d="M1438.56,2066.1c-1.45,32.68-13.13,90.04-23.33,134.98c11.7-25.99,30.34-51.62,59.81-71.84       c-3.87-33.09-6.92-66.09-9.29-99.21c-1.99-28.75-3.35-57.56-3.59-86.35c-0.05-0.6-0.08-0.95-0.08-0.95       S1441.18,2006.78,1438.56,2066.1z"/>
				</g>
			</g>
			<g>
				<g>
					<path class="st0" d="M1543.15,2801.1c-73.89,0-138.46-29.73-172.88-81.05c-22.12-32.97-29.11-67.04-20.78-101.25       c13.16-54.06,61.58-93.52,87.8-111.45c-31.05-42.01-41.78-112.59-45.47-153.02c-29.3,20.12-79.46,48.28-123.16,41.62       c-23.44-3.57-42.09-16.17-55.44-37.46c-45.83-73.09,20.78-146.26,66.68-178.13c6.97-28.03,36.21-142.44,64.5-206.56       c32.25-73.1,100.91-146.37,103.82-149.45c6.14-6.51,16.38-6.81,22.89-0.67c6.51,6.13,6.81,16.38,0.68,22.89       c-0.67,0.71-67.78,72.37-97.75,140.31c-30.56,69.27-63.84,205.87-64.17,207.25c-0.98,4.03-3.46,7.53-6.94,9.78       c-1.04,0.68-104.93,69.36-62.27,137.38c8.23,13.12,18.97,20.52,32.84,22.64c41.85,6.42,102.32-36.04,122.09-52.93       c4.76-4.07,11.44-5.03,17.15-2.47c5.71,2.56,9.44,8.18,9.57,14.44c0.76,37,11.35,140.71,50.6,175.83       c3.91,3.51,5.89,8.69,5.29,13.91s-3.69,9.82-8.29,12.35c-0.73,0.41-74.52,41.78-88.98,101.51       c-6.13,25.33-0.82,50.01,16.24,75.45c38.63,57.58,114.51,71.47,172.68,65.27c67.71-7.22,122.82-40.44,140.38-84.62       c2.36-5.95,8.01-9.95,14.4-10.2c2.08-0.08,208.72-8.78,289.88-51.35c63.63-33.38,62.85-100.71,55.06-155.64l-0.59-4.2       c-3.27-24.01-38-130.28-51.1-169.2c-2.85-8.48,1.7-17.66,10.18-20.51c8.46-2.84,17.66,1.7,20.51,10.18       c4.92,14.62,48.21,143.75,52.49,175.16l0.56,4.03c4.93,34.78,19.93,140.6-72.08,188.87c-77.76,40.79-249.74,52.25-293.59,54.56       c-25.51,50.97-86.68,87.04-162.68,95.15C1563.1,2800.57,1553.04,2801.1,1543.15,2801.1z"/>
				</g>
				<g>
					<path class="st0" d="M1406.09,2339.46c-7.7,0-14.52-5.5-15.92-13.34c-0.99-5.58-23.04-137.36,84.13-206.8       c106.56-69.05,202.92-13.76,206.98-11.36c7.7,4.54,10.27,14.47,5.73,22.17s-14.47,10.28-22.18,5.73       c-3.33-1.93-83.57-47.25-172.92,10.64c-88.92,57.62-70.67,169.26-69.85,173.98c1.53,8.8-4.35,17.19-13.15,18.74       C1407.97,2339.38,1407.02,2339.46,1406.09,2339.46z"/>
				</g>
				<g>
					<path class="st0" d="M1289.62,2174.75c32.77-3.45,65.8-4,98.3,0.16c-30.96,6.57-60.91,17.54-89.28,30.95       C1274.93,2215.73,1264.3,2179.08,1289.62,2174.75L1289.62,2174.75z"/>
				</g>
				<g>
					<path class="st0" d="M1429.39,2770.88c-8.44,0-15.52-6.44-16.12-14.97c-0.06-0.87-4.74-87.55,115.74-100.19       c86.96-9.12,176.87-18.54,187.55,68.8c1.09,8.88-5.23,16.96-14.11,18.04c-8.87,1.12-16.95-5.23-18.04-14.11       c-5.48-44.81-35.32-52.76-152.02-40.53c-86.94,9.12-87.08,60.11-86.8,65.89c0.42,8.86-6.37,16.5-15.22,17.02       C1430.03,2770.87,1429.71,2770.88,1429.39,2770.88z"/>
				</g>
				<g>
					<path class="st0" d="M1725.2,2704.74c-7.52,0-14.23-5.21-15.79-12.87c-0.17-0.83-15.65-83.45,96.56-117.42       c66.83-20.24,205.27-47.64,250.9-6.43c8.96,8.08,18.69,22.55,14.21,45.6c-1.71,8.78-10.2,14.54-18.99,12.8       c-8.78-1.7-14.51-10.21-12.81-18.98c1.7-8.72-0.98-12.54-4.12-15.38c-26.38-23.83-134.96-12.31-219.81,13.38       c-83.05,25.15-74.58,77.9-74.18,80.13c1.57,8.73-4.16,17.19-12.87,18.86C1727.26,2704.64,1726.22,2704.74,1725.2,2704.74z"/>
				</g>
				<g>
					<path class="st0" d="M1465.28,2494.98c17.71,0.62,65.47,2.16,92.32,9.24c10.55,2.53,21.09,5.67,30.49,10.83       c-10.36-2.63-20.92-2.97-31.35-2.78c-31.08,0.65-62.13,8.12-92.33,14.55C1439.26,2528.95,1440.41,2491.52,1465.28,2494.98       L1465.28,2494.98z"/>
				</g>
				<g>
					<path class="st0" d="M1719.17,2717.54c-3.44,0-6.89-1.09-9.83-3.34c-3.23-2.47-79.03-61.43-78-139.38       c0.54-41.28,22.22-79.17,64.46-112.75c-19.57-49.81-87.75-242.39-27.03-368c24.2-50.06,65.8-83.39,123.66-99.08       c169.17-45.85,241.41,57.23,244.41,61.64c3.62,5.34,3.73,12.32,0.27,17.77c-59.32,93.39,9.06,202.66,9.76,203.75       c4.81,7.53,2.61,17.54-4.91,22.36c-7.52,4.83-17.52,2.66-22.35-4.87c-3.22-5-75.78-120.25-15.85-228.49       c-18.94-20.77-81.33-73.82-202.86-40.9c-49.06,13.3-82.74,40.08-102.95,81.87c-62.32,128.84,31.46,350.73,32.41,352.95       c2.98,6.96,0.75,15.06-5.38,19.5c-40.2,29.13-60.81,60.98-61.25,94.67c-0.82,61.89,64.65,112.74,65.31,113.25       c7.1,5.43,8.45,15.6,3.01,22.7C1728.86,2715.36,1724.04,2717.54,1719.17,2717.54z"/>
				</g>
				<g>
					<path class="st0" d="M1705.56,2454.66c41.63-22.69,90.64-25.88,136.99-25.27c0,0,19.2,0.98,19.2,0.98       c-42.79,6.45-86.66,17.31-123.56,40.31c-4.32,2.81-9.34,6.1-12.81,9.59c-4.24,8.59-14.63,12.12-23.22,7.88       c-11.89-5.46-12.89-23.14-1.91-30.01C1700.25,2458.14,1705.56,2454.66,1705.56,2454.66L1705.56,2454.66z"/>
				</g>
				<g>
					<path class="st0" d="M1425.77,2714.64c-8.8-30.35-13.38-68.53,8.34-94.24c-10.4,27.66,4.13,57.27,20.38,79.27       C1470.97,2721.64,1434.63,2740.77,1425.77,2714.64L1425.77,2714.64z"/>
				</g>
				<g>
					<path class="st0" d="M1506.84,2667.05c-2.46-29.71-5.82-78.37,15.59-101.25c-12.23,26.33,4.91,67.43,15.59,92.48       C1547.58,2681.98,1511.06,2692.28,1506.84,2667.05L1506.84,2667.05z"/>
				</g>
				<g>
					<path class="st0" d="M1728.3,2637.2c-20.43-26.85-27.43-63.51-19.12-95.9c0.97,7.75,2.21,15.28,4.66,22.4       c6.44,19.77,19.01,38.37,36.37,49.65c21.74,7.31,12.11,39.2-10.06,33.22C1735.09,2645.32,1731.54,2640.81,1728.3,2637.2       L1728.3,2637.2z"/>
				</g>
				<g>
					<path class="st0" d="M1816.44,2585.1c-15.48-27.98-28.79-62.67-17.68-94.19c0.04,29.81,21.1,54.73,42.36,73.22       C1861.62,2581.88,1830.85,2608.18,1816.44,2585.1L1816.44,2585.1z"/>
				</g>
				<g>
					<path class="st0" d="M1467.12,2135.49c-5.18-69.81-8.3-139.89-5.01-209.76c7.49,69,21.26,137.15,36.98,204.59       C1503.67,2153.02,1469.96,2158.53,1467.12,2135.49L1467.12,2135.49z"/>
				</g>
			</g>
		</g>
		<g>
			<g>
				<path class="st2" d="M1370.53,1852.07c19.13,20.83,41.03,39.54,64.03,56.25c23.07,2.51,46.35,4.57,69.6,6.04      c24.11,1.45,48.27,2.49,72.47,1.31c-23.96,3.7-48.29,5.22-72.55,6.3c-16.04,0.67-32.08,0.98-48.14,1.15      c88.54,58.27,185.88,88.3,205.28,93.94c93.06-67.94,171.45-146.88,234.29-221.15c-7.61,4.12-15.25,8.18-22.96,12.17      c-20.37,10.47-40.99,20.38-61.78,29.86c-20.87,9.32-41.81,18.45-63.04,26.84c-21.16,8.55-42.57,16.45-64.03,24.14      c21-8.88,41.91-17.93,62.51-27.63c20.68-9.53,41.01-19.78,61.22-30.19c20.13-10.57,40.04-21.53,59.61-33.02      c18.92-11.15,37.82-22.8,55.62-35.11c59.84-74.63,103.02-141.85,128.43-184.55c-146.5,137.3-318.05,204.21-440.79,236.5      C1498.04,1844.44,1406.58,1850.73,1370.53,1852.07z"/>
			</g>
			<g>
				<g>
					<path class="st5" d="M1508.01,1914.56c22.83,1.33,45.71,2.22,68.62,1.1c-18.63,2.88-37.48,4.42-56.35,5.48       c39.79,21.17,78.46,39.78,97.39,43.32c47.77,8.92,146.45-86.61,159.58-100.26c5.96-6.2,11.44-12.92,15.65-18.44       c-14.97,6.56-29.97,13-45.16,19c-21.16,8.55-42.57,16.45-64.03,24.14c7.74-3.27,15.45-6.61,23.15-9.96       c6.12-3.81,168.35-104.94,185.34-127.6c13.01-17.35,28.99-57.5,36.13-76.41c-112.86,74.35-228.44,116.4-318.01,139.97       c-91.23,24-168.71,32.65-213.9,35.77C1396.42,1850.67,1451.42,1883.92,1508.01,1914.56z"/>
				</g>
				<g class="st4">
					<path class="st0" d="M1706.86,1878.95c13.2-5.73,26.35-11.55,39.36-17.67c20.68-9.53,41.01-19.78,61.22-30.19       c20.13-10.57,40.04-21.53,59.61-33.02c18.92-11.15,37.82-22.8,55.62-35.11c59.84-74.63,103.02-141.85,128.43-184.55       c-39.58,37.09-80.99,69.01-122.77,96.53c-7.14,18.91-23.12,59.06-36.13,76.41C1875.21,1774.01,1712.99,1875.13,1706.86,1878.95       z"/>
				</g>
				<g class="st4">
					<path class="st0" d="M1370.53,1852.07c19.13,20.83,41.03,39.54,64.03,56.25c23.07,2.51,46.35,4.57,69.6,6.04       c1.28,0.08,2.57,0.13,3.85,0.21c-56.59-30.65-111.58-63.89-111.58-63.89C1385.99,1851.39,1377.29,1851.82,1370.53,1852.07z"/>
				</g>
				<g class="st4">
					<path class="st0" d="M1617.67,1964.47c-18.93-3.54-57.6-22.15-97.39-43.32c-5.4,0.3-10.8,0.58-16.2,0.82       c-16.04,0.67-32.08,0.98-48.14,1.15c88.54,58.27,185.88,88.3,205.28,93.94c93.06-67.94,171.45-146.88,234.29-221.15       c-7.61,4.12-15.25,8.18-22.96,12.17c-20.37,10.47-40.99,20.38-61.78,29.86c-5.95,2.65-11.92,5.23-17.88,7.84       c-4.22,5.51-9.69,12.24-15.65,18.44C1764.13,1877.85,1665.44,1973.39,1617.67,1964.47z"/>
				</g>
			</g>
			<g class="st8">
				<path class="st1" d="M1493.79,1869.52c0,0,81.71-7.55,165.6-38.52c83.9-30.97,110.16-38.52,110.16-38.52      s-70.76,54.38-137.88,77.04C1564.55,1892.17,1511.07,1890.47,1493.79,1869.52z"/>
			</g>
			<g class="st8">
				<path class="st1" d="M1593,1929.82l75.91-23.34c0,0-21.36,31.58-37.24,33.5C1619.64,1941.43,1602.97,1943.42,1593,1929.82z"/>
			</g>
			<g>
				<g>
					<path class="st0" d="M1662.72,2041.57c-1.4,0-2.81-0.18-4.19-0.55c-8.52-2.28-209.86-57.39-316.91-185.84       c-4.04-4.84-4.89-11.6-2.19-17.3c2.68-5.66,8.38-9.26,14.64-9.26c0.09,0-0.01,0,0.6,0c7.79,0,113.2-0.73,250.59-37       c130.56-34.47,317.68-109.06,467.71-268.66c5.51-5.86,14.48-6.79,21.08-2.18c6.59,4.61,8.8,13.37,5.18,20.55       c-1.49,2.95-151.93,297.68-427,497.16C1669.43,2040.52,1666.1,2041.57,1662.72,2041.57z M1389.95,1859.8       c92.52,90.73,235.78,137.66,269.63,147.82c168.46-123.97,288.36-283.95,353.6-384.5       c-137.19,112.86-288.99,170.71-400.67,200.08C1514.71,1848.93,1433.99,1857.17,1389.95,1859.8z"/>
				</g>
				<g>
					<path class="st0" d="M1432.58,1899.51c47.63,7.81,95.62,15.21,144.04,16.16c-47.99,9.84-97.13,13.25-146.06,16.16       C1406.6,1931.82,1408.76,1896.55,1432.58,1899.51L1432.58,1899.51z"/>
				</g>
				<g>
					<path class="st0" d="M1937.65,1781.57c-60.75,34.3-123.93,61.16-189.05,85.17c-21.47,7.91-43.17,15.15-64.88,22.17       c41.47-18.89,82.18-39.39,121.85-61.68c38.99-22.18,78.51-46.23,114.24-72.71C1938.44,1741.63,1956.89,1769.41,1937.65,1781.57       L1937.65,1781.57z"/>
				</g>
			</g>
		</g>
	</g>
</g>
</svg>