<svg xmlns="http://www.w3.org/2000/svg" xmlns:xlink="http://www.w3.org/1999/xlink" version="1.1" id="Layer_1" x="0px" y="0px" style="enable-background:new 0 0 3101.93 2621.78;" xml:space="preserve" viewBox="0 0 3101.92 2621.78">
<style type="text/css">
	.st0{fill:#D2623A;}
	.st1{fill:#F9D6B6;}
	.st2{opacity:0.3;}
	.st3{fill:#650000;}
	.st4{opacity:0.6;}
	.st5{fill:#FFFFFF;}
	.st6{fill:#F92B49;}
	.st7{fill:#3A0176;}
	.st8{fill:#F4832F;}
	.st9{opacity:0.2;}
	.st10{fill:#9660EA;}
	.st11{fill:#F44242;}
	.st12{opacity:0.5;}
	.st13{fill:#FF0068;}
	.st14{fill:#8A90B2;}
	.st15{fill:#E84118;}
	.st16{opacity:0.55;}
	.st17{fill:#F7F7F7;}
	.st18{fill:#B0B7E2;}
	.st19{fill:#FD6C18;}
	.st20{opacity:0.57;}
	.st21{fill:#8B5A71;}
	.st22{fill:#FD8619;}
	.st23{fill:#FCA119;}
	.st24{opacity:0.25;}
	.st25{fill:#9DA0C6;}
	.st26{fill:#462B5B;}
	.st27{fill:#00A8FF;}
	.st28{fill:#6B1A4E;}
	.st29{fill:#FF3645;}
	.st30{fill:#7981A3;}
	.st31{opacity:0.35;}
	.st32{fill:#E96F5F;}
	.st33{fill:#C95249;}
	.st34{fill:#FFA1A8;}
	.st35{fill:#FC7C8B;}
	.st36{fill:#FFCA83;}
	.st37{fill:#FFB65F;}
	.st38{fill:#371A45;}
	.st39{fill:#EF2B4C;}
	.st40{fill:#919DB5;}
	.st41{fill:#000070;}
	.st42{fill:#FF5C83;}
	.st43{fill:#111A28;}
	.st44{fill:#0DBBFF;}
	.st45{fill:#FCBB1A;}
	.st46{fill:#122470;}
	.st47{fill:#91A0B5;}
	.st48{fill:#636B87;}
	.st49{fill:#D7D6EA;}
	.st50{fill:#2FB7FB;}
	.st51{fill:#FD7918;}
	.st52{fill:#40C620;}
	.st53{fill:#F973F6;}
	.st54{fill:#E85D18;}
	.st55{fill:#EF354C;}
	.st56{fill:#000072;}
	.st57{fill:#FFD4A9;}
	.st58{fill:#D3D3D3;}
	.st59{fill:#5F5F82;}
	.st60{fill:#FFA9CC;}
	.st61{fill:#F23043;}
	.st62{fill:#B2B2CC;}
	.st63{fill:#777799;}
	.st64{fill:#25E572;}
	.st65{opacity:0.7;}
	.st66{fill:#E2C727;}
	.st67{fill:#EFCECE;}
	.st68{fill:#52B9FF;}
</style>
<g>
	<g>
		<g>
			<g>
				<path class="st45" d="M2532.97,1585.96l-152.31-6.04c72.84-87.73-178.8-115.49-245.92,0l-158.3,1.17      c40.85-72.63,102.04-120.74,169.48-149.24c178.59-75.49,401.15-13.67,407.08,92.13      C2554.16,1543.36,2548.02,1564.18,2532.97,1585.96z"/>
			</g>
			<g>
				<path class="st45" d="M2738.89,2099.26c-6.68,41.27-17.59,80.84-32.74,116.92c-46.46,110.25-157.87,178.91-277.39,174.03      l-339.91-13.93h-175.73l-32.32-379.37l-35.39-415.82h200.84c-0.05-2.17,327.4-0.79,445.17-0.21      c35.39,0.16,70.25,10.54,98.91,31.36C2716.43,1703.73,2768.35,1917.86,2738.89,2099.26z"/>
			</g>
			<g class="st4">
				<path class="st17" d="M2746.58,2018.15c-4.77-146.75-57.96-292.54-156.23-363.85c-28.66-20.77-63.52-31.2-98.91-31.36      c-117.77-0.58-445.22-1.96-445.17,0.21h-197.24l-3.6-42.06h200.84c-0.05-2.17,327.4-0.79,445.17-0.21      c35.39,0.16,70.25,10.54,98.91,31.36C2698,1690.38,2751.56,1857.89,2746.58,2018.15z"/>
			</g>
			<g class="st2">
				<path class="st46" d="M2738.89,2099.26c-6.68,41.27-17.59,80.84-32.74,116.92c-46.46,110.25-157.87,178.91-277.39,174.03      l-339.91-13.93h-175.73l-32.32-379.37l165.5-59.33h125.5c0,0-15.89,303.56,201.32,369.04l56.58,20.08      c0,0,157.29,16.26,232.25-205.82c0,0,13.14,119.68,64.37,0C2730.15,2111.97,2734.34,2104.82,2738.89,2099.26z"/>
			</g>
			<g>
				<path class="st46" d="M2453.51,2344.44c-132.92,0-241.05-156.98-241.05-349.94s108.13-349.94,241.05-349.94      c132.91,0,241.04,156.98,241.04,349.94S2586.42,2344.44,2453.51,2344.44z M2453.51,1676.34      c-115.39,0-209.26,142.72-209.26,318.15s93.88,318.15,209.26,318.15s209.26-142.72,209.26-318.15      S2568.89,1676.34,2453.51,1676.34z"/>
			</g>
			<g class="st2">
				<ellipse class="st46" cx="2453.5" cy="1994.49" rx="225.16" ry="334.05"/>
			</g>
			<g>
				<path class="st46" d="M2440.63,2406.35c-4.17,0-8.33-0.09-12.52-0.26l-339.6-13.89h-175.38c-8.26,0-15.14-6.32-15.83-14.55      l-67.68-795.24c-0.38-4.43,1.12-8.82,4.13-12.1c3.01-3.28,7.26-5.14,11.7-5.14h200.73c7.91-0.8,22.84-0.87,53.96-1.03      c29.75-0.14,71.98-0.18,125.51-0.1c96.32,0.15,207.9,0.64,265.84,0.92c40.05,0.2,77.47,12.09,108.2,34.41      c76.46,55.5,130.79,155.37,152.96,281.22c21.01,119.21,9.4,243.77-31.86,341.75      C2673.94,2333.63,2562.41,2406.34,2440.63,2406.35z M1927.73,2360.41h161.11c0.21,0,0.43,0,0.65,0.01l339.92,13.91      c113.55,4.58,218.75-61.4,262.09-164.32c75.28-178.76,43.42-473.21-110.48-584.92c-25.32-18.38-56.33-28.18-89.69-28.34      c-256.67-1.24-424.94-1.27-441.86-0.12c-1.04,0.21-2.12,0.33-3.21,0.33h-183.52L1927.73,2360.41z M2062.16,1580.82      c0.06,4.26-1.58,8.36-4.57,11.4c-1.96,1.99-4.39,3.41-7.03,4.16C2056.54,1594.85,2062.29,1588.94,2062.16,1580.82z"/>
			</g>
			<g>
				<path class="st46" d="M2532.95,1601.83c-3.12,0-6.26-0.91-9.02-2.82c-7.22-4.99-9.03-14.89-4.04-22.11      c19.02-27.54,22.44-53.68,10.15-77.67c-24.62-48.05-109.48-82.92-206.37-84.8c-134.99-2.58-251.95,53.18-318.52,150.53      l120.78-0.87c39.21-57.77,120.4-80.01,185.76-76.22c48.13,2.81,83.38,19.49,94.29,44.62c5.43,12.51,7.57,32.66-13.11,57.55      c-5.61,6.75-15.62,7.68-22.38,2.07c-6.75-5.61-7.68-15.63-2.07-22.38c8.32-10,11.14-18.28,8.4-24.58      c-4.64-10.69-27.58-23.24-66.99-25.55c-56.73-3.26-131.35,16.66-161.36,68.3c-2.82,4.86-8,7.87-13.63,7.91l-158.29,1.14      c-0.03,0-0.07,0-0.11,0c-5.62,0-10.83-2.97-13.69-7.82c-2.88-4.88-2.94-10.92-0.16-15.86      c68.85-122.42,204.04-193.69,361.68-190.62c109.79,2.13,203.84,43.16,234.03,102.09c12.41,24.21,20.34,62.98-12.29,110.22      C2542.96,1599.43,2538,1601.83,2532.95,1601.83z"/>
			</g>
			<g>
				<g>
					<path class="st47" d="M1811.47,2417.6c-11.71,6.41-25.06,9.27-38.36,9.27h-170.8c-8.64,0-17.27-1.27-25.48-3.92       c-3.18-1.01-6.25-2.17-9.27-3.6c-40-18.75-73.59-43.34-95.04-79.04h-35.28c6.73,52.02-35.6,76.98-129.74,73.37       c-10.01-0.37-19.97-1.64-29.72-3.87c-59.12-13.4-129.58-15.73-209.58-8.95c-25.22,2.17-50.7-0.64-74.49-9.22       c-42.59-15.31-72.16-40.63-61.56-96.37c-213.82-102.19-245.45-484.75-11.02-717.85c136.42-132.44,270.5-123.6,299.32-220.81       l383.14,21.93l430.6,24.63c3.44,27.81,6.15,55.15,8.05,82.01c23.47,318.03-54.83,571.37-253.92,748.05       c-3.18,2.86-6.41,5.67-9.69,8.48c-3.66,3.18-7.42,6.3-11.18,9.43C1829.58,2266.67,1882.51,2378.4,1811.47,2417.6z"/>
				</g>
				<g>
					<path class="st47" d="M921.39,2289.82c-209.37,171.86-730.25,35.71-541.33-457.15c18.33-47.84,27.5-98.86,26.54-150.09       c-1.54-82.54-27.55-141.77-84.98-171.12c-37.08-18.91-87.36-25.43-152.63-17.64c-96,11.44-173.87-81.06-144.1-173.02       c11.71-36.08,35.5-71.2,74.17-98.54c27.6-19.5,59.39-31.73,92.55-37.35c11.13-1.91,22.41-3.07,33.75-3.5       c77.24-2.91,147.33,8.05,207.83,32.05c209.21,82.86,304.09,320.83,185.47,674.57c-32,98.91-1.59,190.93,70.14,216.41       c25.11,8.95,55.31,9.75,89.64-0.21L921.39,2289.82z"/>
				</g>
				<g>
					<path class="st5" d="M1296.75,1999.5l67.62-28.25c10.01,96.64,33.9,196.68,68.26,299.3l-146.21-37.3       C1286.41,2233.24,1320.31,2052.44,1296.75,1999.5z"/>
				</g>
				<g>
					<path class="st47" d="M2012.46,2418.45c0,0-139.07,14.14-167.04-35.97c0,0-3.07-1.59-7.79-4.08       c-15.63-8.26-49.48-26.81-49.27-31.89c0.26-6.62-10.33-127.15-10.33-127.15l0.58-1.17l135.84-269.34l124.39-222.08l6.46,450.95       l1.01,68.77c34.59,15.15,61.61,42.59,71.2,71.31C2131.88,2360.65,2107.61,2406.32,2012.46,2418.45z"/>
				</g>
				<g>
					<path class="st5" d="M2012.46,2418.45c0,0-139.07,14.14-167.04-35.97c0,0-57.32-29.35-57.06-35.97       c0.26-6.62-10.33-127.15-10.33-127.15l0.58-1.17l62.04-36.13c115.6-49.8,194.96-9.7,204.65-4.34l1.01,68.77       C2132.56,2284.26,2171.4,2398.16,2012.46,2418.45z"/>
				</g>
				<g>
					<path class="st48" d="M2040.67,2003.48c-42.68,15.28-85.17,41.72-127.54,75.54c41.75,18.33,81.25,32.68,117.88,41.88       L2040.67,2003.48z"/>
				</g>
				<g>
					<path class="st48" d="M575.41,1313.47c0,0-123.26,8.94-160.53,162.98c-3.95,16.31,12.83,30.02,27.8,22.44       c42.14-21.3,118.57-48.74,211.29-31.64L575.41,1313.47z"/>
				</g>
				<g>
					<path class="st48" d="M662.86,1613.18c0,0-134.69,8.15-211.09,97.42c-7.49,8.75-5.84,22.14,3.58,28.76       c31.53,22.16,106.38,63.5,198.63,37.63L662.86,1613.18z"/>
				</g>
				<g>
					<path class="st48" d="M607.65,1937.59c0,0-93.9,37.3-189.65,35.85c-15.64-0.24-25.31,17.11-16.8,30.23       c28,43.12,95.15,105.37,227.22,27.62L607.65,1937.59z"/>
				</g>
				<g>
					<path class="st48" d="M641.66,2079.02c0,0-49.06,87.56,8.58,195.84c6.18,11.62,22,13.76,31.23,4.38       c26.15-26.56,70.27-82.88,67.46-158.35L641.66,2079.02z"/>
				</g>
				<g class="st4">
					<path class="st17" d="M739.83,2111.13c0,0-2.17,3.44-5.77,9.59c-31.15,7.73-58.75,6.41-81.96-1.85       c-71.73-25.48-102.14-117.5-70.14-216.41c118.62-353.73,23.73-591.71-185.48-674.57c-60.5-24-130.59-34.97-207.83-32.05       c-11.34,0.42-22.62,1.59-33.75,3.5c-9.59,1.64-19.07,3.81-28.34,6.52c20.45-10.17,42.44-17.11,65.06-20.93       c11.13-1.91,22.41-3.07,33.75-3.5c77.24-2.91,147.33,8.05,207.83,32.05c209.21,82.86,304.09,320.83,185.47,674.57       c-32,98.91-1.59,190.93,70.14,216.41C704.02,2109.86,721.08,2112.29,739.83,2111.13z"/>
				</g>
				<g>
					<path class="st5" d="M433.2,1213.47v0.05c0,0-225,37.77-111.57,297.95c-37.08-18.91-87.36-25.43-152.63-17.64       c-96,11.44-173.87-81.06-144.1-173.02c11.71-36.08,35.5-71.2,74.17-98.54c36.87-26.07,81.16-39.1,126.3-40.85       C302.61,1178.51,372.7,1189.47,433.2,1213.47z"/>
				</g>
				<g>
					<path class="st5" d="M1437.23,2340.31c6.73,52.02-35.6,76.98-129.74,73.37c-10.01-0.37-19.97-1.64-29.72-3.87       c-59.12-13.4-129.58-15.73-209.58-8.95c-25.22,2.17-50.7-0.64-74.49-9.22c-35.6-158.77,275.75-148.44,275.75-148.44       s146.17,0,171.07,97.11H1437.23z"/>
				</g>
				<g>
					<path class="st5" d="M1811.47,2417.6c-11.71,6.41-25.06,9.27-38.36,9.27h-170.8c-11.97,0-23.89-2.44-34.75-7.52       c-40-18.75-73.59-43.34-95.04-79.04h-22.83v-35.02c31.89-153.32,299.22-126.19,299.75-123.49c0,0,4.08,28.87,29.19,59.92       c-3.66,3.18-7.42,6.3-11.18,9.43C1829.58,2266.67,1882.51,2378.4,1811.47,2417.6z"/>
				</g>
				<g>
					<path class="st48" d="M1350.72,1891.74c-0.25-2.98,173.64-43.17,266.47,18.54c8.05,5.35,6.92,17.52-2.02,21.23       c-44.68,18.54-159.25,65.01-244.18,90.07L1350.72,1891.74z"/>
				</g>
				<g>
					<path class="st5" d="M1788.31,2233.24c-106.17-64.85-63.2-440.4-63.2-440.4s21.14-38.78,105.9-227.75       c84.08-187.38,209.16-81.64,211.22-79.89C2065.71,1803.22,1987.41,2056.56,1788.31,2233.24z"/>
				</g>
				<g>
					<path class="st48" d="M1377.94,2079.02c5.77-0.85,135.87-30.55,241.16-21.97c10.78,0.88,14.91,14.56,6.44,21.3       c-42.96,34.23-141.45,107.46-223.3,129.54L1377.94,2079.02z"/>
				</g>
				<g>
					<path class="st48" d="M1173.07,1419.25c0,0,81.22,160.8,216.37,216.15c11.49,4.7,23.05-6.65,18.37-18.15       c-9.57-23.52-22.68-59.83-32.41-102.49c-17.22-75.49-30.02-121.64-30.02-121.64l-113.02-45.24L1173.07,1419.25z"/>
				</g>
				<g>
					<path class="st48" d="M1128.66,1445.12c0,0-0.74,170.51,75.88,284.88c8.66,12.93-3.64,29.42-18.44,24.61       c-67.15-21.84-183.65-80.73-202.49-229.19L1128.66,1445.12z"/>
				</g>
				<g>
					<path class="st48" d="M921.15,1577.45c0,0,26.46,200.87,154.93,273.72l-63.57,24.97c0,0-160.26,2.47-202.64-140.38       L921.15,1577.45z"/>
				</g>
				<g>
					<path class="st48" d="M763.44,1891.74c0.2-1.46,81.33,79.17,208.79,113.62c17.25,4.66,22.05,27.03,7.97,38.04       c-37.81,29.58-108.3,66.76-200.8,35.61L763.44,1891.74z"/>
				</g>
				<g class="st2">
					<path class="st46" d="M1437.81,2346.77c2.44,47.63-40.21,70.35-130.33,66.91c-10.01-0.37-19.97-1.64-29.72-3.87       c-59.12-13.4-129.58-15.73-209.58-8.95c-25.22,2.17-50.7-0.64-74.49-9.22c-42.59-15.31-72.16-40.63-61.56-96.37       c-213.82-102.19-245.45-484.75-11.02-717.85c136.42-132.44,270.5-123.6,299.32-220.81l383.14,21.93l142.09,46.25       c0,0-155.7,137.64-428.54,119.09c0,0-229.92,111.04-187.81,315.11c0,0-88.1-3.5-140.87,32.74c0,0-109.29,268.28,87.63,341.65       c0,0-91.39,45.99-31.79,92.82c56.42,44.29,331.22,38.57,335.56-48.9C1397.87,2294.75,1420.7,2319.44,1437.81,2346.77z"/>
				</g>
				<g>
					<path class="st48" d="M1204.55,1876.14c0,0-100.36,37.78-123.68,143.73c-3.82,17.35,13.51,31.94,29.8,24.86       c38.55-16.77,106.53-36.34,189.59-17.67L1204.55,1876.14z"/>
				</g>
				<g>
					<path class="st48" d="M1300.26,2106.78c-7.19,0-109.87-18.95-194.88,47c-15.65,12.14-8.49,37.23,11.24,38.99       c44.3,3.96,109.34,14.06,152.83,39.83L1300.26,2106.78z"/>
				</g>
				<g>
					<g>
						<path class="st47" d="M1901.54,135.77c365.83-235.37,427.46-116.72,347.96,357.3"/>
					</g>
					<g class="st4">
						<path class="st17" d="M2279.84,228.51c-5.46-201.58-104.1-224.15-354.37-68.18l-23.95-24.58        C2185.65-46.98,2286.25-16.3,2279.84,228.51z"/>
					</g>
					<g>
						<path class="st47" d="M2359.26,1040.55c-2.12,114.01-43.87,250-210.9,326.98c-48.42,22.3-100.5,35.76-153.53,41.22        c-311.77,32.05-601.3,21.09-795.99-60.77c-131.49-55.26-224.04-174.19-249.79-314.48c-46.41-252.6,43.18-492.64,43.18-492.64        c-158.88-477.81-63.15-660.47,407.03-408.83c425.84-129.27,799.96,50.33,903.27,532.43c0,0,8.79,89.43,30.41,186.85v0.11        c2.12,9.43,4.34,18.97,6.68,28.5C2348.34,915.42,2360.53,974.28,2359.26,1040.55z"/>
					</g>
					<g>
						<path class="st48" d="M1411.14,128.53c-45.07,19.97-84.12,41.7-115.2,65.75c121.33,39.91,222.7,118.34,311.47,221.1        c11.87,13.74,34.43,5.33,34.3-12.83c-0.9-120.85-33.5-225.73-132.11-297.34L1411.14,128.53z"/>
					</g>
					<g>
						<path class="st48" d="M1875.52,445.88c-5.46,25.96-40.26,30.83-52.5,7.31c-71.57-138.01-148.44-260.44-237.02-347.96        c79.38-23.63,171.59-13,270.19,14.67C1895.65,251.87,1894.43,355.13,1875.52,445.88z"/>
					</g>
					<g>
						<path class="st48" d="M1921.11,143.88c-0.03,7.37,50.37,109.89,58.47,248.9c1.13,19.31,24.03,29.3,38.35,16.31        c26.26-23.83,55.17-73.76,45.56-176.75L1921.11,143.88z"/>
					</g>
					<g class="st4">
						<path class="st17" d="M2341.24,1157.26c20.13-97.21,1.27-192.1-10.91-241.58c-26.49-107.76-37.08-215.46-37.08-215.46        c-103.31-482.1-477.44-661.69-903.27-532.43C1116.24,21.26,969.44,22,925.89,142.47c27.18-154.91,174.72-170.27,473.36-10.44        c425.84-129.27,799.96,50.33,903.27,532.43c0,0,10.6,107.7,37.08,215.46C2353.27,935.44,2375.36,1048.29,2341.24,1157.26z"/>
					</g>
					<g>
						<path class="st49" d="M2032.65,208.06c177.69-177.8,202.32-95.89,154.38,165.74"/>
					</g>
					<g class="st2">
						<path class="st46" d="M2187.03,373.77l-38.46-41.32c16.9-145.74-9.32-194-107.81-115.7l-8.11-8.69        C2210.34,30.27,2234.97,112.17,2187.03,373.77z"/>
					</g>
					<g>
						<path class="st48" d="M949.74,712.7c0,0,73.99,70.43,239.98,102.71c19.63,3.82,26.58,28.54,11.53,41.72        c-40.15,35.16-122.34,81.95-264.74,63L949.74,712.7z"/>
					</g>
					<g>
						<path class="st48" d="M950.55,1041.27c0,0,91.64,38.52,222.83,9.46c13.45-2.98,23.41,12.23,15.4,23.45        c-28.33,39.67-86.54,104.45-178.93,131.98L950.55,1041.27z"/>
					</g>
					<g>
						<path class="st46" d="M1692.46,1443.86c-206.32,0-376.47-26.51-500.81-78.78c-136.11-57.23-233.63-179.94-260.86-328.25        c-43.17-235.1,27.72-455.82,41.81-496.22c-89.38-271.08-93.02-436.41-11.19-505.36c76.65-64.59,220.56-39.47,439.82,76.83        c222.52-65.86,427.1-49.37,592.06,47.82c164.78,97.09,277.98,270.22,327.36,500.67c0.15,0.68,0.25,1.37,0.32,2.07        c0.11,1.06,10.79,107.73,36.64,212.83c59.26,241-12.3,421.73-201.5,508.89c-49.05,22.6-102.68,37.01-159.4,42.84        C1888.39,1438.33,1786.64,1443.86,1692.46,1443.86z M1070.84,37.35c-36.21,0-64.75,8.74-85.54,26.26        C916.76,121.36,925,279.96,1009.8,535c1.33,4.01,1.25,8.36-0.22,12.32c-0.87,2.36-87.19,238.5-42.32,482.81        c24.97,135.97,114.22,248.4,238.76,300.76c175.38,73.74,447.49,94.29,786.89,59.42c52.65-5.41,102.33-18.74,147.67-39.62        c219.52-101.13,219.6-309.43,181.01-466.35c-25.41-103.32-36.19-204.84-37.42-216.99        c-47.26-219.53-154.34-383.94-309.71-475.48C1816.86,99,1619.8,84.45,1404.63,149.78c-4.71,1.44-9.79,0.93-14.14-1.39        C1252.33,74.45,1145.39,37.35,1070.84,37.35z"/>
					</g>
					<g>
						<path class="st46" d="M2249.52,511.62c-1.02,0-2.05-0.08-3.09-0.26c-10.1-1.69-16.91-11.25-15.22-21.35        c30.29-180.62,55.81-394.03-16.35-441.58c-47.64-31.39-146.84,2.29-303.28,102.94c-8.63,5.54-20.09,3.05-25.63-5.56        c-5.54-8.61-3.05-20.09,5.56-25.63C2066.34,7.69,2172.35-24.01,2235.26,17.45c73.1,48.17,82.22,182.38,32.52,478.68        C2266.26,505.2,2258.41,511.62,2249.52,511.62z"/>
					</g>
					<g>
						<path class="st46" d="M2187.05,392.34c-1.11,0-2.23-0.1-3.36-0.31c-10.07-1.85-16.74-11.51-14.9-21.58        c35.02-191.12,19.01-230.8,6.35-237.44c-6.36-3.32-34.44-6.84-129.37,88.15c-7.25,7.25-18.98,7.24-26.22,0.01        c-7.25-7.24-7.25-18.98-0.01-26.22c85.22-85.28,136.91-113.63,172.83-94.77c41.79,21.92,45.41,99.58,12.9,276.97        C2203.63,386.08,2195.82,392.34,2187.05,392.34z"/>
					</g>
					<g>
						<ellipse class="st5" cx="1853.97" cy="1056.94" rx="165.11" ry="131.12"/>
					</g>
					<g>
						<path class="st49" d="M1232.37,212.39c-70.01,70.23-123.69,152.63-166.88,242.81c-27.39-93.14-46.98-186-43.76-278.03        c1.18-33.63,34.29-56.64,66.22-46.02C1130.43,145.28,1187.47,170.38,1232.37,212.39z"/>
					</g>
					<g class="st2">
						<path class="st46" d="M1232.37,212.4c-19.65,19.71-38.04,40.42-55.2,61.98c-40.05-30.3-85.29-49.59-120.58-61.29        c-12.08-4.03-24.32-3.23-34.97,1.11c-0.37-12.34-0.32-24.69,0.11-37.03c1.17-33.64,34.28-56.63,66.22-46.04        C1130.44,145.28,1187.49,170.39,1232.37,212.4z"/>
					</g>
					<g>
						<path class="st46" d="M1065.49,473.74c-0.49,0-0.99-0.02-1.49-0.06c-7.65-0.62-14.14-5.88-16.3-13.25        c-33.65-114.42-47.37-201.98-44.51-283.91c0.77-21.93,11.53-41.68,29.52-54.18c18-12.51,40.27-15.71,61.08-8.79        c42.51,14.14,103.27,40.42,151.24,85.29c3.67,3.43,5.79,8.2,5.87,13.22s-1.87,9.86-5.41,13.42        c-64.02,64.22-117.43,141.98-163.29,237.73C1079.11,469.68,1072.58,473.74,1065.49,473.74z M1071.95,147.08        c-6.38,0-12.64,1.94-18.07,5.71c-8.31,5.77-13.27,14.9-13.63,25.03c-2.33,66.65,7.08,137.83,30.25,226.31        c39.24-73.7,83.7-136.5,134.92-190.62c-40.54-32.89-88.53-53.19-123.34-64.77C1078.75,147.63,1075.33,147.08,1071.95,147.08z"/>
					</g>
					<g>
						<path class="st46" d="M1907.45,933.59c-21.22-15.07-72.22-20.03-96.2-1.48c-6.98,5.4-8.33,15.57-3.06,22.65        c10.89,14.59,23.91,26.35,38.9,33.36c7.43,3.47,15.81,4.73,23.84,3.04c20.54-4.33,33.89-18.75,42.14-37.74        C1916.14,946.35,1913.72,938.05,1907.45,933.59z"/>
					</g>
					<g>
						<path class="st46" d="M1765.22,993.44c-13.26,58.22,45.53,79.24,81.94,38.03c5.71-7.31,16.51-9.04,23.27-2.16        c10.94,12.21,22.49,22.02,38.13,23.21c27.14,0.9,48.87-26.35,46.41-53.49c-0.57-6.16,8.29-8.07,10.35-2.28        c10.69,28.76-3.73,63.53-31.42,78.31c-30.17,17.51-69.39,4.36-86.83-24.12c0,0,25.13,0.12,25.13,0.12        c-4.77,7.03-11.19,13.04-18.47,17.59c-35.07,23.06-93.27,10.73-103.38-33.55c-3.85-15.96-0.41-31.38,4.73-44.75        c1.05-2.74,4.12-4.1,6.86-3.05C1764.45,988.26,1765.8,990.92,1765.22,993.44L1765.22,993.44z"/>
					</g>
					<g>
						<path class="st46" d="M1859.7,1057.16c-0.74,0-1.49-0.05-2.25-0.16c-8.49-1.2-14.45-8.89-13.58-17.34        c0.21-4.14,0.13-32.48-0.08-57.86c-0.07-8.78,6.98-15.95,15.76-16.03c0.04,0,0.09,0,0.14,0c8.72,0,15.82,7.03,15.89,15.76        c0.48,57.48,0.03,60.62-0.16,61.96C1874.3,1051.43,1867.49,1057.16,1859.7,1057.16z"/>
					</g>
					<g>
						<ellipse class="st46" cx="1521.23" cy="847.99" rx="119.02" ry="150.97"/>
					</g>
					<g>
						
							<ellipse transform="matrix(0.0829 -0.9966 0.9966 0.0829 617.9304 2311.5662)" class="st17" cx="1564.88" cy="820.05" rx="60.72" ry="39.13"/>
					</g>
					<g class="st31">
						
							<ellipse transform="matrix(0.9747 -0.2236 0.2236 0.9747 -162.6863 352.247)" class="st17" cx="1474.35" cy="894.63" rx="32.61" ry="50.61"/>
					</g>
					<g>
						<ellipse class="st46" cx="2112.27" cy="838.11" rx="111.23" ry="141.09"/>
					</g>
					<g>
						
							<ellipse transform="matrix(0.9966 -0.0829 0.0829 0.9966 -60.1827 174.5148)" class="st17" cx="2071.48" cy="812" rx="36.57" ry="56.75"/>
					</g>
					<g class="st31">
						
							<ellipse transform="matrix(0.2236 -0.9747 0.9747 0.2236 814.6935 2786.0938)" class="st17" cx="2156.08" cy="881.69" rx="47.29" ry="30.48"/>
					</g>
					<g>
						<path class="st46" d="M1062.23,897.95c-52.72-29.12-114.18-42.22-174.44-38.56c-62.22,3.8-122.14,28.65-171.95,66.42        c46.93-43.42,105.94-74.62,169.79-84.84c65.04-10.43,133.76-2.2,194.35,24.41C1102.82,877.38,1084.77,910.68,1062.23,897.95        L1062.23,897.95z"/>
					</g>
					<g>
						<path class="st46" d="M1034.25,1098.76c-13.56-1.82-28.52,2.55-41.25,7.96c-29.3,14.16-52.5,40.04-68.89,68.96        c0,0-8.57,14.98-8.57,14.98c-3.25,7.19-9.48,20.59-12.7,27.7c-3.86,11.31-9.88,25.83-13.17,37.24c0,0-9.6,34.01-9.6,34.01        l5.1-35.1c1.35-10.04,5.37-24.74,7.36-34.89c0.41-2.23,1.55-6.52,2.28-8.66c1.64-5.3,6.25-20.28,7.96-25.81        c4.24-9.74,9.27-24.29,14.53-33.37c20.98-43.9,63.02-85.92,114.47-89.82C1060.65,1058.05,1063.3,1099.78,1034.25,1098.76        L1034.25,1098.76z"/>
					</g>
					<g>
						<path class="st46" d="M2330.18,923.68c-0.66-3.95-0.12-8.93,1.76-12.48c1.89-3.63,3.57-5.62,5.96-7.91        c30.88-25.27,71.89-35.86,110.68-39.31c39.21-2.89,78.85,5.32,113.53,22.92c-18.27-5.68-37.03-9.17-55.72-9.89        c-49.75-1.76-106.89,15.2-142.03,51c0,0-0.23,0.33-0.23,0.33l0.13,0c0.08-0.07-0.06,0.27,0.83-1.08c0.28-0.42,0.71-1.5,0.9-2        c1.03-2.63,1.25-5.97,0.61-8.68C2370.54,940.77,2335.61,947.59,2330.18,923.68L2330.18,923.68z"/>
					</g>
					<g>
						<path class="st46" d="M2356.75,1061.83c59.07-2,120.23,25.88,152.65,75.73c10.42,15.81,18.14,32.92,23.57,50.5        c-29.8-62.07-91.02-98.89-159.69-91.3c-3.5,0.37-8.28,0.98-11.32,1.79C2334.1,1105.31,2328,1063.32,2356.75,1061.83        L2356.75,1061.83z"/>
					</g>
					<g class="st2">
						<path class="st46" d="M2366.53,1034.56c-2.12,114.01-43.87,250-210.9,326.98c-48.42,22.3-100.5,35.76-153.53,41.22        c-311.77,32.05-601.3,21.09-795.99-60.77c-131.49-55.26-224.04-174.19-249.79-314.48c-46.41-252.6,43.18-492.64,43.18-492.64        l145.42-212.71C965.48,1035.25,1867.16,1679.2,2340.2,845.33v0.11L2366.53,1034.56z"/>
					</g>
				</g>
				<g class="st4">
					<path class="st17" d="M991.14,1889.97c221.43-36.06,310.98,78.05,267.72,343.43C1350.72,1961.35,1224.41,1798.3,991.14,1889.97       z"/>
				</g>
				<g>
					<path class="st46" d="M1773.09,2445.4H1602.3c-14.94,0-29.67-3.2-42.61-9.26c-43.83-20.52-75.76-45.87-97.27-77.27h-6.33       c-1.48,15.46-7.31,28.82-17.42,39.9c-22.84,25.02-65.93,35.94-131.87,33.46c-11.2-0.43-22.34-1.88-33.14-4.33       c-55.11-12.49-123.7-15.37-203.91-8.55c-28.94,2.46-56.66-0.99-82.34-10.24c-20.9-7.53-82.06-29.56-75.44-103.3       c-85.57-46.35-145.49-138.5-165.32-255.16c-29.23-171.94,32.63-358.3,161.43-486.36c66.55-64.63,132.49-96.73,185.46-122.52       c55.86-27.2,96.23-46.85,109.15-90.42c2.91-9.82,13.25-15.42,23.05-12.51c9.82,2.91,15.42,13.23,12.51,23.05       c-17.56,59.23-68.96,84.25-128.47,113.22c-50.6,24.63-113.57,55.29-175.71,115.63c-120.23,119.54-178.1,293.44-150.86,453.69       c18.71,110.07,75.91,195.41,156.94,234.13c7.6,3.63,11.8,11.92,10.22,20.19c-7.37,38.79,6.53,59.95,49.6,75.46       c20.62,7.43,43.04,10.2,66.64,8.18c83.98-7.14,156.41-3.99,215.23,9.34c8.57,1.94,17.44,3.1,26.36,3.44       c66.73,2.59,92.88-10.23,103.07-21.4c4.36-4.77,9.87-13.18,7.55-31.05c-0.69-5.29,0.94-10.62,4.46-14.63s8.59-6.3,13.93-6.3       h35.32c6.51,0,12.54,3.41,15.89,8.98c17.48,29.08,45.94,52.56,86.99,71.78c8.05,3.77,17.35,5.77,26.88,5.77h170.79       c10.98,0,21.15-2.41,29.41-6.97c18.89-10.41,26.89-27.76,23.8-51.56c-4.65-35.7-34.25-73.39-63.35-80.65       c-6.79-1.69-12.05-7.07-13.59-13.89c-1.55-6.83,0.87-13.94,6.27-18.39c218.34-180.45,305.87-460.18,260.15-831.39       c-1.25-10.16,5.97-19.42,16.14-20.67c10.12-1.23,19.42,5.97,20.67,16.14c23.25,188.77,13.14,356.23-30.04,497.71       c-41.99,137.6-116.35,254.48-221.22,347.86c31.29,20.75,56.66,59.44,61.74,98.5c5.04,38.73-10.51,71.11-42.67,88.83       C1806.68,2441.39,1790.31,2445.4,1773.09,2445.4z"/>
				</g>
				<g class="st4">
					<path class="st17" d="M1728.06,1726.77c0,0-39.35,55.52-35.3,189.73c4.05,134.21,10.48,243.67,31.1,286.96       c20.62,43.29,35.83,0,35.83,0C1724.64,2042.54,1714.92,1883.71,1728.06,1726.77z"/>
				</g>
				<g>
					<path class="st46" d="M932.24,1923.97c79.58-79.48,218.66-112.3,312.72-38.26c82.92,65.6,87.87,183.01,66.32,278.2       c-5.8,29.32-14.93,57.55-24.37,85.55c0.04,0-19.34-24.76-19.18-24.71c79.31-5.83,173.21,23.47,187.75,112.4       c3.61,24.05-31.16,30.7-36.47,6.71c-10.28-68.18-89-86.19-147.8-82.19c-13.12,1.32-23.69-12.39-19.21-24.71       c8.95-26.61,17.63-53.39,23-80.69c16.54-76.8,14.73-167.59-39.36-229.08c-52.7-61.19-150.23-67.03-223.2-36.52       c-26.08,9.93-50.56,24.31-73.28,41.34C934.11,1935.94,927.49,1928.61,932.24,1923.97L932.24,1923.97z"/>
				</g>
				<g>
					<path class="st46" d="M1733.87,1719.11c1.6,122.1,5.98,244.46,20.65,365.66c7.11,53.68,16.33,109.04,30.55,160.64       c2.95,9.94-2.86,20.43-12.87,23.16c-9.41,2.58-19.15-2.63-22.39-11.67c-19.27-54.28-28.59-111.16-34.88-167.64       c-7.6-78.13-8.21-158.27-4.08-236.63c2.37-44.93,6.21-89.66,12.45-134.29C1724.22,1712.1,1733.86,1712.38,1733.87,1719.11       L1733.87,1719.11z"/>
				</g>
				<g>
					<path class="st46" d="M1350.68,1806.87c8.02,93.56,21.73,187.2,42.39,278.69c15.67,67.42,36.14,134.55,66.72,196.54       c10.11,20.22,21.29,39.7,34.31,57.38c6.21,8.23,4.5,19.98-3.81,26.09c-7.91,5.83-18.96,4.4-25.21-3.01       c-83.73-101.85-107.87-284.18-119.4-412.91c-3.85-47.45-5.95-94.85-5.59-142.49       C1340.26,1800.8,1350.02,1799.88,1350.68,1806.87L1350.68,1806.87z"/>
				</g>
				<g>
					<path class="st46" d="M1773.3,2269.07c-44.09-12.78-92.85-9.24-135.06,8.85c-17.37,7.63-34.05,18.05-48.68,30.1       c-6.89,5.15-14.94,14.04-21.39,19.85c-2.14,2.53-6.26-0.65-4.1-3.36c12.22-15.81,25.41-31.69,41.25-44       c6.48-5.88,17.53-13.11,24.97-17.87c6.27-3.96,13.89-7.42,20.46-11.01c0,0,7.18-2.96,7.18-2.96       c39.26-16.59,83.97-22.38,126.2-15.17C1810.17,2240.23,1798.74,2278.02,1773.3,2269.07L1773.3,2269.07z"/>
				</g>
				<g>
					<path class="st46" d="M1277.41,2323.91c32.59,14.16,37.08,51.86,27.17,82.54c-6.9,24.11-42.2,15.21-36.8-9.31       c0.98-4.94,5.95-10.09,8.77-14.04c4.45-6.8,8.17-14.3,9.32-22.45c1.53-11.33-2.83-23.79-11.13-32.16       C1272.34,2326.59,1274.59,2322.69,1277.41,2323.91L1277.41,2323.91z"/>
				</g>
				<g>
					<path class="st46" d="M1673.42,2344.22c32.58,14.16,37.08,51.87,27.17,82.54c-6.89,24.11-42.2,15.21-36.8-9.31       c0.98-4.94,5.96-10.09,8.77-14.04c4.45-6.81,8.16-14.31,9.32-22.46c1.53-11.33-2.83-23.79-11.13-32.16       C1668.33,2346.96,1670.66,2342.96,1673.42,2344.22L1673.42,2344.22z"/>
				</g>
				<g>
					<path class="st46" d="M1769.03,2338.04c32.58,14.16,37.08,51.86,27.17,82.54c-6.9,24.12-42.2,15.21-36.8-9.31       c0.98-4.94,5.95-10.09,8.77-14.04c4.45-6.8,8.17-14.31,9.32-22.45c1.53-11.33-2.83-23.79-11.13-32.16       C1763.94,2340.78,1766.27,2336.78,1769.03,2338.04L1769.03,2338.04z"/>
				</g>
				<g>
					<path class="st46" d="M1957.12,2333.24c32.59,14.16,37.08,51.86,27.17,82.54c-6.9,24.11-42.2,15.21-36.8-9.31       c0.98-4.94,5.95-10.09,8.77-14.04c4.45-6.8,8.17-14.31,9.32-22.45c1.53-11.33-2.83-23.79-11.13-32.16       C1952.05,2335.92,1954.3,2332.02,1957.12,2333.24L1957.12,2333.24z"/>
				</g>
				<g>
					<path class="st46" d="M2041.62,2321.7c34.43,8.75,44.92,45.24,40.06,77.11c-2.93,24.91-39.21,21.79-37.81-3.28       c0.17-5.03,4.26-10.92,6.4-15.27c3.3-7.43,5.77-15.43,5.59-23.66c-0.31-11.43-6.61-23.03-16.15-29.96       C2037.05,2325.16,2038.65,2320.94,2041.62,2321.7L2041.62,2321.7z"/>
				</g>
				<g>
					<path class="st46" d="M1365.82,2315.6c29.87,15.52,42.56,50.92,42.7,83.08c0.47,24.98-35.76,26.8-37.77,1.87       c-0.13-2.6,0.28-5.05,1.1-7.39c4.31-11.83,6.85-24.25,5.91-36.98c-1.15-12.86-6.01-26.36-14.85-36.15       C1360.58,2318.02,1363.06,2314.19,1365.82,2315.6L1365.82,2315.6z"/>
				</g>
				<g>
					<path class="st46" d="M700.92,2379.25c-90.23,0-176.85-26.64-244.03-75.08c-63.6-45.86-106.97-109.79-125.43-184.88       c-21.03-85.55-10.51-184.2,31.27-293.24c17.7-46.19,26.22-94.34,25.33-143.13c-1.16-63.81-17.96-110.3-49.95-138.18       c-35.1-30.6-91.26-41.53-166.91-32.52c-51.92,6.17-102.95-14.46-136.47-55.24c-32.98-40.11-43.24-93.16-27.46-141.9       c13.9-42.94,41.94-80.27,81.09-107.97c38.13-26.97,85.26-42.26,136.28-44.2c164.47-6.26,299.41,49.68,380.17,157.52       c99.65,133.09,110.81,336.76,31.43,573.48c-21.86,67.56-13.08,132.76,22.98,169.97c27.5,28.39,66.97,36.19,114.1,22.57       c9.82-2.85,20.12,2.83,22.96,12.66c2.85,9.84-2.82,20.12-12.66,22.96c-60.29,17.43-113.91,5.93-151.04-32.39       c-45.62-47.09-57.72-126.54-31.57-207.37c75.45-225.01,66.24-416.6-25.89-539.65c-73.22-97.81-197.18-148.47-349.06-142.69       c-43.82,1.67-84.03,14.61-116.28,37.42c-32.56,23.04-55.81,53.85-67.22,89.12c-11.88,36.66-4.09,76.63,20.82,106.92       c25.45,30.96,64.1,46.66,103.45,41.97c86.5-10.3,152.34,3.62,195.67,41.39c40.21,35.06,61.29,90.72,62.66,165.46       c0.98,53.57-8.37,106.42-27.78,157.08c-98.28,256.46,8.7,382.47,81.22,434.76c124.87,90.04,322.27,90.68,431.04,1.39       c7.91-6.5,19.6-5.35,26.09,2.57c6.5,7.92,5.35,19.6-2.57,26.09c-58.72,48.2-140.77,74.88-231.04,75.11       C701.72,2379.25,701.31,2379.25,700.92,2379.25z"/>
				</g>
				<g>
					<path class="st46" d="M1967.99,2439.15c-48.29,0-116.39-7.57-138.74-47.63c-4.99-8.95-1.78-20.24,7.16-25.22       c8.95-4.99,20.23-1.79,25.22,7.16c15.15,27.15,96.23,31.88,148.96,26.57c54.21-6.93,87.84-26.65,91.78-54.03       c4.16-28.86-23.74-65.1-63.5-82.52c-6.66-2.92-11-9.45-11.1-16.71l-7.48-519.7c-0.15-10.24,8.03-18.66,18.27-18.81       c0.09,0,0.19,0,0.27,0c10.12,0,18.39,8.12,18.54,18.27l7.31,508.24c49.73,26.1,80.58,73.57,74.4,116.51       c-3.81,26.52-25.03,72.91-124.27,85.59C2006.91,2437.67,1989.4,2439.15,1967.99,2439.15z"/>
				</g>
				<g>
					<path class="st46" d="M2043.34,2264.79c-35.97-9.64-78.22-12.87-111.24,7.74c-2.48,1.87-5.69-1.75-3.51-3.97       c30.61-32.34,78.42-40.69,121.41-40.34C2078.18,2231.01,2070.73,2272.12,2043.34,2264.79L2043.34,2264.79z"/>
				</g>
				<g class="st2">
					<path class="st46" d="M921.39,2289.82c-209.37,171.86-730.25,35.71-541.33-457.15c18.33-47.84,27.5-98.86,26.54-150.09       c-1.54-82.54-27.55-141.77-84.98-171.12c-37.08-18.91-87.36-25.43-152.63-17.64c-96,11.44-173.87-81.06-144.1-173.02       c11.71-36.08,35.5-71.2,74.17-98.54c27.6-19.5,59.39-31.73,92.55-37.35c-3.76,2.76-156.44,113.48,65.96,184.15       c225.16,71.52,296.73,134.93,255.67,368.2c-41.11,233.26-95.52,458.1,175.57,367.19c25.11,8.95,55.31,9.75,89.64-0.21       C807.12,2196.95,858.47,2252.79,921.39,2289.82z"/>
				</g>
				<g class="st2">
					<path class="st46" d="M1300.26,2119.21c0,0,58.68,17.15,85.88-14.95c0,0-76.95-318.61-21.77-405.05l68.26-52.89       c0,0-8.73,561.04,183.35,634.59c0,0,88.61,142.86,212.75,21.67c0,0,60.31,111.17-83.06,117.73s-168.96,2.61-168.96,2.61       l-72.71-51.4l-91.51-100.96l-136.42-37.14L1300.26,2119.21z"/>
				</g>
				<g class="st2">
					<path class="st46" d="M1716.52,1876.14c0,0,82.23,293.4,259.95,85.21c0,0-82.61,214.57-204.09,272.05       C1772.37,2233.4,1697.38,2072.41,1716.52,1876.14z"/>
				</g>
				<g class="st2">
					<path class="st46" d="M2012.46,2418.45c0,0-139.07,14.14-167.04-35.97c0,0-3.07-1.59-7.79-4.08       c1.75-27.76-2.54-84.45-54.3-140.5l70.57-69.45l72.47-98.33c0,0-48.9,185.85,29.4,187.43c0,0-53.3,129.58,161.74,60.24       C2131.88,2360.65,2107.61,2406.32,2012.46,2418.45z"/>
				</g>
			</g>
			<g>
				<path class="st50" d="M3025.61,2575.69c-17.8,4.19-40,7.63-67.07,10.12c0,0-69.29-4.19-136.84,9.7      c-67.55,13.88-248.09,17.64-347-12.34c-98.91-30.04-205.71-6.2-240.15-36.24c-34.44-29.99,23.84-82.96,83.86-83.86      c0,0-66.86-74.12,51.12-75.28l62.73,2.54l-2.54-63.63c-53.98-10.12-98.33-41.59-133.5-93.29c0,0,79.52,0.21,162.11,13.09      c41,6.36,82.75,15.89,115.92,30.04l12.61,105.32c0,0,76.61-2.54,143.57,9.27c36.18,6.41,67.97,26.33,91.81,54.3      c7.73,9.06,20.77,17.54,42.75,19.39C3010.46,2452.2,3178.29,2540.03,3025.61,2575.69z"/>
			</g>
			<g class="st4">
				<path class="st17" d="M3049.24,2568.91c37.88-40.58-95.73-97.16-214.45-86.88c-21.99-1.85-35.02-10.33-42.75-19.39      c-23.84-27.97-55.63-47.89-91.81-54.3c-66.96-11.81-143.57-9.27-143.57-9.27l-12.61-105.32      c-33.16-14.14-74.91-23.68-115.92-30.04c-44.13-6.89-87.41-10.12-118.14-11.71c-4.77-5.88-9.32-12.08-13.77-18.6      c0,0,79.52,0.21,162.11,13.09c41,6.36,82.75,15.89,115.92,30.04l12.61,105.32c0,0,76.61-2.54,143.57,9.27      c36.18,6.41,67.97,26.33,91.81,54.3c7.73,9.06,20.77,17.54,42.75,19.39C3001.93,2452.94,3158.64,2530.07,3049.24,2568.91z"/>
			</g>
			<g>
				<path class="st46" d="M2678.58,2621.78c-71.95,0-151.97-6.27-208.5-23.43c-46.44-14.1-94.82-15.82-137.5-17.33      c-48.42-1.72-86.67-3.08-108.5-22.1c-14.79-12.9-19.43-30.8-12.72-49.12c9.98-27.24,42.94-50.75,79.67-59.25      c-6.39-12.95-10.79-29.53-3.91-45.21c9.69-22.07,36.61-33.01,82.29-33.45c0.27,0,0.53,0,0.79,0.01l45.5,1.83l-1.37-34.16      c-52.07-13.08-96.18-45.74-131.28-97.24c-3.32-4.87-3.67-11.19-0.91-16.4c2.76-5.2,8.16-8.45,14.04-8.45c0.01,0,0.03,0,0.04,0      c7.4,0.02,182.43,0.97,284.24,44.38c5.23,2.23,8.87,7.08,9.55,12.73l10.89,91.08c25.83-0.06,81.29,0.76,132.27,9.77      c38.18,6.74,74.11,27.92,101.15,59.63c6.6,7.73,16.92,12.36,30.71,13.76c99.73-8.22,231.93,31.2,236.73,84.81      c3.28,36.63-43.09,58.85-141.75,67.94c-0.8,0.07-1.61,0.09-2.42,0.04c-0.67-0.04-68.13-3.88-132.7,9.41      C2794.75,2617.28,2739.56,2621.78,2678.58,2621.78z M2369.33,2403.69c-34.6,0.39-50.12,7.69-53.1,14.41      c-3.89,8.8,7.2,26.71,14.01,34.35c4.14,4.64,5.21,11.29,2.71,16.99c-2.5,5.69-8.08,9.42-14.3,9.52      c-35.75,0.52-70.37,22.5-77.44,41.79c-2.16,5.89-1.06,10.01,3.76,14.22c13.33,11.62,49.96,12.92,88.74,14.29      c42.41,1.5,95.2,3.38,145.6,18.68c98.09,29.78,277.88,24.63,339.18,12c64.62-13.3,129.66-10.6,139.77-10.08      c94.51-8.86,112.28-28.54,111.85-33.34c-1.79-20-96.11-65.26-203.77-55.85c-0.91,0.08-1.83,0.08-2.74,0      c-28.72-2.47-44.93-14.92-53.46-24.93c-22.59-26.48-51.11-43.41-82.5-48.96c-64.5-11.4-139.56-9.08-140.29-9.06      c-0.18,0-0.36,0.01-0.53,0.01c-8.02,0-14.82-5.99-15.78-14l-11.48-96.01c-70.79-27.29-177.03-35.2-230.38-37.49      c29.24,33.33,63.33,53.33,103.47,60.86c7.28,1.36,12.66,7.58,12.95,14.99l2.54,63.62c0.18,4.43-1.5,8.74-4.64,11.88      c-3.13,3.14-7.46,4.85-11.88,4.64L2369.33,2403.69z"/>
			</g>
			<g>
				<path class="st46" d="M2602.56,2384.14l-21.93,58.11c-0.92,2.69-5.15,2.04-5.24-0.77c0,0-4.27-61.97-4.27-61.97      c-0.62-8.96,6.15-16.73,15.11-17.35C2597.79,2361.09,2606.85,2373.44,2602.56,2384.14L2602.56,2384.14z"/>
			</g>
			<g>
				<path class="st46" d="M2323.07,2447.86l50.86,29.44c1.3,0.75,1.74,2.41,0.99,3.71c-0.54,0.93-1.54,1.42-2.54,1.35l-58.62-4.11      c-8.99-0.63-15.76-8.43-15.13-17.41C2299.16,2449.03,2313.06,2441.77,2323.07,2447.86L2323.07,2447.86z"/>
			</g>
			<g class="st2">
				<path class="st46" d="M3025.61,2575.69c-17.8,4.19-40,7.63-67.07,10.12c0,0-69.29-4.19-136.84,9.7      c-67.55,13.88-248.09,17.64-347-12.34c-98.91-30.04-205.71-6.2-240.15-36.24c-34.44-29.99,23.84-82.96,83.86-83.86      c0,0-66.86-74.12,51.12-75.28l62.73,2.54l-2.54-63.63c-53.98-10.12-98.33-41.59-133.5-93.29c0,0,79.52,0.21,162.11,13.09      c0,0-68.39,42.65,17.69,56.1v95.57c0,0-127.15,13.24-60.92,56.95c66.22,43.71,1.32,111.25,271.51,98.01      C2884.42,2543.42,2969.35,2572.77,3025.61,2575.69z"/>
			</g>
			<g class="st2">
				<path class="st46" d="M2532.97,1585.96l-152.31-6.04c72.84-87.73-178.8-115.49-245.92,0l-158.3,1.17      c40.85-72.63,102.04-120.74,169.48-149.24c-14.3,30.78-34.01,85.61,21.51,60.34c75.49-34.38,198.67-62.3,237.08,0      c38.41,62.25,110.3,66.01,148.5,31.79C2554.16,1543.36,2548.02,1564.18,2532.97,1585.96z"/>
			</g>
		</g>
	</g>
</g>
</svg>