<svg xmlns="http://www.w3.org/2000/svg" xmlns:xlink="http://www.w3.org/1999/xlink" version="1.1" id="Layer_1" x="0px" y="0px" style="enable-background:new 0 0 2346.58 3134.47;" xml:space="preserve" viewBox="0 -0.01 2346.58 3134.48">
<style type="text/css">
	.st0{fill:#EDC190;}
	.st1{fill:#FFFFFF;}
	.st2{fill:#008DF6;}
	.st3{fill:#73747F;}
	.st4{opacity:0.25;}
	.st5{fill:#591124;}
	.st6{opacity:0.4;}
	.st7{fill:#AA664F;}
	.st8{fill:#BD6B3E;}
	.st9{fill:none;}
	.st10{fill:#707169;}
	.st11{opacity:0.5;}
	.st12{fill:#FF0068;}
	.st13{fill:#FCC06A;}
	.st14{fill:#000072;}
	.st15{fill:#381A4C;}
	.st16{fill:#F3AE75;}
	.st17{fill:#A16044;}
	.st18{fill:#381D40;}
	.st19{opacity:0.35;}
	.st20{opacity:0.3;}
	.st21{fill:#5F5F82;}
	.st22{fill:#F85189;}
	.st23{fill:#040371;}
	.st24{fill:#5F537B;}
	.st25{fill:#40DB37;}
	.st26{opacity:0.15;}
	.st27{fill:#FAA327;}
	.st28{fill:#FA396E;}
	.st29{fill:#FF6679;}
	.st30{fill:none;stroke:#040371;stroke-width:31.5241;stroke-linecap:round;stroke-linejoin:round;stroke-miterlimit:10;}
	.st31{fill:#F73C69;}
	.st32{fill:#FF8F8F;}
	.st33{fill:#F76D88;}
	.st34{fill:#EF7F25;}
	.st35{fill:#F63C6B;}
	.st36{fill:#FC8026;}
	.st37{opacity:0.2;}
	.st38{fill:#D2623A;}
	.st39{fill:#F9D6B6;}
	.st40{fill:#530505;}
	.st41{fill:#BC462F;}
	.st42{fill:#F4B68C;}
	.st43{fill:#650000;}
	.st44{fill:#FEBE8E;}
	.st45{fill:#CC653A;}
	.st46{fill:none;stroke:#530505;stroke-width:31.9372;stroke-linecap:round;stroke-linejoin:round;stroke-miterlimit:10;}
	.st47{fill:#FECD28;}
	.st48{fill:#26DD5A;}
	.st49{fill:none;stroke:#040371;stroke-width:31.4909;stroke-linecap:round;stroke-linejoin:round;stroke-miterlimit:10;}
	.st50{fill:#FF78A9;}
	.st51{fill:#FF8243;}
	.st52{fill:#BC7455;}
	.st53{fill:#52E867;}
	.st54{fill:#0F177C;}
	.st55{fill:#F70200;}
	.st56{fill:#FFF36D;}
	.st57{fill:#F954BE;}
	.st58{fill:#3AD4FF;}
	.st59{fill:#020772;}
	.st60{fill:#FFD7E4;}
	.st61{fill:#FF2222;}
	.st62{fill:#FFC2E7;}
	.st63{fill:#FFB518;}
	.st64{fill:#8D90A3;}
	.st65{fill:#4E5260;}
	.st66{fill:#F27E80;}
	.st67{fill:#FF5C64;}
	.st68{fill:#4C0B0B;}
	.st69{fill:#E0243F;}
</style>
<g>
	<g>
		<g>
			<g>
				<g>
					<path class="st56" d="M2174.89,1777.13c-31.75,10.57-65.51,16.61-98.75,17.99c-6.26,2.1-43.55,16.43-52.8,63.14       c-1.81,9.13-0.2,16.61,4.93,22.86c15.22,18.54,57.48,22.65,72.49,22.67c5.01,0.01,9.08,4.07,9.07,9.09       c0,5.01-4.06,9.08-9.08,9.08c-2.55,0-62.72-0.33-86.51-29.29c-8.69-10.57-11.62-23.33-8.73-37.93       c5.83-29.43,20.93-48.22,35.29-59.95c-193.58-12.5-286.03-202.89-306.16-250.48c-11.85,7.07-24.45,13.98-37.92,20.64       c-3.36,33.32-18.01,234.2,99.06,374.69c69.54,83.45,180.88,126.95,283.59,110.85c66.16-10.38,115.64-44.87,135.74-94.66       C2261.83,1840.11,2190.85,1787.24,2174.89,1777.13z"/>
				</g>
				<g>
					<path class="st57" d="M2078.83,1631c74.3-15.84,125.18-50.96,151.24-104.39c31.47-64.53,24.29-153.35-19.7-243.69       c-37.24-76.49-94.34-95.76-135.37-88.27c-41.71,7.6-71.3,41.02-75.4,85.13c-2.89,31.2,3.37,55.55,18.61,72.35       c18.63,20.55,46.06,24.52,55.45,25.28c14.45-13.56,43.14-46.73,38.19-72.23c-2.69-13.84-15.43-24.85-37.89-32.7       c-4.74-1.66-7.23-6.84-5.58-11.58c1.66-4.73,6.82-7.23,11.57-5.57c29.01,10.15,45.73,25.77,49.73,46.42       c8.31,43.01-44.5,89.79-46.75,91.76c-0.03,0.03-0.07,0.03-0.1,0.06c-0.04,0.04-0.06,0.09-0.11,0.12       c-40.74,33.51-77.74,44.81-110.01,33.56c-36.04-12.56-56.95-50.35-67.77-77.91c-12.81,37.41-44.63,101.99-121.37,161.62       C1807.91,1543.58,1912.3,1666.49,2078.83,1631z"/>
				</g>
				<g>
					<path class="st58" d="M2265.31,1469.56c-3.04,23.31-9.25,45.2-18.92,65.02c-28.63,58.71-83.73,97.12-163.78,114.19       c-176.53,37.63-286.98-91.41-313.58-126.93c-5.99,4.29-12.3,8.52-18.79,12.72c16.57,40.29,108.42,239.33,305.57,242.7       c117.64,1.93,249.64-58.59,262.68-174.84C2328.57,1512.66,2285.21,1479.78,2265.31,1469.56z"/>
				</g>
				<g class="st6">
					<ellipse class="st1" cx="2158.56" cy="1318.57" rx="7.43" ry="14.2"/>
				</g>
				<g class="st6">
					<path class="st1" d="M2006.96,1283.94c0,0,11.96-60.97,78.78-67.65c66.82-6.68,108.05,38,108.05,38s-18.13-64.79-86.27-69.15       c-68.14-4.35-99.04,33.83-107.39,49.4S1993.33,1291.45,2006.96,1283.94z"/>
				</g>
				<g class="st6">
					<path class="st1" d="M2069.03,1660.2c0,0,57.63,3.76,111.92-20.46s88.95-68.91,95.63-106.49       c6.68-37.58-11.27-63.69-11.27-63.69s-15.46,78.3-71.83,124.24C2137.1,1639.74,2034.37,1641.41,2069.03,1660.2z"/>
				</g>
				<g>
					<path class="st9" d="M1856.6,1438c0,0,143.94,187.95,281.75,87.1c87.39-63.96,96.17-145.75,90.91-197.06       c-5.29-14.93-11.53-30-18.9-45.12c-37.24-76.49-94.34-95.76-135.37-88.27c-41.71,7.6-71.3,41.02-75.4,85.13       c-1.36,14.63-0.62,27.69,2.03,39.23c19.98,7.86,59.04,21.39,69.49,4.18c10.54-17.37,9.8-38.62,8.72-48.43       c-1.91-0.78-3.81-1.56-5.88-2.28c-4.74-1.66-7.23-6.84-5.58-11.58c1.66-4.73,6.82-7.23,11.57-5.57       c29.01,10.15,45.73,25.77,49.73,46.42c8.31,43.01-44.5,89.79-46.75,91.76c-0.03,0.03-0.07,0.03-0.1,0.06       c-0.04,0.04-0.06,0.09-0.11,0.12c-40.74,33.51-77.74,44.81-110.01,33.56c-36.04-12.56-56.95-50.35-67.77-77.91       c-7.61,22.22-22.03,54.05-48.48,88.71C1856.53,1438.04,1856.6,1438,1856.6,1438z M2059.91,1442.13       c22.69-14.17,54.3-38.08,71.66-69.6c29.1-52.84,43.68-16.13-3.54,35.37c-29.62,32.3-46.09,43.7-62.57,47.48       C2057.45,1457.21,2052.95,1446.47,2059.91,1442.13z"/>
				</g>
				<g>
					<path class="st9" d="M2076.14,1795.12c-3.72,1.25-18.39,6.89-31.63,21.01c-0.11,0.52-3.3,16.56,6.56,42.44       c10.02,26.31,59.72,38.42,60.55,40.09c0,0-3.58,2.63-8.37,5.52c3.8,1.09,6.59,4.55,6.59,8.7c0,5.01-4.06,9.08-9.08,9.08       c-2.55,0-62.72-0.33-86.51-29.29c-8.69-10.57-11.62-23.33-8.73-37.93c5.83-29.43,20.93-48.22,35.29-59.95       c-193.58-12.5-286.03-202.89-306.16-250.48c-11.85,7.07-24.45,13.98-37.92,20.64c0,0,25.68,327.03,250.36,389.68       c204.22,56.94,273.17-45.52,279.01-107.3c-11.34-41.14-40.1-62.99-50.46-69.7c-11.69,3.93-23.75,7.01-36.12,9.24       C2118.61,1791.47,2097.28,1794.25,2076.14,1795.12z"/>
				</g>
				<g>
					<path class="st9" d="M2187.63,1684.84c116.21-47.08,126.1-124.32,122.24-164.73c-12.22-29.95-32.6-44.4-44.56-50.55       c-3.04,23.31-9.25,45.2-18.92,65.02c-28.63,58.71-83.73,97.12-163.78,114.19c-91.69,19.54-165.5-5.9-219.05-39.82       c0.05,0.04,0.11,0.09,0.15,0.13C1863.72,1609.07,2024.76,1750.82,2187.63,1684.84z"/>
				</g>
				<g class="st6">
					<path class="st1" d="M2065.45,1455.37c16.48-3.78,32.95-15.18,62.57-47.48c47.22-51.49,32.64-88.21,3.54-35.37       c-17.36,31.52-48.97,55.43-71.66,69.6C2052.95,1446.47,2057.45,1457.21,2065.45,1455.37z"/>
				</g>
				<g class="st4">
					<path class="st59" d="M1947.09,1954.62c-224.67-62.64-250.36-389.68-250.36-389.68c-3.36,33.32-18.01,234.2,99.06,374.69       c69.54,83.45,180.88,126.95,283.59,110.85c66.16-10.38,115.64-44.87,135.74-94.66c18.36-45.49,18.5-81.22,10.98-108.51       C2220.26,1909.09,2151.31,2011.56,1947.09,1954.62z"/>
				</g>
				<g class="st4">
					<path class="st59" d="M2195.47,1769.97c3.9-1.72,7.75-3.55,11.54-5.48c-3.93,1.79-7.89,3.54-11.91,5.17       C2195.22,1769.76,2195.35,1769.87,2195.47,1769.97z"/>
				</g>
				<g class="st4">
					<path class="st59" d="M2318.5,1602.41c4.02-35.8-0.53-62.43-8.63-82.3c3.86,40.41-6.03,117.65-122.24,164.73       c-162.87,65.98-323.9-75.77-323.9-75.77c-0.05-0.04-0.11-0.09-0.15-0.13c-49.55-31.39-81.75-70.04-94.54-87.11       c-5.99,4.29-12.3,8.52-18.79,12.72c16.57,40.29,108.42,239.33,305.57,242.7C2173.45,1779.18,2305.46,1718.66,2318.5,1602.41z"/>
				</g>
				<g class="st4">
					<path class="st59" d="M2139.52,1786.86c12.38-2.22,24.43-5.31,36.12-9.24c-0.25-0.16-0.52-0.34-0.75-0.49       C2163.33,1780.98,2151.49,1784.21,2139.52,1786.86z"/>
				</g>
				<g class="st4">
					<path class="st59" d="M2138.35,1525.11c-137.81,100.85-281.75-87.1-281.75-87.1s-0.07,0.04-0.13,0.06       c-18.08,23.69-41.73,48.7-72.89,72.91c24.33,32.6,128.72,155.51,295.25,120.02c74.3-15.84,125.18-50.96,151.24-104.39       c26.2-53.73,25.52-124.31-0.81-198.57C2234.52,1379.36,2225.74,1461.15,2138.35,1525.11z"/>
				</g>
				<g class="st4">
					<path class="st59" d="M2071.12,1323.19c-10.45,17.21-49.51,3.68-69.49-4.18c3,13.08,8.48,24.19,16.58,33.12       c18.63,20.55,46.06,24.52,55.45,25.28c14.45-13.56,43.14-46.73,38.19-72.23c-2.44-12.56-13.26-22.76-32.01-30.42       C2080.92,1284.57,2081.66,1305.83,2071.12,1323.19z"/>
				</g>
				<g class="st4">
					<path class="st59" d="M2051.07,1858.57c-9.86-25.88-6.67-41.92-6.56-42.44c-9.04,9.64-17.41,23.18-21.16,42.13       c-1.81,9.13-0.2,16.61,4.93,22.86c15.22,18.54,57.48,22.65,72.49,22.67c0.87,0,1.69,0.16,2.48,0.39       c4.8-2.89,8.37-5.52,8.37-5.52C2110.79,1896.99,2061.09,1884.87,2051.07,1858.57z"/>
				</g>
				<g>
					<g>
						<path class="st59" d="M2036.61,2080.38c-97.57,0-196.31-45.78-261.26-123.72c-134.93-161.92-105.76-390.39-104.45-400.04        c0.79-5.82,4.44-10.85,9.72-13.41c28.86-13.99,53.72-29.08,75.13-44.6c1.32-2.04,3.09-3.84,5.28-5.23        c1.42-0.9,2.91-1.58,4.45-2.03c106.35-81.77,120.65-172.56,121.31-177.2c1.2-8.4,8.25-14.77,16.74-15.06        c8.54-0.25,15.96,5.5,17.74,13.79c4.48,20.56,24.05,76.73,60.28,89.29c15.14,5.26,32.7,2.75,52.42-7.43        c-11.93-5.04-24.54-12.75-35.31-24.56c-20.57-22.57-29.17-53.81-25.55-92.85c5.14-55.45,44.17-99.2,97.11-108.85        c50.61-9.23,120.3,12.92,164.06,102.8c47.6,97.75,54.78,195.07,19.69,267.01c-29.41,60.3-88.05,101.35-169.6,118.74        c-86.44,18.43-170.74,0.14-243.78-52.9c-35.48-25.76-60.14-53.7-73.42-70.68c-18.54,12.81-39.27,25.23-62.48,36.96        c-3.78,43.19-12.89,231.27,97.58,363.84c67.68,81.22,175.95,123.57,275.81,107.92c63.16-9.9,110.26-42.51,129.21-89.48        c48.3-119.66-35.83-167.92-39.44-169.92c-8.43-4.67-11.55-15.3-6.93-23.75c4.62-8.46,15.17-11.62,23.65-7.03        c1.16,0.62,115.49,64.46,55.2,213.82c-23.68,58.67-80.64,99.12-156.28,110.98        C2068.01,2079.19,2052.32,2080.38,2036.61,2080.38z M1795.17,1512.52c30.23,38.9,127.53,143.13,281.9,110.22        c71.63-15.27,120.55-48.86,145.41-99.83c30.33-62.18,23.15-148.31-19.7-236.31c-35.18-72.25-88.31-90.61-126.27-83.67        c-37.89,6.91-64.78,37.37-68.51,77.61c-2.66,28.68,2.84,50.82,16.35,65.79c20.06,22.23,52.37,22.81,52.7,22.81        c7.36,0.08,13.94,4.75,16.39,11.69c2.45,6.95,0.34,14.68-5.35,19.36c-43.17,35.51-82.92,47.29-118.14,35.01        c-31.06-10.83-51.57-38.55-64.43-64.07C1889.33,1409.09,1857.37,1462.3,1795.17,1512.52z"/>
					</g>
					<g>
						<path class="st59" d="M2061.43,1803.9c-2.03,0-4.04-0.01-6.06-0.05c-98.34-1.68-187.21-48.69-257.01-135.93        c-52.02-65.02-75-128.85-75.96-131.53c-3.23-9.12,1.53-19.13,10.65-22.37c9.12-3.22,19.13,1.53,22.37,10.65        c0.85,2.39,88.29,240.52,300.54,244.15c113.89,2.13,241.66-56.04,254.15-167.35c11.84-105.52-53.88-126.97-56.68-127.83        c-9.19-2.82-14.47-12.55-11.73-21.76c2.74-9.21,12.3-14.53,21.55-11.87c0.97,0.28,96.94,29.46,81.68,165.37        C2330.37,1735.2,2189.2,1803.9,2061.43,1803.9z"/>
					</g>
					<g>
						<path class="st59" d="M2100.77,1930.39c-6.8,0-67.19-0.91-93.03-32.37c-10.21-12.44-13.84-27.97-10.48-44.93        c13.09-66.11,70-83.12,72.42-83.81c9.29-2.69,19,2.71,21.67,12.02c2.66,9.31-2.72,19-12.02,21.67        c-1.46,0.44-38.85,12.28-47.69,56.94c-1.69,8.55,0.81,12.97,3.17,15.86c11.62,14.18,46.65,19.55,65.99,19.59        c9.67,0.02,17.5,7.88,17.49,17.54C2118.26,1922.56,2110.43,1930.39,2100.77,1930.39z"/>
					</g>
					<g>
						<path class="st59" d="M2076.97,1404.2c-4.88,0-9.73-2.02-13.19-5.98c-6.36-7.28-5.63-18.33,1.63-24.71l0,0        c11.33-9.97,42.66-43.63,38.16-66.74c-2.08-10.68-12.98-19.54-32.39-26.34c-9.13-3.2-13.95-13.19-10.75-22.32        c3.2-9.13,13.18-13.95,22.32-10.75c32.04,11.21,50.62,28.97,55.22,52.78c9.07,46.91-43.45,94.45-49.47,99.72        C2085.18,1402.78,2081.06,1404.2,2076.97,1404.2z"/>
					</g>
				</g>
			</g>
			<g>
				<g>
					<path class="st1" d="M1599.32,1604.85c-128.83,19.11-250.16,25.52-354.79,25.52c-190.6,0-325.87-21.21-350.85-25.43       c-26.11,21.41-210.89,179.23-210.89,354.32c0,6.83,0.2,13.44,0.6,19.83c0.05,0.4,0.08,0.79,0.07,1.18       c3.59,54.26,21.55,92.61,53.52,114.16c63.38,42.72,169.04,14.3,246.53-17.06c17.88-7.18,46.23-19.74,75.69-34.97       c-8.67-34.34-52.58-191.92-136.29-233.2c-45.37,21.09-91.53,50.33-127.52,86.31c-3.55,3.55-9.3,3.55-12.84,0       c-3.55-3.55-3.55-9.3,0-12.84c37.01-37.01,86.38-68.52,135.62-91.24c0.61-0.39,1.27-0.67,1.95-0.9       c63.71-29.09,126.94-43.36,162.69-35.59c63.79,13.86,122.93,135.1,109.7,198.65c-13.15,63.08-182.9,132.88-202.21,140.63       c-50.97,20.64-113.83,39.88-170.89,39.88c-20.49,0-40.19-2.55-58.36-8.33c-8.63,41.75-36.05,211.38,48.21,362.62       c18.73,7.93,137.24,53.99,284.7,21.09c0.17-14.27-0.15-27.91-0.85-39.79c-0.01-0.17,0.03-0.33,0.03-0.5       c-2.5-0.7-5.02-1.34-7.51-2.07c-27.21-7.89-53.77-17.77-79.61-29.14c-25.73-11.56-50.92-24.48-74.23-40.24       c25.27,12.26,51.16,22.86,77.51,32c26.28,9.3,53.01,17.16,79.98,23.74c27.02,6.35,54.25,11.69,81.73,14.99       c5.98,0.74,11.96,1.4,17.96,2.02c1.22-0.12,2.44,0.02,3.61,0.38c17.28,1.71,34.61,2.73,51.95,2.9       c1.48-0.34,2.98-0.36,4.45,0.05c1.15,0,2.3,0.05,3.46,0.04c1.03-0.01,2.03,0,3.06-0.01c0.68,0,1.36-0.03,2.03-0.03       c17.52-0.23,36.04-1.08,55.28-2.75c0.64-0.13,1.3-0.19,1.96-0.17c1.37-0.12,2.72-0.23,4.1-0.36c5.8-0.6,11.59-1.24,17.37-2.02       c27.33-3.84,54.43-9.39,81.08-16.9c53.29-15.1,104.22-38.33,152.78-66.59c-44.29,34.52-94.69,62.08-148.58,80.13l-20.32,6.46       c-0.43,0.14-0.88,0.23-1.31,0.36c-0.71,13.16-0.97,28.3-0.61,43.99c33.66,3.03,175.25,12.59,284.75-27.89       c84.06-151.17,56.67-320.61,48.04-362.33c-18.17,5.78-37.87,8.33-58.35,8.33c-57.06,0-119.92-19.25-170.92-39.89       c-19.29-7.74-189.04-77.54-202.18-140.62c-13.24-63.55,45.9-184.78,109.69-198.65c35.73-7.79,98.98,6.49,162.7,35.59       c0.68,0.23,1.33,0.52,1.94,0.9c49.24,22.72,98.61,54.24,135.62,91.24c3.55,3.55,3.55,9.3,0,12.84c-3.55,3.55-9.3,3.55-12.84,0       c-35.99-35.99-82.14-65.22-127.51-86.31c-83.71,41.28-127.63,198.86-136.29,233.2c29.46,15.23,57.79,27.78,75.66,34.96       c77.51,31.38,183.17,59.78,246.56,17.07c31.96-21.54,49.91-59.86,53.51-114.09c-0.01-0.44,0.02-0.89,0.08-1.34       c0.4-6.37,0.59-12.95,0.59-19.75C1810.33,1783.94,1625.03,1625.92,1599.32,1604.85z"/>
				</g>
				<g>
					<path class="st60" d="M1327.69,1842.94c0,0-79.58-39.23-167.58,0c0,0,40.79,63.19,23.5,108.81       c-17.29,45.61-113.91,100.09-113.91,100.09l-99.07,43.94l-68.51,18.04c0,0,9.63,306.23,216.76,355.51       c207.13,49.28,343.27-25.89,343.27-25.89s117.32-135.39,107.94-335.8c0,0-194.77-31.42-254.29-140.97       C1289.27,1902.34,1327.69,1842.94,1327.69,1842.94z"/>
				</g>
				<g>
					<path class="st61" d="M1418.7,2651.07c-3.83-2.33-7.27-5.51-10.38-9.34c-11.21-9.78-23.56-24.22-26.52-42.04       c-11.7-70.14-57.96-103.21-69.08-110.24c-6.28,0.54-12.46,0.98-18.57,1.35c15.23,25.72,41.75,88.26,39.28,209.48l-0.02,0.75       c-2.21,108.4-4.5,220.48,51.71,263.57c28.27,21.68,69.62,24.56,126.22,8.9c3.53-12.9,5.98-26.51,7.07-40.89       c-17.46,5.98-48.17,13.09-72.26,0.24c-17.34-9.25-27.91-26.72-31.4-51.92c-5.2-37.53,1.94-66.84,8.85-95.18       c8.84-36.24,17.96-73.71,1.29-131.35C1422.69,2653.31,1420.59,2652.21,1418.7,2651.07z"/>
				</g>
				<g>
					<path class="st1" d="M1339.38,2486.65c13.02,11.17,29.74,29.11,42.76,55.24c-1.6-24.9-1.27-47.91-0.8-61.63       C1367.1,2482.88,1353.09,2484.97,1339.38,2486.65z"/>
				</g>
				<g>
					<path class="st60" d="M1414.16,1772.7c-53.55,11.64-107.05,123.03-95.76,177.19c5.44,26.13,51.4,57.75,98.96,83.72       c10.71-41.72,51.96-182.25,132.07-233.53C1493.38,1776.92,1441.17,1766.82,1414.16,1772.7z"/>
				</g>
				<g>
					<path class="st60" d="M1399.97,2534.34c2.09,38.62,8.23,77.04,20.92,94.23c7.03,6,13.49,9.93,15.35,11.01       c17.41,7.3,45.88,11.4,79.7,2.6c40.23-10.48,98.38-41.82,153.93-130.11c-66.19,20.51-139,25.5-193.84,25.5       C1441.44,2537.57,1414.08,2535.61,1399.97,2534.34z"/>
				</g>
				<g>
					<path class="st60" d="M1078.96,1772.7c-27-5.88-79.21,4.22-135.26,27.39c80.11,51.28,121.35,191.81,132.06,233.53       c47.56-25.97,93.52-57.59,98.97-83.72C1186.01,1895.72,1132.51,1784.34,1078.96,1772.7z"/>
				</g>
				<g>
					<path class="st1" d="M1917.41,1715.27c-4.42,0.24-8.43-3.03-9.22-7.47c-0.8-4.43,1.77-8.78,6.04-10.22       c100.26-33.78,167.62-81.74,167.62-119.34c0.01-25.75-33.93-42.6-62.39-52.2c-116.57-39.31-342.33,47.94-400.12,71.77       c46.23,39.14,209.16,189.29,209.16,361.46c0,5.28-0.11,10.45-0.34,15.5c14.36,6.48,57.39,22.51,98.58,3.8       c10.33-4.7,12.26-10.3,12.81-14.11c2.86-19.73-27.15-54.01-46.73-70.98c-3.18-2.75-4.04-7.33-2.11-11.06       c1.93-3.73,6.14-5.64,10.26-4.62c37.84,9.47,111.3-2.16,160.34-34.54c26.54-17.52,41.9-38.27,45.63-61.65       c1.66-10.38-0.9-19.27-7.85-27.16C2067.58,1718.63,1957.26,1714.06,1917.41,1715.27z"/>
				</g>
				<g>
					<path class="st60" d="M1073.7,2626.44c1.14-2.06,1.88-3.32,1.96-3.46c0.12-0.21,0.42-0.72,0.79-1.38       c10.45-20.49,15.44-57.34,17-93.41c-38.35,8.22-74.6,11.44-107.67,11.44c-72.97,0-130.51-15.42-161.58-26.09       c55.25,87.15,112.97,118.21,152.98,128.63c39.71,10.34,72.12,2.89,87.81-6.64C1068.21,2633.58,1071.1,2630.47,1073.7,2626.44z"/>
				</g>
				<g>
					<path class="st56" d="M1374.06,2979.01c-63.5-48.68-61.11-165.44-58.81-278.35l0.01-0.75       c2.44-119.31-24.35-179.02-37.54-201.03c-23.62,40-95.67,182.97-39.93,358.84c25.85,81.56,68.36,132.6,126.35,151.69       c54.92,18.1,110.67,1.72,137.44-14.64C1446.37,3007.57,1404.54,3002.37,1374.06,2979.01z"/>
				</g>
				<g>
					<path class="st57" d="M1112.11,2875.5c-62.45-157.57,68.97-330.84,113.83-383.5c-12.21-0.32-23.75-0.89-34.54-1.64       c-40.15,37.54-99.46,140.76-100.08,141.83c-1.2,2-108.46,183.7-13.03,347.3c62.86,107.76,202.33,145.69,300.88,120.1       c3.66-0.95,7.18-2.07,10.72-3.18c-3.73,0.13-7.45,0.31-11.23,0.31C1288.79,3096.73,1184.07,3057.07,1112.11,2875.5z"/>
				</g>
				<g>
					<path class="st58" d="M1358.46,3026.66c-43.9-14.45-103.47-54.55-137.98-163.46c-56.74-179.04,13.8-325.38,40.19-371.06       c-3.62,0.07-7.21,0.11-10.75,0.13c-24.94,27.85-184.79,215.37-120.92,376.54c85.32,215.29,218.12,219.92,311.24,204.03       c21.05-13.9,38.23-31.59,51.09-52.61c-20.51,8.66-47.2,15.34-76.38,15.34C1396.77,3035.57,1377.63,3032.98,1358.46,3026.66z"/>
				</g>
				<g>
					<path class="st1" d="M873.79,1597.8c-57.78-23.82-283.54-111.08-400.12-71.77c-28.47,9.6-62.4,26.46-62.39,52.2       c0.01,37.6,67.37,85.56,167.63,119.34c4.27,1.44,6.84,5.79,6.04,10.22c-0.8,4.44-4.83,7.69-9.22,7.47       c-39.78-1.2-150.18,3.36-181.68,39.16c-6.95,7.89-9.51,16.78-7.85,27.16c3.74,23.39,19.09,44.13,45.63,61.65       c49.04,32.38,122.5,44.01,160.35,34.54c0.74-0.18,1.48-0.27,2.21-0.27c3.33,0,6.47,1.83,8.05,4.89       c1.94,3.73,1.07,8.31-2.11,11.06c-19.59,16.98-49.59,51.26-46.73,70.98c0.55,3.81,2.48,9.41,12.81,14.11       c41.16,18.71,84.2,2.7,98.58-3.8c-0.22-5.05-0.34-10.22-0.34-15.5C664.63,1787.1,827.55,1636.94,873.79,1597.8z"/>
				</g>
				<g>
					<path class="st1" d="M1167.99,2488.38c-25.3-2.54-44.72-5.76-56.2-7.95c0.65,18.77,1.01,54.64-3.4,89.05       C1125.93,2542.26,1147.98,2510.41,1167.99,2488.38z"/>
				</g>
				<g>
					<g>
						<path class="st59" d="M819.37,2142.48c-35.77,0-69.52-7.29-97.26-25.99c-34.11-22.99-55.11-60.23-62.71-111.02        c-24.3,8.08-64.16,15.42-104.03-2.71c-20.47-9.3-26.59-23.91-28.13-34.53c-2.97-20.58,9.44-43.03,23.47-61.08        c-42.3-2.11-94.02-15.61-133.57-41.72c-32.55-21.49-52.34-49.03-57.24-79.64c-2.91-18.2,1.98-35.12,14.16-48.95        c24.34-27.65,76.19-39.64,121.51-44.75c-61.27-30.33-110.91-70.39-110.92-113.86c0-33.35,27.08-59.39,80.49-77.42        c143.46-48.39,421.35,73.23,433.11,78.44c5.63,2.49,9.54,7.76,10.3,13.86s-1.75,12.17-6.59,15.96        c-2.11,1.65-210.73,166.93-210.73,350.17c0,6.7,0.2,13.18,0.59,19.44c0.03,0.31,0.05,0.62,0.06,0.93        c3.39,51.56,20.1,87.78,49.82,107.81c47.05,31.71,131.8,25.37,238.65-17.89c72.91-29.28,178.8-86.28,186.12-121.39        c11.29-54.18-43.79-157.34-89.3-167.23c-50.13-10.88-191.2,35.95-275.8,120.55c-6.84,6.85-17.93,6.85-24.78,0        c-6.84-6.84-6.84-17.93,0-24.78c89.62-89.62,241.8-144.4,308.02-130.01c69.33,15.07,130.26,140.94,116.16,208.62        c-13.75,65.98-175.11,133.81-207.32,146.74C941.69,2123,877.84,2142.48,819.37,2142.48z M594.37,1869.08        c6.42,0,12.48,3.54,15.54,9.44c3.74,7.2,2.05,16.02-4.08,21.32c-19.77,17.16-46.03,48.75-43.9,63.4        c0.19,1.29,0.62,4.3,7.95,7.63c34,15.45,69.79,5.04,86.45-1.6c-0.09-3.29-0.13-6.63-0.13-10        c0-164.32,144.54-308.33,201.66-358.82c-72.09-28.79-274.8-102.4-381.5-66.41c-36.54,12.32-56.66,28.02-56.66,44.21        c0.01,28.23,55.62,75.54,161.88,111.35c8.23,2.77,13.19,11.16,11.65,19.7c-1.54,8.55-9.18,14.63-17.79,14.41        c-53.9-1.66-149.05,6.71-175.08,36.31c-5.32,6.04-7.13,12.29-5.85,20.25c3.35,20.95,17.47,39.77,41.95,55.94        c46.49,30.69,118.29,42.23,153.66,33.4C591.54,1869.25,592.97,1869.08,594.37,1869.08z"/>
					</g>
					<g>
						<path class="st59" d="M1069.69,2064.66c-8.02,0-15.26-5.55-17.08-13.7c-0.43-1.94-44.5-194.68-136.72-235.85        c-8.84-3.95-12.8-14.3-8.85-23.14c3.95-8.84,14.3-12.81,23.14-8.85c108.27,48.34,154.71,251.59,156.63,260.21        c2.1,9.44-3.84,18.8-13.28,20.91C1072.23,2064.52,1070.95,2064.66,1069.69,2064.66z"/>
					</g>
					<g>
						<path class="st59" d="M1478.11,2673.79c-27.44,0-49.71-6.96-63.78-15.51c-39.61-24.07-42.72-120.37-41.73-167.92        c-112.58,18.96-209.77,7.36-252.06,0.2c0.98,47.62-2.18,143.69-41.74,167.72c-21.09,12.81-60.61,22.06-108.32,9.64        c-48.26-12.57-119.17-51.2-182.97-163.82c-103.8-183.24-52.27-386.19-50.02-394.74c2.46-9.36,12.04-14.98,21.39-12.5        c9.35,2.45,14.95,12.02,12.5,21.38h0c-0.51,1.96-50,198.03,46.62,368.59c57.75,101.96,119.6,136.31,161.31,147.18        c37.16,9.67,67.01,2.99,81.29-5.68c19.88-12.08,27.98-91.49,24.08-158.14c-0.32-5.52,1.98-10.87,6.22-14.43        s9.9-4.92,15.29-3.65c1.29,0.3,131.59,30.01,281.29-0.12c5.32-1.1,10.84,0.39,14.95,3.95c4.1,3.56,6.32,8.82,6,14.25        c-3.89,66.66,4.21,146.07,24.09,158.14c14.27,8.68,44.12,15.36,81.29,5.68c41.71-10.86,103.56-45.22,161.31-147.18        c96.85-170.98,47.13-366.62,46.62-368.57c-2.46-9.36,3.14-18.94,12.5-21.39c9.37-2.48,18.94,3.14,21.39,12.5        c2.24,8.55,53.77,211.5-50.02,394.74c-63.79,112.63-134.71,151.25-182.97,163.82        C1506.77,2672.06,1491.79,2673.79,1478.11,2673.79z"/>
					</g>
					<g>
						<path class="st59" d="M1673.75,2142.48c-58.47,0-122.34-19.48-174.13-40.44c-32.16-12.91-193.52-80.74-207.27-146.72        c-14.1-67.68,46.84-193.54,116.16-208.62c66.24-14.39,218.4,40.4,308.02,130.01c6.84,6.84,6.84,17.93,0,24.78        c-6.84,6.85-17.93,6.85-24.78,0c-84.6-84.6-225.64-131.44-275.8-120.55c-45.51,9.89-100.59,113.05-89.3,167.23        c7.31,35.1,113.21,92.1,186.07,121.37c106.88,43.27,191.64,49.62,238.69,17.91c29.63-19.97,46.33-56.03,49.79-107.34        c0-0.64,0.05-1.29,0.12-1.93c0.37-6.09,0.55-12.39,0.55-18.91c0-183.24-208.62-348.52-210.73-350.17        c-4.85-3.79-7.35-9.85-6.59-15.96s4.67-11.37,10.3-13.86c11.76-5.2,289.66-126.81,433.11-78.44        c53.42,18.02,80.5,44.07,80.49,77.42c-0.01,43.47-49.64,83.53-110.92,113.86c45.32,5.1,97.16,17.09,121.51,44.75        c12.17,13.83,17.07,30.75,14.16,48.95c-4.9,30.61-24.69,58.14-57.24,79.64c-39.55,26.11-91.27,39.61-133.57,41.72        c14.03,18.06,26.44,40.5,23.47,61.08c-1.53,10.62-7.66,25.22-28.13,34.53c-39.85,18.12-79.73,10.77-104.03,2.71        c-7.59,50.78-28.59,88.02-62.71,111.02C1743.27,2135.19,1709.52,2142.48,1673.75,2142.48z M1836.79,1969.27        c16.63,6.64,52.45,17.06,86.45,1.61c7.33-3.33,7.76-6.35,7.95-7.64c2.13-14.73-24.13-46.28-43.9-63.39        c-6.13-5.31-7.82-14.13-4.08-21.32c3.74-7.2,11.93-10.86,19.79-8.92c35.37,8.84,107.17-2.7,153.66-33.4        c24.48-16.17,38.59-34.99,41.95-55.94c1.27-7.96-0.53-14.21-5.85-20.25c-26.04-29.59-121.22-37.98-175.08-36.31        c-8.58,0.29-16.25-5.86-17.79-14.41c-1.54-8.54,3.42-16.93,11.65-19.7c106.27-35.81,161.88-83.12,161.88-111.35        c0-16.18-20.11-31.88-56.65-44.21c-106.68-36-309.41,37.61-381.5,66.41c57.13,50.5,201.66,194.5,201.66,358.82        C1836.93,1962.64,1836.88,1965.98,1836.79,1969.27z"/>
					</g>
					<g>
						<path class="st59" d="M1423.43,2064.66c-1.26,0-2.55-0.14-3.83-0.42c-9.44-2.11-15.39-11.46-13.28-20.91        c1.92-8.63,48.36-211.88,156.63-260.21c8.84-3.94,19.2,0.01,23.14,8.85c3.94,8.84-0.02,19.19-8.85,23.14        c-92.22,41.18-136.29,233.91-136.72,235.85C1438.7,2059.11,1431.46,2064.66,1423.43,2064.66z"/>
					</g>
					<g>
						<path class="st59" d="M931.8,2397.75c114.81,46.02,238.98,73.8,362.66,66.45c97.04-5.05,188.46-34.71,275.64-79.15        c-42.31,37.44-92.46,66.97-146.6,86.51C1262.4,2529.46,1069.6,2497.59,931.8,2397.75L931.8,2397.75z"/>
					</g>
					<g>
						<path class="st59" d="M1313.37,3134.47c-103.97,0-206.97-53.99-258.06-141.57c-103.44-177.33,8.33-366.32,13.13-374.28        c2.5-4.37,66.52-115.77,110.16-152.49c7.4-6.23,18.46-5.27,24.69,2.13c6.23,7.4,5.28,18.46-2.13,24.69        c-38.9,32.73-101.89,142.34-102.52,143.44c-1.27,2.11-105.88,179.74-13.07,338.86c60.84,104.31,195.99,140.98,291.47,116.19        c74.78-19.42,121.69-72.35,131.64-147.04c-19.04,4.88-44.73,7.5-66.51-4.12c-13.66-7.29-30.95-23.3-35.79-58.2        c-5.42-39.12,1.92-69.22,9.02-98.34c8.83-36.2,17.19-70.47,2.13-124.42c-12.77-8.31-39.13-28.73-44.05-58.23        c-12.64-75.85-66.62-105.37-67.17-105.66c-8.54-4.55-11.78-15.16-7.24-23.7c4.54-8.55,15.15-11.78,23.7-7.24        c2.84,1.51,69.81,38.12,85.27,130.83c2.87,17.21,24.67,32.69,32.83,37.2c3.98,2.2,7,5.9,8.33,10.25        c20.35,66.83,9.67,110.62,0.24,149.26c-6.61,27.11-12.86,52.73-8.35,85.22c2.29,16.48,8.02,26.97,17.52,32.07        c19.02,10.21,51.14-1,61.9-6.18c5.49-2.64,11.97-2.25,17.08,1.04c5.12,3.29,8.18,8.99,8.06,15.08        c-2.1,105.13-60.35,180.24-159.81,206.06C1362.08,3131.52,1337.69,3134.47,1313.37,3134.47z"/>
					</g>
					<g>
						<path class="st59" d="M1379.57,3105.51c-80.17,0.01-198.51-33.13-275.3-226.9c-75.09-189.47,121.19-399.36,129.58-408.2        c6.66-7.02,17.74-7.3,24.76-0.65c7.02,6.66,7.31,17.74,0.66,24.77c-1.9,2.01-189.25,202.55-122.43,371.17        c82.59,208.38,205.56,215.58,303.49,198.57c9.53-1.67,18.6,4.73,20.26,14.26c1.66,9.53-4.73,18.6-14.26,20.26        C1431.04,3101.45,1407.64,3105.51,1379.57,3105.51z"/>
					</g>
					<g>
						<path class="st59" d="M1414.74,3043.96c-18.98,0-38.94-2.71-58.92-9.28c-45.76-15.07-107.79-56.61-143.39-168.93        c-69.66-219.8,45.64-386.42,50.58-393.4c3.04-4.3,7.86-7.01,13.12-7.36c5.24-0.31,10.39,1.67,13.99,5.52        c2.26,2.41,55.19,61.07,51.75,229.94l-0.02,0.76c-2.17,106.29-4.41,216.2,48.4,256.69c26.79,20.54,67.2,22.56,123.53,6.17        c9.29-2.72,19.01,2.64,21.72,11.93c2.06,7.08-0.55,14.4-6.02,18.69c1.46,6.61-0.99,13.75-6.82,17.98        C1501.85,3027.77,1461.21,3043.96,1414.74,3043.96z M1277.53,2516.5c-27.49,51.7-81.37,181.91-31.69,338.67        c24.99,78.83,65.68,128.03,120.94,146.23c20.07,6.61,40.24,8.39,58.88,7.2c-21.88-2.98-40.7-10.6-56.73-22.89        c-66.89-51.28-64.46-170.21-62.12-285.21l0.01-0.75C1308.84,2601.27,1290.73,2544.5,1277.53,2516.5z"/>
					</g>
					<g>
						<path class="st59" d="M985.94,2548.05c-110.42,0-186.41-34.75-190.61-36.71c-8.76-4.1-12.55-14.53-8.45-23.29        c4.09-8.75,14.5-12.56,23.27-8.46l0,0c1.26,0.58,128.46,58.33,288.58,20.2c9.43-2.25,18.86,3.57,21.1,12.98        c2.24,9.41-3.57,18.86-12.98,21.1C1063.64,2544.17,1022.86,2548.05,985.94,2548.05z"/>
					</g>
					<g>
						<path class="st59" d="M1475.85,2545.99c-49.16,0-83.96-3.93-87.13-4.3c-9.61-1.13-16.48-9.82-15.36-19.43        c1.12-9.61,9.81-16.48,19.43-15.37c1.66,0.2,168.53,18.93,291.34-27.79c9.05-3.42,19.16,1.1,22.6,10.15        c3.44,9.04-1.1,19.17-10.14,22.61C1623.42,2539.68,1538.12,2545.99,1475.85,2545.99z"/>
					</g>
				</g>
				<g>
					<path class="st59" d="M1244.62,1638.79c-210.94,0-354.49-25.88-356.63-26.27c-9.51-1.76-15.8-10.9-14.04-20.41       c1.76-9.51,10.89-15.79,20.41-14.05c3.16,0.59,320.44,57.65,704.98-0.1c9.58-1.42,18.49,5.16,19.93,14.72       c1.44,9.57-5.16,18.49-14.72,19.93C1473.84,1632.24,1350.69,1638.79,1244.62,1638.79z"/>
				</g>
				<g class="st6">
					<path class="st1" d="M1278.77,2772.3c-1.56,7.38-20.82-120.9-9.55-150.55S1300.43,2669.78,1278.77,2772.3z"/>
				</g>
				<g class="st6">
					<path class="st1" d="M1374.05,2667.06c0,0-9.4,91.46,0,100.85c9.4,9.4,21.04-22.55,15.84-57.63       S1387.83,2660.17,1374.05,2667.06z"/>
				</g>
				<g class="st6">
					<ellipse class="st1" cx="1378.74" cy="2804.46" rx="8.88" ry="15.62"/>
				</g>
				<g>
					<path class="st9" d="M1315.27,2699.91c1.21-59.37-4.81-103.97-12.8-136.52c-9.15-9.93-16.72-22.06-46.63-21.27       c-15.03,34.41-31.34,83.46-36.79,142.33c0.47-4.67,0.65-6.96,0.65-6.96s35.32,225.74,104.85,273.34       c69.53,47.61,86,46.08,86.31,46.17c0,0-0.04-0.03-0.05-0.04c-13.72-3.73-25.97-9.67-36.75-17.94       c-63.5-48.68-61.11-165.44-58.81-278.35L1315.27,2699.91z"/>
				</g>
				<g>
					<path class="st9" d="M1258.16,2999.06c54.7,33.62,104.17,39.47,141.91,35.9c-13.61-1.08-27.6-3.69-41.61-8.3       c-43.9-14.45-103.47-54.55-137.98-163.46c-42.56-134.28-13.52-250.17,14.8-318.99c-11.58,1.89-23.24,5.7-34.76,11.56       c-23.14,33.65-48.88,77.49-66.23,125.84C1134.4,2687.8,1139.45,2926.11,1258.16,2999.06z"/>
				</g>
				<g>
					<path class="st9" d="M1185.5,3036.65c26.78,15.84,53.68,25.39,74.96,31.1c-54.26-29.88-106.77-87.36-148.34-192.25       c-40.07-101.09-0.32-208.6,45.16-286.62c-32.77,34.55-61.46,89.66-79.52,169.23       C1046.12,2897.45,1127.24,3002.19,1185.5,3036.65z"/>
				</g>
				<g>
					<path class="st9" d="M1167.99,2488.38c-25.3-2.54-44.72-5.76-56.2-7.95c0.65,18.77,1.01,54.64-3.4,89.05       C1125.93,2542.26,1147.98,2510.41,1167.99,2488.38z"/>
				</g>
				<g>
					<path class="st9" d="M664.73,1955.85c-18.08,4.46-64.18,15.02-72.87,9c-10.86-7.52,79.08-85.04,82.97-81.78       c0.01,0.01,0.02,0.03,0.03,0.04c36.35-138.81,159.67-252.08,198.92-285.31c-57.78-23.82-283.54-111.08-400.12-71.77       c-28.47,9.6-62.4,26.46-62.39,52.2c0.01,37.6,67.37,85.56,167.63,119.34c4.27,1.44,6.84,5.79,6.04,10.22       c-0.8,4.44-4.83,7.69-9.22,7.47c-39.78-1.2-150.18,3.36-181.68,39.16c-6.95,7.89-9.51,16.78-7.85,27.16       c3.74,23.39,19.09,44.13,45.63,61.65c49.04,32.38,122.5,44.01,160.35,34.54c0.74-0.18,1.48-0.27,2.21-0.27       c3.33,0,6.47,1.83,8.05,4.89c1.94,3.73,1.07,8.31-2.11,11.06c-19.59,16.98-49.59,51.26-46.73,70.98       c0.55,3.81,2.48,9.41,12.81,14.11c41.16,18.71,84.2,2.7,98.58-3.8c-0.22-5.05-0.34-10.22-0.34-15.5       C664.63,1958.12,664.72,1956.99,664.73,1955.85z M458.86,1611.56c-32.71-37.39,21.92-39.43,77.68-16.27       c55.75,23.16,130.92,91.44,130.92,91.44S498.32,1656.66,458.86,1611.56z M485.79,1836.02c-62.64-11.69-81.85-51.78-62.22-58.05       c19.63-6.26,132.8,26.73,185.84,63.06C609.4,1841.03,548.43,1847.72,485.79,1836.02z"/>
				</g>
				<g>
					<path class="st9" d="M1339.38,2486.65c13.02,11.17,29.74,29.11,42.76,55.24c-1.6-24.9-1.27-47.91-0.8-61.63       C1367.1,2482.88,1353.09,2484.97,1339.38,2486.65z"/>
				</g>
				<g>
					<path class="st9" d="M1011.14,2599.62c9.2-13.98,12.14-37.55,11.89-61.35c-12.8,0.94-25.24,1.38-37.25,1.38       c-72.97,0-130.51-15.42-161.58-26.09c45.16,71.23,91.96,104.97,129.4,120.61C970.21,2630.7,996.48,2621.89,1011.14,2599.62z"/>
				</g>
				<g>
					<path class="st9" d="M1078.96,1772.7c-27-5.88-79.21,4.22-135.26,27.39c52.91,33.87,88.86,106.67,110.26,164.22       c59.88-31.59,105.59-67.62,108.63-93.55C1144.74,1824.69,1111.87,1779.85,1078.96,1772.7z"/>
				</g>
				<g>
					<path class="st9" d="M1666.7,2273.05c-32.39,20.01-106.17,99.42-138.03,134.47c13.99-7.07,27.82-14.54,41.43-22.47       c-17.32,13.5-35.61,25.9-54.65,37.12c-1.21,1.35-1.93,2.16-1.93,2.16s-26.25,25.78-33.76,37.47       c-3.62,5.63-8.98,29.89-11.04,57.33c59.81,0.41,144.29-4.79,215.31-31.04c38.31-68.89,53.43-141.53,57.77-204.19       C1730.72,2274.2,1700.09,2252.42,1666.7,2273.05z"/>
				</g>
				<g>
					<path class="st9" d="M1610.13,1613.99c-39.81,17.34-202.96,84.02-358.59,84.02c-178.74,0-383.32-70.43-383.62-70.53       c-58.35,53.6-185.12,186.73-185.12,331.79c0,6.83,0.2,13.44,0.6,19.83c0.05,0.4,0.08,0.79,0.07,1.18       c3.59,54.26,21.55,92.61,53.52,114.16c30.26,20.4,70.16,24.55,112.02,19.94c-24.73-1.93-36.22-8.58-36.22-8.58       s-82.69-14.41-101.48-88.32c-11.28-50.81-8.14-76.42-8.14-76.42s6.89,93.05,124.03,92.56c58.9-0.24,141.68-27.05,210.29-60.88       c-21.96-59.52-59.71-136.49-114.56-163.53c-45.37,21.09-91.53,50.33-127.52,86.31c-3.55,3.55-9.3,3.55-12.84,0       c-3.55-3.55-3.55-9.3,0-12.84c37.01-37.01,86.38-68.52,135.62-91.24c0.61-0.39,1.27-0.67,1.95-0.9       c63.71-29.09,126.94-43.36,162.69-35.59c63.79,13.86,122.93,135.1,109.7,198.65c-4.25,20.37-24.86,41.43-51.43,60.89       c35.32-21.78,44.43-34.59,44.43-34.59s-39.9,79.83-171.03,145.15c-125.13,62.33,33.54,256.83,230.97,274.5       c197.43-17.67,356.1-212.17,230.97-274.5c-131.13-65.32-171.03-145.15-171.03-145.15s11.45,16.09,58.38,42.85       c-32.09-21.66-58.3-45.85-63.16-69.14c-13.24-63.55,45.9-184.78,109.69-198.65c35.73-7.79,98.98,6.49,162.7,35.59       c0.68,0.23,1.33,0.52,1.94,0.9c49.24,22.72,98.61,54.24,135.62,91.24c3.55,3.55,3.55,9.3,0,12.84c-3.55,3.55-9.3,3.55-12.84,0       c-35.99-35.99-82.14-65.22-127.51-86.31c-55.13,27.18-93,104.81-114.9,164.46c68.23,33.38,150.05,59.71,208.41,59.95       c117.14,0.48,124.03-92.56,124.03-92.56s3.13,25.61-8.14,76.42c-18.79,73.92-101.48,88.32-101.48,88.32s-11.12,6.41-34.97,8.47       c42.22,4.78,82.5,0.72,112.99-19.83c31.96-21.54,49.91-59.86,53.51-114.09c-0.01-0.44,0.02-0.89,0.08-1.34       c0.4-6.37,0.59-12.95,0.59-19.75C1810.33,1799.96,1657.38,1654.97,1610.13,1613.99z"/>
				</g>
				<g>
					<path class="st9" d="M1917.41,1715.27c-4.42,0.24-8.43-3.03-9.22-7.47c-0.8-4.43,1.77-8.78,6.04-10.22       c100.26-33.78,167.62-81.74,167.62-119.34c0.01-25.75-33.93-42.6-62.39-52.2c-116.57-39.31-342.33,47.94-400.12,71.77       c39.31,33.28,162.92,146.83,199.08,285.91c14.67,7.51,90.66,74.19,80.62,81.14c-8.35,5.78-51.24-3.74-70.63-8.46       c0.01,0.96,0.08,1.9,0.08,2.86c0,5.28-0.11,10.45-0.34,15.5c14.36,6.48,57.39,22.51,98.58,3.8       c10.33-4.7,12.26-10.3,12.81-14.11c2.86-19.73-27.15-54.01-46.73-70.98c-3.18-2.75-4.04-7.33-2.11-11.06       c1.93-3.73,6.14-5.64,10.26-4.62c37.84,9.47,111.3-2.16,160.34-34.54c26.54-17.52,41.9-38.27,45.63-61.65       c1.66-10.38-0.9-19.27-7.85-27.16C2067.58,1718.63,1957.26,1714.06,1917.41,1715.27z M1823.45,1686.73       c0,0,75.17-68.28,130.92-91.44c55.75-23.16,110.39-21.12,77.68,16.27C1992.58,1656.66,1823.45,1686.73,1823.45,1686.73z        M2005.11,1836.02c-62.64,11.69-123.61,5.01-123.61,5.01c53.04-36.33,166.21-69.32,185.84-63.06       C2086.96,1784.24,2067.75,1824.33,2005.11,1836.02z"/>
				</g>
				<g>
					<path class="st9" d="M824.2,2273.05c-31.46-19.44-60.49-1.22-73,9.08c4.18,63.15,19.27,136.64,58.06,206.27       c15.58,6.59,100.16,39.51,212.98,31.51c-2.02-27.76-7.45-52.41-11.1-58.1c-7.52-11.69-33.76-37.47-33.76-37.47       s-0.11-0.13-0.19-0.21c-15.63-7.96-30.9-16.58-45.4-26.38c11.98,5.82,24.12,11.23,36.37,16.32       C940.71,2383.66,858.82,2294.44,824.2,2273.05z"/>
				</g>
				<g>
					<path class="st9" d="M1467.88,2537.52c-0.32,24.06,2.58,47.98,11.88,62.1c15.1,22.93,42.5,31.6,59,34.85       c37.82-15.61,85.34-49.64,131.11-122.4c-66.19,20.51-139,25.5-193.84,25.5C1473.24,2537.57,1470.57,2537.54,1467.88,2537.52z"/>
				</g>
				<g>
					<path class="st9" d="M1438.8,1965.3c21.36-57.71,57.4-131.14,110.62-165.21c-56.05-23.17-108.26-33.27-135.27-27.39       c-33.79,7.34-67.55,54.41-85.03,101.75C1335.81,1900.32,1380.79,1934.93,1438.8,1965.3z"/>
				</g>
				<g>
					<path class="st9" d="M1418.7,2651.07c-3.83-2.33-7.27-5.51-10.38-9.34c-11.21-9.78-23.56-24.22-26.52-42.04       c-11.7-70.14-57.96-103.21-69.08-110.24c-6.28,0.54-12.46,0.98-18.57,1.35c15.23,25.72,41.75,88.26,39.28,209.48l-0.02,0.75       c-0.11,5.45-0.22,10.92-0.33,16.38c-0.21,50.41,7.13,241.19,130.53,242.82c23.14,0,45.05-5.23,52.43-8.42       c1.04-6.25,1.85-12.64,2.35-19.2c-17.46,5.98-48.17,13.09-72.26,0.24c-17.34-9.25-27.91-26.72-31.4-51.92       c-5.2-37.53,1.94-66.84,8.85-95.18c8.84-36.24,17.96-73.71,1.29-131.35C1422.69,2653.31,1420.59,2652.21,1418.7,2651.07z"/>
				</g>
				<g class="st4">
					<path class="st59" d="M591.87,1964.86c8.69,6.02,54.78-4.54,72.87-9c0.31-24.81,3.95-49.14,10.13-72.74       c-0.01-0.01-0.02-0.03-0.03-0.04C670.94,1879.81,581.01,1957.34,591.87,1964.86z"/>
				</g>
				<g class="st4">
					<path class="st59" d="M423.57,1777.98c-19.63,6.26-0.42,46.35,62.22,58.05c62.64,11.69,123.61,5.01,123.61,5.01       C556.37,1804.7,443.2,1771.71,423.57,1777.98z"/>
				</g>
				<g class="st4">
					<path class="st59" d="M536.53,1595.29c-55.75-23.16-110.39-21.12-77.68,16.27c39.46,45.1,208.6,75.17,208.6,75.17       S592.28,1618.45,536.53,1595.29z"/>
				</g>
				<g class="st4">
					<path class="st59" d="M703.16,1941.05c0,0-3.13,25.61,8.14,76.42c18.79,73.92,101.48,88.32,101.48,88.32s11.5,6.65,36.22,8.58       c45.83-5.05,94.01-20.61,134.51-37c17.88-7.18,46.23-19.74,75.69-34.97c-2.99-11.84-10.17-38.34-21.73-69.67       c-68.61,33.82-151.39,60.63-210.29,60.88C710.05,2034.1,703.16,1941.05,703.16,1941.05z"/>
				</g>
				<g class="st4">
					<path class="st59" d="M1053.96,1964.31c11,29.58,18.16,55.14,21.8,69.31c47.56-25.97,93.52-57.59,98.97-83.72       c4.35-20.88-0.95-50.25-12.14-79.13C1159.54,1896.69,1113.84,1932.72,1053.96,1964.31z"/>
				</g>
				<g class="st4">
					<path class="st59" d="M1899.04,1964.86c10.03-6.95-65.95-73.63-80.62-81.14c6.13,23.58,9.74,47.9,10,72.68       C1847.79,1961.11,1890.69,1970.64,1899.04,1964.86z"/>
				</g>
				<g class="st4">
					<path class="st59" d="M2067.33,1777.98c-19.63-6.26-132.8,26.73-185.84,63.06c0,0,60.97,6.68,123.61-5.01       S2086.96,1784.24,2067.33,1777.98z"/>
				</g>
				<g class="st4">
					<path class="st59" d="M2032.05,1611.56c32.71-37.39-21.92-39.43-77.68-16.27c-55.75,23.16-130.92,91.44-130.92,91.44       S1992.58,1656.66,2032.05,1611.56z"/>
				</g>
				<g class="st4">
					<path class="st59" d="M1779.6,2017.47c11.28-50.81,8.14-76.42,8.14-76.42s-6.89,93.05-124.03,92.56       c-58.36-0.24-140.17-26.56-208.41-59.95c-11.36,30.92-18.43,57.02-21.39,68.74c29.46,15.23,57.79,27.78,75.66,34.96       c40.23,16.28,88.03,31.74,133.57,36.9c23.85-2.06,34.97-8.47,34.97-8.47S1760.81,2091.39,1779.6,2017.47z"/>
				</g>
				<g class="st4">
					<path class="st59" d="M1318.4,1949.89c5.44,26.13,51.4,57.75,98.96,83.72c3.6-14,10.65-39.16,21.44-68.32       c-58.02-30.37-103-64.98-109.67-90.85C1318.91,1902.13,1314.24,1929.91,1318.4,1949.89z"/>
				</g>
				<g class="st4">
					<path class="st59" d="M1011.14,2599.62c-14.67,22.27-40.93,31.08-57.54,34.55c8.37,3.5,16.28,6.11,23.58,8.01       c39.71,10.34,72.12,2.89,87.81-6.64c3.22-1.95,6.11-5.07,8.71-9.1c1.14-2.06,1.88-3.32,1.96-3.46       c0.12-0.21,0.42-0.72,0.79-1.38c10.45-20.49,15.44-57.34,17-93.41c-24.42,5.23-47.98,8.42-70.41,10.06       C1023.29,2562.07,1020.35,2585.64,1011.14,2599.62z"/>
				</g>
				<g class="st4">
					<path class="st59" d="M1011.14,2461.81c3.65,5.69,9.08,30.34,11.1,58.1c22.87-1.62,46.87-4.88,71.72-10.42       c0.17-14.27-0.15-27.91-0.85-39.79c-0.01-0.17,0.03-0.33,0.03-0.5c-2.5-0.7-5.02-1.34-7.51-2.07       c-27.21-7.89-53.77-17.77-79.61-29.14c-9.73-4.37-19.33-9.03-28.84-13.87c0.07,0.08,0.19,0.21,0.19,0.21       S1003.63,2450.12,1011.14,2461.81z"/>
				</g>
				<g class="st4">
					<path class="st59" d="M1513.52,2424.34c0,0,0.72-0.8,1.93-2.16c-29.63,17.46-61.12,32.02-93.93,43.01l-20.32,6.46       c-0.43,0.14-0.88,0.23-1.31,0.36c-0.71,13.16-0.97,28.3-0.61,43.99c11.83,1.06,37.03,2.93,69.44,3.15       c2.07-27.45,7.42-51.7,11.04-57.33C1487.28,2450.12,1513.52,2424.34,1513.52,2424.34z"/>
				</g>
				<g class="st4">
					<path class="st59" d="M1479.76,2599.62c-9.3-14.12-12.2-38.05-11.88-62.1c-30.69-0.28-54.94-2.01-67.91-3.18       c2.09,38.62,8.23,77.04,20.92,94.23c7.03,6,13.49,9.93,15.35,11.01c17.41,7.3,45.88,11.4,79.7,2.6       c7.08-1.84,14.74-4.38,22.82-7.71C1522.26,2631.22,1494.86,2622.55,1479.76,2599.62z"/>
				</g>
				<g class="st4">
					<path class="st59" d="M1305.39,1979.89c0,0,39.9,79.83,171.03,145.15c125.13,62.33-33.54,256.83-230.97,274.5       c-197.43-17.67-356.1-212.17-230.97-274.5c131.13-65.32,171.03-145.15,171.03-145.15s-9.11,12.82-44.43,34.59       c-55.7,40.79-137.71,74.49-150.78,79.74c-50.97,20.64-113.83,39.88-170.89,39.88c-20.49,0-40.19-2.55-58.36-8.33       c-4.66,22.53-14.76,82.33-9.85,156.36c12.51-10.29,41.54-28.51,73-9.08c34.62,21.39,116.5,110.6,143.97,141.02       c13.57,5.64,27.29,10.87,41.14,15.68c26.28,9.3,53.01,17.16,79.98,23.74c27.02,6.35,54.25,11.69,81.73,14.99       c5.98,0.74,11.96,1.4,17.96,2.02c1.22-0.12,2.44,0.02,3.61,0.38c17.28,1.71,34.61,2.73,51.95,2.9       c1.48-0.34,2.98-0.36,4.45,0.05c1.15,0,2.3,0.05,3.46,0.04c1.03-0.01,2.03,0,3.06-0.01c0.68,0,1.36-0.03,2.03-0.03       c17.52-0.23,36.04-1.08,55.28-2.75c0.64-0.13,1.3-0.19,1.96-0.17c1.37-0.12,2.72-0.23,4.1-0.36c5.8-0.6,11.59-1.24,17.37-2.02       c27.33-3.84,54.43-9.39,81.08-16.9c38.34-10.86,75.45-25.99,111.34-44.12c31.86-35.06,105.64-114.46,138.03-134.47       c33.39-20.63,64.02,1.15,75.09,10.86c5.18-74.85-5.03-135.43-9.73-158.14c-18.17,5.78-37.87,8.33-58.35,8.33       c-57.06,0-119.92-19.25-170.92-39.89c-12.17-4.88-84.19-34.47-139.02-71.48C1316.84,1995.98,1305.39,1979.89,1305.39,1979.89z"/>
				</g>
				<g class="st4">
					<path class="st59" d="M1610.13,1613.99c-4.75-4.12-8.46-7.22-10.81-9.14c-128.83,19.11-250.16,25.52-354.79,25.52       c-190.6,0-325.87-21.21-350.85-25.43c-4.48,3.67-13.69,11.44-25.77,22.53c0.31,0.11,204.88,70.53,383.62,70.53       C1407.17,1698,1570.32,1631.33,1610.13,1613.99z"/>
				</g>
				<g class="st4">
					<path class="st59" d="M1414.96,3035.57c-4.9,0-9.87-0.21-14.89-0.6c-37.73,3.57-87.21-2.29-141.91-35.9       c-118.71-72.96-123.76-311.27-123.87-317.44c-21.26,59.24-29.87,125.15-5.29,187.19c85.32,215.29,218.12,219.92,311.24,204.03       c21.05-13.9,38.23-31.59,51.09-52.61C1470.83,3028.89,1444.14,3035.57,1414.96,3035.57z"/>
				</g>
				<g class="st4">
					<path class="st59" d="M1260.67,2492.14c-3.62,0.07-7.21,0.11-10.75,0.13c-7.5,8.38-27.24,31.29-49.4,63.51       c11.52-5.86,23.18-9.67,34.76-11.56C1244.71,2521.27,1254.07,2503.56,1260.67,2492.14z"/>
				</g>
				<g class="st4">
					<path class="st59" d="M1260.45,3067.75c-21.28-5.71-48.18-15.27-74.96-31.1c-58.26-34.45-139.38-139.2-107.74-278.54       c18.06-79.57,46.75-134.68,79.52-169.23c25.41-43.58,52.59-78,68.67-96.88c-12.21-0.32-23.75-0.89-34.54-1.64       c-40.15,37.54-99.46,140.76-100.08,141.83c-1.2,2-108.46,183.7-13.03,347.3c62.86,107.76,202.33,145.69,300.88,120.1       c3.66-0.95,7.18-2.07,10.72-3.18c-3.73,0.13-7.45,0.31-11.23,0.31C1340.71,3096.73,1300.11,3089.6,1260.45,3067.75z"/>
				</g>
				<g class="st4">
					<path class="st59" d="M1302.47,2563.39c-8.06-32.87-18.12-53.45-24.75-64.51c-5.44,9.21-13.46,23.95-21.88,43.24       C1285.75,2541.33,1293.32,2553.46,1302.47,2563.39z"/>
				</g>
				<g class="st4">
					<path class="st59" d="M1333.09,2717.41c-1.97,103.12-1.35,206.27,52.03,247.18c28.27,21.68,69.62,24.56,126.22,8.9       c1.92-7.01,3.48-14.25,4.72-21.69c-7.38,3.19-29.29,8.42-52.43,8.42C1340.22,2958.59,1332.88,2767.81,1333.09,2717.41z"/>
				</g>
				<g class="st4">
					<path class="st59" d="M1324.56,2950.83c-69.53-47.61-104.85-273.34-104.85-273.34s-0.18,2.29-0.65,6.96       c-4.76,51.38-1.26,110.19,18.74,173.27c25.85,81.56,68.36,132.6,126.35,151.69c54.92,18.1,110.67,1.72,137.44-14.64       c-35.66,8.27-65.71,8.98-90.76,2.18c0.01,0.01,0.06,0.04,0.05,0.04C1410.56,2996.9,1394.09,2998.44,1324.56,2950.83z"/>
				</g>
			</g>
			<g>
				<g>
					<path class="st62" d="M840.9,485.86c-26.13-31.37-133.28-145.12-264.96-81.66c1.74,82.37,106.71,179.34,134.84,203.86       C767.75,540.16,820.82,499.93,840.9,485.86z"/>
				</g>
				<g>
					<path class="st57" d="M1168.72,738.66c26.83,4.17,51.61,6.55,74.49,7.49c-127.74-69.41-198.76-150.84-211.15-242.39       c-13.31-98.31,44.23-181.38,79.82-222.27c-88.14,33.31-149.81,89.37-162.39,101.4C948.35,417.42,945.78,704.02,1168.72,738.66z       "/>
				</g>
				<g>
					<path class="st63" d="M1338.44,179.71c-6.58-19.47-13.55-38.5-20.71-56.2c-0.05-0.03-0.1-0.06-0.15-0.09       c-61.87-46.14-125.26-8.53-136.47-1.16c-8.38,18.01-16.55,37.29-24.25,56.75C1192.37,161.28,1264.47,136.86,1338.44,179.71z"/>
				</g>
				<g>
					<path class="st63" d="M1362.76,260.03c-4.6-17.1-9.78-34.94-15.38-52.83c-0.19-0.12-0.41-0.17-0.6-0.31       c-92.74-68.94-185.37-11.34-200.11-1.29c-6.46,17.41-12.4,34.5-17.61,50.45c35.21-10.92,73.99-17.96,115.4-17.73       C1284.89,238.56,1324.37,245.89,1362.76,260.03z"/>
				</g>
				<g>
					<path class="st1" d="M557.44,1213.33c22.51,169.68,104.52,269.13,203.37,328.47c9.78-22.65,37.6-77.76,96.13-133.34       c68.65-65.18,194.3-142.88,403.1-142.88c209.09,0,324.86,77.89,385.16,143.24c50.66,54.89,71.5,109.33,78.68,132.73       c21.87-13.18,41.9-27.67,60.13-43.59c103.18-90.08,150.1-224.96,147.66-424.47c-2.5-204.63-78.19-351.06-151.84-445.49       c-0.67,0.35-1.36,0.73-2.01,1.06c-1.32,0.67-0.54-3.36-1.92-3.36c-3.31,0-0.59-1.59-2.19-4.74c-2.05-4.02-8.88-4.71-5.36-7.3       c-65.96-80.19-127.08-118.47-128.41-119.27c-2.38-1.45-3.96-3.92-4.29-6.69c-0.33-2.77,0.64-5.54,2.62-7.51       c74.31-73.81,144.64-110.63,209.88-109.79c33.95,0.5,58.78,11.47,74.06,20.98c-2.71-12.2-7.8-23.67-15.53-34.28       c-61.75-84.72-324.61,18.75-366.07,35.77c0.17,111.11-66.1,167.81-94.73,192.26c-3.07,2.63-6.46,5.52-8.37,7.38       c1.82,4.7,8.31,14.07,13.67,21.82c6.05,8.75,12.91,18.66,19.66,30.14c2.93,4.97,3.99,11.12,3.47,17.83       c0.02,0.83-0.04,1.66-0.24,2.46c-1.17,8.73-4.96,18.31-11.35,27.73c-13.06,19.23-61.59,72.49-196.49,72.49       c-29.21,0-62.45-2.49-100.28-8.37c-104.8-16.29-178.6-87.24-213.4-205.19c-22.07-74.77-21.96-145.06-21.31-166.52       c-87.46-35.06-303.84-101.34-345.95-21.82c-3.45,6.52-5.85,13.26-7.37,20.18c157.52-66.79,282.23,97.47,283.51,99.2       c1.51,2.03,2.11,4.59,1.64,7.07c-0.46,2.48-1.93,4.66-4.06,6.02c-0.92,0.59-92.62,59.7-175.16,177.35       C607.84,781.21,524.22,962.9,557.44,1213.33z"/>
				</g>
				<g>
					<g>
						<path class="st60" d="M1260.04,1283.74c-202.27,0-323.66,74.62-389.88,137.21c-58.05,54.88-85.1,110.38-93.46,130        c119.52,65.57,259.65,76.63,348.73,83.66c16.21,1.28,30.21,2.38,42.65,3.67c0.36,0,86.92,3.98,112.96,3.16        c187.22-5.97,325.69-35.07,426.61-90.52c-5.32-18.43-24.79-74.81-76.5-130.53        C1573.31,1358.05,1461.97,1283.74,1260.04,1283.74z M1112.99,1405.74c-1.77,1.77-4.1,2.66-6.42,2.66s-4.65-0.89-6.42-2.66        l-20.67-20.67c-3.55-3.55-3.55-9.3,0-12.84c3.55-3.55,9.3-3.55,12.84,0l20.67,20.67        C1116.54,1396.44,1116.54,1402.19,1112.99,1405.74z M1292.53,1530.73c-13.41,10.16-30.58,16.27-47.8,16.2        c-8.77,0.15-17.6-1.55-25.82-4.63c-8.1-3.37-15.58-7.96-21.82-13.7c-12.3-11.62-20.88-26.24-24.13-41.96        c10.01,12.34,20.85,22.99,32.86,30.72c6.02,3.83,12.36,6.63,18.79,8.73c3.31,0.72,6.49,1.86,9.88,2.04        c3.3,0.66,6.68,0.63,10.06,0.65c3.36,0.21,6.9-0.48,10.35-0.64c3.38-0.72,6.91-0.93,10.21-2.01        c6.82-1.49,13.3-4.28,19.71-7.43c12.83-6.46,24.54-16.03,35.34-27.67C1315.96,1506.53,1305.93,1520.55,1292.53,1530.73z         M1419.3,1385.07l-20.67,20.67c-1.77,1.77-4.1,2.66-6.42,2.66s-4.65-0.89-6.42-2.66c-3.55-3.55-3.55-9.3,0-12.84l20.67-20.67        c3.55-3.55,9.3-3.55,12.84,0C1422.85,1375.77,1422.85,1381.52,1419.3,1385.07z"/>
					</g>
				</g>
				<g>
					<path class="st62" d="M1659.06,485.26c20.74,14.3,71.67,52.86,125.66,119c50.99-31.77,120.93-101.22,136.5-166.12       c1.87-7.79,2.92-15.36,3.19-22.72c-7.98-6.85-34.45-26.4-77.1-26.86C1789.87,387.95,1726.54,420.46,1659.06,485.26z"/>
				</g>
				<g>
					<path class="st63" d="M1305.43,94.89c-19.08-41.52-38.48-70.01-54.18-68.21c-16.4,1.85-36.62,29.69-56.69,68.18       C1220.25,84.02,1261.92,74.04,1305.43,94.89z"/>
				</g>
				<g>
					<path class="st61" d="M1376,438.31c-12.89,86.22,37.6,130.19,55.8,143.01c2.18-2.05,4.85-4.35,8.19-7.21       c26.89-22.97,89.4-76.45,88.35-180.73c-15.41-15.92-31.07-30.5-46.98-43.61c-6.51-0.6-26.1-1.52-46.57,6.13       C1402.14,368.09,1382.36,395.82,1376,438.31z"/>
				</g>
				<g>
					<path class="st58" d="M1315.39,264.82c-23.28-5.35-46.92-8.18-70.88-8.34c-0.72-0.01-1.45-0.01-2.16-0.01       c-33.11,0-64.62,5.07-93.93,13.13c-14.35,13.52-114.52,112.73-98.33,231.83c12.57,92.47,90.92,174.84,232.84,244.83       c89.78-3.41,143.11-32.1,164.75-63.97c1.29-1.9,2.38-3.73,3.35-5.49c-6.14,1.1-13.1,1.74-20.75,1.74       c-18.2,0-40.04-3.4-62.62-11.59c-37.99-13.78-106.75-52.33-140.43-155.77C1183.45,376.7,1274.97,293.76,1315.39,264.82z"/>
				</g>
				<g>
					<path class="st56" d="M1244.5,505.55c29.71,91.29,86.73,128.87,129.34,144.31c35.07,12.72,67.82,12.28,82.29,7.01       c-0.2-1.3-0.51-2.41-0.95-3.18c-6.42-10.9-13.07-20.53-18.94-29.02c-8.34-12.06-14.36-20.84-16.49-28.43       c-16.95-11.01-82.93-61.01-67.62-163.41c5.58-37.27,20.74-65.25,45.08-83.14c18.6-13.68,39.06-18.84,55.06-20.55       c-36.69-26.68-74.6-46.11-113.59-58.1C1316.84,283.87,1197.66,361.63,1244.5,505.55z"/>
				</g>
				<g class="st6">
					<path class="st1" d="M941.82,398.52c0,0,69.74-50.53,103.98-59.72c0,0-14.5,76.86-10.8,88.96s74.28-121.12,74.28-121.12       s73.08-29.24,148.25-25.16c0,0-53.68,81.39-39.28,128.51s28.6-75.88,39.28-89.09c10.68-13.21,42.08-34.09,46.98-31.59       c4.9,2.51,67.03,12.53,125.28,51.37s94.59,83.31,100.23,80.81c5.64-2.51,8.14-21.3-6.26-42.6       c-14.41-21.3-135.93-142.1-326.99-131.5c-77.33,9.08-251.19,111.45-254.95,134.63S941.82,398.52,941.82,398.52z"/>
				</g>
				<g class="st6">
					<path class="st1" d="M1173.96,246.73c0,0,36.11-130.23,59.73-174.78s35.12-47.61,33.24-49.49s-21.13-2.05-23.72-2.9       s-38.11,40.65-58.87,75.34s-55.22,127.39-56.78,136.79c-1.57,9.4-3.45,27.25-1.25,28.35       C1128.49,261.12,1170.25,251.76,1173.96,246.73z"/>
				</g>
				<g class="st6">
					<path class="st1" d="M847.86,1456.32c0,0,145.7-130.71,419.7-130.71s387.67,123.61,387.67,123.61s-80.18-174.56-403.68-174.56       S850.36,1437.53,847.86,1456.32z"/>
				</g>
				<g>
					<path class="st9" d="M1273.09,157.31c2.63-19.11,2.24-38.53,1.01-54.05c-45.47-9.83-84.44,13.38-92.99,19       c-8.38,18.01-16.55,37.29-24.25,56.75C1181.68,166.62,1224.38,150.99,1273.09,157.31z"/>
				</g>
				<g>
					<path class="st9" d="M1338.18,252.03c8.24,2.38,16.44,5.01,24.59,8.01c-4.6-17.1-9.78-34.94-15.38-52.83       c-0.19-0.12-0.41-0.17-0.6-0.31c-8.48-6.3-16.95-11.52-25.36-15.84c6.24,18.93,12.13,39.43,17.02,60.99       C1338.44,252.04,1338.27,252.03,1338.18,252.03z"/>
				</g>
				<g>
					<path class="st9" d="M1338.44,179.71c-6.58-19.47-13.55-38.5-20.71-56.2c-0.05-0.03-0.1-0.06-0.15-0.09       c-9.87-7.36-19.77-12.57-29.5-16.13c7.45,15.85,16.38,36.41,25.16,60.31C1321.58,170.84,1330,174.82,1338.44,179.71z"/>
				</g>
				<g>
					<path class="st9" d="M1272.07,84.38c-1.06-7.7-2.01-12.43-2.01-12.43s2.75,4.77,7.24,13.44c9.2,1.92,18.61,4.94,28.13,9.5       c-19.08-41.52-38.48-70.01-54.18-68.21c-16.4,1.85-36.62,29.69-56.69,68.18C1213.56,86.85,1241.31,79.33,1272.07,84.38z"/>
				</g>
				<g>
					<path class="st9" d="M1269.68,174.81c-61.91-8-112.46,23.59-123.01,30.78c-6.46,17.41-12.4,34.5-17.61,50.45       c31.15-9.66,65.12-16.26,101.22-17.5C1242.43,227.06,1261.89,204.84,1269.68,174.81z"/>
				</g>
				<g>
					<path class="st9" d="M799.14,518.55c-9.78-18.01-33.75-53.92-80.32-80.15c-52.82-29.74-116.11-14.15-138.87-7.09       c19.58,75.38,105.74,154.88,130.82,176.75C743.32,569.28,774.56,539.56,799.14,518.55z"/>
				</g>
				<g>
					<path class="st9" d="M553.15,1173.68c7.99-64.48,29.8-207.35,54.16-256.08c0,0-52.44,351.41,200.73,545.32       c13.19-17.31,29.28-35.85,48.89-54.47c68.65-65.18,194.3-142.88,403.1-142.88c209.09,0,324.86,77.89,385.16,143.24       c16.17,17.52,29.27,34.98,39.89,51.41c87.69-66,164.34-165.66,201.37-316.08c0,0,46.96,219.41-126.09,372.79       c8.16-6.11,16.09-12.39,23.64-18.98c103.18-90.08,150.1-224.96,147.66-424.47c-2.5-204.63-78.19-351.06-151.84-445.49       c-0.67,0.35-1.36,0.73-2.01,1.06c-1.32,0.67-2.73,0.99-4.11,0.99c-3.31,0-6.5-1.82-8.1-4.97c-2.05-4.02-0.79-8.83,2.73-11.41       c-65.96-80.19-127.08-118.47-128.41-119.27c-2.38-1.45-3.96-3.92-4.29-6.69c-0.33-2.77,0.64-5.54,2.62-7.51       c74.31-73.81,144.64-110.63,209.88-109.79c33.95,0.5,58.78,11.47,74.06,20.98c-2.71-12.2-7.8-23.67-15.53-34.28       c-61.75-84.72-324.61,18.75-366.07,35.77c0.17,111.11-66.1,167.81-94.73,192.26c-3.07,2.63-6.46,5.52-8.37,7.38       c1.82,4.7,8.31,14.07,13.67,21.82c6.05,8.75,12.91,18.66,19.66,30.14c2.93,4.97,3.99,11.12,3.47,17.83       c0.02,0.83-0.04,1.66-0.24,2.46c-1.17,8.73-4.96,18.31-11.35,27.73c-13.06,19.23-61.59,72.49-196.49,72.49       c-29.21,0-62.45-2.49-100.28-8.37c-104.8-16.29-178.6-87.24-213.4-205.19c-22.07-74.77-21.96-145.06-21.31-166.52       c-87.46-35.06-303.84-101.34-345.95-21.82c-3.45,6.52-5.85,13.26-7.37,20.18c157.52-66.79,282.23,97.47,283.51,99.2       c1.51,2.03,2.11,4.59,1.64,7.07c-0.46,2.48-1.93,4.66-4.06,6.02c-0.92,0.59-92.62,59.7-175.16,177.35       C611.91,775.41,533.23,943.67,553.15,1173.68z"/>
				</g>
				<g>
					<path class="st9" d="M1150.09,685.53c-69.39-54.84-109.08-115.65-118.02-181.77c-13.31-98.31,44.23-181.38,79.82-222.27       c-88.14,33.31-149.81,89.37-162.39,101.4c-0.34,10.17-0.79,42.22,4.42,83.24C970.75,509.43,1034.48,652.82,1150.09,685.53z"/>
				</g>
				<g>
					<path class="st9" d="M1234.93,461.57c14.24,27.36,54.83,96.87,109.97,119.75c44.73,18.56,64.46,17.01,72.84,13.6       c-19.53-13.29-80.41-63.3-65.63-162.08c5.58-37.27,20.74-65.25,45.08-83.14c18.6-13.68,39.06-18.84,55.06-20.55       c-36.69-26.68-74.6-46.11-113.59-58.1C1319.18,282.5,1222.2,345.75,1234.93,461.57z"/>
				</g>
				<g>
					<path class="st9" d="M1370.08,435.52c-1.35,9.03-1.97,17.58-2.04,25.7c17.94,12.45,58.18,38.5,82.98,40.15       c32.34,2.16,55.65-25.05,56.1-25.58c9.44-23.64,15.64-51.81,15.31-85.2c-15.41-15.92-31.07-30.5-46.98-43.61       c-6.51-0.6-26.1-1.52-46.57,6.13C1396.22,365.3,1376.44,393.03,1370.08,435.52z"/>
				</g>
				<g>
					<path class="st9" d="M1781.2,438.4c-46.16,25.99-70.12,61.5-80.06,79.67c23.64,20.35,53.12,48.88,83.57,86.19       c50.99-31.77,120.93-101.22,136.5-166.12c0.49-2.06,0.78-4.06,1.16-6.09C1901.9,425.43,1835.93,407.58,1781.2,438.4z"/>
				</g>
				<g>
					<path class="st9" d="M1670.28,1470.95c-10.34-16.17-23.19-33.39-39.13-50.56c-57.84-62.34-169.19-136.65-371.12-136.65       c-202.27,0-323.66,74.62-389.88,137.21c-19.01,17.97-34.64,35.99-47.44,52.81c95.9,67.98,232.68,114.1,427.5,114.1       C1250.23,1587.87,1481.57,1603.28,1670.28,1470.95z M1385.79,1392.89l20.67-20.67c3.55-3.55,9.3-3.55,12.84,0       c3.55,3.55,3.55,9.3,0,12.84l-20.67,20.67c-1.77,1.77-4.1,2.66-6.42,2.66s-4.65-0.89-6.42-2.66       C1382.24,1402.19,1382.24,1396.44,1385.79,1392.89z M1112.99,1405.74c-1.77,1.77-4.1,2.66-6.42,2.66s-4.65-0.89-6.42-2.66       l-20.67-20.67c-3.55-3.55-3.55-9.3,0-12.84c3.55-3.55,9.3-3.55,12.84,0l20.67,20.67       C1116.54,1396.44,1116.54,1402.19,1112.99,1405.74z M1218.91,1542.3c-8.1-3.37-15.58-7.96-21.82-13.7       c-12.3-11.62-20.88-26.24-24.13-41.96c10.01,12.34,20.85,22.99,32.86,30.72c6.02,3.83,12.36,6.63,18.79,8.73       c3.31,0.72,6.49,1.86,9.88,2.04c3.3,0.66,6.68,0.63,10.06,0.65c3.36,0.21,6.9-0.48,10.35-0.64c3.38-0.72,6.91-0.93,10.21-2.01       c6.82-1.49,13.3-4.28,19.71-7.43c12.83-6.46,24.54-16.03,35.34-27.67c-4.22,15.5-14.25,29.51-27.64,39.7       c-13.41,10.16-30.58,16.27-47.8,16.2C1235.97,1547.08,1227.13,1545.38,1218.91,1542.3z"/>
				</g>
				<g>
					<path class="st9" d="M1252.52,689.59c46.66,19.13,118.68-1.39,152.39-13.11c-11.84-1.82-24.42-4.88-37.27-9.54       c-37.99-13.78-106.75-52.33-140.43-155.77c-43.76-134.47,47.76-217.42,88.17-246.35c-23.28-5.35-46.92-8.18-70.88-8.34       c-0.72-0.01-1.45-0.01-2.16-0.01c-33.11,0-64.62,5.07-93.93,13.13c-13.95,13.14-108.97,107.27-99.39,221.92       c2.31-31.38,9.29-57.35,9.29-57.35S1105.94,625.07,1252.52,689.59z"/>
				</g>
				<g class="st4">
					<path class="st59" d="M607.32,917.6c-24.36,48.72-46.18,191.59-54.16,256.08c1.13,13.03,2.51,26.22,4.29,39.65       c22.51,169.68,104.52,269.13,203.37,328.47c6.5-15.06,21.05-44.51,47.24-78.87C554.88,1269.01,607.32,917.6,607.32,917.6z"/>
				</g>
				<g class="st4">
					<path class="st59" d="M1670.28,1470.95c-188.72,132.33-420.06,116.91-420.06,116.91c-194.82,0-331.61-46.11-427.5-114.1       c-26.27,34.55-40.4,63.99-46.02,77.18c119.52,65.57,259.65,76.63,348.73,83.66c16.21,1.28,30.21,2.38,42.65,3.67       c0.36,0,86.92,3.98,112.96,3.16c187.22-5.97,325.69-35.07,426.61-90.52C1703.98,1538.17,1693.5,1507.25,1670.28,1470.95z"/>
				</g>
				<g class="st4">
					<path class="st59" d="M1886.45,1144.15c-37.03,150.41-113.68,250.08-201.37,316.08c22.65,35.06,33.9,65.39,38.79,81.32       c12.82-7.72,24.93-15.96,36.49-24.61C1933.41,1363.56,1886.45,1144.15,1886.45,1144.15z"/>
				</g>
				<g class="st4">
					<path class="st59" d="M718.82,438.4c46.57,26.22,70.54,62.14,80.32,80.15c18.45-15.77,33.15-26.65,41.76-32.69       c-26.13-31.37-133.28-145.12-264.96-81.66c0.19,8.9,1.64,17.98,4.02,27.11C602.71,424.25,666,408.66,718.82,438.4z"/>
				</g>
				<g class="st4">
					<path class="st59" d="M1781.2,438.4c54.73-30.82,120.7-12.97,141.17-6.36c1.06-5.65,1.83-11.21,2.03-16.63       c-7.98-6.85-34.45-26.4-77.1-26.86c-57.44-0.61-120.77,31.9-188.25,96.7c9.04,6.23,23.82,17.08,42.09,32.81       C1711.09,499.9,1735.05,464.39,1781.2,438.4z"/>
				</g>
				<g class="st4">
					<path class="st59" d="M953.91,466.12c12.49,98.27,57.52,248.1,214.81,272.54c26.83,4.17,51.61,6.55,74.49,7.49       c-35.49-19.28-66.43-39.53-93.12-60.62C1034.48,652.82,970.75,509.43,953.91,466.12z"/>
				</g>
				<g class="st4">
					<path class="st59" d="M1447.67,682.29c1.29-1.9,2.38-3.73,3.35-5.49c-6.14,1.1-13.1,1.74-20.75,1.74       c-7.84,0-16.39-0.68-25.35-2.05c-33.72,11.72-105.73,32.24-152.39,13.11c-146.58-64.52-194.2-255.42-194.2-255.42       s-6.98,25.97-9.29,57.35c0.28,3.29,0.6,6.59,1.06,9.91c12.57,92.47,90.92,174.84,232.84,244.83       C1372.7,742.85,1426.03,714.16,1447.67,682.29z"/>
				</g>
				<g class="st4">
					<path class="st59" d="M1451.02,501.37c-24.8-1.65-65.04-27.7-82.98-40.15c-0.59,69.37,41.54,105.83,57.84,117.31       c2.18-2.05,4.85-4.35,8.19-7.21c18.28-15.61,53-45.35,73.05-95.53C1506.66,476.31,1483.35,503.53,1451.02,501.37z"/>
				</g>
				<g class="st4">
					<path class="st59" d="M1344.9,581.32c-55.15-22.88-95.73-92.39-109.97-119.75c1.53,13.91,4.54,28.54,9.57,43.98       c29.71,91.29,86.73,128.87,129.34,144.31c35.07,12.72,67.82,12.28,82.29,7.01c-0.2-1.3-0.51-2.41-0.95-3.18       c-6.42-10.9-13.07-20.53-18.94-29.02c-8.34-12.06-14.36-20.84-16.49-28.43c-0.6-0.39-1.27-0.84-1.99-1.33       C1409.37,598.33,1389.63,599.87,1344.9,581.32z"/>
				</g>
				<g class="st4">
					<path class="st59" d="M1273.09,157.31c13.03,1.69,26.48,4.96,40.15,10.28c-8.79-23.9-17.72-44.46-25.16-60.31       c-4.71-1.72-9.37-3.03-13.98-4.03C1275.33,118.78,1275.73,138.21,1273.09,157.31z"/>
				</g>
				<g class="st4">
					<path class="st59" d="M1272.07,84.38c1.73,0.28,3.48,0.64,5.23,1.01c-4.49-8.68-7.24-13.44-7.24-13.44       S1271,76.69,1272.07,84.38z"/>
				</g>
				<g class="st4">
					<path class="st59" d="M1230.28,238.54c4.7-0.16,9.42-0.26,14.18-0.23c31.86,0.2,63.11,4.86,93.72,13.71       c0.09,0,0.26,0.01,0.26,0.01c-4.89-21.57-10.78-42.06-17.02-60.99c-17.7-9.08-35.12-14.09-51.73-16.24       C1261.89,204.84,1242.43,227.06,1230.28,238.54z"/>
				</g>
				<g>
					<g>
						<path class="st59" d="M711.9,638.48c-3.89,0-7.81-1.29-11.05-3.94c-8.26-6.73-201.46-166.06-139.07-283.89        c57.66-108.91,312.73-16.67,374.85,7.77c32.3-29.77,151.13-128.55,305.67-128.55c0.74,0,1.48,0,2.23,0.01        c104.2,0.64,202.12,46.44,291.19,136.17c63.35-26.06,320.3-123.64,392.47-24.63c22.54,30.92,29.18,66.53,19.76,105.84        c-19.46,81.15-105.41,158.02-157.37,184.43c-8.63,4.39-19.17,0.95-23.55-7.68c-4.38-8.63-0.94-19.17,7.68-23.55        c47.96-24.38,123.01-94.02,139.17-161.36c7.02-29.27,2.44-54.47-14-77.03c-52.13-71.52-278.59,5.24-361.45,40.85        c-6.71,2.89-14.52,1.3-19.58-3.98c-84.51-88.33-176.88-133.42-274.53-134.02c-0.65,0-1.32-0.01-1.97-0.01        c-163.56,0-288.01,124.98-289.25,126.25c-5,5.09-12.59,6.64-19.18,3.93c-75.83-31.24-301.25-103.43-341.16-28.04        c-40.73,76.94,80.2,199.57,130.24,240.33c7.5,6.11,8.63,17.15,2.52,24.65C722.03,636.27,716.98,638.48,711.9,638.48z"/>
					</g>
					<g>
						<path class="st59" d="M1272.27,1668.15c-33.5,0-102.69-3.19-105.93-3.34c-0.33-0.01-0.66-0.04-0.99-0.07        c-12.11-1.25-25.96-2.34-41.99-3.61c-87.68-6.91-220.19-17.36-339.43-75.97c-144.8-71.17-229.88-195.09-252.86-368.33        c-34.4-259.3,52.5-447.58,131.45-559.87c65.46-93.1,135.1-149.9,165.98-172.57c-33.26-37.42-133.59-131.96-253.56-70.38        c-8.61,4.43-19.17,1.02-23.59-7.59c-4.42-8.61-1.02-19.17,7.59-23.59c170.87-87.7,307.88,92.76,309.24,94.59        c2.91,3.91,4.06,8.85,3.17,13.64c-0.89,4.79-3.72,9-7.84,11.61c-0.89,0.57-91.62,59.16-173.18,175.65        c-74.92,107-157.35,286.49-124.53,533.89c49.57,373.71,394.53,400.91,560.31,413.98c15.38,1.21,29.91,2.36,42.34,3.64        c7.07,0.32,87.61,3.96,112.33,3.17c237.7-7.57,395.84-52.51,497.67-141.41c101.18-88.33,147.18-221.16,144.77-418.01        c-2.52-205.86-80.43-350.26-145.35-435.15c-70.6-92.31-141.64-136.42-142.35-136.86c-4.58-2.81-7.63-7.57-8.25-12.92        c-0.62-5.34,1.23-10.68,5.05-14.46c75.98-75.47,148.56-113.4,215.95-112.24c62.61,0.92,96.62,36,98.04,37.49        c6.66,7.02,6.37,18.11-0.64,24.77c-7.01,6.66-18.11,6.37-24.77-0.64c-0.96-0.98-26.28-26.27-74.21-26.59c-0.3,0-0.61,0-0.91,0        c-51.98,0-111.61,30.11-173.43,87.37c26.95,19.66,79.36,62.5,132.38,131.51c68.59,89.27,150.9,241.07,153.55,457.3        c2.54,207.89-47.27,349.24-156.76,444.84c-108.26,94.52-273.37,142.19-519.6,150.03        C1279.21,1668.12,1275.95,1668.15,1272.27,1668.15z"/>
					</g>
					<g>
						<path class="st59" d="M765.15,1572.93c-1.9,0-3.83-0.31-5.72-0.96c-9.13-3.16-13.99-13.1-10.85-22.23        c1.04-3.03,26.39-75.08,102.55-147.39c69.76-66.24,197.33-145.2,408.91-145.2c212.14,0,329.91,79.37,391.35,145.95        c67.23,72.85,83.29,145.49,83.94,148.55c2.01,9.47-4.02,18.77-13.49,20.79c-9.47,2-18.77-4.03-20.79-13.49        c-0.14-0.63-15.29-67.63-76.73-133.5c-82.49-88.43-205.06-133.27-364.29-133.27c-157.52,0-290.11,46.44-383.42,134.28        c-70.61,66.47-94.67,134.01-94.91,134.69C779.19,1568.38,772.4,1572.93,765.15,1572.93z"/>
					</g>
					<g>
						<path class="st59" d="M1172.97,1486.64c23.2,18.51,43.01,33.98,71.5,33.7c28.83-0.37,50.82-11.74,75.7-29.3        c-2.62,37-39.39,64.64-75.36,64.33C1207.46,1556.85,1172.83,1523.32,1172.97,1486.64L1172.97,1486.64z"/>
					</g>
					<g>
						<path class="st59" d="M1106.57,1416.84c-4.48,0-8.97-1.71-12.39-5.13l-20.67-20.67c-6.84-6.84-6.84-17.93,0-24.78        c6.84-6.84,17.93-6.84,24.78,0l20.67,20.67c6.84,6.84,6.84,17.93,0,24.78C1115.53,1415.13,1111.05,1416.84,1106.57,1416.84z"/>
					</g>
					<g>
						<path class="st59" d="M1392.21,1416.84c-4.48,0-8.97-1.71-12.39-5.13c-6.84-6.84-6.84-17.93,0-24.78l20.67-20.67        c6.85-6.84,17.94-6.84,24.78,0c6.84,6.84,6.84,17.93,0,24.78l-20.67,20.67C1401.18,1415.12,1396.7,1416.84,1392.21,1416.84z"/>
					</g>
					<g>
						<path class="st59" d="M1265.81,773.38c-29.57,0-63.12-2.52-101.17-8.43c-108.26-16.82-184.41-89.83-220.2-211.13        c-26.36-89.32-21.57-172.51-21.35-176.01c0.6-9.66,8.92-17.07,18.57-16.4c9.65,0.6,16.99,8.9,16.4,18.56l0,0        c-0.05,0.8-4.59,81.3,20.24,164.78c32.23,108.38,96.74,170.82,191.73,185.58c187.09,29.08,251.4-28.96,266.66-47.44        c11.53-13.97,11.67-23.56,11.09-25.18c-6.13-10.38-12.69-19.87-18.48-28.24c-11.37-16.44-18.88-27.3-18.88-38.85        c0-10.17,6.46-15.69,18.19-25.71c26.28-22.45,87.83-75.03,85.38-177.66c-0.23-9.67,7.42-17.7,17.1-17.93        c9.63-0.25,17.7,7.42,17.93,17.1c2.84,119.29-70.17,181.66-97.65,205.14c-1.07,0.92-2.23,1.9-3.33,2.86        c2.62,4.33,6.63,10.13,10.09,15.12c5.83,8.43,13.09,18.92,20,30.67c8.81,14.98,5.66,36.3-8.42,57.04        C1455.99,717.39,1405.24,773.38,1265.81,773.38z M1445.28,589.05L1445.28,589.05z"/>
					</g>
					<g>
						<path class="st59" d="M1281.08,773.03c-2.59,0-5.22-0.58-7.7-1.79c-151.82-74.41-235.83-164.02-249.68-266.35        c-19.17-141.65,103.55-252.15,108.79-256.79c7.24-6.42,18.31-5.74,24.73,1.5c6.42,7.24,5.74,18.31-1.5,24.73        c-1.71,1.53-114.02,103.37-97.27,226.06c12.28,89.95,89.78,170.49,230.35,239.38c8.69,4.26,12.28,14.75,8.02,23.44        C1293.78,769.42,1287.55,773.03,1281.08,773.03z"/>
					</g>
					<g>
						<path class="st59" d="M1430.06,686.98c-19.12,0-41.76-3.58-65.3-12.11c-39.44-14.3-110.79-54.24-145.57-161.09        c-57.29-176.02,108.45-267.11,110.13-268.01c8.52-4.57,19.15-1.35,23.71,7.18c4.56,8.52,1.36,19.12-7.15,23.7l0,0        c-5.8,3.13-141.49,78.45-93.38,226.29c28.66,88.05,83.35,124.19,124.19,138.99c39.13,14.19,71.41,10.71,79.23,5.8        c8.2-5.15,19.01-2.67,24.15,5.52c5.14,8.2,2.67,19.01-5.52,24.15C1465.16,683.32,1449.42,686.98,1430.06,686.98z"/>
					</g>
					<g>
						<path class="st59" d="M1427.88,608.14c-2.79,0-5.61-0.67-8.24-2.08c-3.85-2.07-94.18-52.02-75.86-174.48        c5.92-39.57,22.21-69.41,48.42-88.69c39.82-29.28,87.61-22.27,89.62-21.95c9.56,1.48,16.11,10.44,14.62,20        c-1.48,9.56-10.44,16.11-20,14.62c-8.52-1.25-84.41-9.64-98.01,81.2c-14.58,97.44,54.88,136.82,57.85,138.45        c8.45,4.64,11.6,15.26,7,23.74C1440.1,604.81,1434.09,608.14,1427.88,608.14z"/>
					</g>
					<g>
						<path class="st59" d="M1376.07,292.56c-7.83,0-14.96-5.29-16.97-13.23c-0.17-0.65-16.8-66.07-40.3-129.64        c-42.12-113.94-66.18-114.5-66.6-114.62c-2.73,0.31-28.1,6.25-75.55,118.13c-25.81,60.86-44.79,121.87-44.98,122.48        c-2.87,9.24-12.68,14.41-21.92,11.55c-9.24-2.86-14.41-12.68-11.55-21.92c0.79-2.55,19.62-63.1,46.1-125.57        c50.98-120.26,83.75-137.21,103.97-139.5c34.89-3.93,66.89,38.45,103.49,137.52c24.12,65.3,40.63,130.24,41.32,132.97        c2.37,9.38-3.31,18.91-12.69,21.28C1378.93,292.39,1377.49,292.56,1376.07,292.56z"/>
					</g>
					<g>
						<path class="st59" d="M1352.18,217.12c-3.63,0-7.3-1.13-10.44-3.46c-93.8-69.73-188.04-2.8-192,0.08        c-7.81,5.68-18.77,3.98-24.47-3.82c-5.7-7.8-4.03-18.72,3.75-24.44c1.18-0.86,118.77-85.33,233.62,0.06        c7.77,5.77,9.38,16.75,3.61,24.51C1362.82,214.68,1357.54,217.12,1352.18,217.12z"/>
					</g>
					<g>
						<path class="st59" d="M1322.99,133.66c-3.64,0-7.31-1.13-10.46-3.48c-62.39-46.53-125.59-1.82-128.24,0.11        c-7.81,5.66-18.76,3.95-24.45-3.84c-5.69-7.8-4.03-18.7,3.74-24.42c29.57-21.75,103.13-49.73,169.9,0.07        c7.76,5.78,9.36,16.76,3.57,24.52C1333.61,131.22,1328.34,133.66,1322.99,133.66z"/>
					</g>
					<g>
						
							<ellipse transform="matrix(0.0925 -0.9957 0.9957 0.0925 -173.1396 1926.6451)" class="st59" cx="970.37" cy="1058.31" rx="138.91" ry="111.75"/>
					</g>
					<g>
						<path class="st59" d="M950.44,964.17c-40.04,8.92-90.69-7.46-100.95-51.11c-3.38-12.86-3.58-25.59-1.86-37.63        c0.5-3.51,3.75-5.96,7.26-5.46c2.84,0.4,4.98,2.6,5.43,5.29c3.08,15.81,7.12,30.63,17.35,42.16        c15.43,17.89,42.64,17.9,64.21,12.78C965.96,923.11,975.04,958.91,950.44,964.17L950.44,964.17z"/>
					</g>
					<g>
						<path class="st59" d="M932.32,990.3c-49.51,36.78-112.22,26.27-130.85-36.39c-2.18-6.84,7.3-11.48,11.36-5.64        c6.51,9.12,13.65,17.39,21.53,23.5c22.71,19.82,54.89,8.93,75.72-8.56C928.7,946.48,952.36,975.19,932.32,990.3L932.32,990.3z        "/>
					</g>
					<g>
						<path class="st59" d="M924.22,1024.04c-31.82,52.84-93.82,66.94-134.86,16.06c-4.64-5.54,2.47-13.45,8.44-9.49        c17.3,10.67,36.16,19.51,55.92,13.9c17.21-5.39,31.01-21.39,39.65-37.08C904.37,984.89,936.92,1002.33,924.22,1024.04        L924.22,1024.04z"/>
					</g>
					<g>
						
							<ellipse transform="matrix(0.0925 -0.9957 0.9957 0.0925 -108.8663 1941.0918)" class="st1" cx="1010.43" cy="1030.27" rx="59.79" ry="37.96"/>
					</g>
					<g class="st19">
						
							<ellipse transform="matrix(0.9549 -0.297 0.297 0.9549 -286.088 324.5561)" class="st1" cx="925.25" cy="1103.95" rx="25.95" ry="47.11"/>
					</g>
					<g>
						
							<ellipse transform="matrix(0.9957 -0.0925 0.0925 0.9957 -91.3024 146.2788)" class="st59" cx="1532.72" cy="1058.31" rx="111.75" ry="138.91"/>
					</g>
					<g>
						<path class="st59" d="M1552.65,964.17c40.04,8.92,90.69-7.46,100.95-51.11c3.38-12.86,3.58-25.59,1.86-37.63        c-0.5-3.51-3.75-5.96-7.26-5.46c-2.84,0.4-4.98,2.6-5.43,5.29c-3.08,15.81-7.12,30.63-17.35,42.16        c-15.43,17.89-42.64,17.9-64.21,12.78C1537.12,923.11,1528.05,958.91,1552.65,964.17L1552.65,964.17z"/>
					</g>
					<g>
						<path class="st59" d="M1570.77,990.3c49.51,36.78,112.22,26.27,130.85-36.39c2.18-6.84-7.3-11.48-11.36-5.64        c-6.51,9.12-13.65,17.39-21.53,23.5c-22.71,19.82-54.89,8.93-75.72-8.56C1574.38,946.48,1550.73,975.19,1570.77,990.3        L1570.77,990.3z"/>
					</g>
					<g>
						<path class="st59" d="M1578.87,1024.04c31.82,52.84,93.82,66.94,134.86,16.06c4.64-5.54-2.47-13.45-8.44-9.49        c-17.3,10.67-36.16,19.51-55.92,13.9c-17.21-5.39-31.01-21.39-39.65-37.08C1598.72,984.89,1566.17,1002.33,1578.87,1024.04        L1578.87,1024.04z"/>
					</g>
					<g>
						
							<ellipse transform="matrix(0.9957 -0.0925 0.0925 0.9957 -88.8813 142.4538)" class="st1" cx="1492.66" cy="1030.27" rx="37.96" ry="59.79"/>
					</g>
					<g>
						<path class="st59" d="M895.98,824.79c28.56-42.45,90.06-61.19,134.9-33.36c14.58,8.54,26.53,19.99,35.32,33.05        c3.36,4.99,2.04,11.76-2.95,15.12c-3.82,2.58-8.68,2.4-12.27-0.06c-21.68-14.31-43.88-26.41-69.32-25.92        c-24.42,0.12-49.39,12.4-69.88,25.6C901.96,846.63,889.31,835.09,895.98,824.79L895.98,824.79z"/>
					</g>
					<g>
						<path class="st59" d="M1591.29,839.21c-30.61-20.4-68.97-34.52-104.57-18.81c-11.57,4.7-23.06,11.53-34.84,19.27        c-9.81,6.5-21.6-5.58-15-15.2c35.93-53.42,106.31-61.68,153.97-18.18c7.31,7.84,26.98,22.69,13.29,33.44        C1600.05,842.5,1595.02,841.91,1591.29,839.21L1591.29,839.21z"/>
					</g>
					<g class="st19">
						
							<ellipse transform="matrix(0.297 -0.9549 0.9549 0.297 55.139 2282.7905)" class="st1" cx="1577.84" cy="1103.95" rx="47.11" ry="25.95"/>
					</g>
				</g>
			</g>
		</g>
		<g>
			<g>
				<path class="st12" d="M352.36,703.55c20.08-32.86,29.98-72.3,25.75-113.56c-10.28-100.15-99.81-173.01-199.96-162.72      C77.99,437.55,5.13,527.08,15.42,627.23s99.81,173.01,199.96,162.72c27.86-2.86,53.59-11.87,76.02-25.51l84.36,18.92      L352.36,703.55z"/>
			</g>
			<g class="st11">
				<g>
					<path class="st1" d="M181.72,462.14c93.56-9.61,177.82,53.34,196.9,143.31c0.02-6.43-0.25-12.91-0.93-19.45       c-10.28-100.15-99.81-173.01-199.96-162.72C77.58,433.57,4.73,523.1,15.01,623.25c0.67,6.57,1.71,13.01,3.04,19.32       C18.4,550.56,88.13,471.75,181.72,462.14z"/>
				</g>
			</g>
			<g>
				<path class="st59" d="M196.39,805.37c-45.06,0-88.39-15.34-123.81-44.17C31.82,728.04,6.42,680.98,1.05,628.7      C-4.32,576.43,11,525.19,44.16,484.43s80.23-66.16,132.5-71.53c52.26-5.38,103.51,9.94,144.27,43.11      c40.76,33.17,66.16,80.22,71.53,132.5c4.21,41.02-4.25,81.33-24.49,116.98l21.65,73.8c1.44,4.91,0.18,10.21-3.32,13.94      c-3.5,3.73-8.71,5.33-13.7,4.22l-78.8-17.67c-23.71,13.48-49.57,21.73-76.95,24.54C210.01,805.02,203.18,805.37,196.39,805.37z       M197.07,440.74c-5.79,0-11.62,0.3-17.46,0.9c-92.07,9.45-159.29,92.05-149.83,184.12s92.02,159.25,184.12,149.83      c25.06-2.57,48.61-10.48,69.99-23.49c3.19-1.94,7.02-2.57,10.66-1.75l60.45,13.55l-16.51-56.29c-1.15-3.91-0.59-8.12,1.54-11.6      c19.29-31.56,27.49-67.71,23.7-104.56c-4.58-44.6-26.25-84.75-61.03-113.05C272.49,453.82,235.51,440.74,197.07,440.74z"/>
			</g>
			<g class="st20">
				<path class="st14" d="M353.38,701.8c-49.93,42.23-118.72,60.73-187.03,43.73C90.6,726.67,34.78,668.99,14.7,598.98      c-0.48,9.28-0.26,18.72,0.71,28.25c10.28,100.15,99.81,173.01,199.96,162.72c27.86-2.86,53.59-11.87,76.02-25.51l84.36,18.92      l-23.41-79.81C352.71,702.98,353.03,702.38,353.38,701.8z"/>
			</g>
			<g>
				<path class="st1" d="M255.05,557.42L255.05,557.42c-15.78-15.78-41.35-12.95-57.13,2.83l-2.46,2.46l-2.46-2.46      c-15.78-15.78-41.35-18.6-57.13-2.83l0,0c-15.78,15.78-15.78,41.35,0,57.13l2.46,2.46l49.6,49.6c4.16,4.16,10.9,4.16,15.06,0      l49.6-49.6l2.46-2.46C270.83,598.77,270.83,573.2,255.05,557.42z"/>
			</g>
		</g>
	</g>
</g>
</svg>