<svg xmlns="http://www.w3.org/2000/svg" xmlns:xlink="http://www.w3.org/1999/xlink" version="1.1" id="Layer_1" x="0px" y="0px" style="enable-background:new 0 0 2521.12 2959.9;" xml:space="preserve" viewBox="-15.57 0.01 2536.7 2959.89">
<style type="text/css">
	.st0{fill:#FFFFFF;}
	.st1{fill:#4A1763;}
	.st2{fill:#8DC63E;}
	.st3{fill:#BA8963;}
	.st4{opacity:0.6;}
	.st5{opacity:0.2;}
	.st6{fill:#D7DF22;}
	.st7{opacity:0.4;}
	.st8{fill:#03003D;}
	.st9{fill:#FC7CB6;}
	.st10{fill:#FF67A0;}
	.st11{fill:#957E8F;}
	.st12{fill:#615569;}
	.st13{fill:none;stroke:#4A1763;stroke-width:25.1909;stroke-linecap:round;stroke-linejoin:round;stroke-miterlimit:10;}
	.st14{fill:#B2C5CA;}
	.st15{fill:#486FC9;}
	.st16{fill:#FF8C26;}
	.st17{fill:#FFB969;}
	.st18{fill:#FEBD1C;}
	.st19{fill:#969696;}
	.st20{fill:#B199C5;}
	.st21{fill:#FFB375;}
	.st22{fill:#380072;}
	.st23{fill:#3A0000;}
	.st24{fill:#994E31;}
	.st25{fill:#FF82A5;}
	.st26{fill:#390075;}
	.st27{opacity:0.5;}
	.st28{fill:#FF0068;}
	.st29{fill:#F89B29;}
	.st30{opacity:0.25;}
	.st31{fill:#000072;}
	.st32{fill:#FF78A3;}
	.st33{fill:#42477F;}
	.st34{fill:#5E5E5E;}
	.st35{fill:#A6A6A6;}
	.st36{opacity:0.3;}
	.st37{fill:#020174;}
	.st38{fill:#60567C;}
	.st39{fill:#5E3F96;}
	.st40{fill:#494963;}
	.st41{opacity:0.45;}
	.st42{fill:#F87B38;}
	.st43{fill:#982E20;}
	.st44{fill:#6B184E;}
	.st45{fill:#74698B;}
	.st46{fill:#FCC9CD;}
	.st47{fill:#601F32;}
	.st48{fill:#5F566D;}
	.st49{fill:#FF6883;}
	.st50{fill:#A1A1AF;}
	.st51{fill:#8C7F6B;}
	.st52{fill:#000047;}
	.st53{fill:#58DA3F;}
	.st54{fill:#FFDF46;}
	.st55{fill:#91C948;}
	.st56{fill:#FEDA24;}
	.st57{fill:#380175;}
	.st58{fill:#FFCD61;}
	.st59{fill:#56BCF9;}
	.st60{fill:#DCF5FF;}
	.st61{fill:#96B1FF;}
	.st62{fill:#371A45;}
	.st63{fill:#99A4C4;}
	.st64{fill:#FFD243;}
	.st65{opacity:0.7;}
	.st66{fill:#FF9D33;}
	.st67{fill:#E81818;}
	.st68{fill:#E7A900;}
	.st69{fill:#FFFD01;}
	.st70{fill:#22A7F0;}
</style>
<g>
	<g>
		<g class="st4">
			<g>
				<path class="st0" d="M165.91,1371.13c-23.66-23.78-51.12-34.61-74.01-25.91c-38.81,14.73-50.17,79.57-25.38,144.89      c1.24,3.25,2.54,6.39,3.9,9.52c-16.45-16.39-31.06-39.05-41.18-65.79c-24.73-65.31-13.37-130.16,25.38-144.89      C91.54,1274.93,139.93,1311.32,165.91,1371.13z"/>
			</g>
		</g>
		<g>
			<g>
				<path class="st0" d="M1599.25,2061.64l258.62,70.98c-14.41-48.4-33.98-95.61-59.75-141.36c-17.21-30.56-56.43-40.64-86.49-22.57      C1672.91,1991.97,1635.74,2024.67,1599.25,2061.64z"/>
			</g>
		</g>
		<g>
			<g>
				<path class="st0" d="M1857.88,2122.17h208.55c-14.15-30.25-32.35-60.49-54.58-90.74c-25.02-34.03-75.87-33.12-100.78,0.98      C1890.29,2060.83,1872.42,2090.68,1857.88,2122.17z"/>
			</g>
		</g>
		<g>
			<g>
				<path class="st0" d="M2093.99,2108.86l204.43-36.13c-21.3-28.02-46-53.88-74.55-77.29c-30.89-25.33-77.07-15.66-95.4,19.83      C2112.29,2046.59,2101.23,2077.76,2093.99,2108.86z"/>
			</g>
		</g>
		<g>
			<g>
				<path class="st52" d="M1857.88,2150.37c-1.57,0-3.14-0.21-4.7-0.63l-258.62-70.98c-6.08-1.67-10.81-6.43-12.45-12.51      c-1.63-6.09,0.09-12.58,4.51-17.07c43.09-43.67,79.91-74.07,115.86-95.69c18.79-11.3,40.8-14.44,61.99-8.84      c21.03,5.55,38.47,19.01,49.11,37.9c25.53,45.32,46.15,94.11,61.3,145.01c1.84,6.18,0.18,12.87-4.33,17.48      C1867.17,2148.49,1862.58,2150.37,1857.88,2150.37z M1633.67,2052.68l197.21,54.13c-13.03-37.25-29.19-73.07-48.22-106.84      c-5.89-10.46-15.57-17.92-27.24-21c-11.84-3.12-24.14-1.38-34.64,4.94C1693.51,2000.3,1665.4,2022.45,1633.67,2052.68z"/>
			</g>
		</g>
		<g>
			<g>
				<path class="st52" d="M2066.42,2139.93h-208.54c-6.05,0-11.69-3.09-14.95-8.18s-3.7-11.51-1.16-17.01      c14.62-31.66,33.11-62.88,54.96-92.78c15.45-21.14,39.27-33.29,65.36-33.33c0.04,0,0.08,0,0.12,0      c25.54,0,48.84,11.76,63.93,32.29c22.82,31.04,41.78,62.58,56.36,93.74c2.57,5.49,2.16,11.92-1.1,17.05      C2078.14,2136.82,2072.49,2139.93,2066.42,2139.93z M1886.55,2104.43h150.98c-11.35-20.81-24.74-41.73-40-62.48      c-8.33-11.33-21.21-17.82-35.34-17.82c-0.02,0-0.04,0-0.07,0c-14.65,0.02-28.05,6.86-36.75,18.76      C1910.76,2062.91,1897.76,2083.52,1886.55,2104.43z"/>
			</g>
		</g>
		<g>
			<g>
				<path class="st52" d="M2094,2126.61c-4.83,0-9.5-1.97-12.88-5.54c-4.1-4.33-5.76-10.42-4.41-16.23      c7.98-34.33,19.76-66.29,35.99-97.71c11.24-21.74,31.39-37.04,55.29-41.98c23.81-4.9,48.3,1.13,67.14,16.57      c28.88,23.68,54.93,50.68,77.43,80.27c3.75,4.93,4.65,11.45,2.4,17.21s-7.35,9.94-13.44,11.01l-204.42,36.13      C2096.06,2126.52,2095.02,2126.61,2094,2126.61z M2184.26,1998.98c-3.02,0-6.07,0.31-9.1,0.93      c-13.36,2.76-24.63,11.33-30.93,23.51c-10.63,20.58-19.17,41.41-25.85,63.11l147.19-26.01c-16.15-18.51-33.89-35.71-52.96-51.34      C2204.49,2002.51,2194.5,1998.98,2184.26,1998.98z"/>
			</g>
		</g>
		<g>
			<g>
				<path class="st53" d="M2401.79,1998.24c0,0,0,0.12-0.06,0.3c-0.06,0.12-0.06,0.24-0.06,0.41c-0.06,0.18-0.06,0.36-0.12,0.53      c-0.71,2.96-2.66,11.12-6.03,23.37v0.06c-3.43,12.31-8.28,28.75-14.85,48.28c-0.18,0.59-0.41,1.18-0.65,1.78      c-53.96,158.85-421.94,877.66-1451,403.42c-10.65-4.91-21.36-9.94-32.12-15.09c0,0,9.47-2.25,26.68-7.4      c48.45-14.55,158.67-52.36,292.79-128.44c117.79-66.79,253.98-163.17,382.9-299.36c0,0,61.41,38.4,169.44,63.13      C1910.51,2121.71,2132.66,2130.64,2401.79,1998.24z"/>
			</g>
		</g>
		<g class="st4">
			<g>
				<path class="st0" d="M2401.79,1998.24c0,0,0,0.12-0.06,0.3c-0.06,0.12-0.06,0.24-0.06,0.41c-0.06,0.18-0.06,0.36-0.12,0.53      c-0.71,2.96-2.66,11.12-6.03,23.37v0.06c-3.43,12.31-8.28,28.75-14.85,48.28c-0.18,0.59-0.41,1.18-0.65,1.78      c-3.61,10.59-8.58,23.66-15.09,38.69c2.66-8.64,4.85-16.27,6.69-22.72v-0.06c3.37-12.25,5.32-20.41,6.03-23.37      c0.06-0.18,0.06-0.35,0.12-0.53c0-0.18,0-0.3,0.06-0.41c0.06-0.18,0.06-0.3,0.06-0.3c-457.8,200.14-790.87,34.79-800.99,28.75      l20.35-64.84c0.71-0.65,1.36-1.36,2.01-2.07c0,0,61.41,38.4,169.44,63.13C1910.51,2121.71,2132.66,2130.64,2401.79,1998.24z"/>
			</g>
		</g>
		<g>
			<g>
				<path class="st8" d="M1563.93,2653.98c-203.17,0-428.82-58.96-674.73-176.66c-6.78-3.25-10.78-10.42-9.98-17.89      c0.79-7.48,6.22-13.64,13.53-15.39c1.36-0.32,137.83-33.57,314.83-134c141.05-79.99,268.48-179.62,378.76-296.13      c5.81-6.14,15.13-7.33,22.3-2.85c0.78,0.49,81.92,50.22,218.64,71.35c126.07,19.49,326.71,17.95,566.64-100.09      c5.5-2.7,12.01-2.38,17.21,0.86c5.21,3.24,8.37,8.94,8.37,15.07c0,1.04-0.11,2.15-0.31,3.25c-0.07,0.47-0.15,0.95-0.26,1.41      c-0.05,0.24-0.1,0.49-0.17,0.73h0c-6.83,28.48-15.31,55.36-21.26,73.04c-0.26,0.81-0.56,1.62-0.87,2.42      c-44.98,132.09-196.58,386.92-480.4,506.44C1807.87,2631.18,1690.24,2653.97,1563.93,2653.98z M947.15,2465.2      c371.17,168.85,692.39,198.35,955.33,87.63c341.3-143.73,455.99-471.67,460.71-485.56c0.1-0.3,0.21-0.61,0.33-0.9l0.22-0.55      c3.21-9.54,7.14-21.71,11.1-35.2c-233.78,106.17-429.57,106.25-554.9,86.57c-113.04-17.75-188.77-53.46-217.41-68.81      c-110.47,114.75-237.39,213.12-377.42,292.53C1103.93,2409.66,1002.8,2447.33,947.15,2465.2z M2384.88,1992.87      c-0.26,0.76-0.46,1.55-0.61,2.35c0.16-0.8,0.37-1.58,0.62-2.34L2384.88,1992.87z"/>
			</g>
		</g>
		<g>
			<g>
				<path class="st54" d="M2401.76,1998.96c-0.06,0.18-0.06,0.35-0.12,0.53c-1.42,5.92-7.75,32.72-20.89,71.7      c-0.18,0.59-0.41,1.18-0.65,1.77c-54.49,160.51-429.61,892.57-1483.24,388.34c0,0,137.86-32.78,319.5-135.84      C2102.55,2776.94,2401.76,1998.96,2401.76,1998.96z"/>
			</g>
		</g>
		<g>
			<g>
				<path class="st52" d="M1563.93,2651.01c-202.73,0.01-427.93-58.86-673.45-176.36c-5.65-2.71-8.98-8.68-8.32-14.91      s5.18-11.37,11.28-12.82c1.36-0.32,138.18-33.64,315.6-134.31c4.32-2.45,9.58-2.56,14.01-0.31      c284.48,144.94,536.87,177,750.16,95.33c295.7-113.23,413.48-410.99,414.63-413.98c2.89-7.5,11.24-11.3,18.8-8.6      c7.15,2.57,11.12,10.08,9.39,17.33c-0.04,0.19-0.09,0.38-0.13,0.57h0c-6.83,28.47-15.31,55.35-21.25,72.97      c-0.14,0.48-0.44,1.3-0.79,2.17c-44.79,131.6-195.87,385.6-478.76,504.73C1807.1,2628.29,1689.83,2651.01,1563.93,2651.01z       M938.94,2464.7c374.9,172.02,699.32,202.6,964.68,90.85c224.17-94.4,350.93-268,413.09-380.61c-0.02,0.02-0.04,0.05-0.06,0.08      c-62.78,84.55-171.43,198.31-332.53,260.1c-219.72,84.28-477.9,53.01-767.41-92.88C1093.31,2411.5,991.58,2448.24,938.94,2464.7      z"/>
			</g>
		</g>
		<g class="st5">
			<g>
				<path class="st52" d="M2395.52,2022.14c-3.43,12.31-8.28,28.75-14.85,48.28c-0.18,0.59-0.41,1.18-0.65,1.78      c-53.96,158.85-421.94,877.66-1451,403.42c-1.83-7.45-3.61-14.97-5.44-22.48c48.45-14.55,158.67-52.36,292.79-128.44      c117.79-66.79,253.98-163.17,382.9-299.36c0,0,61.41,38.4,169.44,63.13c-73.77,88.21-44.84,198.01,135.48,198.01      C2124.26,2286.47,2307.84,2118.81,2395.52,2022.14z"/>
			</g>
		</g>
		<g>
			<g>
				<path class="st53" d="M2493.35,1702.59c6.21,55.73-130.87,121.58-283.8,137.91c-0.18,0-0.3,0.06-0.47,0.06      c-6.21,1.06-12.54,2.01-18.99,2.9c-136.66,18.99-360.59,27.51-514.17,15.32c0,0,25.38,122.23,0,249.78l5.74,13.9l193.81,470.93      l26.39,64.07l2.13,5.21l5.21,15.97c0,0,83.54,20.47,127.2,102.53c2.48,4.56,4.79,9.29,6.92,14.2      c4.79,11.06-1.48,23.96-13.19,26.86c-16.62,4.08-43.37,8.58-80.64,8.58c0,0,2.54,11.12,2.54,39.82c0,0-377.81-1.77-451.34-34.73      c-73.48-32.95-81.29-89.04-81.29-89.04c-80.52-101.58-160.86-214.28-243.39-242.86c0,0-98.56,7.87-186.66-3.96      c0,0-27.98,82.59-99.92,94.6c0,0,0,0,0.06,0.06l3.61,9.64c25.38,66.61-20,182.22-151.57,254.04      c-13.07,7.1-29.4,2.13-36.15-11.06l-13.49-26.62c-36.44,20.11-60.29,42.95-85.78,71.65c-12.6,14.2-35.67,10.53-43.48-6.75      l-14.61-32.6c-19.58,8.82-37.39,20.35-53.84,34.25c-16.39,13.79-41.53,2.78-42.83-18.58c-3.19-51.65,2.13-129.51,50.76-186.06      c0,0-23.49-27.16-50.82-72.12c-8.46-13.9-17.33-29.46-25.91-46.5c-61-119.98-111.58-310.3,52.71-471.22      c7.57-7.4,15.56-14.73,24.02-22.01c0,0-9.52-60.88-1.01-144.59c0-0.06,0-0.12,0-0.12c1.89-18.87,4.73-38.87,8.87-59.58      c10.29-52.3,28.46-109.21,59.52-163.7c0,0-203.93,72-315.92-27.98c-75.67-67.56-133.06-249.07-121.64-400.76      c4.79-64.55,22.13-123.65,55.73-166.3c4.38-5.5,8.99-10.77,13.9-15.74c17.69-17.87,35.14-32.01,52.06-42.95      c0.47-0.3,0.71-0.41,0.71-0.41s0.06-0.06,0.18-0.12c17.04-10.95,33.66-18.58,49.52-23.43c85.9-26.27,152.05,28.69,166.66,91.29      l7.93,46.32l29.23,170.5c0,0,365.97-28.87,699.71,8.4c156.48,17.45,276.11,50.23,389.82,75.08      c136.96,30.05,265.4,48.63,439.51,15.44c0,0,0.12,0,0.35-0.06c0.35-0.06,0.89-0.18,1.72-0.36c0.24-0.06,0.53-0.12,0.83-0.18      c16.39-3.84,121.4-41,185.59-136.96c12.54-18.69,41.06-15.32,48.04,6.09c7.34,22.48,12.42,50.17,7.99,78.27      c0,0,0.24-0.06,0.65-0.12c10.35-2.07,136.37-26.86,175.06,0.89c5.09,3.67,8.64,8.22,10.24,13.78v0.06      c1.48,5.15,1.89,10.18,1.48,15.03c-3.31,35.73-52.89,64.25-69.93,73.12c-3.55,1.83-5.68,2.78-5.68,2.78s17.69,0,38.81,3.73      c30.11,5.32,67.21,18.22,70.23,49.52c5.09,53.25-86.2,101.4-86.2,101.4s70.99,7.69,77.32,63.42V1702.59z"/>
			</g>
		</g>
		<g class="st4">
			<g>
				<path class="st0" d="M2469.76,1405.08c-75.63-7.33-176.63,10.45-216.68,18.46c-9.03,1.81-17.42-5.1-17.42-14.32v0      c0-17.96-20.95-27.45-34.68-15.87c-235.28,198.3-606.32,35.11-606.04,33.86c0.95-4.73,2.07-9.41,3.37-14.02      c136.96,30.05,265.4,48.63,439.51,15.44c0,0,0.12,0,0.35-0.06c0.35-0.06,0.89-0.18,1.72-0.36c0.24-0.06,0.53-0.12,0.83-0.18      c16.39-3.84,121.4-41,185.59-136.96c12.54-18.69,41.06-15.32,48.04,6.09c7.34,22.48,12.42,50.17,7.99,78.27      c0,0,0.24-0.06,0.65-0.12c10.35-2.07,136.37-26.86,175.06,0.89c5.09,3.67,8.64,8.22,10.24,13.78v0.06      C2469.76,1395.2,2470.18,1400.23,2469.76,1405.08z"/>
			</g>
		</g>
		<g class="st5">
			<g>
				<path class="st52" d="M510.92,1862.23c10.29-52.3,28.46-109.21,59.52-163.7c0,0-203.93,72-315.92-27.98      c-75.67-67.56-133.06-249.07-121.64-400.76c4.79-64.55,22.13-123.65,55.73-166.3c-45.85,146.13-4.61,296.93,175.3,368.16      c206.06,81.58,363.79-61.29,367.63-64.78C655.45,1503.41,510.92,1862.23,510.92,1862.23z"/>
			</g>
		</g>
		<g>
			<g>
				<ellipse class="st54" cx="2235.67" cy="1570.7" rx="83.67" ry="118.85"/>
			</g>
		</g>
		<g>
			<g>
				<path class="st52" d="M587.6,2915.37c-2.21,0-4.44-0.17-6.66-0.5c-14.84-2.25-27.39-11.76-33.57-25.43l-7.04-15.71      c-11.68,6.56-22.84,14.37-33.78,23.61c-12.72,10.71-30.11,13.27-45.4,6.7c-15.4-6.6-25.59-21.07-26.61-37.75      c-3.32-53.71,2.32-128.21,45.72-187.04c-9.61-12.31-25.62-34.03-43.23-63c-35.84-58.81-79.86-150.18-85.92-251.33      c-7.04-117.51,37.72-219.99,133.07-304.74c-4.58-39.48-15.76-187.97,51.64-332.56c-67.77,16.31-204.89,35.75-293.16-43.06      c-82.04-73.24-139.24-259.56-127.51-415.33c6.22-83.38,32.07-150.19,74.73-193.21c17.83-18.01,36.34-33.27,55.02-45.36      c0.43-0.27,0.8-0.5,1.12-0.68c17.64-11.31,35.72-19.84,53.74-25.35c54.06-16.53,95.09-2.91,119.99,11.43      c34.86,20.07,60.07,53.89,69.15,92.8c0.08,0.35,0.15,0.69,0.21,1.04l34.44,200.99c74.72-4.97,394.86-23.02,686.9,9.59      c123.98,13.84,226.86,37.63,317.62,58.61c163.65,37.84,304.99,70.52,506.42,32.11c0.21-0.04,0.41-0.08,0.62-0.11      c0.05-0.01,0.1-0.02,0.16-0.03l0.71-0.16c0.08-0.02,0.48-0.11,0.94-0.2c21.29-5.13,117.15-43.54,174.64-129.49      c9.74-14.52,26.48-22.04,43.7-19.65c16.89,2.35,30.67,13.88,35.96,30.11c7.02,21.51,10.54,42.31,10.53,62.1      c63.04-10.8,168.44-20.52,183.56,31.25c0.09,0.29,0.16,0.58,0.23,0.87c9.62,34.77-13.95,63.67-38.69,83.35      c33.26,7.58,70.3,24.7,73.99,63.31c3.88,40.57-32.25,75.7-61.41,97.13c23.13,10.64,48.32,30.56,52.5,67.38      c0.02,0.2,0.04,0.4,0.06,0.6c1.58,15.58-3.92,31.33-16.36,46.82c-41.34,51.46-157.71,96.76-283.04,110.18      c-6.26,1.06-12.64,2.02-19.14,2.92c-140.26,19.49-348.25,26.45-495.31,17.05c6.09,41.28,15.3,132.48-2.85,228.63l226.05,549.2      c0.17,0.41,0.32,0.83,0.46,1.25l2.34,7.17c26.6,8.98,99.92,40.51,136.37,123.92c4.4,10.17,4.1,21.66-0.81,31.56      c-4.88,9.85-13.77,17.01-24.39,19.63c-13.97,3.43-35.78,7.4-65.2,8.68c0.35,6.04,0.6,13.48,0.6,22.49      c0,4.72-1.88,9.25-5.23,12.58c-3.33,3.31-7.83,5.17-12.52,5.17c-0.03,0-0.06,0-0.08,0c-39.06-0.19-383.72-2.76-458.52-36.28      c-68.88-30.88-86.5-81.05-90.53-97.48c-8.46-10.7-16.92-21.51-25.39-32.32c-67.35-86.06-136.96-175-203.98-200.31      c-18.39,1.27-96.85,5.84-172.94-2.68c-10.77,23.33-37.83,70-87.93,87.63c22.3,77.14-30.56,194.94-162.63,267.04      c-10.63,5.77-22.8,6.99-34.3,3.42c-11.43-3.54-20.72-11.35-26.15-21.99l-4.93-9.73c-25.48,16.42-44.45,35.03-65.27,58.47      C611.9,2910.12,600.03,2915.37,587.6,2915.37z M548.93,2831.78c2.13,0,4.27,0.39,6.31,1.16c4.4,1.67,7.96,5.03,9.89,9.33      l14.61,32.6c1.71,3.79,5.14,4.69,6.53,4.91c1.67,0.26,4.88,0.24,7.48-2.69c26.66-30,52.24-54.29,90.48-75.4      c4.22-2.33,9.2-2.84,13.8-1.43c4.6,1.42,8.43,4.64,10.61,8.94l13.49,26.63c1.38,2.71,3.74,3.78,5.02,4.18      c1.31,0.41,3.96,0.86,6.82-0.69c118.56-64.72,166.79-170.89,143.46-232.13l-3.5-9.35c-1.53-3.78-1.74-8.05-0.46-12.06      c2.03-6.33,7.39-11.03,13.95-12.12c60.35-10.08,85.8-82.1,86.05-82.83c2.75-8,10.79-12.94,19.16-11.86      c85.1,11.44,181.92,3.95,182.88,3.87c2.44-0.21,4.9,0.11,7.22,0.92c77.94,26.99,152.01,121.64,223.65,213.18      c9.28,11.86,18.56,23.71,27.84,35.42c1.97,2.48,3.23,5.44,3.67,8.58c0.28,1.74,8.23,47.15,70.97,75.29      c54.42,24.39,310.44,31.89,425.93,33.04c-0.61-12.62-1.72-18.07-1.73-18.14c-1.09-5.23,0.21-10.76,3.58-14.9      c3.37-4.15,8.41-6.64,13.75-6.64c35.98,0,61.41-4.39,76.41-8.07c0.15-0.04,0.7-0.18,1.07-0.92c0.19-0.38,0.35-0.98,0.07-1.65      c-37.09-84.87-121.21-106.33-122.05-106.54c-5.97-1.46-10.75-5.9-12.66-11.74l-5-15.33l-227.81-553.5      c-1.33-3.23-1.68-6.79-0.99-10.21c24.34-122.3,0.27-241.53,0.03-242.72c-1.13-5.47,0.38-11.15,4.07-15.34      c3.69-4.19,9.16-6.35,14.71-5.96c143.07,11.35,367.24,4.67,510.33-15.21c6.27-0.86,12.41-1.78,18.44-2.82      c0.33-0.05,0.65-0.1,0.98-0.14c0.2-0.03,0.4-0.05,0.6-0.07l0,0c128.82-13.75,229.77-60.31,259.35-97.13      c4.43-5.51,9.53-13.66,8.7-21.16c-0.01-0.13-0.03-0.26-0.04-0.39c-4.92-40.44-59.3-47.15-61.62-47.42      c-7.73-0.89-14.01-6.71-15.45-14.37c-1.44-7.65,2.25-15.34,9.13-18.97c20.94-11.09,80.03-50.35,76.81-84.01      c-2.67-27.97-62.72-37.13-91.38-37.19c-8.34-0.01-15.55-5.83-17.32-13.99c-1.77-8.15,2.37-16.43,9.95-19.9      c19.38-8.92,72.87-40.9,64.47-69.84c-0.04-0.13-0.08-0.27-0.11-0.4c-6.19-17.52-82.67-18.45-164.62-1.88      c-0.07,0.01-0.14,0.03-0.21,0.04c-5.75,1.68-11.51,0.17-16.06-3.77c-4.63-4.01-6.38-10.27-5.42-16.32      c3.36-21.26,0.89-44.81-7.33-70c-1.48-4.53-5.08-5.68-7.09-5.96c-1.77-0.26-6.26-0.33-9.33,4.25      c-64.74,96.79-171.29,138.48-196.27,144.35c-0.2,0.04-0.4,0.09-0.61,0.13c-0.16,0.04-0.34,0.07-0.5,0.11      c-1.3,0.28-2.08,0.44-2.6,0.53c-0.05,0.01-0.1,0.02-0.15,0.02c-208.65,39.74-353.33,6.29-520.84-32.44      c-94.21-21.78-191.62-44.3-313.56-57.92c-328.14-36.65-692.7-8.63-696.34-8.35c-9.14,0.74-17.34-5.65-18.89-14.69l-37.06-216.28      c-6.86-28.74-26.34-54.73-52.18-69.61c-18.81-10.83-50.03-21.05-91.89-8.25c-14.5,4.44-29.2,11.33-43.7,20.49      c-0.84,0.8-1.54,1.3-2.96,1.86c-16.17,10.52-32.51,24.05-48.38,40.08c-36.65,36.95-58.96,96.03-64.55,170.88      c-10.82,143.67,42.19,320.52,115.76,386.2c102.75,91.73,296.26,25.17,298.21,24.48c6.98-2.46,14.77-0.32,19.52,5.37      c4.75,5.69,5.47,13.72,1.8,20.16c-93.65,164.36-65.56,354.57-65.27,356.47c0.94,6.07-1.32,12.21-5.99,16.21      c-207.11,177.41-118.48,400.07-47.21,517.01c26.14,43,48.87,69.49,49.09,69.76c5.74,6.65,5.76,16.51,0.03,23.17      c-44.13,51.32-49.65,122.62-46.5,173.4c0.29,4.72,3.71,6.68,5.17,7.3c1.75,0.75,5.18,1.59,8.52-1.22      c18.06-15.27,37.58-27.68,57.98-36.86C543.96,2832.3,546.44,2831.78,548.93,2831.78z M2285.49,1392.91c-0.01,0-0.03,0-0.04,0      C2285.46,1392.91,2285.47,1392.91,2285.49,1392.91z M2286.57,1392.68L2286.57,1392.68L2286.57,1392.68z M263.12,1061.06      C263.12,1061.06,263.12,1061.06,263.12,1061.06C263.12,1061.06,263.12,1061.06,263.12,1061.06z"/>
			</g>
		</g>
		<g>
			<g>
				<path class="st52" d="M1902.62,2691.25c-64.1-28.1-137.01-32.63-205.92-23.47c-10.93,2.1-27.57,4.45-38.21,7.37      c-2.89,0.74-21,5.22-23.68,5.91c-3.35,1.06-10.61,3.45-13.95,4.52c0,0-18.64,6.03-18.64,6.03l-0.53,0.17      c-9.73,3.03-14.98-11.26-5.42-15.16c8.94-3.53,24.25-9.51,32.98-12.94c13.21-4.04,30.37-10.09,43.8-12.98      c52.88-13.52,108.37-17.64,162.68-11.13c27.96,3.42,55.9,9.13,82.23,19.67C1939.87,2669.68,1924.64,2701.81,1902.62,2691.25      L1902.62,2691.25z"/>
			</g>
		</g>
		<g>
			<g>
				<path class="st52" d="M488.9,2668.2c29.01-26.14,62.4-47.22,99.25-60.11c8.78-3.07,14.47,9.29,6.48,13.97      c-30.71,17.38-57.71,41.94-79.21,69.73C499.3,2712.09,470.61,2686.62,488.9,2668.2L488.9,2668.2z"/>
			</g>
		</g>
		<g>
			<g>
				<path class="st52" d="M839.55,2419.18c97.25,54.84,212.6,76.88,323.52,66.36c67.92-5.9,133.15-23.83,197.79-46.84      c7.12-2.59,12.29,7.7,5.5,11.71c-142.08,84.96-328.99,99.76-477.48,21.83c-21.03-11.36-41.14-23.46-59.7-39.63      c-3.54-3.08-3.9-8.44-0.83-11.97C831.23,2417.34,836.03,2416.85,839.55,2419.18L839.55,2419.18z"/>
			</g>
		</g>
		<g>
			<g>
				<path class="st52" d="M520.56,2064.7c7.75,64.41,22.87,130.41,54.6,187.65c2.07,3.45,0.88,7.96-2.64,9.92      c-3.21,1.8-7.23,0.82-9.32-2.1c-20.04-28.08-35.34-59.21-47.88-91.24c-12.48-32.48-22.46-64.72-29.88-99.04      c-2.03-9.61,4.1-19.05,13.71-21.08C509.52,2046.54,519.72,2054.15,520.56,2064.7L520.56,2064.7z"/>
			</g>
		</g>
		<g>
			<g>
				<path class="st52" d="M875.47,2599.98c-27.6-60.16-65.14-118.34-115.71-161.57c-16.88-14.04-35.49-25.99-55.82-34.21      c-14.68-6.35-6.76-28.32,8.66-23.77c47.07,14.89,87.2,46.44,120.71,81.68c33.34,35.56,61.64,74.87,84.98,117.68      C932.33,2609.15,889.26,2629.58,875.47,2599.98L875.47,2599.98z"/>
			</g>
		</g>
		<g>
			<g>
				<path class="st52" d="M1769.66,2864.18c-8.95-49-34.52-97.14-76.86-125.15c-3.51-2.07-0.69-7.64,3.08-5.89      c48.45,20.56,83.63,64.52,104.2,112.09c1.48,3.49,2.84,6.83,4.23,11.03C1811.42,2881.16,1774.09,2889.75,1769.66,2864.18      L1769.66,2864.18z"/>
			</g>
		</g>
		<g>
			<g>
				<path class="st52" d="M1933.3,2832.03c-9.99-46.49-37.72-89.66-77.34-116.47c-4.23-2.6-0.7-9.28,3.85-7.12      c49.15,21.69,87.62,64.62,107.75,114.25C1976.08,2847.63,1938.62,2857.9,1933.3,2832.03L1933.3,2832.03z"/>
			</g>
		</g>
		<g>
			<g>
				<path class="st54" d="M1463.29,1672.44c-27.48,196.17,7.93,860.8-552.94,768.26c-578.82-95.51-272.13-921.09-13.47-1164.15      c0,0,479.32,21.36,764.53,113.54C1661.41,1390.09,1495.78,1440.44,1463.29,1672.44z"/>
			</g>
		</g>
		<g class="st5">
			<g>
				<path class="st52" d="M2072.73,1415.5c-23.61,32.77-52.77,63.6-88.57,91.35c-290.13,225.17-684.74,59.99-692.07,56.91      c-0.06-0.06-0.06-0.06-0.12-0.06c0,0-118.92,75.79-255.46,50.58c-205.94-38.04-250.37-239.61-250.37-239.61      c-0.18-0.12-0.41-0.24-0.59-0.36c-24.02-15.38-46.21-30.82-66.68-46.2c-0.06-0.06-0.12-0.12-0.24-0.18      c-3.61-2.72-7.22-5.5-10.71-8.22c135.84-3.31,322.79-2.25,500.57,17.63c344.97,38.51,510.63,151.28,829.33,90.52      c0,0,0.12,0,0.35-0.06c0.35-0.06,0.89-0.18,1.72-0.36c0.24-0.06,0.53-0.12,0.83-0.18      C2045.34,1426.14,2056.99,1422.42,2072.73,1415.5z"/>
			</g>
		</g>
		<g class="st5">
			<g>
				<path class="st52" d="M2494.32,1698.29c-6.33-55.73-77.32-63.42-77.32-63.42s91.29-48.16,86.2-101.4      c-3.02-31.3-40.11-44.2-70.23-49.52c20.53,6.15,36.21,16.27,40.47,32.54c10,38.22-56.5,74.13-105.37,94.9      c-14.08,5.98-13.07,26.33,1.6,30.76c33.37,10.06,71.65,25.91,75.9,46.62c7.1,34.61-545.06,102.47-855.18,47.74      c-35.26-6.21-67.8,20.23-68.92,56.03c-4.14,127.32-31.83,387.92-185.59,471.1c-206.24,111.58-753.84,143.41-832.88-344.79      c0,0-0.35,1.01-0.95,2.96c0,0,0,0.06,0,0.12c-8.52,83.71,1.01,144.59,1.01,144.59c-8.46,7.28-16.45,14.61-24.02,22.01      c-71.69,108.56,14.83,266.4,127.98,360.19c54.76,45.4,10.8,137.27-60.31,140.41c-44.84,2.01-70.15,2.51-120.38-29.38      c8.58,17.04,17.45,32.6,25.91,46.5c27.33,44.96,50.82,72.12,50.82,72.12c-48.63,56.56-53.96,134.42-50.76,186.06      c1.3,21.36,26.45,32.36,42.83,18.58c16.45-13.9,34.25-25.44,53.84-34.25l14.61,32.6c7.81,17.28,30.88,20.94,43.48,6.75      c25.5-28.69,49.34-51.53,85.78-71.65l13.49,26.62c6.74,13.19,23.07,18.16,36.15,11.06c131.58-71.82,176.95-187.43,151.57-254.04      l-3.61-9.64c-0.06-0.06-0.06-0.06-0.06-0.06c71.94-12.01,99.92-94.6,99.92-94.6c88.09,11.83,186.66,3.96,186.66,3.96      c82.53,28.58,162.87,141.28,243.39,242.86c0,0,7.81,56.09,81.29,89.04c73.54,32.95,451.34,34.73,451.34,34.73      c0-28.69-2.54-39.82-2.54-39.82c37.27,0,64.01-4.49,80.64-8.58c11.71-2.9,17.98-15.8,13.19-26.86      c-2.13-4.91-4.44-9.64-6.92-14.2c-33.13,0.36-79.04-5.56-133.17-29.64c0,0,11.3,75.55-163.58,30.47c0,0-177.37,8.22-217.95-55.2      c-33.49-52.3,202.63-81.11,380.17-69.34l-26.39-64.07h-0.06c-84.96-31.42-262.44,32.01-338.52-46.62      c-76.08-78.57-65.08-148.5,70.17-312.55c31.95-38.81,56.2-76.62,74.6-111.76l-5.74-13.9c25.38-127.55,0-249.78,0-249.78      c153.58,12.19,377.51,3.67,514.17-15.32c6.45-0.89,12.78-1.83,18.99-2.9c0.18,0,0.3-0.06,0.47-0.06      c152.93-16.33,290.01-82.18,283.8-137.91V1698.29z M683.91,2720.07c0,0,3.36-27.21,14.42-54.32c1.54-3.76-3.27-6.82-6.01-3.82      c-31.57,34.52-91.22,92.88-152.05,115.82c0,0,10.77-57.92,32.48-95.84c-10.18,16.86-66.62,107.67-113.77,130.75      c0,0,6.12-217.79,271.53-222.85c24.65-0.47,41.83,24.61,32.09,47.26C751.96,2661.82,729.8,2692.72,683.91,2720.07z"/>
			</g>
		</g>
		<g>
			<g>
				<path class="st52" d="M1010.99,2464.19c-32.68,0-67.04-2.96-103.04-8.9c-167.91-27.71-275.65-116.02-320.21-262.47      c-91.91-302.04,119.11-758,299.02-927.05c2.91-2.74,6.75-4.17,10.79-4c4.81,0.21,484.59,22.51,768.42,114.25      c6.15,1.99,10.3,7.74,10.24,14.2c-0.06,6.46-4.3,12.14-10.49,14.02c-6.36,1.97-157.08,51.11-187.78,270.25l0,0      c-3.52,25.12-6.02,58.45-8.91,97.04c-13.31,177.69-35.59,475.08-213.47,614.92C1189.74,2438.19,1107.76,2464.19,1010.99,2464.19      z M902.48,1291.63c-89.33,86.12-180.9,238.74-239.96,400.33c-69.07,188.97-85.58,363.79-46.49,492.25      c41.02,134.79,140.85,216.17,296.73,241.89c134.09,22.13,243.28,0.95,324.52-62.91c167.64-131.79,189.31-421.05,202.25-593.88      c2.93-39.1,5.46-72.86,9.11-98.93c24.05-171.69,117.73-247.63,171.04-277.53C1355.27,1317.1,957.14,1294.43,902.48,1291.63z       M1463.29,1672.44h0.05H1463.29z"/>
			</g>
		</g>
		<g>
			<g>
				<path class="st52" d="M1124.39,2147.62c-86.58,0-180.16-7.55-260.79-31.23c-253.49-74.43-287.18-188.07-288.49-192.88      c-2.15-7.88,2.5-16.01,10.38-18.16c7.83-2.15,15.92,2.44,18.12,10.24c0.49,1.61,33.73,103.53,268.32,172.42      c211.12,62,526.79,7.71,529.95,7.16c8.04-1.45,15.72,3.96,17.13,12.01c1.41,8.05-3.96,15.71-12.01,17.12      C1398.69,2125.77,1271.69,2147.62,1124.39,2147.62z"/>
			</g>
		</g>
		<g>
			<g>
				<path class="st52" d="M1340.89,1783.75c-203.75,0-361.05-39.47-462.7-75.82c-130.66-46.72-198.88-97.39-201.72-99.53      c-6.53-4.91-7.84-14.18-2.94-20.71c4.9-6.52,14.17-7.85,20.7-2.94l0,0c2.68,2,273.16,199.88,759.41,165.39      c8.19-0.63,15.22,5.56,15.8,13.7c0.58,8.15-5.56,15.22-13.71,15.8C1416,1782.46,1377.67,1783.75,1340.89,1783.75z"/>
			</g>
		</g>
		<g>
			<g>
				<path class="st52" d="M532.3,2855.78c-15.28-57.23-4.21-120.13,26.01-170.5c4.95-8.37,17.68-1.69,13.55,7.16      c-19.91,44.65-24.28,96.31-9.29,142.93c0.86,2.64,1.87,5.55,2.97,7.94C578.55,2868.38,539.61,2883.3,532.3,2855.78      L532.3,2855.78z"/>
			</g>
		</g>
		<g>
			<g>
				<path class="st52" d="M675.9,2822.62c-6.45-27.99-8.19-56.5-5.84-85.04c2.52-28.22,10.74-56.41,26.42-80.18      c2.24-3.5,6.89-4.53,10.39-2.29c3.39,2.16,4.41,6.55,2.56,9.98c-16.8,34.35-16.88,74.06-9.61,110.94      c2.35,11.82,5.75,24.94,9.92,35.85C717.81,2835.44,682.92,2846.58,675.9,2822.62L675.9,2822.62z"/>
			</g>
		</g>
		<g>
			<g>
				<path class="st52" d="M554.47,1691.49l124.4-229.51c1.9-3.51,6.29-4.81,9.8-2.91c3.33,1.8,4.66,5.87,3.17,9.28l-105.51,238.78      C575.72,1729.04,543.61,1713.41,554.47,1691.49L554.47,1691.49z"/>
			</g>
		</g>
		<g>
			<g>
				<path class="st53" d="M1999.9,1390.06c-290.13,225.17-684.74,59.99-692.07,56.91c-0.06-0.06-0.06-0.06-0.12-0.06      c0,0-118.92,75.79-255.46,50.58c-205.94-38.04-250.37-239.61-250.37-239.61c-0.18-0.12-0.41-0.24-0.59-0.36      c-24.02-15.38-46.21-30.82-66.68-46.21c-0.06-0.06-0.12-0.12-0.24-0.18c-214.76-162.1-239.13-326.69-194.35-463.71      c10.41-31.65,24.43-61.82,40.7-90.16c20.94-36.62,45.55-70.11,70.64-99.75c13.9-16.45,27.98-31.71,41.65-45.61      c36.86-37.69,70.7-65.55,90.58-80.88c11.48-8.93,18.28-13.67,18.28-13.67c220.56-612.32,553.58-338.52,553.58-338.52      c169.44-60.82,313.56,45.67,313.56,45.67c169.91-54.49,281.91,52.12,354.2,190.32c94.36,180.27,121.22,414.37,121.22,414.37      S2292.75,1162.82,1999.9,1390.06z"/>
			</g>
		</g>
		<g class="st4">
			<g>
				<path class="st0" d="M2153.96,1168.14c38.34-192.16-25.26-378.04-25.26-378.04s-26.86-234.1-121.22-414.37      c-72.3-138.2-184.29-244.81-354.2-190.32c0,0-144.12-106.49-313.56-45.67c0,0-333.02-273.8-553.58,338.52      c0,0-6.8,4.73-18.28,13.67c-19.88,15.32-53.72,43.19-90.58,80.88c-13.67,13.9-27.75,29.17-41.65,45.61      c-25.08,29.64-49.7,63.13-70.64,99.75c-15.26,26.62-28.58,54.84-38.69,84.36c3.19-18.81,7.87-37.15,13.73-55.08      c10.41-31.65,24.43-61.82,40.7-90.16c20.94-36.62,45.55-70.11,70.64-99.75c13.9-16.45,27.98-31.71,41.65-45.61      c36.86-37.69,70.7-65.55,90.58-80.88c11.48-8.93,18.28-13.67,18.28-13.67c220.56-612.32,553.58-338.52,553.58-338.52      c169.44-60.82,313.56,45.67,313.56,45.67c169.91-54.49,281.91,52.12,354.2,190.32c94.36,180.27,121.22,414.37,121.22,414.37      S2222.17,956.46,2153.96,1168.14z"/>
			</g>
		</g>
		<g>
			<g>
				<path class="st54" d="M1904.8,1203.18c-40.58,214.46-245.88,354.08-597,243.81c-0.06-0.06-0.06-0.06-0.12-0.06      c0,0-118.92,75.79-255.46,50.58c-205.94-38.04-250.37-239.61-250.37-239.61s-0.24-0.12-0.59-0.35      c-4.44-2.54-32.42-18.93-66.68-46.21c-0.06-0.06-0.12-0.12-0.24-0.18c-92.06-73.42-229.19-225.46-76.44-398.87      c0,0,53.72,118.5,308,50.05c0,0,232.74,303.91,556-20.29c0,0,127.43,45.61,231.09,0      C1752.99,842.05,1945.33,988.77,1904.8,1203.18z"/>
			</g>
		</g>
		<g>
			<g>
				<path class="st52" d="M1629.76,1525.99c-156.27,0-286.31-46.05-320.56-59.34c-29.82,16.94-137.32,71-260.2,48.3      c-112.48-20.77-178.43-88.5-213.95-141.66c-30.36-45.43-44.05-87.62-48.65-104.21c-21.59-13.98-42.67-28.67-62.48-43.55      c-0.04-0.03-0.09-0.06-0.13-0.1c-0.05-0.03-0.09-0.07-0.14-0.1C574.87,1113.05,500.82,988,503.56,853.67      c4.83-237.01,245.35-420,283.49-447.54c82.71-227.11,190.93-360.5,321.67-396.46c121.31-33.38,221.24,28.79,249.87,49.35      c152.12-49.85,281.11,24.81,313.38,46.04c81.07-23.83,155.63-14.3,221.74,28.38c209.02,134.93,263.78,555.8,268.11,591.91      c5.09,15.49,37.44,119.01,37.89,249.03c0.64,184.7-64.71,333.3-188.95,429.71l0,0      C1889.91,1497.87,1751.82,1525.99,1629.76,1525.99z M1314.91,1430.72c19.33,8.07,396.37,160.85,674.08-54.67c0,0,0,0,0,0      c116.64-90.51,175.59-225.27,175.22-400.55c-0.28-132.49-36.24-239.46-36.6-240.52c-0.41-1.2-0.69-2.45-0.83-3.71      c-0.5-4.38-52.62-439.13-252.35-568.02c-59.01-38.08-126.31-45.42-200.02-21.79c-5.44,1.75-11.38,0.76-15.96-2.63      c-1.35-0.99-138.89-100-297.01-43.24c-5.88,2.11-12.44,0.97-17.27-2.99c-0.99-0.81-103.23-82.7-226.42-48.58      c-119.8,33.19-220.46,160.84-299.18,379.4c-1.25,3.47-3.56,6.47-6.59,8.57c-2.68,1.86-268.24,188.78-272.91,422.54      C536.61,976.77,605.91,1092,745.03,1197c0.07,0.05,0.14,0.1,0.21,0.16l0,0c20.54,15.44,42.53,30.67,65.34,45.29      c0.37,0.21,0.71,0.42,1.01,0.62c3.86,2.54,6.59,6.49,7.58,11.01c1.73,7.74,44.76,190.6,236.26,225.97      c127.76,23.58,241.58-47.38,242.72-48.11C1303.1,1428.81,1309.58,1428.36,1314.91,1430.72z"/>
			</g>
		</g>
		<g>
			<g>
				<path class="st39" d="M2228.8,728.63c-52.8-5.52-48.24-166.44-48.24-166.44l-113.42-82.01c0,0,0,0.06-0.06,0.17      c-0.06,0.17-0.11,0.56-0.28,1.01c-0.06,0.28-0.11,0.62-0.23,0.96c-6.64,22.8-71.14,217.54-334.73,181.18      c-279.8-38.61-243.6-347.34-243.6-347.34s-78.8-69.96-184.17-33.77c-0.68,1.07-1.18,2.14-1.69,3.21      c-17.39,31.46-165.2,281.76-431.71,189.74c-210.62-72.72-102.89-276.47-43.11-365.35c18.63-27.64,50.04-43.85,83.36-42.89      c84.37,2.48,258.13,21.22,424.96,123.6c0,0,89.61-16.89,190.92,41.03c0,0,250.7-27.13,518.28,100.08      c17.45,8.27,33.26,19.76,46.83,33.49l140.26,142.23c8.95,9.01,14.86,20.6,16.89,33.15      C2257.51,593.26,2275.86,733.53,2228.8,728.63z"/>
			</g>
		</g>
		<g class="st4">
			<g>
				<path class="st0" d="M807.32,243.6c0,0,13.15-48.06,37.22-89.38c19.04-32.69,55.57-51.15,93.26-47.91      c58.06,5,164.03,24.56,310.64,94.07c0,0-184.38-44.66-306.91-57.25c-31.32-3.22-62.35,8.76-83.29,32.27      C843.68,191.75,825.97,214.18,807.32,243.6z"/>
			</g>
		</g>
		<g class="st36">
			<g>
				<path class="st52" d="M1262.33,230.25c-4.48,15.24-10.87,33.72-18.37,46.16c-0.56,0.84-0.95,1.68-1.34,2.58      c-13.84,24.98-131.19,223.72-342.81,150.62c-81.5-28.12-102.95-80.94-98.08-135.89      C1003.77,355.28,1165.26,291.48,1262.33,230.25z"/>
			</g>
		</g>
		<g>
			<g>
				<path class="st52" d="M2231.21,743.55c-1.29,0-2.6-0.07-3.93-0.21c0,0,0,0-0.01,0c-58.75-6.14-62.12-132.44-61.64-173.7      l-90.93-65.74c-19.85,50.12-89.41,178.92-279.63,178.93c-20.34,0-42.04-1.47-65.24-4.67c-152.19-21-213.86-119.45-238.81-198.34      c-21.9-69.27-19.83-134.43-18.21-157.06c-18.41-13.77-79.66-52.57-158.52-28.13c-17.96,31.82-130.43,215.73-329.24,215.74      c-36.8,0-76.54-6.3-119.21-21.03c-66.28-22.88-108.57-60.44-125.72-111.64c-31.94-95.38,33.38-213.83,75.15-275.95      c21.61-32.06,57.5-50.5,96.06-49.42c88.34,2.59,260.68,22.08,427.65,122.97c21.95-2.8,101.51-8.35,191.02,41.29      c37.16-3.23,270.19-17.55,521.41,101.88c18.72,8.87,35.88,21.14,51,36.45l140.27,142.24c11.16,11.23,18.42,25.49,20.95,41.18      c16.96,105.61,14.34,171.01-7.8,194.41C2249.14,739.85,2240.68,743.55,2231.21,743.55z M2230.33,713.92      c1.85,0.2,2.76-0.14,4.05-1.5c10.76-11.37,17.23-62.56,0.08-169.38c-1.54-9.54-5.96-18.22-12.77-25.07l-140.31-142.27      c-12.69-12.85-27.03-23.11-42.63-30.51c-260.41-123.8-507.88-98.99-510.36-98.74c-3.12,0.32-6.23-0.32-8.93-1.87      c-94.93-54.27-180.03-39.49-180.87-39.33c-3.58,0.66-7.33-0.03-10.44-1.94C1165.6,103.56,996.71,84.42,910.5,81.89      c-28.37-0.86-54.76,12.78-70.66,36.37c-38.73,57.59-99.56,166.67-71.64,250.03c14.07,42.03,50.18,73.34,107.32,93.07      c254.13,87.74,397.12-152.66,413.71-182.51c0.57-1.19,1.32-2.72,2.37-4.38c1.8-2.84,4.51-4.98,7.69-6.07      c112.23-38.55,195.31,33.6,198.79,36.7c3.62,3.21,5.43,7.98,4.87,12.78c-0.09,0.74-8.36,75.76,16.56,153.87      c32.68,102.39,104.8,161.98,214.37,177.1c250.58,34.54,312.06-148.66,318.46-170.52c0.09-0.41,0.21-0.85,0.33-1.28      c0.11-0.45,0.27-1.03,0.39-1.39c0-0.01,0.01-0.03,0.01-0.04c1.19-3.68,3.79-6.81,7.34-8.62c4.95-2.53,10.9-2.07,15.4,1.19      l113.42,82.01c3.96,2.87,6.25,7.51,6.12,12.4C2193.63,624.33,2204.83,711.24,2230.33,713.92L2230.33,713.92z M2052.36,480.13      C2052.36,480.13,2052.36,480.13,2052.36,480.13C2052.36,480.13,2052.36,480.13,2052.36,480.13z M2052.56,477.64      c-0.01,0.04-0.02,0.08-0.04,0.11C2052.53,477.72,2052.55,477.68,2052.56,477.64z M2052.76,476.79c0,0.01-0.01,0.02-0.01,0.03      C2052.75,476.81,2052.75,476.8,2052.76,476.79C2052.76,476.79,2052.76,476.79,2052.76,476.79z M2052.78,476.72      C2052.78,476.72,2052.78,476.72,2052.78,476.72c0.06-0.17,0.11-0.35,0.18-0.51C2052.89,476.39,2052.83,476.56,2052.78,476.72z       M2053.85,473.78C2053.84,473.78,2053.84,473.79,2053.85,473.78C2053.84,473.79,2053.84,473.78,2053.85,473.78z"/>
			</g>
		</g>
		<g>
			<g>
				<path class="st52" d="M1795.07,682.83c-20.34,0-42.04-1.47-65.24-4.67c-152.19-21-213.86-119.45-238.81-198.34      c-26.58-84.07-17.85-162.09-17.47-165.37c0.07-0.58,0.17-1.16,0.31-1.73c15.26-63.66,41.37-90.33,42.48-91.44      c2.39-2.39,5.51-3.88,8.87-4.25c10.24-1.11,254.15-25.76,520.17,98.56c27.31,12.76,45.25,39.09,46.82,68.72      c2.79,52.84-9.81,96.81-11.42,102.14h0C2074.48,508.1,2016.62,682.83,1795.07,682.83z M1502.86,318.69      c-0.82,8.28-6.89,79.3,16.65,153.07c32.68,102.39,104.8,161.98,214.37,177.1c21.48,2.96,41.58,4.32,60.37,4.33      c200.87,0.01,252.51-155.68,258.14-175c0.03-0.1,0.06-0.2,0.09-0.29c0.33-1.08,12.79-42.63,10.18-92.02      c-0.99-18.69-12.41-35.35-29.8-43.48c-236.09-110.33-460.17-99.34-498.68-96.44C1527.81,254.33,1512.96,277.14,1502.86,318.69z"/>
			</g>
		</g>
		<g>
			<g>
				<path class="st52" d="M985.07,510.35c-36.8,0-76.54-6.3-119.21-21.03c-66.28-22.88-108.57-60.44-125.72-111.64      c-31.94-95.38,33.38-213.83,75.15-275.95c21.61-32.06,57.5-50.5,96.06-49.42c89.16,2.62,263.87,22.44,432.27,125.78      c5.34,3.28,8.04,9.57,6.73,15.7c-0.55,2.58-13.75,63.55-33.62,96.27c-0.48,0.77-0.7,1.31-0.95,1.84      c-0.14,0.29-0.28,0.57-0.43,0.85C1301.2,318.36,1188.2,510.35,985.07,510.35z M908.1,81.85c-27.42,0-52.8,13.49-68.26,36.41      c-38.73,57.59-99.56,166.67-71.64,250.03c14.07,42.03,50.18,73.34,107.32,93.07c254.13,87.74,397.12-152.66,413.71-182.51      c0.57-1.19,1.32-2.72,2.37-4.38c12.76-21.01,23-58.63,27.44-76.67C1159.32,102.85,995.1,84.37,910.5,81.89      C909.7,81.87,908.9,81.85,908.1,81.85z"/>
			</g>
		</g>
		<g class="st36">
			<g>
				<path class="st52" d="M2018.43,491.84c-5.33,17.7-57.13,168.94-268.79,140.71c-131.24-17.53-175.91-106.54-190.34-177.57      c105.22,45.2,285.88,83.52,454.09-70.13c8.11,8.51,13.15,19.55,13.79,31.54C2029.44,457.45,2018.55,491.62,2018.43,491.84z"/>
			</g>
		</g>
		<g class="st4">
			<g>
				<path class="st0" d="M1555.92,413.68c0,0-0.73-2.58-1.69-7.28c-3.49-17.06-10.1-62.09,3.46-113.59      c3.57-13.54,16.54-23.16,31.63-24c52.61-2.92,184.16-2.1,345.47,58.58c0,0-230.04-25.49-319.65-26.12      c-14.2-0.1-26.93,7.84-32.32,19.95c-6.88,15.47-16.48,42.69-27.62,89.89L1555.92,413.68z"/>
			</g>
		</g>
		<g>
			<g>
				<path class="st53" d="M1661.4,666.51c0,0-229.18,106.05-465.54,25.47c-236.36-80.58-266.84-244.61-266.84-244.61      s4.98-2.5,14.37-6.27c66.06-27.2,348.66-122.62,609.25,107.08C1589.54,580.72,1626.05,619.75,1661.4,666.51z"/>
			</g>
		</g>
		<g class="st4">
			<g>
				<path class="st0" d="M1661.4,666.51c0,0-8.29,3.85-23.29,9.46c-290.37-334.14-638.05-198.01-688.63-175.64      c-16.46-31.34-20.46-52.96-20.46-52.96S1341.24,243.43,1661.4,666.51z"/>
			</g>
		</g>
		<g>
			<g>
				<path class="st8" d="M1661.42,681.3c-4.48,0-8.9-2.02-11.81-5.87c-129.57-171.21-288.84-259.47-473.4-262.33      c-138.14-2.03-239.68,47.05-240.68,47.55c-7.33,3.61-16.19,0.6-19.8-6.72c-3.61-7.32-0.62-16.18,6.7-19.8      c4.34-2.15,107.94-52.45,252.9-50.62c133.85,1.77,328.87,50.76,497.88,274.07c4.93,6.51,3.65,15.79-2.87,20.72      C1667.66,680.33,1664.53,681.3,1661.42,681.3z"/>
			</g>
		</g>
		<g class="st5">
			<g>
				<path class="st52" d="M1999.9,1389.29c-290.13,225.17-684.74,59.99-692.07,56.91c-0.06-0.06-0.06-0.06-0.12-0.06      c0,0-118.92,75.79-255.46,50.58c-205.94-38.04-250.37-239.61-250.37-239.61c-0.18-0.12-0.41-0.24-0.59-0.36      c-24.02-15.38-46.21-30.82-66.68-46.21c-0.06-0.06-0.12-0.12-0.24-0.18c-214.76-162.1-239.13-326.69-194.35-463.71      c1.3-3.96,2.66-7.87,4.08-11.77c1.18-3.31,2.37-6.51,3.67-9.76c0.24-0.77,0.53-1.6,0.89-2.37c1.48-3.73,2.96-7.4,4.56-11.06      c1.48-3.49,2.96-6.98,4.56-10.41c0.3-0.77,0.65-1.54,1.01-2.25c1.48-3.25,2.96-6.45,4.5-9.58c0.12-0.29,0.24-0.59,0.47-0.89      c1.66-3.49,3.37-6.92,5.15-10.29c0-0.18,0.12-0.36,0.24-0.53c3.73-7.22,7.57-14.26,11.6-21.24      c20.94-36.62,45.55-70.11,70.64-99.75c-4.91-34.02-6.03-89.28,30.94-117.26c0.12,21.42,2.6,47.39,10.71,71.65      c8.99,26.98,25.08,51.89,52.89,66.14c0,0-79.87,130.98,0.47,176.54c80.28,45.55,250.55,8.46,250.55,8.46      s77.62,137.14,269.07,105.55c191.51-31.59,112.11-164.47,112.11-164.47s54.9-36.33,76.61-95.55c2.6-6.86,4.67-14.08,6.15-21.59      l-2.48,35.08l-6.21,88.15c0,0,0,0.12,0.12,0.35c0.12,0.89,0.71,3.43,2.01,6.92c0.06,0.3,0.18,0.59,0.3,0.89      c8.05,21.48,39.52,71.88,144.65-14.26c0,0,7.04,144.35,216.18,40.35c-1.48,2.54-49.64,84.19-55.2,203.99      c-5.62,121.7-217.89,332.9-524.88,267.17c-201.8-43.19-481.75-105.25-617.23-274.1c70.28,181.63,208.55,261.67,208.55,261.67      c49.4,140.63,225.58,294.27,435.67,191.86c210.08-102.35,123.41-58.69,472.88-118.56c349.47-59.87,308.47-521.92,308.47-521.92      c24.55-139.74,0-325.45-20.47-439.75c94.36,180.27,121.22,414.37,121.22,414.37S2292.75,1162.05,1999.9,1389.29z"/>
			</g>
		</g>
		<g class="st5">
			<g>
				<path class="st8" d="M580.73,657.28c-4.02,6.98-7.87,14.02-11.6,21.24C572.8,671.3,576.71,664.26,580.73,657.28z"/>
			</g>
		</g>
		<g>
			<g>
				<path class="st52" d="M1582.78,1154.6c-21.53,6.21-41.89,12.84-61.29,19.76c-227.18,81.53-315.51,206.83-478.91,168.37      c-57.27-13.49-92.35-66.85-113.59-133c-44.67-138.67-28.46-333.44-28.46-333.44l65.37-13.96c0,0,48.1,78.92,125.84,100.28      c0,0,237.48,112.7,430.17-120.57c0,0,83.71,53.25,212.98,0C1734.89,842.05,1749.56,1106.62,1582.78,1154.6z"/>
			</g>
		</g>
		<g>
			<g>
				<path class="st52" d="M1102,1364.69c-19.93,0-40.72-2.36-62.81-7.56c-56.28-13.26-98.1-61.33-124.28-142.87      c-45.05-139.87-29.79-331.11-29.11-339.18c0.54-6.5,5.27-11.88,11.65-13.24l65.37-13.96c6.13-1.31,12.45,1.4,15.72,6.77      c0.44,0.73,46.16,74.22,117.13,93.71c0.83,0.23,1.64,0.53,2.42,0.9c0.55,0.26,58.3,27.08,137.59,25.75      c105.68-1.63,198.15-49.53,274.84-142.37c4.76-5.75,13.05-7.06,19.34-3.06c3.14,1.96,79.5,48.19,199.41-1.2      c4.43-1.82,9.47-1.39,13.52,1.16c4.05,2.55,6.62,6.91,6.88,11.69c0.62,11.28,13.3,276.92-162.78,327.58      c-20.16,5.82-40.48,12.37-60.41,19.48c-83.03,29.8-147.32,65.56-204.04,97.11C1244.65,1328.67,1179.89,1364.69,1102,1364.69z       M914.54,888.44c-2.52,42.61-8.75,201.04,28.53,316.77c22.8,71,57.42,112.42,102.9,123.13c97.26,22.9,166.4-15.56,262.07-68.78      c57.71-32.1,123.12-68.49,208.46-99.11c20.53-7.32,41.44-14.06,62.19-20.05c0,0,0.01,0,0.01,0      c127.41-36.65,140.83-215.84,141.65-277.03c-97.93,33.75-168.23,9.75-194.8-2.69c-101.17,117.03-213.51,143.02-290.8,143.93      c-80.31,0.87-138.73-23.82-148.1-28.05c-66.67-18.84-111.92-75.53-127.47-97.65L914.54,888.44z"/>
			</g>
		</g>
		<g>
			<g>
				<path class="st32" d="M1521.52,1174.35c-227.18,81.53-315.51,206.83-478.91,168.37c-57.27-13.49-92.35-66.85-113.59-133      c1.24-12.42,3.14-24.79,5.62-36.92c14.38-69.28,49.46-131.75,107.97-157.9c109.51-49.05,202.33,26.15,202.33,26.15      c109.51-47.92,179.73-13.84,223.87,38.22C1494.13,1109.1,1510.87,1144.83,1521.52,1174.35z"/>
			</g>
		</g>
		<g class="st30">
			<g>
				<path class="st52" d="M1521.52,1174.35c-227.18,81.53-315.51,206.83-478.91,168.37c-57.27-13.49-92.35-66.85-113.59-133      c1.24-12.42,3.14-24.79,5.62-36.92c121.81,87,263.03-97.74,266.76-101.11l-76.63,108.7c-16.58,23.51,0.5,55.88,29.27,55.6      c164.99-1.63,285.75-111.32,314.78-156.72C1494.13,1109.1,1510.87,1144.83,1521.52,1174.35z"/>
			</g>
		</g>
		<g>
			<g>
				<path class="st52" d="M1102,1364.69c-19.93,0-40.72-2.36-62.81-7.56c-56.28-13.26-98.1-61.33-124.28-142.87      c-0.62-1.94-0.84-3.98-0.63-6.01c10.08-99.79,55.79-177.11,122.27-206.84c99.69-44.65,185.22,5.35,210.35,22.75      c61.37-25.13,116.49-27.54,163.95-7.13c68.13,29.3,105.35,98.99,124.57,152.3c1.33,3.69,1.14,7.77-0.53,11.32      s-4.69,6.29-8.39,7.62c-83.06,29.81-147.35,65.57-204.07,97.12C1244.65,1328.67,1179.89,1364.69,1102,1364.69z M944.03,1208.16      c22.8,69.19,57.08,109.62,101.94,120.18c97.26,22.9,166.4-15.56,262.07-68.78c54.48-30.31,115.81-64.42,194.29-93.91      c-18.34-45.37-50.25-98.66-103.18-121.43c-41.67-17.92-91.56-14.42-148.31,10.4c-5.06,2.22-10.94,1.42-15.24-2.06      c-3.5-2.81-87.4-68.75-186.98-24.14C992.57,1053.48,953.61,1120.55,944.03,1208.16z"/>
			</g>
		</g>
		<g>
			<g>
				<path class="st52" d="M1253.4,1056.66c-50.54,26.71-94.35,66.7-126.36,114.11c-6.14,9.43-20.53,1-15.22-8.98      c29.49-54.68,72.57-102.12,124.6-136.3C1257.96,1013.23,1275.43,1045.16,1253.4,1056.66L1253.4,1056.66z"/>
			</g>
		</g>
		<g>
			<g>
				<g>
					<path class="st0" d="M1349,969.18c-9.17,54.31-40.94,96.73-67.03,123.47c-14.55,14.97-39.82,8.99-45.85-11.06       c-8.93-29.76-23.13-65.43-34.67-92.88C1243.7,992.02,1294.93,988.76,1349,969.18z"/>
				</g>
			</g>
			<g>
				<g>
					<path class="st0" d="M1544.71,852.57c-3.25,54.07-22.01,92-40.7,116.91c-14.2,18.81-43.84,12.54-48.81-10.53       c-3.25-15.03-6.98-29.28-10.65-42.06c26.15-19.7,52.18-44.31,77.38-74.84C1521.93,842.04,1529.92,847.13,1544.71,852.57z"/>
				</g>
			</g>
			<g>
				<g>
					<path class="st0" d="M1701.49,1041.12c-18.75,43.07-47.74,82.06-92.53,103.53c-6.27-36.09-13.19-89.75-7.63-130.22       c2.37-17.1,20.29-27.39,36.33-21.06C1654.75,1000.06,1677.53,1013.61,1701.49,1041.12z"/>
				</g>
			</g>
			<g>
				<g>
					<path class="st0" d="M1538.08,1168.61c-5.62,1.89-11.12,3.79-16.57,5.74c-29.64,10.65-56.85,22.01-82.24,33.66       c-0.47-44.31,9.41-86.85,16.62-111.93c3.55-12.48,19.05-17.1,28.69-8.46C1508.5,1108.92,1526.61,1142.64,1538.08,1168.61z"/>
				</g>
			</g>
			<g>
				<g>
					<path class="st0" d="M1310.61,1275.11c-33.31,18.46-63.78,35.26-93.83,48.28c2.01-49.52,11.24-85.96,18.58-107.73       c4.26-12.66,20.41-16.68,29.94-7.28C1284.99,1227.84,1300.2,1253.81,1310.61,1275.11z"/>
				</g>
			</g>
		</g>
		<g>
			<g>
				<g>
					<path class="st52" d="M1262.39,1112.87c-3.14,0-6.31-0.38-9.47-1.15c-13.58-3.32-24.1-13.31-28.13-26.72       c-7.13-23.74-18.65-54.6-34.25-91.71c-1.6-3.81-1.1-8.17,1.32-11.51c2.42-3.35,6.4-5.21,10.52-4.87       c49.38,3.88,97.36-2.47,142.6-18.85c3.96-1.43,8.38-0.66,11.61,2.04c3.23,2.7,4.79,6.9,4.09,11.05       c-9.75,57.75-43.57,102.44-70.23,129.76C1282.89,1108.68,1272.85,1112.87,1262.39,1112.87z M1219.56,1001.52       c12.32,30.26,21.68,55.99,27.89,76.67c1.62,5.37,5.66,9.22,11.09,10.54c5.43,1.33,11.02-0.29,14.95-4.33       c21.13-21.66,47.16-55.11,59.34-97.45C1296.36,997.75,1258.42,1002.64,1219.56,1001.52z"/>
				</g>
			</g>
			<g>
				<g>
					<path class="st52" d="M1482.1,992.39c-2.87,0-5.77-0.31-8.68-0.95c-15.11-3.33-26.52-14.83-29.79-30       c-2.84-13.12-6.36-27.02-10.46-41.29c-1.35-4.71,0.34-9.77,4.26-12.71c26.64-20.07,52-44.61,75.38-72.92       c3.8-4.6,10.44-5.65,15.48-2.45c0.04,0.02,7.32,4.55,20.51,9.41c4.9,1.8,8.04,6.6,7.72,11.81       c-2.86,47.57-17.35,89.05-43.05,123.3C1505.81,986.73,1494.3,992.39,1482.1,992.39z M1458.11,921.38       c3.32,12.05,6.22,23.81,8.66,35.06c1.32,6.11,5.71,10.55,11.76,11.89c6.19,1.36,12.19-0.87,16.04-5.98       c21.33-28.42,33.99-62.7,37.68-101.98c-2.82-1.2-5.3-2.34-7.43-3.37C1503.91,881.4,1481.52,903.01,1458.11,921.38z"/>
				</g>
			</g>
			<g>
				<g>
					<path class="st52" d="M1608.96,1156.49c-1.86,0-3.72-0.44-5.42-1.32c-3.29-1.7-5.6-4.84-6.24-8.49       c-6.65-38.24-13.38-92.51-7.7-133.85c1.62-11.72,8.44-21.88,18.69-27.86c10.33-6.03,22.61-6.98,33.7-2.6       c24.15,9.44,47.18,26.6,68.41,50.98c3,3.44,3.75,8.31,1.93,12.5c-22.77,52.3-55.83,89.13-98.26,109.48       C1612.46,1156.1,1610.71,1156.49,1608.96,1156.49z M1627.8,1003.34c-2.63,0-5.23,0.7-7.58,2.07c-3.95,2.3-6.56,6.19-7.18,10.66       c-4.52,32.89-0.39,75.62,4.9,110.21c28.76-17.8,52.1-45.62,69.58-82.97c-17.09-18.3-35.71-31.68-54.18-38.9       C1631.54,1003.69,1629.67,1003.34,1627.8,1003.34z"/>
				</g>
			</g>
			<g>
				<g>
					<path class="st52" d="M1439.28,1219.85c-2.21,0-4.41-0.62-6.33-1.84c-3.39-2.15-5.46-5.86-5.5-9.87       c-0.48-44.6,9.03-87.34,17.09-115.33c2.79-9.82,10.37-17.42,20.25-20.28c9.8-2.83,20.15-0.49,27.71,6.27       c25.68,22.89,44.85,58.87,56.41,85.02c1.34,3.04,1.35,6.51,0.01,9.55c-1.34,3.04-3.9,5.38-7.05,6.45       c-5.55,1.87-10.98,3.74-16.35,5.66c-27.29,9.8-53.89,20.69-81.29,33.28C1442.65,1219.49,1440.96,1219.85,1439.28,1219.85z        M1473.06,1095.02c-0.68,0-1.26,0.12-1.7,0.24c-0.96,0.28-3.27,1.23-4.07,4.05c-6.51,22.6-14,55.25-15.79,90.24       c22.07-9.69,43.81-18.36,66.02-26.34c1.44-0.52,2.88-1.03,4.33-1.54c-10.71-22.17-26.07-48.25-45.12-65.23       C1475.48,1095.34,1474.16,1095.02,1473.06,1095.02z"/>
				</g>
			</g>
			<g>
				<g>
					<path class="st52" d="M1216.78,1335.22c-2.35,0-4.69-0.7-6.69-2.08c-3.36-2.3-5.29-6.17-5.13-10.24       c2.07-50.84,11.57-88.44,19.19-111.03c3.33-9.9,11.4-17.25,21.6-19.68c10.11-2.39,20.52,0.5,27.87,7.76       c17.24,17.03,33.26,40.57,47.63,69.96c2.77,5.66,0.62,12.5-4.9,15.55c-31.27,17.33-63.6,35.24-94.86,48.78       C1219.97,1334.89,1218.37,1335.22,1216.78,1335.22z M1252.76,1215.03c-0.61,0-1.14,0.09-1.55,0.18       c-1.05,0.25-3.62,1.16-4.64,4.21c-6.12,18.17-13.56,46.8-16.76,85.02c21.46-10.23,43.45-22.2,65.08-34.15       c-11.79-22.31-24.52-40.27-37.91-53.5C1255.57,1215.4,1254.01,1215.03,1252.76,1215.03z"/>
				</g>
			</g>
		</g>
		<g>
			<g>
				<path class="st52" d="M1510.55,832.58c21.4-22.86,39.27-50.69,50.54-80.11c3.11-7.7,14.78-4.13,13.04,3.97      c-5.23,25.33-14.75,49.63-27.05,72.38c-7.4,11.57-16.25,37.76-34.49,26.42C1505.05,850.1,1504.06,838.99,1510.55,832.58      L1510.55,832.58z"/>
			</g>
		</g>
		<g>
			<g>
				<path class="st52" d="M1727.85,829.04c21.94-10.2,39.2-29.22,51.93-49.61c1.96-3.09,6.05-4.01,9.14-2.06      c2.7,1.71,3.74,5.04,2.67,7.92c-2.41,6.46-5.02,12.93-8.22,19.17c-9.32,18.48-22.16,35.68-38.59,48.6      c-1.24,1.07-4.1,2.77-5.7,3.81C1718.13,868.36,1704.78,835.32,1727.85,829.04L1727.85,829.04z"/>
			</g>
		</g>
		<g>
			<g>
				<path class="st52" d="M1299.22,1431.32c34.28-16.59,64.39-41.46,91.39-68.22c6.81-6.93,17.77,2.25,12.14,10.15      c-24.32,33.68-52.26,65.35-86.61,89.27C1293.8,1476.71,1275.1,1442.27,1299.22,1431.32L1299.22,1431.32z"/>
			</g>
		</g>
		<g>
			<g>
				<path class="st53" d="M1300.08,976.46c-224.4,53.25-338.52-114.12-338.52-114.12s-170.56,55.79-270.72-18.99      c-132.4-98.92-33.49-256.76-33.49-256.76s-3.49-11.77-5.98-29.05c-4.91-34.02-6.03-89.28,30.94-117.26      c3.08-2.37,6.39-4.5,10-6.45c34.96-18.58,66.85-13.73,91.29-2.78c29.88,13.31,48.69,35.73,48.69,35.73      s220.56-83.65,403.13,83.71c0,0,101.64-60.88,178.25,0c21.83,17.33,34.31,37.74,41.06,58.1c1.48,4.49,2.72,9.05,3.67,13.49      c9.94,46.15-6.21,88.15-6.21,88.15s0,0.12,0.12,0.35c0.3,0.89,1.06,3.25,2.01,6.92c0.06,0.3,0.18,0.59,0.3,0.89      C1465.02,757.91,1498.21,929.42,1300.08,976.46z"/>
			</g>
		</g>
		<g class="st4">
			<g>
				<path class="st0" d="M1441,880.62c8.58-47.03-0.53-90.58-5.15-108.09c-0.12-0.3-0.24-0.59-0.3-0.89      c-0.95-3.67-1.72-6.03-2.01-6.92c-0.12-0.24-0.12-0.36-0.12-0.36s16.15-42,6.21-88.15c-0.95-4.44-2.19-8.99-3.67-13.49      c-6.74-20.35-19.23-40.76-41.06-58.1c-76.61-60.88-178.25,0-178.25,0c-182.57-167.37-403.13-83.71-403.13-83.71      s-18.81-22.42-48.69-35.73c-24.43-10.95-56.32-15.8-91.29,2.78c-3.61,1.95-6.92,4.08-10,6.45c-5.44,4.14-10.12,8.87-13.96,14.02      c2.31-25.56,10.89-51.59,32.72-68.15c3.08-2.37,6.39-4.5,10-6.45c34.96-18.58,66.85-13.73,91.29-2.78      c29.88,13.31,48.69,35.73,48.69,35.73s220.56-83.65,403.13,83.71c0,0,101.64-60.88,178.25,0c21.83,17.33,34.31,37.74,41.06,58.1      c1.48,4.49,2.72,9.05,3.67,13.49c9.94,46.15-6.21,88.15-6.21,88.15s0,0.12,0.12,0.35c0.3,0.89,1.06,3.25,2.01,6.92      c0.06,0.3,0.18,0.59,0.3,0.89C1461,742.59,1475.91,816.31,1441,880.62z"/>
			</g>
		</g>
		<g class="st5">
			<g>
				<path class="st52" d="M1300.08,976.46c-224.4,53.25-338.52-114.12-338.52-114.12s-170.56,55.79-270.72-18.99      c-132.4-98.92-33.49-256.76-33.49-256.76s-3.49-11.77-5.98-29.05c-4.91-34.02-6.03-89.28,30.94-117.26      c0.12,21.42,2.6,47.39,10.71,71.65c5.06,15.17,12.36,29.69,22.74,42.03c14.98,17.82,19.55,42.03,10.84,63.62      c-17.12,42.39-32.16,107.57,19.79,137.03c51.02,28.95,130.55,21.1,181.73,11.53c29.03-5.43,59.06,3.33,80.34,23.8      c42.49,40.86,128.61,99.96,257.54,78.68c124.48-20.54,134.5-83.86,126.27-125.68c-4.86-24.71,2.9-50.43,20.23-68.7      c15.4-16.22,32.29-38.53,42.22-65.64c2.6-6.86,4.67-14.08,6.15-21.59l-2.48,35.08l-6.21,88.15c0,0,0,0.12,0.12,0.35      c0.12,0.89,0.71,3.43,2.01,6.92c0.06,0.3,0.18,0.59,0.3,0.89C1465.02,757.91,1498.21,929.42,1300.08,976.46z"/>
			</g>
		</g>
		<g>
			<g>
				<path class="st52" d="M1214.42,1001.6c-76.67,0-135.8-24.96-175.56-49.68c-43.48-27.04-71.06-57.72-82.89-72.47      c-39.48,11.09-182.2,44.28-273.99-24.27c-126.82-94.71-57.27-239.98-40.52-270.63c-6.49-26.36-25.88-126.68,43.93-163.76      c63.9-33.95,123.13,0.72,151.25,28.95c19.55-6.11,67.13-18.63,128.73-18.63c71.79,0,176.46,17.82,272.18,101.45      c28.84-14.38,115.22-49.32,185.29,6.35c73.6,58.47,51.77,149,44.87,171.46c6.14,21.11,26.34,104.9-14.42,178.57      c-28.04,50.69-78.45,84.98-149.82,101.91C1271.6,998.4,1241.88,1001.6,1214.42,1001.6z M961.57,847.55      c4.79,0,9.41,2.34,12.22,6.46c4.44,6.46,111.52,158.19,322.86,108.04c62.83-14.91,106.79-44.27,130.66-87.26      c39.78-71.65,11.17-158.98,10.87-159.85c-1.1-3.26-1.03-6.83,0.21-10.04c1.37-3.61,33-89.65-33.95-142.85      c-67.5-53.63-160.52,0.57-161.45,1.12c-5.62,3.33-12.76,2.61-17.57-1.8c-173.83-159.34-385.78-81.55-387.9-80.74      c-5.87,2.23-12.5,0.51-16.55-4.29l0,0c-2.25-2.65-55.77-64.45-121.69-29.44c-57.67,30.64-28.07,134.49-27.76,135.54      c1.19,4.06,0.59,8.44-1.66,12.02c-3.72,5.97-89.9,147.59,29.84,237.02c92.92,69.39,255.66,17.34,257.29,16.81      C958.49,847.79,960.04,847.55,961.57,847.55z"/>
			</g>
		</g>
		<g>
			<g>
				<ellipse class="st52" cx="1308.81" cy="686.44" rx="42.79" ry="58"/>
			</g>
		</g>
		<g>
			<g>
				<ellipse class="st52" cx="745.91" cy="578.05" rx="42.79" ry="58"/>
			</g>
		</g>
		<g>
			<g>
				<path class="st52" d="M1694.07,2109.41c-16.49,47.69-43.92,91.19-78.67,127.51c-11.28,12.08-23.97,22.73-36.81,32.91      c-3.08,2.44-7.55,1.93-9.99-1.15c-2.36-2.97-1.94-7.23,0.81-9.71c33.64-32.3,59.72-72.05,76.81-115.33      c5.42-13.84,10.48-28.67,13.46-43.06C1665.37,2076.47,1700.67,2085.44,1694.07,2109.41L1694.07,2109.41z"/>
			</g>
		</g>
		<g class="st5">
			<g>
				<path class="st52" d="M2328.97,1463.99c48.91-23.48,95.09-58.51,129.08-87.77c5.09,3.67,8.64,8.22,10.24,13.78v0.06      c12.36,42.54-49.1,78.09-68.45,88.15c-23.04-2.71-47.62-2.64-67.71-1.74C2325.01,1476.79,2322.55,1467.07,2328.97,1463.99z"/>
			</g>
		</g>
		<g>
			<g>
				<circle class="st34" cx="724.36" cy="1158.65" r="223.95"/>
			</g>
		</g>
		<g class="st4">
			<g>
				<path class="st0" d="M947.26,1136.73c-35.67-76.44-113.18-129.39-203.1-129.39c-123.65,0-223.93,100.28-223.93,223.93      c0,7.4,0.35,14.73,1.06,21.95c-13.37-28.69-20.88-60.76-20.88-94.54c0-123.71,100.28-223.99,223.93-223.99      C840.65,934.69,936.25,1023.32,947.26,1136.73z"/>
			</g>
		</g>
		<g class="st5">
			<g>
				<path class="st52" d="M948.32,1157.91c0,123.65-100.28,223.93-223.99,223.93c-123.65,0-223.93-100.28-223.93-223.93      c0-3.79,0.12-7.51,0.3-11.24c41.06,49.76,103.18,81.47,172.69,81.47c119.98,0,217.89-94.3,223.69-212.75      C929.09,1054.08,948.32,1103.72,948.32,1157.91z"/>
			</g>
		</g>
		<g>
			<g>
				<path class="st52" d="M724.36,1397.39c-131.64,0-238.74-107.1-238.74-238.74c0-131.64,107.1-238.74,238.74-238.74      c131.64,0,238.74,107.1,238.74,238.74C963.1,1290.29,856,1397.39,724.36,1397.39z M724.36,949.5      c-115.33,0-209.16,93.83-209.16,209.16s93.83,209.16,209.16,209.16c115.33,0,209.16-93.83,209.16-209.16      S839.69,949.5,724.36,949.5z"/>
			</g>
		</g>
		<g>
			<g>
				<path class="st35" d="M628.73,1368.47l-5.32,1.66l-480.33,151.93l-89.69-236.47l471.28-191.51      c45.02-17.04,104.78,30.53,133.53,106.31C686.94,1276.12,673.75,1351.37,628.73,1368.47z"/>
			</g>
		</g>
		<g class="st4">
			<g>
				<path class="st0" d="M667.54,1230.74c-31.36-58.69-81.47-92.53-120.57-77.74L75.74,1344.51l-22.36-58.92l471.28-191.51      c45.02-17.04,104.78,30.53,133.53,106.31C662.04,1210.57,665.17,1220.74,667.54,1230.74z"/>
			</g>
		</g>
		<g class="st5">
			<g>
				<path class="st52" d="M628.73,1367.7l-5.32,1.66l-480.33,151.93l-45.02-118.62l479.03-151.51l5.32-1.66      c32.95-12.48,48.81-56.09,43.72-108.27c12.6,16.45,23.66,36.21,32.07,58.39C686.94,1275.35,673.75,1350.6,628.73,1367.7z"/>
			</g>
		</g>
		<g>
			<g>
				<path class="st52" d="M143.07,1536.85c-5.99,0-11.59-3.67-13.83-9.55l-89.69-236.47c-2.85-7.51,0.82-15.92,8.26-18.95      l471.28-191.51c53.78-20.36,120.81,30.11,152.92,114.77c32.14,84.64,15.43,166.85-38.04,187.15c-0.28,0.1-0.57,0.21-0.85,0.29      l-5.32,1.66l-480.27,151.91C146.05,1536.62,144.55,1536.85,143.07,1536.85z M72.33,1293.85l79.61,209.89l471.93-149.24      c36.37-14.27,45.78-82.26,20.5-148.85c-25.36-66.86-77.76-111.6-114.47-97.73L72.33,1293.85z M628.73,1368.47h0.05H628.73z"/>
			</g>
		</g>
		<g>
			<g>
				
					<ellipse transform="matrix(0.935 -0.3547 0.3547 0.935 -492.634 126.7729)" class="st35" cx="99.49" cy="1407.18" rx="75.11" ry="126.46"/>
			</g>
		</g>
		<g class="st5">
			<g>
				<path class="st52" d="M143.07,1521.28c-38.81,14.73-90.28-26.27-115.07-91.58c-5.03-13.19-8.52-26.39-10.59-39.11      c25.14,28.81,55.67,42.77,80.82,33.19c30.94-11.71,44.43-55.32,36.03-105.66c13.55,15.56,25.5,35.44,34.2,58.27      C193.24,1441.71,181.88,1506.61,143.07,1521.28z"/>
			</g>
		</g>
		<g>
			<g>
				<path class="st52" d="M126.34,1539.9c-17.97,0-36.98-7.49-55.28-22.05c-23.78-18.93-43.99-48.1-56.9-82.13      c-28.09-74.06-13.17-146.07,33.96-163.95c23.84-9.05,51.27-2.63,77.26,18.05c23.78,18.93,43.99,48.1,56.9,82.13      c12.91,34.03,17.13,69.26,11.89,99.21c-5.73,32.71-22.01,55.7-45.85,64.74C141.27,1538.57,133.89,1539.9,126.34,1539.9z       M70.08,1297.37c-3.81,0-7.66,0.62-11.46,2.06c-30.57,11.6-38.26,69.21-16.8,125.81c11.05,29.13,27.98,53.8,47.67,69.47      c10.13,8.06,29.89,20.54,48.34,13.54c18.46-7,24.97-29.44,27.2-42.19c4.34-24.79,0.65-54.48-10.41-83.61l0,0      c-11.05-29.13-27.98-53.81-47.67-69.48C98.91,1306.56,84.79,1297.37,70.08,1297.37z"/>
			</g>
		</g>
		<g>
			<g>
				<path class="st34" d="M530.11,1438.46c-8.22,10.94-19.7,18.99-32.78,23.01l-175.47,53.66c0,0.06-0.06,0.06-0.06,0.06l-5.86,1.78      l-38.04-45.61c0,0,47.39-32.01,70.52-88.74c19.11-46.86,21.65-110.51-32.48-187.01c0,0,20.11-20.06,56.5-37.45      c30.94-14.67,73.6-27.45,125.6-24.2c25.62,1.66,47.51,18.87,56.03,43.07c5.21,14.79,10.71,33.19,14.79,54.02      C580.81,1290.85,581.28,1370.3,530.11,1438.46z"/>
			</g>
		</g>
		<g class="st4">
			<g>
				<path class="st0" d="M356.53,1282.21c29.94,59.81,25.5,110.28,9.64,149.21c-15.2,37.33-40.88,63.9-56.74,77.74l-31.53-37.81      c0,0,47.39-32.01,70.52-88.74C359.78,1354.8,365.28,1321.02,356.53,1282.21z"/>
			</g>
		</g>
		<g class="st4">
			<g>
				<path class="st0" d="M564.36,1211.04c-10.83-16.21-28.58-26.98-48.57-28.28c-52-3.25-94.66,9.53-125.6,24.2      c-23.55,11.24-40.29,23.66-49.16,31c-6.51-13.67-14.73-27.75-25.08-42.36c0,0,20.11-20.06,56.5-37.45      c30.94-14.67,73.6-27.45,125.6-24.2c25.62,1.66,47.51,18.87,56.03,43.07C557.56,1186.84,561.11,1198.32,564.36,1211.04z"/>
			</g>
		</g>
		<g class="st5">
			<g>
				<path class="st52" d="M530.11,1437.69c-8.22,10.94-19.7,18.99-32.78,23.01l-175.47,53.66c0,0.06-0.06,0.06-0.06,0.06l-5.86,1.78      l-38.04-45.61c0,0,47.39-32.01,70.52-88.74c70.76,35.97,83.36-63.72,83.36-63.72c87.32-3.02,123.12-46.03,137.08-87.85      C580.81,1290.08,581.28,1369.53,530.11,1437.69z"/>
			</g>
		</g>
		<g>
			<g>
				<path class="st52" d="M315.94,1531.76c-4.32,0-8.5-1.89-11.36-5.32l-38.04-45.62c-2.68-3.21-3.87-7.41-3.28-11.55      s2.9-7.84,6.37-10.18c0.59-0.4,61.39-42.49,74.08-112.74c8.21-45.42-5.2-93.27-39.84-142.21c-4.17-5.89-3.48-13.93,1.63-19.02      c0.9-0.89,22.34-22.05,60.56-40.32c41.95-19.9,86.66-28.51,132.9-25.61c31.36,2.03,58.45,22.8,69.05,52.92      c21.5,61.21,46.7,178.35-26.08,275.23c0,0,0,0,0,0c-10.15,13.51-24.07,23.28-40.25,28.26l-174.55,53.38      c-0.38,0.15-0.76,0.28-1.15,0.4l-5.74,1.74C318.82,1531.55,317.37,1531.76,315.94,1531.76z M299.05,1473.62l21.94,26.31      L493,1447.32c10.15-3.12,18.9-9.26,25.28-17.75l0,0c64.52-85.88,41.37-192.02,21.83-247.65c-6.66-18.91-23.55-31.95-43.02-33.21      c-41.16-2.6-80.98,5.1-118.31,22.8c-19.78,9.45-34.47,19.8-43.2,26.69c33.81,52.02,46.32,103.69,37.17,153.75      C361.48,1413.66,320.35,1455.56,299.05,1473.62z M530.11,1438.46h0.05H530.11z"/>
			</g>
		</g>
		<g>
			<g>
				<path class="st52" d="M315.94,1531.76c-4.32,0-8.5-1.89-11.36-5.32l-38.04-45.62c-2.68-3.21-3.87-7.41-3.28-11.55      s2.9-7.84,6.37-10.18c0.59-0.4,61.39-42.49,74.08-112.74c8.21-45.42-5.2-93.27-39.84-142.21c-4.17-5.89-3.48-13.93,1.63-19.02      c0.9-0.89,22.34-22.05,60.56-40.32c4.58-2.19,9.97-1.88,14.27,0.83c1.9,1.2,3.47,2.79,4.63,4.63      c8.06,11.16,78.78,113.04,58.41,222.83c-11.46,61.78-49.51,113.66-113.08,154.2c-1.3,0.91-2.75,1.62-4.3,2.08l-5.74,1.74      C318.82,1531.55,317.37,1531.76,315.94,1531.76z M299.05,1473.62l20.93,25.09c52.96-35.32,84.66-79.3,94.27-130.83      c15.31-82.08-29.15-162.63-46.81-190.56c-14.12,7.7-24.89,15.39-31.85,20.89c33.81,52.02,46.32,103.69,37.17,153.75      C361.48,1413.66,320.35,1455.56,299.05,1473.62z"/>
			</g>
		</g>
		<g>
			<g>
				<polygon class="st35" points="1355.83,2688.9 995.47,2775.51 946.37,2787.29 899.22,2632.76 1344.88,2600.16 1346.42,2612.76           "/>
			</g>
		</g>
		<g class="st4">
			<g>
				<polygon class="st0" points="1355.84,2688.9 1355.72,2688.9 1351.16,2651.92 1349.62,2639.32 911,2671.39 899.23,2632.76       1344.89,2600.16 1346.43,2612.76     "/>
			</g>
		</g>
		<g class="st5">
			<g>
				<path class="st52" d="M1355.83,2688.13l-360.35,86.61c-22.66-49.64-33.4-79.52-33.4-79.52c9.23,4.97,346.18-23.85,349.33-26.38      c16.28-13.06,16.67-35.44,35.02-56.85L1355.83,2688.13z"/>
			</g>
		</g>
		<g>
			<g>
				<path class="st52" d="M946.34,2802.06c-6.36,0-12.2-4.14-14.14-10.48l-47.14-154.5c-1.31-4.3-0.6-8.97,1.95-12.68      c2.54-3.71,6.64-6.06,11.12-6.39l445.7-32.61c7.89-0.53,14.79,5.12,15.76,12.94l10.94,88.72c0.92,7.47-3.91,14.43-11.23,16.19      l-409.49,98.38C948.65,2801.93,947.49,2802.06,946.34,2802.06z M918.77,2646.17l37.67,123.47l383.12-92.05l-7.6-61.65      L918.77,2646.17z"/>
			</g>
		</g>
		<g>
			<g>
				<path class="st34" d="M933.49,2730.7L933.49,2730.7c-18.17,6.89-38.48-2.25-45.37-20.42l-464.6-1224.75      c-6.89-18.17,2.25-38.48,20.42-45.37h0c18.17-6.89,38.48,2.25,45.37,20.42l464.6,1224.75      C960.79,2703.49,951.65,2723.81,933.49,2730.7z"/>
			</g>
		</g>
		<g class="st4">
			<g>
				<path class="st0" d="M933.47,2730.67c-3.43,1.3-7.04,2.07-10.53,2.25c3.9-8.28,4.5-18.1,1.01-27.33l-464.6-1224.71      c-5.32-14.08-18.7-22.72-32.89-22.72c-0.65,0-1.3,0-1.95,0.06c3.73-8.05,10.47-14.67,19.41-18.04      c4.08-1.54,8.34-2.31,12.48-2.31c14.2,0,27.57,8.64,32.89,22.72l464.6,1224.77C960.8,2703.51,951.63,2723.81,933.47,2730.67z"/>
			</g>
		</g>
		<g>
			<g>
				<polygon class="st35" points="951.4,2781.84 563.18,2945.13 521,2869.93 519.46,2867.15 897.86,2629.44 915.13,2678.66     "/>
			</g>
		</g>
		<g class="st4">
			<g>
				<polygon class="st0" points="912.06,2669.97 539.94,2903.72 521,2869.93 519.47,2867.15 897.86,2629.44     "/>
			</g>
		</g>
		<g class="st5">
			<g>
				<polygon class="st52" points="951.4,2781.07 563.18,2944.36 521,2869.16 588.01,2897.74 923.38,2701.36     "/>
			</g>
		</g>
		<g>
			<g>
				<path class="st52" d="M921.07,2747.78c-20.17,0-39.21-12.3-46.78-32.25l-464.6-1224.76c-9.77-25.76,3.23-54.67,28.99-64.44      c25.78-9.78,54.68,3.24,64.45,28.99l464.6,1224.76c4.74,12.48,4.33,26.05-1.15,38.23c-5.48,12.17-15.37,21.48-27.85,26.22      C932.92,2746.73,926.94,2747.78,921.07,2747.78z M456.38,1452.66c-2.4,0-4.84,0.42-7.21,1.32      c-10.51,3.99-15.82,15.79-11.83,26.29l464.6,1224.76c3.99,10.5,15.79,15.81,26.3,11.83c5.09-1.93,9.13-5.73,11.36-10.7      c2.24-4.97,2.4-10.51,0.47-15.6l-464.6-1224.76C472.38,1457.68,464.61,1452.66,456.38,1452.66z"/>
			</g>
		</g>
		<g>
			<g>
				<path class="st52" d="M563.18,2959.9c-5.21,0-10.22-2.76-12.91-7.56l-43.74-77.97c-3.85-6.88-1.64-15.57,5.03-19.76      l378.43-237.71c3.81-2.39,8.51-2.92,12.74-1.44c4.25,1.48,7.59,4.82,9.08,9.06l53.53,152.4c2.59,7.38-1.01,15.5-8.22,18.54      L568.9,2958.74C567.04,2959.52,565.09,2959.9,563.18,2959.9z M539.22,2872.18l30.39,54.17l363.21-152.75l-42.77-121.79      L539.22,2872.18z"/>
			</g>
		</g>
		<g>
			<g>
				<path class="st52" d="M886.84,2839.22c-16.32,0-31.72-9.95-37.84-26.09l-43.05-113.5c-3.83-10.09-3.5-21.07,0.93-30.92      s12.43-17.38,22.53-21.21l113.5-43.06c20.84-7.9,44.23,2.62,52.13,23.46l43.05,113.5c7.91,20.84-2.62,44.23-23.46,52.13      l-113.5,43.06C896.43,2838.37,891.6,2839.22,886.84,2839.22z M957.23,2631.4c-1.27,0-2.57,0.22-3.83,0.7l-113.5,43.06      c-2.71,1.03-4.85,3.05-6.04,5.69c-1.19,2.64-1.28,5.59-0.25,8.3l43.05,113.5c2.12,5.59,8.4,8.41,13.98,6.29l113.5-43.06h0      c5.59-2.12,8.41-8.39,6.29-13.98l-43.05-113.5C965.73,2634.07,961.6,2631.4,957.23,2631.4z"/>
			</g>
		</g>
		<g>
			<g>
				<path class="st8" d="M1009.39,2779.71l-113.5,43.05c-13.24,5.02-28.04-1.64-33.06-14.87l-43.05-113.5      c-5.02-13.24,1.64-28.04,14.87-33.06l113.5-43.05c13.24-5.02,28.04,1.64,33.06,14.87l43.05,113.5      C1029.28,2759.89,1022.62,2774.69,1009.39,2779.71z"/>
			</g>
		</g>
		<g>
			<g>
				<polygon class="st35" points="1039.19,2906.44 966.01,2936.91 925.78,2842.42 880.76,2736.58 966.96,2707.42 1006.3,2815.86           "/>
			</g>
		</g>
		<g class="st4">
			<g>
				<polygon class="st0" points="986.78,2762.08 903.6,2790.24 880.77,2736.58 966.97,2707.42     "/>
			</g>
		</g>
		<g class="st5">
			<g>
				<polygon class="st52" points="1039.19,2905.67 966.01,2936.14 925.78,2841.65 1006.3,2815.09     "/>
			</g>
		</g>
		<g>
			<g>
				<path class="st52" d="M966.01,2951.68c-5.75,0-11.22-3.38-13.61-9l-85.26-200.33c-1.61-3.79-1.57-8.08,0.11-11.84      c1.68-3.76,4.86-6.65,8.76-7.96l86.21-29.16c7.62-2.59,15.9,1.4,18.64,8.96l72.26,199.04c2.7,7.43-0.92,15.67-8.22,18.71      l-73.21,30.45C969.83,2951.32,967.9,2951.68,966.01,2951.68z M900.6,2745.46l73.27,172.14l46.62-19.39l-62.5-172.16      L900.6,2745.46z"/>
			</g>
		</g>
		<g>
			<g>
				<path class="st53" d="M528.73,1083.6c-12.01,7.28-28.58,15.03-50.11,20.06c0,0,4.85,34.61,1.54,70.05      c-1.36,14.85-15.8,24.96-30.29,21.48c-23.61-5.68-61.17-18.52-104.36-47.63c0,0,18.99,39.87,14.14,90.22      c-1.6,16.8-19.58,26.8-34.96,19.76l-104.01-47.86l-85.13,34.55c3.85-26.21,12.36-56.97,23.84-85.08      c11.77-29.17,26.86-55.43,43.13-70.64c18.34-17.16,35.14-32.01,52.06-42.95c0.47-0.3,0.71-0.41,0.71-0.41s0.06-0.06,0.18-0.12      c2.19-1.3,21-12.6,49.52-23.43c55.91-21.24,149.15-40.52,226.29,21.65c4.67,3.79,7.63,8.93,8.7,14.26      C541.98,1067.21,538.07,1077.86,528.73,1083.6z"/>
			</g>
		</g>
		<g>
			<g>
				<path class="st55" d="M358.69,1196.24c1.01,7.28,1.66,15.15,1.72,23.43c-4.26-17.63-9.47-28.52-9.47-28.52      C353.55,1192.93,356.15,1194.59,358.69,1196.24z"/>
			</g>
		</g>
		<g class="st4">
			<g>
				<path class="st0" d="M530.68,1082.18c-75.9-56.5-165.77-37.69-220.26-16.98c-28.52,10.83-47.33,22.13-49.52,23.43      c-0.12,0.06-0.18,0.12-0.18,0.12s-0.24,0.12-0.71,0.41c-16.92,10.94-33.72,25.79-52.06,42.95      c-16.27,15.2-31.36,41.47-43.13,70.64c-4.61,11.24-8.7,22.89-12.25,34.55l-17.04,6.92c3.85-26.21,12.36-56.97,23.84-85.08      c11.77-29.17,26.86-55.43,43.13-70.64c18.34-17.16,35.14-32.01,52.06-42.95c0.47-0.3,0.71-0.41,0.71-0.41s0.06-0.06,0.18-0.12      c2.19-1.3,21-12.6,49.52-23.43c55.91-21.24,149.15-40.52,226.29,21.65c4.67,3.79,7.63,8.93,8.7,14.26      C541.86,1066.5,538.61,1076.32,530.68,1082.18z"/>
			</g>
		</g>
		<g>
			<g>
				<path class="st52" d="M335.08,1277.54c-6.07,0-12.14-1.29-17.79-3.89l-97.05-44.66l-77.99,31.69      c-5.9,2.39-12.62,1.45-17.63-2.47c-5.01-3.92-7.53-10.23-6.62-16.53c8.05-55.29,36.14-132.3,72.37-166.14      c20.06-18.74,37.02-33.55,54.53-44.88c0.47-0.29,0.86-0.53,1.19-0.73c0.09-0.06,0.18-0.11,0.27-0.16l0,0      c6.94-4.13,25.68-14.66,52.29-24.76c54.2-20.58,157.94-44.76,243.75,24.44c10.76,8.67,16.64,22.1,15.73,35.93      c-0.91,13.75-8.45,26.23-20.18,33.37c-12.2,7.43-25.66,13.47-40.15,18.04c1.15,14.12,2.14,36.07,0.04,58.57      c-1.13,12.13-7.49,23.17-17.43,30.29c-10.05,7.2-22.7,9.67-34.71,6.78c-17.57-4.21-42.08-12.08-70.62-26.74      c2.69,15.42,4.17,33.83,2.24,53.77c-1.3,13.49-9.13,25.6-20.95,32.39C349.81,1275.63,342.45,1277.54,335.08,1277.54z       M220.67,1191.91c2.53,0,5.07,0.54,7.42,1.63l104.03,47.87c3.02,1.39,5.59,0.24,6.56-0.32c1.11-0.64,3.03-2.15,3.31-5.03      c4.29-44.46-12.39-80.53-12.55-80.89c-3.4-7.22-1.56-15.85,4.49-21.05c6.06-5.2,14.83-5.74,21.45-1.28      c40.89,27.52,76.19,39.7,98.6,45.07c2.74,0.66,4.79-0.43,5.77-1.13c0.92-0.66,2.51-2.15,2.75-4.71      c3.07-32.98-1.44-65.6-1.49-65.93c-1.28-9.09,4.58-17.66,13.52-19.76c16.68-3.91,31.8-9.95,44.96-17.96      c2.6-1.58,3.13-4.05,3.22-5.38c0.09-1.37-0.12-3.97-2.59-5.96c-68.43-55.17-151.36-40.72-208.88-18.88      c-22.47,8.53-38.78,17.46-45.06,21.1c-0.74,0.67-1.43,1.12-2.71,1.63c-14.97,9.76-30.41,23.31-48.88,40.56      c-23.04,21.52-43.96,70.21-55.08,113.86l54.47-22.14C216.13,1192.34,218.4,1191.91,220.67,1191.91z M263.12,1061.06      L263.12,1061.06L263.12,1061.06z"/>
			</g>
		</g>
		<g class="st5">
			<g>
				<path class="st52" d="M528.73,1082.83c-12.01,7.28-28.58,15.03-50.11,20.06c0,0,4.85,34.61,1.54,70.05      c-1.36,14.85-15.8,24.96-30.29,21.47c-23.61-5.68-61.17-18.52-104.36-47.63c0,0,18.99,39.88,14.14,90.22      c-1.6,16.8-19.58,26.8-34.96,19.76l-104.01-47.86l-85.13,34.55c3.85-26.21,12.36-56.97,23.84-85.08      c78.98-23.78,143.7,14.97,143.7,14.97c-29.88-85.61,40.35-92.23,40.35-92.23c22.6,34.55,102.88,68.04,102.88,68.04      c2.43-43.72-14.85-92.41-14.85-92.41h108.5C541.98,1066.44,538.07,1077.09,528.73,1082.83z"/>
			</g>
		</g>
	</g>
</g>
</svg>