<svg xmlns="http://www.w3.org/2000/svg" xmlns:xlink="http://www.w3.org/1999/xlink" version="1.1" id="Layer_1" x="0px" y="0px" style="enable-background:new 0 0 2900.61 2674.9;" xml:space="preserve" viewBox="0 -0.01 2900.62 2674.91">
<style type="text/css">
	.st0{fill:#EDC190;}
	.st1{fill:#FFFFFF;}
	.st2{fill:#008DF6;}
	.st3{fill:#73747F;}
	.st4{opacity:0.25;}
	.st5{fill:#591124;}
	.st6{opacity:0.4;}
	.st7{fill:#AA664F;}
	.st8{fill:#BD6B3E;}
	.st9{fill:none;}
	.st10{fill:#707169;}
	.st11{opacity:0.5;}
	.st12{fill:#FF0068;}
	.st13{fill:#FCC06A;}
	.st14{fill:#000072;}
	.st15{fill:#381A4C;}
	.st16{fill:#F3AE75;}
	.st17{fill:#A16044;}
	.st18{fill:#381D40;}
	.st19{opacity:0.35;}
	.st20{opacity:0.3;}
	.st21{fill:#5F5F82;}
	.st22{fill:#F85189;}
	.st23{fill:#040371;}
	.st24{fill:#5F537B;}
	.st25{fill:#40DB37;}
	.st26{opacity:0.15;}
	.st27{fill:#FAA327;}
	.st28{fill:#FA396E;}
	.st29{fill:#FF6679;}
	.st30{fill:none;stroke:#040371;stroke-width:31.5241;stroke-linecap:round;stroke-linejoin:round;stroke-miterlimit:10;}
	.st31{fill:#F73C69;}
	.st32{fill:#FF8F8F;}
	.st33{fill:#F76D88;}
	.st34{fill:#EF7F25;}
	.st35{fill:#F63C6B;}
	.st36{fill:#FC8026;}
	.st37{opacity:0.2;}
	.st38{fill:#D2623A;}
	.st39{fill:#F9D6B6;}
	.st40{fill:#530505;}
	.st41{fill:#BC462F;}
	.st42{fill:#F4B68C;}
	.st43{fill:#650000;}
	.st44{fill:#FEBE8E;}
	.st45{fill:#CC653A;}
	.st46{fill:none;stroke:#530505;stroke-width:31.9372;stroke-linecap:round;stroke-linejoin:round;stroke-miterlimit:10;}
	.st47{fill:#FECD28;}
	.st48{fill:#26DD5A;}
	.st49{fill:none;stroke:#040371;stroke-width:31.4909;stroke-linecap:round;stroke-linejoin:round;stroke-miterlimit:10;}
	.st50{fill:#FF78A9;}
	.st51{fill:#FF8243;}
	.st52{fill:#BC7455;}
	.st53{fill:#52E867;}
	.st54{fill:#0F177C;}
	.st55{fill:#F70200;}
	.st56{fill:#FFF36D;}
	.st57{fill:#F954BE;}
	.st58{fill:#3AD4FF;}
	.st59{fill:#020772;}
	.st60{fill:#FFD7E4;}
	.st61{fill:#FF2222;}
	.st62{fill:#FFC2E7;}
	.st63{fill:#FFB518;}
	.st64{fill:#8D90A3;}
	.st65{fill:#4E5260;}
	.st66{fill:#F27E80;}
	.st67{fill:#FF5C64;}
	.st68{fill:#4C0B0B;}
	.st69{fill:#E0243F;}
</style>
<g>
	<g>
		<g>
			<g>
				<g>
					<path class="st0" d="M2228.08,2280.47c-6.12-2.59-10.02-7.16-11.29-13.22c-2.69-12.81,8.03-30.19,17.47-42.51       c-0.4,0.01-0.83,0.03-1.21,0.03c-1.76,0-3.36-0.08-4.82-0.24c-7.28-0.81-9.49-5.65-10.1-7.7       c-3.69-12.26,22.05-41.69,76.34-87.39c-4.99-4.95-10.34-9.11-16.04-12.02c-3.59-1.83-5.01-6.23-3.18-9.81       c1.84-3.59,6.23-5.01,9.82-3.17c9.27,4.74,17.62,12.03,25.09,20.56c0.15,0.15,0.32,0.28,0.46,0.45       c0.1,0.12,0.16,0.25,0.25,0.37c19.38,22.53,32.53,53.56,39.03,71.48c6.75-12.06,15.98-34.36,18.69-69.06       c2.56-32.84-6.33-62.39-24.4-81.06c-14.45-14.92-34.27-22.27-57.4-21.21c-57.86,2.63-112.4,79.87-112.94,80.65       c-1.94,2.77-5.54,3.85-8.68,2.6l-93.94-37.33c-10.53,8.47-44.35,35.83-63.54,52.94c-15.54,13.86-44.8,58.17-64.16,87.48       c-6.45,9.77-11.58,17.53-15.14,22.59c17.86,24.11,117.12,145.94,283.75,125.09c72.67-8.02,138.57-51.59,164.55-70.8       c-14.32,1.29-29.55,1.84-44.65,1.84C2285.71,2291.05,2240.74,2285.83,2228.08,2280.47z"/>
				</g>
				<g>
					<path class="st1" d="M2275.25,2107.61c0,0,5.75-49.99,25.43-57.99c19.68-8,44.72-3.84,51.05,6.77s19.46,38.41,20.4,40.76       s1.77,46.51,1.35,51.49c-0.41,4.98-23.47,54.17-23.47,54.17s-28.24-74.91-48.94-86.75S2275.25,2107.61,2275.25,2107.61z"/>
				</g>
				<g>
					<path class="st2" d="M1466.72,2324.99c8.14-13.33,20.02-32.79,23.36-38.96c-5.82-21.43-63.32-194.9-103-313.65       c-0.12,0-0.22,0-0.35,0c-29.6,0.26-49.26,0.37-62.38,0.37c-9.94,0-16.1-0.06-20.03-0.16l-107.12,322.27l43.73,54.23       l103.57,61.24c7.04-3.76,14.75-7.9,22.69-12.18c0.01-0.01,0.03-0.02,0.04-0.02c35.57-19.17,75.98-41.26,83.27-46.19       C1452.09,2349.02,1456.02,2342.52,1466.72,2324.99z"/>
				</g>
				<g>
					<path class="st1" d="M1545.11,1954.6c-0.08,0-0.15,0-0.23,0c-3.17,0-12.24-2-95.9-83.34c0.62,17.93,1.46,43.02,1.46,46.72       c0,3.33,0,7.11-26.78,31.08c-11.26,10.08-18.18,15.78-22.62,19.02c105.21,314.77,104.46,317.9,103.78,320.61       c-0.65,2.58-3.73,8.01-25.64,43.9c-0.98,1.6-1.97,3.22-2.96,4.85c15.93-8.26,39.47-19.77,69.29-32.45       c0.05-0.04,0.09-0.09,0.15-0.13c0.88-0.6,1.84-0.96,2.82-1.14c75.8-31.97,190.55-70.59,322.49-82.26       c-8.36-8.39-15.26-18.01-18.13-27.1c-7.4-23.43,3.09-103.31,5.39-119.94c-7.91-16.51-65.09-134.5-106.12-179.79       c-2.7-2.98-2.47-7.6,0.51-10.3c2.99-2.69,7.59-2.48,10.31,0.51c36.81,40.65,84.21,133.7,102.17,170.3       c26.54-58.78,81.04-98.45,99.21-110.48c-66.92-119.85-173.31-172.9-190.36-180.81c-19.38,5.83-38.62,11.13-57.72,16.03       c-15.06,15.67-160.78,167.26-165.49,172.26C1549.38,1953.59,1547.09,1954.57,1545.11,1954.6z M1681.19,1979.47       c0-4.03,3.27-7.29,7.29-7.29c4.03,0,7.29,3.26,7.29,7.29v23.93c19.64-0.84,34.06-0.25,38.3,2.72       c16.26,11.38,7.23,45.9,3.19,52.7c-2.36,3.95-5.95,4.98-8.87,4.34c-2.82-0.24-15.09-0.36-32.62-0.39v17.09       c0,4.03-3.27,7.29-7.29,7.29c-4.03,0-7.29-3.26-7.29-7.29v-17.1c-37.42,0.02-89.61,0.29-129.44,0.58c-0.01,0-0.03,0-0.05,0       c-1.92,0-3.77-0.76-5.14-2.12c-1.38-1.37-2.16-3.23-2.16-5.18v-30.15c0-3.65,2.69-6.73,6.31-7.23       c37.48-5.11,90.77-11.81,130.48-14.47V1979.47z"/>
				</g>
				<g>
					<path class="st1" d="M663.26,2088.51c31.83,24.05,75.17,56.79,102.3,131.36c5.32-0.37,14.45-1.56,24.39-5.23       c0.13-0.05,0.26-0.09,0.39-0.14c10.09-3.79,20.97-10.16,29.52-20.88c18.72-23.49,21.55-60.84,8.44-110.99       c-38.74-68.49-105.53-114.74-116.09-121.77c-4.46-0.25-17.82-0.27-27.15,7.39c-5.1,4.19-8.22,10.34-9.54,18.13       c15.95,10.01,71.12,48.71,104.77,123.74c1.65,3.68,0.01,7.99-3.67,9.64c-0.97,0.43-1.99,0.64-2.98,0.64       c-2.79,0-5.45-1.61-6.66-4.31c-32.73-72.97-88.24-110.5-100.47-118.11c-7.68,2.27-29.65,9.93-38.83,25.43       c-4.31,7.27-5.17,15.25-2.63,24.37C629.22,2062.79,644.24,2074.14,663.26,2088.51z"/>
				</g>
				<g>
					<path class="st1" d="M444.84,2125.91c20.33,5.74,36.36,4.96,47.66-2.47c14.17-9.32,16.83-26.32,17.19-29.21       c-1.63-37.76-13.47-64.95-35.2-80.8c-25.69-18.72-59.89-17.78-79.42-15.19C454.37,2047.93,449.02,2105.74,444.84,2125.91z"/>
				</g>
				<g>
					<path class="st1" d="M1154.16,1943.18c16.91-16.53,73.22-72.71,117.17-116.66c-43.72-1.62-83.7-4.85-119.05-8.82       c-51.63-5.8-97.28-13.51-135.54-21.3c15.17,16.12,39.2,41.64,63.27,67.27C1125.29,1911.86,1145.31,1933.16,1154.16,1943.18z"/>
				</g>
				<g>
					<path class="st1" d="M1446.2,1848.09c43.37,42.37,84.5,81.01,97.48,90.31c19.19-20.03,107.84-112.26,145.99-151.95       c-94.24,22.32-184.39,33.9-266.93,38.59c7.68,7.59,15.43,15.21,23.11,22.72C1445.98,1847.87,1446.09,1847.98,1446.2,1848.09z"/>
				</g>
				<g>
					<path class="st2" d="M1263.31,1928.69c16.25,12.81,33.5,26.12,38.15,29.25c4.48,0.22,22.2,0.42,85.14-0.15       c1.61-0.01,2.93-0.03,3.89-0.03c7.79-5.28,40.09-33.66,45.34-41.23c-0.16-8.05-1.27-40.53-1.96-60.02       c-9.42-9.24-19.7-19.4-30.82-30.47c-39.21,1.74-76.58,1.97-111.71,1.1c-3.84,3.85-12.82,12.83-24.47,24.46L1263.31,1928.69z"/>
				</g>
				<g>
					<path class="st1" d="M1347.46,2425.24c-0.14,0.07-0.27,0.16-0.42,0.22c-3.19,1.28-73.63,29.2-136.11,21.57       c6.25,11.86,17.8,30.21,35.15,44.75c36.52,18.03,91.12,36.14,160.23,33.62c5.93-8.93,23.31-38.45,12.28-63.27       c-11.43-25.73-38.6-43.62-48-49.22c-7.08,3.8-14.63,7.84-22.84,12.22C1347.66,2425.18,1347.55,2425.2,1347.46,2425.24z"/>
				</g>
				<g>
					<path class="st1" d="M2233.65,2214.14c21.06-0.14,71.15-14.05,97-21.91c-6.2-14.79-15.17-33-26.57-47.85       C2272.95,2170.73,2240.74,2201.66,2233.65,2214.14z"/>
				</g>
				<g>
					<path class="st1" d="M2361.12,2211.06c-4.43,7.4-7.86,11.09-8.23,11.47c-1.39,1.45-3.3,2.24-5.26,2.24       c-0.58,0-1.16-0.07-1.74-0.21c-2.53-0.62-4.53-2.55-5.26-5.05c-0.06-0.2-1.65-5.54-4.62-13.66       c-15.6,4.78-52.69,15.7-80.8,20.51c-11.35,12.5-25.96,33.18-24.13,41.85c0.18,0.87,0.56,1.88,2.7,2.78       c24.98,10.57,176.12,17.8,201.8-8.71c13.81-14.26,21.17-30.17,20.18-43.66c-0.46-6.24-2.78-11.55-6.21-14.19       C2442.81,2200.33,2399.09,2204.48,2361.12,2211.06z"/>
				</g>
				<g>
					<path class="st0" d="M1729.22,2048.8c1.53,0.11,2.36,0.23,2.91,0.35C1731.12,2048.83,1730.13,2048.69,1729.22,2048.8z"/>
				</g>
				<g>
					<path class="st1" d="M1725.97,2018.27c-3.56-1.24-14.51-1.26-30.19-0.38v30.29c16.05,0.07,25.02,0.23,30.11,0.44       C1728.58,2040.55,1730.64,2022.24,1725.97,2018.27z"/>
				</g>
				<g>
					<path class="st1" d="M1872.86,2075.06c-3.74,26.57-11.84,96.84-6.12,114.93c4.68,14.82,25.45,33.42,39.52,38.93       c5.56,2.18,7.47,1.33,7.49,1.33c2.74-3.46,9.63-13.89,17.61-25.96c20.96-31.74,49.66-75.2,66.62-90.33       c19.89-17.74,55.22-46.27,64.92-54.07c0.51-11.34-0.38-34.81-9.24-45.68c-10.4-12.77-25.47-8.49-26.1-8.3       c-1.43,0.42-2.91,0.34-4.28-0.09c-16.27,11.93-60.11,46.63-90.83,94.91c-1.39,2.18-3.75,3.38-6.16,3.38       c-1.34,0-2.7-0.37-3.91-1.14c-3.4-2.16-4.4-6.67-2.24-10.07c35-55,84.76-92.09,98.15-101.5c-0.36-6.18-2.08-15.61-8.61-23.24       c-7.08-8.27-18.48-12.81-33.81-13.58C1963.9,1962.22,1896.08,2007.95,1872.86,2075.06z"/>
				</g>
				<g>
					<path class="st1" d="M1681.19,2048.15v-29.29c-32.75,2.47-78.49,7.56-122.2,13.42v16.43       C1617.1,2048.29,1655.6,2048.13,1681.19,2048.15z"/>
				</g>
				<g>
					<path class="st1" d="M834.32,2064.21c17.41-37.44,69.03-146.31,97.61-183.61c2.45-3.21,7.02-3.81,10.22-1.36       c3.2,2.45,3.8,7.03,1.35,10.23c-30.76,40.16-91.98,172.19-100.69,191.11c13.85,54.12,9.96,95.27-11.67,122.27       c-4.16,5.2-8.74,9.49-13.48,13.13c54.02,4.98,188.5,22.45,320.54,79.29c0.62,0.17,1.22,0.44,1.78,0.78       c21.91,9.49,43.74,20.07,65.12,31.87l-21.78-27c-1.56-1.93-2.02-4.53-1.24-6.88l108.37-326.04       c-5.65-4.04-16.67-12.4-39.15-30.18c-1.84-1.46-2.87-3.71-2.76-6.06l3-64.86c-7.99,7.98-16.54,16.52-25.1,25.06       c-16.77,16.72-33.55,33.44-46.18,45.95c-19.09,18.92-23.3,23.09-26.45,23.09c-0.89,0-1.7-0.33-2.73-0.76       c-1.27-0.53-2.34-1.39-3.12-2.46c-5.3-6.21-95.48-102.15-156.3-166.71c-54.07-12.03-89.38-23.27-100.23-26.89       c-16.87,11.78-104.17,76.12-167.14,187.25C742.14,1963.7,796.82,2004.32,834.32,2064.21z"/>
				</g>
				<g>
					<path class="st3" d="M1917.29,2244.4c-1.4,0.37-2.98,0.6-4.78,0.6c-1.41,0-2.93-0.14-4.61-0.45       c-6.09-1.14-13.49-4.72-20.9-9.75c-132.73,9.54-248.9,47.49-326.42,79.63c20.3,33.79,96.26,175.38,52.22,333.9       c120.64-0.21,244.68-22.75,360.46-67.04c170.61-65.26,196.18-174.96,199.99-204.33C2025.3,2376.52,1936.48,2270,1917.29,2244.4       z"/>
				</g>
				<g>
					<path class="st3" d="M1488.63,2347.44c24.09,31.12,110.42,157.82,42.77,297.62c21.9,1.84,44.02,2.88,66.27,3.19       c45.84-158.04-33.35-299.81-50.68-328.08C1522.85,2330.56,1503.16,2340.04,1488.63,2347.44z"/>
				</g>
				<g>
					<path class="st1" d="M344.92,2231.62c-73.86-63.83-63.89-166.27-56.02-207.83c-44.04,32.89-78.37,91.62-64.06,159.72       c14.67,69.78,59.21,91.26,68.6,95.06C333.49,2269.65,342.86,2241.5,344.92,2231.62z"/>
				</g>
				<g>
					<path class="st0" d="M1475.48,2354.29c-9.71,5.19-15.1,8.36-15.41,8.55c-0.18,0.11-0.37,0.15-0.55,0.24       c-6.14,4.53-23.38,14.55-74.16,41.91c13.55,9.09,35.72,26.81,46.58,51.23c13.77,30.98-5.29,64.87-12.99,76.59       c8.77,15,11.09,29.99,6.89,44.64c-5.84,20.33-23.09,35.21-36.18,43.97c40.8,10.44,83.06,17.81,126.19,22.19       C1586.28,2505.46,1495.24,2379.12,1475.48,2354.29z"/>
				</g>
				<g>
					<path class="st3" d="M1122.48,2304.44c-155.52-64.6-311.81-74.73-328.57-75.65c-5.44,1.93-10.61,3.23-15.23,4.1       c-9.14,18.92-56.46,100.73-206.52,139.53c-15.72,4.07-30.99,6.61-45.75,7.91c10.19,32.58,59.4,155.88,233.29,215.95       c102.08,35.26,216.39,52.74,315.75,55.64c-9.25-19.74-27.72-64.48-34.51-119.31       C1029.47,2439.74,1057.7,2361.15,1122.48,2304.44z"/>
				</g>
				<g>
					<path class="st1" d="M355.47,2221.44c26.11-0.25,45.67-7.74,58.12-22.38c18.27-21.49,16.82-52.91,15.74-63.34       c-70.42-34.59-80.21-106.89-81.07-137.24c-35.42,24.1-47.03,55.89-49.06,62.23C296.07,2107.6,302.48,2176.36,355.47,2221.44z"/>
				</g>
				<g>
					<path class="st0" d="M760.99,2234.62c-0.39-0.01-0.7-0.01-0.81-0.02c-3.01-0.12-5.63-2.07-6.62-4.91       c-25.53-73.96-68.05-106.09-99.1-129.55c-16.64-12.58-30.45-23.13-38.32-36.61c-12.22,12.29-39.64,31.51-92.98,33.96       c-2.05,8.74-7.66,24.31-22.65,34.17c-14.27,9.39-33.12,11.17-56.13,5.32c0.78,15.9-0.82,45.3-19.6,67.47       c-14.78,17.44-36.96,26.71-65.99,27.58c-3.23,12.98-14.44,41.54-51.65,53.97c29.03,27.13,128.18,106.73,261.37,72.29       C694.81,2325.65,745.35,2260.51,760.99,2234.62z"/>
				</g>
				<g>
					<path class="st3" d="M1195.32,2339.17c-19.04-10.39-38.44-19.81-57.92-28.36c-146.47,121.43-59.45,313.3-45.53,341.45       c26.65,0.35,52.06-0.37,75.7-2.11C1071.36,2480.81,1166.39,2367.82,1195.32,2339.17z"/>
				</g>
				<g>
					<path class="st0" d="M1181.83,2465.14c-0.54-3.08,0.94-6.15,3.68-7.66c2.74-1.5,6.13-1.09,8.44,1.02       c0.18,0.17,4.46,4,12.47,9.73c-9.79-15.09-14.48-27.26-14.81-28.13c-0.95-2.5-0.44-5.32,1.31-7.35       c1.75-2.02,4.47-2.93,7.09-2.35c45.42,10.02,101.26-4.95,127.15-13.38l-94.79-56.05c-0.03-0.02-0.05-0.05-0.08-0.06       c-0.04-0.02-0.08-0.03-0.12-0.05c-7.78-4.93-15.66-9.67-23.61-14.24c-9.73,9.01-36.53,36.43-53.55,79.08       c-27.61,69.18-17.9,144.22,28.7,223.08c49.83-4.83,90.55-14.41,116.26-28.14C1253.82,2604.28,1199.26,2563.88,1181.83,2465.14z       "/>
				</g>
				<g>
					<path class="st1" d="M1411.81,2573.37c3.1-10.84,1.22-21.81-5.64-33.41c-104.22,3.62-175.63-36.63-205.89-58.02       c35,141.47,154.4,135.95,168.41,134.79C1374.46,2613.9,1404.79,2597.95,1411.81,2573.37z"/>
				</g>
				<g class="st4">
					<path class="st5" d="M991.69,1791.06c0,0,354.9,162.8,677.87,0C1669.55,1791.06,1301,1849.7,991.69,1791.06z"/>
				</g>
				<g class="st4">
					<path class="st5" d="M1019.68,1820.8c0,0,109.46,169.16,124.36,169.34c14.89,0.18,104.53-58.38,104.53-58.38       s11.49-75.67,7.28-71.38c-4.21,4.29-107.53,86.93-107.53,86.93L1019.68,1820.8z"/>
				</g>
				<g class="st4">
					<path class="st5" d="M1452.58,1931.49c0,0,86.59,55.06,96,52.71c9.41-2.35,115.3-145.41,115.3-145.41l-120.19,99.62       c0,0-96.29-76.7-98.64-74.99C1442.7,1865.14,1443.2,1925.6,1452.58,1931.49z"/>
				</g>
				<g class="st4">
					<path class="st5" d="M1294.93,1917.98c0,0,21.65,21.69,23.06,20.43c1.41-1.27,63.06,0,63.06,0s40.94-29.5,39.53-35.15       c-1.41-5.65-1.41-54.82-1.41-54.82s-54.12-5.4-54.59,0c-0.47,5.4,0.98,65.64-6.81,66.58s-36.49,8-38.84,8       C1316.58,1923.02,1294.93,1917.98,1294.93,1917.98z"/>
				</g>
				<g class="st4">
					<path class="st5" d="M1303.78,2386.25c-0.15-0.09,19.91-23.82,38.48-45.74c19.93-23.53,31.23-53.15,32.03-83.97l4.88-188.1       c0,0,70.59,192,70.59,199.53c0,41.41-36.5,106.22-36.5,106.22s-49.62,32.6-53.39,33.54c-3.76,0.94-9.1,7.75-12.24,5.17       c-3.14-2.58-20.71-7.05-25.88-9.88C1316.58,2400.21,1303.78,2386.25,1303.78,2386.25z"/>
				</g>
				<g class="st4">
					<path class="st5" d="M824.45,2227.33c0,0,2.67,93.15-100.14,146.42c0,0,21.43,46.69,180.5,99.4s284.22,43.45,284.22,43.45       l13.23-3.91c0,0,27.58,56.46,47.97,71.21c20.39,14.75,58.04,36.71,58.04,36.71s-113.26,38.57-200.47,35.13       c-87.22-3.44-352.64-64.93-448.01-134.58c-95.37-69.65-118.59-147.4-118.59-147.4s99.09-23.24,126.41-45.84       c27.32-22.61,73.13-54.61,73.75-57.75c0.63-3.14,32.29-37.65,32.29-37.65l36.1-12.65L824.45,2227.33z"/>
				</g>
				<g class="st4">
					<path class="st5" d="M242.04,2076.61c0,0-8.78,92.34,27.45,138.56s74.83,39.62,72.47,41.51s-28.29,38.12-48.97,28.71       c-20.68-9.41-82.7-83.51-73.86-142.46C227.98,2083.98,242.04,2076.61,242.04,2076.61z"/>
				</g>
				<g class="st4">
					<path class="st5" d="M315.14,2035.96c1.64-2.35,4.71,99.77,46.59,128c41.88,28.24,71.53-6.59,72-5.18       c0.47,1.41-8.93,44.24-28.47,53.18c-19.53,8.94-58.23,7.9-58.23,7.9S261.5,2112.67,315.14,2035.96z"/>
				</g>
				<g class="st4">
					<path class="st5" d="M415.38,2003.63c0,0,61.65,45.4,67.3,72.99s-18.35,51.75-21.65,53.08s-12.39-2.77-12.39-2.77l-7.38-9.08       C441.26,2117.85,426.21,2022.12,415.38,2003.63z"/>
				</g>
				<g class="st4">
					<path class="st5" d="M473.74,2142.92c0,0,16.94,54.45-48,101.04c0,0,30.12,19.77,132.24-9.41       c102.12-29.18,125.18-64,122.83-69.65c-2.35-5.65-61.18-71.73-72.47-85.04c-11.29-13.31,12.85-21.69,13.72-20.56       c0.87,1.13,54.05,47.25,63.46,56.66c9.41,9.41,69.18,88.94,69.65,93.65c0.47,4.71,6.65,18.3,5.84,21.65       s-30.31,48.94-42.55,60.71c-12.24,11.76-126.12,83.5-214.59,82.22s-172.71-52.57-177.89-57.28       c-5.18-4.71-22.74-30.2-22.74-30.2s44.65-46.35,49.54-54.19s3.58-5.77,11.45-8.06s54.93-0.1,62.46-23       c7.53-22.9,14.43-61.18,14.43-61.18s-0.31-8.78,14.75-5.33C470.91,2138.4,473.74,2142.92,473.74,2142.92z"/>
				</g>
				<g class="st4">
					<path class="st5" d="M672.14,2095.26c0,0,76.89,25.24,103.72,10.74c26.82-14.5,28.25-59.42,28.25-59.42       s-31.75-37.43-30.47-38.84c1.28-1.41,125.4-124.89,164.52-129.97c0,0-56.88,114.53-58.29,116.37s-40.47,72.43-40.47,75.73       s4.26,14.06,4.26,14.06s11.74,51.35,3.27,75.82s-46.59,57.88-46.59,57.88s-32,7.53-33.41,7.53S694.28,2112.2,672.14,2095.26z"/>
				</g>
				<g class="st4">
					<path class="st5" d="M853.67,2215.17c1.88-0.85,26.98-44.14,26.98-44.14s50.2,46.51,145.57,57.77       c95.37,11.25,216.48-100.44,216.48-100.44l-53.67,163.6l21.91,47.58c0,0-138.28-58.08-149.57-63.72       C1050.06,2270.17,853.67,2215.17,853.67,2215.17z"/>
				</g>
				<g class="st4">
					<path class="st5" d="M1866.01,2227.33c0,0-2.67,93.15,100.14,146.42c0,0-21.43,46.69-180.5,99.4s-284.22,43.45-284.22,43.45       l-13.23-3.91c0,0-27.58,56.46-47.97,71.21s-58.04,36.71-58.04,36.71s113.26,38.57,200.47,35.13       c87.22-3.44,352.64-64.93,448.01-134.58c95.37-69.65,118.59-147.4,118.59-147.4s-99.09-23.24-126.41-45.84       c-27.32-22.61-73.13-54.61-73.75-57.75s-32.29-37.65-32.29-37.65l-36.1-12.65L1866.01,2227.33z"/>
				</g>
				<g class="st4">
					<path class="st5" d="M2226.83,2250.5c0,0,7.77,13.23-94.35-15.95c-102.12-29.18-125.18-64-122.83-69.65       c2.35-5.65,61.18-71.73,72.47-85.04c11.29-13.31-12.85-21.69-13.72-20.56c-0.87,1.13-54.05,47.25-63.46,56.66       s-69.18,88.94-69.65,93.65c-0.47,4.71-6.65,18.3-5.84,21.65c0.81,3.34,30.31,48.94,42.55,60.71s126.12,83.5,214.59,82.22       c88.47-1.28,172.71-52.57,177.89-57.28c5.18-4.71,22.74-30.2,22.74-30.2l-162.27-13.5L2226.83,2250.5z"/>
				</g>
				<g class="st4">
					<path class="st5" d="M2018.31,2095.26c0,0-76.89,25.24-103.72,10.74c-26.82-14.5-28.25-59.42-28.25-59.42       s31.75-37.43,30.47-38.84c-1.28-1.41-125.4-124.89-164.52-129.97c0,0,56.88,114.53,58.29,116.37       c1.41,1.84,40.47,72.43,40.47,75.73s-4.26,14.06-4.26,14.06s-11.74,51.35-3.27,75.82c8.47,24.47,46.59,57.88,46.59,57.88       s32,7.53,33.41,7.53C1924.95,2225.14,1996.18,2112.2,2018.31,2095.26z"/>
				</g>
				<g class="st4">
					<path class="st5" d="M1836.79,2215.17c-1.88-0.85-26.98-44.14-26.98-44.14s-50.2,46.51-145.57,57.77       c-95.37,11.25-216.48-100.44-216.48-100.44l53.67,163.6l-21.91,47.58c0,0,138.28-58.08,149.57-63.72       C1640.39,2270.17,1836.79,2215.17,1836.79,2215.17z"/>
				</g>
				<g class="st4">
					<path class="st5" d="M2234.72,2265.86c0,0,44.11-18.48,95.94-24.19c51.83-5.71,122.42-6.33,119.28,1.82       c-3.14,8.16,3.45,23.84-15.69,27.61c-19.14,3.76-43.3,4.38-61.18,5.48c-17.88,1.11-80.63,2.99-88.16,2.99       s-14.43,1.26-23.84-0.63C2251.66,2277.07,2234.72,2265.86,2234.72,2265.86z"/>
				</g>
				<g class="st4">
					<path class="st5" d="M2245.07,2202.8c0,0,68.87-37.28,77.02-33.11c8.15,4.16,12.41,4.17,12.64,9.58       c0.22,5.41,12.06,8.05,2.61,11.67s-61.24,16.05-75.11,19.25c-13.87,3.2-20.71,7.5-28.58,6.53       C2225.77,2215.73,2245.07,2202.8,2245.07,2202.8z"/>
				</g>
				<g class="st4">
					<path class="st5" d="M2382.48,2155.08c5.65-1.46,45.65-5.7,56,7.95c10.35,13.65,11.55,16.24,11.55,16.24l-21.43,13.84       c0,0-60.24,0.61-62.59,1.03C2363.66,2194.56,2382.48,2155.08,2382.48,2155.08z"/>
				</g>
				<g class="st4">
					<path class="st5" d="M2279.42,2099.49c0,0,17.88-22.12,37.18-7.3c19.29,14.83,51.02,75.25,33.74,117.98l-19.69-17.95       c0,0-28.17-72.81-35.7-76.19C2287.42,2112.67,2279.42,2099.49,2279.42,2099.49z"/>
				</g>
				<g class="st6">
					<path class="st1" d="M513.27,2129.96c0,0,62.12-22.94,59.92-9.45c-2.2,13.49-63.37,36.39-67.14,28.55       C502.29,2141.22,513.27,2129.96,513.27,2129.96z"/>
				</g>
				<g class="st6">
					<path class="st1" d="M2165.24,2129.96c0,0-62.12-22.94-59.92-9.45s63.37,36.39,67.14,28.55       C2176.22,2141.22,2165.24,2129.96,2165.24,2129.96z"/>
				</g>
				<g class="st6">
					<path class="st1" d="M1286.63,2120.83c-3.59,0.09-38.63,137.11-39.08,152.38s15.01,13.48,20.53,0.45       C1273.61,2260.64,1308.19,2120.28,1286.63,2120.83z"/>
				</g>
				<g class="st6">
					<path class="st1" d="M1295.33,2078.79c0,0-7.69,28.24-1.7,26.67s16.35-28.24,10.39-32.31S1295.33,2078.79,1295.33,2078.79z"/>
				</g>
				<g class="st4">
					<path class="st5" d="M1225.13,2529.94c0,0,90.04,57.1,132.08,53.65c42.04-3.45,49.88-13.49,49.88-12.24       s-12.55,39.22-41.73,43.29C1336.19,2618.72,1239.56,2587.66,1225.13,2529.94z"/>
				</g>
				<g class="st4">
					<path class="st5" d="M1231.09,2466.56c-0.53-1.18,95.06,30.12,135.22,24.47c40.16-5.65,50.51-24.47,50.51-24.47       s7.85,44.16-12.86,55.22C1383.24,2532.84,1252.11,2513.62,1231.09,2466.56z"/>
				</g>
				<g class="st6">
					<path class="st1" d="M853.67,2237.71c0,0,82.81,28.69,153.72,58.18c70.91,29.49,176.95,60.69,176.95,60.69       s16-21.49,12.86-22.82C1194.05,2332.44,979.16,2239.14,853.67,2237.71z"/>
				</g>
				<g class="st6">
					<path class="st1" d="M1834.03,2237.71c0,0-82.81,28.69-153.72,58.18c-70.91,29.49-176.95,60.69-176.95,60.69       s-16-21.49-12.86-22.82S1708.53,2239.14,1834.03,2237.71z"/>
				</g>
				<g>
					<g>
						<path class="st5" d="M835.13,2094.97c-5.45,0-10.5-2.93-13.18-7.72c-40.82-72.77-114.65-120.28-115.39-120.75        c-6.73-4.28-8.98-13.06-5.14-20.05c72.52-131.69,176.3-200.18,180.69-203.03c3.95-2.57,8.88-3.14,13.32-1.57        c4.01,1.43,407.16,141.48,874.64-0.22c3.38-1.02,7-0.83,10.25,0.53c5.31,2.24,130.97,56.4,206.98,197.84        c3.83,7.11,1.38,15.98-5.56,20.13c-0.76,0.45-77.5,47.19-101.69,118.03c-1.99,5.83-7.31,9.86-13.46,10.21        c-6.09,0.34-11.88-3.08-14.51-8.64c-0.62-1.32-62.63-132.2-105.77-179.84c-5.6-6.19-5.13-15.75,1.06-21.35        c6.19-5.61,15.75-5.14,21.35,1.05c33.34,36.82,74.91,115.25,96.42,158.05c26.1-47.41,68.09-80.81,88.82-95.36        c-63.03-108.47-158.38-159.31-180.63-170.06c-247.31,73.9-474.46,69.81-621.9,53.25c-138.39-15.55-232.26-43.95-258.69-52.61        c-21.76,15.67-99.53,76-158.08,176.29c20.8,15,64.57,49.86,98.52,99.09c21.32-45.3,66.31-138.12,92.56-172.38        c5.08-6.63,14.56-7.9,21.19-2.81c6.63,5.07,7.88,14.56,2.81,21.19c-32.46,42.37-100.16,190.42-100.84,191.91        c-2.36,5.18-7.43,8.59-13.12,8.83C835.55,2094.97,835.34,2094.97,835.13,2094.97z"/>
					</g>
					<g>
						<path class="st5" d="M761.39,2242.45c-0.82,0-1.34-0.01-1.51-0.02c-6.23-0.24-11.67-4.28-13.71-10.17        c-24.75-71.71-64.49-101.74-96.42-125.86c-21.51-16.25-40.09-30.29-46.29-52.6c-4.14-14.91-2.42-29.38,4.98-41.84        c11.28-19.01,32.86-29.03,45.72-33.54c3.35-13.95,10.66-22.55,16.81-27.56c18.48-15.07,42.89-12.45,45.62-12.08        c8.28,1.06,14.13,8.64,13.06,16.92c-1.06,8.25-8.63,14.12-16.83,13.07c-3.95-0.44-15.71-0.31-22.85,5.61        c-4.33,3.58-6.72,9.12-7.3,16.91c-0.49,6.6-5.21,12.1-11.65,13.6c-7.51,1.79-28.82,9.36-36.62,22.58        c-3.19,5.41-3.76,11.22-1.81,18.27c3.46,12.44,17.55,23.09,35.38,36.57c31.8,24.02,74.8,56.51,102.79,129.19        c11.39-1.63,30.33-6.76,43.07-22.83c17.13-21.61,19.38-56.9,6.68-104.91c-2.13-8.07,2.68-16.34,10.75-18.48        c8.08-2.13,16.34,2.68,18.48,10.75c15.32,57.94,11.12,102.27-12.48,131.75C810.89,2240.67,769.9,2242.45,761.39,2242.45z"/>
					</g>
					<g>
						<path class="st5" d="M773.65,2128.24c-5.77,0-11.28-3.33-13.8-8.93c-35.59-79.35-98.98-115.62-99.62-115.97        c-7.27-4.08-9.88-13.28-5.81-20.56c4.06-7.29,13.23-9.91,20.52-5.85c2.95,1.64,72.62,41.11,112.49,130.01        c3.42,7.62,0.01,16.56-7.6,19.98C777.81,2127.81,775.71,2128.24,773.65,2128.24z"/>
					</g>
					<g>
						<path class="st5" d="M501.31,2389.43c-131.09,0-215.46-92.53-219.58-97.14c-3.61-4.04-4.78-9.71-3.07-14.84        c1.71-5.14,6.04-8.97,11.35-10.04c44.34-8.95,47.66-43.48,47.69-43.83c0.64-7.85,7.2-13.88,15.06-13.88c0.48,0,0.95,0,1.42,0        c24.34,0,42.29-6.59,53.39-19.61c19.68-23.08,13.65-60.22,13.59-60.6c-0.89-5.23,1.04-10.58,5.07-14.03        c4.04-3.45,9.58-4.56,14.63-2.87c14.37,4.82,34.21,8.82,47.13,0.48c12.18-7.85,13.94-23.89,13.96-24.05        c0.77-7.59,7.1-13.56,14.73-13.73c68.11-1.45,87.51-31.9,88.31-33.2c4.1-7.27,13.24-9.74,20.52-5.63        c7.27,4.1,9.78,13.43,5.68,20.7c-1.02,1.81-24.79,42.42-102.05,47.82c-3.29,10.15-10.15,23.89-24.33,33.22        c-14.04,9.24-31.65,12.07-52.54,8.46c-0.48,17.8-4.63,42.92-21.52,62.85c-15.23,17.97-37.31,28.05-65.75,30.04        c-5.24,16.17-18.03,36.52-43.33,48.92c36.38,31.01,127.01,92.71,244.9,62.25c154.52-39.95,192.7-129.16,193.07-130.05        c3.15-7.69,11.94-11.44,19.66-8.32c7.71,3.11,11.47,11.83,8.41,19.56c-1.68,4.22-43.07,104-213.56,148.08        C548.54,2386.61,524.21,2389.43,501.31,2389.43z"/>
					</g>
					<g>
						<path class="st5" d="M292.99,2297.34c-1.51,0-3.04-0.23-4.55-0.71c-2.71-0.86-66.51-22.06-85.52-112.48        c-18.18-86.47,31.83-159.51,89.46-193.54c5.33-3.15,12.04-2.73,16.93,1.05c4.9,3.78,6.99,10.17,5.28,16.12        c-0.38,1.33-37.26,135.5,47.77,205.34c6.45,5.3,7.39,14.82,2.09,21.27s-14.82,7.38-21.27,2.08        c-69.68-57.23-71.3-146.06-65.15-197.23c-34,32.56-57.39,82.27-45.53,138.67c15.22,72.39,63.16,89.23,65.19,89.92        c7.87,2.64,12.2,11.15,9.63,19.04C305.23,2293.27,299.35,2297.34,292.99,2297.34z"/>
					</g>
					<g>
						<path class="st5" d="M436.06,2142.04c-2.15,0-4.3-0.46-6.3-1.37c-67.51-30.94-84.41-93.92-88.3-131.21        c-27.8,23.57-34.99,50.12-35.07,50.44c-2.1,8.08-10.34,12.95-18.43,10.83c-8.08-2.09-12.93-10.34-10.84-18.42        c0.55-2.13,14.19-52.54,71.29-84.18c4.91-2.72,10.92-2.5,15.62,0.58c3.02,1.99,5.18,4.95,6.19,8.3        c1.06-0.61,2.21-1.09,3.43-1.43c2.73-0.75,67.29-18.22,113.95,15.72c27.68,20.14,42.65,53.27,44.51,98.49        c0.34,8.34-6.14,15.38-14.48,15.72c-8.42,0.32-15.38-6.14-15.72-14.48c-1.46-35.46-12.21-60.76-31.97-75.2        c-17.2-12.57-38.89-15.46-56.42-15.14c60.28,61.66,37.08,130.48,36.81,131.26c-1.41,4-4.44,7.23-8.35,8.89        C440.08,2141.64,438.07,2142.04,436.06,2142.04z M370.97,2003.9c2.09,26.46,12.12,71.64,53.97,99.59        C426.3,2080.4,420.2,2039.6,370.97,2003.9z"/>
					</g>
					<g>
						<path class="st5" d="M1102.99,2674.9c-107.58,0-235.55-17.7-350.6-57.44c-212.71-73.48-248.74-233.8-250.17-240.59        c-1.72-8.17,3.51-16.19,11.67-17.91c8.16-1.71,16.17,3.5,17.9,11.65c1.36,6.28,34.78,150.67,230.47,218.27        c202.04,69.8,466.59,69.6,541.45,20.48c6.98-4.57,16.35-2.63,20.93,4.35s2.63,16.35-4.34,20.93        C1281.03,2660.4,1200.36,2674.9,1102.99,2674.9z"/>
					</g>
					<g>
						<path class="st5" d="M1912.43,2252.81c-1.93,0-3.92-0.19-5.96-0.57c-22.93-4.28-53.76-32.29-61.1-55.51        c-8.15-25.81,3.08-109.14,5.41-125.58c1.17-8.27,8.84-14.02,17.09-12.84c8.26,1.17,14.01,8.82,12.84,17.09        c-5.4,38.07-10.99,98.06-6.51,112.23c4.37,13.83,26.2,31.23,35.84,34.44c3.43-4.88,8.99-13.31,14.81-22.11        c26.47-40.07,51.58-77.26,67.94-91.85c18.69-16.67,49.94-42.02,62.43-52.08c0.18-12.83-1.82-29.78-7.61-36.89        c-6.74-8.26-16.08-6.22-17.89-5.72c-4.93,1.55-10.21,0.42-14.16-2.92c-3.95-3.34-5.8-8.51-5.09-13.63        c0,0,1.56-14.06-6.79-23.71c-5.92-6.85-16.04-10.5-30.09-10.88c-8.34-0.22-14.93-7.17-14.7-15.51        c0.22-8.34,7.03-15,15.52-14.7c23.12,0.62,40.78,7.92,52.48,21.71c8.13,9.58,11.65,20.33,13.07,29.18        c10.27,1.18,21.86,5.76,31.1,17.1c17.17,21.06,14.38,60.37,14.01,64.78c-0.35,4.13-2.38,7.94-5.62,10.53        c-0.44,0.35-43.88,35.13-66.52,55.32c-14.78,13.19-44.86,58.74-62.84,85.95c-9.85,14.92-15.59,23.56-18.87,27.67        C1926.75,2249.84,1920.1,2252.81,1912.43,2252.81z M1912.54,2222.6h0.05H1912.54z"/>
					</g>
					<g>
						<path class="st5" d="M1926.28,2111.92c-2.78,0-5.58-0.77-8.1-2.36c-7.04-4.48-9.12-13.83-4.64-20.87        c40.79-64.1,101.25-104.44,103.8-106.12c6.97-4.6,16.34-2.68,20.94,4.29c4.6,6.96,2.68,16.34-4.28,20.94        c-0.92,0.61-57.84,38.81-94.96,97.13C1936.16,2109.45,1931.27,2111.92,1926.28,2111.92z"/>
					</g>
					<g>
						<path class="st5" d="M1154.11,1968.79c-1.83,0-3.8-0.42-6.01-1.33c-2.5-1.04-4.62-2.7-6.2-4.76        c-6.84-7.82-97.43-104.2-157.39-167.85c-5.73-6.07-5.44-15.64,0.64-21.36c6.08-5.72,15.64-5.44,21.36,0.64        c0,0,39.6,42.04,79.2,84.18c19.81,21.08,39.61,42.19,54.47,58.08c5.93,6.35,10.64,11.38,14.38,15.44        c23.75-23.42,82.07-81.65,123.02-122.63c5.9-5.91,15.47-5.91,21.37-0.01c5.91,5.9,5.91,15.47,0.01,21.38        c0,0-33.45,33.48-66.98,66.92c-16.77,16.73-33.56,33.45-46.2,45.97c-6.34,6.28-11.64,11.52-15.38,15.17        C1164.44,1964.47,1160.02,1968.79,1154.11,1968.79z"/>
					</g>
					<g>
						<path class="st5" d="M1544.6,1962.43c-7.13,0-19.35-3.7-149.14-132.91c-5.92-5.89-5.94-15.46-0.05-21.38        c5.89-5.91,15.46-5.94,21.37-0.05c49.38,49.16,104.98,102.37,126.15,119.79c33.44-34.86,152.7-158.92,158.47-164.92        c5.79-6.02,15.35-6.21,21.37-0.42c6.02,5.79,6.21,15.36,0.42,21.37c-1.62,1.68-161.87,168.38-166.77,173.6        c-2.8,2.97-7.1,4.84-11.19,4.91C1545.03,1962.43,1544.82,1962.43,1544.6,1962.43z"/>
					</g>
					<g>
						<path class="st5" d="M1324.5,1980.58c-26.54,0-27.94-0.47-30.15-1.21c-2.86-0.95-5.33-1.78-47.88-35.42        c-3.82-3.02-5.95-7.69-5.72-12.55l3.87-83.66c0.38-8.34,7.51-14.74,15.8-14.4c8.34,0.39,14.79,7.46,14.4,15.8l-3.51,75.9        c13.39,10.53,27.03,21.05,32.74,25.17c6.83,0.18,26.73,0.27,82.49-0.23c0.49,0,0.95,0,1.39-0.01        c8.97-6.76,32.71-27.71,40.03-36.12c-0.3-11.06-1.29-40.18-2-60.1c-0.3-8.34,6.23-15.34,14.57-15.64        c8.42-0.22,15.35,6.23,15.64,14.58c0.21,6.08,2.1,59.56,2.1,65.31c0,6.57-1.42,11.88-29.39,36.91        c-28.22,25.26-31.36,25.26-36.55,25.26l-5.52,0.05C1357.5,1980.46,1337.83,1980.58,1324.5,1980.58z M1392.3,1949.93        L1392.3,1949.93C1392.3,1949.93,1392.3,1949.93,1392.3,1949.93z"/>
					</g>
					<g>
						<path class="st5" d="M1344.32,2433.81c-2.66,0-5.32-0.7-7.69-2.1l-108.24-64c-1.56-0.92-2.94-2.11-4.07-3.52l-47.06-58.35        c-3.23-4-4.2-9.38-2.58-14.25l110.12-331.3c2.63-7.92,11.2-12.21,19.11-9.58c7.92,2.63,12.21,11.19,9.58,19.11l-107.52,323.47        l40.16,49.8l98.56,58.28c43.1-23.07,88.93-48.09,99.96-54.97c2.2-3.81,6.5-10.91,15.35-25.4        c7.12-11.67,17.2-28.17,21.67-35.95c-9.19-31.22-65.59-201.28-103.68-315.22c-2.65-7.92,1.62-16.48,9.54-19.13        c7.91-2.65,16.48,1.63,19.13,9.55c0,0,26.6,79.55,53.08,159.58c54.32,164.17,54.16,164.79,52.67,170.78        c-0.88,3.54-2.03,5.9-26.6,46.15c-6.13,10.04-13.68,22.4-15.52,25.72c-2.4,6.44-8.67,10.74-118.84,69.56        C1349.21,2433.22,1346.76,2433.81,1344.32,2433.81z M1470.66,2361.35c-0.05,0.14-0.09,0.27-0.13,0.4        C1470.58,2361.59,1470.63,2361.45,1470.66,2361.35z"/>
					</g>
					<g>
						<path class="st5" d="M1236.06,2369.81c-2.77,0-5.57-0.76-8.08-2.35c-188.06-119.29-433.45-130.82-435.91-130.92        c-8.34-0.35-14.82-7.39-14.47-15.73c0.34-8.34,7.36-14.87,15.72-14.48c10.35,0.43,255.79,11.88,450.85,135.6        c7.05,4.47,9.14,13.81,4.67,20.86C1245.96,2367.32,1241.07,2369.81,1236.06,2369.81z"/>
					</g>
					<g>
						<path class="st5" d="M1456.34,2371.69c-5.14,0-10.15-2.62-12.98-7.35c-4.29-7.16-1.96-16.44,5.2-20.73        c7.78-4.66,193.41-114.35,439.29-131.35c8.32-0.62,15.54,5.71,16.12,14.03c0.58,8.33-5.71,15.55-14.04,16.12        c-238.37,16.49-424,126.03-425.85,127.13C1461.65,2371,1458.98,2371.69,1456.34,2371.69z"/>
					</g>
					<g>
						<path class="st5" d="M2173.03,2384.9c-170.8,0-262.17-135.53-266.26-141.74c-4.59-6.97-2.66-16.35,4.31-20.94        c6.98-4.6,16.34-2.66,20.94,4.31c4,6.04,100.39,148.09,279.16,125.71c90.93-10.04,171.38-77.42,172.18-78.1        c6.36-5.39,15.9-4.61,21.3,1.75c5.4,6.36,4.62,15.89-1.73,21.29c-3.55,3.02-88.13,74.03-188.21,85.08        C2200.32,2384.07,2186.43,2384.9,2173.03,2384.9z"/>
					</g>
					<g>
						<path class="st5" d="M2347.64,2228.63c-1.2,0-2.41-0.15-3.61-0.44c-5.24-1.28-9.39-5.27-10.91-10.44        c-6.07-20.79-28.38-78.09-58.25-93.36c-7.43-3.8-10.38-12.91-6.58-20.34c3.8-7.43,12.91-10.39,20.34-6.58        c29.6,15.13,50.12,52.26,61.87,79.79c4.44-11.94,8.64-28.29,10.31-49.62c2.39-30.61-5.71-57.94-22.22-75.01        c-13.03-13.46-30.31-19.82-51.44-18.84c-53.86,2.45-106.36,76.58-106.88,77.33c-4.02,5.74-11.46,7.96-17.97,5.39l-97.89-38.91        c-7.76-3.09-11.55-11.88-8.46-19.63c3.09-7.76,11.87-11.54,19.63-8.47l87.18,34.65c18.1-22.85,67.38-78.04,123.03-80.57        c29.73-1.37,55.48,8.33,74.53,28.01c22.54,23.29,33.71,59.15,30.64,98.39c-5.07,64.89-31.29,92.85-32.41,94        C2355.65,2226.99,2351.7,2228.63,2347.64,2228.63z"/>
					</g>
					<g>
						<path class="st5" d="M2232.82,2232.57c-1.98,0-3.8-0.09-5.44-0.27c-8.27-0.92-14.52-5.86-16.73-13.22        c-2.53-8.42-7.24-24.1,84.7-100.59c6.42-5.34,15.94-4.47,21.29,1.95c5.34,6.42,4.47,15.95-1.95,21.28        c-23.17,19.28-48.66,42.76-63.21,58.6c23.74-4.2,59.52-13.98,84.38-21.86c7.96-2.51,16.45,1.89,18.97,9.85        c2.52,7.96-1.89,16.45-9.85,18.97C2331.01,2211.72,2263.5,2232.57,2232.82,2232.57z"/>
					</g>
					<g>
						<path class="st5" d="M2333.54,2299.07c-48.65,0-95.76-6.01-108.5-11.4c-8.45-3.57-14.09-10.25-15.89-18.81        c-4.7-22.39,20.38-51.94,31.39-63.6c5.73-6.07,15.29-6.36,21.37-0.62c6.07,5.72,6.35,15.28,0.63,21.36l0,0        c-11.18,11.88-21.58,27.43-23.46,34.64c29.25,9.32,169.02,14.82,190.9-7.76c17.41-17.97,18.39-32.31,18-37.65        c-0.3-4.08-1.54-6.63-2.51-7.87c-10.66-2.55-52.4,1.95-86.26,8c-8.22,1.49-16.07-4-17.54-12.22        c-1.46-8.22,4.01-16.07,12.22-17.53c91.8-16.38,105-6.24,109.33-2.9c8.54,6.57,13.97,17.62,14.9,30.32        c0.85,11.67-1.45,35.09-26.44,60.88C2433.22,2292.95,2382.6,2299.07,2333.54,2299.07z M2446.41,2207.65L2446.41,2207.65        L2446.41,2207.65z"/>
					</g>
					<g>
						<path class="st5" d="M2458.61,2214.92c-1.09,0-2.19-0.12-3.29-0.36c-8.15-1.81-13.29-9.88-11.48-18.03        c4.7-21.19,2.34-37.6-7.04-48.8c-18.61-22.23-59.51-20.77-59.91-20.78c-8.36,0.36-15.38-6.1-15.75-14.43        s6.05-15.38,14.38-15.77c2.28-0.11,56.03-2.22,84.35,31.44c15.81,18.78,20.34,43.98,13.48,74.89        C2471.78,2210.13,2465.53,2214.92,2458.61,2214.92z"/>
					</g>
					<g>
						<path class="st5" d="M1551.69,2071.17c-3.99,0-7.81-1.57-10.65-4.38c-2.86-2.84-4.47-6.7-4.47-10.73v-30.15        c0-7.56,5.58-13.96,13.07-14.98c171.52-23.39,183.7-14.86,188.91-11.21c20.94,14.66,10.53,54.53,5.42,63.12        c-4.09,6.88-10.74,9.09-16.54,8.11c-11.22-0.69-113.04-0.23-175.63,0.23C1551.77,2071.17,1551.73,2071.17,1551.69,2071.17z         M1723.27,2069.61L1723.27,2069.61z M1723.24,2069.59C1723.24,2069.59,1723.25,2069.59,1723.24,2069.59        C1723.25,2069.59,1723.24,2069.59,1723.24,2069.59z M1723.21,2069.58c0.01,0,0.01,0,0.02,0        C1723.22,2069.58,1723.22,2069.58,1723.21,2069.58z M1723.19,2069.56c0.01,0,0.01,0,0.02,0.01        C1723.2,2069.57,1723.19,2069.57,1723.19,2069.56z M1723.16,2069.55c0.01,0,0.01,0.01,0.02,0.01        C1723.18,2069.56,1723.17,2069.55,1723.16,2069.55z M1723.13,2069.54c0.01,0,0.02,0,0.02,0.01        C1723.15,2069.55,1723.14,2069.54,1723.13,2069.54z M1717.79,2047.75L1717.79,2047.75L1717.79,2047.75z M1566.81,2039.13v1.7        c93.93-0.66,134.61-0.7,153-0.23c1-5.25,1.54-11.62,0.9-15.27C1702.01,2023.63,1632.29,2030.51,1566.81,2039.13z         M1723.84,2025.81L1723.84,2025.81L1723.84,2025.81z"/>
					</g>
					<g>
						<path class="st5" d="M1688.48,2094.97c-8.35,0-15.11-6.76-15.11-15.11v-100.39c0-8.35,6.77-15.11,15.11-15.11        s15.11,6.76,15.11,15.11v100.39C1703.6,2088.21,1696.83,2094.97,1688.48,2094.97z"/>
					</g>
					<g>
						<path class="st5" d="M1087.27,2674.37c-5.36,0-10.54-2.85-13.29-7.89c-1.29-2.36-31.6-58.66-40.79-132.92        c-12.37-100.03,20-184.08,93.6-243.07c6.51-5.22,16.03-4.17,21.25,2.34c5.22,6.51,4.17,16.03-2.34,21.25        c-157.78,126.46-46.32,335.85-45.18,337.95c3.99,7.33,1.29,16.51-6.04,20.5C1092.18,2673.78,1089.71,2674.37,1087.27,2674.37z        "/>
					</g>
					<g>
						<path class="st5" d="M1179.66,2671.44c-5.11,0-10.1-2.6-12.95-7.29c-125.82-207.98,29.88-336.97,31.46-338.25        c6.51-5.22,16.02-4.21,21.25,2.29c5.23,6.49,4.21,16-2.27,21.24c-5.74,4.68-136.38,114.28-24.58,299.08        c4.32,7.14,2.03,16.44-5.11,20.76C1185.02,2670.74,1182.32,2671.44,1179.66,2671.44z"/>
					</g>
					<g>
						<path class="st5" d="M1611.06,2670.77c-84.4,0-167.13-10.7-244.46-32.33c-6.12-1.71-10.52-7.08-11-13.41        c-0.48-6.34,3.06-12.3,8.85-14.92c9.18-4.19,34.3-19.4,39.85-38.91c2.71-9.53,0.52-19.41-6.68-30.22        c-3.58-5.37-3.36-12.41,0.55-17.54c0.22-0.29,24.46-32.95,13.27-58.12c-12.68-28.53-47.48-47.2-47.82-47.38        c-7.37-3.9-10.2-13.04-6.31-20.42c3.88-7.37,12.99-10.22,20.38-6.34c1.8,0.94,44.38,23.61,61.38,61.87        c13.9,31.27-1.81,64.59-11.07,80.01c7.97,15.52,9.77,31.14,5.34,46.55c-4.55,15.84-15.2,28.6-26.05,38.09        c177.37,41.61,380.61,26.13,563.17-43.69c192.38-73.58,195.61-203.21,195.62-204.51c0.07-8.31,6.82-15,15.11-15        c0.04,0,0.08,0,0.12,0c8.35,0.06,15.06,6.88,15,15.23c-0.05,6.15-3.61,151.63-215.05,232.5        C1862.43,2647.68,1734.97,2670.77,1611.06,2670.77z"/>
					</g>
					<g>
						<path class="st5" d="M1520.02,2666.51c-2.4,0-4.84-0.57-7.1-1.78c-7.37-3.93-10.15-13.09-6.22-20.45        c80.4-150.61-39.47-287.83-40.69-289.19c-5.55-6.23-5.01-15.79,1.22-21.34c6.23-5.56,15.79-5.01,21.34,1.22        c1.36,1.52,135.01,154.55,44.79,323.55C1530.64,2663.61,1525.42,2666.51,1520.02,2666.51z"/>
					</g>
					<g>
						<path class="st5" d="M1603.14,2670.85c-1.47,0-2.97-0.21-4.45-0.67c-7.98-2.46-12.46-10.91-10.01-18.89        c53.57-174.26-50.38-330.33-51.43-331.88c-4.69-6.9-2.9-16.3,4-20.99c6.89-4.7,16.29-2.92,20.99,3.98        c4.65,6.82,113.28,169.32,55.34,357.78C1615.59,2666.67,1609.61,2670.85,1603.14,2670.85z"/>
					</g>
					<g>
						<path class="st5" d="M1362.49,2639.26c-35.93,0-159.96-11.88-188.35-172.76c-1.13-6.38,1.94-12.77,7.62-15.88        c5.69-3.11,12.72-2.25,17.49,2.13c0.75,0.69,79.4,70.8,210.25,64.74c8.31-0.36,15.41,6.05,15.8,14.39s-6.06,15.42-14.39,15.8        c-91.66,4.28-159.24-25.03-197.17-47.72c40.76,118.83,150.31,109.39,155.38,108.89c8.32-0.9,15.71,5.2,16.56,13.49        s-5.13,15.7-13.42,16.58C1372.03,2638.93,1368.48,2639.26,1362.49,2639.26z"/>
					</g>
					<g>
						<path class="st5" d="M1242.34,2513.33c-3.37,0-6.76-1.12-9.58-3.43c-33.18-27.21-47.87-65.43-48.47-67.04        c-1.96-5.19-0.92-11.04,2.71-15.23c3.63-4.19,9.27-6.06,14.68-4.87c58.59,12.93,136.22-17.78,137-18.09        c7.74-3.1,16.54,0.65,19.65,8.4s-0.64,16.54-8.38,19.65c-3.01,1.21-64.53,25.64-124.73,23.27        c6.38,9.84,15.23,21.12,26.71,30.54c6.46,5.29,7.4,14.81,2.1,21.27C1251.05,2511.44,1246.71,2513.32,1242.34,2513.33z"/>
					</g>
				</g>
			</g>
			<g>
				<g>
					<path class="st7" d="M2489.51,2035.49c12.07,7.89,72.08,18.12,162.17,18.12c90.09,0,150.1-10.22,162.17-18.12       c-12.07-7.89-72.08-18.12-162.17-18.12C2561.59,2017.38,2501.57,2027.6,2489.51,2035.49z"/>
				</g>
				<g>
					<path class="st1" d="M2872.32,2009.79c-21.15-24.54-49.7-37.5-84.85-38.54c-72.49-2.14-286.91,3.39-318.09,15.51       c-30.66,11.92-36.97,26.56-41.51,67.42c-0.45,3.96-4.03,6.85-7.94,6.45c-33.41-3.15-91.66-3.85-105.72,7.77       c-10.58,8.74-31.49,121.21-13.55,198.43c7.76,33.39,21.1,52.59,39.65,57.07c25.57,5.14,71.07,8.62,84.8-3.91       c1.37-1.25,3.13-1.91,4.92-1.91c0.88,0,1.76,0.16,2.61,0.48c2.58,0.99,4.38,3.34,4.65,6.09c0.26,2.44,7.28,60.37,80.36,70.68       c80.97,11.44,238.34,4.46,290.33-12.87c60.22-20.07,68.43-52.08,69.47-58.29c2.35-14.09-1.47-286.45-4.27-313.43       C2872.9,2010.46,2872.63,2010.14,2872.32,2009.79z M2441.79,2267.92c-5.76,6.85-12.72,10.58-20.7,11.09       c-15.23,0.98-27.94,1.5-38.5,1.5c-28.21,0-41.07-3.67-45.54-11.87c-6.1-11.16-14.11-111.07,6.75-153.92       c6.37-13.09,15.03-20.63,25.74-22.41c0.58-0.1,1.18-0.12,1.75-0.08c3.29,0.25,80.47,6.76,86.71,63.9       C2462.31,2195.71,2460.32,2245.86,2441.79,2267.92z M2773.55,2060.68c-32.61,4.85-75.89,7.52-121.87,7.52       c-45.98,0-89.26-2.67-121.87-7.52c-49.57-7.38-56.26-16.87-56.26-25.18c0-8.32,6.68-17.81,56.26-25.18       c32.61-4.85,75.89-7.52,121.87-7.52c45.98,0,89.26,2.67,121.87,7.52c49.57,7.37,56.26,16.87,56.26,25.18       C2829.8,2043.81,2823.12,2053.3,2773.55,2060.68z"/>
				</g>
				<g>
					<g>
						<path class="st5" d="M2616.32,2423.2c-38.1,0-74.29-1.79-101.81-5.67c-57.07-8.06-84.26-42.88-94.58-70.45        c-30.49,8.73-73.96,0.85-84.19-1.23c-0.17-0.03-0.33-0.07-0.5-0.11c-27.57-6.56-46.55-31.4-56.41-73.82        c-17.5-75.29-1.98-201.71,21.11-220.78c20.6-17.02,76.76-15.99,107.58-13.96c5.7-36.3,17.36-57.14,53.75-71.3        c39.03-15.18,274.22-18.57,326.87-17.02c41.71,1.23,75.75,16.8,101.17,46.3c0.16,0.18,0.31,0.35,0.44,0.51        c7.19,5.32,7.47,14.33,9.76,164.77c0.55,36.03,2.17,154.57,0.03,167.42c-1.98,11.85-13.91,52.33-84.48,75.86        C2778.7,2415.84,2693.6,2423.2,2616.32,2423.2z M2430.03,2310.26c1.82,0,3.65,0.33,5.4,1c5.34,2.05,9.07,6.92,9.64,12.61        c0.24,2.11,6.98,54.3,73.66,63.72c78.5,11.07,236.62,4.17,286.76-12.55c57.15-19.05,63.67-48.82,64.23-52.15        c2.1-16.03-1.46-272.16-4.15-308.95c-19.57-22.19-45.92-33.92-78.33-34.87c-69.99-2.08-285.24,3.4-315.03,14.98        c-25.9,10.07-32.05,20.34-36.57,61c-0.91,8.2-8.23,14.15-16.45,13.38c-39.61-3.74-88.55-2.32-99.56,5.66        c-11.61,16.04-30.19,139.43-6.89,206.68c7.11,20.5,16.95,32.45,29.26,35.49c29.87,5.98,68.03,6.9,77.83-2.05        C2422.67,2311.63,2426.32,2310.26,2430.03,2310.26z M2319.88,2073.77L2319.88,2073.77z M2888.3,1994.68c0,0,0.01,0,0.02,0.01        C2888.31,1994.68,2888.31,1994.68,2888.3,1994.68z"/>
					</g>
					<g>
						<path class="st5" d="M2382.86,2288.31c-32.54,0-46.6-4.76-52.69-15.93c-7.81-14.31-14.76-117.25,6.59-161.1        c9.39-19.29,22.31-25.16,31.49-26.69c1.2-0.2,2.42-0.24,3.63-0.17c3.55,0.27,86.95,7.33,93.88,70.84        c4.49,41.2,2.13,93.75-17.99,117.69c-7.08,8.42-16.13,13.21-26.18,13.86C2406.41,2287.8,2393.62,2288.31,2382.86,2288.31z         M2357.28,2259.16h0.05H2357.28z M2356.52,2256c5.5,1.58,20.78,3.4,63.12,0.65c0.74-0.05,2.48-0.16,4.99-3.14        c11-13.09,15.66-53.02,11.08-94.96c-3.74-34.29-52.59-42.33-63.85-43.73c-2.05,0.9-4.12,3.06-6.16,6.45        C2347.78,2150.93,2352.57,2235.64,2356.52,2256z"/>
					</g>
					<g>
						<path class="st5" d="M2651.68,2076.02c-46.35,0-90.04-2.7-123.02-7.61c-37.77-5.62-62.92-13.37-62.92-32.92        c0-19.55,25.16-27.3,62.92-32.92c32.98-4.9,76.67-7.6,123.02-7.6s90.04,2.7,123.02,7.6c37.77,5.62,62.92,13.37,62.92,32.92        c0,19.55-25.15,27.3-62.92,32.92C2741.72,2073.32,2698.03,2076.02,2651.68,2076.02z M2515.85,2035.49        c25.47,5.2,71.22,10.3,135.83,10.3s110.36-5.11,135.83-10.3c-25.47-5.2-71.22-10.3-135.83-10.3        S2541.32,2030.3,2515.85,2035.49z M2810.19,2042.62h0.05H2810.19z"/>
					</g>
					<g>
						<path class="st5" d="M2597.73,1900.03c20.01-45.61,64.04-77.74,111.6-90.71c15.39-4.76,32.32-6.21,47.16-10.87        c62.24-17.35,101.85-76.95,75.03-139.26c-31.38-75.46-132.26-105-200.4-143.28c-51.63-27.67-112.16-66.93-118.22-131.26        c-3.78-78,45.58-152.72,115.67-183.16c0.76-0.34,1.65,0,1.99,0.76c0.33,0.74,0.02,1.53-0.63,1.93        c-34.81,24.85-62.52,58.68-77.45,96.61c-8.27,21.42-12.07,44.01-12.2,66.7c-0.84,16.26,3.84,32.2,12.54,46.02        c21.47,33.31,58.67,55.63,92.92,76.28c70.68,44.48,171.64,77.06,204.05,162.17c17.73,43.53,6.27,97.29-30.01,127.71        c-25.58,23.04-59.64,32.42-92.42,36.32c-51.72,7.58-102.84,37.42-126.83,85.12c-0.31,0.82-1.26,1.26-2.07,0.87        C2597.72,1901.66,2597.4,1900.78,2597.73,1900.03L2597.73,1900.03z"/>
					</g>
					<g>
						<path class="st5" d="M2482.32,1468c6.13,53.84,28.41,111.42,73.93,143.21c7.59,5.4,20.64,12.82,28.7,17.72        c30.28,18.99,65.43,37.51,80.78,72.21c4.17,9.64,8.57,19,9.3,29.4c0.48,30.47-23.49,53.58-40.68,75.32        c-28.68,32.96-56.48,69.61-47,115.2c0.35,1.54-2.02,2.53-2.82,1.09c-28.2-43.79-1.6-98.74,26-134.89        c0,0,20.15-27.04,20.15-27.04c5.96-8.36,12.79-17.39,14.93-26.74c0.46-1.91,0.42-3.29,0.22-5.13        c-3.41-15.59-8.68-30.16-19.96-41.81c-22.83-23.62-54.27-40.63-80.13-61.2c-42.21-33.61-61.04-88.39-65.95-140.33        c-0.38-6-1-11.62-0.4-17.74c0.11-0.8,0.85-1.36,1.65-1.25C2482.07,1466.21,2482.37,1467.08,2482.32,1468L2482.32,1468z"/>
					</g>
				</g>
				<g>
					<g>
						
							<ellipse transform="matrix(0.2939 -0.9558 0.9558 0.2939 -241.0874 4123.918)" class="st8" cx="2670.82" cy="2225.14" rx="81.03" ry="69.97"/>
					</g>
					<g>
						<path class="st5" d="M2664.95,2313.95c-20.31,0-39.07-8.56-52.84-24.1c-29.32-33.1-27.46-89.06,4.14-124.74        c16.2-18.29,38.23-28.78,60.45-28.78c20.31,0,39.07,8.56,52.84,24.1c29.32,33.1,27.46,89.05-4.14,124.73l0,0        C2709.19,2303.46,2687.16,2313.95,2664.95,2313.95z M2676.7,2153.68c-17.25,0-34.55,8.36-47.46,22.94        c-25.99,29.34-27.85,74.97-4.15,101.73c10.43,11.77,24.58,18.26,39.86,18.26c17.25,0,34.55-8.36,47.47-22.94l0,0        c25.99-29.34,27.85-74.97,4.14-101.72C2706.13,2160.17,2691.97,2153.68,2676.7,2153.68z M2718.91,2279.42h0.05H2718.91z"/>
					</g>
					<g>
						<path class="st5" d="M2623.83,2298.06c-4.09,0-7.74-2.91-8.52-7.08c-0.29-1.54-6.79-37.86,12.26-61.48        c9.82-12.19,24.29-18.65,43-19.2c16.51-0.49,28.57-5.09,35.83-13.67c10.29-12.16,8.09-29.04,8.07-29.21        c-0.65-4.73,2.63-9.12,7.36-9.79c4.7-0.74,9.1,2.56,9.8,7.29c0.15,1,3.43,24.5-11.83,42.73        c-10.57,12.62-26.96,19.35-48.71,19.99c-13.6,0.4-23.42,4.57-30.01,12.75c-13.87,17.2-8.76,47.12-8.71,47.41        c0.88,4.71-2.23,9.24-6.94,10.12C2624.89,2298.01,2624.35,2298.06,2623.83,2298.06z"/>
					</g>
				</g>
				<g>
					<g>
						<path class="st9" d="M2872.32,2009.79c-21.15-24.54-49.7-37.5-84.85-38.54c-72.49-2.14-286.91,3.39-318.09,15.51        c-30.66,11.92-36.97,26.56-41.51,67.42c-0.45,3.96-4.03,6.85-7.94,6.45c-33.41-3.15-91.66-3.85-105.72,7.77        c-4.33,3.58-10.4,24.58-14.82,53.43l4.8-0.38c0,0,5.18,144.3,26.12,159.05c13.61,9.59,37.42,4.23,54.69-0.03        c-0.79,0.01-1.65,0.03-2.41,0.03c-28.21,0-41.07-3.67-45.54-11.87c-6.1-11.16-14.11-111.07,6.75-153.92        c6.37-13.09,15.03-20.63,25.74-22.41c0.56-0.1,1.12-0.11,1.67-0.08c-4.92-3.12-8.36-5.43-8.36-5.43s16.94-7.53,45.65-3.76        c15.98,2.1,31.51,8.71,42.16,14.9l1.93-22.27c0,0,147.13,35.14,289.57,13.18c0,0-47.91,33.88-90.47,76.55        c-42.56,42.67,67.5,192.63,178.12,172.55c0,0-18.63,35.77-127.81,41.41c-109.18,5.65-189.52,13.24-217.1,0        c-13.54-6.5-27.84-18.56-38.9-29.17c9.67,17.77,29.83,39.25,71.65,45.16c80.97,11.44,238.34,4.46,290.33-12.87        c60.22-20.07,68.43-52.08,69.47-58.29c2.35-14.09-1.47-286.45-4.27-313.43C2872.9,2010.46,2872.63,2010.14,2872.32,2009.79z"/>
					</g>
					<g>
						<path class="st9" d="M2420.15,2264.45c3.91-0.25,7.33-2.19,10.47-5.92c12.64-15.04,17.81-55.56,12.87-100.83        c-4.6-42.21-64.23-49.98-72.39-50.85c-4.94,1.15-9.19,5.04-12.96,11.88c-20.02,36.28-12.64,131.15-8.3,142.83        C2352.16,2263.76,2363.7,2268.1,2420.15,2264.45z"/>
					</g>
					<g class="st4">
						<path class="st5" d="M2701.99,2379.34c109.18-5.65,127.81-41.41,127.81-41.41c-110.63,20.08-220.68-129.89-178.12-172.55        c42.55-42.67,90.47-76.55,90.47-76.55c-142.43,21.96-289.57-13.18-289.57-13.18l-1.93,22.27        c-10.64-6.19-26.17-12.8-42.16-14.9c-28.71-3.76-45.65,3.76-45.65,3.76s3.44,2.32,8.36,5.43c0.03,0,0.05-0.01,0.08,0        c3.29,0.25,80.47,6.76,86.71,63.9c4.32,39.59,2.33,89.75-16.2,111.8c-5.76,6.85-12.72,10.58-20.7,11.09        c-14.13,0.91-26,1.4-36.09,1.47c-17.27,4.26-41.08,9.62-54.69,0.03c-20.94-14.76-26.12-159.05-26.12-159.05l-4.8,0.38        c-6.37,41.56-9.32,99.41,1.27,145c7.76,33.39,21.1,52.59,39.65,57.07c25.57,5.14,71.07,8.62,84.8-3.91        c1.37-1.25,3.13-1.91,4.92-1.91c0.88,0,1.76,0.16,2.61,0.48c2.58,0.99,4.38,3.34,4.65,6.09c0.11,1.04,1.48,12.25,8.7,25.53        c11.06,10.6,25.36,22.66,38.9,29.17C2512.47,2392.59,2592.81,2384.99,2701.99,2379.34z"/>
					</g>
				</g>
			</g>
			<g>
				<g>
					<path class="st0" d="M889.91,1742.08c223.66,74.43,447.7,69.78,449.94,69.7c0.06,0,0.12,0,0.19,0c0.02,0,0.05,0,0.08,0       c404.36,4.57,703.05-120.4,840.74-351.85c107.88-181.33,105.91-417.67-5.13-616.78c-111.95-200.73-278.75-331.36-398.97-405.59       c-106.27-65.62-195.85-99.96-225.99-110.61c0.15,2.73,0.21,5.44,0.2,8.22c-0.14,3.41-0.22,6.8-0.7,10.16l-0.59,5.03l-0.95,4.96       c-2.59,13.21-7.43,25.75-13.64,37.36c-3.37,5.68-6.62,11.37-10.68,16.53c-3.65,5.43-8.16,10.17-12.41,15.06       c-4.31,4.85-9.28,9.05-13.86,13.56c-4.96,4.13-10.04,8.09-15.03,12.12c4.6-4.5,9.26-8.9,13.76-13.43       c4.11-4.91,8.59-9.47,12.34-14.61c3.71-5.17,7.62-10.16,10.64-15.73c3.43-5.31,6.01-11.06,8.68-16.7       c4.82-11.54,8.16-23.59,9.37-35.78l0.44-4.56l0.09-4.57c0.15-3.04-0.08-6.06-0.24-9.08c-0.27-2.99-0.54-6-1.12-8.9       c-0.45-2.84-1.24-5.97-1.97-8.14l-0.14-0.41c-0.2-0.6-0.29-1.2-0.33-1.8c-12.63-67.5-30.91-86.42-125.06-159.85       c-68.83-53.69-90.65-101.69-97.54-125.36c-81.62,99.74-29.67,190.25-29.12,191.19c1.46,2.46,1.34,5.54-0.29,7.89       c-1.63,2.35-4.51,3.53-7.3,3c-74.02-13.59-110.49-87.44-123.83-122.49c-42.45,106.13,3.3,182.3,8.32,190.13       c0.06,0.08,0.14,0.15,0.2,0.24c0.15,0.22,0.29,0.45,0.42,0.68l0.15,0.28c2.2,4.09,5.5,8.84,8.73,13.08       c3.26,4.36,6.85,8.53,10.53,12.64c7.41,8.18,15.53,15.81,24.03,23.05c8.55,7.19,17.55,13.9,26.89,20.18       c4.62,3.21,9.49,6.05,14.24,9.11l14.7,8.45l-15.55-6.84c-5.06-2.53-10.26-4.86-15.25-7.58c-10.06-5.3-19.9-11.1-29.41-17.49       c-9.47-6.45-18.67-13.39-27.33-21.09c-4.31-3.87-8.56-7.86-12.56-12.15c-2.77-2.97-5.38-5.87-7.96-9.12       c-30.53,10.22-202.17,70.99-369.46,196.76C613.41,637.82,414.65,858.86,426.2,1191.36       C435.45,1457.48,591.46,1642.77,889.91,1742.08z M1565.25,1028.24c2.9-2.79,7.51-2.7,10.31,0.19       c3.53,3.67,87.77,88.87,182.87,5.23c3.03-2.66,7.64-2.36,10.29,0.66c2.66,3.03,2.36,7.63-0.66,10.3       c-33.93,29.85-66.91,40-96.07,40c-61.66,0-106.3-45.39-106.95-46.07C1562.26,1035.64,1562.35,1031.03,1565.25,1028.24z        M1141.13,1255.68c3.08-2.6,7.67-2.21,10.28,0.87c14.72,17.44,59.18,61.6,88.29,56.81c37.42-6.24,92.46-44.51,93.01-44.9       c2.84-1.99,6.68-1.7,9.18,0.67c0.64,0.6,64.42,59.93,114.31,44.91c51.16-15.43,77.56-56.26,77.82-56.68       c2.16-3.39,6.65-4.41,10.06-2.26c3.4,2.15,4.42,6.65,2.27,10.05c-1.17,1.86-29.4,45.8-85.95,62.85       c-7.04,2.12-14.23,3.06-21.42,3.06c-44.18,0-88.74-35.28-102.72-47.39c-14.74,9.81-59.87,38.36-94.18,44.08       c-43.24,7.21-99.47-58.97-101.84-61.79C1137.66,1262.88,1138.05,1258.28,1141.13,1255.68z M914.78,1029.69       c2.1-3.38,6.44-4.5,9.86-2.45c1.42,0.85,3.18,2.32,6.08,4.76c67.11,56.3,129.81,55.09,186.33-3.56       c2.8-2.9,7.42-2.98,10.31-0.19c2.9,2.79,2.99,7.41,0.19,10.31c-25.04,25.98-59.38,49.4-101.79,49.4       c-30.73,0-65.68-12.28-104.43-44.78c-1.71-1.44-3.66-3.07-4.24-3.45C913.75,1037.56,912.67,1033.07,914.78,1029.69z"/>
				</g>
				<g>
					<path class="st1" d="M918.37,1760.66c0,0-422.91-225.26-387.15-586.68s286.12-545.89,453.66-594.84       s358.74,105.41,358.74,105.41s207.86-195.77,471.4-67.77s395.3,549.66,297.42,779.31       c-97.88,229.65-275.76,324.95-425.89,382.72l-28.71,15.41C1657.84,1794.23,1234.62,1866.08,918.37,1760.66z"/>
				</g>
				<g>
					<g>
						<path class="st10" d="M881.98,1261.26c253.5-56.53,317.5-126.81,293.65-246.03c-23.84-119.22-122.98-173.18-326.28-131.77        c-140.21,28.56-238.31,93.22-285.72,130.61c-15.47,48.9-26.69,102.13-32.41,159.9c-8.97,90.64,10.92,172.71,45.74,244.81l0,0        C576.96,1418.79,628.48,1317.79,881.98,1261.26z"/>
					</g>
					<g>
						<path class="st10" d="M2111.14,1004.29c-53.43-38.18-149.43-94.69-277.69-120.82c-203.3-41.41-302.44,12.55-326.28,131.77        c-23.84,119.22,40.16,189.49,293.65,246.03c226.09,50.42,291.51,136.21,303.02,154.17c2.92-6.34,5.8-12.77,8.6-19.33        C2157.5,1290.39,2153.86,1144,2111.14,1004.29z"/>
					</g>
				</g>
				<g class="st4">
					<path class="st5" d="M1134.22,1264.34c0,0,39.53,98.51,98.51,107.3s96.32-43.92,110.28-34.51c13.96,9.41,65.41,39.53,111.22,32       s89.1-92.51,85.96-87.67s-62.12,54.67-115.45,42.3c-53.33-12.36-90.98-37.46-90.98-37.46s-73.84,50.56-113.47,32.18       C1180.65,1300.1,1134.22,1264.34,1134.22,1264.34z"/>
				</g>
				<g class="st4">
					<path class="st5" d="M1156.01,319.38c-2.13-2.23-25.71,23.06-26.65,32.47c-0.94,9.41,47.7,38.68,124.79,34.16       C1254.15,386.01,1178.42,342.91,1156.01,319.38z"/>
				</g>
				<g class="st4">
					<path class="st5" d="M1283.56,376.48c-6.3,0.23-57.1-26.98-89.1-91.61c0,0,32.63,25.73,74.04,40.79       C1309.91,340.71,1318.7,375.22,1283.56,376.48z"/>
				</g>
				<g>
					<g>
						<path class="st9" d="M602.13,744.17c0,0-121.73,907.94,725.35,907.94c847.08,0,848.96-734.95,848.96-734.95        s94.28,208.5,61.93,407.93c43.41-154.83,22.46-329.31-62.65-481.93c-14.93-26.78-30.87-52.26-47.51-76.58        c-151.71-205.35-577.95-421.25-577.95-421.25l-0.59,5.03l-0.95,4.96c-2.59,13.21-7.43,25.75-13.64,37.36        c-3.37,5.68-6.62,11.37-10.68,16.53c-3.65,5.43-8.16,10.17-12.41,15.06c-4.31,4.85-9.28,9.05-13.86,13.56        c-4.96,4.13-10.04,8.09-15.03,12.12c4.6-4.5,9.26-8.9,13.76-13.43c4.11-4.91,8.59-9.47,12.34-14.61        c3.71-5.17,7.62-10.16,10.64-15.73c3.43-5.31,6.01-11.06,8.68-16.7c4.82-11.54,8.16-23.59,9.37-35.78l0.44-4.56l0.09-4.57        c0.1-1.99,0.03-3.97-0.07-5.95c-9.85-66.84-77.7-115.72-148.75-159.49c-71.06-43.77-78.12-86.12-78.12-86.12        c-24.94,7.06-41.41,72-40,82.35c0,0-2.1-4.11-4.69-10.5c3.05,34.53,15.87,56.89,16.14,57.36c1.46,2.46,1.34,5.54-0.29,7.89        c-1.63,2.35-4.51,3.53-7.3,3c-6.27-1.15-12.25-2.77-17.99-4.72c7.69,5.65,14.13,10.04,14.13,10.04        c-95.33,4.7-129.82-97.23-129.97-97.67c-23.9,90.18,13.79,152.92,18.32,159.99c0.06,0.08,0.14,0.15,0.2,0.24        c0.15,0.22,0.29,0.45,0.42,0.68l0.15,0.28c2.2,4.09,5.5,8.84,8.73,13.08c3.26,4.36,6.85,8.53,10.53,12.64        c7.41,8.18,15.53,15.81,24.03,23.05c8.55,7.19,17.55,13.9,26.89,20.18c4.62,3.21,9.49,6.05,14.24,9.11l14.7,8.45l-15.55-6.84        c-5.06-2.53-10.26-4.86-15.25-7.58c-10.06-5.3-19.9-11.1-29.41-17.49c-9.47-6.45-18.67-13.39-27.33-21.09        c-4.31-3.87-8.56-7.86-12.56-12.15c-2.77-2.97-5.38-5.87-7.96-9.12c-9.26,3.1-31.56,10.89-62.73,23.69        c1.84,10.43-20.62,28.59-57.77,52.77c2.55,1.98,4.64,4.33,6.09,7.11c10.73,20.49-14.54,54.89-56.44,76.84        c-40.78,21.36-82.2,22.99-94.28,4.18c-23.04,13.96-46.92,28.63-71.03,43.9C664.54,618.29,531.25,783.3,529.14,786.38        c-65.22,110.4-108.51,244.74-102.94,404.97c1.83,52.78,9.54,102.32,22.88,148.69C444.2,1235.72,445.07,932.03,602.13,744.17z"/>
					</g>
					<g class="st4">
						<path class="st5" d="M2176.44,917.16c0,0-1.88,734.95-848.96,734.95c-847.08,0-725.35-907.94-725.35-907.94        c-157.06,187.86-157.93,491.55-153.05,595.88c53.94,187.48,201.57,322.41,440.83,402.03c223.66,74.43,447.7,69.78,449.94,69.7        c0.06,0,0.12,0,0.19,0c0.02,0,0.05,0,0.08,0c404.36,4.57,703.05-120.4,840.74-351.85c25.18-42.33,44.3-87.69,57.52-134.85        C2270.72,1125.66,2176.44,917.16,2176.44,917.16z"/>
					</g>
					<g class="st6">
						<path class="st1" d="M1271.48,238.43c0,0-6.43-4.39-14.13-10.04c-62.03-21.13-93.64-85.69-105.85-117.77        c-4.14,10.35-7.42,20.4-10,30.14C1141.66,141.21,1176.15,243.13,1271.48,238.43z"/>
					</g>
					<g class="st6">
						<path class="st1" d="M1311.48,93.02c0,0,7.06,42.35,78.12,86.12c71.05,43.76,138.91,92.64,148.75,159.49        c-0.05-1.04-0.11-2.08-0.16-3.12c-0.27-2.99-0.54-6-1.12-8.9c-0.45-2.84-1.24-5.97-1.97-8.14l-0.14-0.41        c-0.2-0.6-0.29-1.2-0.33-1.8c-12.63-67.5-30.91-86.42-125.06-159.85c-68.83-53.69-90.65-101.69-97.54-125.36        c-41.28,50.44-48.38,98.5-45.25,133.83c2.59,6.39,4.69,10.5,4.69,10.5C1270.07,165.02,1286.54,100.08,1311.48,93.02z"/>
					</g>
					<g class="st6">
						<path class="st1" d="M2128.21,766.58c-108.13-157.96-247.28-264.68-351.46-329.01c-106.27-65.62-195.85-99.96-225.99-110.61        c0.15,2.73,0.21,5.44,0.2,8.22c-0.14,3.41-0.22,6.8-0.7,10.16C1550.26,345.33,1976.5,561.22,2128.21,766.58z"/>
					</g>
					<g class="st6">
						<path class="st1" d="M815.47,522.67c24.11-15.28,48-29.94,71.03-43.9c12.09,18.81,53.51,17.18,94.28-4.18        c41.9-21.95,67.17-56.35,56.44-76.84c-1.46-2.78-3.54-5.12-6.09-7.11c37.15-24.18,59.61-42.34,57.77-52.77        c-71.58,29.41-190.18,85.45-306.73,173.06c-87.44,65.74-182.92,156.76-253.04,275.45        C531.25,783.3,664.54,618.29,815.47,522.67z"/>
					</g>
				</g>
				<g>
					<g>
						<path class="st5" d="M1362.06,1834.32c-7.29,0-14.6-0.04-21.96-0.12c-9.67,0.19-233.44,3.55-456.93-70.74        c-134.37-44.66-242.57-108.25-321.61-188.99c-99.39-101.53-152.47-230.17-157.76-382.33        c-5.26-151.23,30.92-292.86,107.51-420.96c61.07-102.13,147.79-195.81,257.74-278.41        c153.86-115.59,311.54-177.19,363.21-195.59c-16.07-33.24-41.88-111.98,6.51-213.28c2.72-5.71,8.66-9.16,15.01-8.54        c6.3,0.57,11.57,5.01,13.22,11.11c0.26,0.94,23.58,84.02,83.98,114.91c-11.64-41.61-17.67-117.99,54.04-196.47        c4.09-4.48,10.47-6.07,16.2-4.06c5.72,2.02,9.68,7.28,10.05,13.33c0.03,0.4,5.65,57.11,92.09,124.53        c88.37,68.93,116.85,93.93,131.84,166.01c28.04,9.65,120.25,44,232.92,113.52c122.61,75.65,292.78,208.88,407.16,413.98        c114.92,206.06,116.77,450.97,4.82,639.15c-66.83,112.34-169.25,200.7-304.41,262.64        C1750.42,1800.6,1570.98,1834.32,1362.06,1834.32z M1340.03,1803.96c0.06,0,0.11,0,0.17,0        c401.55,4.48,697.72-119.08,833.93-348.03c106.46-178.94,104.45-412.29-5.24-608.97        c-111.04-199.1-276.55-328.77-395.84-402.49c-129.7-80.15-234.44-113.43-235.49-113.75c-5.35-1.67-9.34-6.17-10.35-11.68        c-12.14-65.93-29.63-84.09-122.43-156.47c-58.74-45.82-84.23-88.17-95.28-115.45c-65.49,90.16-21.85,167.67-19.81,171.17        c2.97,5.1,2.71,11.49-0.68,16.32c-3.39,4.83-9.27,7.26-15.08,6.2c-66.13-12.15-103.56-69.51-121.83-108.79        c-30.82,96.95,12.56,161.98,14.63,165.01c2.71,3.96,3.4,8.99,1.83,13.53c-1.57,4.53-5.19,8.08-9.77,9.5        c-1.88,0.58-189.81,60.11-372.28,197.4c-243.08,182.89-361.68,409.53-352.5,673.63c9.12,262.4,163.22,445.25,458.01,543.46        c222.38,74.08,445.4,69.51,447.63,69.42C1339.78,1803.96,1339.9,1803.96,1340.03,1803.96z"/>
					</g>
					<g>
						<path class="st5" d="M878.79,1017.19c54.59,32.77,111.17,61.29,174.03,34.57c18.6-7.67,37.17-18.97,56.23-31.76        c8.87-5.94,20.89-3.57,26.83,5.31c4.45,6.65,4.22,15.07,0.1,21.37c-14.2,21.65-33.69,40.76-57.7,55.2        c-73.49,44.27-163.71,15.77-215.58-46.9c-0.45-0.67-3.4-4.04-3.84-4.8c-0.07-0.1-0.2-0.27-0.21-0.32        c0.23,0.01,0.36-0.01,0.58-0.07C838.12,1036.23,856.81,1004.92,878.79,1017.19L878.79,1017.19z"/>
					</g>
					<g>
						<path class="st5" d="M1831.71,1049.79c0.23,0.06,0.36,0.08,0.58,0.07c-0.01,0.06-0.15,0.22-0.21,0.32l-1.05,1.38l-2.79,3.42        c-41.58,49.95-110.53,81.28-176.19,63.45c-39.91-10.51-75.57-38.68-97.08-71.75c-11.55-17.91,10.15-38.52,27.37-26.38        c76.93,54.27,131.35,54.8,211.74,7.26c0,0,18.08-10.37,18.08-10.37C1834.03,1004.93,1852.89,1036.17,1831.71,1049.79        L1831.71,1049.79z"/>
					</g>
					<g>
						<path class="st5" d="M1439.23,1338.84c-42.84,0-85.3-30.51-103.53-45.45c-18.63,12.02-59.85,36.66-92.32,42.07        c-46.71,7.73-102.85-57.05-109.1-64.47c-5.38-6.38-4.56-15.91,1.81-21.29c6.38-5.38,15.91-4.56,21.29,1.8        c20.8,24.62,59.76,57.7,81.03,54.14c35.65-5.94,89.28-43.22,89.82-43.59c5.88-4.1,13.83-3.53,19.04,1.39        c16.87,15.84,68.93,54.49,106.68,43.1c48.16-14.52,73.24-53.01,73.49-53.39c4.49-7.02,13.82-9.1,20.85-4.63        c7.03,4.47,9.14,13.75,4.69,20.8c-1.24,1.96-30.99,48.28-90.3,66.17C1454.94,1337.82,1447.08,1338.84,1439.23,1338.84z"/>
					</g>
					<g>
						<path class="st5" d="M1343.01,1219.85c0,0-40.47-0.47-70.12-30.59s-46.12-49.41-26.82-82.83        c14.89-25.78,57.52-31.06,99.41-31.06c41.88,0,84.96,3.18,101.43,43.65S1398.07,1222.2,1343.01,1219.85z"/>
					</g>
					<g>
						<path class="st5" d="M1556.5,311.8c2.89,14.77,1.45,29.92-1.99,44.39c-9.56,40.08-38.11,71.45-71.43,93.76        c25.9-25.95,47.64-59.71,49-97.11c0.4-10.64-0.53-22.25-4.45-32.04C1522.18,301.65,1550.08,292.9,1556.5,311.8L1556.5,311.8z"/>
					</g>
					<g>
						<path class="st5" d="M1167.36,298.02c14.63,28.69,39.14,51.49,64.42,71.21c7.8,6.1,19.52,13.79,27.94,19.23        c-21.49-7.66-42.96-17.01-62.57-28.79c-20.53-12.6-40.84-27.11-55.9-46.42c-6.7-7.58-6.92-18.73,1.75-24.89        C1151.91,281.82,1165.32,287.23,1167.36,298.02L1167.36,298.02z"/>
					</g>
				</g>
			</g>
		</g>
		<g>
			<g>
				<path class="st1" d="M398.16,462.74c22.76-37.25,33.99-81.96,29.19-128.73c-11.66-113.53-113.14-196.12-226.68-184.46      S4.55,262.69,16.21,376.22s113.14,196.12,226.68,184.46c31.58-3.24,60.75-13.45,86.18-28.92l95.63,21.45L398.16,462.74z"/>
			</g>
			<g class="st11">
				<g>
					<path class="st1" d="M204.73,189.08c106.06-10.89,201.58,60.47,223.2,162.46c0.03-7.29-0.29-14.64-1.05-22.05       c-11.66-113.53-113.14-196.12-226.68-184.46C86.68,156.69,4.09,258.18,15.74,371.71c0.76,7.44,1.94,14.74,3.45,21.9       C19.59,289.31,98.64,199.97,204.73,189.08z"/>
				</g>
			</g>
			<g>
				<path class="st5" d="M221.61,576.89c-112.19,0-208.74-85.14-220.44-199.13C-11.32,256.12,77.49,147,199.13,134.51      c121.58-12.45,230.77,76.31,243.26,197.96c4.77,46.42-4.86,92.01-27.87,132.31l24.69,84.18c1.51,5.14,0.18,10.69-3.48,14.59      c-3.66,3.91-9.11,5.59-14.34,4.41l-89.8-20.14c-26.84,15.33-56.13,24.71-87.16,27.9C236.77,576.51,229.15,576.89,221.61,576.89z       M221.92,163.57c-6.51,0-13.09,0.33-19.7,1.01C97.15,175.37,20.46,269.62,31.24,374.68s105.03,181.8,210.1,170.97      c28.59-2.93,55.46-11.95,79.87-26.8c3.34-2.03,7.34-2.69,11.16-1.84l70.6,15.83L383.66,467c-1.2-4.09-0.62-8.5,1.61-12.14      c22.01-36.01,31.36-77.27,27.05-119.3C402.21,237.11,318.82,163.57,221.92,163.57z"/>
			</g>
			<g class="st4">
				<path class="st5" d="M399.32,460.76c-56.6,47.88-134.58,68.84-212.02,49.57C101.43,488.95,38.16,423.56,15.4,344.19      c-0.54,10.52-0.3,21.22,0.81,32.03c11.66,113.53,113.14,196.12,226.68,184.46c31.58-3.24,60.75-13.45,86.18-28.92l95.63,21.45      l-26.54-90.47C398.56,462.09,398.93,461.41,399.32,460.76z"/>
			</g>
			<g>
				<path class="st12" d="M287.86,297.09L287.86,297.09c-17.88-17.88-46.88-14.68-64.76,3.2l-2.78,2.78l-2.78-2.78      c-17.88-17.88-46.88-21.09-64.76-3.2l0,0c-17.88,17.88-17.88,46.88,0,64.76l2.78,2.78l56.23,56.23c4.71,4.71,12.36,4.71,17.07,0      l56.23-56.23l2.78-2.78C305.74,343.97,305.74,314.97,287.86,297.09z"/>
			</g>
		</g>
	</g>
</g>
</svg>